<svg width="13" height="13" viewBox="0 0 13 13" fill="none" xmlns="http://www.w3.org/2000/svg">
<g clip-path="url(#clip0_371_341)">
<path d="M1.26465 8.30677C2.10122 10.5614 4.27146 12.1682 6.8172 12.1682C9.36295 12.1682 11.5332 10.5614 12.3698 8.30677L6.8172 7.79193L1.26465 8.30677Z" fill="#FFDA44"/>
<path d="M6.8172 0.326538C4.27146 0.326538 2.10122 1.9333 1.26465 4.18796L6.8172 4.70279L12.3698 4.18793C11.5332 1.9333 9.36295 0.326538 6.8172 0.326538Z" fill="black"/>
<path d="M1.26476 4.18796C1.02677 4.82937 0.896484 5.52313 0.896484 6.24736C0.896484 6.9716 1.02677 7.66536 1.26476 8.30677H12.3699C12.6079 7.66536 12.7381 6.9716 12.7381 6.24736C12.7381 5.52313 12.6079 4.82937 12.3699 4.18796H1.26476Z" fill="#D80027"/>
</g>
<defs>
<clipPath id="clip0_371_341">
<rect width="11.8417" height="11.8417" fill="white" transform="translate(0.896484 0.326538)"/>
</clipPath>
</defs>
</svg>
