<svg width="1440" height="1990" viewBox="0 0 1440 1990" fill="none" xmlns="http://www.w3.org/2000/svg">
<path d="M1784.71 502.167C1784.71 505.509 1784.71 508.85 1784.71 508.85C1784.71 512.192 1784.71 515.533 1784.71 518.875V525.557V532.24C1784.71 538.923 1784.71 542.265 1784.71 548.948C1784.71 555.631 1784.71 558.972 1784.71 562.314C1784.71 565.655 1784.71 572.338 1784.71 575.68C1784.71 579.021 1784.71 582.363 1784.71 585.704C1784.71 589.046 1784.71 592.387 1784.71 595.729C1784.71 599.07 1784.71 602.411 1784.71 605.753C1784.71 609.094 1784.71 612.436 1784.71 615.777C1784.71 622.46 1784.71 629.143 1784.71 635.826C1784.71 642.509 1784.71 649.192 1784.71 655.875C1784.71 662.558 1784.71 669.241 1781.36 679.266C1781.36 682.607 1781.36 685.948 1781.36 689.29C1781.36 692.631 1781.36 695.973 1781.36 699.314C1778.01 716.022 1774.66 729.388 1771.32 742.754C1771.32 749.437 1767.97 752.778 1764.62 759.461V766.144V772.827C1764.62 779.51 1761.27 782.851 1757.93 789.534C1754.58 796.217 1754.58 799.559 1751.23 806.242C1751.23 806.242 1751.23 809.583 1751.23 812.925C1751.23 816.266 1751.23 816.266 1751.23 819.608C1751.23 822.949 1751.23 822.949 1751.23 826.291C1751.23 829.632 1747.88 836.315 1744.54 839.657C1741.19 842.998 1741.19 849.681 1737.84 853.023C1737.84 853.023 1737.84 853.022 1737.84 856.364C1737.84 856.364 1737.84 856.364 1737.84 859.706C1737.84 859.706 1737.84 856.364 1737.84 853.023C1737.84 853.023 1737.84 849.681 1734.49 846.34C1734.49 842.998 1727.8 836.315 1724.45 832.974C1721.1 829.632 1717.76 822.949 1714.41 819.608C1714.41 819.608 1711.06 816.266 1707.71 812.925C1707.71 812.925 1707.71 812.925 1707.71 809.583C1707.71 806.242 1707.71 809.583 1707.71 806.242C1707.71 806.242 1704.37 799.559 1701.02 796.217L1694.32 789.534C1694.32 789.534 1690.98 786.193 1687.63 782.851L1674.24 769.486C1674.24 769.486 1674.24 766.144 1670.89 762.803C1667.55 759.461 1670.89 759.461 1667.55 756.12C1667.55 752.778 1660.85 749.437 1657.5 746.095C1657.5 746.095 1657.5 742.754 1650.81 739.412C1644.11 736.071 1647.46 736.071 1644.11 732.729C1640.77 729.388 1637.42 726.046 1634.07 722.705C1634.07 722.705 1634.07 719.363 1630.72 719.363C1627.38 719.363 1630.72 716.022 1624.03 712.68C1624.03 709.339 1617.33 705.997 1613.99 702.656C1613.99 702.656 1610.64 699.314 1607.29 695.973C1603.94 692.631 1603.94 692.631 1600.6 689.29C1597.25 685.948 1593.9 682.607 1590.55 679.266C1567.12 655.875 1540.34 635.826 1513.56 615.777C1510.22 612.436 1503.52 609.094 1500.17 605.753H1493.48C1493.48 599.07 1490.13 599.07 1486.78 595.729C1483.44 592.387 1476.74 589.046 1470.05 585.704C1470.05 585.704 1463.35 582.363 1460 579.021C1456.66 575.68 1453.31 575.68 1449.96 572.338L1439.92 565.655L1429.88 558.972C1429.88 558.972 1423.18 555.631 1419.83 552.289C1419.83 552.289 1419.83 552.289 1416.49 552.289H1413.14L1399.75 542.265H1393.05C1393.05 538.923 1393.05 535.582 1393.05 535.582H1389.71C1386.36 535.582 1379.67 528.899 1376.32 528.899H1369.62C1369.62 525.557 1366.28 522.216 1362.93 522.216C1359.58 522.216 1352.89 518.874 1349.54 515.533H1346.19C1346.19 515.533 1339.5 515.533 1336.15 512.192C1332.8 512.192 1329.45 508.85 1326.11 505.509C1322.76 505.509 1319.41 505.509 1316.06 502.167C1312.72 498.826 1309.37 502.167 1306.02 498.826H1299.33C1299.33 495.484 1295.98 495.484 1292.63 492.143C1289.28 492.143 1285.94 488.801 1279.24 485.46H1272.55C1272.55 485.46 1272.55 485.46 1269.2 485.46C1265.85 485.46 1269.2 485.46 1265.85 485.46L1249.11 478.777C1249.11 478.777 1249.11 478.777 1245.77 478.777C1242.42 478.777 1245.77 478.777 1242.42 478.777H1232.38L1222.34 472.094H1215.64H1198.9C1195.56 465.411 1192.21 465.411 1188.86 465.411H1182.17C1178.82 465.411 1172.12 462.069 1168.78 458.728C1165.43 455.386 1162.08 458.728 1158.73 458.728H1142C1142 455.386 1131.95 452.045 1131.95 452.045C1131.95 452.045 1125.26 452.045 1121.91 452.045C1115.22 452.045 1108.52 452.045 1101.83 448.703H1095.13C1088.44 448.703 1081.74 448.703 1075.05 448.703C1075.05 448.703 1075.05 448.703 1071.7 448.703H1068.35C1068.35 448.703 1061.66 448.703 1058.31 448.703C1054.96 448.703 1051.62 448.703 1048.27 448.703C1044.92 448.703 1041.57 448.703 1038.23 448.703H1014.79C1014.79 448.703 1014.79 448.703 1011.45 448.703H1004.75C1004.75 448.703 998.057 448.703 994.709 448.703H981.319C984.667 442.02 988.014 435.337 994.709 428.655C994.709 428.655 998.057 425.313 1001.4 421.972C1001.4 418.63 1008.1 415.289 1008.1 411.947C1011.45 405.264 1014.79 401.923 1021.49 395.24C1024.84 388.557 1031.53 385.215 1031.53 381.874C1091.79 308.361 1165.43 241.532 1245.77 188.068L1232.38 194.751C1232.38 194.751 1232.38 194.751 1225.68 198.092C1225.68 198.092 1225.68 201.434 1222.34 201.434C1222.34 201.434 1218.99 201.434 1215.64 208.117C1222.34 201.434 1225.68 204.775 1222.34 208.117C1212.29 214.8 1202.25 224.824 1192.21 231.507C1192.21 231.507 1185.51 234.849 1185.51 238.19C1185.51 238.19 1185.51 238.19 1182.17 238.19H1178.82C1175.47 244.873 1168.78 248.215 1165.43 251.556C1165.43 251.556 1165.43 254.898 1162.08 258.239C1158.73 261.581 1152.04 264.922 1148.69 271.605C1148.69 271.605 1145.34 274.946 1142 278.288C1138.65 281.629 1138.65 281.629 1135.3 284.971C1131.95 288.312 1125.26 294.995 1121.91 298.337C1121.91 298.337 1121.91 298.337 1121.91 301.678C1121.91 305.02 1121.91 301.678 1121.91 305.02L1115.22 311.703C1115.22 311.703 1121.91 308.361 1121.91 305.02C1121.91 305.02 1121.91 305.02 1125.26 301.678C1128.61 298.337 1125.26 301.678 1128.61 298.337C1135.3 294.995 1138.65 288.312 1145.34 281.629C1155.39 271.605 1168.78 261.581 1178.82 251.556C1178.82 251.556 1178.82 251.556 1182.17 248.215C1185.51 244.873 1182.17 248.215 1185.51 244.873C1185.51 244.873 1192.21 241.532 1195.56 238.19C1198.9 234.849 1202.25 234.849 1202.25 231.507H1205.6C1205.6 228.166 1205.6 228.166 1205.6 224.824L1218.99 218.141H1225.68C1225.68 211.458 1225.68 211.458 1229.03 211.458C1229.03 211.458 1235.72 208.117 1239.07 204.775C1242.42 201.434 1245.77 201.434 1249.11 198.092C1249.11 198.092 1249.11 198.092 1252.46 198.092C1259.16 198.092 1265.85 191.409 1272.55 188.068C1279.24 184.726 1285.94 181.385 1292.63 178.044C1292.63 178.044 1292.63 178.044 1295.98 178.044C1295.98 178.044 1292.63 181.385 1289.28 184.726C1285.94 184.726 1279.24 191.409 1275.89 191.409C1275.89 191.409 1275.89 191.409 1272.55 191.409H1269.2C1269.2 198.092 1262.5 198.092 1259.16 201.434C1255.81 204.775 1252.46 204.775 1249.11 208.117C1245.77 211.458 1242.42 211.458 1239.07 214.8C1235.72 218.141 1232.38 218.141 1229.03 221.483L1218.99 228.166L1208.95 234.849C1208.95 234.849 1208.95 234.849 1202.25 238.19C1195.56 241.532 1202.25 238.19 1198.9 241.532C1198.9 244.873 1198.9 241.532 1202.25 241.532C1208.95 238.19 1215.64 231.507 1222.34 228.166C1222.34 228.166 1229.03 224.824 1232.38 221.483C1235.72 218.141 1239.07 218.141 1242.42 214.8C1249.11 214.8 1242.42 218.141 1235.73 228.166C1225.68 234.849 1215.64 244.873 1205.6 251.556C1195.56 258.239 1185.51 268.263 1178.82 271.605C1155.39 291.654 1131.95 315.044 1108.52 338.435C1108.52 338.435 1101.83 345.117 1101.83 348.459H1095.13C1095.13 355.142 1095.13 355.142 1091.78 358.483L1075.05 378.532C1068.35 385.215 1065.01 391.898 1058.31 398.581C1058.31 398.581 1058.31 401.923 1054.96 401.923C1051.62 401.923 1054.96 405.264 1051.62 405.264C1051.62 408.606 1048.27 411.947 1044.92 415.289C1054.96 401.923 1068.35 388.557 1078.4 375.191C1078.4 371.849 1085.09 368.508 1085.09 365.166C1085.09 365.166 1085.09 365.166 1088.44 361.825V358.483C1095.13 351.801 1098.48 345.118 1105.17 341.776C1111.87 335.093 1115.22 331.752 1121.91 325.069C1128.61 318.386 1135.3 315.044 1138.65 308.361C1138.65 308.361 1138.65 308.361 1142 305.02C1145.34 301.678 1142 305.02 1145.34 301.678C1145.34 301.678 1152.04 294.995 1155.39 294.995C1155.39 294.995 1155.39 294.995 1158.73 291.654C1162.08 288.312 1158.73 291.654 1162.08 288.312C1162.08 288.312 1168.78 284.971 1168.78 281.629C1168.78 281.629 1175.47 278.288 1178.82 274.946C1182.17 271.605 1185.51 268.263 1188.86 268.263C1192.21 268.263 1195.56 261.581 1198.9 261.581C1198.9 261.581 1198.9 261.581 1202.25 261.581C1202.25 261.581 1202.25 268.263 1195.56 268.263C1192.21 271.605 1188.86 274.946 1185.51 278.288C1188.86 274.946 1195.56 271.605 1198.9 268.263C1202.25 264.922 1208.95 261.581 1212.29 258.239C1218.99 251.556 1232.38 244.873 1235.73 241.532L1242.42 238.19C1242.42 238.19 1245.77 234.849 1249.11 231.507C1249.11 231.507 1255.81 228.166 1259.16 224.824C1259.16 224.824 1259.16 224.824 1262.5 224.824H1265.85L1272.55 218.141L1279.24 214.8H1282.59C1282.59 214.8 1282.59 211.458 1285.94 211.458C1292.63 211.458 1295.98 204.775 1302.67 201.434H1306.02C1306.02 201.434 1306.02 198.092 1309.37 198.092C1309.37 198.092 1316.06 198.092 1316.06 194.751C1316.06 191.409 1322.76 191.409 1322.76 191.409C1326.11 191.409 1332.8 188.068 1336.15 184.726C1339.5 181.385 1346.19 181.385 1349.54 178.044L1366.28 171.361H1369.62L1379.66 168.019H1389.71C1389.71 164.678 1396.4 161.336 1396.4 161.336L1413.14 154.653C1416.49 154.653 1413.14 154.653 1416.49 154.653C1449.96 141.287 1483.44 131.263 1516.91 124.58C1516.91 124.58 1516.91 124.58 1520.26 124.58C1523.61 124.58 1520.26 124.58 1526.95 124.58C1526.95 124.58 1530.3 124.58 1533.65 124.58C1573.82 114.555 1617.33 107.872 1657.5 104.531H1670.89H1677.59H1680.93C1680.93 104.531 1680.93 104.531 1684.28 104.531C1684.28 104.531 1684.28 104.531 1684.28 107.872V111.214C1684.28 114.555 1687.63 121.238 1690.98 124.58C1694.32 127.921 1694.32 134.604 1697.67 137.946L1707.71 157.995C1707.71 157.995 1707.71 157.995 1707.71 164.678C1707.71 171.36 1707.71 164.678 1707.71 171.361V181.385C1711.06 181.385 1714.41 181.385 1714.41 184.726C1714.41 188.068 1714.41 184.726 1714.41 188.068C1714.41 188.068 1714.41 194.751 1717.76 198.092C1721.1 201.434 1717.76 204.775 1721.1 208.117C1724.45 211.458 1721.1 214.8 1721.1 218.141C1721.1 228.166 1727.8 234.849 1731.15 241.532C1731.15 248.215 1737.84 258.239 1737.84 264.922C1741.19 281.629 1747.88 298.337 1751.23 315.044C1751.23 315.044 1751.23 321.727 1751.23 325.069C1751.23 325.069 1751.23 325.069 1751.23 328.41C1751.23 331.752 1751.23 328.41 1751.23 331.752C1751.23 338.435 1751.23 345.118 1754.58 351.801C1754.58 351.801 1754.58 358.483 1754.58 361.825C1754.58 365.166 1754.58 368.508 1754.58 371.849C1754.58 375.191 1754.58 378.532 1754.58 381.874C1754.58 385.215 1754.58 388.557 1754.58 388.557C1754.58 391.898 1754.58 395.24 1754.58 401.923C1754.58 401.923 1754.58 408.606 1754.58 411.947C1754.58 415.289 1754.58 418.63 1754.58 421.972C1754.58 431.996 1754.58 438.679 1754.58 448.703C1754.58 458.728 1754.58 465.411 1754.58 475.435C1754.58 475.435 1754.58 475.435 1754.58 478.777C1754.58 482.118 1754.58 478.777 1754.58 482.118C1754.58 482.118 1754.58 485.46 1754.58 488.801C1754.58 492.143 1754.58 498.826 1754.58 502.167C1754.58 505.509 1754.58 512.191 1754.58 515.533V562.314L1784.71 502.167ZM1791.4 1404.37C1791.4 1397.68 1791.4 1394.34 1791.4 1391V1377.64C1791.4 1377.64 1791.4 1370.95 1791.4 1367.61C1791.4 1377.63 1791.4 1377.64 1791.4 1374.29C1791.4 1374.29 1791.4 1367.61 1791.4 1364.27C1791.4 1360.93 1791.4 1357.59 1791.4 1354.24C1791.4 1347.56 1791.4 1340.88 1791.4 1334.2C1791.4 1327.51 1791.4 1320.83 1791.4 1314.15C1791.4 1314.15 1791.4 1314.15 1791.4 1310.81C1791.4 1307.46 1791.4 1310.81 1791.4 1307.46V1300.78C1791.4 1300.78 1791.4 1297.44 1791.4 1294.1C1791.4 1294.1 1791.4 1287.41 1791.4 1284.07C1791.4 1284.07 1791.4 1277.39 1791.4 1274.05C1791.4 1267.37 1791.4 1260.68 1788.05 1257.34C1784.71 1254 1788.05 1243.98 1784.71 1240.63V1230.61C1784.71 1230.61 1781.36 1223.93 1781.36 1220.59C1788.05 1247.32 1794.75 1277.39 1801.44 1310.81C1801.44 1310.81 1801.44 1310.81 1801.44 1314.15C1801.44 1320.83 1801.44 1327.51 1804.79 1334.2C1804.79 1337.54 1804.79 1337.54 1804.79 1340.88C1804.79 1340.88 1804.79 1340.88 1804.79 1347.56C1804.79 1347.56 1804.79 1354.24 1804.79 1357.59C1804.79 1357.59 1804.79 1360.93 1804.79 1364.27C1804.79 1374.29 1804.79 1380.98 1804.79 1387.66C1804.79 1394.34 1804.79 1404.37 1804.79 1411.05V1421.07C1804.79 1424.42 1804.79 1427.76 1804.79 1431.1C1804.79 1434.44 1804.79 1437.78 1804.79 1441.12V1454.49C1804.79 1454.49 1804.79 1451.15 1804.79 1447.81V1441.12V1434.44C1804.79 1434.44 1804.79 1427.76 1804.79 1424.42C1804.79 1424.42 1804.79 1421.07 1804.79 1417.73C1804.79 1414.39 1804.79 1414.39 1804.79 1411.05C1804.79 1404.37 1804.79 1394.34 1804.79 1384.32C1804.79 1374.29 1804.79 1367.61 1804.79 1357.59C1804.79 1347.56 1804.79 1340.88 1801.44 1330.85C1801.44 1337.54 1801.44 1347.56 1801.44 1354.24C1801.44 1360.93 1801.44 1370.95 1801.44 1377.64C1801.44 1384.32 1794.75 1377.63 1794.75 1364.27C1794.75 1364.27 1794.75 1357.59 1794.75 1354.24V1347.56C1794.75 1347.56 1794.75 1340.88 1794.75 1337.54V1330.85C1794.75 1330.85 1794.75 1327.51 1794.75 1324.17C1794.75 1317.49 1794.75 1310.81 1794.75 1304.12C1794.75 1297.44 1794.75 1294.1 1794.75 1290.76C1794.75 1274.05 1788.05 1260.68 1784.71 1243.98C1784.71 1237.29 1781.36 1227.27 1778.01 1220.59C1774.66 1213.9 1774.66 1203.88 1771.32 1197.19C1761.27 1167.12 1751.23 1133.71 1737.84 1103.63C1737.84 1106.97 1737.84 1113.66 1741.19 1117C1741.19 1117 1741.19 1120.34 1741.19 1123.68C1741.19 1127.02 1741.19 1127.02 1741.19 1130.37C1741.19 1133.71 1741.19 1137.05 1744.54 1143.73C1744.54 1143.73 1744.54 1147.07 1744.54 1150.41C1744.54 1150.41 1744.54 1153.76 1744.54 1157.1C1744.54 1160.44 1744.54 1163.78 1747.88 1170.46C1747.88 1173.8 1747.88 1177.15 1747.88 1180.49C1747.88 1183.83 1747.88 1187.17 1751.23 1193.85C1751.23 1193.85 1751.23 1197.19 1751.23 1200.54V1207.22C1751.23 1213.9 1754.58 1223.93 1757.93 1230.61C1757.93 1233.95 1757.93 1237.29 1757.93 1243.98C1757.93 1243.98 1757.93 1247.32 1757.93 1250.66C1757.93 1254 1757.93 1254 1757.93 1257.34C1757.93 1260.68 1757.93 1264.02 1757.93 1270.71C1757.93 1274.05 1757.93 1277.39 1757.93 1284.07C1757.93 1290.76 1757.93 1300.78 1761.27 1307.46C1761.27 1314.15 1761.27 1324.17 1761.27 1330.85C1761.27 1330.85 1761.27 1334.2 1761.27 1337.54C1761.27 1340.88 1761.27 1344.22 1761.27 1347.56C1761.27 1347.56 1757.93 1340.88 1757.93 1337.54C1757.93 1337.54 1757.93 1334.2 1757.93 1330.85C1757.93 1327.51 1757.93 1324.17 1757.93 1320.83C1757.93 1320.83 1757.93 1320.83 1757.93 1324.17C1757.93 1327.51 1757.93 1324.17 1757.93 1327.51C1757.93 1327.51 1757.93 1334.2 1757.93 1337.54C1757.93 1340.88 1757.93 1344.22 1757.93 1347.56C1757.93 1350.9 1757.93 1354.24 1757.93 1354.24C1757.93 1357.59 1757.93 1364.27 1757.93 1370.95V1377.64C1757.93 1377.64 1757.93 1380.98 1757.93 1384.32V1391C1757.93 1391 1757.93 1397.68 1757.93 1401.03C1757.93 1404.37 1757.93 1407.71 1757.93 1407.71C1757.93 1407.71 1757.93 1407.71 1757.93 1411.05C1757.93 1417.73 1757.93 1424.42 1757.93 1431.1C1757.93 1437.78 1757.93 1444.46 1757.93 1451.15V1461.17C1757.93 1461.17 1757.93 1467.85 1757.93 1471.2C1757.93 1477.88 1757.93 1484.56 1757.93 1491.25V1497.93C1757.93 1497.93 1757.93 1497.93 1757.93 1501.27C1757.93 1504.61 1757.93 1511.29 1757.93 1517.98C1757.93 1524.66 1757.93 1528 1757.93 1534.68C1757.93 1534.68 1757.93 1541.37 1757.93 1544.71C1757.93 1551.39 1757.93 1551.39 1757.93 1554.73C1757.93 1561.42 1757.93 1568.1 1757.93 1574.78C1757.93 1581.47 1757.93 1581.47 1757.93 1584.81C1757.93 1584.81 1757.93 1591.49 1757.93 1594.83C1757.93 1601.51 1757.93 1604.86 1757.93 1611.54C1757.93 1614.88 1757.93 1611.54 1757.93 1614.88C1757.93 1618.22 1757.93 1624.9 1757.93 1628.25C1757.93 1628.25 1757.93 1631.59 1757.93 1634.93C1757.93 1644.95 1754.58 1651.64 1751.23 1661.66C1747.88 1671.69 1747.88 1678.37 1744.54 1688.39C1744.54 1695.08 1744.54 1695.08 1744.54 1698.42C1744.54 1701.76 1744.54 1708.44 1741.19 1711.78C1741.19 1711.78 1741.19 1711.78 1741.19 1715.12C1741.19 1718.47 1741.19 1718.47 1741.19 1721.81C1741.19 1721.81 1741.19 1725.15 1741.19 1728.49C1727.8 1768.59 1714.41 1808.69 1697.67 1848.78V1858.81L1690.98 1872.17V1875.52C1690.98 1875.52 1690.98 1875.52 1687.63 1875.52H1680.93C1677.59 1875.52 1670.89 1875.52 1667.55 1875.52C1667.55 1875.52 1664.2 1875.52 1660.85 1875.52C1660.85 1875.52 1660.85 1875.52 1657.5 1875.52C1654.16 1875.52 1657.5 1875.52 1654.16 1875.52H1630.72C1630.72 1875.52 1627.38 1875.52 1624.03 1875.52H1613.99H1607.29C1607.29 1875.52 1603.94 1875.52 1600.6 1875.52C1600.6 1875.52 1593.9 1875.52 1590.55 1875.52H1580.51C1580.51 1875.52 1580.51 1875.52 1577.16 1875.52C1573.82 1875.52 1577.16 1875.52 1573.82 1875.52C1540.34 1868.83 1506.87 1862.15 1476.74 1852.12H1473.39C1473.39 1852.12 1473.39 1852.12 1470.05 1852.12H1460C1460 1848.78 1453.31 1848.78 1449.96 1845.44C1449.96 1845.44 1449.96 1845.44 1446.61 1845.44H1443.27L1426.53 1838.76C1426.53 1838.76 1426.53 1838.76 1423.18 1838.76C1419.83 1838.76 1423.18 1838.76 1419.83 1838.76H1413.14C1413.14 1838.76 1406.44 1838.76 1403.1 1835.42C1403.1 1835.42 1403.1 1835.42 1399.75 1835.42H1396.4C1396.4 1832.08 1389.71 1832.08 1386.36 1828.73H1376.32C1376.32 1825.39 1366.28 1818.71 1366.28 1818.71C1362.93 1818.71 1359.58 1818.71 1356.23 1812.03C1356.23 1812.03 1352.89 1812.03 1349.54 1812.03C1349.54 1812.03 1346.19 1812.03 1342.84 1812.03C1339.5 1812.03 1336.15 1808.69 1329.45 1805.34H1326.11C1326.11 1805.34 1322.76 1802 1319.41 1798.66L1306.02 1791.98C1306.02 1791.98 1306.02 1791.98 1306.02 1788.64C1306.02 1788.64 1302.67 1788.64 1299.33 1788.64C1295.98 1788.64 1289.28 1781.95 1285.94 1781.95C1285.94 1781.95 1282.59 1781.95 1279.24 1778.61C1275.89 1775.27 1275.89 1778.61 1272.55 1775.27C1272.55 1775.27 1265.85 1771.93 1262.5 1768.59C1262.5 1768.59 1262.5 1768.59 1259.16 1768.59C1255.81 1768.59 1259.16 1768.59 1255.81 1768.59C1252.46 1768.59 1245.77 1761.91 1242.42 1761.91C1242.42 1761.91 1239.07 1761.91 1235.73 1758.56C1232.38 1755.22 1232.38 1758.56 1229.03 1755.22C1222.34 1748.54 1212.29 1745.2 1205.6 1738.51C1202.25 1735.17 1195.56 1731.83 1188.86 1728.49L1175.47 1715.12H1172.12L1168.78 1708.44L1162.08 1701.76L1155.39 1695.08L1148.69 1688.39L1131.95 1671.69C1131.95 1671.69 1131.95 1671.69 1128.61 1668.34C1128.61 1668.34 1121.91 1661.66 1118.56 1661.66C1111.87 1654.98 1108.52 1651.64 1101.83 1644.95L1095.13 1638.27C1095.13 1638.27 1091.79 1631.59 1088.44 1631.59C1085.09 1628.25 1081.74 1624.9 1078.4 1618.22C1078.4 1618.22 1075.05 1614.88 1071.7 1611.54L1065.01 1604.86C1065.01 1604.86 1061.66 1601.51 1058.31 1598.17C1058.31 1594.83 1058.31 1591.49 1058.31 1591.49C1054.96 1588.15 1051.62 1581.47 1044.92 1578.12C1044.92 1578.12 1044.92 1574.78 1041.57 1571.44C1041.57 1568.1 1034.88 1564.76 1031.53 1561.42V1554.73C1024.84 1554.73 1024.84 1551.39 1021.49 1548.05C1021.49 1544.71 1014.79 1541.37 1011.45 1534.68C1011.45 1534.68 1011.45 1534.68 1011.45 1531.34C1011.45 1531.34 1014.79 1531.34 1018.14 1531.34H1028.18C1034.88 1531.34 1038.23 1531.34 1044.92 1531.34C1051.62 1531.34 1054.96 1531.34 1061.66 1531.34C1068.35 1531.34 1071.7 1531.34 1078.4 1531.34C1081.74 1531.34 1085.09 1531.34 1088.44 1531.34C1088.44 1531.34 1095.13 1531.34 1098.48 1531.34C1098.48 1531.34 1098.48 1531.34 1101.83 1531.34C1105.17 1531.34 1101.83 1531.34 1105.17 1531.34C1111.87 1531.34 1115.22 1531.34 1121.91 1528C1142 1524.66 1162.08 1521.32 1182.17 1514.64H1188.86C1188.86 1514.64 1192.21 1514.64 1195.56 1511.29C1198.9 1511.29 1205.6 1511.29 1212.29 1507.95C1212.29 1507.95 1212.29 1507.95 1215.64 1507.95C1215.64 1507.95 1215.64 1507.95 1218.99 1507.95H1225.68C1232.38 1504.61 1235.72 1501.27 1239.07 1501.27C1269.2 1491.25 1302.67 1477.88 1332.8 1464.51C1339.5 1464.51 1342.84 1461.17 1346.19 1457.83H1352.89C1352.89 1454.49 1356.23 1451.15 1359.58 1451.15C1366.28 1451.15 1369.62 1444.46 1376.32 1444.46C1376.32 1444.46 1376.32 1444.46 1379.66 1444.46C1383.01 1444.46 1379.66 1444.46 1383.01 1444.46L1393.05 1437.78C1393.05 1437.78 1399.75 1437.78 1403.1 1431.1C1406.44 1424.42 1409.79 1427.76 1413.14 1424.42C1416.49 1421.07 1419.83 1421.07 1423.18 1417.73C1426.53 1414.39 1429.88 1414.39 1433.22 1411.05L1446.61 1401.03H1453.31C1453.31 1394.34 1456.66 1394.34 1460 1391L1473.39 1380.98C1473.39 1380.98 1476.74 1380.98 1480.09 1377.64C1483.44 1374.29 1483.44 1377.64 1486.78 1374.29C1490.13 1374.29 1496.83 1367.61 1500.17 1364.27C1506.87 1360.93 1510.22 1354.24 1516.91 1350.9C1516.91 1350.9 1523.61 1347.56 1526.95 1344.22V1340.88H1530.3C1530.3 1334.2 1536.99 1334.2 1540.34 1330.85C1547.04 1324.17 1553.73 1320.83 1560.43 1314.15C1563.77 1314.15 1570.47 1307.46 1573.82 1304.12C1580.51 1300.78 1583.86 1294.1 1587.21 1290.76C1587.21 1290.76 1587.21 1290.76 1590.55 1290.76C1593.9 1290.76 1590.55 1290.76 1593.9 1290.76C1593.9 1290.76 1597.25 1287.41 1600.6 1284.07C1603.94 1280.73 1603.94 1280.73 1607.29 1277.39C1610.64 1274.05 1610.64 1274.05 1613.99 1270.71C1617.33 1267.37 1620.68 1264.02 1627.38 1257.34C1627.38 1257.34 1627.38 1257.34 1630.72 1254C1630.72 1254 1630.72 1250.66 1637.42 1247.32C1637.42 1247.32 1644.11 1240.63 1647.46 1237.29C1647.46 1237.29 1647.46 1237.29 1650.81 1233.95C1654.16 1230.61 1650.81 1233.95 1654.16 1230.61C1657.5 1223.93 1664.2 1220.59 1664.2 1217.24L1670.89 1210.56L1677.59 1203.88C1680.93 1197.19 1687.63 1193.85 1690.98 1190.51C1690.98 1190.51 1690.98 1187.17 1694.32 1187.17L1707.71 1170.46C1707.71 1170.46 1711.06 1167.12 1714.41 1163.78C1717.76 1160.44 1717.76 1160.44 1721.1 1157.1L1727.8 1150.41C1727.8 1150.41 1731.15 1143.73 1734.49 1143.73L1747.88 1127.02C1747.88 1127.02 1747.88 1127.02 1747.88 1120.34C1747.88 1113.66 1751.23 1113.66 1754.58 1113.66C1754.58 1110.32 1757.93 1106.97 1761.27 1103.63C1761.27 1110.32 1767.97 1117 1771.32 1123.68C1771.32 1123.68 1771.32 1127.02 1771.32 1130.37C1771.32 1133.71 1774.66 1140.39 1778.01 1143.73C1778.01 1147.07 1781.36 1150.41 1781.36 1153.76C1781.36 1153.76 1781.36 1160.44 1784.71 1163.78C1784.71 1170.46 1788.05 1177.15 1791.4 1180.49C1824.88 1270.71 1844.96 1367.61 1851.65 1464.51M984.667 1481.22C977.972 1481.22 971.277 1481.22 961.235 1481.22C961.235 1481.22 961.235 1481.22 957.887 1481.22C954.54 1481.22 954.54 1481.22 951.192 1481.22C947.845 1481.22 941.15 1481.22 941.15 1481.22H927.76C924.413 1474.54 921.065 1467.85 917.718 1461.17C917.718 1461.17 917.718 1454.49 914.371 1454.49C914.371 1451.15 911.023 1444.46 907.676 1441.12C907.676 1441.12 904.328 1434.44 900.981 1431.1C900.981 1431.1 900.981 1431.1 900.981 1427.76C900.981 1424.42 900.981 1427.76 900.981 1421.07C900.981 1414.39 894.286 1407.71 894.286 1404.37C857.464 1310.81 830.684 1213.9 823.99 1113.66C823.99 1120.34 823.99 1123.68 823.99 1127.02C823.99 1130.37 823.99 1133.71 823.99 1143.73C823.99 1143.73 823.99 1150.41 823.99 1153.76C823.99 1143.73 823.99 1143.73 823.99 1147.07C823.99 1153.76 823.99 1160.44 823.99 1167.12C823.99 1170.46 823.99 1173.8 823.99 1173.8C823.99 1173.8 823.99 1180.49 823.99 1183.83C823.99 1187.17 823.99 1190.51 823.99 1193.85C823.99 1193.85 823.99 1193.85 823.99 1197.19C823.99 1200.54 823.99 1197.19 823.99 1200.54C823.99 1207.22 823.99 1213.9 823.99 1217.24C823.99 1217.24 823.99 1220.59 823.99 1223.93C823.99 1230.61 823.99 1237.29 827.337 1240.63C827.337 1240.63 827.337 1247.32 827.337 1250.66C827.337 1254 827.337 1257.34 827.337 1260.68C827.337 1267.37 830.684 1274.05 830.684 1280.73C830.684 1287.41 834.032 1294.1 837.379 1300.78C837.379 1297.44 837.379 1294.1 837.379 1290.76C837.379 1290.76 837.379 1287.41 837.379 1284.07C837.379 1280.73 837.379 1280.73 837.379 1277.39C837.379 1270.71 834.032 1264.02 830.684 1254C830.684 1254 830.684 1250.66 830.684 1247.32C830.684 1243.98 830.684 1243.98 830.684 1240.63C830.684 1237.29 830.684 1233.95 830.684 1230.61C830.684 1227.27 830.684 1223.93 830.684 1217.24C830.684 1210.56 830.684 1210.56 830.684 1203.88C830.684 1203.88 830.684 1203.88 830.684 1200.54C830.684 1197.19 830.684 1193.85 830.684 1190.51C830.684 1187.17 830.684 1183.83 830.684 1180.49C830.684 1173.8 830.684 1167.12 827.337 1160.44C827.337 1153.76 827.337 1150.41 827.337 1147.07C827.337 1143.73 827.337 1137.05 827.337 1133.71C827.337 1133.71 827.337 1130.37 827.337 1127.02C827.337 1127.02 827.337 1123.68 827.337 1120.34C827.337 1117 827.337 1113.66 827.337 1106.98C827.337 1100.29 827.337 1100.29 827.337 1096.95V1063.54C827.337 1060.19 827.337 1056.85 827.337 1050.17C827.337 1050.17 827.337 1050.17 827.337 1046.83C827.337 1046.83 827.337 1050.17 827.337 1053.51C827.337 1060.19 827.337 1063.54 827.337 1070.22C827.337 1076.9 827.337 1083.58 827.337 1093.61C827.337 1093.61 827.337 1096.95 827.337 1100.29C827.337 1103.63 827.337 1103.63 827.337 1106.98C827.337 1110.32 827.337 1117 827.337 1120.34C827.337 1120.34 827.337 1123.68 827.337 1127.02C827.337 1133.71 827.337 1140.39 827.337 1143.73C827.337 1143.73 827.337 1147.07 827.337 1150.41C827.337 1153.76 827.337 1160.44 827.337 1163.78C827.337 1160.44 827.337 1157.1 827.337 1150.41C827.337 1143.73 827.337 1143.73 827.337 1137.05C827.337 1130.37 827.337 1130.37 827.337 1123.68C827.337 1123.68 827.337 1120.34 827.337 1117V1110.32C827.337 1110.32 827.337 1110.32 830.684 1110.32C830.684 1113.66 830.684 1120.34 834.032 1123.68C834.032 1130.37 834.032 1137.05 834.032 1143.73C834.032 1147.07 834.032 1150.41 834.032 1153.76C834.032 1157.1 834.032 1160.44 834.032 1163.78C834.032 1167.12 834.032 1170.46 834.032 1173.8C834.032 1177.15 834.032 1180.49 834.032 1183.83C834.032 1190.51 834.032 1193.85 834.032 1197.19C840.727 1230.61 850.769 1260.68 860.811 1294.1C860.811 1297.44 860.811 1300.78 864.159 1307.46V1314.15C864.159 1314.15 867.506 1317.49 867.506 1320.83C867.506 1327.51 874.201 1337.54 877.549 1344.22C880.896 1350.9 884.244 1360.93 887.591 1367.61C887.591 1370.95 890.938 1374.29 894.286 1377.64C897.633 1380.98 897.633 1384.32 900.981 1387.66C900.981 1384.32 897.633 1377.64 894.286 1374.29C894.286 1374.29 894.286 1370.95 894.286 1367.61C894.286 1364.27 894.286 1364.27 894.286 1360.93C894.286 1357.59 890.938 1354.24 887.591 1347.56C884.244 1340.88 884.244 1340.88 880.896 1334.2C877.549 1327.51 877.549 1327.51 877.549 1320.83C877.549 1320.83 877.549 1317.49 877.549 1314.15C877.549 1307.46 870.854 1297.44 870.854 1290.76C870.854 1284.07 867.506 1274.05 864.159 1267.37C860.811 1260.68 860.811 1250.66 857.464 1240.63C857.464 1240.63 857.464 1237.29 857.464 1233.95C857.464 1230.61 857.464 1230.61 857.464 1227.27C857.464 1223.93 857.464 1220.59 857.464 1213.9C857.464 1213.9 857.464 1210.56 857.464 1207.22C857.464 1200.54 857.464 1197.2 857.464 1193.85C857.464 1187.17 857.464 1180.49 854.117 1170.46C854.117 1167.12 854.117 1160.44 854.117 1157.1C854.117 1157.1 854.117 1153.76 854.117 1150.41C854.117 1147.07 854.117 1147.07 854.117 1143.73C857.464 1150.41 860.811 1160.44 864.159 1167.12C864.159 1160.44 864.159 1153.76 864.159 1147.07C864.159 1147.07 864.159 1140.39 864.159 1137.05C864.159 1133.71 864.159 1130.37 864.159 1130.37C864.159 1130.37 864.159 1127.02 864.159 1123.68C864.159 1123.68 864.159 1123.68 864.159 1120.34C864.159 1117 864.159 1120.34 864.159 1117C864.159 1113.66 864.159 1106.97 864.159 1103.63V1096.95C864.159 1096.95 864.159 1096.95 864.159 1093.61C864.159 1090.27 864.159 1093.61 864.159 1086.93C864.159 1083.58 864.159 1080.24 864.159 1073.56C864.159 1060.19 864.159 1046.83 864.159 1036.8C864.159 1036.8 864.159 1036.8 864.159 1033.46V1010.07V993.365C864.159 993.365 864.159 993.365 864.159 990.023C864.159 990.023 864.159 990.023 864.159 986.682C864.159 983.34 864.159 979.999 864.159 979.999V973.316C864.159 966.633 864.159 963.291 864.159 956.609C864.159 949.926 864.159 943.242 864.159 936.559V926.535V923.194V919.852C864.159 906.486 864.159 893.12 867.506 883.096C867.506 879.754 867.506 883.096 867.506 879.754C874.201 842.998 880.896 806.242 890.938 772.827C890.938 772.827 890.938 772.827 890.938 769.486C890.938 766.144 890.938 766.144 890.938 759.461C890.938 759.461 890.938 756.12 890.938 752.778C904.328 709.339 917.718 669.241 934.455 629.143V622.46C937.803 622.46 941.15 619.119 941.15 615.777C941.15 612.436 944.497 605.753 947.845 602.411C947.845 602.411 947.845 599.07 951.192 595.729V592.387H967.93H981.319C981.319 592.387 984.667 592.387 988.014 592.387H994.709H1004.75H1014.79C1018.14 592.387 1021.49 592.387 1024.84 592.387H1034.88C1034.88 592.387 1038.23 592.387 1041.57 592.387C1048.27 592.387 1054.96 592.387 1061.66 595.729C1078.4 595.729 1098.48 602.411 1115.22 605.753H1121.91C1121.91 605.753 1125.26 605.753 1128.61 605.753H1142C1142 609.094 1155.39 612.436 1155.39 612.436C1158.73 612.436 1162.08 612.436 1168.78 615.777C1192.21 622.46 1218.99 632.485 1239.07 639.168C1239.07 639.168 1245.77 639.168 1249.11 642.509C1249.11 642.509 1255.81 642.509 1259.16 645.851C1259.16 645.851 1259.16 645.851 1262.5 645.851C1269.2 649.192 1279.24 652.534 1285.94 655.875C1292.63 659.217 1302.67 662.558 1309.37 665.9C1309.37 665.9 1312.72 665.9 1316.06 669.241C1319.41 672.583 1319.41 669.241 1322.76 672.583C1326.11 672.583 1332.8 675.924 1336.15 679.266L1342.84 685.949L1356.23 692.632V695.973H1362.93C1366.28 702.656 1372.97 705.997 1376.32 709.339C1383.01 712.68 1389.71 716.022 1393.05 722.705H1399.75C1399.75 726.046 1406.44 732.729 1406.44 732.729C1409.79 732.729 1416.49 739.412 1419.83 742.754C1419.83 742.754 1423.18 742.754 1426.53 746.095C1429.88 746.095 1433.22 752.778 1439.92 756.12C1460 772.827 1480.09 789.534 1500.17 806.242C1520.26 826.291 1547.04 849.681 1567.12 873.071C1567.12 873.071 1570.47 876.413 1573.82 879.754C1577.16 883.096 1577.16 883.096 1580.51 886.437C1583.86 889.779 1587.21 896.462 1590.55 899.803C1590.55 899.803 1590.55 899.803 1590.55 903.145C1590.55 909.828 1593.9 909.828 1597.25 913.169C1600.6 916.511 1603.94 923.194 1610.64 926.535C1610.64 926.535 1610.64 929.877 1613.99 933.218C1613.99 936.559 1620.68 939.901 1624.03 946.584C1627.38 953.267 1630.72 953.267 1634.07 959.95L1644.11 973.316C1644.11 976.657 1650.81 979.999 1650.81 986.682C1650.81 993.365 1657.5 993.365 1657.5 1000.05C1657.5 1006.73 1664.2 1006.73 1664.2 1013.41C1664.2 1013.41 1664.2 1013.41 1664.2 1016.76C1664.2 1016.76 1664.2 1020.1 1660.85 1023.44C1660.85 1023.44 1660.85 1026.78 1657.5 1030.12C1657.5 1036.8 1650.81 1040.15 1647.46 1043.49C1644.11 1046.83 1640.77 1053.51 1637.42 1056.85C1637.42 1056.85 1634.07 1063.54 1630.72 1066.88C1627.38 1070.22 1624.03 1076.9 1620.68 1080.24C1620.68 1080.24 1617.33 1083.58 1613.99 1086.93C1613.99 1086.93 1613.99 1086.93 1613.99 1090.27C1613.99 1093.61 1613.99 1090.27 1613.99 1093.61C1613.99 1096.95 1607.29 1100.29 1603.94 1103.63C1600.6 1106.97 1597.25 1110.32 1593.9 1113.66C1590.55 1117 1587.21 1120.34 1583.86 1127.02L1577.16 1133.71C1577.16 1133.71 1573.82 1137.05 1570.47 1140.39C1560.43 1153.76 1540.34 1170.46 1526.95 1183.83C1526.95 1183.83 1520.26 1190.51 1516.91 1193.85H1513.56C1513.56 1200.54 1513.56 1200.54 1510.22 1200.54C1503.52 1207.22 1496.83 1210.56 1490.13 1217.24C1483.44 1223.93 1476.74 1227.27 1470.05 1233.95C1470.05 1233.95 1463.35 1240.63 1460 1240.63C1456.66 1240.63 1453.31 1247.32 1449.96 1247.32L1443.27 1254C1443.27 1254 1439.92 1254 1436.57 1257.34C1433.22 1257.34 1426.53 1264.02 1423.18 1267.37H1419.83C1419.83 1270.71 1419.83 1270.71 1416.49 1274.05L1409.79 1280.73C1403.1 1284.07 1399.75 1287.42 1393.05 1294.1C1386.36 1300.78 1379.67 1300.78 1372.97 1307.46C1366.28 1314.15 1359.58 1314.15 1352.89 1317.49C1352.89 1317.49 1349.54 1317.49 1346.19 1320.83C1342.84 1324.17 1342.84 1320.83 1339.5 1324.17C1336.15 1324.17 1329.45 1330.85 1326.11 1334.2C1326.11 1334.2 1322.76 1334.2 1319.41 1337.54H1312.72C1309.37 1344.22 1302.67 1344.22 1299.33 1347.56C1299.33 1347.56 1295.98 1347.56 1292.63 1347.56C1289.28 1347.56 1285.94 1347.56 1285.94 1350.9C1285.94 1354.24 1279.24 1350.9 1275.89 1357.59C1275.89 1357.59 1275.89 1357.59 1269.2 1357.59H1262.5C1259.16 1360.93 1255.81 1364.27 1252.46 1364.27C1249.11 1364.27 1245.77 1364.27 1242.42 1367.61C1239.07 1370.95 1235.72 1367.61 1232.38 1370.95C1229.03 1370.95 1225.68 1370.95 1218.99 1374.29C1218.99 1374.29 1215.64 1374.29 1212.29 1374.29C1205.6 1374.29 1202.25 1377.63 1195.56 1380.98C1188.86 1380.98 1182.17 1384.32 1175.47 1387.66H1165.43L1155.39 1394.34C1148.69 1394.34 1145.34 1397.68 1138.65 1401.03C1131.95 1404.37 1128.61 1401.03 1121.91 1404.37C1111.87 1404.37 1108.52 1404.37 1105.17 1407.71C1095.13 1407.71 1088.44 1411.05 1081.74 1414.39C1075.05 1417.73 1068.35 1414.39 1065.01 1417.73H1054.96C1054.96 1417.73 1054.96 1417.73 1048.27 1417.73C1041.57 1417.73 1048.27 1417.73 1041.57 1417.73H1021.49C1021.49 1421.07 1014.79 1421.07 1014.79 1421.07C1008.1 1421.07 1001.4 1421.07 994.709 1421.07H991.362C991.362 1421.07 991.362 1421.07 988.014 1421.07H977.972C977.972 1421.07 971.277 1421.07 967.93 1421.07H964.582M807.252 1421.07H800.557C797.21 1421.07 790.515 1421.07 787.168 1421.07C780.473 1421.07 773.778 1421.07 767.083 1421.07C760.388 1421.07 753.693 1421.07 750.346 1421.07C653.27 1404.37 562.889 1374.29 475.855 1330.85C482.55 1330.85 485.898 1334.2 489.245 1337.54C489.245 1337.54 492.593 1337.54 495.94 1337.54C495.94 1337.54 495.94 1337.54 499.288 1337.54C502.635 1337.54 499.288 1337.54 502.635 1337.54H509.33C499.288 1334.2 502.635 1330.85 505.982 1334.2C516.025 1340.88 529.414 1344.22 542.804 1350.9C542.804 1350.9 549.499 1350.9 552.847 1354.24H556.194L559.542 1357.59C566.236 1357.59 569.584 1360.93 576.279 1364.27H582.974C589.669 1364.27 593.016 1367.61 599.711 1370.95H609.753C609.753 1374.29 616.448 1374.29 619.796 1377.64C626.49 1377.64 633.185 1380.98 636.533 1384.32H639.88H643.228C643.228 1384.32 649.923 1384.32 653.27 1384.32C649.923 1384.32 646.575 1384.32 643.228 1384.32H636.533C636.533 1384.32 633.185 1384.32 629.838 1384.32C623.143 1384.32 616.448 1380.98 609.753 1377.64C596.363 1374.29 579.626 1367.61 566.236 1364.27H559.542C559.542 1364.27 556.194 1364.27 552.847 1360.93C549.499 1360.93 546.152 1360.93 542.804 1357.59H532.762C532.762 1354.24 532.762 1350.9 529.415 1350.9C526.067 1350.9 529.414 1350.9 526.067 1350.9C522.72 1350.9 519.372 1344.22 516.025 1340.88C516.025 1340.88 512.677 1340.88 509.33 1340.88C505.982 1340.88 505.983 1340.88 502.635 1340.88C499.288 1340.88 495.94 1337.54 492.593 1334.2C489.245 1330.85 485.898 1330.85 482.55 1327.51C482.55 1327.51 482.55 1327.51 479.203 1327.51L459.118 1317.49C452.423 1314.15 445.728 1310.81 439.034 1304.12C439.034 1304.12 442.381 1304.12 445.729 1304.12C449.076 1304.12 455.771 1307.46 459.118 1310.81H462.466C462.466 1310.81 465.813 1314.15 469.161 1314.15C472.508 1314.15 475.855 1314.15 479.203 1320.83C482.55 1327.51 485.898 1324.17 489.245 1327.51C492.593 1330.85 495.94 1330.85 499.288 1334.2C502.635 1337.54 505.982 1337.54 512.677 1340.88C519.372 1344.22 519.372 1344.22 526.067 1347.56L539.457 1354.24C539.457 1354.24 542.804 1354.24 546.152 1354.24C549.499 1354.24 549.499 1354.24 552.847 1354.24C556.194 1354.24 552.847 1354.24 552.847 1350.9C546.152 1350.9 539.457 1344.22 529.415 1340.88C526.067 1340.88 522.72 1340.88 519.372 1337.54C516.025 1334.2 512.677 1334.2 509.33 1330.85C505.982 1324.17 509.33 1327.51 522.72 1330.85C532.762 1334.2 546.152 1340.88 559.542 1347.56C572.931 1354.24 586.321 1357.59 593.016 1360.93C623.143 1370.95 653.27 1380.98 686.744 1387.66H700.134L706.829 1391C706.829 1391 710.177 1391 713.524 1391C720.219 1391 730.261 1391 736.956 1394.34C736.956 1394.34 740.303 1394.34 743.651 1394.34C746.998 1394.34 746.998 1394.34 750.346 1394.34H763.736C763.736 1394.34 767.083 1394.34 770.43 1394.34H777.125C780.473 1394.34 783.82 1394.34 790.515 1394.34C773.778 1394.34 753.693 1387.66 736.956 1387.66C733.609 1387.66 726.914 1387.66 723.566 1387.66H716.871C710.176 1387.66 700.134 1384.32 693.439 1380.98C693.439 1380.98 693.439 1380.98 690.092 1380.98L666.66 1374.29C659.965 1374.29 649.922 1370.95 643.228 1367.61C643.228 1367.61 639.88 1367.61 636.533 1367.61H629.838L619.796 1360.93C619.796 1360.93 616.448 1360.93 613.101 1360.93C609.753 1360.93 609.753 1360.93 606.406 1360.93H596.363C596.363 1354.24 589.669 1354.24 586.321 1354.24C582.974 1354.24 579.626 1354.24 572.931 1350.9C566.236 1347.56 566.236 1350.9 559.542 1347.56C559.542 1347.56 556.194 1347.56 552.847 1347.56C549.499 1347.56 552.847 1347.56 549.499 1347.56C549.499 1347.56 556.194 1347.56 559.542 1347.56C566.236 1347.56 569.584 1347.56 576.279 1350.9C569.584 1350.9 566.236 1347.56 559.542 1344.22C552.847 1340.88 549.499 1337.54 542.804 1337.54C536.109 1337.54 519.372 1327.51 516.025 1327.51H509.33C509.33 1327.51 502.635 1327.51 499.288 1324.17C495.94 1324.17 492.593 1320.83 489.245 1317.49H485.898C485.898 1317.49 485.898 1314.15 482.55 1314.15C482.55 1314.15 475.855 1314.15 475.855 1310.81H469.161C469.161 1307.46 465.813 1304.12 465.813 1304.12C465.813 1304.12 465.813 1304.12 462.466 1304.12C455.771 1304.12 452.423 1297.44 445.729 1294.1H442.381C442.381 1294.1 442.381 1290.76 439.034 1290.76C439.034 1290.76 432.339 1290.76 432.339 1284.07C432.339 1277.39 425.644 1280.73 425.644 1280.73C425.644 1280.73 425.644 1280.73 422.296 1280.73C418.949 1280.73 415.601 1274.05 408.907 1270.71C402.212 1267.37 398.864 1264.02 395.517 1260.68L378.78 1250.66C378.78 1250.66 378.78 1250.66 375.432 1250.66C372.085 1250.66 375.432 1250.66 372.085 1250.66C372.085 1250.66 365.39 1247.32 365.39 1243.98L358.695 1237.29H355.348V1233.95C352 1227.27 345.305 1223.93 341.958 1223.93C338.61 1223.93 341.958 1223.93 341.958 1220.59C315.178 1197.19 288.399 1173.8 264.967 1147.07C264.967 1147.07 264.967 1147.07 264.967 1143.73C264.967 1140.39 264.967 1143.73 258.272 1137.05C258.272 1137.05 258.272 1133.71 254.924 1130.37C224.797 1100.29 198.018 1066.88 174.586 1030.12C174.586 1026.78 167.891 1023.44 164.543 1016.76C161.196 1010.07 157.848 1010.07 157.848 1003.39C157.848 1003.39 157.848 1003.39 157.848 1000.05C157.848 996.706 157.848 993.365 157.848 993.365C157.848 986.682 164.543 983.34 164.543 976.657C164.543 969.974 171.238 969.974 171.238 963.291C174.586 956.608 181.281 949.925 184.628 943.243C187.975 936.56 194.67 929.877 198.018 926.535C201.365 923.194 208.06 916.511 211.408 909.828C214.755 903.145 221.45 899.803 224.797 893.12C224.797 889.779 231.492 886.437 234.84 883.096C234.84 883.096 234.84 879.754 238.187 876.413C241.534 873.071 238.187 873.071 241.534 873.071C241.534 869.73 248.229 866.388 251.577 863.047C251.577 863.047 251.577 863.047 254.924 859.706C258.272 856.364 254.924 859.705 258.272 856.364C264.967 849.681 268.314 842.998 275.009 839.657C281.704 832.974 288.399 826.291 291.746 822.949C291.746 822.949 291.746 822.949 295.094 819.608C298.441 816.266 295.094 819.608 298.441 819.608C298.441 819.608 301.788 816.266 305.136 812.925C308.483 809.583 315.178 802.9 318.526 799.559C321.873 796.217 328.568 792.876 331.915 786.193C331.915 786.193 331.915 786.193 335.263 786.193H338.61C338.61 782.851 341.958 779.51 345.305 779.51C345.305 779.51 352 772.827 355.348 772.827C355.348 772.827 358.695 769.485 362.042 766.144C365.39 762.802 368.737 762.803 368.737 759.461C372.085 759.461 375.432 752.778 378.78 752.778L388.822 746.095C392.169 746.095 395.517 739.412 398.864 739.412C398.864 739.412 402.212 739.412 405.559 736.071C408.907 732.729 408.907 736.071 412.254 732.729C415.602 732.729 418.949 726.046 425.644 726.046V722.705C425.644 722.705 428.991 722.705 432.339 719.363L445.729 712.68V709.339H452.423C455.771 702.656 462.466 699.314 465.813 699.314C469.161 699.314 469.161 699.314 472.508 695.973H479.203C479.203 689.29 485.898 689.29 489.245 685.949C489.245 685.949 489.245 685.949 492.593 685.949C495.94 685.949 492.593 685.949 495.94 685.949C499.288 685.949 505.982 682.607 509.33 679.266C509.33 679.266 512.677 679.266 516.025 675.924C519.372 672.583 519.372 675.924 522.72 672.583C532.762 669.241 539.457 662.558 549.499 659.217C556.194 659.217 562.889 652.534 566.236 652.534C569.584 652.534 579.626 649.192 582.974 645.851H586.321C586.321 645.851 586.321 645.851 589.669 642.509H599.711C599.711 639.168 606.406 635.826 609.753 635.826C613.101 635.826 616.448 635.826 619.796 632.485C626.49 632.485 633.185 629.143 639.88 625.802H646.575C649.923 625.802 653.27 622.46 656.617 622.46C663.312 622.46 673.355 619.119 680.049 615.777C683.397 615.777 686.744 615.777 690.092 615.777C693.439 615.777 696.787 615.777 700.134 615.777C706.829 615.777 710.176 615.777 716.871 612.436C716.871 612.436 723.566 612.436 726.914 612.436H736.956L746.998 609.094H750.346C750.346 609.094 750.346 609.094 753.693 609.094H770.43C770.43 609.094 770.43 605.753 773.778 605.753C777.125 605.753 773.778 605.753 777.125 605.753C780.473 605.753 787.168 605.753 790.515 605.753H797.21C797.21 605.753 800.557 605.753 803.905 605.753H817.295H820.642C820.642 605.753 820.642 605.753 823.99 605.753C823.99 605.753 823.99 609.094 823.99 612.436C823.99 612.436 823.99 619.119 820.642 619.119C820.642 622.46 817.295 629.143 813.947 632.485C810.6 635.826 810.6 642.509 807.252 649.192C803.905 655.875 803.905 659.217 800.557 665.9C800.557 669.241 800.557 672.583 797.21 675.924V682.607C797.21 682.607 797.21 682.607 797.21 685.949C797.21 689.29 797.21 685.948 797.21 689.29C797.21 695.973 793.863 699.314 790.515 705.997C783.82 722.705 777.125 742.754 773.778 766.144C773.778 766.144 773.778 769.485 773.778 772.827C773.778 776.168 773.778 776.168 773.778 779.51C773.778 782.851 773.778 789.534 770.43 796.217C767.083 802.9 770.43 806.242 767.083 812.925C763.736 819.608 767.083 822.949 763.736 829.632C757.041 863.047 750.346 896.462 746.998 929.877C746.998 936.56 746.998 939.901 746.998 946.584V953.267C746.998 953.267 746.998 959.95 746.998 963.291C746.998 969.974 746.998 976.657 746.998 983.34C746.998 983.34 746.998 986.682 746.998 990.023C746.998 993.365 746.998 993.365 746.998 996.706C746.998 1000.05 746.998 1003.39 746.998 1006.73C746.998 1010.07 746.998 1013.41 746.998 1016.76C746.998 1020.1 746.998 1023.44 746.998 1026.78C746.998 1030.12 746.998 1033.46 746.998 1036.8V1046.83C746.998 1053.51 746.998 1056.85 746.998 1063.54V1073.56C746.998 1073.56 746.998 1073.56 746.998 1076.9C746.998 1080.24 746.998 1076.9 746.998 1080.24C746.998 1086.93 746.998 1090.27 746.998 1096.95C746.998 1096.95 746.998 1100.29 746.998 1103.63V1110.32C746.998 1117 746.998 1120.34 746.998 1127.02C746.998 1127.02 746.998 1127.02 746.998 1133.71C746.998 1140.39 746.998 1143.73 746.998 1147.07C746.998 1150.41 746.998 1153.76 746.998 1160.44C746.998 1163.78 746.998 1167.12 746.998 1173.8C746.998 1180.49 746.998 1180.49 746.998 1183.83C746.998 1183.83 746.998 1187.17 746.998 1190.51C746.998 1193.85 746.998 1193.85 746.998 1197.19C746.998 1200.54 746.998 1207.22 746.998 1210.56C746.998 1210.56 746.998 1217.24 746.998 1220.59C746.998 1220.59 746.998 1220.59 746.998 1223.93C746.998 1227.27 746.998 1223.93 746.998 1227.27C746.998 1233.95 746.998 1240.63 750.346 1247.32C750.346 1247.32 750.346 1247.32 750.346 1250.66C750.346 1257.34 750.346 1260.68 750.346 1264.02C750.346 1267.37 750.346 1270.71 750.346 1274.05C750.346 1274.05 750.346 1274.05 750.346 1277.39V1280.73C750.346 1287.41 750.346 1290.76 753.693 1297.44C753.693 1300.78 753.693 1304.12 753.693 1307.46C753.693 1310.81 753.693 1310.81 753.693 1314.15C753.693 1317.49 753.693 1324.17 757.041 1327.51C760.388 1330.85 757.041 1334.2 760.388 1337.54C760.388 1344.22 763.736 1350.9 767.083 1354.24C767.083 1354.24 767.083 1360.93 767.083 1364.27C767.083 1367.61 767.083 1370.95 770.43 1374.29C770.43 1380.98 773.778 1387.66 777.125 1391V1397.68C777.125 1404.37 780.473 1411.05 783.82 1417.73C783.82 1417.73 783.82 1417.73 783.82 1421.07C783.82 1424.42 783.82 1421.07 783.82 1424.42C783.82 1424.42 783.82 1431.1 787.168 1431.1C790.515 1431.1 787.168 1437.78 790.515 1441.12C793.863 1444.46 790.515 1447.81 793.862 1451.15C793.862 1457.83 800.557 1464.51 803.905 1471.2C803.905 1471.2 803.905 1471.2 803.905 1474.54C803.905 1477.88 803.905 1474.54 803.905 1481.22C803.905 1487.9 807.252 1487.9 807.252 1491.25C807.252 1494.59 810.6 1501.27 813.947 1504.61C807.252 1504.61 800.557 1504.61 793.862 1504.61M1898.52 502.167V495.484C1898.52 495.484 1898.52 495.484 1898.52 492.143C1898.52 485.46 1898.52 482.118 1898.52 475.435V468.752C1898.52 468.752 1898.52 468.752 1898.52 465.411C1898.52 462.069 1898.52 465.411 1898.52 462.069C1898.52 455.386 1898.52 445.362 1898.52 438.679C1898.52 438.679 1898.52 435.337 1898.52 431.996C1898.52 428.654 1898.52 428.655 1898.52 425.313C1898.52 421.972 1898.52 421.972 1898.52 418.63C1898.52 415.289 1898.52 411.947 1898.52 405.264C1898.52 405.264 1898.52 401.923 1898.52 398.581C1898.52 398.581 1898.52 391.898 1898.52 388.557V381.874C1898.52 378.532 1898.52 371.849 1898.52 368.508C1878.43 261.581 1844.96 157.995 1791.4 61.0917C1791.4 54.4087 1791.4 51.0672 1784.71 47.7257L1774.66 31.0183H1744.54C1650.81 31.0183 1560.43 44.3843 1473.39 67.7747C1473.39 67.7747 1473.39 67.7747 1476.74 67.7747C1480.09 67.7747 1483.44 67.7747 1486.78 67.7747C1486.78 67.7747 1486.78 67.7747 1490.13 67.7747C1496.83 67.7747 1500.17 67.7746 1503.52 64.4331C1503.52 64.4331 1506.87 64.4331 1510.22 64.4331C1513.56 64.4331 1513.56 64.4331 1516.91 64.4331C1523.6 64.4331 1526.95 64.4332 1536.99 61.0917H1530.3C1533.65 61.0917 1536.99 61.0917 1540.34 61.0917C1540.34 61.0917 1540.34 61.0917 1543.69 61.0917H1547.04C1547.04 61.0917 1547.04 61.0917 1543.69 61.0917H1536.99C1536.99 61.0917 1533.65 61.0917 1530.3 61.0917C1530.3 61.0917 1530.3 61.0917 1533.65 61.0917C1590.55 47.7258 1650.81 41.0429 1707.71 41.0429C1714.41 41.0429 1717.76 41.0429 1724.45 41.0429C1724.45 41.0429 1731.15 41.0429 1734.49 41.0429C1737.84 41.0429 1741.19 41.0429 1744.54 41.0429H1754.58C1754.58 41.0429 1734.49 41.0429 1731.15 41.0429C1727.8 41.0429 1727.8 41.0429 1724.45 41.0429C1721.1 41.0429 1714.41 41.0429 1711.06 41.0429H1704.37C1704.37 41.0429 1701.02 41.0429 1697.67 41.0429H1684.28H1677.59H1670.89C1670.89 41.0429 1667.55 41.0429 1664.2 41.0429H1650.81H1637.42C1637.42 41.0429 1634.07 41.0429 1630.72 41.0429H1624.03C1620.68 41.0429 1617.33 41.0429 1610.64 41.0429H1603.94H1597.25C1590.55 41.0429 1583.86 41.0428 1577.16 44.3843H1570.47H1563.77H1547.04C1536.99 44.3843 1526.95 51.0673 1516.91 51.0673C1513.56 51.0673 1506.87 51.0673 1503.52 51.0673C1500.17 51.0673 1493.48 51.0673 1490.13 51.0673C1480.09 51.0673 1473.39 54.4088 1463.35 57.7503H1449.96C1449.96 61.0917 1443.27 61.0917 1443.27 61.0917C1443.27 61.0917 1439.92 61.0917 1436.57 61.0917C1429.88 61.0917 1419.83 64.4332 1413.14 67.7747C1409.79 67.7747 1406.44 67.7746 1399.75 71.1161H1386.36C1386.36 74.4576 1383.01 77.7991 1379.66 77.7991C1376.32 77.7991 1376.32 77.7991 1372.97 77.7991C1369.62 77.7991 1362.93 77.799 1359.58 81.1405H1346.19C1346.19 87.8235 1342.84 87.8235 1339.5 87.8235C1336.15 87.8235 1336.15 87.8235 1332.8 87.8235H1326.11C1332.8 87.8235 1336.15 81.1406 1342.84 77.7991C1342.84 77.7991 1342.84 77.7991 1346.19 77.7991H1356.23C1356.23 74.4576 1362.93 71.1161 1366.28 71.1161H1369.62C1403.1 57.7502 1439.92 44.3843 1476.74 37.7013C1483.44 37.7013 1486.78 37.7014 1493.48 34.3599C1500.17 31.0184 1503.52 34.3598 1510.22 31.0183C1516.91 27.6768 1520.26 31.0184 1526.95 27.6769H1543.69L1560.43 20.9939H1563.77H1570.47C1577.16 20.9939 1580.51 20.9939 1587.21 20.9939C1587.21 20.9939 1587.21 20.9939 1590.55 20.9939H1593.9C1593.9 20.9939 1597.25 20.9939 1600.6 20.9939C1610.64 20.9939 1600.6 20.9939 1593.9 20.9939H1587.21C1587.21 20.9939 1583.86 20.9939 1580.51 20.9939C1577.16 20.9939 1570.47 20.9939 1567.12 20.9939H1560.43L1547.04 24.3355C1543.69 24.3355 1536.99 24.3355 1533.65 24.3355C1530.3 24.3355 1523.61 24.3355 1520.26 24.3355C1510.22 24.3355 1500.17 27.6768 1490.13 31.0183C1483.44 31.0183 1483.44 31.0184 1490.13 27.6769C1493.48 27.6769 1496.83 27.6769 1503.52 24.3355C1510.22 24.3355 1516.91 24.3354 1523.61 20.9939H1533.65C1536.99 20.9939 1540.34 17.6525 1543.69 17.6525C1547.04 17.6525 1550.38 17.6525 1553.73 17.6525H1560.43C1560.43 17.6525 1563.77 17.6525 1567.12 17.6525H1593.9C1593.9 14.311 1600.6 14.3109 1600.6 14.3109C1600.6 14.3109 1603.94 14.3109 1607.29 14.3109H1620.68H1634.07H1647.46C1654.16 14.3109 1664.2 14.3109 1670.89 14.3109H1690.98H1697.67H1734.49H1754.58C1754.58 14.3109 1751.23 14.3109 1747.88 14.3109H1727.8C1727.8 14.3109 1724.45 14.3109 1721.1 14.3109C1717.76 14.3109 1711.06 14.3109 1707.71 14.3109H1701.02H1694.32C1690.98 14.3109 1684.28 14.3109 1680.93 14.3109H1667.55C1667.55 14.3109 1664.2 14.3109 1660.85 14.3109C1657.5 14.3109 1657.5 14.3109 1654.16 14.3109C1650.81 14.3109 1644.11 14.3109 1637.42 14.3109H1630.72H1624.03C1617.33 14.3109 1613.99 14.3109 1607.29 14.3109H1600.6H1593.9C1583.86 14.3109 1573.82 14.3109 1567.12 14.3109C1587.21 7.62795 1607.29 4.28655 1627.38 0.945068C1620.68 0.945068 1610.64 0.945068 1603.94 0.945068H1597.25C1597.25 0.945068 1593.9 0.945068 1590.55 0.945068C1587.21 0.945068 1583.86 0.945068 1580.51 0.945068H1570.47H1563.77C1563.77 0.945068 1563.77 0.945068 1557.08 0.945068C1550.38 0.945068 1543.69 0.945068 1536.99 0.945068C1536.99 0.945068 1530.3 0.945068 1526.95 0.945068C1523.61 0.945068 1520.26 0.945068 1516.91 0.945068C1510.22 0.945068 1503.52 0.945017 1496.83 4.2865C1496.83 4.2865 1490.13 4.2865 1486.78 4.2865C1483.44 4.2865 1480.09 4.2865 1476.74 4.2865C1470.05 4.2865 1466.7 4.2865 1463.35 4.2865H1456.66L1443.27 10.9695C1436.57 10.9695 1436.57 10.9694 1433.22 14.3109C1433.22 14.3109 1433.22 14.3109 1429.88 14.3109C1426.53 14.3109 1426.53 14.3109 1423.18 14.3109C1406.44 20.9939 1406.44 20.9939 1396.4 20.9939C1389.71 20.9939 1383.01 27.6769 1376.32 27.6769H1366.28C1366.28 31.0184 1356.23 34.3599 1356.23 34.3599L1336.15 44.3843C1329.45 44.3843 1322.76 51.0672 1316.06 54.4087H1309.37C1309.37 54.4087 1309.37 57.7503 1302.67 57.7503H1292.63C1292.63 61.0917 1282.59 67.7747 1282.59 67.7747H1275.89V71.1161C1262.5 77.7991 1249.11 84.4821 1235.73 91.1651C1235.73 91.1651 1229.03 94.5064 1225.68 97.8479C1225.68 97.8479 1225.68 97.8479 1222.34 97.8479C1215.64 97.8479 1222.34 97.848 1215.64 101.189C1212.29 101.189 1215.64 101.189 1208.95 104.531C1208.95 104.531 1202.25 104.531 1202.25 107.872H1198.9C1198.9 107.872 1198.9 111.214 1195.56 111.214C1188.86 111.214 1185.51 117.897 1178.82 121.238L1172.12 127.921L1165.43 134.604C1158.73 137.946 1155.39 141.287 1148.69 144.629C1098.48 178.044 1054.96 218.141 1011.45 258.239C1004.75 264.922 1011.45 258.239 1001.4 264.922C971.277 294.995 941.15 328.41 914.371 361.825C911.023 365.166 907.676 371.849 904.328 375.191C904.328 378.532 904.328 381.874 904.328 381.874C904.328 381.874 900.981 385.215 900.981 388.557C897.633 391.898 894.286 398.581 890.938 401.923C890.938 405.264 890.938 408.606 890.938 408.606V415.289C884.244 418.63 880.896 425.313 877.549 428.655C877.549 431.996 877.549 435.337 877.549 435.337C877.549 438.679 877.549 442.02 877.549 442.02C877.549 442.02 877.549 442.02 874.201 442.02C874.201 442.02 867.506 442.02 864.159 442.02H847.422C847.422 442.02 840.727 442.02 837.379 442.02C834.032 442.02 830.684 442.02 827.337 442.02H807.252C807.252 442.02 800.557 442.02 797.21 442.02H787.168H777.125H773.778H770.43C763.736 442.02 757.041 442.02 750.346 442.02H740.303H736.956C723.566 442.02 710.176 445.362 700.134 448.703C693.439 448.703 686.744 448.703 680.049 452.045C673.355 455.386 666.66 455.386 659.965 455.386H649.922L646.575 458.728H643.228C636.533 458.728 629.838 465.411 623.143 465.411C623.143 465.411 616.448 465.411 613.101 465.411H603.058C596.363 472.094 589.669 472.094 582.974 475.435C582.974 475.435 576.279 475.435 572.931 478.777H562.889C562.889 482.118 552.847 485.46 552.847 485.46C552.847 485.46 546.152 485.46 542.804 488.801C495.94 505.509 452.423 528.899 408.907 552.289C368.737 575.68 328.568 602.411 288.399 629.143C258.272 652.534 231.492 675.924 204.713 699.314C177.933 722.705 154.501 749.437 134.416 772.827C131.069 776.168 127.721 779.51 124.374 786.193C124.374 786.193 121.027 789.534 117.679 792.876C110.984 802.9 104.289 809.583 97.5944 816.266C90.8995 822.949 84.2047 832.974 77.5098 839.657C77.5098 839.657 77.5097 842.998 74.1623 846.34C70.8148 849.681 74.1623 849.681 70.8149 853.023C70.8149 856.364 64.12 859.705 60.7726 866.388C60.7726 866.388 60.7725 869.73 57.425 873.071C54.0776 876.413 57.4251 876.413 54.0777 879.754L44.0354 893.12C37.3405 899.803 33.993 909.828 27.2981 919.852L20.6032 933.218C17.2558 939.901 13.9084 943.242 10.5609 949.925C10.5609 953.267 7.21345 956.608 3.86601 959.95C3.86601 959.95 3.866 963.291 0.518555 966.633C0.518555 973.316 3.86602 976.657 7.21347 979.999V986.682V993.365C13.9084 996.706 13.9083 1003.39 17.2558 1006.73L23.9507 1016.76C27.2981 1023.44 30.6455 1030.12 33.993 1036.8C37.3404 1043.49 40.6879 1050.17 47.3827 1056.85C47.3827 1056.85 50.7302 1063.54 54.0777 1066.88C57.4251 1070.22 57.4251 1073.56 60.7726 1076.9C64.12 1083.58 70.8148 1090.27 74.1623 1096.95C77.5097 1103.63 84.2046 1106.97 87.5521 1113.66C94.247 1123.68 104.289 1137.05 110.984 1143.73V1150.41C117.679 1150.41 117.679 1153.76 121.027 1157.1C121.027 1160.44 127.721 1163.78 131.069 1167.12C131.069 1167.12 134.416 1173.8 137.764 1177.15C141.111 1180.49 141.111 1183.83 144.459 1187.17C147.806 1193.85 154.501 1197.19 157.848 1203.88C184.628 1233.95 214.755 1260.68 248.229 1287.41C281.704 1317.49 318.526 1344.22 355.348 1367.61C355.348 1367.61 362.042 1370.95 362.042 1374.29H368.737C368.737 1377.64 385.475 1387.66 385.475 1387.66C385.475 1387.66 385.475 1387.66 388.822 1387.66H392.169C392.169 1391 398.864 1394.34 398.864 1394.34C405.559 1394.34 408.907 1401.03 415.601 1404.37C422.296 1407.71 428.991 1411.05 439.034 1417.73C439.034 1417.73 442.381 1417.73 445.729 1417.73C449.076 1417.73 449.076 1417.73 452.423 1417.73L462.466 1424.42C505.982 1444.46 549.499 1464.51 593.016 1477.88C596.363 1477.88 599.711 1477.88 603.058 1477.88H613.101C616.448 1481.22 619.796 1484.56 623.143 1484.56H629.838L653.27 1491.25C653.27 1491.25 656.617 1491.25 659.965 1491.25H666.66L676.702 1494.59H686.744L696.787 1501.27C703.482 1501.27 713.524 1501.27 720.219 1504.61H743.651C743.651 1507.95 750.346 1507.95 750.346 1507.95C753.693 1507.95 757.041 1507.95 760.388 1507.95H773.778H780.473H787.168C797.21 1507.95 803.905 1507.95 813.947 1511.29C823.99 1514.64 830.684 1511.29 840.727 1511.29C844.074 1511.29 850.769 1511.29 854.117 1511.29H860.811H864.159C864.159 1514.64 867.506 1517.98 870.854 1524.66C870.854 1524.66 870.854 1528 874.201 1531.34C877.549 1534.68 874.201 1534.68 877.549 1538.03C877.549 1541.37 880.896 1544.71 884.243 1548.05C887.591 1551.39 887.591 1554.73 890.938 1558.07L904.328 1578.12C904.328 1578.12 907.676 1584.81 911.023 1584.81C914.37 1584.81 914.37 1591.49 917.718 1591.49C921.065 1591.49 921.065 1598.17 924.413 1598.17C927.76 1598.17 927.76 1604.86 931.108 1604.86C934.455 1611.54 941.15 1614.88 944.497 1621.56C944.497 1621.56 947.845 1628.25 951.192 1628.25C954.54 1628.25 954.54 1634.93 957.887 1634.93C961.235 1641.61 967.93 1644.95 971.277 1651.64L984.667 1668.34C984.667 1668.34 988.014 1675.03 991.362 1675.03C994.709 1675.03 998.057 1681.71 998.057 1681.71C1004.75 1688.39 1008.1 1691.73 1014.79 1698.42L1028.18 1711.78C1031.53 1715.12 1034.88 1718.47 1041.57 1725.15C1048.27 1731.83 1051.62 1731.83 1054.96 1735.17C1054.96 1735.17 1058.31 1738.51 1061.66 1741.86C1065.01 1745.2 1065.01 1745.2 1068.35 1748.54C1071.7 1751.88 1078.4 1755.22 1081.74 1758.56L1088.44 1765.25V1771.93C1091.79 1775.27 1098.48 1778.61 1101.83 1781.95C1101.83 1781.95 1105.17 1785.3 1108.52 1788.64C1111.87 1795.32 1118.56 1798.66 1121.91 1802C1138.65 1815.37 1158.73 1828.73 1175.47 1838.76C1175.47 1838.76 1178.82 1838.76 1182.17 1842.1H1188.86C1192.21 1848.78 1198.9 1852.12 1202.25 1855.47C1212.29 1862.15 1218.99 1865.49 1225.68 1868.83C1239.07 1875.52 1249.11 1882.2 1259.16 1888.88H1262.5C1262.5 1888.88 1262.5 1892.22 1265.85 1892.22H1272.55C1279.24 1898.91 1282.59 1902.25 1289.28 1905.59C1289.28 1905.59 1289.28 1905.59 1292.63 1905.59H1302.67C1302.67 1912.27 1309.37 1912.27 1312.72 1912.27C1312.72 1912.27 1312.72 1912.27 1316.06 1912.27H1319.41C1326.11 1915.61 1332.8 1918.95 1336.15 1922.3H1339.5L1349.54 1925.64H1359.58C1362.93 1932.32 1366.28 1932.32 1372.97 1935.66L1393.05 1942.35C1393.05 1942.35 1393.05 1942.35 1396.4 1942.35H1406.44C1413.14 1945.69 1419.83 1949.03 1426.53 1952.37L1446.61 1959.05C1493.48 1972.42 1536.99 1979.1 1583.86 1985.78C1590.55 1985.78 1597.25 1985.78 1607.29 1985.78C1610.64 1985.78 1613.99 1985.78 1620.68 1985.78H1634.07C1637.42 1985.78 1644.11 1985.78 1647.46 1985.78H1654.16C1654.16 1985.78 1657.5 1985.78 1660.85 1985.78C1667.55 1985.78 1674.24 1985.78 1677.59 1985.78V1979.1L1687.63 1989.13C1687.63 1989.13 1680.93 1989.13 1677.59 1989.13H1687.63H1697.67H1711.06C1711.06 1989.13 1714.41 1989.13 1717.76 1989.13C1717.76 1989.13 1717.76 1989.13 1721.1 1989.13C1721.1 1989.13 1721.1 1985.78 1724.45 1982.44C1724.45 1979.1 1727.8 1975.76 1731.15 1969.08C1734.49 1962.39 1734.49 1962.39 1737.84 1955.71C1741.19 1949.03 1741.19 1949.03 1744.54 1942.35V1935.66H1747.88C1751.23 1922.3 1757.93 1915.61 1761.27 1905.59C1764.62 1895.56 1767.97 1888.88 1774.66 1878.86C1791.4 1845.44 1804.79 1808.69 1818.18 1771.93C1818.18 1765.25 1821.53 1758.56 1824.88 1755.22C1824.88 1755.22 1824.88 1755.22 1824.88 1751.88C1824.88 1748.54 1824.88 1751.88 1824.88 1748.54C1824.88 1748.54 1824.88 1741.86 1824.88 1738.51C1824.88 1731.83 1824.87 1725.15 1831.57 1721.81C1838.26 1718.47 1831.57 1708.44 1834.92 1701.76C1838.26 1688.39 1841.61 1675.03 1844.96 1658.32C1844.96 1658.32 1844.96 1654.98 1844.96 1651.64C1844.96 1648.29 1844.96 1648.29 1844.96 1644.95C1844.96 1641.61 1844.96 1638.27 1844.96 1631.59C1844.96 1624.9 1844.96 1624.9 1844.96 1618.22C1844.96 1611.54 1844.96 1611.54 1844.96 1604.86C1844.96 1598.17 1844.96 1598.17 1844.96 1591.49C1844.96 1591.49 1844.96 1588.15 1844.96 1584.81C1844.96 1581.47 1844.96 1581.47 1844.96 1578.12C1844.96 1568.1 1844.96 1561.42 1844.96 1551.39V1544.71V1538.03V1524.66C1844.96 1524.66 1844.96 1521.32 1844.96 1517.98C1844.96 1514.64 1844.96 1514.64 1844.96 1511.29C1844.96 1507.95 1844.96 1501.27 1844.96 1497.93C1844.96 1491.25 1844.96 1484.56 1844.96 1477.88C1844.96 1471.2 1844.96 1464.51 1844.96 1457.83C1844.96 1444.46 1844.96 1431.1 1844.96 1417.73V1411.05C1844.96 1404.37 1844.96 1401.03 1844.96 1397.68C1844.96 1391 1844.96 1384.32 1844.96 1380.98C1844.96 1380.98 1844.96 1374.29 1844.96 1370.95C1844.96 1367.61 1844.96 1364.27 1844.96 1364.27C1844.96 1357.59 1844.96 1354.24 1844.96 1350.9V1344.22V1337.54C1844.96 1330.85 1844.96 1324.17 1844.96 1317.49C1844.96 1304.12 1841.61 1284.07 1838.26 1264.02C1838.26 1257.34 1838.26 1254 1838.26 1254V1250.66C1838.26 1250.66 1838.26 1247.32 1838.26 1240.63C1838.26 1233.95 1838.26 1230.61 1838.26 1227.27C1838.26 1227.27 1838.26 1223.93 1838.26 1220.59C1838.26 1217.24 1838.26 1217.24 1838.26 1213.9C1838.26 1210.56 1838.26 1203.88 1838.26 1200.54C1838.26 1200.54 1838.26 1197.2 1838.26 1193.85C1838.26 1190.51 1838.26 1190.51 1838.26 1187.17C1838.26 1177.15 1834.92 1167.12 1831.57 1157.1C1831.57 1153.76 1831.57 1147.07 1828.22 1140.39C1824.88 1133.71 1828.22 1130.37 1821.53 1123.68C1821.53 1117 1818.18 1110.32 1814.83 1103.63V1093.61C1811.49 1093.61 1811.49 1093.61 1808.14 1090.27C1804.79 1086.93 1808.14 1090.27 1808.14 1086.93C1808.14 1080.24 1801.44 1073.56 1801.44 1066.88C1801.44 1066.88 1801.44 1066.88 1801.44 1060.19V1053.51C1798.1 1053.51 1798.1 1046.83 1794.75 1043.49C1791.4 1040.15 1794.75 1036.8 1791.4 1033.46C1788.05 1030.12 1791.4 1026.78 1788.05 1023.44C1788.05 1016.76 1781.36 1010.07 1778.01 1003.39C1778.01 996.706 1771.32 990.023 1767.97 983.34C1767.97 983.34 1767.97 976.657 1764.62 973.316C1761.27 969.974 1764.62 966.633 1761.27 963.291C1761.27 956.608 1754.58 949.925 1751.23 946.584C1751.23 946.584 1751.23 946.584 1751.23 943.243C1751.23 943.243 1751.23 936.559 1757.93 933.218C1757.93 929.877 1761.27 923.193 1764.62 919.852C1767.97 916.511 1764.62 913.169 1767.97 909.828C1767.97 903.145 1774.66 899.803 1774.66 893.12C1784.71 873.071 1791.4 856.364 1798.1 842.998C1798.1 839.657 1798.1 836.315 1801.44 832.974C1801.44 832.974 1801.44 832.974 1801.44 829.632C1801.44 822.949 1804.79 819.608 1808.14 812.925C1808.14 812.925 1808.14 809.583 1808.14 806.242C1808.14 802.9 1808.14 799.559 1811.49 796.217C1814.83 792.876 1811.49 789.534 1814.83 786.193V779.51C1814.83 779.51 1814.83 776.168 1818.18 772.827C1818.18 766.144 1821.53 756.12 1824.88 749.437C1824.88 749.437 1824.88 746.095 1824.88 742.754C1824.88 739.412 1824.88 736.071 1824.88 732.729C1824.88 729.388 1824.88 719.363 1828.22 719.363L1834.92 695.973C1834.92 695.973 1834.92 692.631 1834.92 689.29C1834.92 685.948 1834.92 685.948 1834.92 682.607V672.583C1838.26 665.9 1841.61 659.217 1841.61 652.534C1841.61 645.851 1841.61 639.168 1844.96 632.485C1844.96 629.143 1844.96 625.802 1844.96 622.46C1844.96 619.119 1844.96 615.777 1844.96 612.436C1844.96 605.753 1844.96 599.07 1844.96 589.046C1844.96 572.338 1848.31 555.631 1851.65 538.923C1851.65 532.24 1851.65 528.899 1851.65 515.533C1851.65 508.85 1851.65 495.484 1851.65 492.143V485.46C1851.65 478.777 1851.65 468.752 1851.65 458.728C1851.65 438.679 1851.65 421.972 1851.65 401.923" fill="#014642"/>
</svg>
