<svg width="39" height="41" viewBox="0 0 39 41" fill="none" xmlns="http://www.w3.org/2000/svg">
<path d="M35.8186 10.669C35.8186 10.7359 35.8186 10.8027 35.8186 10.8027C35.8186 10.8695 35.8186 10.9363 35.8186 11.0031V11.1367V11.2703C35.8186 11.4039 35.8186 11.4707 35.8186 11.6043C35.8186 11.7379 35.8186 11.8047 35.8186 11.8715C35.8186 11.9383 35.8186 12.0719 35.8186 12.1387C35.8186 12.2055 35.8186 12.2723 35.8186 12.3392C35.8186 12.406 35.8186 12.4728 35.8186 12.5396C35.8186 12.6064 35.8186 12.6732 35.8186 12.74C35.8186 12.8068 35.8186 12.8736 35.8186 12.9404C35.8186 13.074 35.8186 13.2076 35.8186 13.3412C35.8186 13.4748 35.8186 13.6084 35.8186 13.742C35.8186 13.8756 35.8186 14.0093 35.7516 14.2097C35.7516 14.2765 35.7516 14.3433 35.7516 14.4101C35.7516 14.4769 35.7516 14.5437 35.7516 14.6105C35.6847 14.9445 35.6178 15.2117 35.5509 15.4789C35.5509 15.6126 35.4839 15.6794 35.417 15.813V15.9466V16.0802C35.417 16.2138 35.3501 16.2806 35.2832 16.4142C35.2162 16.5478 35.2162 16.6146 35.1493 16.7482C35.1493 16.7482 35.1493 16.815 35.1493 16.8818C35.1493 16.9486 35.1493 16.9486 35.1493 17.0154C35.1493 17.0822 35.1493 17.0822 35.1493 17.149C35.1493 17.2158 35.0824 17.3495 35.0155 17.4163C34.9486 17.4831 34.9486 17.6167 34.8816 17.6835C34.8816 17.6835 34.8816 17.6835 34.8816 17.7503C34.8816 17.7503 34.8816 17.7503 34.8816 17.8171C34.8816 17.8171 34.8816 17.7503 34.8816 17.6835C34.8816 17.6835 34.8816 17.6167 34.8147 17.5499C34.8147 17.4831 34.6809 17.3495 34.6139 17.2826C34.547 17.2158 34.4801 17.0822 34.4132 17.0154C34.4132 17.0154 34.3462 16.9486 34.2793 16.8818C34.2793 16.8818 34.2793 16.8818 34.2793 16.815C34.2793 16.7482 34.2793 16.815 34.2793 16.7482C34.2793 16.7482 34.2124 16.6146 34.1455 16.5478L34.0116 16.4142C34.0116 16.4142 33.9447 16.3474 33.8778 16.2806L33.6101 16.0134C33.6101 16.0134 33.6101 15.9466 33.5432 15.8798C33.4762 15.813 33.5432 15.813 33.4762 15.7462C33.4762 15.6794 33.3424 15.6125 33.2755 15.5457C33.2755 15.5457 33.2755 15.4789 33.1416 15.4121C33.0078 15.3453 33.0747 15.3453 33.0078 15.2785C32.9409 15.2117 32.8739 15.1449 32.807 15.0781C32.807 15.0781 32.807 15.0113 32.7401 15.0113C32.6732 15.0113 32.7401 14.9445 32.6062 14.8777C32.6062 14.8109 32.4724 14.7441 32.4055 14.6773C32.4055 14.6773 32.3385 14.6105 32.2716 14.5437C32.2047 14.4769 32.2047 14.4769 32.1378 14.4101C32.0708 14.3433 32.0039 14.2765 31.937 14.2097C31.4685 13.742 30.9332 13.3412 30.3978 12.9404C30.3308 12.8736 30.197 12.8068 30.1301 12.74H29.9962C29.9962 12.6064 29.9293 12.6064 29.8624 12.5396C29.7955 12.4728 29.6616 12.406 29.5278 12.3392C29.5278 12.3392 29.3939 12.2723 29.327 12.2055C29.2601 12.1387 29.1931 12.1387 29.1262 12.0719L28.9255 11.9383L28.7247 11.8047C28.7247 11.8047 28.5908 11.7379 28.5239 11.6711C28.5239 11.6711 28.5239 11.6711 28.457 11.6711H28.3901L28.1224 11.4707H27.9885C27.9885 11.4039 27.9885 11.3371 27.9885 11.3371H27.9216C27.8547 11.3371 27.7208 11.2035 27.6539 11.2035H27.5201C27.5201 11.1367 27.4531 11.0699 27.3862 11.0699C27.3193 11.0699 27.1854 11.0031 27.1185 10.9363H27.0516C27.0516 10.9363 26.9178 10.9363 26.8508 10.8695C26.7839 10.8695 26.717 10.8027 26.6501 10.7359C26.5831 10.7359 26.5162 10.7359 26.4493 10.669C26.3824 10.6022 26.3154 10.669 26.2485 10.6022H26.1147C26.1147 10.5354 26.0478 10.5354 25.9808 10.4686C25.9139 10.4686 25.847 10.4018 25.7131 10.335H25.5793C25.5793 10.335 25.5793 10.335 25.5124 10.335C25.4454 10.335 25.5124 10.335 25.4454 10.335L25.1108 10.2014C25.1108 10.2014 25.1108 10.2014 25.0439 10.2014C24.977 10.2014 25.0439 10.2014 24.977 10.2014H24.7762L24.5754 10.0678H24.4416H24.107C24.0401 9.9342 23.9731 9.9342 23.9062 9.9342H23.7724C23.7054 9.9342 23.5716 9.8674 23.5047 9.8006C23.4377 9.73379 23.3708 9.8006 23.3039 9.8006H22.9693C22.9693 9.73379 22.7685 9.66699 22.7685 9.66699C22.7685 9.66699 22.6347 9.66699 22.5677 9.66699C22.4339 9.66699 22.3 9.66699 22.1662 9.60018H22.0324C21.8985 9.60018 21.7647 9.60018 21.6308 9.60018C21.6308 9.60018 21.6308 9.60018 21.5639 9.60018H21.497C21.497 9.60018 21.3631 9.60018 21.2962 9.60018C21.2293 9.60018 21.1624 9.60018 21.0954 9.60018C21.0285 9.60018 20.9616 9.60018 20.8947 9.60018H20.4262C20.4262 9.60018 20.4262 9.60018 20.3593 9.60018H20.2254C20.2254 9.60018 20.0916 9.60018 20.0247 9.60018H19.757C19.8239 9.46657 19.8908 9.33297 20.0247 9.19936C20.0247 9.19936 20.0916 9.13255 20.1585 9.06575C20.1585 8.99895 20.2924 8.93214 20.2924 8.86534C20.3593 8.73173 20.4262 8.66493 20.56 8.53132C20.627 8.39771 20.7608 8.3309 20.7608 8.2641C21.9654 6.79441 23.4377 5.45833 25.0439 4.38946L24.7762 4.52307C24.7762 4.52307 24.7762 4.52307 24.6424 4.58988C24.6424 4.58988 24.6424 4.65668 24.5754 4.65668C24.5754 4.65668 24.5085 4.65668 24.4416 4.79029C24.5754 4.65668 24.6424 4.72349 24.5754 4.79029C24.3747 4.9239 24.1739 5.12431 23.9731 5.25792C23.9731 5.25792 23.8393 5.32472 23.8393 5.39153C23.8393 5.39153 23.8393 5.39153 23.7724 5.39153H23.7054C23.6385 5.52513 23.5047 5.59194 23.4377 5.65874C23.4377 5.65874 23.4377 5.72555 23.3708 5.79235C23.3039 5.85916 23.17 5.92596 23.1031 6.05957C23.1031 6.05957 23.0362 6.12637 22.9693 6.19318C22.9024 6.25998 22.9024 6.25998 22.8354 6.32678C22.7685 6.39359 22.6347 6.52719 22.5677 6.594C22.5677 6.594 22.5677 6.594 22.5677 6.6608C22.5677 6.72761 22.5677 6.6608 22.5677 6.72761L22.4339 6.86122C22.4339 6.86122 22.5677 6.79441 22.5677 6.72761C22.5677 6.72761 22.5677 6.72761 22.6347 6.6608C22.7016 6.594 22.6347 6.6608 22.7016 6.594C22.8354 6.52719 22.9024 6.39359 23.0362 6.25998C23.237 6.05957 23.5047 5.85916 23.7054 5.65874C23.7054 5.65874 23.7054 5.65874 23.7724 5.59194C23.8393 5.52513 23.7724 5.59194 23.8393 5.52513C23.8393 5.52513 23.9731 5.45833 24.0401 5.39153C24.107 5.32472 24.1739 5.32472 24.1739 5.25792H24.2408C24.2408 5.19111 24.2408 5.19111 24.2408 5.12431L24.5085 4.9907H24.6424C24.6424 4.85709 24.6424 4.85709 24.7093 4.85709C24.7093 4.85709 24.8431 4.79029 24.9101 4.72348C24.977 4.65668 25.0439 4.65668 25.1108 4.58988C25.1108 4.58988 25.1108 4.58988 25.1778 4.58988C25.3116 4.58988 25.4454 4.45627 25.5793 4.38946C25.7131 4.32266 25.847 4.25586 25.9808 4.18905C25.9808 4.18905 25.9808 4.18905 26.0478 4.18905C26.0478 4.18905 25.9808 4.25586 25.9139 4.32266C25.847 4.32266 25.7131 4.45627 25.6462 4.45627C25.6462 4.45627 25.6462 4.45627 25.5793 4.45627H25.5124C25.5124 4.58988 25.3785 4.58988 25.3116 4.65668C25.2447 4.72349 25.1777 4.72349 25.1108 4.79029C25.0439 4.85709 24.977 4.85709 24.9101 4.9239C24.8431 4.9907 24.7762 4.9907 24.7093 5.05751L24.5085 5.19111L24.3077 5.32472C24.3077 5.32472 24.3077 5.32472 24.1739 5.39153C24.0401 5.45833 24.1739 5.39153 24.107 5.45833C24.107 5.52514 24.107 5.45833 24.1739 5.45833C24.3077 5.39153 24.4416 5.25792 24.5754 5.19111C24.5754 5.19111 24.7093 5.12431 24.7762 5.05751C24.8431 4.9907 24.9101 4.9907 24.977 4.9239C25.1108 4.9239 24.977 4.9907 24.8431 5.19111C24.6424 5.32472 24.4416 5.52514 24.2408 5.65874C24.0401 5.79235 23.8393 5.99276 23.7054 6.05957C23.237 6.46039 22.7685 6.92802 22.3 7.39565C22.3 7.39565 22.1662 7.52926 22.1662 7.59606H22.0324C22.0324 7.72967 22.0324 7.72967 21.9654 7.79647L21.6308 8.1973C21.497 8.33091 21.43 8.46451 21.2962 8.59812C21.2962 8.59812 21.2962 8.66493 21.2293 8.66493C21.1624 8.66493 21.2293 8.73173 21.1624 8.73173C21.1624 8.79853 21.0954 8.86534 21.0285 8.93214C21.2293 8.66492 21.497 8.39771 21.6977 8.13049C21.6977 8.06369 21.8316 7.99688 21.8316 7.93008C21.8316 7.93008 21.8316 7.93008 21.8985 7.86328V7.79647C22.0324 7.66287 22.0993 7.52926 22.2331 7.46245C22.367 7.32885 22.4339 7.26204 22.5677 7.12843C22.7016 6.99483 22.8354 6.92802 22.9024 6.79441C22.9024 6.79441 22.9024 6.79441 22.9693 6.72761C23.0362 6.6608 22.9693 6.72761 23.0362 6.6608C23.0362 6.6608 23.1701 6.5272 23.237 6.5272C23.237 6.5272 23.237 6.5272 23.3039 6.46039C23.3708 6.39359 23.3039 6.46039 23.3708 6.39359C23.3708 6.39359 23.5047 6.32678 23.5047 6.25998C23.5047 6.25998 23.6385 6.19318 23.7054 6.12637C23.7724 6.05957 23.8393 5.99276 23.9062 5.99276C23.9731 5.99276 24.0401 5.85915 24.107 5.85915C24.107 5.85915 24.107 5.85915 24.1739 5.85915C24.1739 5.85915 24.1739 5.99276 24.0401 5.99276C23.9731 6.05957 23.9062 6.12637 23.8393 6.19318C23.9062 6.12637 24.0401 6.05957 24.107 5.99276C24.1739 5.92596 24.3077 5.85916 24.3747 5.79235C24.5085 5.65874 24.7762 5.52514 24.8431 5.45833L24.977 5.39153C24.977 5.39153 25.0439 5.32472 25.1108 5.25792C25.1108 5.25792 25.2447 5.19111 25.3116 5.12431C25.3116 5.12431 25.3116 5.12431 25.3785 5.12431H25.4454L25.5793 4.9907L25.7131 4.9239H25.7801C25.7801 4.9239 25.7801 4.85709 25.847 4.85709C25.9808 4.85709 26.0478 4.72349 26.1816 4.65668H26.2485C26.2485 4.65668 26.2485 4.58988 26.3154 4.58988C26.3154 4.58988 26.4493 4.58988 26.4493 4.52307C26.4493 4.45627 26.5831 4.45627 26.5831 4.45627C26.6501 4.45627 26.7839 4.38947 26.8508 4.32266C26.9178 4.25586 27.0516 4.25586 27.1185 4.18905L27.4531 4.05544H27.5201L27.7208 3.98864H27.9216C27.9216 3.92184 28.0555 3.85503 28.0555 3.85503L28.3901 3.72142C28.457 3.72142 28.3901 3.72142 28.457 3.72142C29.1262 3.45421 29.7955 3.2538 30.4647 3.12019C30.4647 3.12019 30.4647 3.12019 30.5316 3.12019C30.5985 3.12019 30.5316 3.12019 30.6655 3.12019C30.6655 3.12019 30.7324 3.12019 30.7993 3.12019C31.6024 2.91978 32.4724 2.78617 33.2755 2.71936H33.5432H33.677H33.7439C33.7439 2.71936 33.7439 2.71936 33.8109 2.71936C33.8109 2.71936 33.8109 2.71936 33.8109 2.78617V2.85297C33.8109 2.91978 33.8778 3.05338 33.9447 3.12019C34.0116 3.18699 34.0116 3.3206 34.0785 3.3874L34.2793 3.78823C34.2793 3.78823 34.2793 3.78823 34.2793 3.92184C34.2793 4.05544 34.2793 3.92184 34.2793 4.05544V4.25586C34.3462 4.25586 34.4132 4.25586 34.4132 4.32266C34.4132 4.38947 34.4132 4.32266 34.4132 4.38946C34.4132 4.38946 34.4132 4.52307 34.4801 4.58988C34.547 4.65668 34.4801 4.72349 34.547 4.79029C34.6139 4.85709 34.547 4.9239 34.547 4.9907C34.547 5.19111 34.6809 5.32472 34.7478 5.45833C34.7478 5.59194 34.8816 5.79235 34.8816 5.92596C34.9486 6.25998 35.0824 6.594 35.1493 6.92802C35.1493 6.92802 35.1493 7.06163 35.1493 7.12843C35.1493 7.12843 35.1493 7.12843 35.1493 7.19524C35.1493 7.26204 35.1493 7.19524 35.1493 7.26204C35.1493 7.39565 35.1493 7.52926 35.2162 7.66287C35.2162 7.66287 35.2162 7.79647 35.2162 7.86328C35.2162 7.93008 35.2162 7.99688 35.2162 8.06369C35.2162 8.13049 35.2162 8.1973 35.2162 8.2641C35.2162 8.3309 35.2162 8.39771 35.2162 8.39771C35.2162 8.46451 35.2162 8.53132 35.2162 8.66493C35.2162 8.66493 35.2162 8.79853 35.2162 8.86534C35.2162 8.93214 35.2162 8.99895 35.2162 9.06575C35.2162 9.26616 35.2162 9.39977 35.2162 9.60018C35.2162 9.80059 35.2162 9.9342 35.2162 10.1346C35.2162 10.1346 35.2162 10.1346 35.2162 10.2014C35.2162 10.2682 35.2162 10.2014 35.2162 10.2682C35.2162 10.2682 35.2162 10.335 35.2162 10.4018C35.2162 10.4686 35.2162 10.6022 35.2162 10.669C35.2162 10.7359 35.2162 10.8695 35.2162 10.9363V11.8715L35.8186 10.669ZM35.9524 28.7061C35.9524 28.5725 35.9524 28.5057 35.9524 28.4389V28.1717C35.9524 28.1717 35.9524 28.0381 35.9524 27.9713C35.9524 28.1717 35.9524 28.1717 35.9524 28.1049C35.9524 28.1049 35.9524 27.9713 35.9524 27.9045C35.9524 27.8377 35.9524 27.7709 35.9524 27.7041C35.9524 27.5705 35.9524 27.4369 35.9524 27.3033C35.9524 27.1697 35.9524 27.036 35.9524 26.9024C35.9524 26.9024 35.9524 26.9024 35.9524 26.8356C35.9524 26.7688 35.9524 26.8356 35.9524 26.7688V26.6352C35.9524 26.6352 35.9524 26.5684 35.9524 26.5016C35.9524 26.5016 35.9524 26.368 35.9524 26.3012C35.9524 26.3012 35.9524 26.1676 35.9524 26.1008C35.9524 25.9672 35.9524 25.8336 35.8855 25.7668C35.8186 25.7 35.8855 25.4996 35.8186 25.4328V25.2323C35.8186 25.2323 35.7516 25.0987 35.7516 25.0319C35.8855 25.5664 36.0193 26.1676 36.1532 26.8356C36.1532 26.8356 36.1532 26.8356 36.1532 26.9024C36.1532 27.036 36.1532 27.1697 36.2201 27.3033C36.2201 27.3701 36.2201 27.3701 36.2201 27.4369C36.2201 27.4369 36.2201 27.4369 36.2201 27.5705C36.2201 27.5705 36.2201 27.7041 36.2201 27.7709C36.2201 27.7709 36.2201 27.8377 36.2201 27.9045C36.2201 28.1049 36.2201 28.2385 36.2201 28.3721C36.2201 28.5057 36.2201 28.7062 36.2201 28.8398V29.0402C36.2201 29.107 36.2201 29.1738 36.2201 29.2406C36.2201 29.3074 36.2201 29.3742 36.2201 29.441V29.7082C36.2201 29.7082 36.2201 29.6414 36.2201 29.5746V29.441V29.3074C36.2201 29.3074 36.2201 29.1738 36.2201 29.107C36.2201 29.107 36.2201 29.0402 36.2201 28.9734C36.2201 28.9066 36.2201 28.9066 36.2201 28.8398C36.2201 28.7062 36.2201 28.5057 36.2201 28.3053C36.2201 28.1049 36.2201 27.9713 36.2201 27.7709C36.2201 27.5705 36.2201 27.4369 36.1532 27.2365C36.1532 27.3701 36.1532 27.5705 36.1532 27.7041C36.1532 27.8377 36.1532 28.0381 36.1532 28.1717C36.1532 28.3053 36.0193 28.1717 36.0193 27.9045C36.0193 27.9045 36.0193 27.7709 36.0193 27.7041V27.5705C36.0193 27.5705 36.0193 27.4369 36.0193 27.3701V27.2365C36.0193 27.2365 36.0193 27.1697 36.0193 27.1029C36.0193 26.9692 36.0193 26.8356 36.0193 26.702C36.0193 26.5684 36.0193 26.5016 36.0193 26.4348C36.0193 26.1008 35.8855 25.8336 35.8186 25.4996C35.8186 25.3659 35.7516 25.1655 35.6847 25.0319C35.6178 24.8983 35.6178 24.6979 35.5509 24.5643C35.3501 23.9631 35.1493 23.295 34.8816 22.6938C34.8816 22.7606 34.8816 22.8942 34.9486 22.961C34.9486 22.961 34.9486 23.0278 34.9486 23.0946C34.9486 23.1614 34.9486 23.1614 34.9486 23.2282C34.9486 23.295 34.9486 23.3618 35.0155 23.4954C35.0155 23.4954 35.0155 23.5622 35.0155 23.629C35.0155 23.629 35.0155 23.6958 35.0155 23.7626C35.0155 23.8295 35.0155 23.8963 35.0824 24.0299C35.0824 24.0967 35.0824 24.1635 35.0824 24.2303C35.0824 24.2971 35.0824 24.3639 35.1493 24.4975C35.1493 24.4975 35.1493 24.5643 35.1493 24.6311V24.7647C35.1493 24.8983 35.2162 25.0987 35.2832 25.2323C35.2832 25.2991 35.2832 25.3659 35.2832 25.4996C35.2832 25.4996 35.2832 25.5664 35.2832 25.6332C35.2832 25.7 35.2832 25.7 35.2832 25.7668C35.2832 25.8336 35.2832 25.9004 35.2832 26.034C35.2832 26.1008 35.2832 26.1676 35.2832 26.3012C35.2832 26.4348 35.2832 26.6352 35.3501 26.7688C35.3501 26.9024 35.3501 27.1028 35.3501 27.2365C35.3501 27.2365 35.3501 27.3033 35.3501 27.3701C35.3501 27.4369 35.3501 27.5037 35.3501 27.5705C35.3501 27.5705 35.2832 27.4369 35.2832 27.3701C35.2832 27.3701 35.2832 27.3033 35.2832 27.2365C35.2832 27.1697 35.2832 27.1028 35.2832 27.036C35.2832 27.036 35.2832 27.036 35.2832 27.1029C35.2832 27.1697 35.2832 27.1029 35.2832 27.1697C35.2832 27.1697 35.2832 27.3033 35.2832 27.3701C35.2832 27.4369 35.2832 27.5037 35.2832 27.5705C35.2832 27.6373 35.2832 27.7041 35.2832 27.7041C35.2832 27.7709 35.2832 27.9045 35.2832 28.0381V28.1717C35.2832 28.1717 35.2832 28.2385 35.2832 28.3053V28.4389C35.2832 28.4389 35.2832 28.5725 35.2832 28.6393C35.2832 28.7061 35.2832 28.773 35.2832 28.773C35.2832 28.773 35.2832 28.773 35.2832 28.8398C35.2832 28.9734 35.2832 29.107 35.2832 29.2406C35.2832 29.3742 35.2832 29.5078 35.2832 29.6414V29.8418C35.2832 29.8418 35.2832 29.9754 35.2832 30.0422C35.2832 30.1758 35.2832 30.3094 35.2832 30.4431V30.5767C35.2832 30.5767 35.2832 30.5767 35.2832 30.6435C35.2832 30.7103 35.2832 30.8439 35.2832 30.9775C35.2832 31.1111 35.2832 31.1779 35.2832 31.3115C35.2832 31.3115 35.2832 31.4451 35.2832 31.5119C35.2832 31.6455 35.2832 31.6455 35.2832 31.7123C35.2832 31.8459 35.2832 31.9795 35.2832 32.1132C35.2832 32.2468 35.2832 32.2468 35.2832 32.3136C35.2832 32.3136 35.2832 32.4472 35.2832 32.514C35.2832 32.6476 35.2832 32.7144 35.2832 32.848C35.2832 32.9148 35.2832 32.848 35.2832 32.9148C35.2832 32.9816 35.2832 33.1152 35.2832 33.182C35.2832 33.182 35.2832 33.2488 35.2832 33.3156C35.2832 33.516 35.2162 33.6497 35.1493 33.8501C35.0824 34.0505 35.0824 34.1841 35.0155 34.3845C35.0155 34.5181 35.0155 34.5181 35.0155 34.5849C35.0155 34.6517 35.0155 34.7853 34.9486 34.8521C34.9486 34.8521 34.9486 34.8521 34.9486 34.9189C34.9486 34.9857 34.9486 34.9857 34.9486 35.0525C34.9486 35.0525 34.9486 35.1193 34.9486 35.1861C34.6809 35.9878 34.4132 36.7894 34.0785 37.5911V37.7915L33.9447 38.0587V38.1255C33.9447 38.1255 33.9447 38.1255 33.8778 38.1255H33.7439C33.677 38.1255 33.5432 38.1255 33.4762 38.1255C33.4762 38.1255 33.4093 38.1255 33.3424 38.1255C33.3424 38.1255 33.3424 38.1255 33.2755 38.1255C33.2085 38.1255 33.2755 38.1255 33.2085 38.1255H32.7401C32.7401 38.1255 32.6732 38.1255 32.6062 38.1255H32.4055H32.2716C32.2716 38.1255 32.2047 38.1255 32.1378 38.1255C32.1378 38.1255 32.0039 38.1255 31.937 38.1255H31.7362C31.7362 38.1255 31.7362 38.1255 31.6693 38.1255C31.6024 38.1255 31.6693 38.1255 31.6024 38.1255C30.9332 37.9919 30.2639 37.8583 29.6616 37.6579H29.5947C29.5947 37.6579 29.5947 37.6579 29.5278 37.6579H29.327C29.327 37.5911 29.1931 37.5911 29.1262 37.5243C29.1262 37.5243 29.1262 37.5243 29.0593 37.5243H28.9924L28.6578 37.3907C28.6578 37.3907 28.6578 37.3907 28.5908 37.3907C28.5239 37.3907 28.5908 37.3907 28.5239 37.3907H28.3901C28.3901 37.3907 28.2562 37.3907 28.1893 37.3239C28.1893 37.3239 28.1893 37.3239 28.1224 37.3239H28.0555C28.0555 37.2571 27.9216 37.2571 27.8547 37.1903H27.6539C27.6539 37.1235 27.4531 36.9899 27.4531 36.9899C27.3862 36.9899 27.3193 36.9899 27.2524 36.8562C27.2524 36.8562 27.1854 36.8562 27.1185 36.8562C27.1185 36.8562 27.0516 36.8562 26.9847 36.8562C26.9178 36.8562 26.8508 36.7894 26.717 36.7226H26.6501C26.6501 36.7226 26.5831 36.6558 26.5162 36.589L26.2485 36.4554C26.2485 36.4554 26.2485 36.4554 26.2485 36.3886C26.2485 36.3886 26.1816 36.3886 26.1147 36.3886C26.0478 36.3886 25.9139 36.255 25.847 36.255C25.847 36.255 25.7801 36.255 25.7131 36.1882C25.6462 36.1214 25.6462 36.1882 25.5793 36.1214C25.5793 36.1214 25.4454 36.0546 25.3785 35.9878C25.3785 35.9878 25.3785 35.9878 25.3116 35.9878C25.2447 35.9878 25.3116 35.9878 25.2447 35.9878C25.1777 35.9878 25.0439 35.8542 24.977 35.8542C24.977 35.8542 24.9101 35.8542 24.8431 35.7874C24.7762 35.7206 24.7762 35.7874 24.7093 35.7206C24.5754 35.587 24.3747 35.5202 24.2408 35.3866C24.1739 35.3198 24.0401 35.2529 23.9062 35.1861L23.6385 34.9189H23.5716L23.5047 34.7853L23.3708 34.6517L23.237 34.5181L23.1031 34.3845L22.7685 34.0505C22.7685 34.0505 22.7685 34.0505 22.7016 33.9837C22.7016 33.9837 22.5677 33.8501 22.5008 33.8501C22.367 33.7165 22.3 33.6497 22.1662 33.516L22.0324 33.3824C22.0324 33.3824 21.9654 33.2488 21.8985 33.2488C21.8316 33.182 21.7647 33.1152 21.6977 32.9816C21.6977 32.9816 21.6308 32.9148 21.5639 32.848L21.43 32.7144C21.43 32.7144 21.3631 32.6476 21.2962 32.5808C21.2962 32.514 21.2962 32.4472 21.2962 32.4472C21.2293 32.3804 21.1624 32.2468 21.0285 32.18C21.0285 32.18 21.0285 32.1132 20.9616 32.0464C20.9616 31.9795 20.8277 31.9127 20.7608 31.8459V31.7123C20.627 31.7123 20.627 31.6455 20.56 31.5787C20.56 31.5119 20.4262 31.4451 20.3593 31.3115C20.3593 31.3115 20.3593 31.3115 20.3593 31.2447C20.3593 31.2447 20.4262 31.2447 20.4931 31.2447H20.6939C20.8277 31.2447 20.8947 31.2447 21.0285 31.2447C21.1624 31.2447 21.2293 31.2447 21.3631 31.2447C21.497 31.2447 21.5639 31.2447 21.6977 31.2447C21.7647 31.2447 21.8316 31.2447 21.8985 31.2447C21.8985 31.2447 22.0324 31.2447 22.0993 31.2447C22.0993 31.2447 22.0993 31.2447 22.1662 31.2447C22.2331 31.2447 22.1662 31.2447 22.2331 31.2447C22.367 31.2447 22.4339 31.2447 22.5677 31.1779C22.9693 31.1111 23.3708 31.0443 23.7724 30.9107H23.9062C23.9062 30.9107 23.9731 30.9107 24.0401 30.8439C24.107 30.8439 24.2408 30.8439 24.3747 30.7771C24.3747 30.7771 24.3747 30.7771 24.4416 30.7771C24.4416 30.7771 24.4416 30.7771 24.5085 30.7771H24.6424C24.7762 30.7103 24.8431 30.6435 24.9101 30.6435C25.5124 30.4431 26.1816 30.1758 26.7839 29.9086C26.9178 29.9086 26.9847 29.8418 27.0516 29.775H27.1854C27.1854 29.7082 27.2524 29.6414 27.3193 29.6414C27.4531 29.6414 27.5201 29.5078 27.6539 29.5078C27.6539 29.5078 27.6539 29.5078 27.7208 29.5078C27.7878 29.5078 27.7208 29.5078 27.7878 29.5078L27.9885 29.3742C27.9885 29.3742 28.1224 29.3742 28.1893 29.2406C28.2562 29.107 28.3231 29.1738 28.3901 29.107C28.457 29.0402 28.5239 29.0402 28.5908 28.9734C28.6578 28.9066 28.7247 28.9066 28.7916 28.8398L29.0593 28.6393H29.1931C29.1931 28.5057 29.2601 28.5057 29.327 28.4389L29.5947 28.2385C29.5947 28.2385 29.6616 28.2385 29.7285 28.1717C29.7955 28.1049 29.7955 28.1717 29.8624 28.1049C29.9293 28.1049 30.0631 27.9713 30.1301 27.9045C30.2639 27.8377 30.3308 27.7041 30.4647 27.6373C30.4647 27.6373 30.5985 27.5705 30.6655 27.5037V27.4369H30.7324C30.7324 27.3033 30.8662 27.3033 30.9332 27.2365C31.067 27.1028 31.2008 27.036 31.3347 26.9024C31.4016 26.9024 31.5355 26.7688 31.6024 26.702C31.7362 26.6352 31.8032 26.5016 31.8701 26.4348C31.8701 26.4348 31.8701 26.4348 31.937 26.4348C32.0039 26.4348 31.937 26.4348 32.0039 26.4348C32.0039 26.4348 32.0708 26.368 32.1378 26.3012C32.2047 26.2344 32.2047 26.2344 32.2716 26.1676C32.3385 26.1008 32.3385 26.1008 32.4055 26.034C32.4724 25.9672 32.5393 25.9004 32.6732 25.7668C32.6732 25.7668 32.6732 25.7668 32.7401 25.7C32.7401 25.7 32.7401 25.6332 32.8739 25.5664C32.8739 25.5664 33.0078 25.4327 33.0747 25.3659C33.0747 25.3659 33.0747 25.3659 33.1416 25.2991C33.2085 25.2323 33.1416 25.2991 33.2085 25.2323C33.2755 25.0987 33.4093 25.0319 33.4093 24.9651L33.5432 24.8315L33.677 24.6979C33.7439 24.5643 33.8778 24.4975 33.9447 24.4307C33.9447 24.4307 33.9447 24.3639 34.0116 24.3639L34.2793 24.0299C34.2793 24.0299 34.3462 23.9631 34.4132 23.8963C34.4801 23.8295 34.4801 23.8295 34.547 23.7626L34.6809 23.629C34.6809 23.629 34.7478 23.4954 34.8147 23.4954L35.0824 23.1614C35.0824 23.1614 35.0824 23.1614 35.0824 23.0278C35.0824 22.8942 35.1493 22.8942 35.2162 22.8942C35.2162 22.8274 35.2832 22.7606 35.3501 22.6938C35.3501 22.8274 35.4839 22.961 35.5509 23.0946C35.5509 23.0946 35.5509 23.1614 35.5509 23.2282C35.5509 23.295 35.6178 23.4286 35.6847 23.4954C35.6847 23.5622 35.7516 23.629 35.7516 23.6958C35.7516 23.6958 35.7516 23.8295 35.8186 23.8963C35.8186 24.0299 35.8855 24.1635 35.9524 24.2303C36.6216 26.034 37.0232 27.9713 37.157 29.9086M19.8239 30.2426C19.69 30.2426 19.5562 30.2426 19.3554 30.2426C19.3554 30.2426 19.3554 30.2426 19.2885 30.2426C19.2216 30.2426 19.2216 30.2426 19.1547 30.2426C19.0877 30.2426 18.9539 30.2426 18.9539 30.2426H18.6862C18.6193 30.109 18.5523 29.9754 18.4854 29.8418C18.4854 29.8418 18.4854 29.7082 18.4185 29.7082C18.4185 29.6414 18.3516 29.5078 18.2847 29.441C18.2847 29.441 18.2177 29.3074 18.1508 29.2406C18.1508 29.2406 18.1508 29.2406 18.1508 29.1738C18.1508 29.107 18.1508 29.1738 18.1508 29.0402C18.1508 28.9066 18.017 28.773 18.017 28.7061C17.2808 26.8356 16.7454 24.8983 16.6116 22.8942C16.6116 23.0278 16.6116 23.0946 16.6116 23.1614C16.6116 23.2282 16.6116 23.295 16.6116 23.4954C16.6116 23.4954 16.6116 23.629 16.6116 23.6958C16.6116 23.4954 16.6116 23.4954 16.6116 23.5622C16.6116 23.6958 16.6116 23.8295 16.6116 23.9631C16.6116 24.0299 16.6116 24.0967 16.6116 24.0967C16.6116 24.0967 16.6116 24.2303 16.6116 24.2971C16.6116 24.3639 16.6116 24.4307 16.6116 24.4975C16.6116 24.4975 16.6116 24.4975 16.6116 24.5643C16.6116 24.6311 16.6116 24.5643 16.6116 24.6311C16.6116 24.7647 16.6116 24.8983 16.6116 24.9651C16.6116 24.9651 16.6116 25.0319 16.6116 25.0987C16.6116 25.2323 16.6116 25.3659 16.6785 25.4328C16.6785 25.4328 16.6785 25.5664 16.6785 25.6332C16.6785 25.7 16.6785 25.7668 16.6785 25.8336C16.6785 25.9672 16.7454 26.1008 16.7454 26.2344C16.7454 26.368 16.8123 26.5016 16.8793 26.6352C16.8793 26.5684 16.8793 26.5016 16.8793 26.4348C16.8793 26.4348 16.8793 26.368 16.8793 26.3012C16.8793 26.2344 16.8793 26.2344 16.8793 26.1676C16.8793 26.034 16.8123 25.9004 16.7454 25.7C16.7454 25.7 16.7454 25.6332 16.7454 25.5664C16.7454 25.4996 16.7454 25.4996 16.7454 25.4328C16.7454 25.3659 16.7454 25.2991 16.7454 25.2323C16.7454 25.1655 16.7454 25.0987 16.7454 24.9651C16.7454 24.8315 16.7454 24.8315 16.7454 24.6979C16.7454 24.6979 16.7454 24.6979 16.7454 24.6311C16.7454 24.5643 16.7454 24.4975 16.7454 24.4307C16.7454 24.3639 16.7454 24.2971 16.7454 24.2303C16.7454 24.0967 16.7454 23.9631 16.6785 23.8295C16.6785 23.6958 16.6785 23.629 16.6785 23.5622C16.6785 23.4954 16.6785 23.3618 16.6785 23.295C16.6785 23.295 16.6785 23.2282 16.6785 23.1614C16.6785 23.1614 16.6785 23.0946 16.6785 23.0278C16.6785 22.961 16.6785 22.8942 16.6785 22.7606C16.6785 22.627 16.6785 22.627 16.6785 22.5602V21.8921C16.6785 21.8253 16.6785 21.7585 16.6785 21.6249C16.6785 21.6249 16.6785 21.6249 16.6785 21.5581C16.6785 21.5581 16.6785 21.6249 16.6785 21.6917C16.6785 21.8253 16.6785 21.8921 16.6785 22.0257C16.6785 22.1593 16.6785 22.293 16.6785 22.4934C16.6785 22.4934 16.6785 22.5602 16.6785 22.627C16.6785 22.6938 16.6785 22.6938 16.6785 22.7606C16.6785 22.8274 16.6785 22.961 16.6785 23.0278C16.6785 23.0278 16.6785 23.0946 16.6785 23.1614C16.6785 23.295 16.6785 23.4286 16.6785 23.4954C16.6785 23.4954 16.6785 23.5622 16.6785 23.629C16.6785 23.6958 16.6785 23.8295 16.6785 23.8963C16.6785 23.8295 16.6785 23.7626 16.6785 23.629C16.6785 23.4954 16.6785 23.4954 16.6785 23.3618C16.6785 23.2282 16.6785 23.2282 16.6785 23.0946C16.6785 23.0946 16.6785 23.0278 16.6785 22.961V22.8274C16.6785 22.8274 16.6785 22.8274 16.7454 22.8274C16.7454 22.8942 16.7454 23.0278 16.8123 23.0946C16.8123 23.2282 16.8123 23.3618 16.8123 23.4954C16.8123 23.5622 16.8123 23.629 16.8123 23.6958C16.8123 23.7626 16.8123 23.8295 16.8123 23.8963C16.8123 23.9631 16.8123 24.0299 16.8123 24.0967C16.8123 24.1635 16.8123 24.2303 16.8123 24.2971C16.8123 24.4307 16.8123 24.4975 16.8123 24.5643C16.9462 25.2323 17.147 25.8336 17.3477 26.5016C17.3477 26.5684 17.3477 26.6352 17.4146 26.7688V26.9024C17.4146 26.9024 17.4816 26.9692 17.4816 27.036C17.4816 27.1697 17.6154 27.3701 17.6823 27.5037C17.7493 27.6373 17.8162 27.8377 17.8831 27.9713C17.8831 28.0381 17.95 28.1049 18.017 28.1717C18.0839 28.2385 18.0839 28.3053 18.1508 28.3721C18.1508 28.3053 18.0839 28.1717 18.017 28.1049C18.017 28.1049 18.017 28.0381 18.017 27.9713C18.017 27.9045 18.017 27.9045 18.017 27.8377C18.017 27.7709 17.95 27.7041 17.8831 27.5705C17.8162 27.4369 17.8162 27.4369 17.7493 27.3033C17.6823 27.1697 17.6823 27.1697 17.6823 27.036C17.6823 27.036 17.6823 26.9692 17.6823 26.9024C17.6823 26.7688 17.5485 26.5684 17.5485 26.4348C17.5485 26.3012 17.4816 26.1008 17.4146 25.9672C17.3477 25.8336 17.3477 25.6332 17.2808 25.4328C17.2808 25.4328 17.2808 25.3659 17.2808 25.2991C17.2808 25.2323 17.2808 25.2323 17.2808 25.1655C17.2808 25.0987 17.2808 25.0319 17.2808 24.8983C17.2808 24.8983 17.2808 24.8315 17.2808 24.7647C17.2808 24.6311 17.2808 24.5643 17.2808 24.4975C17.2808 24.3639 17.2808 24.2303 17.2139 24.0299C17.2139 23.9631 17.2139 23.8295 17.2139 23.7626C17.2139 23.7626 17.2139 23.6958 17.2139 23.629C17.2139 23.5622 17.2139 23.5622 17.2139 23.4954C17.2808 23.629 17.3477 23.8295 17.4146 23.9631C17.4146 23.8295 17.4146 23.6958 17.4146 23.5622C17.4146 23.5622 17.4146 23.4286 17.4146 23.3618C17.4146 23.295 17.4146 23.2282 17.4146 23.2282C17.4146 23.2282 17.4146 23.1614 17.4146 23.0946C17.4146 23.0946 17.4146 23.0946 17.4146 23.0278C17.4146 22.961 17.4146 23.0278 17.4146 22.961C17.4146 22.8942 17.4146 22.7606 17.4146 22.6938V22.5602C17.4146 22.5602 17.4146 22.5602 17.4146 22.4934C17.4146 22.4266 17.4146 22.4934 17.4146 22.3598C17.4146 22.293 17.4146 22.2262 17.4146 22.0925C17.4146 21.8253 17.4146 21.5581 17.4146 21.3577C17.4146 21.3577 17.4146 21.3577 17.4146 21.2909V20.8233V20.4892C17.4146 20.4892 17.4146 20.4893 17.4146 20.4224C17.4146 20.4224 17.4146 20.4224 17.4146 20.3556C17.4146 20.2888 17.4146 20.222 17.4146 20.222V20.0884C17.4146 19.9548 17.4146 19.888 17.4146 19.7544C17.4146 19.6208 17.4146 19.4872 17.4146 19.3536V19.1532V19.0864V19.0196C17.4146 18.7523 17.4146 18.4851 17.4816 18.2847C17.4816 18.2179 17.4816 18.2847 17.4816 18.2179C17.6154 17.4831 17.7493 16.7482 17.95 16.0802C17.95 16.0802 17.95 16.0802 17.95 16.0134C17.95 15.9466 17.95 15.9466 17.95 15.813C17.95 15.813 17.95 15.7462 17.95 15.6794C18.2177 14.8109 18.4854 14.0093 18.82 13.2076V13.074C18.887 13.074 18.9539 13.0072 18.9539 12.9404C18.9539 12.8736 19.0208 12.74 19.0877 12.6732C19.0877 12.6732 19.0877 12.6064 19.1547 12.5396V12.4728H19.4893H19.757C19.757 12.4728 19.8239 12.4728 19.8908 12.4728H20.0247H20.2254H20.4262C20.4931 12.4728 20.56 12.4728 20.627 12.4728H20.8277C20.8277 12.4728 20.8947 12.4728 20.9616 12.4728C21.0954 12.4728 21.2293 12.4728 21.3631 12.5396C21.6977 12.5396 22.0993 12.6732 22.4339 12.74H22.5677C22.5677 12.74 22.6347 12.74 22.7016 12.74H22.9693C22.9693 12.8068 23.237 12.8736 23.237 12.8736C23.3039 12.8736 23.3708 12.8736 23.5047 12.9404C23.9731 13.074 24.5085 13.2744 24.9101 13.408C24.9101 13.408 25.0439 13.408 25.1108 13.4748C25.1108 13.4748 25.2447 13.4748 25.3116 13.5416C25.3116 13.5416 25.3116 13.5416 25.3785 13.5416C25.5124 13.6084 25.7131 13.6752 25.847 13.742C25.9808 13.8088 26.1816 13.8756 26.3154 13.9424C26.3154 13.9424 26.3824 13.9424 26.4493 14.0093C26.5162 14.0761 26.5162 14.0093 26.5831 14.0761C26.6501 14.0761 26.7839 14.1429 26.8508 14.2097L26.9847 14.3433L27.2524 14.4769V14.5437H27.3862C27.4531 14.6773 27.587 14.7441 27.6539 14.8109C27.7878 14.8777 27.9216 14.9445 27.9885 15.0781H28.1224C28.1224 15.1449 28.2562 15.2785 28.2562 15.2785C28.3231 15.2785 28.457 15.4121 28.5239 15.4789C28.5239 15.4789 28.5908 15.4789 28.6578 15.5457C28.7247 15.5457 28.7916 15.6794 28.9255 15.7462C29.327 16.0802 29.7285 16.4142 30.1301 16.7482C30.5316 17.149 31.067 17.6167 31.4685 18.0843C31.4685 18.0843 31.5355 18.1511 31.6024 18.2179C31.6693 18.2847 31.6693 18.2847 31.7362 18.3515C31.8032 18.4183 31.8701 18.5519 31.937 18.6187C31.937 18.6187 31.937 18.6187 31.937 18.6855C31.937 18.8191 32.0039 18.8191 32.0708 18.886C32.1378 18.9528 32.2047 19.0864 32.3385 19.1532C32.3385 19.1532 32.3385 19.22 32.4055 19.2868C32.4055 19.3536 32.5393 19.4204 32.6062 19.554C32.6732 19.6876 32.7401 19.6876 32.807 19.8212L33.0078 20.0884C33.0078 20.1552 33.1416 20.222 33.1416 20.3556C33.1416 20.4892 33.2755 20.4892 33.2755 20.6229C33.2755 20.7565 33.4093 20.7565 33.4093 20.8901C33.4093 20.8901 33.4093 20.8901 33.4093 20.9569C33.4093 20.9569 33.4093 21.0237 33.3424 21.0905C33.3424 21.0905 33.3424 21.1573 33.2755 21.2241C33.2755 21.3577 33.1416 21.4245 33.0747 21.4913C33.0078 21.5581 32.9409 21.6917 32.8739 21.7585C32.8739 21.7585 32.807 21.8921 32.7401 21.9589C32.6732 22.0257 32.6062 22.1593 32.5393 22.2262C32.5393 22.2262 32.4724 22.293 32.4055 22.3598C32.4055 22.3598 32.4055 22.3598 32.4055 22.4266C32.4055 22.4934 32.4055 22.4266 32.4055 22.4934C32.4055 22.5602 32.2716 22.627 32.2047 22.6938C32.1378 22.7606 32.0708 22.8274 32.0039 22.8942C31.937 22.961 31.8701 23.0278 31.8032 23.1614L31.6693 23.295C31.6693 23.295 31.6024 23.3618 31.5355 23.4286C31.3347 23.6958 30.9332 24.0299 30.6655 24.2971C30.6655 24.2971 30.5316 24.4307 30.4647 24.4975H30.3978C30.3978 24.6311 30.3978 24.6311 30.3308 24.6311C30.197 24.7647 30.0632 24.8315 29.9293 24.9651C29.7955 25.0987 29.6616 25.1655 29.5278 25.2991C29.5278 25.2991 29.3939 25.4328 29.327 25.4328C29.2601 25.4328 29.1931 25.5664 29.1262 25.5664L28.9924 25.7C28.9924 25.7 28.9255 25.7 28.8585 25.7668C28.7916 25.7668 28.6578 25.9004 28.5908 25.9672H28.5239C28.5239 26.034 28.5239 26.034 28.457 26.1008L28.3231 26.2344C28.1893 26.3012 28.1224 26.368 27.9885 26.5016C27.8547 26.6352 27.7208 26.6352 27.587 26.7688C27.4531 26.9024 27.3193 26.9024 27.1854 26.9692C27.1854 26.9692 27.1185 26.9692 27.0516 27.036C26.9847 27.1028 26.9847 27.036 26.9178 27.1029C26.8508 27.1029 26.717 27.2365 26.6501 27.3033C26.6501 27.3033 26.5831 27.3033 26.5162 27.3701H26.3824C26.3154 27.5037 26.1816 27.5037 26.1147 27.5705C26.1147 27.5705 26.0478 27.5705 25.9808 27.5705C25.9139 27.5705 25.847 27.5705 25.847 27.6373C25.847 27.7041 25.7131 27.6373 25.6462 27.7709C25.6462 27.7709 25.6462 27.7709 25.5124 27.7709H25.3785C25.3116 27.8377 25.2447 27.9045 25.1778 27.9045C25.1108 27.9045 25.0439 27.9045 24.977 27.9713C24.9101 28.0381 24.8431 27.9713 24.7762 28.0381C24.7093 28.0381 24.6424 28.0381 24.5085 28.1049C24.5085 28.1049 24.4416 28.1049 24.3747 28.1049C24.2408 28.1049 24.1739 28.1717 24.0401 28.2385C23.9062 28.2385 23.7724 28.3053 23.6385 28.3721H23.4377L23.237 28.5057C23.1031 28.5057 23.0362 28.5725 22.9024 28.6393C22.7685 28.7061 22.7016 28.6393 22.5677 28.7061C22.367 28.7061 22.3 28.7062 22.2331 28.773C22.0324 28.773 21.8985 28.8398 21.7647 28.9066C21.6308 28.9734 21.497 28.9066 21.43 28.9734H21.2293C21.2293 28.9734 21.2293 28.9734 21.0954 28.9734C20.9616 28.9734 21.0954 28.9734 20.9616 28.9734H20.56C20.56 29.0402 20.4262 29.0402 20.4262 29.0402C20.2924 29.0402 20.1585 29.0402 20.0247 29.0402H19.9577C19.9577 29.0402 19.9577 29.0402 19.8908 29.0402H19.69C19.69 29.0402 19.5562 29.0402 19.4893 29.0402H19.4223M16.277 29.0402H16.1431C16.0762 29.0402 15.9423 29.0402 15.8754 29.0402C15.7416 29.0402 15.6077 29.0402 15.4739 29.0402C15.34 29.0402 15.2062 29.0402 15.1393 29.0402C13.1985 28.7061 11.3916 28.1049 9.65154 27.2365C9.78539 27.2365 9.85232 27.3033 9.91924 27.3701C9.91924 27.3701 9.98616 27.3701 10.0531 27.3701C10.0531 27.3701 10.0531 27.3701 10.12 27.3701C10.1869 27.3701 10.12 27.3701 10.1869 27.3701H10.3208C10.12 27.3033 10.1869 27.2365 10.2539 27.3033C10.4546 27.4369 10.7223 27.5037 10.99 27.6373C10.99 27.6373 11.1239 27.6373 11.1908 27.7041H11.2577L11.3246 27.7709C11.4585 27.7709 11.5254 27.8377 11.6592 27.9045H11.7931C11.9269 27.9045 11.9939 27.9713 12.1277 28.0381H12.3285C12.3285 28.1049 12.4623 28.1049 12.5292 28.1717C12.6631 28.1717 12.7969 28.2385 12.8639 28.3053H12.9308H12.9977C12.9977 28.3053 13.1316 28.3053 13.1985 28.3053C13.1316 28.3053 13.0646 28.3053 12.9977 28.3053H12.8639C12.8639 28.3053 12.7969 28.3053 12.73 28.3053C12.5962 28.3053 12.4623 28.2385 12.3285 28.1717C12.0608 28.1049 11.7262 27.9713 11.4585 27.9045H11.3246C11.3246 27.9045 11.2577 27.9045 11.1908 27.8377C11.1239 27.8377 11.0569 27.8377 10.99 27.7709H10.7892C10.7892 27.7041 10.7892 27.6373 10.7223 27.6373C10.6554 27.6373 10.7223 27.6373 10.6554 27.6373C10.5885 27.6373 10.5215 27.5037 10.4546 27.4369C10.4546 27.4369 10.3877 27.4369 10.3208 27.4369C10.2539 27.4369 10.2539 27.4369 10.1869 27.4369C10.12 27.4369 10.0531 27.3701 9.98616 27.3033C9.91924 27.2365 9.85231 27.2365 9.78539 27.1697C9.78539 27.1697 9.78539 27.1697 9.71847 27.1697L9.31693 26.9692C9.18308 26.9024 9.04924 26.8356 8.91539 26.702C8.91539 26.702 8.98231 26.702 9.04924 26.702C9.11616 26.702 9.25 26.7688 9.31693 26.8356H9.38385C9.38385 26.8356 9.45078 26.9024 9.5177 26.9024C9.58462 26.9024 9.65155 26.9024 9.71847 27.036C9.78539 27.1697 9.85232 27.1029 9.91924 27.1697C9.98616 27.2365 10.0531 27.2365 10.12 27.3033C10.1869 27.3701 10.2539 27.3701 10.3877 27.4369C10.5215 27.5037 10.5215 27.5037 10.6554 27.5705L10.9231 27.7041C10.9231 27.7041 10.99 27.7041 11.0569 27.7041C11.1239 27.7041 11.1239 27.7041 11.1908 27.7041C11.2577 27.7041 11.1908 27.7041 11.1908 27.6373C11.0569 27.6373 10.9231 27.5037 10.7223 27.4369C10.6554 27.4369 10.5885 27.4369 10.5216 27.3701C10.4546 27.3033 10.3877 27.3033 10.3208 27.2365C10.2539 27.1028 10.3208 27.1697 10.5885 27.2365C10.7892 27.3033 11.0569 27.4369 11.3246 27.5705C11.5923 27.7041 11.86 27.7709 11.9939 27.8377C12.5962 28.0381 13.1985 28.2385 13.8677 28.3721H14.1354L14.2693 28.4389C14.2693 28.4389 14.3362 28.4389 14.4031 28.4389C14.5369 28.4389 14.7377 28.4389 14.8716 28.5057C14.8716 28.5057 14.9385 28.5057 15.0054 28.5057C15.0723 28.5057 15.0723 28.5057 15.1393 28.5057H15.4069C15.4069 28.5057 15.4739 28.5057 15.5408 28.5057H15.6746C15.7416 28.5057 15.8085 28.5057 15.9423 28.5057C15.6077 28.5057 15.2062 28.3721 14.8716 28.3721C14.8046 28.3721 14.6708 28.3721 14.6039 28.3721H14.47C14.3362 28.3721 14.1354 28.3053 14.0016 28.2385C14.0016 28.2385 14.0016 28.2385 13.9346 28.2385L13.4662 28.1049C13.3323 28.1049 13.1316 28.0381 12.9977 27.9713C12.9977 27.9713 12.9308 27.9713 12.8639 27.9713H12.73L12.5292 27.8377C12.5292 27.8377 12.4623 27.8377 12.3954 27.8377C12.3285 27.8377 12.3285 27.8377 12.2616 27.8377H12.0608C12.0608 27.7041 11.9269 27.7041 11.86 27.7041C11.7931 27.7041 11.7262 27.7041 11.5923 27.6373C11.4585 27.5705 11.4585 27.6373 11.3246 27.5705C11.3246 27.5705 11.2577 27.5705 11.1908 27.5705C11.1239 27.5705 11.1908 27.5705 11.1239 27.5705C11.1239 27.5705 11.2577 27.5705 11.3246 27.5705C11.4585 27.5705 11.5254 27.5705 11.6592 27.6373C11.5254 27.6373 11.4585 27.5705 11.3246 27.5037C11.1908 27.4369 11.1239 27.3701 10.99 27.3701C10.8562 27.3701 10.5215 27.1697 10.4546 27.1697H10.3208C10.3208 27.1697 10.1869 27.1697 10.12 27.1029C10.0531 27.1029 9.98616 27.036 9.91924 26.9692H9.85232C9.85232 26.9692 9.85231 26.9024 9.78539 26.9024C9.78539 26.9024 9.65154 26.9024 9.65154 26.8356H9.5177C9.5177 26.7688 9.45078 26.702 9.45078 26.702C9.45078 26.702 9.45078 26.702 9.38385 26.702C9.25001 26.702 9.18308 26.5684 9.04924 26.5016H8.98231C8.98231 26.5016 8.98231 26.4348 8.91539 26.4348C8.91539 26.4348 8.78154 26.4348 8.78154 26.3012C8.78154 26.1676 8.6477 26.2344 8.6477 26.2344C8.6477 26.2344 8.6477 26.2344 8.58077 26.2344C8.51385 26.2344 8.44693 26.1008 8.31308 26.034C8.17923 25.9672 8.11231 25.9004 8.04539 25.8336L7.71077 25.6332C7.71077 25.6332 7.71077 25.6332 7.64385 25.6332C7.57692 25.6332 7.64385 25.6332 7.57692 25.6332C7.57692 25.6332 7.44308 25.5664 7.44308 25.4996L7.30923 25.3659H7.24231V25.2991C7.17538 25.1655 7.04154 25.0987 6.97461 25.0987C6.90769 25.0987 6.97461 25.0987 6.97461 25.0319C6.43923 24.5643 5.90384 24.0967 5.43538 23.5622C5.43538 23.5622 5.43538 23.5622 5.43538 23.4954C5.43538 23.4286 5.43538 23.4954 5.30153 23.3618C5.30153 23.3618 5.30153 23.295 5.23461 23.2282C4.6323 22.627 4.09691 21.9589 3.62845 21.2241C3.62845 21.1573 3.4946 21.0905 3.42768 20.9569C3.36076 20.8233 3.29383 20.8233 3.29383 20.6897C3.29383 20.6897 3.29383 20.6897 3.29383 20.6229C3.29383 20.5561 3.29383 20.4892 3.29383 20.4892C3.29383 20.3556 3.42768 20.2888 3.42768 20.1552C3.42768 20.0216 3.56153 20.0216 3.56153 19.888C3.62845 19.7544 3.7623 19.6208 3.82922 19.4872C3.89614 19.3536 4.02999 19.22 4.09691 19.1532C4.16384 19.0864 4.29768 18.9528 4.36461 18.8191C4.43153 18.6855 4.56537 18.6187 4.6323 18.4851C4.6323 18.4183 4.76615 18.3515 4.83307 18.2847C4.83307 18.2847 4.83307 18.2179 4.89999 18.1511C4.96692 18.0843 4.89999 18.0843 4.96691 18.0843C4.96691 18.0175 5.10076 17.9507 5.16769 17.8839C5.16769 17.8839 5.16769 17.8839 5.23461 17.8171C5.30153 17.7503 5.23461 17.8171 5.30153 17.7503C5.43538 17.6167 5.5023 17.4831 5.63615 17.4163C5.76999 17.2827 5.90384 17.149 5.97076 17.0822C5.97076 17.0822 5.97077 17.0822 6.03769 17.0154C6.10461 16.9486 6.03769 17.0154 6.10461 17.0154C6.10461 17.0154 6.17153 16.9486 6.23846 16.8818C6.30538 16.815 6.43923 16.6814 6.50615 16.6146C6.57308 16.5478 6.70692 16.481 6.77384 16.3474C6.77384 16.3474 6.77385 16.3474 6.84077 16.3474H6.90769C6.90769 16.2806 6.97461 16.2138 7.04154 16.2138C7.04154 16.2138 7.17538 16.0802 7.24231 16.0802C7.24231 16.0802 7.30923 16.0134 7.37615 15.9466C7.44308 15.8798 7.51 15.8798 7.51 15.813C7.57692 15.813 7.64385 15.6794 7.71077 15.6794L7.91154 15.5457C7.97846 15.5457 8.04539 15.4121 8.11231 15.4121C8.11231 15.4121 8.17923 15.4121 8.24616 15.3453C8.31308 15.2785 8.31308 15.3453 8.38 15.2785C8.44693 15.2785 8.51385 15.1449 8.6477 15.1449V15.0781C8.6477 15.0781 8.71462 15.0781 8.78154 15.0113L9.04924 14.8777V14.8109H9.18308C9.25001 14.6773 9.38385 14.6105 9.45078 14.6105C9.5177 14.6105 9.5177 14.6105 9.58462 14.5437H9.71847C9.71847 14.4101 9.85232 14.4101 9.91924 14.3433C9.91924 14.3433 9.91924 14.3433 9.98616 14.3433C10.0531 14.3433 9.98616 14.3433 10.0531 14.3433C10.12 14.3433 10.2539 14.2765 10.3208 14.2097C10.3208 14.2097 10.3877 14.2097 10.4546 14.1429C10.5215 14.0761 10.5215 14.1429 10.5885 14.0761C10.7892 14.0093 10.9231 13.8756 11.1239 13.8088C11.2577 13.8088 11.3916 13.6752 11.4585 13.6752C11.5254 13.6752 11.7262 13.6084 11.7931 13.5416H11.86C11.86 13.5416 11.86 13.5416 11.9269 13.4748H12.1277C12.1277 13.408 12.2616 13.3412 12.3285 13.3412C12.3954 13.3412 12.4623 13.3412 12.5292 13.2744C12.6631 13.2744 12.7969 13.2076 12.9308 13.1408H13.0646C13.1316 13.1408 13.1985 13.074 13.2654 13.074C13.3993 13.074 13.6 13.0072 13.7339 12.9404C13.8008 12.9404 13.8677 12.9404 13.9346 12.9404C14.0016 12.9404 14.0685 12.9404 14.1354 12.9404C14.2693 12.9404 14.3362 12.9404 14.47 12.8736C14.47 12.8736 14.6039 12.8736 14.6708 12.8736H14.8716L15.0723 12.8068H15.1393C15.1393 12.8068 15.1393 12.8068 15.2062 12.8068H15.5408C15.5408 12.8068 15.5408 12.74 15.6077 12.74C15.6746 12.74 15.6077 12.74 15.6746 12.74C15.7416 12.74 15.8754 12.74 15.9423 12.74H16.0762C16.0762 12.74 16.1431 12.74 16.21 12.74H16.4777H16.5446C16.5446 12.74 16.5446 12.74 16.6116 12.74C16.6116 12.74 16.6116 12.8068 16.6116 12.8736C16.6116 12.8736 16.6116 13.0072 16.5446 13.0072C16.5446 13.074 16.4777 13.2076 16.4108 13.2744C16.3439 13.3412 16.3439 13.4748 16.277 13.6084C16.21 13.742 16.21 13.8088 16.1431 13.9424C16.1431 14.0093 16.1431 14.0761 16.0762 14.1429V14.2765C16.0762 14.2765 16.0762 14.2765 16.0762 14.3433C16.0762 14.4101 16.0762 14.3433 16.0762 14.4101C16.0762 14.5437 16.0093 14.6105 15.9423 14.7441C15.8085 15.0781 15.6746 15.4789 15.6077 15.9466C15.6077 15.9466 15.6077 16.0134 15.6077 16.0802C15.6077 16.147 15.6077 16.147 15.6077 16.2138C15.6077 16.2806 15.6077 16.4142 15.5408 16.5478C15.4739 16.6814 15.5408 16.7482 15.4739 16.8818C15.4069 17.0154 15.4739 17.0822 15.4069 17.2158C15.2731 17.8839 15.1393 18.5519 15.0723 19.22C15.0723 19.3536 15.0723 19.4204 15.0723 19.554V19.6876C15.0723 19.6876 15.0723 19.8212 15.0723 19.888C15.0723 20.0216 15.0723 20.1552 15.0723 20.2888C15.0723 20.2888 15.0723 20.3556 15.0723 20.4224C15.0723 20.4893 15.0723 20.4892 15.0723 20.5561C15.0723 20.6229 15.0723 20.6897 15.0723 20.7565C15.0723 20.8233 15.0723 20.8901 15.0723 20.9569C15.0723 21.0237 15.0723 21.0905 15.0723 21.1573C15.0723 21.2241 15.0723 21.2909 15.0723 21.3577V21.5581C15.0723 21.6917 15.0723 21.7585 15.0723 21.8921V22.0925C15.0723 22.0925 15.0723 22.0925 15.0723 22.1593C15.0723 22.2262 15.0723 22.1593 15.0723 22.2262C15.0723 22.3598 15.0723 22.4266 15.0723 22.5602C15.0723 22.5602 15.0723 22.627 15.0723 22.6938V22.8274C15.0723 22.961 15.0723 23.0278 15.0723 23.1614C15.0723 23.1614 15.0723 23.1614 15.0723 23.295C15.0723 23.4286 15.0723 23.4954 15.0723 23.5622C15.0723 23.629 15.0723 23.6958 15.0723 23.8295C15.0723 23.8963 15.0723 23.9631 15.0723 24.0967C15.0723 24.2303 15.0723 24.2303 15.0723 24.2971C15.0723 24.2971 15.0723 24.3639 15.0723 24.4307C15.0723 24.4975 15.0723 24.4975 15.0723 24.5643C15.0723 24.6311 15.0723 24.7647 15.0723 24.8315C15.0723 24.8315 15.0723 24.9651 15.0723 25.0319C15.0723 25.0319 15.0723 25.0319 15.0723 25.0987C15.0723 25.1655 15.0723 25.0987 15.0723 25.1655C15.0723 25.2991 15.0723 25.4327 15.1393 25.5664C15.1393 25.5664 15.1393 25.5664 15.1393 25.6332C15.1393 25.7668 15.1393 25.8336 15.1393 25.9004C15.1393 25.9672 15.1393 26.034 15.1393 26.1008C15.1393 26.1008 15.1393 26.1008 15.1393 26.1676V26.2344C15.1393 26.368 15.1393 26.4348 15.2062 26.5684C15.2062 26.6352 15.2062 26.702 15.2062 26.7688C15.2062 26.8356 15.2062 26.8356 15.2062 26.9024C15.2062 26.9692 15.2062 27.1029 15.2731 27.1697C15.34 27.2365 15.2731 27.3033 15.34 27.3701C15.34 27.5037 15.4069 27.6373 15.4739 27.7041C15.4739 27.7041 15.4739 27.8377 15.4739 27.9045C15.4739 27.9713 15.4739 28.0381 15.5408 28.1049C15.5408 28.2385 15.6077 28.3721 15.6746 28.4389V28.5725C15.6746 28.7061 15.7416 28.8398 15.8085 28.9734C15.8085 28.9734 15.8085 28.9734 15.8085 29.0402C15.8085 29.107 15.8085 29.0402 15.8085 29.107C15.8085 29.107 15.8085 29.2406 15.8754 29.2406C15.9423 29.2406 15.8754 29.3742 15.9423 29.441C16.0093 29.5078 15.9423 29.5746 16.0093 29.6414C16.0093 29.775 16.1431 29.9086 16.21 30.0422C16.21 30.0422 16.21 30.0422 16.21 30.109C16.21 30.1758 16.21 30.109 16.21 30.2426C16.21 30.3763 16.277 30.3763 16.277 30.4431C16.277 30.5099 16.3439 30.6435 16.4108 30.7103C16.277 30.7103 16.1431 30.7103 16.0093 30.7103M38.0939 10.669V10.5354C38.0939 10.5354 38.0939 10.5354 38.0939 10.4686C38.0939 10.335 38.0939 10.2682 38.0939 10.1346V10.001C38.0939 10.001 38.0939 10.001 38.0939 9.9342C38.0939 9.8674 38.0939 9.9342 38.0939 9.8674C38.0939 9.73379 38.0939 9.53338 38.0939 9.39977C38.0939 9.39977 38.0939 9.33297 38.0939 9.26616C38.0939 9.19936 38.0939 9.19936 38.0939 9.13256C38.0939 9.06575 38.0939 9.06575 38.0939 8.99895C38.0939 8.93214 38.0939 8.86534 38.0939 8.73173C38.0939 8.73173 38.0939 8.66492 38.0939 8.59812C38.0939 8.59812 38.0939 8.46451 38.0939 8.39771V8.2641C38.0939 8.1973 38.0939 8.06369 38.0939 7.99689C37.6924 5.85916 37.0232 3.78823 35.9524 1.85091C35.9524 1.7173 35.9524 1.6505 35.8186 1.58369L35.6178 1.24967H35.0155C33.1416 1.24967 31.3347 1.51689 29.5947 1.98452C29.5947 1.98452 29.5947 1.98452 29.6616 1.98452C29.7285 1.98452 29.7955 1.98452 29.8624 1.98452C29.8624 1.98452 29.8624 1.98452 29.9293 1.98452C30.0632 1.98452 30.1301 1.98452 30.197 1.91771C30.197 1.91771 30.2639 1.91771 30.3308 1.91771C30.3978 1.91771 30.3978 1.91771 30.4647 1.91771C30.5985 1.91771 30.6655 1.91771 30.8662 1.85091H30.7324C30.7993 1.85091 30.8662 1.85091 30.9332 1.85091C30.9332 1.85091 30.9332 1.85091 31.0001 1.85091H31.067C31.067 1.85091 31.067 1.85091 31.0001 1.85091H30.8662C30.8662 1.85091 30.7993 1.85091 30.7324 1.85091C30.7324 1.85091 30.7324 1.85091 30.7993 1.85091C31.937 1.58369 33.1416 1.45009 34.2793 1.45009C34.4132 1.45009 34.4801 1.45009 34.6139 1.45009C34.6139 1.45009 34.7478 1.45009 34.8147 1.45009C34.8816 1.45009 34.9486 1.45009 35.0155 1.45009H35.2162C35.2162 1.45009 34.8147 1.45009 34.7478 1.45009C34.6809 1.45009 34.6809 1.45009 34.6139 1.45009C34.547 1.45009 34.4132 1.45009 34.3462 1.45009H34.2124C34.2124 1.45009 34.1455 1.45009 34.0785 1.45009H33.8109H33.677H33.5432C33.5432 1.45009 33.4762 1.45009 33.4093 1.45009H33.1416H32.8739C32.8739 1.45009 32.807 1.45009 32.7401 1.45009H32.6062C32.5393 1.45009 32.4724 1.45009 32.3385 1.45009H32.2047H32.0708C31.937 1.45009 31.8032 1.45009 31.6693 1.51689H31.5355H31.4016H31.067C30.8662 1.51689 30.6655 1.6505 30.4647 1.6505C30.3978 1.6505 30.2639 1.6505 30.197 1.6505C30.1301 1.6505 29.9962 1.6505 29.9293 1.6505C29.7285 1.6505 29.5947 1.7173 29.3939 1.78411H29.1262C29.1262 1.85091 28.9924 1.85091 28.9924 1.85091C28.9924 1.85091 28.9255 1.85091 28.8585 1.85091C28.7247 1.85091 28.5239 1.91771 28.3901 1.98452C28.3231 1.98452 28.2562 1.98452 28.1224 2.05132H27.8547C27.8547 2.11813 27.7878 2.18493 27.7208 2.18493C27.6539 2.18493 27.6539 2.18493 27.587 2.18493C27.5201 2.18493 27.3862 2.18493 27.3193 2.25173H27.0516C27.0516 2.38534 26.9847 2.38534 26.9178 2.38534C26.8508 2.38534 26.8508 2.38534 26.7839 2.38534H26.6501C26.7839 2.38534 26.8508 2.25173 26.9847 2.18493C26.9847 2.18493 26.9847 2.18493 27.0516 2.18493H27.2524C27.2524 2.11813 27.3862 2.05132 27.4531 2.05132H27.5201C28.1893 1.78411 28.9255 1.51689 29.6616 1.38328C29.7955 1.38328 29.8624 1.38328 29.9962 1.31648C30.1301 1.24967 30.197 1.31648 30.3308 1.24967C30.4647 1.18287 30.5316 1.24967 30.6655 1.18287H31.0001L31.3347 1.04926H31.4016H31.5355C31.6693 1.04926 31.7362 1.04926 31.8701 1.04926C31.8701 1.04926 31.8701 1.04926 31.937 1.04926H32.0039C32.0039 1.04926 32.0708 1.04926 32.1378 1.04926C32.3385 1.04926 32.1378 1.04926 32.0039 1.04926H31.8701C31.8701 1.04926 31.8032 1.04926 31.7362 1.04926C31.6693 1.04926 31.5355 1.04926 31.4685 1.04926H31.3347L31.067 1.11607C31.0001 1.11607 30.8662 1.11607 30.7993 1.11607C30.7324 1.11607 30.5985 1.11607 30.5316 1.11607C30.3308 1.11607 30.1301 1.18287 29.9293 1.24967C29.7955 1.24967 29.7955 1.24967 29.9293 1.18287C29.9962 1.18287 30.0632 1.18287 30.197 1.11607C30.3308 1.11607 30.4647 1.11606 30.5985 1.04926H30.7993C30.8662 1.04926 30.9332 0.982458 31.0001 0.982458C31.067 0.982458 31.1339 0.982458 31.2008 0.982458H31.3347C31.3347 0.982458 31.4016 0.982458 31.4685 0.982458H32.0039C32.0039 0.915654 32.1378 0.915652 32.1378 0.915652C32.1378 0.915652 32.2047 0.915652 32.2716 0.915652H32.5393H32.807H33.0747C33.2085 0.915652 33.4093 0.915652 33.5432 0.915652H33.9447H34.0785H34.8147H35.2162C35.2162 0.915652 35.1493 0.915652 35.0824 0.915652H34.6809C34.6809 0.915652 34.6139 0.915652 34.547 0.915652C34.4801 0.915652 34.3462 0.915652 34.2793 0.915652H34.1455H34.0116C33.9447 0.915652 33.8109 0.915652 33.7439 0.915652H33.4762C33.4762 0.915652 33.4093 0.915652 33.3424 0.915652C33.2755 0.915652 33.2755 0.915652 33.2085 0.915652C33.1416 0.915652 33.0078 0.915652 32.8739 0.915652H32.7401H32.6062C32.4724 0.915652 32.4055 0.915652 32.2716 0.915652H32.1378H32.0039C31.8032 0.915652 31.6024 0.915652 31.4685 0.915652C31.8701 0.782044 32.2716 0.715242 32.6732 0.648438C32.5393 0.648438 32.3385 0.648438 32.2047 0.648438H32.0708C32.0708 0.648438 32.0039 0.648438 31.937 0.648438C31.8701 0.648438 31.8032 0.648438 31.7362 0.648438H31.5355H31.4016C31.4016 0.648438 31.4016 0.648438 31.2678 0.648438C31.1339 0.648438 31.0001 0.648438 30.8662 0.648438C30.8662 0.648438 30.7324 0.648438 30.6655 0.648438C30.5985 0.648438 30.5316 0.648438 30.4647 0.648438C30.3308 0.648438 30.197 0.648436 30.0631 0.715241C30.0631 0.715241 29.9293 0.715241 29.8624 0.715241C29.7955 0.715241 29.7285 0.715241 29.6616 0.715241C29.5278 0.715241 29.4608 0.715241 29.3939 0.715241H29.2601L28.9924 0.848849C28.8585 0.848849 28.8585 0.848848 28.7916 0.915652C28.7916 0.915652 28.7916 0.915652 28.7247 0.915652C28.6578 0.915652 28.6578 0.915652 28.5908 0.915652C28.2562 1.04926 28.2562 1.04926 28.0555 1.04926C27.9216 1.04926 27.7878 1.18287 27.6539 1.18287H27.4531C27.4531 1.24967 27.2524 1.31648 27.2524 1.31648L26.8508 1.51689C26.717 1.51689 26.5831 1.6505 26.4493 1.7173H26.3154C26.3154 1.7173 26.3154 1.78411 26.1816 1.78411H25.9808C25.9808 1.85091 25.7801 1.98452 25.7801 1.98452H25.6462V2.05132C25.3785 2.18493 25.1108 2.31854 24.8431 2.45215C24.8431 2.45215 24.7093 2.51895 24.6424 2.58575C24.6424 2.58575 24.6424 2.58575 24.5754 2.58575C24.4416 2.58575 24.5754 2.58576 24.4416 2.65256C24.3747 2.65256 24.4416 2.65256 24.3077 2.71936C24.3077 2.71936 24.1739 2.71936 24.1739 2.78617H24.107C24.107 2.78617 24.107 2.85297 24.0401 2.85297C23.9062 2.85297 23.8393 2.98658 23.7054 3.05338L23.5716 3.18699L23.4377 3.3206C23.3039 3.3874 23.237 3.45421 23.1031 3.52101C22.0993 4.18905 21.2293 4.9907 20.3593 5.79235C20.2254 5.92596 20.3593 5.79235 20.1585 5.92596C19.5562 6.52719 18.9539 7.19524 18.4185 7.86328C18.3516 7.93008 18.2847 8.06369 18.2177 8.13049C18.2177 8.1973 18.2177 8.2641 18.2177 8.2641C18.2177 8.2641 18.1508 8.3309 18.1508 8.39771C18.0839 8.46451 18.017 8.59812 17.95 8.66493C17.95 8.73173 17.95 8.79854 17.95 8.79854V8.93214C17.8162 8.99895 17.7493 9.13256 17.6823 9.19936C17.6823 9.26616 17.6823 9.33297 17.6823 9.33297C17.6823 9.39977 17.6823 9.46658 17.6823 9.46658C17.6823 9.46658 17.6823 9.46658 17.6154 9.46658C17.6154 9.46658 17.4816 9.46658 17.4146 9.46658H17.08C17.08 9.46658 16.9462 9.46658 16.8793 9.46658C16.8123 9.46658 16.7454 9.46658 16.6785 9.46658H16.277C16.277 9.46658 16.1431 9.46658 16.0762 9.46658H15.8754H15.6746H15.6077H15.5408C15.4069 9.46658 15.2731 9.46658 15.1393 9.46658H14.9385H14.8716C14.6039 9.46658 14.3362 9.53338 14.1354 9.60018C14.0016 9.60018 13.8677 9.60018 13.7339 9.66699C13.6 9.73379 13.4662 9.73379 13.3323 9.73379H13.1316L13.0646 9.8006H12.9977C12.8639 9.8006 12.73 9.9342 12.5962 9.9342C12.5962 9.9342 12.4623 9.9342 12.3954 9.9342H12.1946C12.0608 10.0678 11.9269 10.0678 11.7931 10.1346C11.7931 10.1346 11.6592 10.1346 11.5923 10.2014H11.3916C11.3916 10.2682 11.1908 10.335 11.1908 10.335C11.1908 10.335 11.0569 10.335 10.99 10.4018C10.0531 10.7359 9.18308 11.2035 8.31308 11.6711C7.51 12.1387 6.70692 12.6732 5.90384 13.2076C5.30153 13.6752 4.76615 14.1429 4.23076 14.6105C3.69537 15.0781 3.22691 15.6125 2.82537 16.0802C2.75845 16.147 2.69152 16.2138 2.6246 16.3474C2.6246 16.3474 2.55768 16.4142 2.49075 16.481C2.35691 16.6814 2.22306 16.815 2.08921 16.9486C1.95537 17.0822 1.82152 17.2827 1.68767 17.4163C1.68767 17.4163 1.68767 17.4831 1.62075 17.5499C1.55383 17.6167 1.62075 17.6167 1.55383 17.6835C1.55383 17.7503 1.41998 17.8171 1.35306 17.9507C1.35306 17.9507 1.35306 18.0175 1.28613 18.0843C1.21921 18.1511 1.28613 18.1511 1.21921 18.2179L1.01844 18.4851C0.884595 18.6187 0.817671 18.8191 0.683825 19.0196L0.549978 19.2868C0.483054 19.4204 0.416131 19.4872 0.349208 19.6208C0.349208 19.6876 0.282284 19.7544 0.215361 19.8212C0.215361 19.8212 0.215361 19.888 0.148438 19.9548C0.148438 20.0884 0.215361 20.1552 0.282285 20.222V20.3556V20.4892C0.416131 20.5561 0.416131 20.6897 0.483054 20.7565L0.616901 20.9569C0.683824 21.0905 0.750747 21.2241 0.81767 21.3577C0.884594 21.4913 0.951517 21.6249 1.08536 21.7585C1.08536 21.7585 1.15229 21.8921 1.21921 21.9589C1.28613 22.0257 1.28613 22.0925 1.35306 22.1593C1.41998 22.293 1.55383 22.4266 1.62075 22.5602C1.68767 22.6938 1.82152 22.7606 1.88844 22.8942C2.02229 23.0946 2.22306 23.3618 2.35691 23.4954V23.629C2.49075 23.629 2.49075 23.6958 2.55768 23.7626C2.55768 23.8295 2.69152 23.8963 2.75845 23.9631C2.75845 23.9631 2.82537 24.0967 2.89229 24.1635C2.95922 24.2303 2.95922 24.2971 3.02614 24.3639C3.09306 24.4975 3.22691 24.5643 3.29383 24.6979C3.82922 25.2991 4.43153 25.8336 5.10076 26.368C5.76999 26.9692 6.50615 27.5037 7.24231 27.9713C7.24231 27.9713 7.37615 28.0381 7.37615 28.1049H7.51C7.51 28.1717 7.84462 28.3721 7.84462 28.3721C7.84462 28.3721 7.84462 28.3721 7.91154 28.3721H7.97846C7.97846 28.4389 8.11231 28.5057 8.11231 28.5057C8.24616 28.5057 8.31308 28.6393 8.44693 28.7061C8.58077 28.773 8.71462 28.8398 8.91539 28.9734C8.91539 28.9734 8.98231 28.9734 9.04924 28.9734C9.11616 28.9734 9.11616 28.9734 9.18308 28.9734L9.38385 29.107C10.2539 29.5078 11.1239 29.9086 11.9939 30.1758C12.0608 30.1758 12.1277 30.1758 12.1946 30.1758H12.3954C12.4623 30.2426 12.5292 30.3094 12.5962 30.3094H12.73L13.1985 30.4431C13.1985 30.4431 13.2654 30.4431 13.3323 30.4431H13.4662L13.6669 30.5099H13.8677L14.0685 30.6435C14.2023 30.6435 14.4031 30.6435 14.5369 30.7103H15.0054C15.0054 30.7771 15.1393 30.7771 15.1393 30.7771C15.2062 30.7771 15.2731 30.7771 15.34 30.7771H15.6077H15.7416H15.8754C16.0762 30.7771 16.21 30.7771 16.4108 30.8439C16.6116 30.9107 16.7454 30.8439 16.9462 30.8439C17.0131 30.8439 17.147 30.8439 17.2139 30.8439H17.3477H17.4146C17.4146 30.9107 17.4816 30.9775 17.5485 31.1111C17.5485 31.1111 17.5485 31.1779 17.6154 31.2447C17.6823 31.3115 17.6154 31.3115 17.6823 31.3783C17.6823 31.4451 17.7493 31.5119 17.8162 31.5787C17.8831 31.6455 17.8831 31.7123 17.95 31.7791L18.2177 32.18C18.2177 32.18 18.2847 32.3136 18.3516 32.3136C18.4185 32.3136 18.4185 32.4472 18.4854 32.4472C18.5523 32.4472 18.5523 32.5808 18.6193 32.5808C18.6862 32.5808 18.6862 32.7144 18.7531 32.7144C18.82 32.848 18.9539 32.9148 19.0208 33.0484C19.0208 33.0484 19.0877 33.182 19.1547 33.182C19.2216 33.182 19.2216 33.3156 19.2885 33.3156C19.3554 33.4492 19.4893 33.516 19.5562 33.6497L19.8239 33.9837C19.8239 33.9837 19.8908 34.1173 19.9577 34.1173C20.0247 34.1173 20.0916 34.2509 20.0916 34.2509C20.2254 34.3845 20.2924 34.4513 20.4262 34.5849L20.6939 34.8521C20.7608 34.9189 20.8277 34.9857 20.9616 35.1193C21.0954 35.2529 21.1624 35.2529 21.2293 35.3198C21.2293 35.3198 21.2962 35.3866 21.3631 35.4534C21.43 35.5202 21.43 35.5202 21.497 35.587C21.5639 35.6538 21.6977 35.7206 21.7647 35.7874L21.8985 35.921V36.0546C21.9654 36.1214 22.0993 36.1882 22.1662 36.255C22.1662 36.255 22.2331 36.3218 22.3 36.3886C22.367 36.5222 22.5008 36.589 22.5677 36.6558C22.9024 36.923 23.3039 37.1903 23.6385 37.3907C23.6385 37.3907 23.7054 37.3907 23.7724 37.4575H23.9062C23.9731 37.5911 24.107 37.6579 24.1739 37.7247C24.3747 37.8583 24.5085 37.9251 24.6424 37.9919C24.9101 38.1255 25.1108 38.2591 25.3116 38.3927H25.3785C25.3785 38.3927 25.3785 38.4595 25.4454 38.4595H25.5793C25.7131 38.5932 25.7801 38.66 25.9139 38.7268C25.9139 38.7268 25.9139 38.7268 25.9808 38.7268H26.1816C26.1816 38.8604 26.3154 38.8604 26.3824 38.8604C26.3824 38.8604 26.3824 38.8604 26.4493 38.8604H26.5162C26.6501 38.9272 26.7839 38.994 26.8508 39.0608H26.9178L27.1185 39.1276H27.3193C27.3862 39.2612 27.4531 39.2612 27.587 39.328L27.9885 39.4616C27.9885 39.4616 27.9885 39.4616 28.0555 39.4616H28.2562C28.3901 39.5284 28.5239 39.5952 28.6578 39.662L29.0593 39.7956C29.9962 40.0628 30.8662 40.1964 31.8032 40.3301C31.937 40.3301 32.0709 40.3301 32.2716 40.3301C32.3385 40.3301 32.4055 40.3301 32.5393 40.3301H32.807C32.8739 40.3301 33.0078 40.3301 33.0747 40.3301H33.2085C33.2085 40.3301 33.2755 40.3301 33.3424 40.3301C33.4762 40.3301 33.6101 40.3301 33.677 40.3301V40.1964L33.8778 40.3969C33.8778 40.3969 33.7439 40.3969 33.677 40.3969H33.8778H34.0785H34.3462C34.3462 40.3969 34.4132 40.3969 34.4801 40.3969C34.4801 40.3969 34.4801 40.3969 34.547 40.3969C34.547 40.3969 34.547 40.3301 34.6139 40.2633C34.6139 40.1964 34.6809 40.1296 34.7478 39.996C34.8147 39.8624 34.8147 39.8624 34.8816 39.7288C34.9486 39.5952 34.9486 39.5952 35.0155 39.4616V39.328H35.0824C35.1493 39.0608 35.2832 38.9272 35.3501 38.7268C35.417 38.5263 35.4839 38.3927 35.6178 38.1923C35.9524 37.5243 36.2201 36.7894 36.4878 36.0546C36.4878 35.921 36.5547 35.7874 36.6216 35.7206C36.6216 35.7206 36.6216 35.7206 36.6216 35.6538C36.6216 35.587 36.6216 35.6538 36.6216 35.587C36.6216 35.587 36.6216 35.4534 36.6216 35.3866C36.6216 35.2529 36.6216 35.1193 36.7555 35.0525C36.8893 34.9857 36.7555 34.7853 36.8224 34.6517C36.8893 34.3845 36.9562 34.1173 37.0232 33.7833C37.0232 33.7833 37.0232 33.7165 37.0232 33.6497C37.0232 33.5828 37.0232 33.5828 37.0232 33.516C37.0232 33.4492 37.0232 33.3824 37.0232 33.2488C37.0232 33.1152 37.0232 33.1152 37.0232 32.9816C37.0232 32.848 37.0232 32.848 37.0232 32.7144C37.0232 32.5808 37.0232 32.5808 37.0232 32.4472C37.0232 32.4472 37.0232 32.3804 37.0232 32.3136C37.0232 32.2468 37.0232 32.2468 37.0232 32.18C37.0232 31.9795 37.0232 31.8459 37.0232 31.6455V31.5119V31.3783V31.1111C37.0232 31.1111 37.0232 31.0443 37.0232 30.9775C37.0232 30.9107 37.0232 30.9107 37.0232 30.8439C37.0232 30.7771 37.0232 30.6435 37.0232 30.5767C37.0232 30.4431 37.0232 30.3094 37.0232 30.1758C37.0232 30.0422 37.0232 29.9086 37.0232 29.775C37.0232 29.5078 37.0232 29.2406 37.0232 28.9734V28.8398C37.0232 28.7062 37.0232 28.6393 37.0232 28.5725C37.0232 28.4389 37.0232 28.3053 37.0232 28.2385C37.0232 28.2385 37.0232 28.1049 37.0232 28.0381C37.0232 27.9713 37.0232 27.9045 37.0232 27.9045C37.0232 27.7709 37.0232 27.7041 37.0232 27.6373V27.5037V27.3701C37.0232 27.2365 37.0232 27.1028 37.0232 26.9692C37.0232 26.702 36.9563 26.3012 36.8893 25.9004C36.8893 25.7668 36.8893 25.7 36.8893 25.7V25.6332C36.8893 25.6332 36.8893 25.5664 36.8893 25.4328C36.8893 25.2991 36.8893 25.2323 36.8893 25.1655C36.8893 25.1655 36.8893 25.0987 36.8893 25.0319C36.8893 24.9651 36.8893 24.9651 36.8893 24.8983C36.8893 24.8315 36.8893 24.6979 36.8893 24.6311C36.8893 24.6311 36.8893 24.5643 36.8893 24.4975C36.8893 24.4307 36.8893 24.4307 36.8893 24.3639C36.8893 24.1635 36.8224 23.9631 36.7555 23.7626C36.7555 23.6958 36.7555 23.5622 36.6886 23.4286C36.6216 23.295 36.6886 23.2282 36.5547 23.0946C36.5547 22.961 36.4878 22.8274 36.4209 22.6938V22.4934C36.3539 22.4934 36.3539 22.4934 36.287 22.4266C36.2201 22.3598 36.287 22.4266 36.287 22.3598C36.287 22.2262 36.1532 22.0925 36.1532 21.9589C36.1532 21.9589 36.1532 21.9589 36.1532 21.8253V21.6917C36.0862 21.6917 36.0862 21.5581 36.0193 21.4913C35.9524 21.4245 36.0193 21.3577 35.9524 21.2909C35.8855 21.2241 35.9524 21.1573 35.8855 21.0905C35.8855 20.9569 35.7516 20.8233 35.6847 20.6897C35.6847 20.556 35.5509 20.4224 35.4839 20.2888C35.4839 20.2888 35.4839 20.1552 35.417 20.0884C35.3501 20.0216 35.417 19.9548 35.3501 19.888C35.3501 19.7544 35.2162 19.6208 35.1493 19.554C35.1493 19.554 35.1493 19.554 35.1493 19.4872C35.1493 19.4872 35.1493 19.3536 35.2832 19.2868C35.2832 19.22 35.3501 19.0864 35.417 19.0196C35.4839 18.9528 35.417 18.886 35.4839 18.8191C35.4839 18.6855 35.6178 18.6187 35.6178 18.4851C35.8186 18.0843 35.9524 17.7503 36.0862 17.4831C36.0862 17.4163 36.0862 17.3495 36.1532 17.2826C36.1532 17.2826 36.1532 17.2827 36.1532 17.2158C36.1532 17.0822 36.2201 17.0154 36.287 16.8818C36.287 16.8818 36.287 16.815 36.287 16.7482C36.287 16.6814 36.287 16.6146 36.3539 16.5478C36.4209 16.481 36.3539 16.4142 36.4209 16.3474V16.2138C36.4209 16.2138 36.4209 16.147 36.4878 16.0802C36.4878 15.9466 36.5547 15.7462 36.6216 15.6125C36.6216 15.6125 36.6216 15.5457 36.6216 15.4789C36.6216 15.4121 36.6216 15.3453 36.6216 15.2785C36.6216 15.2117 36.6216 15.0113 36.6886 15.0113L36.8224 14.5437C36.8224 14.5437 36.8224 14.4769 36.8224 14.4101C36.8224 14.3433 36.8224 14.3433 36.8224 14.2765V14.0761C36.8893 13.9424 36.9562 13.8088 36.9562 13.6752C36.9562 13.5416 36.9562 13.408 37.0232 13.2744C37.0232 13.2076 37.0232 13.1408 37.0232 13.074C37.0232 13.0072 37.0232 12.9404 37.0232 12.8736C37.0232 12.74 37.0232 12.6064 37.0232 12.406C37.0232 12.0719 37.0901 11.7379 37.157 11.4039C37.157 11.2703 37.157 11.2035 37.157 10.9363C37.157 10.8027 37.157 10.5354 37.157 10.4686V10.335C37.157 10.2014 37.157 10.001 37.157 9.8006C37.157 9.39977 37.157 9.06575 37.157 8.66493" fill="#223745"/>
</svg>
