<svg width="516" height="775" viewBox="0 0 516 775" fill="none" xmlns="http://www.w3.org/2000/svg">
<path d="M483.318 221.996C483.318 221.996 483.318 222.498 483.318 223.001C483.318 223.504 483.318 224.51 483.318 225.012C483.318 226.521 483.318 227.526 483.318 229.035C483.318 230.04 483.318 231.046 483.318 232.052C483.318 233.057 483.318 234.063 483.318 235.069C483.318 237.08 483.318 238.588 483.318 240.599C483.318 242.611 483.318 244.119 483.318 246.13C483.318 248.141 483.317 249.65 482.821 251.661C482.821 252.667 482.821 254.175 482.821 255.181C482.821 256.186 482.821 257.695 482.325 258.7C482.325 259.706 482.325 261.214 482.325 262.22C482.325 263.226 482.325 264.734 481.829 265.74C481.829 268.254 480.837 270.265 480.837 272.779C480.837 275.293 479.845 277.304 479.845 279.818C479.845 282.332 478.853 285.349 477.861 287.863C477.861 289.372 477.365 290.88 476.869 291.886C476.869 293.394 476.373 294.903 475.877 295.908C474.389 301.439 472.901 306.97 471.413 311.998C470.917 314.009 469.925 316.02 469.429 318.032C469.429 319.037 468.933 320.043 468.437 321.048C468.437 322.054 467.94 323.06 467.444 324.065C466.948 326.077 465.956 328.088 465.46 330.099C464.468 332.11 463.972 334.121 462.98 336.636C462.98 337.641 462.484 338.144 461.988 339.15C461.988 340.155 461.492 340.658 460.996 341.664C460.996 342.669 460.5 343.172 460.004 344.178C459.508 345.686 458.516 347.697 458.02 349.206C457.524 350.714 456.532 352.725 456.036 354.234C456.036 354.234 456.036 355.239 455.54 355.239C455.54 355.742 455.54 355.742 455.54 355.742C455.54 355.742 455.54 355.742 455.54 356.245C455.54 356.245 455.54 357.251 455.044 357.251C455.044 357.251 455.044 357.251 455.044 357.753C455.044 356.748 454.052 356.245 453.556 355.742C453.06 354.737 452.563 353.731 451.571 353.228C450.579 351.72 449.091 349.708 448.099 348.2C446.611 346.189 445.619 344.68 444.131 343.172C443.635 342.166 442.643 341.664 442.147 340.658C442.147 340.658 441.651 339.652 441.155 339.652C441.155 339.652 440.659 338.647 440.163 338.647C439.171 337.641 438.674 336.635 437.682 335.63C437.186 334.624 436.194 334.121 435.698 333.116C435.202 332.11 434.21 331.607 433.714 330.602C432.226 329.093 430.738 327.082 429.25 325.574C428.754 325.071 428.258 324.065 427.266 323.562C426.77 323.06 426.274 322.054 425.282 321.551C424.29 320.043 422.802 319.037 421.313 317.529C420.817 317.026 419.825 316.02 419.329 315.518C418.833 315.015 417.841 314.009 417.345 313.506C415.857 311.998 414.369 310.49 413.377 309.484C412.881 308.981 412.385 308.478 411.889 307.473C411.393 306.97 410.897 306.467 409.905 305.461C408.417 303.953 407.424 302.947 405.936 301.439C405.44 300.936 404.448 299.931 403.952 299.428C403.456 298.925 402.464 297.919 401.968 297.417C400.48 295.908 398.992 294.903 397.504 293.394C388.575 285.349 379.151 277.807 369.23 270.265C367.742 269.259 365.758 267.751 364.27 266.745C363.278 266.243 362.782 265.74 361.79 264.734C360.797 264.231 360.301 263.729 359.309 263.226C357.325 261.717 355.341 260.712 353.357 259.203C352.365 258.7 351.373 257.695 349.885 257.192C348.893 256.689 347.901 255.684 346.413 255.181C345.42 254.678 343.932 253.672 342.94 253.17C341.948 252.667 340.46 251.661 339.468 251.158C338.476 250.656 336.988 249.65 335.996 249.147C335.5 249.147 335.004 248.644 334.012 248.141C333.516 248.141 333.02 247.639 332.028 247.136C330.539 246.13 328.555 245.125 326.571 244.119C325.579 244.119 324.587 243.113 323.595 242.611H323.099L322.603 241.605C322.603 241.605 321.611 241.605 321.115 241.102C319.131 240.097 317.643 239.091 315.659 238.085C313.674 237.08 314.17 237.08 313.178 236.577C312.186 236.577 311.69 236.074 311.194 235.571C310.202 235.069 308.218 234.063 306.234 233.057C305.738 233.057 305.242 232.554 304.746 232.052C304.746 232.052 304.25 232.052 303.754 232.052C303.754 232.052 303.258 232.052 302.762 232.052C301.274 231.549 300.282 231.046 298.793 230.04C295.817 228.532 296.313 228.532 294.825 228.029C293.337 227.526 292.345 227.024 290.857 226.521C289.369 226.018 288.377 225.515 286.889 225.012C285.897 225.012 285.401 224.51 284.905 224.007C284.409 224.007 283.416 223.504 282.92 223.001C281.432 222.498 279.944 221.996 277.96 220.99C276.968 220.99 275.976 220.487 274.984 219.984C274.488 219.984 273.992 219.984 273.496 219.482C273 219.482 272.504 219.482 272.008 218.979C269.528 217.973 267.543 217.47 265.063 216.465C264.567 216.465 264.071 216.465 263.575 215.962C263.079 215.962 262.583 215.962 262.087 215.459C261.095 215.459 259.607 214.956 258.615 214.453C257.623 214.453 256.631 213.951 255.639 213.448C254.647 213.448 253.655 212.945 252.662 212.442C250.678 211.939 248.694 211.437 246.214 210.431C244.726 210.431 243.734 209.425 242.742 209.425C241.75 209.425 240.758 209.425 239.766 208.923C238.278 208.923 236.789 207.917 235.301 207.917C233.813 207.917 232.325 207.414 231.333 206.911C228.853 206.409 226.869 205.906 225.381 205.403C224.389 205.403 222.901 204.9 221.908 204.397C220.42 204.397 219.428 204.397 217.94 203.895C215.46 203.895 212.98 202.889 210.996 202.386C210.5 202.386 209.012 202.386 208.516 202.386C206.035 202.386 203.555 201.38 201.571 201.38C201.075 201.38 200.579 201.38 200.083 201.38C199.587 201.38 199.091 201.38 198.595 201.38C197.603 201.38 196.611 201.38 195.619 201.38C194.627 201.38 193.635 201.38 192.147 201.38C191.154 201.38 189.666 201.38 188.674 201.38C186.194 201.38 183.714 200.878 180.738 200.375C180.242 200.375 179.746 200.375 179.25 200.375C178.754 200.375 177.762 200.375 176.77 200.375C175.777 200.375 173.793 200.375 173.297 200.375C171.809 200.375 170.321 200.375 168.337 200.375C169.825 198.364 171.313 195.85 172.801 193.838C173.297 193.336 173.793 192.33 174.785 191.324C175.777 189.816 176.77 188.307 177.762 187.302C178.754 185.291 180.242 182.777 182.226 180.765C183.714 178.754 185.202 176.743 186.69 175.234C209.508 147.077 236.293 122.943 266.055 103.333C266.055 103.333 266.055 103.333 265.559 103.836C263.575 105.344 262.583 105.847 261.095 106.853C260.599 106.853 260.103 107.858 259.111 108.361C259.111 108.361 258.615 108.361 258.119 109.367C258.119 109.367 257.127 109.87 256.631 110.372H257.623C256.135 111.378 255.639 111.378 255.143 112.384C258.119 110.372 258.119 110.875 257.623 112.384C253.655 114.898 249.686 117.915 245.718 121.434C244.726 121.937 243.734 122.943 242.742 123.445C242.742 123.445 241.75 123.948 241.254 124.451C241.254 124.451 240.262 124.954 239.766 125.457C237.781 126.965 236.293 128.473 234.805 129.479C234.805 129.982 234.309 130.485 233.317 131.49C231.829 132.999 230.341 134.507 228.357 136.016C227.365 136.518 226.869 137.524 225.877 138.027C224.885 138.53 224.389 139.535 223.397 140.541C221.908 142.049 219.924 143.558 218.436 145.066C218.436 145.066 217.444 146.072 216.948 146.072L215.956 147.077C214.964 148.083 214.468 148.586 213.476 149.591C214.468 148.586 215.46 148.083 216.452 147.077C216.452 147.077 217.444 146.072 217.94 145.569C218.436 145.569 218.932 144.563 219.428 144.06C221.412 142.049 223.397 140.541 225.381 138.53C229.349 135.01 233.813 130.987 238.277 126.965C238.277 126.965 238.278 126.965 239.27 126.462C239.27 126.462 240.262 125.457 240.758 124.954C240.758 124.954 241.75 123.948 242.246 123.445C243.238 122.44 244.23 121.937 245.222 120.931C246.214 119.926 247.206 119.423 248.198 118.417C248.198 118.417 249.19 117.915 249.686 117.412C249.686 117.412 250.678 116.909 251.174 116.406C252.662 115.903 254.647 114.898 256.135 114.395C256.631 114.395 257.623 113.389 258.119 112.886C258.615 112.886 259.111 111.881 260.103 111.378C261.095 110.372 262.583 109.87 263.575 108.864C264.567 108.361 266.055 107.356 267.047 106.853C267.047 106.853 267.543 106.853 268.039 106.35C268.039 106.35 268.535 106.35 269.032 106.35C269.528 106.35 270.024 105.847 271.016 105.344C273.496 103.836 275.48 102.83 277.96 101.322C280.44 99.8135 282.92 98.8078 285.401 97.2994C285.401 97.2994 286.393 97.2994 286.889 97.2994C286.393 97.8022 285.897 98.8078 284.905 99.3107C283.416 100.316 281.432 101.322 279.944 102.327C279.448 102.327 278.952 102.83 278.456 103.333C277.96 103.333 277.464 104.339 276.968 104.339C275.976 105.344 274.488 105.847 273.496 106.853C272.504 107.858 271.016 108.361 269.528 109.367C268.039 110.372 267.047 111.378 265.559 111.881C264.071 112.886 263.079 113.892 261.591 114.898C260.103 115.903 259.111 116.909 257.623 117.915C256.135 118.92 255.143 119.926 253.655 120.931C253.159 120.931 252.166 121.937 251.67 122.44C251.174 122.44 250.678 123.445 249.686 123.948C248.694 125.457 249.686 124.954 251.174 124.451C253.655 122.44 255.639 120.931 258.119 118.92C259.111 117.915 260.599 116.909 261.591 116.406C263.079 115.4 264.071 114.898 265.559 113.892C268.039 113.892 266.551 115.4 262.583 118.417C259.607 120.931 254.647 123.948 250.678 127.468C246.71 130.485 242.742 133.502 240.758 135.513C231.829 143.558 223.397 151.603 215.46 160.653C214.468 161.659 213.476 162.664 212.484 164.173L210.996 165.681C210.996 166.184 210.004 166.687 209.508 167.19C207.524 169.704 205.539 171.715 203.555 174.229C201.571 176.743 199.587 178.754 198.099 181.268C198.099 181.771 197.107 182.274 196.611 183.279C196.611 183.782 195.619 184.285 195.123 185.291C194.131 186.296 193.139 187.805 192.643 188.81C196.611 183.279 201.075 178.251 205.043 173.726C206.035 172.72 207.027 171.212 208.02 170.206C208.516 169.704 209.012 169.201 209.508 168.195L210.5 167.19L211.492 166.184C213.476 164.173 215.46 161.659 217.94 159.647C217.94 159.647 217.94 159.145 218.436 158.642C220.42 156.631 222.901 154.117 224.885 152.105C226.869 150.094 229.349 148.083 231.333 145.569C231.829 145.066 232.325 144.563 232.821 144.06C233.317 143.558 233.813 143.055 234.309 142.552C235.301 141.546 236.293 140.541 237.781 139.535C238.277 139.535 238.774 138.53 239.27 138.027C239.766 138.027 240.262 137.021 240.758 136.518C241.75 135.513 242.742 134.507 243.734 134.004C244.726 133.502 245.718 132.496 246.71 131.49C247.702 130.485 249.19 129.479 250.182 128.473C251.67 127.468 252.662 126.462 253.655 125.457C253.655 125.457 254.151 125.457 254.647 124.954C254.647 124.954 255.143 124.954 255.639 124.451C256.135 124.451 256.631 123.948 257.127 123.445C257.127 124.451 256.135 125.457 255.143 126.462C254.151 127.971 252.662 128.976 250.678 130.485C252.662 128.976 254.151 127.468 256.135 126.462C258.119 125.457 259.607 123.948 261.095 122.943C263.575 120.931 268.039 117.412 269.528 116.909C269.528 116.909 271.512 115.4 272.008 115.4C273.496 114.395 273 114.395 274.984 113.389C276.968 111.881 276.968 111.881 278.456 111.378C278.456 111.378 279.448 110.875 279.944 110.372C279.944 110.372 280.936 109.87 281.432 109.367C282.424 108.864 283.416 108.361 284.409 107.356C285.401 106.853 286.393 106.35 287.385 105.344L288.873 104.339C288.873 104.339 289.865 103.836 290.361 103.333C292.345 102.327 294.329 100.819 296.313 99.8135L297.801 98.8078C297.801 98.8078 298.793 98.305 299.289 97.8022C300.282 97.2994 301.274 96.7966 302.266 96.2938C303.258 96.2938 304.746 94.7854 304.746 94.7854C305.738 94.7854 304.746 94.7854 305.738 94.7854C306.234 94.7854 305.738 94.7854 306.73 93.7798C308.218 92.7742 310.202 92.2714 311.69 91.2657C313.178 90.2601 315.163 89.7573 316.651 88.7517C318.635 87.7461 320.619 86.7405 323.099 85.7349C323.595 85.7349 324.091 85.7349 324.587 85.2321H325.579L326.571 84.7293C327.563 84.7293 328.555 83.7236 330.043 83.2208C331.036 83.2208 332.028 82.2152 333.02 81.7124C334.012 81.2096 335.004 80.7068 335.996 80.204C337.98 79.1984 339.964 78.6956 341.452 78.1928C342.94 77.6899 341.452 78.6956 342.94 78.1928C354.845 73.6675 367.246 69.645 380.143 66.6282C381.135 66.6282 380.143 66.6282 381.631 66.6282C383.615 66.6282 383.119 66.1254 384.607 65.6226C385.599 65.6226 386.591 65.6226 387.087 65.6226C401.968 62.6057 417.345 59.5889 433.218 57.5777H438.675L441.651 57.0749H443.139C443.635 57.0749 444.131 57.0749 445.123 57.0749H446.115C446.115 57.0749 446.611 58.0805 447.107 58.5833C447.107 58.5833 447.107 58.5833 447.107 59.0861V59.5889V60.5945C448.595 62.1029 449.091 63.6114 450.083 65.6226C451.075 67.131 451.571 68.6394 452.563 70.6507C453.555 73.1647 455.044 75.6787 456.036 78.1928C456.036 78.6956 456.532 79.1984 457.028 80.204C457.028 80.7068 457.524 81.7124 458.02 82.2152C458.516 83.2208 459.012 84.7292 459.508 85.7349C459.508 86.2377 459.508 86.7405 460.5 87.7461C460.5 88.2489 460.996 88.7517 461.492 89.7573C461.492 90.7629 462.484 92.2714 462.98 93.277C462.98 94.2826 463.972 95.791 464.468 96.7966C464.468 97.8022 465.46 99.3106 465.46 100.316C466.452 103.333 467.94 106.35 468.932 109.367C469.925 112.384 470.917 115.4 471.909 118.417C473.397 124.451 475.381 129.982 476.869 136.518C476.869 137.524 477.365 138.53 477.861 140.038C477.861 140.541 477.861 141.044 477.861 141.546C477.861 142.049 477.861 142.552 477.861 143.055C477.861 145.569 478.853 147.58 479.349 150.094C479.349 151.1 479.349 152.105 479.845 153.614C479.845 154.619 479.845 155.625 480.341 156.631C480.341 157.636 480.341 158.642 480.837 159.647C480.837 160.653 480.837 161.659 481.333 162.664C481.333 164.173 481.829 165.681 482.325 167.19C482.325 168.195 482.325 169.704 482.325 170.709C482.325 171.715 482.325 173.223 482.325 174.229C482.325 177.246 483.318 180.263 483.318 183.782C483.318 186.799 483.814 190.319 484.31 193.336C484.31 193.336 484.31 194.341 484.31 194.844C484.31 194.844 484.31 195.85 484.31 196.352C484.31 197.358 484.31 197.861 484.31 198.866C484.31 200.375 484.31 202.386 484.31 203.895C484.31 205.403 484.31 207.414 484.31 208.923C484.31 210.431 484.31 212.442 484.31 213.951C484.31 214.956 484.31 215.962 484.31 216.967V219.984C484.31 221.996 484.31 224.007 484.31 225.515V226.521M486.79 558.876C486.79 558.876 486.79 558.876 486.79 557.871C486.79 555.357 486.79 553.848 486.79 552.34C486.79 550.831 486.79 549.323 486.294 546.809C486.294 547.312 486.294 547.814 486.294 547.814C486.294 546.306 486.294 545.803 486.294 544.798C486.294 548.317 486.294 548.317 485.302 546.809C485.302 545.803 485.302 544.295 485.302 543.289C485.302 542.284 485.302 540.775 485.302 539.769C485.302 537.255 484.806 534.741 484.31 532.227C484.31 529.713 483.318 527.199 483.318 525.188C483.318 524.685 483.318 524.182 483.318 523.68C483.318 523.177 483.318 522.674 483.318 522.171C483.318 521.166 483.318 520.16 483.318 519.154C483.318 518.149 482.821 517.646 482.325 516.64C482.325 515.635 482.325 514.629 481.829 513.624C481.829 512.618 481.829 511.612 481.333 510.104C481.333 508.093 480.341 505.579 479.845 503.567C479.349 501.556 478.853 499.042 478.357 496.528C478.357 495.522 477.861 494.517 477.365 493.008C477.365 492.003 476.869 490.997 476.373 489.489C478.357 500.048 481.333 510.607 483.318 522.171C483.318 522.171 483.318 522.171 483.318 523.68C483.814 526.194 484.31 529.211 484.806 531.725C484.806 531.725 484.806 532.227 484.806 532.73C484.806 532.73 484.806 533.233 484.806 533.736C484.806 534.239 484.806 535.244 484.806 535.747C484.806 536.753 484.806 538.261 484.806 539.267C484.806 540.272 484.806 541.278 484.806 541.781C484.806 541.781 484.806 542.786 484.806 543.289C484.806 543.289 484.806 544.295 484.806 544.798C484.806 547.814 485.302 550.831 485.798 553.848C485.798 556.865 485.798 559.379 485.798 562.396V564.407C485.798 564.91 485.798 565.915 485.798 566.418C485.798 567.927 485.798 568.932 485.798 570.441C485.798 571.949 485.798 573.458 485.798 574.463C485.798 575.972 485.798 577.48 485.798 578.988C485.798 578.988 485.798 579.994 485.302 580.497C485.302 579.491 484.806 578.988 484.31 577.983C484.31 576.977 484.31 575.972 484.31 574.966C484.31 573.96 484.31 572.955 484.31 571.949C484.31 570.441 484.31 569.435 484.31 567.927C484.31 567.424 484.31 566.418 484.31 565.915C484.31 565.413 484.31 564.407 484.31 563.904C484.31 560.887 484.31 557.871 483.813 554.351C483.813 551.334 483.317 547.814 482.821 544.295C482.821 541.278 481.829 537.758 481.333 534.741C480.837 533.233 480.341 534.741 480.341 535.747C480.341 538.764 480.837 541.781 481.333 544.798C481.333 547.814 481.829 550.831 481.829 553.848C480.837 556.362 479.845 553.848 479.349 548.82C479.349 547.814 479.349 546.809 479.349 545.3C479.349 545.3 479.349 544.798 479.349 544.295C479.349 544.295 479.349 543.792 479.349 543.289C479.349 542.786 479.349 542.284 479.349 541.278C479.349 539.769 479.349 538.764 478.853 537.255C478.853 536.753 478.853 535.747 478.853 535.244C478.853 534.741 478.853 533.736 478.853 533.233C478.853 530.719 477.861 528.205 477.861 526.194C477.861 524.182 477.365 522.171 476.869 520.663C475.877 514.629 474.389 509.098 472.901 503.065L470.421 494.517C469.429 491.5 468.932 488.986 467.94 485.969C464.468 474.405 460.5 463.343 455.54 451.778C456.036 453.287 456.532 454.795 457.524 456.304C457.524 457.309 458.02 457.812 458.516 458.818C458.516 459.823 459.012 460.326 459.508 461.332C460.004 462.84 460.5 464.348 461.492 465.857C461.492 466.36 461.988 467.365 462.484 467.868C462.484 468.874 462.98 469.377 463.476 470.382C463.972 471.891 464.468 473.399 464.964 474.907C464.964 474.907 464.964 475.41 464.964 475.913C464.964 475.913 464.964 476.416 464.964 476.919C464.964 477.421 465.46 478.427 465.46 478.93C465.46 480.438 466.452 481.947 466.948 483.455C466.948 483.958 466.948 484.964 467.444 485.466C467.444 486.472 467.444 486.975 467.94 487.478C467.94 487.478 467.94 487.478 468.437 488.483C469.429 491.5 469.925 494.517 470.917 497.534C470.917 499.042 471.413 500.551 471.909 502.059C471.909 502.562 471.909 503.567 472.405 504.07C472.405 505.076 472.405 505.579 472.901 506.584C472.901 508.093 473.397 509.601 473.893 511.109C473.893 512.618 474.389 514.126 474.885 515.635C475.381 518.652 475.877 521.166 476.869 523.68C476.869 525.691 477.365 529.211 477.861 532.227V533.233V534.239C477.861 535.244 477.861 535.747 477.861 536.753C477.861 538.261 477.861 539.77 477.861 540.775C477.365 540.775 476.869 539.267 476.373 537.758C476.373 536.753 476.373 536.25 475.877 535.244C475.877 534.239 475.877 533.233 475.381 532.227C475.381 532.73 475.381 533.233 475.381 533.736C475.381 534.239 475.381 534.741 475.381 535.244C475.381 536.25 475.381 537.255 475.381 538.764C475.381 539.769 475.381 540.775 475.381 541.781C475.381 542.786 475.381 543.792 475.381 544.798C475.381 546.306 475.381 548.82 475.877 550.831C475.877 551.837 475.877 552.842 475.877 553.345C475.877 553.848 475.877 554.854 475.877 555.357C475.877 555.357 475.877 557.871 475.877 558.373C475.877 559.882 475.877 559.882 475.877 561.893C475.877 563.401 475.877 563.904 475.877 564.407C475.877 564.91 475.877 565.413 475.877 566.418C475.877 568.932 475.877 570.944 475.877 573.458C475.877 575.972 475.877 577.983 475.877 580.497V584.016C475.877 585.022 475.877 586.531 475.877 587.536C475.877 590.05 475.877 592.061 475.877 594.575C475.877 594.575 475.877 595.078 475.877 595.581C475.877 596.084 475.877 596.084 475.877 596.587C475.877 597.089 475.877 597.592 475.877 597.592C475.877 598.598 475.877 597.592 475.877 598.598C475.877 599.101 475.877 598.598 475.877 600.106C475.877 602.118 475.877 603.626 475.877 605.637C475.877 607.648 475.877 609.66 475.877 611.168C475.877 612.174 475.877 613.179 475.877 614.688C475.877 615.191 475.877 615.693 475.877 616.196C475.877 616.699 475.877 617.202 475.877 618.207C475.877 620.721 475.381 622.733 474.885 625.247C474.885 625.749 474.885 626.252 474.885 626.755C474.885 627.258 474.885 627.761 474.885 628.264C474.885 629.269 474.885 630.275 474.885 631.783C474.885 633.794 474.389 635.806 473.893 637.817C473.893 639.325 473.893 637.314 473.397 639.325C473.397 640.834 472.901 642.342 472.405 643.851C472.405 644.856 472.405 645.359 472.405 646.365V647.37V648.376C471.909 651.393 470.917 654.912 470.421 657.929C469.429 660.946 468.932 664.466 467.94 667.482V668.488V669.494C467.444 670.499 466.948 671.002 466.948 672.008C466.948 673.516 465.956 675.025 465.46 677.036C465.46 678.041 465.46 677.036 464.468 678.544C463.972 680.053 464.468 680.053 463.972 681.561C463.972 682.567 462.98 683.572 462.98 684.075C458.02 698.656 453.059 713.741 446.611 728.322C446.611 728.322 446.611 729.328 446.115 729.831V730.836C445.619 730.836 444.131 733.35 444.131 733.35C443.139 734.859 442.643 736.87 441.651 738.378V738.881V739.887L440.659 740.892V741.395C440.163 741.395 439.667 741.395 439.171 741.395C439.171 741.395 439.171 741.395 438.675 741.395H438.179C436.194 741.395 434.706 741.395 432.722 741.395C431.73 741.395 430.738 741.395 430.242 741.395C430.242 741.395 429.25 741.395 428.754 741.395C428.754 741.395 427.762 741.395 427.266 741.395C424.29 741.395 421.809 741.395 419.329 740.892C419.329 740.892 418.833 740.892 418.337 740.892C418.337 740.892 417.841 740.892 417.345 740.892C416.849 740.892 415.857 740.892 415.361 740.892C413.873 740.892 412.881 740.892 411.393 740.892C410.897 740.892 409.905 740.892 409.409 740.892C408.913 740.892 407.921 740.892 407.425 740.892C405.936 740.892 404.944 740.892 403.456 740.389C401.968 740.389 400.976 740.389 399.488 739.887C398.992 739.887 398.496 739.887 397.504 739.887C397.008 739.887 396.512 739.887 395.52 739.887C382.623 737.875 371.214 734.859 359.309 731.339C358.813 731.339 358.317 731.339 357.821 731.339C357.325 731.339 356.829 731.339 356.333 730.836C355.341 730.836 354.349 730.333 352.861 729.831C351.869 729.831 350.877 729.328 349.389 728.825C348.893 728.825 348.397 728.825 347.901 728.322C347.405 728.322 346.909 728.322 346.413 727.819C344.428 726.814 341.948 726.311 339.964 725.305C339.468 725.305 338.972 725.305 338.476 724.802C338.476 724.802 337.484 724.802 336.988 724.3C335.996 724.3 335.004 723.797 334.012 723.294C333.02 723.294 331.532 722.288 330.043 721.786C329.547 721.786 329.051 721.786 328.555 721.283L327.067 720.277C326.075 720.277 325.083 719.272 324.091 718.769C322.603 718.266 321.115 717.763 319.627 716.758L315.162 714.746C313.674 714.243 312.186 713.238 310.698 712.735C310.202 712.735 309.21 712.232 308.714 711.729C308.218 711.729 307.226 711.227 306.73 710.724C305.242 709.718 303.754 709.215 302.266 708.21C302.266 708.21 301.274 708.21 301.274 707.707H300.282C299.289 706.701 298.793 706.199 297.801 705.696C296.313 704.69 294.825 704.187 293.337 703.182H292.345C292.345 702.176 291.353 702.176 291.353 701.673C290.361 701.673 289.865 700.668 289.369 700.165C287.881 699.159 285.897 698.154 284.409 697.148C283.416 697.148 282.92 696.142 281.928 695.64C280.936 695.64 280.44 694.634 279.448 694.131C278.456 693.628 277.464 692.623 275.976 692.12C275.48 692.12 274.984 691.617 274.488 691.114C273.992 691.114 273.496 690.612 273 690.109C271.512 689.103 270.024 688.098 268.535 687.092C267.543 687.092 267.047 686.086 266.055 685.583C265.063 685.081 264.567 684.578 263.575 684.075C260.599 682.064 257.623 680.053 254.647 678.041C252.662 676.533 250.678 675.025 249.19 673.516C247.206 672.008 245.718 670.499 243.734 668.991L242.246 667.985C242.246 667.985 241.254 667.482 240.758 666.98L238.277 664.466C237.285 663.46 236.293 662.957 235.301 661.952C234.309 660.946 233.317 660.443 232.325 659.438C230.341 657.426 228.357 655.918 226.373 653.907C226.373 653.907 225.877 653.907 225.381 653.404C225.381 653.404 225.381 653.404 224.389 652.901C223.893 652.901 223.397 651.895 222.901 651.393C221.908 650.387 220.916 649.381 219.924 648.376C217.94 646.365 215.956 644.353 213.972 642.342C212.98 641.336 211.988 640.331 210.996 639.325C210.004 638.32 209.012 637.314 208.516 636.308C207.027 634.8 206.035 633.292 204.547 631.783C204.051 630.778 203.059 630.275 202.563 629.269C202.067 628.263 201.075 627.761 200.579 626.755C200.083 625.749 199.091 625.247 198.595 624.241L197.603 623.235C197.603 623.235 197.107 622.23 196.611 621.727C195.123 620.219 193.635 618.207 192.147 616.699C191.65 615.693 191.154 615.191 190.658 614.688C189.666 613.179 188.674 611.671 187.682 610.665C187.186 610.162 186.69 609.157 186.194 608.654C185.698 608.151 185.202 607.146 184.706 606.643C183.714 605.134 182.722 603.626 181.73 602.118C181.73 602.118 181.234 601.615 180.738 601.112C180.738 601.112 180.738 600.609 179.746 600.106C179.746 600.106 179.746 600.106 179.746 599.604C180.738 599.604 181.234 599.604 182.226 599.604C183.218 599.604 184.21 599.604 185.202 599.604C187.186 599.604 189.17 599.604 191.154 599.101C193.139 599.101 195.619 598.598 197.603 598.095C199.587 598.095 201.571 597.592 204.051 597.089C205.539 597.089 206.531 597.089 208.02 596.587C209.012 596.587 210.004 596.587 210.996 596.084C211.492 596.084 211.988 596.084 212.484 596.084C212.98 596.084 213.476 596.084 213.972 596.084C215.956 596.084 218.436 595.078 220.42 594.575C227.365 593.067 234.805 591.559 242.246 589.547C243.238 589.547 243.734 589.547 244.726 589.045C245.718 589.045 246.214 589.045 247.206 588.542C249.19 588.039 250.678 587.536 252.662 587.033C252.662 587.033 253.655 587.033 254.151 587.033C254.151 587.033 255.143 587.033 255.639 587.033C256.631 587.033 257.623 586.531 258.615 586.028C260.599 585.525 262.087 585.022 264.071 584.016C275.48 580.497 286.889 575.469 297.801 570.441C299.785 569.435 301.274 568.932 303.258 567.927C304.25 567.927 305.242 566.921 305.738 566.921C306.73 566.921 307.722 565.915 308.714 565.413C310.698 564.407 312.682 563.401 315.162 562.396C315.659 562.396 316.155 561.893 316.651 561.39C317.147 561.39 317.643 560.887 318.139 560.385C319.131 559.882 320.619 559.379 321.611 558.373C322.603 557.871 324.091 557.368 325.083 556.362C326.075 555.859 327.563 554.854 328.555 554.351C329.547 553.848 331.036 552.842 332.028 552.34C333.02 551.837 334.508 550.831 335.5 550.328C336.988 549.323 338.972 548.317 340.956 547.312C341.948 546.809 342.94 546.306 343.436 545.803C344.428 545.3 345.42 544.798 345.917 544.295C347.405 543.289 349.389 542.284 350.877 541.278C351.869 541.278 352.365 540.272 353.357 539.769C353.853 539.769 354.845 538.764 355.341 538.261C356.333 537.758 358.317 536.25 360.301 535.244C362.286 534.239 364.27 532.227 367.246 530.216C369.726 528.205 369.726 528.708 370.718 527.702C370.718 527.702 371.214 527.702 371.71 527.199C371.71 527.199 372.206 527.199 372.702 526.697C373.198 526.697 373.694 525.691 374.19 525.188C375.182 524.182 376.174 523.177 377.663 522.674C380.143 520.663 382.127 519.154 385.599 516.138C387.087 514.629 389.071 513.624 390.559 512.115C392.544 510.607 394.032 509.098 396.016 507.59L397.504 506.584C397.504 506.584 398.496 505.579 398.992 505.579C399.984 504.573 400.976 504.07 401.472 503.065C402.464 502.059 402.96 501.556 403.952 500.551C404.944 500.048 405.44 499.042 406.432 498.539C407.921 497.031 409.409 495.522 411.393 494.014C411.889 493.511 412.385 493.008 412.881 492.506L413.873 491.5C414.369 490.997 415.361 489.992 415.857 489.489C416.849 488.483 418.337 486.975 419.329 485.969C419.825 485.466 420.321 484.964 420.817 484.461C420.817 484.461 421.809 483.455 422.305 482.952C423.794 480.941 425.282 479.433 426.274 478.427C427.266 477.421 427.762 476.416 428.754 475.913C429.746 474.907 430.242 473.902 431.234 472.896C432.722 470.885 434.706 468.874 435.698 467.365C435.698 467.365 437.186 465.857 437.186 465.354C438.675 463.343 440.163 461.332 441.651 459.823C442.147 458.818 443.139 458.315 443.635 457.309C444.131 456.304 445.123 455.801 445.619 454.795C446.115 453.79 447.107 452.784 447.603 452.281C448.099 451.276 449.091 450.27 449.587 449.264C451.075 447.253 452.563 445.242 454.548 442.728C454.548 442.728 455.044 441.722 455.54 441.219C455.54 441.219 456.036 440.214 457.028 439.208C457.524 438.202 458.516 436.694 459.012 436.191C460.004 434.683 460.996 433.677 461.492 432.169C462.484 434.683 463.972 437.197 464.964 439.711C464.964 440.214 465.46 441.219 465.956 442.225C466.452 443.733 467.444 445.745 467.94 446.75C468.437 447.756 468.932 448.761 469.925 450.27C470.421 451.275 470.917 452.784 471.413 453.79C472.405 456.304 473.397 458.315 473.893 459.823C486.294 493.511 493.734 529.211 495.718 565.413M176.273 571.949C176.273 571.949 175.777 571.949 175.281 571.949C172.801 571.949 169.825 571.949 166.849 572.452C166.353 572.452 165.857 572.452 165.361 572.452C164.865 572.452 163.873 572.452 162.881 572.452C161.889 572.452 159.904 572.452 158.912 572.452C156.432 572.452 158.912 572.452 153.952 572.452C152.464 569.938 151.472 567.424 149.984 564.91C149.984 563.904 148.992 562.899 148.496 561.893C148 560.385 147.008 558.373 146.512 557.368C146.016 556.362 145.023 555.357 144.527 553.848C144.527 553.345 144.031 552.842 143.535 551.837C143.535 551.334 143.039 550.328 142.543 549.826C141.551 547.312 140.559 544.798 139.567 543.289C125.182 509.098 116.75 472.393 113.277 435.688C113.277 435.688 113.277 435.688 113.277 436.694C113.277 439.208 113.277 440.717 113.773 442.225C113.773 443.733 113.773 445.242 114.269 447.756C114.269 447.253 114.269 446.75 114.269 446.75C114.269 448.259 114.269 448.761 114.269 449.767C113.773 445.745 114.269 446.247 115.262 447.253C115.262 449.767 115.758 452.281 116.254 454.795C116.254 454.795 116.254 455.298 116.254 455.801V456.806C116.254 457.309 116.254 458.315 116.254 458.818C116.254 460.326 116.254 461.332 116.75 462.84C116.75 464.348 116.75 465.354 117.246 466.36C117.246 466.862 117.246 467.365 117.246 468.371C117.246 468.874 117.246 469.377 117.246 470.382C117.246 472.896 118.238 474.907 118.238 476.919C118.238 477.924 118.734 478.427 119.23 479.433C119.726 481.444 120.222 483.958 120.718 485.969C120.718 486.975 120.718 488.483 121.71 489.489C121.71 490.494 122.206 492.003 122.702 493.008C123.198 495.522 123.694 497.534 124.686 500.048C125.182 502.562 126.174 504.573 126.67 507.087C126.67 505.579 126.174 504.573 125.678 503.065C125.678 502.562 125.678 501.556 125.182 501.053C125.182 500.551 125.182 499.545 124.686 499.042C124.19 496.528 123.198 493.511 122.702 490.997C122.702 490.494 122.702 489.489 122.206 488.986C122.206 488.483 122.206 487.478 121.71 486.975C121.71 485.466 121.214 483.958 120.718 482.45C120.718 480.941 120.222 479.433 119.726 477.924C119.726 476.416 119.23 474.907 118.734 473.399C118.734 473.399 118.734 473.399 118.734 471.891C118.734 470.382 118.238 469.377 117.742 467.868C117.742 466.36 117.246 465.354 116.75 463.846C116.75 461.332 115.758 458.315 115.262 456.304C115.262 454.292 115.262 452.784 115.758 450.773C115.758 449.264 115.758 447.756 115.262 446.247C115.262 445.242 115.262 444.739 115.262 443.733C115.262 442.728 115.262 442.225 115.262 441.722C115.262 440.214 115.262 438.705 115.262 437.197C115.262 435.688 115.262 434.18 115.262 433.174C115.262 430.158 115.262 427.644 115.262 424.627C115.262 423.118 115.262 421.61 115.262 420.101C115.262 418.593 115.262 417.085 115.262 415.576C115.262 415.576 115.262 414.571 115.262 414.068C115.262 415.073 115.758 415.576 116.254 417.085C116.254 419.096 116.254 421.107 116.254 423.118C116.254 425.632 116.75 428.649 117.246 431.666C117.246 432.672 117.246 433.174 117.246 434.18C117.246 435.186 117.246 435.688 117.246 436.694C117.246 438.202 117.246 439.711 117.742 441.722V444.236C117.742 444.236 117.742 445.242 117.742 445.745V446.75C117.742 448.259 117.742 450.27 118.238 451.778C118.238 452.784 118.238 453.287 118.238 454.292C118.238 454.292 118.238 455.298 118.238 455.801V456.806C118.238 458.315 118.734 460.326 119.23 461.834C119.726 463.343 120.222 461.834 120.222 460.829C120.222 459.32 120.222 457.812 119.726 456.304C119.726 454.795 119.726 453.287 119.23 451.778C119.23 450.27 119.23 448.761 118.734 447.253C118.734 446.247 118.734 445.745 118.734 444.739C118.734 443.733 118.734 443.231 118.734 442.225C118.734 441.219 119.726 441.219 120.222 442.225C120.222 443.231 121.214 445.242 121.214 447.756C121.214 449.767 121.71 452.281 122.206 454.795C122.206 456.304 122.206 457.309 122.702 458.818C122.702 460.326 122.702 461.332 123.198 462.84C123.198 464.348 123.198 465.354 123.694 466.862C123.694 467.868 123.694 469.377 124.19 470.382C124.19 472.393 125.182 474.405 125.182 475.913C128.158 487.98 131.631 499.545 135.599 511.612C136.095 513.121 136.591 514.629 137.087 516.138L138.079 518.149C138.079 518.652 138.079 519.657 139.071 520.16C140.063 523.177 141.055 526.194 142.543 528.708C143.535 531.725 145.023 534.239 146.016 537.255C146.512 538.764 147.504 540.272 148 541.781C148.496 543.289 149.488 544.798 149.984 546.306C149.488 544.798 148.496 543.289 148 541.278C148 540.272 147.504 539.769 147.008 538.764C147.008 537.758 146.512 537.255 146.016 536.25C145.519 534.741 144.527 533.233 144.031 531.725C143.535 530.216 142.543 528.708 142.047 527.199C141.551 525.691 141.055 524.182 140.063 522.674C140.063 522.171 139.567 521.166 139.071 520.663V519.657V518.652C138.079 515.635 137.087 512.618 136.095 509.601C136.095 509.601 136.095 509.601 135.599 508.595C134.607 505.579 133.615 502.562 133.119 499.545C132.127 496.528 131.631 493.511 130.639 490.494C130.639 489.992 130.639 488.986 130.142 487.98C130.142 486.975 130.142 486.472 129.646 485.466C129.646 483.958 128.654 482.45 128.654 480.941C128.654 480.438 128.654 479.433 128.158 478.93C128.158 478.93 128.158 478.427 128.158 477.924C128.158 477.421 128.158 477.421 128.158 476.919C128.158 475.41 127.662 474.405 127.166 472.896C127.166 470.382 126.174 467.365 125.678 463.846C125.678 462.337 125.182 460.326 124.686 458.818C124.686 457.812 124.686 457.309 124.686 456.806C124.686 456.304 124.686 455.298 124.686 454.795C125.678 455.801 127.166 459.32 128.158 463.846C128.158 461.332 127.166 459.32 127.166 456.806C127.166 455.801 127.166 454.795 127.166 453.79C127.166 452.784 127.166 451.778 127.166 450.773C127.166 449.767 127.166 448.761 127.166 447.756C127.166 447.756 127.166 446.75 127.166 446.247C127.166 446.247 127.166 445.242 127.166 444.739C127.166 442.728 126.67 440.717 126.67 440.214C126.67 440.214 126.67 437.7 126.67 437.197C126.67 436.191 126.67 435.688 126.67 435.688C126.67 435.688 126.67 434.683 126.67 433.677C126.67 431.163 126.67 431.163 126.67 429.152C126.67 424.627 126.174 419.599 125.678 415.073C125.678 414.571 125.678 414.068 125.678 413.565V412.057C125.678 411.051 125.678 409.543 125.678 408.537C125.678 407.531 125.678 406.023 125.678 405.017V403.006C125.678 402.503 125.678 402 125.678 400.995C125.678 399.989 125.678 397.978 125.678 397.978C125.678 396.972 125.678 397.978 125.678 396.47C125.678 395.967 125.678 396.47 125.678 394.961C125.678 393.956 125.678 392.95 125.678 391.944C125.678 390.939 125.678 389.933 125.678 388.927C125.678 386.916 125.678 384.905 125.678 382.894C125.678 380.38 125.678 378.368 125.678 375.854C125.678 374.849 125.678 373.34 125.678 372.335C125.678 371.832 125.678 371.329 125.678 370.324C125.678 369.821 125.678 369.318 125.678 368.312C126.174 363.284 126.67 358.759 127.166 355.239C127.166 353.731 127.166 355.742 127.662 353.731C129.646 340.658 132.623 327.585 136.095 314.009C136.095 313.004 136.095 314.009 137.087 312.501C137.583 310.49 137.087 310.992 137.583 309.484C137.583 308.478 138.575 307.473 138.575 306.97C143.039 291.886 148.496 276.299 154.944 261.214L155.936 258.7C155.936 257.695 156.928 257.192 156.928 256.186C157.92 254.678 158.416 252.667 159.408 251.158C159.408 250.153 160.4 249.65 160.896 248.644C160.896 248.141 160.896 247.639 160.896 247.639V247.136C160.896 246.633 161.393 246.13 161.889 245.125C161.889 245.125 161.889 244.622 161.889 244.119C162.385 244.119 162.881 244.119 163.377 244.119C163.377 244.119 163.873 244.119 164.369 244.119C165.361 244.119 166.353 244.119 167.345 244.119C169.329 244.119 170.817 244.119 172.801 244.119C173.297 244.119 174.289 244.119 174.785 244.119C175.281 244.119 176.273 244.119 176.77 244.119C178.258 244.119 179.746 244.119 180.738 244.119C182.226 244.119 183.714 244.119 184.706 244.119C186.194 244.119 187.186 244.119 188.674 244.119C190.162 244.119 191.154 244.119 192.643 244.119C193.139 244.119 194.131 244.119 194.627 244.119C194.627 244.119 195.123 244.119 195.619 244.119C195.619 244.119 196.115 244.119 196.611 244.119C199.091 244.119 201.571 245.125 204.051 245.627C210.996 246.633 216.948 248.141 223.397 249.65C224.389 249.65 224.885 249.65 225.877 250.153C226.869 250.656 227.365 250.153 228.357 250.656C229.845 250.656 231.333 251.661 232.821 251.661C234.309 251.661 235.797 252.667 237.285 252.667C238.774 252.667 240.262 253.672 241.75 254.175C250.678 256.689 260.103 260.209 267.543 263.226C269.031 263.226 270.52 264.231 272.008 264.734C273 264.734 273.992 265.74 275.48 266.243C275.976 266.243 276.472 266.243 276.968 266.745H277.96L278.952 267.248C281.928 268.757 284.905 269.762 287.881 271.271C290.857 272.779 293.833 273.785 296.809 275.293C297.801 275.293 298.297 276.299 299.289 276.299C300.282 276.299 300.778 277.304 301.77 277.304C303.258 278.31 304.746 278.813 306.234 279.818C306.234 279.818 307.226 279.818 307.226 280.321H308.218C308.218 280.824 310.698 282.332 310.698 282.332C312.186 283.338 313.674 283.841 315.162 284.846C315.162 284.846 316.155 284.846 316.651 285.349C316.651 285.349 317.643 285.349 318.139 285.852C319.131 285.852 319.627 286.858 320.619 287.36C322.107 288.366 324.091 289.372 325.579 290.377C327.563 291.886 330.043 293.394 332.524 294.903C333.516 294.903 334.012 295.908 335.004 296.411L337.484 297.919C338.972 298.925 340.46 299.931 342.444 300.936C342.444 300.936 343.436 301.439 343.436 301.942H343.932L344.428 302.947C345.42 303.45 345.917 303.953 346.909 304.456C348.397 305.461 349.885 306.467 351.373 307.975C358.813 314.009 366.75 320.043 374.19 326.579C382.127 334.121 391.552 343.172 398.496 350.714C398.992 351.72 399.984 352.223 400.48 353.228C400.976 354.234 401.968 354.737 402.464 355.742C403.952 357.251 405.44 359.262 406.928 360.77C406.928 360.77 407.424 361.776 407.921 362.279C407.921 362.279 408.417 363.284 408.913 363.787C409.409 364.793 410.401 365.296 410.897 366.301C412.385 368.312 413.873 369.821 415.361 371.832C415.857 372.838 416.353 373.34 416.849 373.843C417.841 375.352 418.833 376.86 420.321 378.368C421.313 379.877 422.305 381.385 423.794 382.894C424.786 384.402 425.778 385.911 427.266 387.419C428.258 388.927 429.25 390.436 430.242 391.944C431.234 393.453 432.226 394.961 433.218 396.47C434.21 397.978 435.202 399.486 436.194 400.995C436.194 400.995 436.194 401.498 436.69 402C436.69 402 436.69 402 436.69 402.503C436.69 402.503 436.194 403.509 435.698 404.012C435.202 405.017 434.706 405.52 434.21 406.526C434.21 406.526 433.714 407.531 433.218 407.531L432.226 408.537C431.73 409.543 431.234 410.045 430.738 411.051C429.746 413.062 428.258 414.571 427.266 416.582C426.274 418.09 424.786 420.101 423.794 421.61C422.802 422.615 422.305 423.621 421.313 425.13C419.825 426.638 418.833 428.649 417.345 430.158C416.849 431.163 415.857 432.169 415.361 432.672C415.361 432.672 414.865 433.677 414.369 434.18C414.369 434.18 413.873 435.186 413.377 435.688C412.385 437.197 410.897 438.705 409.905 439.711C408.913 441.219 407.424 442.728 406.432 444.236C404.944 445.745 403.952 447.253 402.464 448.761C401.968 449.767 400.976 450.27 400.48 451.275C399.984 451.778 398.992 452.784 398.496 453.287C394.032 457.812 387.583 464.348 382.623 469.377C381.631 470.382 380.639 471.388 379.151 472.393L377.663 473.902C377.167 474.405 376.671 474.907 376.174 475.41C373.694 477.421 371.71 479.433 369.23 481.444C366.75 483.455 364.766 485.466 362.286 487.478C361.294 488.483 359.805 489.489 358.813 490.494L355.341 493.511C354.349 494.014 353.853 495.02 352.861 495.522C351.869 496.025 351.373 496.528 350.381 497.534C348.893 498.539 346.909 500.048 345.42 501.053C345.42 501.053 344.428 501.556 343.932 502.059C343.932 502.059 342.94 502.562 342.444 503.065C341.452 503.567 340.46 504.573 339.468 505.076C337.484 506.584 335.004 508.093 333.02 509.601C330.54 511.109 328.555 512.618 326.075 514.126C323.595 515.635 321.115 517.143 319.131 518.652C318.139 518.652 317.643 519.657 316.651 520.16C315.659 520.16 314.667 521.166 313.674 521.668C311.69 522.674 309.706 523.68 308.218 524.685C307.226 525.188 306.234 525.691 305.738 526.194C304.746 526.194 303.754 527.199 303.258 527.702C301.77 528.708 300.282 529.211 298.793 530.216C298.297 530.216 297.305 530.719 296.313 531.222C295.321 531.222 294.329 532.227 293.337 532.73C292.345 533.233 290.857 533.736 289.865 534.741C289.369 534.741 288.377 535.244 287.881 535.747C287.385 535.747 286.393 536.25 285.897 536.753C282.92 538.261 283.416 537.758 281.928 538.261C280.44 538.764 279.448 539.267 277.96 540.272C276.472 540.775 275.48 541.278 273.992 541.781C272.504 542.284 271.016 542.786 269.528 543.792C269.528 543.792 269.032 543.792 268.535 543.792C268.535 543.792 267.543 543.792 267.047 543.792C266.055 543.792 265.063 544.295 264.071 544.798C262.087 545.803 260.103 546.306 258.119 547.312C255.639 548.317 253.655 548.82 251.174 549.826C250.182 549.826 248.694 550.831 247.702 550.831C246.71 550.831 245.222 551.334 244.23 551.837C242.246 552.34 240.262 553.345 237.781 553.848C235.797 554.351 233.317 554.854 231.333 555.859C227.861 556.865 226.869 557.368 224.885 557.871C221.412 558.876 218.436 559.379 215.956 559.882C213.476 560.385 211.492 560.887 210.004 561.39C209.012 561.39 207.524 561.39 206.531 562.396C206.035 562.396 205.043 562.396 204.547 562.396C204.051 562.396 203.059 562.396 202.563 562.396C200.083 562.396 197.603 563.401 195.619 563.904C195.123 563.904 193.635 563.904 193.139 563.904C190.658 563.904 188.178 564.91 185.698 564.91C185.202 564.91 184.706 564.91 184.21 564.91C183.714 564.91 183.218 564.91 182.722 564.91C181.73 564.91 180.738 564.91 179.25 564.91C178.258 564.91 176.77 564.91 175.777 564.91C175.281 564.91 174.785 564.91 173.793 564.91C173.793 564.91 173.297 564.91 172.801 564.91M114.765 564.91C113.773 564.91 112.781 564.91 111.789 564.91C109.805 564.91 108.317 564.91 106.829 564.407C104.349 564.407 101.869 564.407 98.8924 563.904C96.4123 563.904 93.9321 562.899 91.948 562.899H91.4519C56.2336 556.865 21.5114 545.3 -10.2347 529.211C-10.2347 529.211 -9.73863 529.211 -9.2426 529.211C-7.25847 530.216 -5.77037 530.719 -4.28227 531.725C-3.78624 531.725 -2.79417 532.227 -2.29814 532.73C-2.29814 532.73 -1.30608 532.73 -0.810043 533.233C-0.810043 533.233 0.182007 533.233 0.67804 533.736C0.67804 533.736 -0.314011 533.736 0.182022 533.233C1.67012 533.736 2.16614 534.239 3.1582 534.239C-0.314026 532.73 0.182022 532.227 1.6701 532.227C5.63837 534.239 10.5987 536.25 15.063 538.261C16.0551 538.261 17.5432 539.267 18.5352 539.769C19.0312 539.769 19.5273 539.77 20.0233 540.272C20.5193 540.272 21.0154 540.272 21.5114 540.775C23.4955 541.781 25.4797 542.284 27.4638 543.289C28.4559 543.289 28.9519 543.289 30.44 543.289C32.4241 543.792 34.4082 544.798 36.8884 545.3C37.8805 545.3 38.8725 545.803 39.8646 546.306C40.8567 546.306 41.8487 546.809 43.3368 547.312C45.321 547.814 47.8011 548.82 49.7852 549.323C50.2813 549.323 50.7773 549.323 51.2733 549.323C51.7694 549.323 52.2654 549.323 52.7614 549.323C53.7535 549.323 55.2416 549.826 56.2337 550.328C54.7456 550.328 53.7535 549.323 52.2654 549.323C51.7694 549.323 50.7773 549.323 50.2813 548.82C49.7852 548.82 48.7932 548.82 48.2971 548.317C45.817 547.312 43.3368 546.809 40.3606 545.803C34.9043 544.295 29.4479 542.284 23.9916 540.272C23.9916 540.272 23.9916 540.272 22.9995 539.267C22.5035 539.267 22.0074 539.267 21.0154 538.764C20.5193 538.764 19.5273 538.764 19.0312 538.261C17.5432 538.261 16.5511 537.255 15.063 536.753C14.0709 536.753 12.5828 535.747 11.5908 535.244C11.0947 535.244 10.5987 535.244 10.1027 534.741C9.60663 534.741 9.11061 534.741 8.61458 534.239C7.12648 533.233 5.63837 532.227 4.15027 530.719C3.65424 530.719 2.66217 530.216 2.16614 529.713C1.6701 529.713 0.678055 529.211 0.182022 528.708C-1.30608 528.205 -2.29814 527.199 -3.78624 526.697C-5.27434 526.194 -6.2664 525.188 -7.25847 524.685C-7.25847 524.685 -7.7545 524.685 -8.25053 524.182C-8.74657 523.68 -8.74657 524.182 -9.2426 523.68C-9.73863 523.68 -10.2346 523.177 -11.2267 522.674C-13.7069 521.166 -15.691 519.657 -18.1712 518.652C-20.6513 517.143 -23.1315 515.635 -25.6117 514.126C-25.6117 514.126 -26.1077 513.121 -26.6037 513.121C-25.6117 513.121 -25.1156 513.121 -23.6275 513.624C-22.1394 514.629 -20.1553 515.635 -18.6672 516.64C-18.1712 516.64 -17.6752 517.143 -16.6831 517.646C-16.1871 517.646 -15.691 518.149 -14.6989 518.652C-13.2108 519.154 -12.2188 519.657 -10.7307 520.663C-9.2426 521.166 -8.25053 522.171 -6.76244 522.674C-5.27434 523.177 -3.78624 524.182 -2.29814 524.685C-0.810043 525.188 0.67804 526.194 2.16614 526.697C3.65424 527.199 5.14233 528.205 6.63043 528.708C8.11853 529.211 9.60664 530.216 11.0947 530.719C11.5908 530.719 12.5828 531.222 13.0789 531.725C14.0709 531.725 14.5669 532.227 15.559 532.73C17.0471 532.73 16.055 532.227 15.559 531.222C12.5828 530.216 10.1027 528.708 7.6225 527.702C6.1344 527.199 4.64632 526.697 3.65425 525.691C2.16615 525.188 0.67804 524.182 -0.314026 523.68C-1.80212 521.668 0.678055 522.171 5.14235 523.68C9.1106 525.188 14.0709 527.702 18.5352 529.713C23.4955 531.725 27.9598 533.233 30.44 534.239C41.8487 537.758 53.2575 541.278 64.6662 544.295C66.1543 544.295 67.6424 544.798 69.1305 545.3H71.1146C71.6107 545.803 72.6027 546.306 73.0988 546.306C76.075 546.809 79.0511 547.312 82.0273 547.814C82.5234 547.814 83.5154 547.814 84.5075 547.814C85.0035 547.814 85.9956 547.814 86.4916 547.814C87.9797 547.814 89.4678 547.814 90.9559 548.317C91.948 548.317 92.444 548.317 93.4361 548.317C93.9321 548.317 94.9242 548.317 95.9163 548.317C97.4044 548.317 98.8925 548.317 100.381 548.82C93.9321 547.814 87.4837 546.809 81.0353 545.803C79.5472 545.803 78.0591 545.3 76.571 544.798C75.5789 544.798 75.0829 544.798 74.0908 544.798H73.0988H72.1067C69.1305 544.295 66.1543 543.289 63.1781 542.284C63.1781 542.284 63.1781 542.284 61.69 542.284C58.7138 541.278 55.7376 540.775 52.7614 539.769C49.7852 538.764 46.8091 537.758 43.8329 537.255C43.3368 537.255 42.3448 537.255 41.8487 536.753C41.3527 536.753 40.3606 536.753 39.8646 536.25C38.3765 536.25 36.8884 535.244 35.4003 534.741C34.9043 534.741 33.9122 534.741 33.4162 534.239C32.9202 534.239 31.9281 534.239 31.4321 533.736C29.944 533.736 28.9519 532.73 27.4638 532.227C26.4717 531.725 25.4797 531.222 23.9916 530.719C22.5035 530.216 21.0154 529.713 19.5273 528.708C18.0392 528.205 16.5511 527.702 15.063 526.697C14.567 526.697 13.5749 526.194 13.0789 525.691C12.5828 525.691 12.0868 525.188 11.5908 524.685C12.5828 524.685 13.5749 524.685 15.063 524.685C16.5511 524.685 18.5352 525.691 21.0154 526.194C19.0312 525.188 16.5511 524.685 15.063 523.68C13.0789 522.674 11.0947 521.668 9.60663 521.166C6.63043 519.657 1.67012 517.646 0.182022 516.64L-2.29814 515.635C-3.78624 515.132 -3.78625 515.635 -5.27435 514.126C-7.7545 512.618 -7.75449 513.121 -8.74655 512.115C-9.24258 512.115 -9.73863 511.612 -10.2347 511.109C-10.7307 511.109 -11.2267 511.11 -11.7228 510.104C-12.7148 509.601 -13.7069 509.098 -14.6989 508.595C-15.691 508.093 -16.6831 507.59 -17.6752 507.087L-19.1633 506.081C-19.6593 506.081 -20.1553 505.579 -20.6513 505.076C-22.6355 504.07 -24.6196 502.562 -26.6037 501.556L-28.0918 500.551C-28.5879 500.551 -29.0839 500.048 -29.5799 499.545C-30.572 499.042 -31.5641 498.539 -32.5561 497.534C-33.5482 497.031 -35.0363 496.025 -35.0363 496.025C-35.5323 495.522 -35.0363 496.025 -36.0283 495.02C-36.5244 495.02 -36.0283 495.02 -37.0204 494.517C-38.5085 493.511 -39.9966 492.506 -41.4847 491.5C-42.9728 490.494 -44.4609 489.489 -45.949 488.483C-47.9331 486.975 -49.9173 485.969 -51.4053 484.461C-51.4053 484.461 -52.3974 483.958 -52.8934 483.455C-52.8934 483.455 -53.8855 482.952 -54.3815 482.45C-55.3736 481.947 -56.3657 480.941 -57.3577 480.438C-58.3498 479.935 -59.3419 478.93 -60.3339 478.427C-60.3339 478.427 -61.326 477.924 -61.822 477.421C-61.822 477.421 -61.822 477.421 -62.3181 476.919C-62.3181 476.919 -62.3181 476.919 -62.8141 476.919C-64.3022 475.41 -66.2863 474.405 -67.2784 472.896C-68.7665 471.891 -66.7823 472.896 -68.2704 471.388C-77.6951 463.343 -87.6157 454.292 -97.0403 444.236C-97.5363 443.231 -97.0403 444.236 -98.0324 442.728C-99.5205 441.219 -99.0244 441.722 -100.513 440.717C-101.009 439.711 -101.505 439.208 -102.001 438.705C-112.417 427.141 -122.834 415.073 -131.763 402C-132.755 400.492 -133.747 398.984 -134.739 397.475C-135.731 395.967 -136.723 394.458 -137.715 392.95C-137.715 392.95 -138.211 391.944 -138.707 391.441V390.436H-139.203C-139.203 389.933 -138.707 389.43 -138.211 388.927C-138.211 388.425 -138.211 387.922 -138.211 387.922L-137.219 386.916C-136.227 385.408 -135.235 383.899 -134.243 382.391C-133.251 380.883 -132.259 379.374 -131.267 377.866C-129.778 375.352 -128.29 373.34 -126.306 370.826C-124.818 368.815 -123.33 366.301 -121.346 364.29C-119.858 362.279 -117.874 360.267 -116.386 358.256C-114.897 356.245 -113.409 354.234 -111.425 352.223C-110.433 350.714 -109.441 349.708 -108.449 348.2C-107.953 347.697 -107.457 346.692 -106.961 346.189C-106.465 345.686 -105.969 345.183 -105.473 344.178C-104.481 343.172 -103.489 341.664 -102.497 340.658C-102.001 340.155 -101.505 339.652 -101.009 339.15C-101.009 338.647 -100.017 338.144 -99.5205 337.641C-97.5363 335.63 -95.0562 333.116 -93.0721 331.105C-91.0879 329.093 -88.6078 326.579 -86.6236 324.568C-86.6236 324.568 -85.6316 323.562 -85.1355 323.562C-85.1355 323.562 -84.1435 322.557 -83.6474 322.557C-82.6554 321.551 -82.1593 321.048 -81.1673 320.043C-79.6792 318.534 -77.6951 317.026 -75.7109 315.518C-74.2228 314.009 -72.2387 312.501 -70.7506 310.992C-70.7506 310.992 -69.7585 310.49 -69.7585 309.987C-69.7585 309.987 -68.7665 309.484 -68.7665 308.981C-67.7744 308.478 -67.2784 307.473 -66.2863 306.97C-65.2943 305.964 -64.3022 304.959 -62.8141 303.953C-61.822 303.45 -60.83 302.445 -59.8379 301.942C-58.8458 301.439 -57.8538 300.433 -56.8617 299.931C-55.3736 298.925 -54.3815 297.919 -52.8934 296.914C-51.4053 295.908 -50.4133 294.903 -48.9252 293.897C-47.4371 292.891 -46.445 291.886 -44.9569 290.88C-44.4609 290.88 -43.4688 289.874 -42.9728 289.372C-42.4768 289.372 -41.4847 288.366 -40.9887 287.863C-39.5006 286.858 -38.0125 285.852 -36.5244 284.846C-36.5244 284.846 -36.0283 284.846 -35.5323 284.344H-34.5402C-34.0442 283.338 -33.0522 282.835 -32.5561 282.332C-31.068 281.327 -29.5799 280.321 -28.0918 279.818H-27.0998C-27.0998 279.316 -26.1077 278.31 -26.1077 278.31C-25.6116 278.31 -24.6196 277.304 -24.1236 276.801C-22.6355 275.796 -20.6514 274.79 -19.1633 273.785C-18.1712 273.282 -17.6752 272.779 -16.6831 272.276C-15.691 272.276 -15.195 271.271 -14.2029 270.768C-13.2109 270.265 -11.7228 269.762 -10.7307 268.757C-10.2347 268.757 -9.73862 268.254 -8.74655 267.751C-8.25052 267.751 -7.7545 267.248 -6.76244 266.745C-5.27434 265.74 -3.29022 265.237 -1.80212 264.231C-0.810059 264.231 -0.314026 263.226 0.67804 262.723C1.6701 262.723 2.16614 261.717 3.1582 261.717C6.63043 260.209 9.60663 258.198 13.0789 257.192C15.063 256.186 17.5431 255.181 19.5273 254.175C21.5114 253.17 23.9916 252.667 25.9757 251.661H27.4638C27.9598 250.656 28.4559 250.656 28.9519 250.153L32.4241 249.147C33.4162 249.147 34.4082 248.141 35.8963 247.639C36.8884 247.639 38.3765 246.633 39.3686 246.13C41.8487 245.125 44.3289 244.622 47.3051 243.616C47.3051 243.616 47.8011 243.616 48.2971 243.616C48.2971 243.616 48.7932 243.616 49.2892 243.616C49.7852 243.616 50.7773 243.616 51.2733 243.113C52.7614 243.113 54.2495 242.108 55.2416 241.605C58.2178 240.599 60.698 240.097 63.6741 239.091C65.1622 239.091 66.1543 238.588 67.6424 238.085C69.1305 238.085 70.1226 237.583 71.6107 237.08C73.5948 237.08 75.5789 236.074 77.563 235.571C78.5551 235.571 79.5472 235.571 80.5392 235.069C81.5313 235.069 82.5234 235.069 83.5154 234.566C84.5075 234.566 85.4996 234.566 86.4916 234.063C86.9877 234.063 87.4837 234.063 87.9797 234.063C88.4758 234.063 88.9718 234.063 89.4678 234.063C91.452 234.063 93.9321 233.057 96.4123 233.057C96.4123 233.057 97.4044 233.057 97.9004 233.057C97.9004 233.057 98.8925 233.057 99.3885 233.057C100.877 233.057 102.861 233.057 104.845 232.554C105.837 232.554 106.829 232.554 107.325 232.554C108.317 232.554 109.309 232.554 109.805 232.554C111.789 232.554 113.277 232.554 115.262 232.052C115.262 232.052 116.254 232.052 116.75 232.052C116.75 232.052 117.742 232.052 118.238 232.052C118.238 232.052 118.238 232.052 118.734 232.052C118.734 232.554 118.238 233.56 117.742 234.063C117.742 235.069 116.75 236.074 116.254 237.08C115.262 239.091 114.765 240.599 113.773 242.611C112.781 244.622 112.285 246.633 111.293 248.644C110.301 250.656 109.805 252.667 108.813 254.678C108.813 256.186 107.821 257.192 107.325 258.7C107.325 259.706 106.333 260.712 106.333 261.717C106.333 261.717 106.333 262.723 105.837 263.226C105.837 263.729 105.837 264.231 105.341 264.734C104.845 266.745 103.853 268.757 103.357 271.271C100.877 277.807 98.8925 285.349 96.9083 293.394C96.9083 293.897 96.9083 294.903 96.4123 295.908C95.9162 296.914 96.4123 297.417 95.9163 298.422C95.9163 300.433 94.9242 301.942 94.4282 303.953C93.9321 305.964 93.4361 307.976 92.9401 309.987C92.9401 311.998 91.948 314.009 91.948 315.518C89.4678 327.585 87.4837 339.652 85.9956 352.223C85.9956 354.234 85.9956 356.245 85.4996 358.256C85.4996 359.262 85.4996 360.267 85.4996 361.273C85.4996 362.279 85.4996 363.284 85.4996 364.29C85.4996 366.301 85.4996 368.815 85.0035 371.329C85.0035 371.832 85.0035 372.838 85.0035 373.34C85.0035 373.843 85.0035 374.849 85.0035 375.352C85.0035 376.86 85.0035 377.866 85.0035 379.374C85.0035 380.883 85.0035 381.888 85.0035 383.397C85.0035 384.905 85.0035 385.911 85.0035 387.419C85.0035 388.927 85.0035 389.933 85.0035 391.441C85.0035 391.944 85.0035 392.95 85.0035 393.453V394.458V395.464C85.0035 397.475 85.0035 399.486 85.0035 401.498C85.0035 402.503 85.0035 403.509 85.0035 404.514C85.0035 405.017 85.0035 405.52 85.0035 406.023C85.0035 406.526 85.0035 407.028 85.0035 407.531C85.0035 409.543 85.0035 411.554 85.0035 413.565C85.0035 414.571 85.0035 415.576 85.0035 416.079C85.0035 417.085 85.0035 417.587 85.0035 418.593C85.0035 420.101 85.0035 422.113 85.0035 424.124C85.0035 424.627 85.0035 425.13 85.0035 426.135C85.0035 426.135 85.0035 426.638 85.0035 427.141C85.0035 427.141 85.0035 427.644 85.0035 428.146C85.0035 429.655 85.0035 431.163 85.4996 432.672C85.4996 436.191 85.4996 435.688 85.4996 437.197C85.4996 438.705 85.4996 440.214 85.9956 441.722C85.9956 443.231 85.9956 444.739 86.4916 446.247C86.4916 447.253 86.4916 447.756 86.4916 448.761C86.4916 449.767 86.4916 450.27 86.4916 451.275C86.4916 452.784 86.4916 454.795 87.4837 456.806C87.4837 457.812 87.4837 458.818 87.9797 459.823C87.9797 460.326 87.9797 460.829 87.9797 461.332C87.9797 461.834 87.9797 462.337 87.9797 462.84C87.9797 465.354 88.9718 467.868 89.4678 469.879C89.4678 470.382 89.4678 470.885 89.4678 471.891C89.4678 472.896 89.4678 472.896 89.4678 473.902C89.4678 474.907 89.9639 476.416 90.4599 477.421C90.4599 478.427 90.9559 479.433 91.4519 480.438C91.4519 480.941 91.4519 481.444 91.4519 481.947V482.952V483.958C91.948 485.969 92.444 487.98 92.9401 490.494C92.9401 492.003 93.4361 493.511 93.9321 494.014C93.9321 495.02 94.4281 496.025 94.9242 497.031C94.9242 498.539 95.9162 500.048 96.4123 501.556C96.4123 503.065 97.4043 504.573 97.4043 505.579C98.3964 508.093 98.8925 510.104 99.3885 511.612C99.3885 512.618 100.381 514.126 100.381 515.132C100.381 516.138 101.373 517.646 101.869 518.652C102.861 521.166 103.357 523.68 104.349 525.188C104.349 525.691 104.845 527.199 105.341 527.199C106.333 529.713 107.325 531.725 107.821 533.736C107.821 534.239 107.821 534.741 108.317 535.244C108.317 535.747 108.317 536.25 108.813 536.753C108.813 537.758 109.805 538.764 110.301 539.769C110.301 540.775 111.293 541.781 111.789 542.786C111.789 543.792 112.781 544.798 113.277 546.306C114.269 548.82 115.262 550.831 116.75 553.848C116.75 553.848 116.75 554.854 117.246 555.357C117.246 555.859 117.742 556.362 118.238 557.368C118.238 558.373 119.726 559.882 119.726 560.887C120.222 562.396 121.214 563.904 121.71 565.413C119.23 565.413 116.254 565.413 113.773 564.91M515.56 190.822C515.56 190.822 515.56 189.816 515.56 189.313C515.56 189.313 515.56 188.307 515.56 187.805C515.56 187.805 515.56 186.799 515.56 186.296C515.56 184.285 515.56 182.274 515.56 180.263C515.56 179.257 515.56 178.251 515.56 177.246C515.56 177.246 515.56 176.24 515.56 175.737C515.56 175.737 515.56 174.732 515.56 174.229C515.56 171.715 514.567 168.698 514.567 165.681C514.567 164.676 514.567 164.173 514.567 163.167C514.567 162.162 514.567 161.659 514.567 160.653C514.567 159.647 514.567 158.642 514.567 158.139C514.567 156.631 514.568 155.122 514.071 153.614C514.071 153.111 514.071 152.105 514.071 151.603C514.071 150.597 514.071 149.591 514.071 148.586C514.071 148.586 514.071 148.586 514.071 148.083C514.071 147.58 514.071 146.574 514.071 146.072C514.071 144.563 513.575 142.552 513.079 141.546C513.079 141.546 513.079 141.546 513.079 141.044C506.135 101.322 492.742 63.1086 473.893 26.9065L472.901 25.398C472.405 24.3924 471.909 23.3868 470.917 21.8784L467.444 15.8447H461.492H457.028H456.532C422.305 15.8447 388.575 20.8728 355.837 29.9233C355.837 29.9233 356.829 29.9233 357.821 28.9177C359.309 28.9177 360.301 28.4149 361.294 27.9121C361.294 27.9121 361.79 27.9121 362.286 27.9121C362.286 27.9121 362.782 27.9121 363.278 27.9121C363.774 27.9121 364.27 27.9121 364.766 27.9121C366.75 27.9121 368.238 26.9065 369.726 26.4037C370.718 26.4037 371.214 26.4037 372.206 25.9008C373.198 25.9008 373.694 25.9008 374.686 25.398C376.671 25.398 378.655 24.3924 381.631 23.8896C380.143 23.8896 379.647 23.8896 379.647 23.8896C381.631 23.8896 382.623 23.3868 383.615 22.884C384.111 22.884 384.607 22.884 385.103 22.884C385.103 22.884 386.095 22.884 386.591 22.884C386.095 22.884 385.599 22.884 385.103 22.884C385.103 22.884 384.111 22.884 383.615 22.884C382.623 22.884 382.127 22.884 381.631 22.884C380.639 22.884 380.143 22.884 379.647 22.884C379.151 22.884 379.647 22.3812 381.135 21.8784C401.968 17.3531 427.762 14.3363 445.619 14.3363C447.603 14.3363 448.595 13.8335 452.067 13.8335C453.556 13.8335 454.548 13.8335 456.036 13.8335C457.524 13.8335 459.012 13.8335 460.5 13.8335C460.996 13.8335 461.988 13.8335 462.484 13.8335C462.98 13.8335 463.972 13.8335 464.468 13.8335C463.476 13.8335 457.028 13.8335 456.036 13.8335C455.044 13.8335 454.052 13.8335 453.556 13.8335C452.067 13.8335 450.083 13.8335 448.595 13.8335C447.603 13.8335 447.107 13.8335 446.115 13.8335C445.123 13.8335 444.627 13.8335 443.635 13.8335C441.651 13.8335 440.163 13.8335 438.179 13.8335C437.186 13.8335 438.178 13.8335 435.202 13.8335C434.21 13.8335 433.714 13.8335 432.722 13.8335C431.73 13.8335 431.234 13.8335 430.242 13.8335C428.754 13.8335 427.266 13.8335 425.778 13.8335C424.29 13.8335 422.802 13.8335 421.313 13.8335C420.321 13.8335 419.825 13.8335 418.833 13.8335C417.841 13.8335 417.345 13.8335 416.353 13.8335C414.865 13.8335 413.377 13.8335 411.889 14.3363C410.897 14.3363 410.401 14.3363 409.905 14.3363C409.409 14.3363 408.417 14.3363 407.921 14.3363C404.944 14.3363 402.464 15.3419 400.48 15.3419C399.488 15.3419 398.496 15.3419 397.504 15.3419C396.512 15.3419 395.52 15.3419 394.528 15.3419C392.544 15.3419 390.559 15.3419 388.575 15.3419C385.103 15.8447 381.631 16.8503 378.159 17.3531C376.671 17.3531 374.686 17.8559 373.198 18.3587C371.71 18.3587 369.726 19.3644 368.238 19.3644C364.766 20.37 361.79 20.8728 358.813 21.8784C357.325 21.8784 355.837 22.884 354.349 22.884C353.357 22.884 352.861 22.884 351.869 23.3868C350.877 23.3868 350.381 23.3868 349.389 23.8896C346.413 24.8952 343.436 25.398 340.46 26.4037C338.972 26.4037 337.484 27.4093 335.996 27.9121C334.508 27.9121 333.02 28.9177 331.532 29.4205C330.539 29.4205 330.043 29.9233 329.051 30.4261C328.059 30.4261 327.563 30.9289 326.571 31.4317C325.083 31.9345 323.595 32.4373 322.107 32.9401C320.619 33.4429 319.131 33.9458 317.147 34.9514C316.155 34.9514 315.659 35.4542 314.667 35.957C313.674 35.957 313.178 36.4598 312.186 36.9626C312.186 36.9626 310.202 36.9626 309.21 37.4654C311.194 36.4598 312.682 35.4542 314.667 34.4486H315.659L316.651 33.9458C317.147 33.9458 317.643 33.9458 318.139 33.4429C319.131 33.4429 320.123 32.4373 321.115 31.9345C322.107 31.9345 323.099 30.9289 324.091 30.9289C324.587 30.9289 325.083 30.9289 325.579 30.4261C325.579 30.4261 325.579 30.4261 326.075 30.4261C326.075 30.4261 326.571 30.4261 327.067 30.4261C337.98 25.9008 351.869 21.3756 366.75 17.3531C368.734 17.3531 370.718 16.3475 372.206 15.8447C374.19 15.8447 376.174 14.8391 377.663 14.8391C379.151 14.8391 381.631 13.8335 383.615 13.3307C385.599 13.3307 387.583 12.8279 389.567 12.3251C391.551 12.3251 393.536 11.8222 395.52 11.3194H396.016H396.512H398C398.992 11.3194 399.984 10.8166 400.976 10.8166C402.96 10.8166 404.944 10.3138 406.432 9.81102C406.432 9.81102 407.424 9.81102 407.921 9.81102C407.921 9.81102 408.913 9.81102 409.409 9.81102C410.401 9.81102 411.393 9.81102 412.385 9.81102C415.857 8.80541 412.881 8.80541 410.401 8.80541C409.409 8.80541 408.417 8.80541 407.921 8.80541C406.928 8.80541 405.936 8.80541 405.44 8.80541C403.456 8.80541 401.968 9.30822 399.984 9.81102C398.992 9.81102 398.496 9.81102 397.504 9.81102H396.016C396.016 9.81102 395.024 9.81102 394.528 9.81102C393.04 9.81102 391.055 10.3138 389.567 10.8166C388.079 10.8166 386.095 11.3194 384.607 11.8223C383.119 12.3251 381.135 12.8279 379.151 12.8279C375.678 13.8335 372.206 14.3363 368.238 15.3419C365.262 15.3419 365.262 15.3419 367.246 14.3363C368.238 14.3363 369.726 13.3307 371.71 12.8279C373.694 12.3251 376.174 11.8223 379.151 10.8166C380.143 10.8166 381.631 10.3138 383.119 9.81102C384.607 9.81102 385.599 9.81102 387.087 8.80541C388.575 8.80541 390.063 8.3026 391.551 7.79979C392.047 7.79979 393.04 7.79979 393.536 7.79979C394.528 7.79979 395.024 7.79979 396.016 7.79979C398.992 7.79979 401.968 6.79418 405.44 6.29137C406.432 6.29137 406.928 6.29137 407.921 6.29137C408.913 6.29137 409.409 6.29137 410.401 6.29137C411.889 6.29137 413.377 6.29137 415.361 5.78857C416.849 5.78857 418.337 5.78857 419.825 5.28576C421.313 5.28576 422.802 5.28576 424.29 5.28576C427.266 5.28576 430.242 5.28576 432.722 4.78295C435.202 4.78295 437.682 4.78295 440.163 4.78295C441.155 4.78295 442.147 4.78295 443.139 4.78295C443.139 4.78295 444.131 4.78295 444.627 4.78295H446.115C450.083 4.78295 453.556 4.78295 457.028 4.78295H463.972V4.28015C463.476 4.28015 462.484 4.28015 461.988 4.28015C460.5 4.28015 459.508 4.28015 458.02 4.28015H457.028H456.532C456.036 4.28015 455.54 4.28015 455.044 4.28015C454.052 4.28015 453.059 4.28015 452.563 4.28015C450.579 4.28015 449.091 4.28015 447.603 4.28015H445.123C444.131 4.28015 443.635 4.28015 442.643 4.28015C441.155 4.28015 439.171 4.28015 437.682 4.28015C436.194 4.28015 434.706 4.28015 433.218 4.28015C432.226 4.28015 431.73 4.28015 430.738 4.28015C429.746 4.28015 429.25 4.28015 428.258 4.28015C426.274 4.28015 424.786 4.28015 422.802 4.28015C421.809 4.28015 420.817 4.28015 419.825 4.28015C418.833 4.28015 417.841 4.28015 416.849 4.28015C414.865 4.28015 412.881 4.28015 410.897 4.78295C409.905 4.78295 408.913 4.78295 407.921 4.78295C406.928 4.78295 405.936 4.78295 404.944 4.78295C401.472 5.28576 398 5.78857 395.52 5.78857C398 4.28015 406.928 2.26892 417.841 0.760498C414.865 0.760498 412.385 1.2633 409.409 1.76611C408.913 1.76611 407.921 1.76611 407.425 1.76611C406.929 1.76611 405.936 1.76611 405.44 1.76611C403.952 1.76611 402.96 1.76611 401.472 2.26892C399.984 2.26892 398.992 2.26892 397.504 2.77173C397.008 2.77173 396.016 2.77173 395.52 2.77173C395.024 2.77173 394.032 2.77173 393.536 2.77173C391.055 2.77173 388.575 3.77734 386.095 4.28015C385.103 4.28015 384.111 4.28015 383.119 4.78295C382.127 4.78295 380.639 4.78295 379.647 5.78857C377.167 6.29137 374.686 6.79418 372.206 7.29699C371.214 7.29699 369.726 7.79979 368.734 8.3026C367.742 8.3026 366.75 8.80541 365.758 9.30822C363.774 9.30822 362.286 10.3138 361.294 10.3138C361.294 10.3138 360.301 10.3138 358.813 10.8166C356.829 11.3194 354.845 12.3251 354.349 12.3251C352.365 12.8279 351.373 13.3307 350.381 13.8335C350.381 13.8335 349.389 13.8335 348.893 13.8335C348.397 13.8335 347.405 13.8335 345.917 14.8391C339.468 16.8503 339.964 16.8503 335.996 17.8559C333.516 18.8615 330.54 19.8672 328.059 20.8728C326.571 20.8728 325.579 21.8784 324.091 22.3812C322.603 22.884 321.611 23.3868 320.123 23.8896C317.643 24.8952 315.163 25.9008 312.186 26.9065C309.706 27.9121 307.226 28.9177 304.746 30.4261L302.762 31.4317C302.266 31.4317 301.274 31.9345 300.778 32.4373L296.809 34.4486C295.321 34.9514 294.329 35.4542 292.841 36.4598L290.857 37.4654H289.865C289.865 37.9682 289.369 37.9682 288.873 38.471C283.912 40.9851 278.952 43.4991 273.992 46.0131C273 46.5159 271.512 47.5215 270.024 48.0243C269.528 48.0243 268.535 48.5272 268.535 49.03H267.543C265.559 50.0356 267.543 49.03 264.567 50.5384C263.079 51.544 264.071 51.0412 262.087 52.5496C261.095 53.0524 260.103 53.5552 259.111 54.058C258.615 54.058 258.119 54.5608 257.623 55.0636C257.623 55.0636 256.631 55.5665 256.135 56.0693C254.151 57.0749 252.166 58.5833 250.182 59.5889C249.19 60.0917 248.198 60.5945 247.206 61.6001C246.214 62.1029 245.222 63.1086 244.23 63.6114C242.246 65.1198 240.262 66.1254 238.774 67.6338C220.916 80.204 200.579 96.7966 187.682 109.87C184.706 112.886 188.178 108.864 184.706 112.384C173.793 123.445 162.881 135.01 152.96 148.083C151.472 149.591 150.48 151.1 148.992 153.111L148 154.117L147.008 155.122L145.023 157.636C144.031 159.145 142.543 161.156 141.551 162.664L140.559 164.173C140.559 164.173 140.063 165.178 139.567 165.681C139.071 166.687 138.575 167.19 138.079 168.195C137.087 169.704 135.599 171.715 134.607 173.223L133.615 174.732C133.615 174.732 133.119 175.737 132.623 176.24L131.631 177.749C131.631 178.251 131.631 178.754 131.631 178.754C131.631 179.76 131.631 179.76 131.631 179.76H131.135C130.638 179.76 131.135 179.76 130.142 179.76H129.646H128.654C128.158 179.76 127.662 179.76 127.166 179.76C126.174 179.76 125.678 179.76 123.694 179.76C121.214 179.76 118.734 179.76 117.246 179.76C116.254 179.76 114.765 179.76 113.773 179.76C112.781 179.76 111.293 179.76 110.301 179.76C107.821 179.76 105.341 179.76 103.357 180.263C102.365 180.263 100.877 180.263 99.8845 180.263C98.8924 180.263 97.4043 180.263 96.4123 180.263C95.4202 180.263 93.9321 180.263 92.9401 180.263H90.9559C90.4599 180.263 89.9638 180.263 88.9718 180.263C86.4916 180.263 84.0115 181.268 82.0273 181.268C81.0353 181.268 79.5472 181.268 78.5551 181.771H77.563H76.571H74.5869C69.6265 183.279 65.1622 183.782 60.2019 185.291C57.7218 185.793 55.2416 186.296 53.2575 186.799C50.7773 187.302 48.7932 187.805 46.313 188.81L42.8408 189.816H40.8567L38.8725 190.822C36.3924 191.324 34.4082 192.33 31.9281 192.833C30.936 192.833 29.4479 193.336 28.4559 193.838L24.9836 194.844C22.5035 195.85 20.5193 196.352 18.0392 197.358C17.0471 197.358 15.559 198.364 14.5669 198.364L11.0947 199.872L7.6225 201.38C6.63043 201.38 5.14233 202.386 4.15027 202.889C-12.7148 209.425 -29.0839 217.47 -44.9569 226.018C-60.83 234.566 -75.7109 244.622 -89.1038 255.181C-100.017 263.226 -109.937 272.276 -119.362 280.824C-128.786 289.874 -137.715 298.925 -145.651 307.975C-147.14 309.484 -148.132 310.992 -149.62 312.501C-150.116 313.506 -151.108 314.009 -151.604 315.015C-151.604 315.015 -152.1 316.02 -152.596 316.02H-153.092C-153.092 316.523 -153.092 317.026 -153.092 317.026C-155.572 320.043 -158.052 323.06 -160.532 326.077C-163.013 329.093 -164.997 332.11 -167.477 335.127C-167.973 335.63 -168.469 336.635 -168.965 337.641C-169.461 338.647 -169.957 339.15 -170.453 340.155C-171.445 341.664 -172.437 343.172 -173.925 344.68C-174.421 345.686 -174.917 346.189 -175.413 347.194C-175.413 348.2 -176.405 348.703 -176.902 349.708C-177.894 351.217 -178.886 352.725 -179.878 354.234C-181.862 357.251 -183.846 360.267 -185.83 363.787C-186.822 365.296 -187.814 366.804 -188.806 368.312C-190.294 370.324 -191.286 372.838 -192.775 374.849C-193.767 376.357 -194.263 377.363 -195.255 378.871C-195.255 379.374 -196.247 380.38 -196.743 380.883V381.888C-197.239 381.888 -197.239 381.888 -197.239 381.888H-201.703V382.894C-200.711 384.402 -200.215 385.911 -199.223 386.916V387.922C-198.727 387.922 -198.231 388.927 -198.231 388.927C-198.231 389.43 -197.239 390.436 -197.239 390.939C-196.247 392.447 -195.255 393.956 -194.759 395.464C-194.263 396.47 -193.271 397.978 -192.775 398.984C-191.286 401.498 -189.798 404.012 -188.31 406.023C-186.822 408.537 -185.334 411.051 -183.846 413.062C-182.854 414.068 -182.358 415.576 -181.366 416.582C-180.374 417.587 -179.878 419.096 -178.886 420.101C-177.398 422.616 -175.909 424.627 -174.421 427.141C-172.933 429.152 -171.445 431.666 -169.461 433.677C-166.485 437.7 -163.013 441.722 -160.532 445.242C-160.532 445.745 -159.54 446.247 -159.044 447.253C-158.548 447.756 -158.052 448.761 -157.06 449.264C-156.068 450.773 -154.58 452.281 -153.588 453.287C-152.596 454.292 -151.604 455.298 -151.108 456.304C-150.116 457.309 -149.124 458.315 -148.132 459.32C-146.148 461.332 -144.659 463.343 -142.675 465.857C-132.259 476.919 -120.85 487.478 -109.441 497.031C-96.5443 508.093 -83.6474 517.646 -69.7585 526.697C-68.7665 527.199 -67.7744 528.205 -66.7823 528.708C-65.7903 529.211 -64.7982 529.713 -63.8062 530.719C-61.822 531.725 -59.8379 533.233 -57.8538 534.239C-57.3577 534.239 -56.8617 534.741 -56.3657 535.244L-54.8776 536.25L-51.9014 537.758C-49.9172 538.764 -47.9331 539.769 -45.949 541.278C-43.4688 542.786 -40.4926 544.295 -37.5164 545.803C-37.0204 545.803 -36.0283 546.306 -35.5323 546.809C-35.0363 546.809 -34.0442 547.312 -33.5482 547.814C-32.0601 548.317 -30.572 549.323 -29.0839 549.826C-13.2109 557.871 3.65424 564.407 19.5273 569.938C21.0154 569.938 22.0074 570.944 23.4955 571.446C24.9836 571.446 25.9757 572.452 27.4638 572.955C28.9519 572.955 29.944 573.96 31.4321 574.463H32.4241L33.4162 574.966H35.4003C38.3765 576.474 40.8567 576.977 43.8329 577.983C44.3289 577.983 45.321 577.983 45.817 578.486H47.8011C49.2892 579.491 50.7773 579.491 51.7694 579.994C53.2575 579.994 54.7456 580.497 55.7376 581L59.7059 582.005C62.6821 582.508 65.1623 583.011 68.1385 583.514C71.1147 583.514 73.5948 584.519 76.571 585.022H78.5551L79.5472 585.525H80.5392C82.0273 585.525 83.5154 585.525 84.5075 586.028C85.9956 586.028 87.4837 586.028 89.4678 586.531C90.4599 586.531 90.9559 586.531 91.948 586.531C92.9401 586.531 93.4361 586.531 94.4282 586.531C97.9004 586.531 100.877 587.033 104.349 587.536C107.821 587.536 111.293 587.536 114.765 588.542C116.254 588.542 118.238 588.542 119.726 588.542H122.206H123.694H124.686V589.045V590.05C126.174 591.559 127.166 593.067 128.158 594.575C128.158 595.078 129.15 596.084 129.646 596.587C129.646 597.089 130.638 598.095 131.135 598.598C132.127 600.106 133.119 601.615 133.615 602.62C134.607 604.129 135.599 605.134 136.095 606.643C138.079 609.157 139.567 611.671 141.551 614.185C142.047 615.191 143.039 616.196 143.535 617.202C144.031 618.207 145.023 619.213 145.519 620.219C146.016 621.224 147.008 622.23 147.504 623.235C148 624.241 148.992 625.247 149.984 626.252C151.472 628.264 152.96 630.275 154.944 632.286C155.936 633.292 156.432 634.297 157.424 635.303C158.416 636.308 158.912 637.314 159.904 638.32C161.393 640.331 163.377 642.342 164.865 644.353C166.849 646.365 168.337 648.376 170.321 650.387C171.313 651.393 172.305 652.398 172.801 653.404C173.297 654.409 174.785 655.415 175.777 656.421C177.762 658.432 179.746 660.443 181.73 662.454C183.218 663.963 184.706 664.968 186.194 666.98C187.682 668.488 189.17 669.996 190.658 671.505C192.147 673.013 193.635 674.522 195.123 676.03C196.115 676.533 196.611 677.539 197.603 678.041C198.595 678.544 199.091 679.55 200.083 680.053C201.571 681.561 203.555 683.069 205.043 684.075L207.523 686.086L208.516 687.092L210.004 688.098C211.492 689.606 213.476 690.612 214.964 692.12C215.956 692.623 216.452 693.628 217.444 694.131H217.94L218.436 695.137L219.924 696.142C221.412 697.651 223.397 698.656 224.885 700.165C231.829 705.193 238.278 709.718 244.726 714.243C245.718 714.746 246.214 715.249 247.206 715.752C248.198 716.255 248.694 716.758 249.686 717.26C251.174 718.266 252.662 719.272 254.647 720.277C257.623 722.288 260.599 723.797 263.575 725.808C268.039 728.322 272.008 730.333 275.976 732.847C275.976 732.847 276.968 733.35 277.464 733.853C277.464 733.853 278.456 734.356 278.952 734.859C279.944 735.361 280.936 735.864 281.928 736.367C283.912 737.373 285.897 738.378 288.377 739.384H289.369L290.361 740.389C290.857 740.389 291.353 740.389 291.849 741.395C292.841 741.395 294.329 742.401 295.321 742.904C296.313 742.904 297.305 743.909 298.793 744.412C299.289 744.412 299.785 744.412 300.282 744.915C300.778 744.915 301.274 744.915 301.77 745.418C304.25 746.423 306.234 747.429 308.218 747.932C308.714 747.932 309.21 747.932 309.706 748.434H310.698L311.69 748.937C312.682 748.937 314.17 749.943 315.162 750.446C316.651 750.948 318.139 751.451 319.627 751.954C321.115 752.457 322.603 752.96 324.091 753.462C326.571 754.468 328.555 754.971 331.036 755.976C331.532 755.976 332.028 755.977 333.02 756.479H334.012L335.004 756.982C335.996 756.982 337.484 757.485 338.476 757.988C340.956 758.491 343.436 759.496 345.917 759.999C348.397 760.502 350.877 761.507 353.357 762.01C369.23 766.033 385.599 770.055 404.448 772.066C406.928 772.066 409.905 772.569 412.385 773.072C413.873 773.072 415.361 773.072 416.849 773.072C418.337 773.072 419.825 773.072 421.313 773.072C422.802 773.072 424.29 773.072 426.274 773.072C427.266 773.072 427.762 773.072 428.754 773.072C429.746 773.072 430.242 773.072 431.234 773.072C433.218 773.072 435.698 773.072 437.682 773.072L436.69 770.558C436.69 770.558 436.69 770.558 436.69 770.055L440.659 773.072C439.667 773.072 438.674 773.072 437.682 773.072V774.078H441.651C443.139 774.078 444.131 774.078 445.619 774.078C445.619 774.078 446.115 774.078 446.611 774.078C447.107 774.078 447.603 774.078 448.595 774.078H449.091H450.083H450.579C451.571 774.078 452.563 773.575 453.06 773.072C453.556 773.072 454.052 773.072 454.548 773.072C454.548 773.072 454.548 773.072 454.548 772.569C455.044 771.563 455.54 770.558 456.036 770.055C457.028 768.547 457.524 767.038 458.516 765.53C459.508 764.021 460.004 762.513 460.996 761.005C461.988 759.496 462.484 757.988 463.476 756.479L464.964 753.965V752.96C465.46 752.96 465.956 751.954 465.956 751.954C467.444 748.937 468.933 745.92 470.917 742.401C472.405 739.384 473.893 735.864 475.381 732.847C481.333 719.774 486.294 706.701 490.758 693.126C491.75 690.612 492.246 688.6 492.742 686.086C492.742 685.583 492.742 685.081 493.238 684.578C493.238 684.075 493.238 683.572 493.238 683.069C493.238 682.064 493.734 681.058 494.23 679.55C494.726 677.539 495.718 675.025 496.214 673.013C496.71 670.499 497.206 668.488 497.702 665.974C499.19 660.946 500.183 655.415 501.175 649.884C501.175 649.381 501.175 648.376 501.175 647.873C501.175 647.37 501.175 646.365 501.175 645.862C501.175 644.353 501.671 642.845 502.167 641.336C502.167 639.828 502.663 638.32 503.159 636.811C503.159 635.303 503.159 633.794 503.655 632.286C503.655 630.778 503.655 629.269 504.151 627.761C504.151 627.258 504.151 626.252 504.151 625.247C504.151 624.241 504.151 623.738 504.151 622.733C504.151 619.716 505.143 616.699 505.143 613.179V612.174V611.168C505.143 610.162 505.143 609.66 505.143 608.654C505.143 607.146 505.143 605.637 505.143 604.129C505.143 603.123 505.143 602.62 505.143 601.615C505.143 600.609 505.143 600.106 505.143 599.101C505.143 597.592 505.143 596.084 505.143 594.575C505.143 592.061 505.143 590.05 505.143 587.536C505.143 585.022 505.143 582.508 505.143 580.497C505.143 575.469 505.143 570.441 505.143 565.915C505.143 565.413 505.143 564.91 505.143 563.904V562.899C505.143 562.899 505.143 562.396 505.143 561.893C505.143 560.887 505.143 559.379 505.143 558.373C505.143 555.859 505.143 553.848 505.143 551.837C505.143 550.831 505.143 549.826 505.143 548.82C505.143 547.814 505.143 546.809 505.143 545.803C505.143 543.792 505.143 541.781 505.143 540.272V539.267C505.143 539.267 505.143 538.261 505.143 537.758C505.143 536.753 505.143 535.747 505.143 534.741C505.143 532.73 504.647 530.216 504.151 527.199C503.159 521.668 502.663 515.132 501.175 508.093C501.175 506.081 501.175 505.076 500.679 503.567C500.679 503.567 500.679 503.567 500.679 503.065C500.679 503.065 500.679 503.065 500.679 502.562C500.679 502.562 500.679 502.059 500.679 501.556C500.679 500.551 500.679 500.048 500.183 498.037C500.183 496.528 499.687 494.517 499.19 493.008C499.19 492.003 499.19 491.5 498.694 490.494C498.694 489.489 498.695 488.986 498.198 487.98L497.206 482.952C497.206 481.947 497.206 481.444 496.71 480.438C496.71 479.433 496.71 478.93 496.214 477.924C495.222 474.405 494.23 470.885 493.734 467.365C493.734 465.354 492.742 463.846 492.246 461.834C491.75 459.823 490.758 457.812 490.262 455.298C489.766 453.287 488.774 450.773 487.782 448.259C487.782 447.253 486.79 445.745 486.79 444.739C486.79 444.236 486.79 443.733 486.294 443.231C486.294 442.728 486.294 442.225 485.798 441.722C484.806 439.208 483.813 436.191 482.821 433.677C482.821 433.174 482.325 432.169 481.829 431.666C481.829 431.163 481.333 430.158 480.837 429.655C480.341 428.649 479.845 427.141 479.349 425.632C478.853 424.124 478.357 423.118 477.861 421.61C477.365 420.101 476.869 419.096 476.373 417.587C475.381 415.073 473.893 412.559 472.901 410.045C471.909 407.531 470.917 405.52 469.429 403.006C468.933 402 468.437 400.995 467.94 399.486C467.444 398.481 466.948 397.475 465.956 395.967C464.964 393.955 463.476 391.441 462.484 389.43C462.484 389.43 462.98 388.425 463.476 387.922C463.972 386.916 464.468 385.408 465.46 384.402C466.452 382.894 466.948 381.385 467.94 379.877C468.437 378.368 468.933 377.363 469.429 376.357C470.421 374.346 471.413 372.335 472.405 370.324C475.877 363.284 478.357 356.748 480.837 351.217C481.333 349.708 481.829 348.703 482.325 347.194C482.325 347.194 482.325 346.692 482.325 346.189C482.325 346.189 482.325 345.686 482.325 345.183C482.325 344.68 482.325 344.178 482.821 343.675C483.813 341.664 484.31 339.652 484.806 338.144C484.806 337.641 485.302 336.635 485.302 336.133C485.302 336.133 485.302 335.63 485.302 335.127C485.302 335.127 485.302 334.624 485.302 334.121C485.302 332.613 486.294 331.607 486.79 330.099C486.79 328.591 487.782 327.082 488.278 326.077V324.065C489.27 323.563 489.27 322.557 489.766 322.054C490.758 319.037 491.75 316.523 492.246 314.009C492.246 314.009 492.246 313.506 492.246 313.004C492.246 313.004 492.246 312.501 492.246 311.998C492.246 311.495 492.246 310.49 492.742 309.987C492.742 308.981 493.238 307.473 493.734 306.467C493.734 304.959 495.222 301.942 495.222 301.439C495.718 298.422 496.71 295.908 497.206 292.891C497.206 292.388 497.206 291.383 497.206 290.88C497.206 290.377 497.206 289.372 497.206 288.869C497.206 287.36 497.702 286.355 498.198 284.846C498.695 282.332 499.19 279.818 499.687 277.304C499.687 274.79 500.679 272.276 501.175 269.762C501.175 268.254 501.175 267.248 501.671 265.74C501.671 264.231 501.671 263.226 502.167 261.717C502.167 259.203 503.159 256.186 503.159 253.672C503.655 248.141 504.647 241.605 505.143 234.566C505.143 232.052 505.143 230.543 505.639 225.515C505.639 223.504 505.639 218.476 505.639 216.967C505.639 215.962 505.639 214.956 505.639 214.453C505.639 211.437 505.639 208.42 505.639 205.403C505.639 198.364 505.639 191.324 505.639 184.285" fill="#F9F8F5"/>
</svg>
