<svg width="56" height="64" viewBox="0 0 56 64" fill="none" xmlns="http://www.w3.org/2000/svg">
<path d="M21.4334 1.64355C18.4334 4.44355 16.0334 8.14355 14.2334 12.7436C12.4334 17.3436 11.5334 21.9436 11.5334 26.5436C11.5334 30.3436 12.0334 33.4436 13.0334 35.8436C14.2334 38.0436 15.9334 40.4436 18.1334 43.0436C19.7334 44.8436 20.9334 46.4436 21.7334 47.8436C22.5334 49.2436 22.9334 50.9436 22.9334 52.9436C22.9334 55.9436 22.0334 58.4436 20.2334 60.4436C18.4334 62.2436 16.1334 63.1436 13.3334 63.1436C9.3334 63.1436 6.2334 61.4436 4.0334 58.0436C1.8334 54.6436 0.733398 49.8436 0.733398 43.6436C0.733398 36.0436 2.4334 28.3436 5.8334 20.5436C9.4334 12.7436 14.2334 5.94355 20.2334 0.143555L21.4334 1.64355ZM54.4334 1.64355C51.4334 4.44355 49.0334 8.14355 47.2334 12.7436C45.4334 17.3436 44.5334 21.9436 44.5334 26.5436C44.5334 30.3436 45.0334 33.4436 46.0334 35.8436C47.2334 38.0436 48.9334 40.4436 51.1334 43.0436C52.7334 44.8436 53.9334 46.4436 54.7334 47.8436C55.5334 49.2436 55.9334 50.9436 55.9334 52.9436C55.9334 55.9436 55.0334 58.4436 53.2334 60.4436C51.4334 62.2436 49.1334 63.1436 46.3334 63.1436C42.3334 63.1436 39.2334 61.4436 37.0334 58.0436C34.8334 54.6436 33.7334 49.8436 33.7334 43.6436C33.7334 36.0436 35.4334 28.3436 38.8334 20.5436C42.4334 12.7436 47.2334 5.94355 53.2334 0.143555L54.4334 1.64355Z" fill="white"/>
</svg>
