<svg width="19" height="22" viewBox="0 0 19 22" fill="none" xmlns="http://www.w3.org/2000/svg">
<path d="M7.16396 0.66213C6.15904 1.60006 5.3551 2.83947 4.75214 4.38035C4.14919 5.92124 3.84771 7.46213 3.84771 9.00301C3.84771 10.2759 4.0152 11.3143 4.35017 12.1183C4.75214 12.8552 5.3216 13.6592 6.05855 14.5301C6.59451 15.1331 6.99648 15.669 7.26446 16.138C7.53244 16.6069 7.66643 17.1764 7.66643 17.8464C7.66643 18.8513 7.36495 19.6887 6.76199 20.3587C6.15904 20.9616 5.3886 21.2631 4.45067 21.2631C3.11077 21.2631 2.07234 20.6936 1.3354 19.5547C0.598453 18.4158 0.22998 16.8079 0.22998 14.7311C0.22998 12.1853 0.799438 9.60597 1.93835 6.99316C3.14426 4.38035 4.75214 2.10252 6.76199 0.159668L7.16396 0.66213ZM18.2181 0.66213C17.2132 1.60006 16.4093 2.83947 15.8063 4.38035C15.2034 5.92124 14.9019 7.46213 14.9019 9.00301C14.9019 10.2759 15.0694 11.3143 15.4044 12.1183C15.8063 12.8552 16.3758 13.6592 17.1127 14.5301C17.6487 15.1331 18.0507 15.669 18.3186 16.138C18.5866 16.6069 18.7206 17.1764 18.7206 17.8464C18.7206 18.8513 18.4191 19.6887 17.8162 20.3587C17.2132 20.9616 16.4428 21.2631 15.5048 21.2631C14.1649 21.2631 13.1265 20.6936 12.3896 19.5547C11.6526 18.4158 11.2842 16.8079 11.2842 14.7311C11.2842 12.1853 11.8536 9.60597 12.9925 6.99316C14.1984 4.38035 15.8063 2.10252 17.8162 0.159668L18.2181 0.66213Z" fill="#944361"/>
</svg>
