<svg width="22" height="22" viewBox="0 0 22 22" fill="none" xmlns="http://www.w3.org/2000/svg">
<path d="M11.3124 14.04L11.6376 13.6602L11.4972 13.54H11.3124V14.04ZM13.6132 16.0107L13.2879 16.3904L14.1132 17.0973V16.0107H13.6132ZM13.6132 13.8455L13.4357 13.378L13.1132 13.5005V13.8455H13.6132ZM6.39648 10.1675C6.39648 8.78677 7.51577 7.66748 8.89648 7.66748V6.66748C6.96349 6.66748 5.39648 8.23448 5.39648 10.1675H6.39648ZM6.39648 11.04V10.1675H5.39648V11.04H6.39648ZM8.89648 13.54C7.51577 13.54 6.39648 12.4207 6.39648 11.04H5.39648C5.39648 12.973 6.96349 14.54 8.89648 14.54V13.54ZM11.3124 13.54H8.89648V14.54H11.3124V13.54ZM13.9384 15.6309L11.6376 13.6602L10.9871 14.4197L13.2879 16.3904L13.9384 15.6309ZM13.1132 13.8455V16.0107H14.1132V13.8455H13.1132ZM15.0483 11.04C15.0483 12.1074 14.3791 13.0197 13.4357 13.378L13.7907 14.3129C15.1096 13.812 16.0483 12.5362 16.0483 11.04H15.0483ZM15.0483 10.1675V11.04H16.0483V10.1675H15.0483ZM12.5483 7.66748C13.929 7.66748 15.0483 8.78677 15.0483 10.1675H16.0483C16.0483 8.23448 14.4813 6.66748 12.5483 6.66748V7.66748ZM8.89648 7.66748H12.5483V6.66748H8.89648V7.66748Z" fill="#944361"/>
<circle cx="10.7222" cy="11.0841" r="9.91406" stroke="#944361"/>
</svg>
