<svg width="13" height="14" viewBox="0 0 13 14" fill="none" xmlns="http://www.w3.org/2000/svg">
<g clip-path="url(#clip0_371_342)">
<path d="M6.29225 13.2792C9.71774 13.2792 12.4946 10.5023 12.4946 7.07676C12.4946 3.65127 9.71774 0.874359 6.29225 0.874359C2.86675 0.874359 0.0898438 3.65127 0.0898438 7.07676C0.0898438 10.5023 2.86675 13.2792 6.29225 13.2792Z" fill="#F0F0F0"/>
<path d="M1.37195 3.3006C0.884748 3.93448 0.517377 4.66508 0.303467 5.45877H3.53012L1.37195 3.3006Z" fill="#0052B4"/>
<path d="M12.281 5.45877C12.0671 4.66511 11.6997 3.93451 11.2126 3.30063L9.05444 5.45877H12.281Z" fill="#0052B4"/>
<path d="M0.303467 8.69479C0.517401 9.48846 0.884772 10.2191 1.37195 10.8529L3.53005 8.69479H0.303467Z" fill="#0052B4"/>
<path d="M10.0683 2.15652C9.43442 1.66932 8.70385 1.30195 7.91016 1.08801V4.31464L10.0683 2.15652Z" fill="#0052B4"/>
<path d="M2.51611 11.997C3.14999 12.4842 3.88059 12.8515 4.67426 13.0655V9.83887L2.51611 11.997Z" fill="#0052B4"/>
<path d="M4.67423 1.08801C3.88057 1.30195 3.14997 1.66932 2.51611 2.1565L4.67423 4.31462V1.08801Z" fill="#0052B4"/>
<path d="M7.91016 13.0655C8.70382 12.8515 9.43442 12.4842 10.0683 11.997L7.91016 9.83887V13.0655Z" fill="#0052B4"/>
<path d="M9.05444 8.69479L11.2126 10.8529C11.6997 10.2191 12.0671 9.48846 12.281 8.69479H9.05444Z" fill="#0052B4"/>
<path d="M12.4421 6.26776H7.1013H7.10127V0.926861C6.83643 0.892385 6.56644 0.874359 6.29225 0.874359C6.01801 0.874359 5.74806 0.892385 5.48324 0.926861V6.26771V6.26774H0.142346C0.107869 6.53257 0.0898438 6.80257 0.0898438 7.07676C0.0898438 7.351 0.107869 7.62095 0.142346 7.88576H5.4832H5.48322V13.2267C5.74806 13.2611 6.01801 13.2792 6.29225 13.2792C6.56644 13.2792 6.83643 13.2612 7.10125 13.2267V7.88581V7.88579H12.4421C12.4766 7.62095 12.4946 7.351 12.4946 7.07676C12.4946 6.80257 12.4766 6.53257 12.4421 6.26776Z" fill="#D80027"/>
<path d="M7.91016 8.69482L10.6779 11.4625C10.8052 11.3353 10.9266 11.2023 11.0425 11.0644L8.67291 8.69479H7.91016V8.69482Z" fill="#D80027"/>
<path d="M4.67424 8.69482H4.67419L1.90649 11.4625C2.03374 11.5898 2.16678 11.7113 2.30468 11.8271L4.67424 9.4575V8.69482Z" fill="#D80027"/>
<path d="M4.67406 5.45878V5.45873L1.90633 2.69098C1.77904 2.81823 1.65761 2.95126 1.54175 3.08917L3.91133 5.45875L4.67406 5.45878Z" fill="#D80027"/>
<path d="M7.91016 5.45878L10.6779 2.69101C10.5507 2.56371 10.4176 2.44228 10.2797 2.32645L7.91016 4.69603V5.45878Z" fill="#D80027"/>
</g>
<defs>
<clipPath id="clip0_371_342">
<rect width="12.4048" height="12.4048" fill="white" transform="translate(0.0898438 0.874359)"/>
</clipPath>
</defs>
</svg>
