<svg width="49" height="50" viewBox="0 0 49 50" fill="none" xmlns="http://www.w3.org/2000/svg">
<path d="M45.206 12.7476C45.206 12.8307 45.206 12.9138 45.206 12.9138C45.206 12.9969 45.206 13.0799 45.206 13.163V13.3292V13.4954C45.206 13.6616 45.206 13.7447 45.206 13.9109C45.206 14.0771 45.206 14.1602 45.206 14.2432C45.206 14.3263 45.206 14.4925 45.206 14.5756C45.206 14.6587 45.206 14.7418 45.206 14.8249C45.206 14.908 45.206 14.9911 45.206 15.0742C45.206 15.1573 45.206 15.2404 45.206 15.3235C45.206 15.4065 45.206 15.4896 45.206 15.5727C45.206 15.7389 45.206 15.9051 45.206 16.0713C45.206 16.2375 45.206 16.4037 45.206 16.5699C45.206 16.736 45.206 16.9022 45.1227 17.1515C45.1227 17.2346 45.1227 17.3177 45.1227 17.4008C45.1227 17.4839 45.1227 17.567 45.1227 17.6501C45.0395 18.0655 44.9562 18.3979 44.873 18.7303C44.873 18.8965 44.7898 18.9795 44.7065 19.1457V19.3119V19.4781C44.7065 19.6443 44.6233 19.7274 44.54 19.8936C44.4568 20.0598 44.4568 20.1428 44.3735 20.309C44.3735 20.309 44.3735 20.3921 44.3735 20.4752C44.3735 20.5583 44.3735 20.5583 44.3735 20.6414C44.3735 20.7245 44.3735 20.7245 44.3735 20.8076C44.3735 20.8907 44.2903 21.0569 44.2071 21.14C44.1238 21.2231 44.1238 21.3892 44.0406 21.4723C44.0406 21.4723 44.0406 21.4723 44.0406 21.5554C44.0406 21.5554 44.0406 21.5554 44.0406 21.6385C44.0406 21.6385 44.0406 21.5554 44.0406 21.4723C44.0406 21.4723 44.0406 21.3892 43.9573 21.3062C43.9573 21.2231 43.7909 21.0569 43.7076 20.9738C43.6244 20.8907 43.5411 20.7245 43.4579 20.6414C43.4579 20.6414 43.3747 20.5583 43.2914 20.4752C43.2914 20.4752 43.2914 20.4752 43.2914 20.3921C43.2914 20.309 43.2914 20.3921 43.2914 20.309C43.2914 20.309 43.2082 20.1428 43.1249 20.0598L42.9585 19.8936C42.9585 19.8936 42.8752 19.8105 42.792 19.7274L42.459 19.395C42.459 19.395 42.459 19.3119 42.3758 19.2288C42.2925 19.1457 42.3758 19.1457 42.2925 19.0626C42.2925 18.9795 42.126 18.8965 42.0428 18.8134C42.0428 18.8134 42.0428 18.7303 41.8763 18.6472C41.7098 18.5641 41.7931 18.5641 41.7098 18.481C41.6266 18.3979 41.5433 18.3148 41.4601 18.2317C41.4601 18.2317 41.4601 18.1486 41.3769 18.1486C41.2936 18.1486 41.3769 18.0655 41.2104 17.9824C41.2104 17.8993 41.0439 17.8162 40.9607 17.7332C40.9607 17.7332 40.8774 17.6501 40.7942 17.567C40.7109 17.4839 40.7109 17.4839 40.6277 17.4008C40.5444 17.3177 40.4612 17.2346 40.378 17.1515C39.7953 16.5699 39.1293 16.0713 38.4634 15.5727C38.3802 15.4896 38.2137 15.4065 38.1305 15.3235H37.964C37.964 15.1573 37.8807 15.1573 37.7975 15.0742C37.7143 14.9911 37.5478 14.908 37.3813 14.8249C37.3813 14.8249 37.2148 14.7418 37.1316 14.6587C37.0483 14.5756 36.9651 14.5756 36.8818 14.4925L36.6321 14.3263L36.3824 14.1602C36.3824 14.1602 36.2159 14.0771 36.1327 13.994C36.1327 13.994 36.1327 13.994 36.0494 13.994H35.9662L35.6332 13.7447H35.4667C35.4667 13.6616 35.4667 13.5785 35.4667 13.5785H35.3835C35.3003 13.5785 35.1338 13.4123 35.0505 13.4123H34.8841C34.8841 13.3292 34.8008 13.2461 34.7176 13.2461C34.6343 13.2461 34.4678 13.163 34.3846 13.0799H34.3014C34.3014 13.0799 34.1349 13.0799 34.0516 12.9969C33.9684 12.9969 33.8852 12.9138 33.8019 12.8307C33.7187 12.8307 33.6354 12.8307 33.5522 12.7476C33.4689 12.6645 33.3857 12.7476 33.3025 12.6645H33.136C33.136 12.5814 33.0527 12.5814 32.9695 12.4983C32.8863 12.4983 32.803 12.4152 32.6365 12.3321H32.4701C32.4701 12.3321 32.4701 12.3321 32.3868 12.3321C32.3036 12.3321 32.3868 12.3321 32.3036 12.3321L31.8874 12.1659C31.8874 12.1659 31.8874 12.1659 31.8041 12.1659C31.7209 12.1659 31.8041 12.1659 31.7209 12.1659H31.4712L31.2214 11.9997H31.0549H30.6387C30.5555 11.8336 30.4723 11.8336 30.389 11.8336H30.2225C30.1393 11.8336 29.9728 11.7505 29.8896 11.6674C29.8063 11.5843 29.7231 11.6674 29.6398 11.6674H29.2236C29.2236 11.5843 28.9739 11.5012 28.9739 11.5012C28.9739 11.5012 28.8074 11.5012 28.7242 11.5012C28.5577 11.5012 28.3912 11.5012 28.2248 11.4181H28.0583C27.8918 11.4181 27.7253 11.4181 27.5588 11.4181C27.5588 11.4181 27.5588 11.4181 27.4756 11.4181H27.3923C27.3923 11.4181 27.2259 11.4181 27.1426 11.4181C27.0594 11.4181 26.9761 11.4181 26.8929 11.4181C26.8096 11.4181 26.7264 11.4181 26.6432 11.4181H26.0605C26.0605 11.4181 26.0605 11.4181 25.9772 11.4181H25.8108C25.8108 11.4181 25.6443 11.4181 25.561 11.4181H25.2281C25.3113 11.2519 25.3945 11.0857 25.561 10.9195C25.561 10.9195 25.6443 10.8364 25.7275 10.7533C25.7275 10.6702 25.894 10.5872 25.894 10.5041C25.9772 10.3379 26.0605 10.2548 26.227 10.0886C26.3102 9.92241 26.4767 9.83932 26.4767 9.75623C27.975 7.92818 29.8063 6.26632 31.8041 4.93684L31.4712 5.10302C31.4712 5.10302 31.4712 5.10302 31.3047 5.18611C31.3047 5.18611 31.3047 5.26921 31.2214 5.26921C31.2214 5.26921 31.1382 5.26921 31.0549 5.4354C31.2214 5.26921 31.3047 5.3523 31.2214 5.4354C30.9717 5.60158 30.722 5.85086 30.4723 6.01704C30.4723 6.01704 30.3058 6.10014 30.3058 6.18323C30.3058 6.18323 30.3058 6.18323 30.2225 6.18323H30.1393C30.0561 6.34942 29.8896 6.43251 29.8063 6.5156C29.8063 6.5156 29.8063 6.5987 29.7231 6.68179C29.6398 6.76488 29.4734 6.84797 29.3901 7.01416C29.3901 7.01416 29.3069 7.09725 29.2236 7.18035C29.1404 7.26344 29.1404 7.26344 29.0572 7.34653C28.9739 7.42963 28.8074 7.59581 28.7242 7.6789C28.7242 7.6789 28.7242 7.6789 28.7242 7.762C28.7242 7.84509 28.7242 7.762 28.7242 7.84509L28.5577 8.01128C28.5577 8.01128 28.7242 7.92818 28.7242 7.84509C28.7242 7.84509 28.7242 7.84509 28.8074 7.762C28.8907 7.6789 28.8074 7.762 28.8907 7.6789C29.0572 7.59581 29.1404 7.42962 29.3069 7.26344C29.5566 7.01416 29.8896 6.76488 30.1393 6.5156C30.1393 6.5156 30.1393 6.5156 30.2225 6.43251C30.3058 6.34942 30.2225 6.43251 30.3058 6.34942C30.3058 6.34942 30.4723 6.26632 30.5555 6.18323C30.6387 6.10014 30.722 6.10014 30.722 6.01704H30.8052C30.8052 5.93395 30.8052 5.93395 30.8052 5.85086L31.1382 5.68467H31.3047C31.3047 5.51849 31.3047 5.51849 31.3879 5.51849C31.3879 5.51849 31.5544 5.43539 31.6376 5.3523C31.7209 5.26921 31.8041 5.26921 31.8874 5.18611C31.8874 5.18611 31.8874 5.18611 31.9706 5.18611C32.1371 5.18611 32.3036 5.01993 32.4701 4.93684C32.6365 4.85374 32.803 4.77065 32.9695 4.68756C32.9695 4.68756 32.9695 4.68756 33.0527 4.68756C33.0527 4.68756 32.9695 4.77065 32.8863 4.85374C32.803 4.85374 32.6365 5.01993 32.5533 5.01993C32.5533 5.01993 32.5533 5.01993 32.4701 5.01993H32.3868C32.3868 5.18612 32.2203 5.18612 32.1371 5.26921C32.0538 5.3523 31.9706 5.3523 31.8874 5.4354C31.8041 5.51849 31.7209 5.51849 31.6376 5.60158C31.5544 5.68467 31.4712 5.68467 31.3879 5.76777L31.1382 5.93395L30.8885 6.10014C30.8885 6.10014 30.8885 6.10014 30.722 6.18323C30.5555 6.26632 30.722 6.18323 30.6387 6.26632C30.6387 6.34942 30.6387 6.26632 30.722 6.26632C30.8885 6.18323 31.055 6.01704 31.2214 5.93395C31.2214 5.93395 31.3879 5.85086 31.4712 5.76777C31.5544 5.68467 31.6376 5.68467 31.7209 5.60158C31.8874 5.60158 31.7209 5.68467 31.5544 5.93395C31.3047 6.10014 31.055 6.34942 30.8052 6.5156C30.5555 6.68179 30.3058 6.93107 30.1393 7.01416C29.5566 7.51272 28.9739 8.09437 28.3912 8.67602C28.3912 8.67602 28.2248 8.8422 28.2248 8.9253H28.0583C28.0583 9.09148 28.0583 9.09149 27.975 9.17458L27.5588 9.67314C27.3923 9.83932 27.3091 10.0055 27.1426 10.1717C27.1426 10.1717 27.1426 10.2548 27.0594 10.2548C26.9761 10.2548 27.0594 10.3379 26.9761 10.3379C26.9761 10.421 26.8929 10.5041 26.8096 10.5872C27.0594 10.2548 27.3923 9.92242 27.6421 9.59004C27.6421 9.50695 27.8085 9.42385 27.8085 9.34076C27.8085 9.34076 27.8085 9.34076 27.8918 9.25767V9.17458C28.0583 9.00839 28.1415 8.84221 28.308 8.75911C28.4745 8.59293 28.5577 8.50984 28.7242 8.34365C28.8907 8.17746 29.0572 8.09437 29.1404 7.92818C29.1404 7.92818 29.1404 7.92818 29.2236 7.84509C29.3069 7.762 29.2236 7.84509 29.3069 7.762C29.3069 7.762 29.4734 7.59581 29.5566 7.59581C29.5566 7.59581 29.5566 7.59581 29.6398 7.51272C29.7231 7.42963 29.6398 7.51272 29.7231 7.42962C29.7231 7.42962 29.8896 7.34653 29.8896 7.26344C29.8896 7.26344 30.0561 7.18035 30.1393 7.09725C30.2225 7.01416 30.3058 6.93107 30.389 6.93107C30.4723 6.93107 30.5555 6.76488 30.6387 6.76488C30.6387 6.76488 30.6387 6.76488 30.722 6.76488C30.722 6.76488 30.722 6.93107 30.5555 6.93107C30.4723 7.01416 30.389 7.09725 30.3058 7.18035C30.389 7.09725 30.5555 7.01416 30.6387 6.93107C30.722 6.84797 30.8885 6.76488 30.9717 6.68179C31.1382 6.5156 31.4712 6.34942 31.5544 6.26632L31.7209 6.18323C31.7209 6.18323 31.8041 6.10014 31.8874 6.01704C31.8874 6.01704 32.0538 5.93395 32.1371 5.85086C32.1371 5.85086 32.1371 5.85086 32.2203 5.85086H32.3036L32.4701 5.68467L32.6365 5.60158H32.7198C32.7198 5.60158 32.7198 5.51849 32.803 5.51849C32.9695 5.51849 33.0527 5.3523 33.2192 5.26921H33.3025C33.3025 5.26921 33.3025 5.18611 33.3857 5.18611C33.3857 5.18611 33.5522 5.18611 33.5522 5.10302C33.5522 5.01993 33.7187 5.01993 33.7187 5.01993C33.8019 5.01993 33.9684 4.93684 34.0516 4.85374C34.1349 4.77065 34.3014 4.77065 34.3846 4.68756L34.8008 4.52137H34.8841L35.1338 4.43828H35.3835C35.3835 4.35519 35.55 4.27209 35.55 4.27209L35.9662 4.10591C36.0494 4.10591 35.9662 4.10591 36.0494 4.10591C36.8818 3.77353 37.7142 3.52426 38.5467 3.35807C38.5467 3.35807 38.5467 3.35807 38.6299 3.35807C38.7131 3.35807 38.6299 3.35807 38.7964 3.35807C38.7964 3.35807 38.8796 3.35807 38.9629 3.35807C39.9618 3.10879 41.0439 2.9426 42.0428 2.85951H42.3758H42.5422H42.6255C42.6255 2.85951 42.6255 2.85951 42.7087 2.85951C42.7087 2.85951 42.7087 2.85951 42.7087 2.94261V3.0257C42.7087 3.10879 42.792 3.27498 42.8752 3.35807C42.9585 3.44116 42.9584 3.60735 43.0417 3.69044L43.2914 4.189C43.2914 4.189 43.2914 4.189 43.2914 4.35518C43.2914 4.52137 43.2914 4.35518 43.2914 4.52137V4.77065C43.3747 4.77065 43.4579 4.77065 43.4579 4.85374C43.4579 4.93684 43.4579 4.85374 43.4579 4.93684C43.4579 4.93684 43.4579 5.10302 43.5411 5.18611C43.6244 5.26921 43.5411 5.3523 43.6244 5.4354C43.7076 5.51849 43.6244 5.60158 43.6244 5.68467C43.6244 5.93395 43.7909 6.10014 43.8741 6.26632C43.8741 6.43251 44.0406 6.68179 44.0406 6.84797C44.1238 7.26344 44.2903 7.6789 44.3735 8.09437C44.3735 8.09437 44.3735 8.26056 44.3735 8.34365C44.3735 8.34365 44.3735 8.34365 44.3735 8.42674C44.3735 8.50983 44.3735 8.42674 44.3735 8.50983C44.3735 8.67602 44.3736 8.84221 44.4568 9.00839C44.4568 9.00839 44.4568 9.17458 44.4568 9.25767C44.4568 9.34076 44.4568 9.42386 44.4568 9.50695C44.4568 9.59004 44.4568 9.67313 44.4568 9.75623C44.4568 9.83932 44.4568 9.92241 44.4568 9.92241C44.4568 10.0055 44.4568 10.0886 44.4568 10.2548C44.4568 10.2548 44.4568 10.421 44.4568 10.5041C44.4568 10.5872 44.4568 10.6702 44.4568 10.7533C44.4568 11.0026 44.4568 11.1688 44.4568 11.4181C44.4568 11.6674 44.4568 11.8336 44.4568 12.0828C44.4568 12.0828 44.4568 12.0828 44.4568 12.1659C44.4568 12.249 44.4568 12.1659 44.4568 12.249C44.4568 12.249 44.4568 12.3321 44.4568 12.4152C44.4568 12.4983 44.4568 12.6645 44.4568 12.7476C44.4568 12.8307 44.4568 12.9969 44.4568 13.0799V14.2432L45.206 12.7476ZM45.3724 35.1827C45.3724 35.0165 45.3724 34.9334 45.3724 34.8503V34.5179C45.3724 34.5179 45.3724 34.3517 45.3724 34.2687C45.3724 34.5179 45.3724 34.5179 45.3724 34.4348C45.3724 34.4348 45.3724 34.2687 45.3724 34.1856C45.3724 34.1025 45.3724 34.0194 45.3724 33.9363C45.3724 33.7701 45.3724 33.6039 45.3724 33.4377C45.3724 33.2715 45.3724 33.1054 45.3724 32.9392C45.3724 32.9392 45.3724 32.9392 45.3724 32.8561C45.3724 32.773 45.3724 32.8561 45.3724 32.773V32.6068C45.3724 32.6068 45.3724 32.5237 45.3724 32.4406C45.3724 32.4406 45.3724 32.2744 45.3724 32.1913C45.3724 32.1913 45.3724 32.0251 45.3724 31.9421C45.3724 31.7759 45.3724 31.6097 45.2892 31.5266C45.206 31.4435 45.2892 31.1942 45.206 31.1111V30.8618C45.206 30.8618 45.1227 30.6957 45.1227 30.6126C45.2892 31.2773 45.4557 32.0251 45.6222 32.8561C45.6222 32.8561 45.6222 32.8561 45.6222 32.9392C45.6222 33.1054 45.6222 33.2715 45.7054 33.4377C45.7054 33.5208 45.7054 33.5208 45.7054 33.6039C45.7054 33.6039 45.7054 33.6039 45.7054 33.7701C45.7054 33.7701 45.7054 33.9363 45.7054 34.0194C45.7054 34.0194 45.7054 34.1025 45.7054 34.1856C45.7054 34.4348 45.7054 34.601 45.7054 34.7672C45.7054 34.9334 45.7054 35.1827 45.7054 35.3489V35.5981C45.7054 35.6812 45.7054 35.7643 45.7054 35.8474C45.7054 35.9305 45.7054 36.0136 45.7054 36.0967V36.4291C45.7054 36.4291 45.7054 36.346 45.7054 36.2629V36.0967V35.9305C45.7054 35.9305 45.7054 35.7643 45.7054 35.6812C45.7054 35.6812 45.7054 35.5981 45.7054 35.515C45.7054 35.432 45.7054 35.432 45.7054 35.3489C45.7054 35.1827 45.7054 34.9334 45.7054 34.6841C45.7054 34.4348 45.7054 34.2687 45.7054 34.0194C45.7054 33.7701 45.7054 33.6039 45.6222 33.3546C45.6222 33.5208 45.6222 33.7701 45.6222 33.9363C45.6222 34.1025 45.6222 34.3517 45.6222 34.5179C45.6222 34.6841 45.4557 34.5179 45.4557 34.1856C45.4557 34.1856 45.4557 34.0194 45.4557 33.9363V33.7701C45.4557 33.7701 45.4557 33.6039 45.4557 33.5208V33.3546C45.4557 33.3546 45.4557 33.2715 45.4557 33.1884C45.4557 33.0223 45.4557 32.8561 45.4557 32.6899C45.4557 32.5237 45.4557 32.4406 45.4557 32.3575C45.4557 31.9421 45.2892 31.6097 45.206 31.1942C45.206 31.028 45.1227 30.7787 45.0395 30.6126C44.9562 30.4464 44.9562 30.1971 44.873 30.0309C44.6233 29.2831 44.3736 28.4521 44.0406 27.7043C44.0406 27.7874 44.0406 27.9536 44.1238 28.0367C44.1238 28.0367 44.1238 28.1198 44.1238 28.2029C44.1238 28.286 44.1238 28.286 44.1238 28.3691C44.1238 28.4521 44.1238 28.5352 44.2071 28.7014C44.2071 28.7014 44.2071 28.7845 44.2071 28.8676C44.2071 28.8676 44.2071 28.9507 44.2071 29.0338C44.2071 29.1169 44.2071 29.2 44.2903 29.3662C44.2903 29.4493 44.2903 29.5324 44.2903 29.6154C44.2903 29.6985 44.2903 29.7816 44.3735 29.9478C44.3735 29.9478 44.3735 30.0309 44.3735 30.114V30.2802C44.3735 30.4464 44.4568 30.6957 44.54 30.8618C44.54 30.9449 44.54 31.028 44.54 31.1942C44.54 31.1942 44.54 31.2773 44.54 31.3604C44.54 31.4435 44.54 31.4435 44.54 31.5266C44.54 31.6097 44.54 31.6928 44.54 31.859C44.54 31.942 44.54 32.0251 44.54 32.1913C44.54 32.3575 44.54 32.6068 44.6233 32.773C44.6233 32.9392 44.6233 33.1884 44.6233 33.3546C44.6233 33.3546 44.6233 33.4377 44.6233 33.5208C44.6233 33.6039 44.6233 33.687 44.6233 33.7701C44.6233 33.7701 44.54 33.6039 44.54 33.5208C44.54 33.5208 44.54 33.4377 44.54 33.3546C44.54 33.2715 44.54 33.1884 44.54 33.1054C44.54 33.1054 44.54 33.1054 44.54 33.1884C44.54 33.2715 44.54 33.1884 44.54 33.2715C44.54 33.2715 44.54 33.4377 44.54 33.5208C44.54 33.6039 44.54 33.687 44.54 33.7701C44.54 33.8532 44.54 33.9363 44.54 33.9363C44.54 34.0194 44.54 34.1856 44.54 34.3517V34.5179C44.54 34.5179 44.54 34.601 44.54 34.6841V34.8503C44.54 34.8503 44.54 35.0165 44.54 35.0996C44.54 35.1827 44.54 35.2658 44.54 35.2658C44.54 35.2658 44.54 35.2658 44.54 35.3489C44.54 35.515 44.54 35.6812 44.54 35.8474C44.54 36.0136 44.54 36.1798 44.54 36.346V36.5953C44.54 36.5953 44.54 36.7614 44.54 36.8445C44.54 37.0107 44.54 37.1769 44.54 37.3431V37.5093C44.54 37.5093 44.54 37.5093 44.54 37.5924C44.54 37.6755 44.54 37.8417 44.54 38.0078C44.54 38.174 44.54 38.2571 44.54 38.4233C44.54 38.4233 44.54 38.5895 44.54 38.6726C44.54 38.8388 44.54 38.8388 44.54 38.9219C44.54 39.088 44.54 39.2542 44.54 39.4204C44.54 39.5866 44.54 39.5866 44.54 39.6697C44.54 39.6697 44.54 39.8359 44.54 39.919C44.54 40.0852 44.54 40.1683 44.54 40.3344C44.54 40.4175 44.54 40.3344 44.54 40.4175C44.54 40.5006 44.54 40.6668 44.54 40.7499C44.54 40.7499 44.54 40.833 44.54 40.9161C44.54 41.1654 44.4568 41.3316 44.3735 41.5808C44.2903 41.8301 44.2903 41.9963 44.2071 42.2456C44.2071 42.4118 44.2071 42.4118 44.2071 42.4949C44.2071 42.5779 44.2071 42.7441 44.1238 42.8272C44.1238 42.8272 44.1238 42.8272 44.1238 42.9103C44.1238 42.9934 44.1238 42.9934 44.1238 43.0765C44.1238 43.0765 44.1238 43.1596 44.1238 43.2427C43.7909 44.2398 43.4579 45.2369 43.0417 46.234V46.4833L42.8752 46.8157V46.8988C42.8752 46.8988 42.8752 46.8988 42.792 46.8988H42.6255C42.5422 46.8988 42.3758 46.8988 42.2925 46.8988C42.2925 46.8988 42.2093 46.8988 42.126 46.8988C42.126 46.8988 42.126 46.8988 42.0428 46.8988C41.9596 46.8988 42.0428 46.8988 41.9596 46.8988H41.3769C41.3769 46.8988 41.2936 46.8988 41.2104 46.8988H40.9607H40.7942C40.7942 46.8988 40.7109 46.8988 40.6277 46.8988C40.6277 46.8988 40.4612 46.8988 40.378 46.8988H40.1282C40.1282 46.8988 40.1282 46.8988 40.045 46.8988C39.9618 46.8988 40.045 46.8988 39.9618 46.8988C39.1294 46.7326 38.2969 46.5664 37.5478 46.3171H37.4645C37.4645 46.3171 37.4645 46.3171 37.3813 46.3171H37.1316C37.1316 46.234 36.9651 46.234 36.8818 46.151C36.8818 46.151 36.8818 46.151 36.7986 46.151H36.7154L36.2991 45.9848C36.2991 45.9848 36.2992 45.9848 36.2159 45.9848C36.1327 45.9848 36.2159 45.9848 36.1327 45.9848H35.9662C35.9662 45.9848 35.7997 45.9848 35.7165 45.9017C35.7165 45.9017 35.7165 45.9017 35.6332 45.9017H35.55C35.55 45.8186 35.3835 45.8186 35.3003 45.7355H35.0505C35.0505 45.6524 34.8008 45.4862 34.8008 45.4862C34.7176 45.4862 34.6343 45.4862 34.5511 45.32C34.5511 45.32 34.4678 45.32 34.3846 45.32C34.3846 45.32 34.3014 45.32 34.2181 45.32C34.1349 45.32 34.0516 45.2369 33.8852 45.1538H33.8019C33.8019 45.1538 33.7187 45.0707 33.6354 44.9876L33.3025 44.8215C33.3025 44.8215 33.3025 44.8215 33.3025 44.7384C33.3025 44.7384 33.2192 44.7384 33.136 44.7384C33.0527 44.7384 32.8863 44.5722 32.803 44.5722C32.803 44.5722 32.7198 44.5722 32.6365 44.4891C32.5533 44.406 32.5533 44.4891 32.4701 44.406C32.4701 44.406 32.3036 44.3229 32.2203 44.2398C32.2203 44.2398 32.2203 44.2398 32.1371 44.2398C32.0538 44.2398 32.1371 44.2398 32.0538 44.2398C31.9706 44.2398 31.8041 44.0736 31.7209 44.0736C31.7209 44.0736 31.6376 44.0736 31.5544 43.9905C31.4712 43.9074 31.4712 43.9905 31.3879 43.9074C31.2214 43.7412 30.9717 43.6582 30.8052 43.492C30.722 43.4089 30.5555 43.3258 30.389 43.2427L30.0561 42.9103H29.9728L29.8896 42.7441L29.7231 42.5779L29.5566 42.4118L29.3901 42.2456L28.9739 41.8301C28.9739 41.8301 28.9739 41.8301 28.8907 41.747C28.8907 41.747 28.7242 41.5808 28.641 41.5808C28.4745 41.4146 28.3912 41.3316 28.2248 41.1654L28.0583 40.9992C28.0583 40.9992 27.975 40.833 27.8918 40.833C27.8085 40.7499 27.7253 40.6668 27.6421 40.5006C27.6421 40.5006 27.5588 40.4175 27.4756 40.3344L27.3091 40.1683C27.3091 40.1683 27.2259 40.0852 27.1426 40.0021C27.1426 39.919 27.1426 39.8359 27.1426 39.8359C27.0594 39.7528 26.9761 39.5866 26.8096 39.5035C26.8096 39.5035 26.8096 39.4204 26.7264 39.3373C26.7264 39.2542 26.5599 39.1711 26.4767 39.088V38.9219C26.3102 38.9219 26.3102 38.8388 26.227 38.7557C26.227 38.6726 26.0605 38.5895 25.9772 38.4233C25.9772 38.4233 25.9772 38.4233 25.9772 38.3402C25.9772 38.3402 26.0605 38.3402 26.1437 38.3402H26.3934C26.5599 38.3402 26.6432 38.3402 26.8096 38.3402C26.9761 38.3402 27.0594 38.3402 27.2259 38.3402C27.3923 38.3402 27.4756 38.3402 27.6421 38.3402C27.7253 38.3402 27.8085 38.3402 27.8918 38.3402C27.8918 38.3402 28.0583 38.3402 28.1415 38.3402C28.1415 38.3402 28.1415 38.3402 28.2248 38.3402C28.308 38.3402 28.2247 38.3402 28.308 38.3402C28.4745 38.3402 28.5577 38.3402 28.7242 38.2571C29.2236 38.174 29.7231 38.0909 30.2225 37.9247H30.389C30.389 37.9247 30.4723 37.9247 30.5555 37.8417C30.6387 37.8417 30.8052 37.8417 30.9717 37.7586C30.9717 37.7586 30.9717 37.7586 31.0549 37.7586C31.0549 37.7586 31.055 37.7586 31.1382 37.7586H31.3047C31.4712 37.6755 31.5544 37.5924 31.6376 37.5924C32.3868 37.3431 33.2192 37.0107 33.9684 36.6783C34.1349 36.6783 34.2181 36.5953 34.3014 36.5122H34.4678C34.4678 36.4291 34.5511 36.346 34.6343 36.346C34.8008 36.346 34.884 36.1798 35.0505 36.1798C35.0505 36.1798 35.0505 36.1798 35.1338 36.1798C35.217 36.1798 35.1338 36.1798 35.217 36.1798L35.4667 36.0136C35.4667 36.0136 35.6332 36.0136 35.7165 35.8474C35.7997 35.6812 35.8829 35.7643 35.9662 35.6812C36.0494 35.5981 36.1327 35.5981 36.2159 35.515C36.2992 35.432 36.3824 35.432 36.4656 35.3489L36.7986 35.0996H36.9651C36.9651 34.9334 37.0483 34.9334 37.1316 34.8503L37.4645 34.601C37.4645 34.601 37.5478 34.601 37.631 34.5179C37.7142 34.4348 37.7143 34.5179 37.7975 34.4348C37.8807 34.4348 38.0472 34.2687 38.1305 34.1856C38.2969 34.1025 38.3802 33.9363 38.5467 33.8532C38.5467 33.8532 38.7131 33.7701 38.7964 33.687V33.6039H38.8796C38.8796 33.4377 39.0461 33.4377 39.1294 33.3546C39.2958 33.1884 39.4623 33.1054 39.6288 32.9392C39.712 32.9392 39.8785 32.773 39.9618 32.6899C40.1282 32.6068 40.2115 32.4406 40.2947 32.3575C40.2947 32.3575 40.2947 32.3575 40.378 32.3575C40.4612 32.3575 40.378 32.3575 40.4612 32.3575C40.4612 32.3575 40.5444 32.2744 40.6277 32.1913C40.7109 32.1082 40.7109 32.1082 40.7942 32.0251C40.8774 31.9421 40.8774 31.942 40.9607 31.859C41.0439 31.7759 41.1271 31.6928 41.2936 31.5266C41.2936 31.5266 41.2936 31.5266 41.3769 31.4435C41.3769 31.4435 41.3769 31.3604 41.5434 31.2773C41.5434 31.2773 41.7098 31.1111 41.7931 31.028C41.7931 31.028 41.7931 31.028 41.8763 30.9449C41.9596 30.8618 41.8763 30.9449 41.9596 30.8618C42.0428 30.6957 42.2093 30.6126 42.2093 30.5295L42.3758 30.3633L42.5422 30.1971C42.6255 30.0309 42.792 29.9478 42.8752 29.8647C42.8752 29.8647 42.8752 29.7816 42.9585 29.7816L43.2914 29.3662C43.2914 29.3662 43.3747 29.2831 43.4579 29.2C43.5411 29.1169 43.5411 29.1169 43.6244 29.0338L43.7909 28.8676C43.7909 28.8676 43.8741 28.7014 43.9573 28.7014L44.2903 28.286C44.2903 28.286 44.2903 28.286 44.2903 28.1198C44.2903 27.9536 44.3736 27.9536 44.4568 27.9536C44.4568 27.8705 44.54 27.7874 44.6233 27.7043C44.6233 27.8705 44.7898 28.0367 44.873 28.2029C44.873 28.2029 44.873 28.286 44.873 28.3691C44.873 28.4521 44.9562 28.6183 45.0395 28.7014C45.0395 28.7845 45.1227 28.8676 45.1227 28.9507C45.1227 28.9507 45.1227 29.1169 45.206 29.2C45.206 29.3662 45.2892 29.5324 45.3724 29.6154C46.2049 31.859 46.7043 34.2687 46.8708 36.6783M25.3113 37.0938C25.1448 37.0938 24.9783 37.0938 24.7286 37.0938C24.7286 37.0938 24.7286 37.0938 24.6454 37.0938C24.5621 37.0938 24.5621 37.0938 24.4789 37.0938C24.3957 37.0938 24.2292 37.0938 24.2292 37.0938H23.8962C23.813 36.9276 23.7297 36.7614 23.6465 36.5953C23.6465 36.5953 23.6465 36.4291 23.5632 36.4291C23.5632 36.346 23.48 36.1798 23.3968 36.0967C23.3968 36.0967 23.3135 35.9305 23.2303 35.8474C23.2303 35.8474 23.2303 35.8474 23.2303 35.7643C23.2303 35.6812 23.2303 35.7643 23.2303 35.5981C23.2303 35.432 23.0638 35.2658 23.0638 35.1827C22.1481 32.8561 21.4822 30.4464 21.3157 27.9536C21.3157 28.1198 21.3157 28.2029 21.3157 28.286C21.3157 28.3691 21.3157 28.4521 21.3157 28.7014C21.3157 28.7014 21.3157 28.8676 21.3157 28.9507C21.3157 28.7014 21.3157 28.7014 21.3157 28.7845C21.3157 28.9507 21.3157 29.1169 21.3157 29.2831C21.3157 29.3662 21.3157 29.4493 21.3157 29.4493C21.3157 29.4493 21.3157 29.6154 21.3157 29.6985C21.3157 29.7816 21.3157 29.8647 21.3157 29.9478C21.3157 29.9478 21.3157 29.9478 21.3157 30.0309C21.3157 30.114 21.3157 30.0309 21.3157 30.114C21.3157 30.2802 21.3157 30.4464 21.3157 30.5295C21.3157 30.5295 21.3157 30.6126 21.3157 30.6957C21.3157 30.8618 21.3157 31.028 21.399 31.1111C21.399 31.1111 21.399 31.2773 21.399 31.3604C21.399 31.4435 21.399 31.5266 21.399 31.6097C21.399 31.7759 21.4822 31.9421 21.4822 32.1082C21.4822 32.2744 21.5655 32.4406 21.6487 32.6068C21.6487 32.5237 21.6487 32.4406 21.6487 32.3575C21.6487 32.3575 21.6487 32.2744 21.6487 32.1913C21.6487 32.1082 21.6487 32.1082 21.6487 32.0251C21.6487 31.859 21.5655 31.6928 21.4822 31.4435C21.4822 31.4435 21.4822 31.3604 21.4822 31.2773C21.4822 31.1942 21.4822 31.1942 21.4822 31.1111C21.4822 31.028 21.4822 30.9449 21.4822 30.8618C21.4822 30.7787 21.4822 30.6957 21.4822 30.5295C21.4822 30.3633 21.4822 30.3633 21.4822 30.1971C21.4822 30.1971 21.4822 30.1971 21.4822 30.114C21.4822 30.0309 21.4822 29.9478 21.4822 29.8647C21.4822 29.7816 21.4822 29.6985 21.4822 29.6154C21.4822 29.4493 21.4822 29.2831 21.399 29.1169C21.399 28.9507 21.399 28.8676 21.399 28.7845C21.399 28.7014 21.399 28.5352 21.399 28.4521C21.399 28.4521 21.399 28.3691 21.399 28.286C21.399 28.286 21.399 28.2029 21.399 28.1198C21.399 28.0367 21.399 27.9536 21.399 27.7874C21.399 27.6212 21.399 27.6212 21.399 27.5381V26.7072C21.399 26.6241 21.399 26.541 21.399 26.3748C21.399 26.3748 21.399 26.3748 21.399 26.2917C21.399 26.2917 21.399 26.3748 21.399 26.4579C21.399 26.6241 21.399 26.7072 21.399 26.8734C21.399 27.0396 21.399 27.2058 21.399 27.455C21.399 27.455 21.399 27.5381 21.399 27.6212C21.399 27.7043 21.399 27.7043 21.399 27.7874C21.399 27.8705 21.399 28.0367 21.399 28.1198C21.399 28.1198 21.399 28.2029 21.399 28.286C21.399 28.4521 21.399 28.6183 21.399 28.7014C21.399 28.7014 21.399 28.7845 21.399 28.8676C21.399 28.9507 21.399 29.1169 21.399 29.2C21.399 29.1169 21.399 29.0338 21.399 28.8676C21.399 28.7014 21.399 28.7014 21.399 28.5352C21.399 28.3691 21.399 28.3691 21.399 28.2029C21.399 28.2029 21.399 28.1198 21.399 28.0367V27.8705C21.399 27.8705 21.399 27.8705 21.4822 27.8705C21.4822 27.9536 21.4822 28.1198 21.5654 28.2029C21.5654 28.3691 21.5654 28.5352 21.5654 28.7014C21.5654 28.7845 21.5654 28.8676 21.5654 28.9507C21.5654 29.0338 21.5654 29.1169 21.5654 29.2C21.5654 29.2831 21.5654 29.3662 21.5654 29.4493C21.5654 29.5324 21.5654 29.6154 21.5654 29.6985C21.5654 29.8647 21.5654 29.9478 21.5654 30.0309C21.7319 30.8618 21.9817 31.6097 22.2314 32.4406C22.2314 32.5237 22.2314 32.6068 22.3146 32.773V32.9392C22.3146 32.9392 22.3979 33.0223 22.3979 33.1054C22.3979 33.2715 22.5643 33.5208 22.6476 33.687C22.7308 33.8532 22.8141 34.1025 22.8973 34.2687C22.8973 34.3517 22.9806 34.4348 23.0638 34.5179C23.147 34.601 23.147 34.6841 23.2303 34.7672C23.2303 34.6841 23.147 34.5179 23.0638 34.4348C23.0638 34.4348 23.0638 34.3517 23.0638 34.2687C23.0638 34.1856 23.0638 34.1856 23.0638 34.1025C23.0638 34.0194 22.9806 33.9363 22.8973 33.7701C22.8141 33.6039 22.8141 33.6039 22.7308 33.4377C22.6476 33.2715 22.6476 33.2715 22.6476 33.1054C22.6476 33.1054 22.6476 33.0223 22.6476 32.9392C22.6476 32.773 22.4811 32.5237 22.4811 32.3575C22.4811 32.1913 22.3979 31.942 22.3146 31.7759C22.2314 31.6097 22.2314 31.3604 22.1481 31.1111C22.1481 31.1111 22.1481 31.028 22.1481 30.9449C22.1481 30.8618 22.1481 30.8618 22.1481 30.7788C22.1481 30.6957 22.1481 30.6126 22.1481 30.4464C22.1481 30.4464 22.1481 30.3633 22.1481 30.2802C22.1481 30.114 22.1481 30.0309 22.1481 29.9478C22.1481 29.7816 22.1481 29.6154 22.0649 29.3662C22.0649 29.2831 22.0649 29.1169 22.0649 29.0338C22.0649 29.0338 22.0649 28.9507 22.0649 28.8676C22.0649 28.7845 22.0649 28.7845 22.0649 28.7014C22.1481 28.8676 22.2314 29.1169 22.3146 29.2831C22.3146 29.1169 22.3146 28.9507 22.3146 28.7845C22.3146 28.7845 22.3146 28.6183 22.3146 28.5352C22.3146 28.4521 22.3146 28.3691 22.3146 28.3691C22.3146 28.3691 22.3146 28.286 22.3146 28.2029C22.3146 28.2029 22.3146 28.2029 22.3146 28.1198C22.3146 28.0367 22.3146 28.1198 22.3146 28.0367C22.3146 27.9536 22.3146 27.7874 22.3146 27.7043V27.5381C22.3146 27.5381 22.3146 27.5381 22.3146 27.455C22.3146 27.3719 22.3146 27.455 22.3146 27.2888C22.3146 27.2057 22.3146 27.1227 22.3146 26.9565C22.3146 26.6241 22.3146 26.2917 22.3146 26.0424C22.3146 26.0424 22.3146 26.0424 22.3146 25.9594V25.3777V24.9622C22.3146 24.9622 22.3146 24.9622 22.3146 24.8792C22.3146 24.8792 22.3146 24.8791 22.3146 24.7961C22.3146 24.713 22.3146 24.6299 22.3146 24.6299V24.4637C22.3146 24.2975 22.3146 24.2144 22.3146 24.0482C22.3146 23.882 22.3146 23.7158 22.3146 23.5497V23.3004V23.2173V23.1342C22.3146 22.8018 22.3146 22.4695 22.3979 22.2202C22.3979 22.1371 22.3979 22.2202 22.3979 22.1371C22.5643 21.2231 22.7308 20.309 22.9806 19.4781C22.9806 19.4781 22.9806 19.4781 22.9806 19.395C22.9806 19.3119 22.9806 19.3119 22.9806 19.1457C22.9806 19.1457 22.9806 19.0626 22.9806 18.9795C23.3135 17.8993 23.6465 16.9022 24.0627 15.9051V15.7389C24.1459 15.7389 24.2292 15.6558 24.2292 15.5727C24.2292 15.4896 24.3124 15.3235 24.3957 15.2404C24.3957 15.2404 24.3957 15.1573 24.4789 15.0742V14.9911H24.8951H25.2281C25.2281 14.9911 25.3113 14.9911 25.3945 14.9911H25.561H25.8108H26.0605C26.1437 14.9911 26.227 14.9911 26.3102 14.9911H26.5599C26.5599 14.9911 26.6432 14.9911 26.7264 14.9911C26.8929 14.9911 27.0594 14.9911 27.2259 15.0742C27.6421 15.0742 28.1415 15.2404 28.5577 15.3235H28.7242C28.7242 15.3235 28.8074 15.3235 28.8907 15.3235H29.2236C29.2236 15.4065 29.5566 15.4896 29.5566 15.4896C29.6399 15.4896 29.7231 15.4896 29.8896 15.5727C30.4723 15.7389 31.1382 15.9882 31.6376 16.1544C31.6376 16.1544 31.8041 16.1544 31.8874 16.2375C31.8874 16.2375 32.0538 16.2375 32.1371 16.3206C32.1371 16.3206 32.1371 16.3206 32.2203 16.3206C32.3868 16.4037 32.6365 16.4868 32.803 16.5699C32.9695 16.6529 33.2192 16.736 33.3857 16.8191C33.3857 16.8191 33.4689 16.8191 33.5522 16.9022C33.6354 16.9853 33.6354 16.9022 33.7187 16.9853C33.8019 16.9853 33.9684 17.0684 34.0516 17.1515L34.2181 17.3177L34.5511 17.4839V17.567H34.7176C34.8008 17.7332 34.9673 17.8162 35.0505 17.8993C35.217 17.9824 35.3835 18.0655 35.4667 18.2317H35.6332C35.6332 18.3148 35.7997 18.481 35.7997 18.481C35.8829 18.481 36.0494 18.6472 36.1327 18.7303C36.1327 18.7303 36.2159 18.7303 36.2991 18.8134C36.3824 18.8134 36.4656 18.9795 36.6321 19.0626C37.1316 19.4781 37.631 19.8936 38.1305 20.309C38.6299 20.8076 39.2958 21.3892 39.7953 21.9709C39.7953 21.9709 39.8785 22.054 39.9618 22.1371C40.045 22.2202 40.045 22.2202 40.1282 22.3033C40.2115 22.3864 40.2947 22.5525 40.378 22.6356C40.378 22.6356 40.378 22.6356 40.378 22.7187C40.378 22.8849 40.4612 22.8849 40.5445 22.968C40.6277 23.0511 40.7109 23.2173 40.8774 23.3004C40.8774 23.3004 40.8774 23.3835 40.9607 23.4666C40.9607 23.5497 41.1271 23.6328 41.2104 23.7989C41.2936 23.9651 41.3769 23.9651 41.4601 24.1313L41.7098 24.4637C41.7098 24.5468 41.8763 24.6299 41.8763 24.7961C41.8763 24.9622 42.0428 24.9622 42.0428 25.1284C42.0428 25.2946 42.2093 25.2946 42.2093 25.4608C42.2093 25.4608 42.2093 25.4608 42.2093 25.5439C42.2093 25.5439 42.2093 25.627 42.126 25.7101C42.126 25.7101 42.126 25.7932 42.0428 25.8763C42.0428 26.0424 41.8763 26.1255 41.7931 26.2086C41.7098 26.2917 41.6266 26.4579 41.5434 26.541C41.5434 26.541 41.4601 26.7072 41.3769 26.7903C41.2936 26.8734 41.2104 27.0396 41.1271 27.1227C41.1271 27.1227 41.0439 27.2057 40.9607 27.2888C40.9607 27.2888 40.9607 27.2888 40.9607 27.3719C40.9607 27.455 40.9607 27.3719 40.9607 27.455C40.9607 27.5381 40.7942 27.6212 40.7109 27.7043C40.6277 27.7874 40.5445 27.8705 40.4612 27.9536C40.378 28.0367 40.2947 28.1198 40.2115 28.286L40.045 28.4521C40.045 28.4521 39.9618 28.5352 39.8785 28.6183C39.6288 28.9507 39.1294 29.3662 38.7964 29.6985C38.7964 29.6985 38.6299 29.8647 38.5467 29.9478H38.4634C38.4634 30.114 38.4634 30.114 38.3802 30.114C38.2137 30.2802 38.0472 30.3633 37.8807 30.5295C37.7143 30.6957 37.5478 30.7787 37.3813 30.9449C37.3813 30.9449 37.2148 31.1111 37.1316 31.1111C37.0483 31.1111 36.9651 31.2773 36.8818 31.2773L36.7154 31.4435C36.7154 31.4435 36.6321 31.4435 36.5489 31.5266C36.4656 31.5266 36.2992 31.6928 36.2159 31.7759H36.1327C36.1327 31.859 36.1327 31.859 36.0494 31.9421L35.8829 32.1082C35.7165 32.1913 35.6332 32.2744 35.4667 32.4406C35.3003 32.6068 35.1338 32.6068 34.9673 32.773C34.8008 32.9392 34.6343 32.9392 34.4678 33.0223C34.4678 33.0223 34.3846 33.0223 34.3014 33.1054C34.2181 33.1884 34.2181 33.1054 34.1349 33.1884C34.0516 33.1884 33.8852 33.3546 33.8019 33.4377C33.8019 33.4377 33.7187 33.4377 33.6354 33.5208H33.4689C33.3857 33.687 33.2192 33.687 33.136 33.7701C33.136 33.7701 33.0527 33.7701 32.9695 33.7701C32.8863 33.7701 32.803 33.7701 32.803 33.8532C32.803 33.9363 32.6365 33.8532 32.5533 34.0194C32.5533 34.0194 32.5533 34.0194 32.3868 34.0194H32.2203C32.1371 34.1025 32.0538 34.1856 31.9706 34.1856C31.8874 34.1856 31.8041 34.1856 31.7209 34.2687C31.6376 34.3517 31.5544 34.2687 31.4712 34.3517C31.3879 34.3517 31.3047 34.3517 31.1382 34.4348C31.1382 34.4348 31.0549 34.4348 30.9717 34.4348C30.8052 34.4348 30.722 34.5179 30.5555 34.601C30.389 34.601 30.2225 34.6841 30.0561 34.7672H29.8063L29.5566 34.9334C29.3901 34.9334 29.3069 35.0165 29.1404 35.0996C28.9739 35.1827 28.8907 35.0996 28.7242 35.1827C28.4745 35.1827 28.3912 35.1827 28.308 35.2658C28.0583 35.2658 27.8918 35.3489 27.7253 35.432C27.5588 35.515 27.3923 35.432 27.3091 35.515H27.0594C27.0594 35.515 27.0594 35.515 26.8929 35.515C26.7264 35.515 26.8929 35.515 26.7264 35.515H26.227C26.227 35.5981 26.0605 35.5981 26.0605 35.5981C25.894 35.5981 25.7275 35.5981 25.561 35.5981H25.4778C25.4778 35.5981 25.4778 35.5981 25.3945 35.5981H25.1448C25.1448 35.5981 24.9783 35.5981 24.8951 35.5981H24.8119M20.8995 35.5981H20.733C20.6498 35.5981 20.4833 35.5981 20.4001 35.5981C20.2336 35.5981 20.0671 35.5981 19.9006 35.5981C19.7341 35.5981 19.5677 35.5981 19.4844 35.5981C17.0704 35.1827 14.8229 34.4348 12.6586 33.3546C12.8251 33.3546 12.9084 33.4377 12.9916 33.5208C12.9916 33.5208 13.0748 33.5208 13.1581 33.5208C13.1581 33.5208 13.1581 33.5208 13.2413 33.5208C13.3246 33.5208 13.2413 33.5208 13.3246 33.5208H13.491C13.2413 33.4377 13.3246 33.3546 13.4078 33.4377C13.6575 33.6039 13.9905 33.687 14.3235 33.8532C14.3235 33.8532 14.4899 33.8532 14.5732 33.9363H14.6564L14.7397 34.0194C14.9061 34.0194 14.9894 34.1025 15.1559 34.1856H15.3224C15.4888 34.1856 15.5721 34.2687 15.7386 34.3517H15.9883C15.9883 34.4348 16.1548 34.4348 16.238 34.5179C16.4045 34.5179 16.571 34.601 16.6542 34.6841H16.7375H16.8207C16.8207 34.6841 16.9872 34.6841 17.0704 34.6841C16.9872 34.6841 16.9039 34.6841 16.8207 34.6841H16.6542C16.6542 34.6841 16.571 34.6841 16.4877 34.6841C16.3213 34.6841 16.1548 34.601 15.9883 34.5179C15.6553 34.4348 15.2391 34.2687 14.9061 34.1856H14.7397C14.7397 34.1856 14.6564 34.1856 14.5732 34.1025C14.4899 34.1025 14.4067 34.1025 14.3235 34.0194H14.0737C14.0737 33.9363 14.0737 33.8532 13.9905 33.8532C13.9073 33.8532 13.9905 33.8532 13.9073 33.8532C13.824 33.8532 13.7408 33.687 13.6575 33.6039C13.6575 33.6039 13.5743 33.6039 13.491 33.6039C13.4078 33.6039 13.4078 33.6039 13.3246 33.6039C13.2413 33.6039 13.1581 33.5208 13.0748 33.4377C12.9916 33.3546 12.9084 33.3546 12.8251 33.2715C12.8251 33.2715 12.8251 33.2715 12.7419 33.2715L12.2424 33.0223C12.0759 32.9392 11.9095 32.8561 11.743 32.6899C11.743 32.6899 11.8262 32.6899 11.9095 32.6899C11.9927 32.6899 12.1592 32.773 12.2424 32.8561H12.3257C12.3257 32.8561 12.4089 32.9392 12.4922 32.9392C12.5754 32.9392 12.6586 32.9392 12.7419 33.1054C12.8251 33.2715 12.9084 33.1884 12.9916 33.2715C13.0748 33.3546 13.1581 33.3546 13.2413 33.4377C13.3246 33.5208 13.4078 33.5208 13.5743 33.6039C13.7408 33.687 13.7408 33.687 13.9073 33.7701L14.2402 33.9363C14.2402 33.9363 14.3235 33.9363 14.4067 33.9363C14.4899 33.9363 14.4899 33.9363 14.5732 33.9363C14.6564 33.9363 14.5732 33.9363 14.5732 33.8532C14.4067 33.8532 14.2402 33.687 13.9905 33.6039C13.9073 33.6039 13.824 33.6039 13.7408 33.5208C13.6575 33.4377 13.5743 33.4377 13.491 33.3546C13.4078 33.1884 13.491 33.2715 13.824 33.3546C14.0737 33.4377 14.4067 33.6039 14.7397 33.7701C15.0726 33.9363 15.4056 34.0194 15.5721 34.1025C16.3212 34.3517 17.0704 34.601 17.9028 34.7672H18.2358L18.4023 34.8503C18.4023 34.8503 18.4855 34.8503 18.5688 34.8503C18.7352 34.8503 18.985 34.8503 19.1515 34.9334C19.1515 34.9334 19.2347 34.9334 19.3179 34.9334C19.4012 34.9334 19.4012 34.9334 19.4844 34.9334H19.8174C19.8174 34.9334 19.9006 34.9334 19.9839 34.9334H20.1503C20.2336 34.9334 20.3168 34.9334 20.4833 34.9334C20.0671 34.9334 19.5677 34.7672 19.1515 34.7672C19.0682 34.7672 18.9017 34.7672 18.8185 34.7672H18.652C18.4855 34.7672 18.2358 34.6841 18.0693 34.601C18.0693 34.601 18.0693 34.601 17.9861 34.601L17.4034 34.4348C17.2369 34.4348 16.9872 34.3517 16.8207 34.2687C16.8207 34.2687 16.7375 34.2687 16.6542 34.2687H16.4877L16.238 34.1025C16.238 34.1025 16.1548 34.1025 16.0715 34.1025C15.9883 34.1025 15.9883 34.1025 15.905 34.1025H15.6553C15.6553 33.9363 15.4888 33.9363 15.4056 33.9363C15.3224 33.9363 15.2391 33.9363 15.0726 33.8532C14.9061 33.7701 14.9061 33.8532 14.7397 33.7701C14.7397 33.7701 14.6564 33.7701 14.5732 33.7701C14.4899 33.7701 14.5732 33.7701 14.4899 33.7701C14.4899 33.7701 14.6564 33.7701 14.7397 33.7701C14.9061 33.7701 14.9894 33.7701 15.1559 33.8532C14.9894 33.8532 14.9061 33.7701 14.7397 33.687C14.5732 33.6039 14.4899 33.5208 14.3235 33.5208C14.157 33.5208 13.7408 33.2715 13.6575 33.2715H13.491C13.491 33.2715 13.3246 33.2715 13.2413 33.1884C13.1581 33.1884 13.0748 33.1054 12.9916 33.0223H12.9084C12.9084 33.0223 12.9084 32.9392 12.8251 32.9392C12.8251 32.9392 12.6586 32.9392 12.6586 32.8561H12.4922C12.4922 32.773 12.4089 32.6899 12.4089 32.6899C12.4089 32.6899 12.4089 32.6899 12.3257 32.6899C12.1592 32.6899 12.0759 32.5237 11.9095 32.4406H11.8262C11.8262 32.4406 11.8262 32.3575 11.743 32.3575C11.743 32.3575 11.5765 32.3575 11.5765 32.1913C11.5765 32.0251 11.41 32.1082 11.41 32.1082C11.41 32.1082 11.41 32.1082 11.3268 32.1082C11.2435 32.1082 11.1603 31.942 10.9938 31.859C10.8273 31.7759 10.7441 31.6928 10.6608 31.6097L10.2446 31.3604C10.2446 31.3604 10.2446 31.3604 10.1614 31.3604C10.0782 31.3604 10.1614 31.3604 10.0782 31.3604C10.0782 31.3604 9.91167 31.2773 9.91167 31.1942L9.74519 31.028H9.66195V30.9449C9.57871 30.7787 9.41223 30.6957 9.32899 30.6957C9.24574 30.6957 9.32899 30.6957 9.32899 30.6126C8.66306 30.0309 7.99713 29.4493 7.41444 28.7845C7.41444 28.7845 7.41444 28.7845 7.41444 28.7014C7.41444 28.6183 7.41444 28.7014 7.24795 28.5352C7.24795 28.5352 7.24796 28.4521 7.16471 28.3691C6.41554 27.6212 5.74961 26.7903 5.16692 25.8763C5.16692 25.7932 5.00044 25.7101 4.9172 25.5439C4.83396 25.3777 4.75072 25.3777 4.75072 25.2115C4.75072 25.2115 4.75072 25.2115 4.75072 25.1284C4.75072 25.0453 4.75072 24.9622 4.75072 24.9622C4.75072 24.7961 4.9172 24.713 4.9172 24.5468C4.9172 24.3806 5.08368 24.3806 5.08368 24.2144C5.16692 24.0482 5.33341 23.882 5.41665 23.7158C5.49989 23.5497 5.66637 23.3835 5.74961 23.3004C5.83285 23.2173 5.99934 23.0511 6.08258 22.8849C6.16582 22.7187 6.3323 22.6356 6.41554 22.4695C6.41554 22.3864 6.58203 22.3033 6.66527 22.2202C6.66527 22.2202 6.66527 22.1371 6.74851 22.054C6.83175 21.9709 6.74851 21.9709 6.83175 21.9709C6.83175 21.8878 6.99823 21.8047 7.08147 21.7216C7.08147 21.7216 7.08147 21.7216 7.16471 21.6385C7.24796 21.5554 7.16471 21.6385 7.24795 21.5554C7.41444 21.3892 7.49768 21.2231 7.66416 21.14C7.83064 20.9738 7.99713 20.8076 8.08037 20.7245C8.08037 20.7245 8.08037 20.7245 8.16361 20.6414C8.24685 20.5583 8.16361 20.6414 8.24685 20.6414C8.24685 20.6414 8.33009 20.5583 8.41333 20.4752C8.49657 20.3921 8.66306 20.2259 8.7463 20.1428C8.82954 20.0598 8.99602 19.9767 9.07926 19.8105C9.07926 19.8105 9.07926 19.8105 9.16251 19.8105H9.24575C9.24575 19.7274 9.32899 19.6443 9.41223 19.6443C9.41223 19.6443 9.57871 19.4781 9.66195 19.4781C9.66195 19.4781 9.74519 19.395 9.82843 19.3119C9.91168 19.2288 9.99492 19.2288 9.99492 19.1457C10.0782 19.1457 10.1614 18.9795 10.2446 18.9795L10.4944 18.8134C10.5776 18.8134 10.6608 18.6472 10.7441 18.6472C10.7441 18.6472 10.8273 18.6472 10.9106 18.5641C10.9938 18.481 10.9938 18.5641 11.0771 18.481C11.1603 18.481 11.2435 18.3148 11.41 18.3148V18.2317C11.41 18.2317 11.4933 18.2317 11.5765 18.1486L11.9095 17.9824V17.8993H12.0759C12.1592 17.7332 12.3257 17.6501 12.4089 17.6501C12.4922 17.6501 12.4922 17.6501 12.5754 17.567H12.7419C12.7419 17.4008 12.9084 17.4008 12.9916 17.3177C12.9916 17.3177 12.9916 17.3177 13.0748 17.3177C13.1581 17.3177 13.0748 17.3177 13.1581 17.3177C13.2413 17.3177 13.4078 17.2346 13.491 17.1515C13.491 17.1515 13.5743 17.1515 13.6575 17.0684C13.7408 16.9853 13.7408 17.0684 13.824 16.9853C14.0737 16.9022 14.2402 16.736 14.4899 16.6529C14.6564 16.6529 14.8229 16.4868 14.9061 16.4868C14.9894 16.4868 15.2391 16.4037 15.3224 16.3206H15.4056C15.4056 16.3206 15.4056 16.3206 15.4888 16.2375H15.7386C15.7386 16.1544 15.905 16.0713 15.9883 16.0713C16.0715 16.0713 16.1548 16.0713 16.238 15.9882C16.4045 15.9882 16.571 15.9051 16.7375 15.822H16.9039C16.9872 15.822 17.0704 15.7389 17.1537 15.7389C17.3201 15.7389 17.5699 15.6558 17.7364 15.5727C17.8196 15.5727 17.9028 15.5727 17.9861 15.5727C18.0693 15.5727 18.1526 15.5727 18.2358 15.5727C18.4023 15.5727 18.4855 15.5727 18.652 15.4896C18.652 15.4896 18.8185 15.4896 18.9017 15.4896H19.1515L19.4012 15.4066H19.4844C19.4844 15.4066 19.4844 15.4066 19.5677 15.4066H19.9839C19.9839 15.4066 19.9839 15.3235 20.0671 15.3235C20.1503 15.3235 20.0671 15.3235 20.1503 15.3235C20.2336 15.3235 20.4001 15.3235 20.4833 15.3235H20.6498C20.6498 15.3235 20.733 15.3235 20.8163 15.3235H21.1492H21.2325C21.2325 15.3235 21.2325 15.3235 21.3157 15.3235C21.3157 15.3235 21.3157 15.4066 21.3157 15.4896C21.3157 15.4896 21.3157 15.6558 21.2325 15.6558C21.2325 15.7389 21.1492 15.9051 21.066 15.9882C20.9828 16.0713 20.9828 16.2375 20.8995 16.4037C20.8163 16.5699 20.8163 16.6529 20.733 16.8191C20.733 16.9022 20.733 16.9853 20.6498 17.0684V17.2346C20.6498 17.2346 20.6498 17.2346 20.6498 17.3177C20.6498 17.4008 20.6498 17.3177 20.6498 17.4008C20.6498 17.567 20.5666 17.6501 20.4833 17.8162C20.3168 18.2317 20.1503 18.7303 20.0671 19.3119C20.0671 19.3119 20.0671 19.395 20.0671 19.4781C20.0671 19.5612 20.0671 19.5612 20.0671 19.6443C20.0671 19.7274 20.0671 19.8936 19.9839 20.0598C19.9006 20.2259 19.9839 20.309 19.9006 20.4752C19.8174 20.6414 19.9006 20.7245 19.8174 20.8907C19.6509 21.7216 19.4844 22.5525 19.4012 23.3835C19.4012 23.5497 19.4012 23.6328 19.4012 23.7989V23.9651C19.4012 23.9651 19.4012 24.1313 19.4012 24.2144C19.4012 24.3806 19.4012 24.5468 19.4012 24.713C19.4012 24.713 19.4012 24.7961 19.4012 24.8792C19.4012 24.9622 19.4012 24.9622 19.4012 25.0453C19.4012 25.1284 19.4012 25.2115 19.4012 25.2946C19.4012 25.3777 19.4012 25.4608 19.4012 25.5439C19.4012 25.627 19.4012 25.7101 19.4012 25.7932C19.4012 25.8763 19.4012 25.9594 19.4012 26.0424V26.2917C19.4012 26.4579 19.4012 26.541 19.4012 26.7072V26.9565C19.4012 26.9565 19.4012 26.9565 19.4012 27.0396C19.4012 27.1227 19.4012 27.0396 19.4012 27.1227C19.4012 27.2888 19.4012 27.3719 19.4012 27.5381C19.4012 27.5381 19.4012 27.6212 19.4012 27.7043V27.8705C19.4012 28.0367 19.4012 28.1198 19.4012 28.286C19.4012 28.286 19.4012 28.286 19.4012 28.4521C19.4012 28.6183 19.4012 28.7014 19.4012 28.7845C19.4012 28.8676 19.4012 28.9507 19.4012 29.1169C19.4012 29.2 19.4012 29.2831 19.4012 29.4493C19.4012 29.6154 19.4012 29.6154 19.4012 29.6985C19.4012 29.6985 19.4012 29.7816 19.4012 29.8647C19.4012 29.9478 19.4012 29.9478 19.4012 30.0309C19.4012 30.114 19.4012 30.2802 19.4012 30.3633C19.4012 30.3633 19.4012 30.5295 19.4012 30.6126C19.4012 30.6126 19.4012 30.6126 19.4012 30.6957C19.4012 30.7788 19.4012 30.6957 19.4012 30.7788C19.4012 30.9449 19.4012 31.1111 19.4844 31.2773C19.4844 31.2773 19.4844 31.2773 19.4844 31.3604C19.4844 31.5266 19.4844 31.6097 19.4844 31.6928C19.4844 31.7759 19.4844 31.859 19.4844 31.9421C19.4844 31.9421 19.4844 31.9421 19.4844 32.0251V32.1082C19.4844 32.2744 19.4844 32.3575 19.5677 32.5237C19.5677 32.6068 19.5677 32.6899 19.5677 32.773C19.5677 32.8561 19.5677 32.8561 19.5677 32.9392C19.5677 33.0223 19.5677 33.1884 19.6509 33.2715C19.7341 33.3546 19.6509 33.4377 19.7341 33.5208C19.7341 33.687 19.8174 33.8532 19.9006 33.9363C19.9006 33.9363 19.9006 34.1025 19.9006 34.1856C19.9006 34.2687 19.9006 34.3517 19.9839 34.4348C19.9839 34.601 20.0671 34.7672 20.1503 34.8503V35.0165C20.1503 35.1827 20.2336 35.3489 20.3168 35.515C20.3168 35.515 20.3168 35.515 20.3168 35.5981C20.3168 35.6812 20.3168 35.5981 20.3168 35.6812C20.3168 35.6812 20.3168 35.8474 20.4001 35.8474C20.4833 35.8474 20.4001 36.0136 20.4833 36.0967C20.5666 36.1798 20.4833 36.2629 20.5666 36.346C20.5666 36.5122 20.733 36.6783 20.8163 36.8445C20.8163 36.8445 20.8163 36.8445 20.8163 36.9276C20.8163 37.0107 20.8163 36.9276 20.8163 37.0938C20.8163 37.26 20.8995 37.26 20.8995 37.3431C20.8995 37.4262 20.9828 37.5924 21.066 37.6755C20.8995 37.6755 20.733 37.6755 20.5666 37.6755M48.0362 12.7476V12.5814C48.0362 12.5814 48.0362 12.5814 48.0362 12.4983C48.0362 12.3321 48.0362 12.249 48.0362 12.0828V11.9166C48.0362 11.9166 48.0362 11.9166 48.0362 11.8336C48.0362 11.7505 48.0362 11.8336 48.0362 11.7505C48.0362 11.5843 48.0362 11.335 48.0362 11.1688C48.0362 11.1688 48.0362 11.0857 48.0362 11.0026C48.0362 10.9195 48.0362 10.9195 48.0362 10.8364C48.0362 10.7533 48.0362 10.7533 48.0362 10.6703C48.0362 10.5872 48.0362 10.5041 48.0362 10.3379C48.0362 10.3379 48.0362 10.2548 48.0362 10.1717C48.0362 10.1717 48.0362 10.0055 48.0362 9.92241V9.75623C48.0362 9.67313 48.0362 9.50695 48.0362 9.42386C47.5367 6.76488 46.7043 4.189 45.3724 1.7793C45.3724 1.61312 45.3724 1.53002 45.206 1.44693L44.9562 1.03147H44.2071C41.8763 1.03147 39.6288 1.36384 37.4645 1.94549C37.4645 1.94549 37.4645 1.94549 37.5478 1.94549C37.631 1.94549 37.7143 1.94549 37.7975 1.94549C37.7975 1.94549 37.7975 1.94549 37.8807 1.94549C38.0472 1.94549 38.1305 1.94549 38.2137 1.86239C38.2137 1.86239 38.2969 1.86239 38.3802 1.86239C38.4634 1.86239 38.4634 1.86239 38.5467 1.86239C38.7131 1.86239 38.7964 1.8624 39.0461 1.7793H38.8796C38.9629 1.7793 39.0461 1.7793 39.1294 1.7793C39.1294 1.7793 39.1294 1.7793 39.2126 1.7793H39.2958C39.2958 1.7793 39.2958 1.7793 39.2126 1.7793H39.0461C39.0461 1.7793 38.9629 1.7793 38.8796 1.7793C38.8796 1.7793 38.8796 1.7793 38.9629 1.7793C40.378 1.44693 41.8763 1.28075 43.2914 1.28075C43.4579 1.28075 43.5411 1.28075 43.7076 1.28075C43.7076 1.28075 43.8741 1.28075 43.9573 1.28075C44.0406 1.28075 44.1238 1.28075 44.2071 1.28075H44.4568C44.4568 1.28075 43.9573 1.28075 43.8741 1.28075C43.7909 1.28075 43.7909 1.28075 43.7076 1.28075C43.6244 1.28075 43.4579 1.28075 43.3747 1.28075H43.2082C43.2082 1.28075 43.1249 1.28075 43.0417 1.28075H42.7087H42.5422H42.3758C42.3758 1.28075 42.2925 1.28075 42.2093 1.28075H41.8763H41.5434C41.5434 1.28075 41.4601 1.28075 41.3769 1.28075H41.2104C41.1271 1.28075 41.0439 1.28075 40.8774 1.28075H40.7109H40.5445C40.378 1.28075 40.2115 1.28075 40.045 1.36384H39.8785H39.712H39.2958C39.0461 1.36384 38.7964 1.53002 38.5467 1.53002C38.4634 1.53002 38.2969 1.53002 38.2137 1.53002C38.1305 1.53002 37.964 1.53002 37.8807 1.53002C37.631 1.53002 37.4645 1.61312 37.2148 1.69621H36.8818C36.8818 1.7793 36.7154 1.7793 36.7154 1.7793C36.7154 1.7793 36.6321 1.7793 36.5489 1.7793C36.3824 1.7793 36.1327 1.8624 35.9662 1.94549C35.8829 1.94549 35.7997 1.94549 35.6332 2.02858H35.3003C35.3003 2.11167 35.217 2.19477 35.1338 2.19477C35.0505 2.19477 35.0505 2.19477 34.9673 2.19477C34.884 2.19477 34.7176 2.19477 34.6343 2.27786H34.3014C34.3014 2.44405 34.2181 2.44405 34.1349 2.44405C34.0516 2.44405 34.0516 2.44405 33.9684 2.44405H33.8019C33.9684 2.44405 34.0516 2.27786 34.2181 2.19477C34.2181 2.19477 34.2181 2.19477 34.3014 2.19477H34.5511C34.5511 2.11168 34.7176 2.02858 34.8008 2.02858H34.8841C35.7165 1.69621 36.6321 1.36384 37.5478 1.19765C37.7142 1.19765 37.7975 1.19765 37.964 1.11456C38.1305 1.03147 38.2137 1.11456 38.3802 1.03147C38.5467 0.948372 38.6299 1.03147 38.7964 0.948373H39.2126L39.6288 0.782187H39.712H39.8785C40.045 0.782187 40.1283 0.782187 40.2947 0.782187C40.2947 0.782187 40.2947 0.782187 40.378 0.782187H40.4612C40.4612 0.782187 40.5444 0.782187 40.6277 0.782187C40.8774 0.782187 40.6277 0.782187 40.4612 0.782187H40.2947C40.2947 0.782187 40.2115 0.782187 40.1282 0.782187C40.045 0.782187 39.8785 0.782187 39.7953 0.782187H39.6288L39.2958 0.865282C39.2126 0.865282 39.0461 0.865282 38.9629 0.865282C38.8796 0.865282 38.7131 0.865282 38.6299 0.865282C38.3802 0.865282 38.1305 0.948372 37.8807 1.03147C37.7143 1.03147 37.7143 1.03147 37.8807 0.948373C37.964 0.948373 38.0472 0.948375 38.2137 0.865282C38.3802 0.865282 38.5467 0.86528 38.7131 0.782187H38.9629C39.0461 0.782187 39.1294 0.699095 39.2126 0.699095C39.2958 0.699095 39.3791 0.699095 39.4623 0.699095H39.6288C39.6288 0.699095 39.712 0.699095 39.7953 0.699095H40.4612C40.4612 0.616002 40.6277 0.616 40.6277 0.616C40.6277 0.616 40.7109 0.616 40.7942 0.616H41.1271H41.4601H41.7931C41.9596 0.616 42.2093 0.616 42.3758 0.616H42.8752H43.0417H43.9573H44.4568C44.4568 0.616 44.3736 0.616 44.2903 0.616H43.7909C43.7909 0.616 43.7076 0.616 43.6244 0.616C43.5411 0.616 43.3747 0.616 43.2914 0.616H43.1249H42.9585C42.8752 0.616 42.7087 0.616 42.6255 0.616H42.2925C42.2925 0.616 42.2093 0.616 42.126 0.616C42.0428 0.616 42.0428 0.616 41.9596 0.616C41.8763 0.616 41.7098 0.616 41.5434 0.616H41.3769H41.2104C41.0439 0.616 40.9607 0.616 40.7942 0.616H40.6277H40.4612C40.2115 0.616 39.9618 0.616 39.7953 0.616C40.2947 0.449814 40.7942 0.366723 41.2936 0.28363C41.1271 0.28363 40.8774 0.28363 40.7109 0.28363H40.5445C40.5445 0.28363 40.4612 0.28363 40.378 0.28363C40.2947 0.28363 40.2115 0.28363 40.1282 0.28363H39.8785H39.712C39.712 0.28363 39.712 0.28363 39.5456 0.28363C39.3791 0.28363 39.2126 0.28363 39.0461 0.28363C39.0461 0.28363 38.8796 0.28363 38.7964 0.28363C38.7131 0.28363 38.6299 0.28363 38.5467 0.28363C38.3802 0.28363 38.2137 0.283629 38.0472 0.366722C38.0472 0.366722 37.8807 0.366722 37.7975 0.366722C37.7143 0.366722 37.631 0.366722 37.5478 0.366722C37.3813 0.366722 37.298 0.366722 37.2148 0.366722H37.0483L36.7154 0.532909C36.5489 0.532909 36.5489 0.532907 36.4656 0.616C36.4656 0.616 36.4656 0.616 36.3824 0.616C36.2991 0.616 36.2992 0.616 36.2159 0.616C35.7997 0.782186 35.7997 0.782187 35.55 0.782187C35.3835 0.782187 35.217 0.948373 35.0505 0.948373H34.8008C34.8008 1.03147 34.5511 1.11456 34.5511 1.11456L34.0516 1.36384C33.8852 1.36384 33.7187 1.53002 33.5522 1.61312H33.3857C33.3857 1.61312 33.3857 1.69621 33.2192 1.69621H32.9695C32.9695 1.7793 32.7198 1.94549 32.7198 1.94549H32.5533V2.02858C32.2203 2.19477 31.8874 2.36096 31.5544 2.52714C31.5544 2.52714 31.3879 2.61023 31.3047 2.69332C31.3047 2.69332 31.3047 2.69332 31.2214 2.69332C31.055 2.69332 31.2214 2.69333 31.0549 2.77642C30.9717 2.77642 31.055 2.77642 30.8885 2.85951C30.8885 2.85951 30.722 2.85951 30.722 2.94261H30.6387C30.6387 2.94261 30.6387 3.0257 30.5555 3.0257C30.389 3.0257 30.3058 3.19188 30.1393 3.27498L29.9728 3.44116L29.8063 3.60735C29.6398 3.69044 29.5566 3.77353 29.3901 3.85663C28.1415 4.68756 27.0594 5.68467 25.9772 6.68179C25.8108 6.84798 25.9772 6.68179 25.7275 6.84797C24.9783 7.59581 24.2292 8.42674 23.5632 9.25767C23.48 9.34076 23.3968 9.50695 23.3135 9.59004C23.3135 9.67314 23.3135 9.75623 23.3135 9.75623C23.3135 9.75623 23.2303 9.83932 23.2303 9.92241C23.147 10.0055 23.0638 10.1717 22.9806 10.2548C22.9806 10.3379 22.9806 10.421 22.9806 10.421V10.5872C22.8141 10.6702 22.7308 10.8364 22.6476 10.9195C22.6476 11.0026 22.6476 11.0857 22.6476 11.0857C22.6476 11.1688 22.6476 11.2519 22.6476 11.2519C22.6476 11.2519 22.6476 11.2519 22.5643 11.2519C22.5643 11.2519 22.3979 11.2519 22.3146 11.2519H21.8984C21.8984 11.2519 21.7319 11.2519 21.6487 11.2519C21.5655 11.2519 21.4822 11.2519 21.399 11.2519H20.8995C20.8995 11.2519 20.733 11.2519 20.6498 11.2519H20.4001H20.1503H20.0671H19.9839C19.8174 11.2519 19.6509 11.2519 19.4844 11.2519H19.2347H19.1515C18.8185 11.2519 18.4855 11.335 18.2358 11.4181C18.0693 11.4181 17.9028 11.4181 17.7364 11.5012C17.5699 11.5843 17.4034 11.5843 17.2369 11.5843H16.9872L16.9039 11.6674H16.8207C16.6542 11.6674 16.4877 11.8336 16.3213 11.8336C16.3213 11.8336 16.1548 11.8336 16.0715 11.8336H15.8218C15.6553 11.9997 15.4888 11.9997 15.3224 12.0828C15.3224 12.0828 15.1559 12.0828 15.0726 12.1659H14.8229C14.8229 12.249 14.5732 12.3321 14.5732 12.3321C14.5732 12.3321 14.4067 12.3321 14.3235 12.4152C13.1581 12.8307 12.0759 13.4123 10.9938 13.994C9.99492 14.5756 8.99602 15.2404 7.99713 15.9051C7.24796 16.4868 6.58203 17.0684 5.9161 17.6501C5.25017 18.2317 4.66748 18.8965 4.16803 19.4781C4.08479 19.5612 4.00155 19.6443 3.9183 19.8105C3.9183 19.8105 3.83507 19.8936 3.75182 19.9767C3.58534 20.2259 3.41886 20.3921 3.25237 20.5583C3.08589 20.7245 2.91941 20.9738 2.75293 21.14C2.75293 21.14 2.75293 21.2231 2.66969 21.3062C2.58644 21.3892 2.66969 21.3892 2.58645 21.4723C2.58645 21.5554 2.41996 21.6385 2.33672 21.8047C2.33672 21.8047 2.33672 21.8878 2.25348 21.9709C2.17024 22.054 2.25348 22.054 2.17024 22.1371L1.92052 22.4695C1.75403 22.6356 1.67079 22.8849 1.50431 23.1342L1.33783 23.4666C1.25459 23.6328 1.17134 23.7158 1.0881 23.882C1.0881 23.9651 1.00486 24.0482 0.92162 24.1313C0.92162 24.1313 0.92162 24.2144 0.838379 24.2975C0.838379 24.4637 0.921621 24.5468 1.00486 24.6299V24.7961V24.9622C1.17134 25.0453 1.17134 25.2115 1.25459 25.2946L1.42107 25.5439C1.50431 25.7101 1.58755 25.8763 1.67079 26.0424C1.75403 26.2086 1.83727 26.3748 2.00376 26.541C2.00376 26.541 2.087 26.7072 2.17024 26.7903C2.25348 26.8734 2.25348 26.9565 2.33672 27.0396C2.41996 27.2058 2.58644 27.3719 2.66969 27.5381C2.75293 27.7043 2.91941 27.7874 3.00265 27.9536C3.16913 28.2029 3.41886 28.5352 3.58534 28.7014V28.8676C3.75182 28.8676 3.75182 28.9507 3.83506 29.0338C3.83506 29.1169 4.00155 29.2 4.08479 29.2831C4.08479 29.2831 4.16803 29.4493 4.25127 29.5324C4.33451 29.6154 4.33451 29.6985 4.41775 29.7816C4.50099 29.9478 4.66748 30.0309 4.75072 30.1971C5.41665 30.9449 6.16582 31.6097 6.99823 32.2744C7.83064 33.0223 8.7463 33.687 9.66195 34.2687C9.66195 34.2687 9.82843 34.3517 9.82843 34.4348H9.99492C9.99492 34.5179 10.4111 34.7672 10.4111 34.7672C10.4111 34.7672 10.4111 34.7672 10.4944 34.7672H10.5776C10.5776 34.8503 10.7441 34.9334 10.7441 34.9334C10.9106 34.9334 10.9938 35.0996 11.1603 35.1827C11.3268 35.2658 11.4933 35.3489 11.743 35.515C11.743 35.515 11.8262 35.515 11.9095 35.515C11.9927 35.515 11.9927 35.515 12.0759 35.515L12.3257 35.6812C13.4078 36.1798 14.4899 36.6784 15.5721 37.0107C15.6553 37.0107 15.7386 37.0107 15.8218 37.0107H16.0715C16.1548 37.0938 16.238 37.1769 16.3213 37.1769H16.4877L17.0704 37.3431C17.0704 37.3431 17.1537 37.3431 17.2369 37.3431H17.4034L17.6531 37.4262H17.9028L18.1526 37.5924C18.319 37.5924 18.5688 37.5924 18.7352 37.6755H19.3179C19.3179 37.7586 19.4844 37.7586 19.4844 37.7586C19.5677 37.7586 19.6509 37.7586 19.7341 37.7586H20.0671H20.2336H20.4001C20.6498 37.7586 20.8163 37.7586 21.066 37.8417C21.3157 37.9247 21.4822 37.8417 21.7319 37.8417C21.8152 37.8417 21.9817 37.8417 22.0649 37.8417H22.2314H22.3146C22.3146 37.9247 22.3979 38.0078 22.4811 38.174C22.4811 38.174 22.4811 38.2571 22.5643 38.3402C22.6476 38.4233 22.5643 38.4233 22.6476 38.5064C22.6476 38.5895 22.7308 38.6726 22.8141 38.7557C22.8973 38.8388 22.8973 38.9219 22.9806 39.005L23.3135 39.5035C23.3135 39.5035 23.3968 39.6697 23.48 39.6697C23.5632 39.6697 23.5632 39.8359 23.6465 39.8359C23.7297 39.8359 23.7297 40.0021 23.813 40.0021C23.8962 40.0021 23.8962 40.1683 23.9794 40.1683C24.0627 40.3344 24.2292 40.4175 24.3124 40.5837C24.3124 40.5837 24.3957 40.7499 24.4789 40.7499C24.5621 40.7499 24.5621 40.9161 24.6454 40.9161C24.7286 41.0823 24.8951 41.1654 24.9783 41.3316L25.3113 41.747C25.3113 41.747 25.3945 41.9132 25.4778 41.9132C25.561 41.9132 25.6443 42.0794 25.6443 42.0794C25.8108 42.2456 25.894 42.3287 26.0605 42.4949L26.3934 42.8272C26.4767 42.9103 26.5599 42.9934 26.7264 43.1596C26.8929 43.3258 26.9761 43.3258 27.0594 43.4089C27.0594 43.4089 27.1426 43.492 27.2259 43.5751C27.3091 43.6582 27.3091 43.6582 27.3923 43.7413C27.4756 43.8243 27.6421 43.9074 27.7253 43.9905L27.8918 44.1567V44.3229C27.975 44.406 28.1415 44.4891 28.2248 44.5722C28.2248 44.5722 28.308 44.6553 28.3912 44.7384C28.4745 44.9046 28.641 44.9876 28.7242 45.0707C29.1404 45.4031 29.6398 45.7355 30.0561 45.9848C30.0561 45.9848 30.1393 45.9848 30.2225 46.0679H30.389C30.4723 46.234 30.6387 46.3171 30.722 46.4002C30.9717 46.5664 31.1382 46.6495 31.3047 46.7326C31.6376 46.8988 31.8874 47.065 32.1371 47.2312H32.2203C32.2203 47.2312 32.2203 47.3143 32.3036 47.3143H32.4701C32.6365 47.4804 32.7198 47.5635 32.8863 47.6466C32.8863 47.6466 32.8863 47.6466 32.9695 47.6466H33.2192C33.2192 47.8128 33.3857 47.8128 33.4689 47.8128C33.4689 47.8128 33.4689 47.8128 33.5522 47.8128H33.6354C33.8019 47.8959 33.9684 47.979 34.0516 48.0621H34.1349L34.3846 48.1452H34.6343C34.7176 48.3114 34.8008 48.3114 34.9673 48.3945L35.4667 48.5606C35.4667 48.5606 35.4667 48.5606 35.55 48.5606H35.7997C35.9662 48.6437 36.1327 48.7268 36.2991 48.8099L36.7986 48.9761C37.964 49.3085 39.0461 49.4747 40.2115 49.6409C40.378 49.6409 40.5445 49.6409 40.7942 49.6409C40.8774 49.6409 40.9607 49.6409 41.1271 49.6409H41.4601C41.5433 49.6409 41.7098 49.6409 41.7931 49.6409H41.9596C41.9596 49.6409 42.0428 49.6409 42.126 49.6409C42.2925 49.6409 42.459 49.6409 42.5422 49.6409V49.4747L42.792 49.7239C42.792 49.7239 42.6255 49.7239 42.5422 49.7239H42.792H43.0417H43.3747C43.3747 49.7239 43.4579 49.7239 43.5411 49.7239C43.5411 49.7239 43.5411 49.7239 43.6244 49.7239C43.6244 49.7239 43.6244 49.6409 43.7076 49.5578C43.7076 49.4747 43.7909 49.3916 43.8741 49.2254C43.9573 49.0592 43.9573 49.0592 44.0406 48.893C44.1238 48.7268 44.1238 48.7268 44.2071 48.5606V48.3945H44.2903C44.3736 48.0621 44.54 47.8959 44.6233 47.6466C44.7065 47.3973 44.7898 47.2312 44.9562 46.9819C45.3724 46.151 45.7054 45.2369 46.0384 44.3229C46.0384 44.1567 46.1216 43.9905 46.2049 43.9074C46.2049 43.9074 46.2049 43.9074 46.2049 43.8243C46.2049 43.7413 46.2049 43.8243 46.2049 43.7413C46.2049 43.7413 46.2049 43.5751 46.2049 43.492C46.2049 43.3258 46.2049 43.1596 46.3713 43.0765C46.5378 42.9934 46.3713 42.7441 46.4546 42.5779C46.5378 42.2456 46.6211 41.9132 46.7043 41.4977C46.7043 41.4977 46.7043 41.4146 46.7043 41.3316C46.7043 41.2485 46.7043 41.2485 46.7043 41.1654C46.7043 41.0823 46.7043 40.9992 46.7043 40.833C46.7043 40.6668 46.7043 40.6668 46.7043 40.5006C46.7043 40.3344 46.7043 40.3344 46.7043 40.1683C46.7043 40.0021 46.7043 40.0021 46.7043 39.8359C46.7043 39.8359 46.7043 39.7528 46.7043 39.6697C46.7043 39.5866 46.7043 39.5866 46.7043 39.5035C46.7043 39.2542 46.7043 39.088 46.7043 38.8388V38.6726V38.5064V38.174C46.7043 38.174 46.7043 38.0909 46.7043 38.0078C46.7043 37.9247 46.7043 37.9247 46.7043 37.8417C46.7043 37.7586 46.7043 37.5924 46.7043 37.5093C46.7043 37.3431 46.7043 37.1769 46.7043 37.0107C46.7043 36.8445 46.7043 36.6784 46.7043 36.5122C46.7043 36.1798 46.7043 35.8474 46.7043 35.515V35.3489C46.7043 35.1827 46.7043 35.0996 46.7043 35.0165C46.7043 34.8503 46.7043 34.6841 46.7043 34.601C46.7043 34.601 46.7043 34.4348 46.7043 34.3517C46.7043 34.2687 46.7043 34.1856 46.7043 34.1856C46.7043 34.0194 46.7043 33.9363 46.7043 33.8532V33.687V33.5208C46.7043 33.3546 46.7043 33.1884 46.7043 33.0223C46.7043 32.6899 46.6211 32.1913 46.5378 31.6928C46.5378 31.5266 46.5378 31.4435 46.5378 31.4435V31.3604C46.5378 31.3604 46.5378 31.2773 46.5378 31.1111C46.5378 30.9449 46.5378 30.8618 46.5378 30.7788C46.5378 30.7788 46.5378 30.6957 46.5378 30.6126C46.5378 30.5295 46.5378 30.5295 46.5378 30.4464C46.5378 30.3633 46.5378 30.1971 46.5378 30.114C46.5378 30.114 46.5378 30.0309 46.5378 29.9478C46.5378 29.8647 46.5378 29.8647 46.5378 29.7816C46.5378 29.5324 46.4546 29.2831 46.3713 29.0338C46.3713 28.9507 46.3713 28.7845 46.2881 28.6183C46.2049 28.4521 46.2881 28.3691 46.1216 28.2029C46.1216 28.0367 46.0384 27.8705 45.9551 27.7043V27.455C45.8719 27.455 45.8719 27.455 45.7887 27.3719C45.7054 27.2888 45.7887 27.3719 45.7887 27.2888C45.7887 27.1227 45.6222 26.9565 45.6222 26.7903C45.6222 26.7903 45.6222 26.7903 45.6222 26.6241V26.4579C45.5389 26.4579 45.5389 26.2917 45.4557 26.2086C45.3724 26.1255 45.4557 26.0424 45.3724 25.9594C45.2892 25.8763 45.3724 25.7932 45.2892 25.7101C45.2892 25.5439 45.1227 25.3777 45.0395 25.2115C45.0395 25.0453 44.873 24.8791 44.7898 24.713C44.7898 24.713 44.7898 24.5468 44.7065 24.4637C44.6233 24.3806 44.7065 24.2975 44.6233 24.2144C44.6233 24.0482 44.4568 23.882 44.3735 23.7989C44.3735 23.7989 44.3735 23.7989 44.3735 23.7158C44.3735 23.7158 44.3736 23.5497 44.54 23.4666C44.54 23.3835 44.6233 23.2173 44.7065 23.1342C44.7898 23.0511 44.7065 22.968 44.7898 22.8849C44.7898 22.7187 44.9562 22.6356 44.9562 22.4695C45.206 21.9709 45.3724 21.5554 45.5389 21.2231C45.5389 21.14 45.5389 21.0569 45.6222 20.9738C45.6222 20.9738 45.6222 20.9738 45.6222 20.8907C45.6222 20.7245 45.7054 20.6414 45.7887 20.4752C45.7887 20.4752 45.7887 20.3921 45.7887 20.309C45.7887 20.2259 45.7887 20.1428 45.8719 20.0598C45.9551 19.9767 45.8719 19.8936 45.9551 19.8105V19.6443C45.9551 19.6443 45.9551 19.5612 46.0384 19.4781C46.0384 19.3119 46.1216 19.0626 46.2049 18.8965C46.2049 18.8965 46.2049 18.8134 46.2049 18.7303C46.2049 18.6472 46.2049 18.5641 46.2049 18.481C46.2049 18.3979 46.2049 18.1486 46.2881 18.1486L46.4546 17.567C46.4546 17.567 46.4546 17.4839 46.4546 17.4008C46.4546 17.3177 46.4546 17.3177 46.4546 17.2346V16.9853C46.5378 16.8191 46.6211 16.6529 46.6211 16.4868C46.6211 16.3206 46.6211 16.1544 46.7043 15.9882C46.7043 15.9051 46.7043 15.822 46.7043 15.7389C46.7043 15.6558 46.7043 15.5727 46.7043 15.4896C46.7043 15.3235 46.7043 15.1573 46.7043 14.908C46.7043 14.4925 46.7875 14.0771 46.8708 13.6616C46.8708 13.4954 46.8708 13.4123 46.8708 13.0799C46.8708 12.9138 46.8708 12.5814 46.8708 12.4983V12.3321C46.8708 12.1659 46.8708 11.9166 46.8708 11.6674C46.8708 11.1688 46.8708 10.7533 46.8708 10.2548" fill="#E4705C"/>
</svg>
