<svg width="26" height="26" viewBox="0 0 26 26" fill="none" xmlns="http://www.w3.org/2000/svg">
<path d="M21.5073 2.64365H20.2527V1.38909C20.2527 0.636347 19.7509 0.134521 18.9981 0.134521C18.2454 0.134521 17.7436 0.636347 17.7436 1.38909V2.64365H7.70707V1.38909C7.70707 0.636347 7.20524 0.134521 6.45251 0.134521C5.69977 0.134521 5.19794 0.636347 5.19794 1.38909V2.64365H3.94338C1.81062 2.64365 0.179688 4.27458 0.179688 6.40734V7.6619H25.271V6.40734C25.271 4.27458 23.64 2.64365 21.5073 2.64365ZM0.179688 21.4621C0.179688 23.5949 1.81062 25.2258 3.94338 25.2258H21.5073C23.64 25.2258 25.271 23.5949 25.271 21.4621V10.171H0.179688V21.4621ZM18.9981 12.6802C19.7509 12.6802 20.2527 13.182 20.2527 13.9347C20.2527 14.6875 19.7509 15.1893 18.9981 15.1893C18.2454 15.1893 17.7436 14.6875 17.7436 13.9347C17.7436 13.182 18.2454 12.6802 18.9981 12.6802ZM18.9981 17.6984C19.7509 17.6984 20.2527 18.2002 20.2527 18.953C20.2527 19.7057 19.7509 20.2075 18.9981 20.2075C18.2454 20.2075 17.7436 19.7057 17.7436 18.953C17.7436 18.2002 18.2454 17.6984 18.9981 17.6984ZM12.7253 12.6802C13.4781 12.6802 13.9799 13.182 13.9799 13.9347C13.9799 14.6875 13.4781 15.1893 12.7253 15.1893C11.9726 15.1893 11.4708 14.6875 11.4708 13.9347C11.4708 13.182 11.9726 12.6802 12.7253 12.6802ZM12.7253 17.6984C13.4781 17.6984 13.9799 18.2002 13.9799 18.953C13.9799 19.7057 13.4781 20.2075 12.7253 20.2075C11.9726 20.2075 11.4708 19.7057 11.4708 18.953C11.4708 18.2002 11.9726 17.6984 12.7253 17.6984ZM6.45251 12.6802C7.20524 12.6802 7.70707 13.182 7.70707 13.9347C7.70707 14.6875 7.20524 15.1893 6.45251 15.1893C5.69977 15.1893 5.19794 14.6875 5.19794 13.9347C5.19794 13.182 5.69977 12.6802 6.45251 12.6802ZM6.45251 17.6984C7.20524 17.6984 7.70707 18.2002 7.70707 18.953C7.70707 19.7057 7.20524 20.2075 6.45251 20.2075C5.69977 20.2075 5.19794 19.7057 5.19794 18.953C5.19794 18.2002 5.69977 17.6984 6.45251 17.6984Z" fill="#944361"/>
</svg>
