<svg width="33" height="34" viewBox="0 0 33 34" fill="none" xmlns="http://www.w3.org/2000/svg">
<path d="M30.4819 8.46779C30.4819 8.52346 30.4819 8.57914 30.4819 8.57914C30.4819 8.63481 30.4819 8.69049 30.4819 8.74617V8.85752V8.96887C30.4819 9.08022 30.4819 9.13589 30.4819 9.24724C30.4819 9.35859 30.4819 9.41427 30.4819 9.46995C30.4819 9.52562 30.4819 9.63697 30.4819 9.69265C30.4819 9.74833 30.4819 9.804 30.4819 9.85968C30.4819 9.91535 30.4819 9.97103 30.4819 10.0267C30.4819 10.0824 30.4819 10.1381 30.4819 10.1937C30.4819 10.2494 30.4819 10.3051 30.4819 10.3608C30.4819 10.4721 30.4819 10.5835 30.4819 10.6948C30.4819 10.8062 30.4819 10.9175 30.4819 11.0289C30.4819 11.1402 30.4819 11.2516 30.4262 11.4186C30.4262 11.4743 30.4262 11.5299 30.4262 11.5856C30.4262 11.6413 30.4262 11.697 30.4262 11.7526C30.3704 12.031 30.3146 12.2537 30.2588 12.4764C30.2588 12.5878 30.2031 12.6435 30.1473 12.7548V12.8662V12.9775C30.1473 13.0889 30.0915 13.1445 30.0357 13.2559C29.98 13.3672 29.98 13.4229 29.9242 13.5343C29.9242 13.5343 29.9242 13.5899 29.9242 13.6456C29.9242 13.7013 29.9242 13.7013 29.9242 13.757C29.9242 13.8126 29.9242 13.8126 29.9242 13.8683C29.9242 13.924 29.8684 14.0353 29.8126 14.091C29.7569 14.1467 29.7569 14.258 29.7011 14.3137C29.7011 14.3137 29.7011 14.3137 29.7011 14.3694C29.7011 14.3694 29.7011 14.3694 29.7011 14.4251C29.7011 14.4251 29.7011 14.3694 29.7011 14.3137C29.7011 14.3137 29.7011 14.258 29.6453 14.2024C29.6453 14.1467 29.5338 14.0353 29.478 13.9797C29.4222 13.924 29.3664 13.8126 29.3107 13.757C29.3107 13.757 29.2549 13.7013 29.1991 13.6456C29.1991 13.6456 29.1991 13.6456 29.1991 13.5899C29.1991 13.5343 29.1991 13.5899 29.1991 13.5343C29.1991 13.5343 29.1433 13.4229 29.0876 13.3672L28.976 13.2559C28.976 13.2559 28.9202 13.2002 28.8645 13.1445L28.6414 12.9218C28.6414 12.9218 28.6414 12.8662 28.5856 12.8105C28.5298 12.7548 28.5856 12.7548 28.5298 12.6991C28.5298 12.6435 28.4183 12.5878 28.3625 12.5321C28.3625 12.5321 28.3625 12.4764 28.2509 12.4208C28.1394 12.3651 28.1952 12.3651 28.1394 12.3094C28.0836 12.2537 28.0278 12.198 27.9721 12.1424C27.9721 12.1424 27.9721 12.0867 27.9163 12.0867C27.8605 12.0867 27.9163 12.031 27.8047 11.9753C27.8047 11.9197 27.6932 11.864 27.6374 11.8083C27.6374 11.8083 27.5816 11.7526 27.5259 11.697C27.4701 11.6413 27.4701 11.6413 27.4143 11.5856C27.3585 11.5299 27.3028 11.4743 27.247 11.4186C26.8566 11.0289 26.4104 10.6948 25.9642 10.3608C25.9084 10.3051 25.7968 10.2494 25.7411 10.1937H25.6295C25.6295 10.0824 25.5737 10.0824 25.518 10.0267C25.4622 9.97103 25.3506 9.91535 25.2391 9.85968C25.2391 9.85968 25.1275 9.804 25.0718 9.74832C25.016 9.69265 24.9602 9.69265 24.9044 9.63697L24.7371 9.52562L24.5698 9.41427C24.5698 9.41427 24.4582 9.3586 24.4025 9.30292C24.4025 9.30292 24.4025 9.30292 24.3467 9.30292H24.2909L24.0678 9.13589H23.9563C23.9563 9.08022 23.9563 9.02454 23.9563 9.02454H23.9005C23.8447 9.02454 23.7332 8.91319 23.6774 8.91319H23.5658C23.5658 8.85752 23.5101 8.80184 23.4543 8.80184C23.3985 8.80184 23.287 8.74616 23.2312 8.69049H23.1754C23.1754 8.69049 23.0639 8.69049 23.0081 8.63481C22.9523 8.63481 22.8965 8.57914 22.8408 8.52346C22.785 8.52346 22.7292 8.52346 22.6734 8.46779C22.6177 8.41211 22.5619 8.46779 22.5061 8.41211H22.3946C22.3946 8.35643 22.3388 8.35644 22.283 8.30076C22.2272 8.30076 22.1715 8.24508 22.0599 8.18941H21.9484C21.9484 8.18941 21.9484 8.18941 21.8926 8.18941C21.8368 8.18941 21.8926 8.18941 21.8368 8.18941L21.5579 8.07806C21.5579 8.07806 21.5579 8.07806 21.5022 8.07806C21.4464 8.07806 21.5022 8.07806 21.4464 8.07806H21.2791L21.1117 7.96671H21.0002H20.7213C20.6655 7.85536 20.6098 7.85535 20.554 7.85535H20.4424C20.3867 7.85535 20.2751 7.79968 20.2194 7.74401C20.1636 7.68833 20.1078 7.74401 20.052 7.74401H19.7731C19.7731 7.68833 19.6058 7.63265 19.6058 7.63265C19.6058 7.63265 19.4943 7.63265 19.4385 7.63265C19.327 7.63265 19.2154 7.63265 19.1039 7.57698H18.9923C18.8808 7.57698 18.7692 7.57698 18.6577 7.57698C18.6577 7.57698 18.6577 7.57698 18.6019 7.57698H18.5461C18.5461 7.57698 18.4346 7.57698 18.3788 7.57698C18.323 7.57698 18.2672 7.57698 18.2115 7.57698C18.1557 7.57698 18.0999 7.57698 18.0441 7.57698H17.6537C17.6537 7.57698 17.6537 7.57698 17.5979 7.57698H17.4864C17.4864 7.57698 17.3748 7.57698 17.3191 7.57698H17.096C17.1517 7.46563 17.2075 7.35428 17.3191 7.24292C17.3191 7.24292 17.3748 7.18725 17.4306 7.13157C17.4306 7.0759 17.5422 7.02022 17.5422 6.96455C17.5979 6.8532 17.6537 6.79752 17.7653 6.68617C17.821 6.57482 17.9326 6.51914 17.9326 6.46347C18.9365 5.2386 20.1636 4.12509 21.5022 3.23428L21.2791 3.34564C21.2791 3.34564 21.2791 3.34564 21.1675 3.40131C21.1675 3.40131 21.1675 3.45699 21.1117 3.45699C21.1117 3.45699 21.056 3.45699 21.0002 3.56834C21.1117 3.45699 21.1675 3.51266 21.1117 3.56834C20.9444 3.67969 20.7771 3.84672 20.6098 3.95807C20.6098 3.95807 20.4982 4.01374 20.4982 4.06942C20.4982 4.06942 20.4982 4.06942 20.4424 4.06942H20.3867C20.3309 4.18077 20.2193 4.23645 20.1636 4.29212C20.1636 4.29212 20.1636 4.3478 20.1078 4.40347C20.052 4.45915 19.9405 4.51482 19.8847 4.62617C19.8847 4.62617 19.8289 4.68185 19.7731 4.73752C19.7174 4.7932 19.7174 4.7932 19.6616 4.84888C19.6058 4.90455 19.4943 5.0159 19.4385 5.07158C19.4385 5.07158 19.4385 5.07158 19.4385 5.12725C19.4385 5.18293 19.4385 5.12725 19.4385 5.18293L19.3269 5.29428C19.3269 5.29428 19.4385 5.2386 19.4385 5.18293C19.4385 5.18293 19.4385 5.18293 19.4943 5.12725C19.5501 5.07158 19.4943 5.12725 19.55 5.07158C19.6616 5.0159 19.7174 4.90455 19.8289 4.7932C19.9962 4.62617 20.2193 4.45915 20.3867 4.29212C20.3867 4.29212 20.3867 4.29212 20.4424 4.23644C20.4982 4.18077 20.4424 4.23645 20.4982 4.18077C20.4982 4.18077 20.6098 4.12509 20.6655 4.06942C20.7213 4.01374 20.7771 4.01374 20.7771 3.95807H20.8329C20.8329 3.90239 20.8329 3.90239 20.8329 3.84672L21.056 3.73537H21.1675C21.1675 3.62401 21.1675 3.62401 21.2233 3.62401C21.2233 3.62401 21.3348 3.56834 21.3906 3.51266C21.4464 3.45699 21.5022 3.45699 21.5579 3.40131C21.5579 3.40131 21.5579 3.40131 21.6137 3.40131C21.7253 3.40131 21.8368 3.28996 21.9484 3.23428C22.0599 3.17861 22.1715 3.12293 22.283 3.06726C22.283 3.06726 22.283 3.06726 22.3388 3.06726C22.3388 3.06726 22.283 3.12293 22.2272 3.17861C22.1715 3.17861 22.0599 3.28996 22.0041 3.28996C22.0041 3.28996 22.0041 3.28996 21.9484 3.28996H21.8926C21.8926 3.40131 21.781 3.40131 21.7253 3.45699C21.6695 3.51266 21.6137 3.51266 21.5579 3.56834C21.5022 3.62402 21.4464 3.62401 21.3906 3.67969C21.3348 3.73536 21.2791 3.73536 21.2233 3.79104L21.056 3.90239L20.8886 4.01374C20.8886 4.01374 20.8886 4.01374 20.7771 4.06942C20.6656 4.12509 20.7771 4.06942 20.7213 4.12509C20.7213 4.18077 20.7213 4.12509 20.7771 4.12509C20.8886 4.06942 21.0002 3.95807 21.1117 3.90239C21.1117 3.90239 21.2233 3.84672 21.2791 3.79104C21.3348 3.73536 21.3906 3.73536 21.4464 3.67969C21.5579 3.67969 21.4464 3.73537 21.3348 3.90239C21.1675 4.01374 21.0002 4.18077 20.8329 4.29212C20.6655 4.40347 20.4982 4.5705 20.3867 4.62617C19.9962 4.96023 19.6058 5.34996 19.2154 5.73968C19.2154 5.73968 19.1039 5.85104 19.1039 5.90671H18.9923C18.9923 6.01806 18.9923 6.01806 18.9365 6.07374L18.6577 6.40779C18.5461 6.51914 18.4903 6.63049 18.3788 6.74184C18.3788 6.74184 18.3788 6.79752 18.323 6.79752C18.2672 6.79752 18.323 6.8532 18.2672 6.8532C18.2672 6.90887 18.2115 6.96455 18.1557 7.02022C18.323 6.79752 18.5461 6.57482 18.7134 6.35212C18.7134 6.29644 18.825 6.24076 18.825 6.18509C18.825 6.18509 18.825 6.18509 18.8808 6.12941V6.07374C18.9923 5.96239 19.0481 5.85104 19.1596 5.79536C19.2712 5.68401 19.327 5.62833 19.4385 5.51698C19.5501 5.40563 19.6616 5.34996 19.7174 5.23861C19.7174 5.23861 19.7174 5.2386 19.7731 5.18293C19.8289 5.12725 19.7731 5.18293 19.8289 5.12725C19.8289 5.12725 19.9405 5.0159 19.9963 5.0159C19.9963 5.0159 19.9962 5.0159 20.052 4.96023C20.1078 4.90455 20.052 4.96023 20.1078 4.90455C20.1078 4.90455 20.2194 4.84888 20.2194 4.7932C20.2194 4.7932 20.3309 4.73753 20.3867 4.68185C20.4424 4.62617 20.4982 4.5705 20.554 4.5705C20.6098 4.5705 20.6655 4.45915 20.7213 4.45915C20.7213 4.45915 20.7213 4.45915 20.7771 4.45915C20.7771 4.45915 20.7771 4.5705 20.6655 4.5705C20.6098 4.62617 20.554 4.68185 20.4982 4.73752C20.554 4.68185 20.6655 4.62617 20.7213 4.5705C20.7771 4.51482 20.8886 4.45915 20.9444 4.40347C21.056 4.29212 21.2791 4.18077 21.3348 4.12509L21.4464 4.06942C21.4464 4.06942 21.5022 4.01374 21.5579 3.95807C21.5579 3.95807 21.6695 3.90239 21.7253 3.84672C21.7253 3.84672 21.7253 3.84672 21.781 3.84672H21.8368L21.9484 3.73537L22.0599 3.67969H22.1157C22.1157 3.67969 22.1157 3.62401 22.1715 3.62401C22.283 3.62401 22.3388 3.51266 22.4503 3.45699H22.5061C22.5061 3.45699 22.5061 3.40131 22.5619 3.40131C22.5619 3.40131 22.6734 3.40131 22.6734 3.34564C22.6734 3.28996 22.785 3.28996 22.785 3.28996C22.8408 3.28996 22.9523 3.23429 23.0081 3.17861C23.0639 3.12293 23.1754 3.12293 23.2312 3.06726L23.5101 2.95591H23.5658L23.7332 2.90023H23.9005C23.9005 2.84456 24.012 2.78888 24.012 2.78888L24.2909 2.67753C24.3467 2.67753 24.2909 2.67753 24.3467 2.67753C24.9044 2.45483 25.4622 2.2878 26.0199 2.17645C26.0199 2.17645 26.0199 2.17645 26.0757 2.17645C26.1315 2.17645 26.0757 2.17645 26.1873 2.17645C26.1873 2.17645 26.243 2.17645 26.2988 2.17645C26.9681 2.00942 27.6932 1.89807 28.3625 1.8424H28.5856H28.6971H28.7529C28.7529 1.8424 28.7529 1.8424 28.8087 1.8424C28.8087 1.8424 28.8087 1.8424 28.8087 1.89807V1.95375C28.8087 2.00942 28.8645 2.12078 28.9202 2.17645C28.976 2.23213 28.976 2.34348 29.0318 2.39915L29.1991 2.73321C29.1991 2.73321 29.1991 2.7332 29.1991 2.84456C29.1991 2.95591 29.1991 2.84456 29.1991 2.95591V3.12293C29.2549 3.12293 29.3107 3.12293 29.3107 3.17861C29.3107 3.23429 29.3107 3.17861 29.3107 3.23428C29.3107 3.23428 29.3107 3.34564 29.3664 3.40131C29.4222 3.45699 29.3664 3.51266 29.4222 3.56834C29.478 3.62402 29.4222 3.67969 29.4222 3.73537C29.4222 3.90239 29.5338 4.01374 29.5895 4.12509C29.5895 4.23645 29.7011 4.40347 29.7011 4.51482C29.7569 4.7932 29.8684 5.07158 29.9242 5.34996C29.9242 5.34996 29.9242 5.46131 29.9242 5.51698C29.9242 5.51698 29.9242 5.51698 29.9242 5.57266C29.9242 5.62833 29.9242 5.57266 29.9242 5.62833C29.9242 5.73968 29.9242 5.85104 29.98 5.96239C29.98 5.96239 29.98 6.07374 29.98 6.12941C29.98 6.18509 29.98 6.24076 29.98 6.29644C29.98 6.35212 29.98 6.40779 29.98 6.46347C29.98 6.51914 29.98 6.57482 29.98 6.57482C29.98 6.63049 29.98 6.68617 29.98 6.79752C29.98 6.79752 29.98 6.90887 29.98 6.96455C29.98 7.02022 29.98 7.0759 29.98 7.13157C29.98 7.2986 29.98 7.40995 29.98 7.57698C29.98 7.744 29.98 7.85536 29.98 8.02238C29.98 8.02238 29.98 8.02238 29.98 8.07806C29.98 8.13373 29.98 8.07806 29.98 8.13373C29.98 8.13373 29.98 8.18941 29.98 8.24508C29.98 8.30076 29.98 8.41211 29.98 8.46779C29.98 8.52346 29.98 8.63481 29.98 8.69049V9.46995L30.4819 8.46779ZM30.5935 23.5002C30.5935 23.3888 30.5935 23.3332 30.5935 23.2775V23.0548C30.5935 23.0548 30.5935 22.9434 30.5935 22.8878C30.5935 23.0548 30.5935 23.0548 30.5935 22.9991C30.5935 22.9991 30.5935 22.8878 30.5935 22.8321C30.5935 22.7764 30.5935 22.7207 30.5935 22.6651C30.5935 22.5537 30.5935 22.4423 30.5935 22.331C30.5935 22.2196 30.5935 22.1083 30.5935 21.9969C30.5935 21.9969 30.5935 21.9969 30.5935 21.9413C30.5935 21.8856 30.5935 21.9413 30.5935 21.8856V21.7742C30.5935 21.7742 30.5935 21.7186 30.5935 21.6629C30.5935 21.6629 30.5935 21.5515 30.5935 21.4959C30.5935 21.4959 30.5935 21.3845 30.5935 21.3288C30.5935 21.2175 30.5935 21.1061 30.5377 21.0505C30.4819 20.9948 30.5377 20.8278 30.4819 20.7721V20.6051C30.4819 20.6051 30.4262 20.4937 30.4262 20.438C30.5377 20.8834 30.6493 21.3845 30.7608 21.9413C30.7608 21.9413 30.7608 21.9413 30.7608 21.9969C30.7608 22.1083 30.7608 22.2196 30.8166 22.331C30.8166 22.3867 30.8166 22.3867 30.8166 22.4424C30.8166 22.4424 30.8166 22.4424 30.8166 22.5537C30.8166 22.5537 30.8166 22.6651 30.8166 22.7207C30.8166 22.7207 30.8166 22.7764 30.8166 22.8321C30.8166 22.9991 30.8166 23.1105 30.8166 23.2218C30.8166 23.3332 30.8166 23.5002 30.8166 23.6115V23.7786C30.8166 23.8342 30.8166 23.8899 30.8166 23.9456C30.8166 24.0013 30.8166 24.0569 30.8166 24.1126V24.3353C30.8166 24.3353 30.8166 24.2796 30.8166 24.224V24.1126V24.0013C30.8166 24.0013 30.8166 23.8899 30.8166 23.8342C30.8166 23.8342 30.8166 23.7786 30.8166 23.7229C30.8166 23.6672 30.8166 23.6672 30.8166 23.6115C30.8166 23.5002 30.8166 23.3332 30.8166 23.1661C30.8166 22.9991 30.8166 22.8878 30.8166 22.7207C30.8166 22.5537 30.8166 22.4424 30.7608 22.2753C30.7608 22.3867 30.7608 22.5537 30.7608 22.6651C30.7608 22.7764 30.7608 22.9434 30.7608 23.0548C30.7608 23.1661 30.6493 23.0548 30.6493 22.8321C30.6493 22.8321 30.6493 22.7207 30.6493 22.6651V22.5537C30.6493 22.5537 30.6493 22.4423 30.6493 22.3867V22.2753C30.6493 22.2753 30.6493 22.2196 30.6493 22.164C30.6493 22.0526 30.6493 21.9413 30.6493 21.8299C30.6493 21.7186 30.6493 21.6629 30.6493 21.6072C30.6493 21.3288 30.5377 21.1061 30.4819 20.8278C30.4819 20.7164 30.4262 20.5494 30.3704 20.438C30.3146 20.3267 30.3146 20.1597 30.2588 20.0483C30.0915 19.5472 29.9242 18.9905 29.7011 18.4894C29.7011 18.5451 29.7011 18.6564 29.7569 18.7121C29.7569 18.7121 29.7569 18.7678 29.7569 18.8234C29.7569 18.8791 29.7569 18.8791 29.7569 18.9348C29.7569 18.9905 29.7569 19.0461 29.8126 19.1575C29.8126 19.1575 29.8126 19.2132 29.8126 19.2688C29.8126 19.2688 29.8126 19.3245 29.8126 19.3802C29.8126 19.4359 29.8126 19.4915 29.8684 19.6029C29.8684 19.6586 29.8684 19.7142 29.8684 19.7699C29.8684 19.8256 29.8684 19.8813 29.9242 19.9926C29.9242 19.9926 29.9242 20.0483 29.9242 20.104V20.2153C29.9242 20.3267 29.98 20.4937 30.0357 20.6051C30.0357 20.6607 30.0357 20.7164 30.0357 20.8278C30.0357 20.8278 30.0357 20.8834 30.0357 20.9391C30.0357 20.9948 30.0357 20.9948 30.0357 21.0505C30.0357 21.1061 30.0357 21.1618 30.0357 21.2732C30.0357 21.3288 30.0357 21.3845 30.0357 21.4959C30.0357 21.6072 30.0357 21.7742 30.0915 21.8856C30.0915 21.9969 30.0915 22.164 30.0915 22.2753C30.0915 22.2753 30.0915 22.331 30.0915 22.3867C30.0915 22.4423 30.0915 22.498 30.0915 22.5537C30.0915 22.5537 30.0357 22.4423 30.0357 22.3867C30.0357 22.3867 30.0357 22.331 30.0357 22.2753C30.0357 22.2196 30.0357 22.164 30.0357 22.1083C30.0357 22.1083 30.0357 22.1083 30.0357 22.164C30.0357 22.2196 30.0357 22.164 30.0357 22.2196C30.0357 22.2196 30.0357 22.331 30.0357 22.3867C30.0357 22.4423 30.0357 22.498 30.0357 22.5537C30.0357 22.6094 30.0357 22.6651 30.0357 22.6651C30.0357 22.7207 30.0357 22.8321 30.0357 22.9434V23.0548C30.0357 23.0548 30.0357 23.1105 30.0357 23.1661V23.2775C30.0357 23.2775 30.0357 23.3888 30.0357 23.4445C30.0357 23.5002 30.0357 23.5559 30.0357 23.5559C30.0357 23.5559 30.0357 23.5559 30.0357 23.6115C30.0357 23.7229 30.0357 23.8342 30.0357 23.9456C30.0357 24.0569 30.0357 24.1683 30.0357 24.2796V24.4467C30.0357 24.4467 30.0357 24.558 30.0357 24.6137C30.0357 24.725 30.0357 24.8364 30.0357 24.9478V25.0591C30.0357 25.0591 30.0357 25.0591 30.0357 25.1148C30.0357 25.1705 30.0357 25.2818 30.0357 25.3932C30.0357 25.5045 30.0357 25.5602 30.0357 25.6715C30.0357 25.6715 30.0357 25.7829 30.0357 25.8386C30.0357 25.9499 30.0357 25.9499 30.0357 26.0056C30.0357 26.1169 30.0357 26.2283 30.0357 26.3396C30.0357 26.451 30.0357 26.451 30.0357 26.5067C30.0357 26.5067 30.0357 26.618 30.0357 26.6737C30.0357 26.785 30.0357 26.8407 30.0357 26.9521C30.0357 27.0077 30.0357 26.9521 30.0357 27.0077C30.0357 27.0634 30.0357 27.1748 30.0357 27.2304C30.0357 27.2304 30.0357 27.2861 30.0357 27.3418C30.0357 27.5088 29.98 27.6202 29.9242 27.7872C29.8684 27.9542 29.8684 28.0656 29.8126 28.2326C29.8126 28.344 29.8126 28.344 29.8126 28.3996C29.8126 28.4553 29.8126 28.5667 29.7569 28.6223C29.7569 28.6223 29.7569 28.6223 29.7569 28.678C29.7569 28.7337 29.7569 28.7337 29.7569 28.7894C29.7569 28.7894 29.7569 28.845 29.7569 28.9007C29.5338 29.5688 29.3107 30.2369 29.0318 30.905V31.0721L28.9202 31.2948V31.3504C28.9202 31.3504 28.9202 31.3504 28.8645 31.3504H28.7529C28.6971 31.3504 28.5856 31.3504 28.5298 31.3504C28.5298 31.3504 28.474 31.3504 28.4183 31.3504C28.4183 31.3504 28.4183 31.3504 28.3625 31.3504C28.3067 31.3504 28.3625 31.3504 28.3067 31.3504H27.9163C27.9163 31.3504 27.8605 31.3504 27.8047 31.3504H27.6374H27.5259C27.5259 31.3504 27.4701 31.3504 27.4143 31.3504C27.4143 31.3504 27.3028 31.3504 27.247 31.3504H27.0797C27.0797 31.3504 27.0797 31.3504 27.0239 31.3504C26.9681 31.3504 27.0239 31.3504 26.9681 31.3504C26.4104 31.2391 25.8526 31.1277 25.3506 30.9607H25.2949C25.2949 30.9607 25.2949 30.9607 25.2391 30.9607H25.0718C25.0718 30.905 24.9602 30.905 24.9044 30.8494C24.9044 30.8494 24.9044 30.8494 24.8487 30.8494H24.7929L24.514 30.738C24.514 30.738 24.514 30.738 24.4582 30.738C24.4025 30.738 24.4582 30.738 24.4025 30.738H24.2909C24.2909 30.738 24.1794 30.738 24.1236 30.6823C24.1236 30.6823 24.1236 30.6823 24.0678 30.6823H24.012C24.012 30.6267 23.9005 30.6267 23.8447 30.571H23.6774C23.6774 30.5153 23.5101 30.404 23.5101 30.404C23.4543 30.404 23.3985 30.404 23.3427 30.2926C23.3427 30.2926 23.287 30.2926 23.2312 30.2926C23.2312 30.2926 23.1754 30.2926 23.1196 30.2926C23.0639 30.2926 23.0081 30.2369 22.8965 30.1812H22.8408C22.8408 30.1812 22.785 30.1256 22.7292 30.0699L22.5061 29.9585C22.5061 29.9585 22.5061 29.9585 22.5061 29.9029C22.5061 29.9029 22.4503 29.9029 22.3946 29.9029C22.3388 29.9029 22.2272 29.7915 22.1715 29.7915C22.1715 29.7915 22.1157 29.7915 22.0599 29.7358C22.0041 29.6802 22.0041 29.7358 21.9484 29.6802C21.9484 29.6802 21.8368 29.6245 21.781 29.5688C21.781 29.5688 21.781 29.5688 21.7253 29.5688C21.6695 29.5688 21.7253 29.5688 21.6695 29.5688C21.6137 29.5688 21.5022 29.4575 21.4464 29.4575C21.4464 29.4575 21.3906 29.4575 21.3348 29.4018C21.2791 29.3461 21.2791 29.4018 21.2233 29.3461C21.1117 29.2348 20.9444 29.1791 20.8329 29.0677C20.7771 29.0121 20.6655 28.9564 20.554 28.9007L20.3309 28.678H20.2751L20.2194 28.5667L20.1078 28.4553L19.9963 28.344L19.8847 28.2326L19.6058 27.9542C19.6058 27.9542 19.6058 27.9542 19.55 27.8986C19.55 27.8986 19.4385 27.7872 19.3827 27.7872C19.2712 27.6759 19.2154 27.6202 19.1039 27.5088L18.9923 27.3975C18.9923 27.3975 18.9365 27.2861 18.8808 27.2861C18.825 27.2304 18.7692 27.1748 18.7134 27.0634C18.7134 27.0634 18.6577 27.0077 18.6019 26.9521L18.4903 26.8407C18.4903 26.8407 18.4346 26.785 18.3788 26.7294C18.3788 26.6737 18.3788 26.618 18.3788 26.618C18.323 26.5623 18.2672 26.451 18.1557 26.3953C18.1557 26.3953 18.1557 26.3396 18.0999 26.284C18.0999 26.2283 17.9884 26.1726 17.9326 26.1169V26.0056C17.821 26.0056 17.821 25.9499 17.7653 25.8942C17.7653 25.8386 17.6537 25.7829 17.5979 25.6715C17.5979 25.6715 17.5979 25.6715 17.5979 25.6159C17.5979 25.6159 17.6537 25.6159 17.7095 25.6159H17.8768C17.9884 25.6159 18.0441 25.6159 18.1557 25.6159C18.2672 25.6159 18.323 25.6159 18.4346 25.6159C18.5461 25.6159 18.6019 25.6159 18.7134 25.6159C18.7692 25.6159 18.825 25.6159 18.8808 25.6159C18.8808 25.6159 18.9923 25.6159 19.0481 25.6159C19.0481 25.6159 19.0481 25.6159 19.1039 25.6159C19.1596 25.6159 19.1039 25.6159 19.1596 25.6159C19.2712 25.6159 19.327 25.6159 19.4385 25.5602C19.7731 25.5045 20.1078 25.4488 20.4424 25.3375H20.554C20.554 25.3375 20.6098 25.3375 20.6655 25.2818C20.7213 25.2818 20.8329 25.2818 20.9444 25.2261C20.9444 25.2261 20.9444 25.2261 21.0002 25.2261C21.0002 25.2261 21.0002 25.2261 21.056 25.2261H21.1675C21.2791 25.1705 21.3348 25.1148 21.3906 25.1148C21.8926 24.9477 22.4503 24.725 22.9523 24.5023C23.0639 24.5023 23.1196 24.4467 23.1754 24.391H23.287C23.287 24.3353 23.3427 24.2796 23.3985 24.2796C23.5101 24.2796 23.5658 24.1683 23.6774 24.1683C23.6774 24.1683 23.6774 24.1683 23.7332 24.1683C23.7889 24.1683 23.7332 24.1683 23.7889 24.1683L23.9563 24.0569C23.9563 24.0569 24.0678 24.0569 24.1236 23.9456C24.1794 23.8342 24.2351 23.8899 24.2909 23.8342C24.3467 23.7786 24.4025 23.7786 24.4582 23.7229C24.514 23.6672 24.5698 23.6672 24.6256 23.6115L24.8487 23.4445H24.9602C24.9602 23.3332 25.016 23.3332 25.0718 23.2775L25.2949 23.1105C25.2949 23.1105 25.3506 23.1105 25.4064 23.0548C25.4622 22.9991 25.4622 23.0548 25.518 22.9991C25.5737 22.9991 25.6853 22.8878 25.7411 22.8321C25.8526 22.7764 25.9084 22.6651 26.0199 22.6094C26.0199 22.6094 26.1315 22.5537 26.1873 22.498V22.4424H26.243C26.243 22.331 26.3546 22.331 26.4104 22.2753C26.5219 22.164 26.6335 22.1083 26.745 21.9969C26.8008 21.9969 26.9123 21.8856 26.9681 21.8299C27.0797 21.7742 27.1354 21.6629 27.1912 21.6072C27.1912 21.6072 27.1912 21.6072 27.247 21.6072C27.3028 21.6072 27.247 21.6072 27.3028 21.6072C27.3028 21.6072 27.3585 21.5515 27.4143 21.4959C27.4701 21.4402 27.4701 21.4402 27.5259 21.3845C27.5816 21.3288 27.5816 21.3288 27.6374 21.2732C27.6932 21.2175 27.749 21.1618 27.8605 21.0505C27.8605 21.0505 27.8605 21.0505 27.9163 20.9948C27.9163 20.9948 27.9163 20.9391 28.0278 20.8834C28.0278 20.8834 28.1394 20.7721 28.1952 20.7164C28.1952 20.7164 28.1952 20.7164 28.2509 20.6607C28.3067 20.6051 28.2509 20.6607 28.3067 20.6051C28.3625 20.4937 28.474 20.438 28.474 20.3824L28.5856 20.271L28.6971 20.1597C28.7529 20.0483 28.8645 19.9926 28.9202 19.937C28.9202 19.937 28.9202 19.8813 28.976 19.8813L29.1991 19.6029C29.1991 19.6029 29.2549 19.5472 29.3107 19.4915C29.3664 19.4359 29.3664 19.4359 29.4222 19.3802L29.5338 19.2688C29.5338 19.2688 29.5895 19.1575 29.6453 19.1575L29.8684 18.8791C29.8684 18.8791 29.8684 18.8791 29.8684 18.7678C29.8684 18.6564 29.9242 18.6564 29.98 18.6564C29.98 18.6007 30.0357 18.5451 30.0915 18.4894C30.0915 18.6007 30.2031 18.7121 30.2588 18.8234C30.2588 18.8234 30.2588 18.8791 30.2588 18.9348C30.2588 18.9905 30.3146 19.1018 30.3704 19.1575C30.3704 19.2132 30.4262 19.2688 30.4262 19.3245C30.4262 19.3245 30.4262 19.4359 30.4819 19.4915C30.4819 19.6029 30.5377 19.7142 30.5935 19.7699C31.1512 21.2732 31.4859 22.8878 31.5974 24.5023M17.1517 24.7807C17.0402 24.7807 16.9286 24.7807 16.7613 24.7807C16.7613 24.7807 16.7613 24.7807 16.7055 24.7807C16.6498 24.7807 16.6498 24.7807 16.594 24.7807C16.5382 24.7807 16.4267 24.7807 16.4267 24.7807H16.2036C16.1478 24.6694 16.092 24.558 16.0362 24.4467C16.0362 24.4467 16.0362 24.3353 15.9805 24.3353C15.9805 24.2796 15.9247 24.1683 15.8689 24.1126C15.8689 24.1126 15.8131 24.0013 15.7574 23.9456C15.7574 23.9456 15.7574 23.9456 15.7574 23.8899C15.7574 23.8342 15.7574 23.8899 15.7574 23.7786C15.7574 23.6672 15.6458 23.5559 15.6458 23.5002C15.0323 21.9413 14.5861 20.3267 14.4745 18.6564C14.4745 18.7678 14.4745 18.8234 14.4745 18.8791C14.4745 18.9348 14.4745 18.9905 14.4745 19.1575C14.4745 19.1575 14.4745 19.2688 14.4745 19.3245C14.4745 19.1575 14.4745 19.1575 14.4745 19.2132C14.4745 19.3245 14.4745 19.4359 14.4745 19.5472C14.4745 19.6029 14.4745 19.6586 14.4745 19.6586C14.4745 19.6586 14.4745 19.7699 14.4745 19.8256C14.4745 19.8813 14.4745 19.937 14.4745 19.9926C14.4745 19.9926 14.4745 19.9926 14.4745 20.0483C14.4745 20.104 14.4745 20.0483 14.4745 20.104C14.4745 20.2153 14.4745 20.3267 14.4745 20.3824C14.4745 20.3824 14.4745 20.438 14.4745 20.4937C14.4745 20.6051 14.4745 20.7164 14.5303 20.7721C14.5303 20.7721 14.5303 20.8834 14.5303 20.9391C14.5303 20.9948 14.5303 21.0505 14.5303 21.1061C14.5303 21.2175 14.5861 21.3288 14.5861 21.4402C14.5861 21.5515 14.6419 21.6629 14.6976 21.7742C14.6976 21.7186 14.6976 21.6629 14.6976 21.6072C14.6976 21.6072 14.6976 21.5515 14.6976 21.4959C14.6976 21.4402 14.6976 21.4402 14.6976 21.3845C14.6976 21.2732 14.6419 21.1618 14.5861 20.9948C14.5861 20.9948 14.5861 20.9391 14.5861 20.8834C14.5861 20.8278 14.5861 20.8278 14.5861 20.7721C14.5861 20.7164 14.5861 20.6607 14.5861 20.6051C14.5861 20.5494 14.5861 20.4937 14.5861 20.3824C14.5861 20.271 14.5861 20.271 14.5861 20.1597C14.5861 20.1597 14.5861 20.1597 14.5861 20.104C14.5861 20.0483 14.5861 19.9926 14.5861 19.937C14.5861 19.8813 14.5861 19.8256 14.5861 19.7699C14.5861 19.6586 14.5861 19.5472 14.5303 19.4359C14.5303 19.3245 14.5303 19.2688 14.5303 19.2132C14.5303 19.1575 14.5303 19.0461 14.5303 18.9905C14.5303 18.9905 14.5303 18.9348 14.5303 18.8791C14.5303 18.8791 14.5303 18.8234 14.5303 18.7678C14.5303 18.7121 14.5303 18.6564 14.5303 18.5451C14.5303 18.4337 14.5303 18.4337 14.5303 18.378V17.8213C14.5303 17.7656 14.5303 17.7099 14.5303 17.5986C14.5303 17.5986 14.5303 17.5986 14.5303 17.5429C14.5303 17.5429 14.5303 17.5986 14.5303 17.6543C14.5303 17.7656 14.5303 17.8213 14.5303 17.9326C14.5303 18.044 14.5303 18.1553 14.5303 18.3224C14.5303 18.3224 14.5303 18.378 14.5303 18.4337C14.5303 18.4894 14.5303 18.4894 14.5303 18.5451C14.5303 18.6007 14.5303 18.7121 14.5303 18.7678C14.5303 18.7678 14.5303 18.8234 14.5303 18.8791C14.5303 18.9905 14.5303 19.1018 14.5303 19.1575C14.5303 19.1575 14.5303 19.2132 14.5303 19.2688C14.5303 19.3245 14.5303 19.4359 14.5303 19.4915C14.5303 19.4359 14.5303 19.3802 14.5303 19.2688C14.5303 19.1575 14.5303 19.1575 14.5303 19.0461C14.5303 18.9348 14.5303 18.9348 14.5303 18.8234C14.5303 18.8234 14.5303 18.7678 14.5303 18.7121V18.6007C14.5303 18.6007 14.5303 18.6007 14.5861 18.6007C14.5861 18.6564 14.5861 18.7678 14.6419 18.8234C14.6419 18.9348 14.6419 19.0461 14.6419 19.1575C14.6419 19.2132 14.6419 19.2688 14.6419 19.3245C14.6419 19.3802 14.6419 19.4359 14.6419 19.4915C14.6419 19.5472 14.6419 19.6029 14.6419 19.6586C14.6419 19.7142 14.6419 19.7699 14.6419 19.8256C14.6419 19.9369 14.6419 19.9926 14.6419 20.0483C14.7534 20.6051 14.9207 21.1061 15.0881 21.6629C15.0881 21.7186 15.0881 21.7742 15.1438 21.8856V21.9969C15.1438 21.9969 15.1996 22.0526 15.1996 22.1083C15.1996 22.2196 15.3112 22.3867 15.3669 22.498C15.4227 22.6094 15.4785 22.7764 15.5343 22.8878C15.5343 22.9434 15.59 22.9991 15.6458 23.0548C15.7016 23.1105 15.7016 23.1661 15.7574 23.2218C15.7574 23.1661 15.7016 23.0548 15.6458 22.9991C15.6458 22.9991 15.6458 22.9434 15.6458 22.8878C15.6458 22.8321 15.6458 22.8321 15.6458 22.7764C15.6458 22.7207 15.59 22.6651 15.5343 22.5537C15.4785 22.4424 15.4785 22.4423 15.4227 22.331C15.3669 22.2196 15.3669 22.2196 15.3669 22.1083C15.3669 22.1083 15.3669 22.0526 15.3669 21.9969C15.3669 21.8856 15.2554 21.7186 15.2554 21.6072C15.2554 21.4959 15.1996 21.3288 15.1438 21.2175C15.0881 21.1061 15.0881 20.9391 15.0323 20.7721C15.0323 20.7721 15.0323 20.7164 15.0323 20.6607C15.0323 20.6051 15.0323 20.6051 15.0323 20.5494C15.0323 20.4937 15.0323 20.438 15.0323 20.3267C15.0323 20.3267 15.0323 20.271 15.0323 20.2153C15.0323 20.104 15.0323 20.0483 15.0323 19.9926C15.0323 19.8813 15.0323 19.7699 14.9765 19.6029C14.9765 19.5472 14.9765 19.4359 14.9765 19.3802C14.9765 19.3802 14.9765 19.3245 14.9765 19.2688C14.9765 19.2132 14.9765 19.2132 14.9765 19.1575C15.0323 19.2688 15.0881 19.4359 15.1438 19.5472C15.1438 19.4359 15.1438 19.3245 15.1438 19.2132C15.1438 19.2132 15.1438 19.1018 15.1438 19.0461C15.1438 18.9905 15.1438 18.9348 15.1438 18.9348C15.1438 18.9348 15.1438 18.8791 15.1438 18.8234C15.1438 18.8234 15.1438 18.8234 15.1438 18.7678C15.1438 18.7121 15.1438 18.7678 15.1438 18.7121C15.1438 18.6564 15.1438 18.5451 15.1438 18.4894V18.378C15.1438 18.378 15.1438 18.378 15.1438 18.3224C15.1438 18.2667 15.1438 18.3224 15.1438 18.211C15.1438 18.1553 15.1438 18.0997 15.1438 17.9883C15.1438 17.7656 15.1438 17.5429 15.1438 17.3759C15.1438 17.3759 15.1438 17.3759 15.1438 17.3202V16.9305V16.6521C15.1438 16.6521 15.1438 16.6521 15.1438 16.5964C15.1438 16.5964 15.1438 16.5964 15.1438 16.5407C15.1438 16.4851 15.1438 16.4294 15.1438 16.4294V16.318C15.1438 16.2067 15.1438 16.151 15.1438 16.0397C15.1438 15.9283 15.1438 15.817 15.1438 15.7056V15.5386V15.4829V15.4272C15.1438 15.2045 15.1438 14.9818 15.1996 14.8148C15.1996 14.7591 15.1996 14.8148 15.1996 14.7591C15.3112 14.1467 15.4227 13.5343 15.59 12.9775C15.59 12.9775 15.59 12.9775 15.59 12.9218C15.59 12.8662 15.59 12.8662 15.59 12.7548C15.59 12.7548 15.59 12.6991 15.59 12.6435C15.8131 11.9197 16.0362 11.2516 16.3151 10.5835V10.4721C16.3709 10.4721 16.4267 10.4164 16.4267 10.3608C16.4267 10.3051 16.4824 10.1937 16.5382 10.1381C16.5382 10.1381 16.5382 10.0824 16.594 10.0267V9.97103H16.8729H17.096C17.096 9.97103 17.1517 9.97103 17.2075 9.97103H17.3191H17.4864H17.6537C17.7095 9.97103 17.7653 9.97103 17.821 9.97103H17.9884C17.9884 9.97103 18.0441 9.97103 18.0999 9.97103C18.2115 9.97103 18.323 9.97103 18.4346 10.0267C18.7134 10.0267 19.0481 10.1381 19.3269 10.1937H19.4385C19.4385 10.1937 19.4943 10.1937 19.55 10.1937H19.7731C19.7731 10.2494 19.9963 10.3051 19.9963 10.3051C20.052 10.3051 20.1078 10.3051 20.2194 10.3608C20.6098 10.4721 21.056 10.6391 21.3906 10.7505C21.3906 10.7505 21.5022 10.7505 21.5579 10.8062C21.5579 10.8062 21.6695 10.8062 21.7253 10.8618C21.7253 10.8618 21.7253 10.8618 21.781 10.8618C21.8926 10.9175 22.0599 10.9732 22.1715 11.0289C22.283 11.0845 22.4503 11.1402 22.5619 11.1959C22.5619 11.1959 22.6177 11.1959 22.6734 11.2516C22.7292 11.3072 22.7292 11.2516 22.785 11.3072C22.8408 11.3072 22.9523 11.3629 23.0081 11.4186L23.1196 11.5299L23.3427 11.6413V11.697H23.4543C23.5101 11.8083 23.6216 11.864 23.6774 11.9197C23.7889 11.9753 23.9005 12.031 23.9563 12.1424H24.0678C24.0678 12.198 24.1794 12.3094 24.1794 12.3094C24.2351 12.3094 24.3467 12.4208 24.4025 12.4764C24.4025 12.4764 24.4582 12.4764 24.514 12.5321C24.5698 12.5321 24.6256 12.6435 24.7371 12.6991C25.0718 12.9775 25.4064 13.2559 25.7411 13.5343C26.0757 13.8683 26.5219 14.258 26.8566 14.6478C26.8566 14.6478 26.9123 14.7034 26.9681 14.7591C27.0239 14.8148 27.0239 14.8148 27.0797 14.8705C27.1354 14.9262 27.1912 15.0375 27.247 15.0932C27.247 15.0932 27.247 15.0932 27.247 15.1489C27.247 15.2602 27.3028 15.2602 27.3585 15.3159C27.4143 15.3716 27.4701 15.4829 27.5816 15.5386C27.5816 15.5386 27.5816 15.5943 27.6374 15.6499C27.6374 15.7056 27.749 15.7613 27.8047 15.8726C27.8605 15.984 27.9163 15.984 27.9721 16.0953L28.1394 16.318C28.1394 16.3737 28.2509 16.4294 28.2509 16.5407C28.2509 16.6521 28.3625 16.6521 28.3625 16.7634C28.3625 16.8748 28.474 16.8748 28.474 16.9861C28.474 16.9861 28.474 16.9861 28.474 17.0418C28.474 17.0418 28.474 17.0975 28.4183 17.1532C28.4183 17.1532 28.4183 17.2088 28.3625 17.2645C28.3625 17.3759 28.2509 17.4316 28.1952 17.4872C28.1394 17.5429 28.0836 17.6543 28.0278 17.7099C28.0278 17.7099 27.9721 17.8213 27.9163 17.877C27.8605 17.9326 27.8047 18.044 27.749 18.0997C27.749 18.0997 27.6932 18.1553 27.6374 18.211C27.6374 18.211 27.6374 18.211 27.6374 18.2667C27.6374 18.3224 27.6374 18.2667 27.6374 18.3224C27.6374 18.378 27.5259 18.4337 27.4701 18.4894C27.4143 18.5451 27.3585 18.6007 27.3028 18.6564C27.247 18.7121 27.1912 18.7678 27.1354 18.8791L27.0239 18.9905C27.0239 18.9905 26.9681 19.0461 26.9123 19.1018C26.745 19.3245 26.4104 19.6029 26.1873 19.8256C26.1873 19.8256 26.0757 19.937 26.0199 19.9926H25.9642C25.9642 20.104 25.9642 20.104 25.9084 20.104C25.7968 20.2153 25.6853 20.271 25.5737 20.3824C25.4622 20.4937 25.3506 20.5494 25.2391 20.6607C25.2391 20.6607 25.1275 20.7721 25.0718 20.7721C25.016 20.7721 24.9602 20.8834 24.9044 20.8834L24.7929 20.9948C24.7929 20.9948 24.7371 20.9948 24.6813 21.0505C24.6256 21.0505 24.514 21.1618 24.4582 21.2175H24.4025C24.4025 21.2732 24.4025 21.2732 24.3467 21.3288L24.2351 21.4402C24.1236 21.4959 24.0678 21.5515 23.9563 21.6629C23.8447 21.7742 23.7332 21.7742 23.6216 21.8856C23.5101 21.9969 23.3985 21.9969 23.287 22.0526C23.287 22.0526 23.2312 22.0526 23.1754 22.1083C23.1196 22.164 23.1196 22.1083 23.0639 22.164C23.0081 22.164 22.8965 22.2753 22.8408 22.331C22.8408 22.331 22.785 22.331 22.7292 22.3867H22.6177C22.5619 22.498 22.4503 22.498 22.3946 22.5537C22.3946 22.5537 22.3388 22.5537 22.283 22.5537C22.2272 22.5537 22.1715 22.5537 22.1715 22.6094C22.1715 22.6651 22.0599 22.6094 22.0041 22.7207C22.0041 22.7207 22.0041 22.7207 21.8926 22.7207H21.781C21.7253 22.7764 21.6695 22.8321 21.6137 22.8321C21.5579 22.8321 21.5022 22.8321 21.4464 22.8878C21.3906 22.9434 21.3348 22.8878 21.2791 22.9434C21.2233 22.9434 21.1675 22.9434 21.056 22.9991C21.056 22.9991 21.0002 22.9991 20.9444 22.9991C20.8329 22.9991 20.7771 23.0548 20.6655 23.1105C20.554 23.1105 20.4424 23.1661 20.3309 23.2218H20.1636L19.9963 23.3332C19.8847 23.3332 19.8289 23.3888 19.7174 23.4445C19.6058 23.5002 19.5501 23.4445 19.4385 23.5002C19.2712 23.5002 19.2154 23.5002 19.1596 23.5559C18.9923 23.5559 18.8808 23.6115 18.7692 23.6672C18.6577 23.7229 18.5461 23.6672 18.4903 23.7229H18.323C18.323 23.7229 18.323 23.7229 18.2115 23.7229C18.0999 23.7229 18.2115 23.7229 18.0999 23.7229H17.7653C17.7653 23.7786 17.6537 23.7786 17.6537 23.7786C17.5422 23.7786 17.4306 23.7786 17.3191 23.7786H17.2633C17.2633 23.7786 17.2633 23.7786 17.2075 23.7786H17.0402C17.0402 23.7786 16.9286 23.7786 16.8729 23.7786H16.8171M14.1957 23.7786H14.0841C14.0283 23.7786 13.9168 23.7786 13.861 23.7786C13.7495 23.7786 13.6379 23.7786 13.5264 23.7786C13.4148 23.7786 13.3033 23.7786 13.2475 23.7786C11.63 23.5002 10.1241 22.9991 8.67394 22.2753C8.78549 22.2753 8.84127 22.331 8.89704 22.3867C8.89704 22.3867 8.95282 22.3867 9.00859 22.3867C9.00859 22.3867 9.00859 22.3867 9.06437 22.3867C9.12014 22.3867 9.06437 22.3867 9.12014 22.3867H9.23169C9.06437 22.331 9.12014 22.2753 9.17592 22.331C9.34324 22.4423 9.56634 22.498 9.78944 22.6094C9.78944 22.6094 9.90099 22.6094 9.95677 22.6651H10.0125L10.0683 22.7207C10.1799 22.7207 10.2356 22.7764 10.3472 22.8321H10.4587C10.5703 22.8321 10.6261 22.8878 10.7376 22.9434H10.9049C10.9049 22.9991 11.0165 22.9991 11.0723 23.0548C11.1838 23.0548 11.2954 23.1105 11.3511 23.1661H11.4069H11.4627C11.4627 23.1661 11.5742 23.1661 11.63 23.1661C11.5742 23.1661 11.5185 23.1661 11.4627 23.1661H11.3511C11.3511 23.1661 11.2954 23.1661 11.2396 23.1661C11.128 23.1661 11.0165 23.1105 10.9049 23.0548C10.6818 22.9991 10.403 22.8878 10.1799 22.8321H10.0683C10.0683 22.8321 10.0125 22.8321 9.95677 22.7764C9.90099 22.7764 9.84522 22.7764 9.78944 22.7207H9.62212C9.62212 22.6651 9.62212 22.6094 9.56634 22.6094C9.51057 22.6094 9.56634 22.6094 9.51057 22.6094C9.45479 22.6094 9.39902 22.498 9.34324 22.4424C9.34324 22.4424 9.28747 22.4424 9.23169 22.4424C9.17592 22.4424 9.17592 22.4424 9.12014 22.4424C9.06437 22.4424 9.00859 22.3867 8.95282 22.331C8.89704 22.2753 8.84127 22.2753 8.78549 22.2196C8.78549 22.2196 8.78549 22.2196 8.72972 22.2196L8.39507 22.0526C8.28352 21.9969 8.17197 21.9413 8.06042 21.8299C8.06042 21.8299 8.11619 21.8299 8.17197 21.8299C8.22774 21.8299 8.33929 21.8856 8.39507 21.9413H8.45084C8.45084 21.9413 8.50662 21.9969 8.56239 21.9969C8.61817 21.9969 8.67394 21.9969 8.72972 22.1083C8.78549 22.2196 8.84127 22.164 8.89704 22.2196C8.95282 22.2753 9.00859 22.2753 9.06437 22.331C9.12014 22.3867 9.17592 22.3867 9.28747 22.4424C9.39902 22.498 9.39902 22.498 9.51057 22.5537L9.73367 22.6651C9.73367 22.6651 9.78944 22.6651 9.84522 22.6651C9.90099 22.6651 9.90099 22.6651 9.95677 22.6651C10.0125 22.6651 9.95677 22.6651 9.95677 22.6094C9.84522 22.6094 9.73367 22.498 9.56634 22.4424C9.51057 22.4424 9.45479 22.4423 9.39902 22.3867C9.34324 22.331 9.28747 22.331 9.23169 22.2753C9.17592 22.164 9.23169 22.2196 9.45479 22.2753C9.62212 22.331 9.84522 22.4424 10.0683 22.5537C10.2914 22.6651 10.5145 22.7207 10.6261 22.7764C11.128 22.9434 11.63 23.1105 12.1878 23.2218H12.4109L12.5224 23.2775C12.5224 23.2775 12.5782 23.2775 12.634 23.2775C12.7455 23.2775 12.9128 23.2775 13.0244 23.3332C13.0244 23.3332 13.0802 23.3332 13.1359 23.3332C13.1917 23.3332 13.1917 23.3332 13.2475 23.3332H13.4706C13.4706 23.3332 13.5264 23.3332 13.5821 23.3332H13.6937C13.7495 23.3332 13.8052 23.3332 13.9168 23.3332C13.6379 23.3332 13.3033 23.2218 13.0244 23.2218C12.9686 23.2218 12.8571 23.2218 12.8013 23.2218H12.6897C12.5782 23.2218 12.4109 23.1661 12.2993 23.1105C12.2993 23.1105 12.2993 23.1105 12.2435 23.1105L11.8531 22.9991C11.7416 22.9991 11.5742 22.9434 11.4627 22.8878C11.4627 22.8878 11.4069 22.8878 11.3511 22.8878H11.2396L11.0723 22.7764C11.0723 22.7764 11.0165 22.7764 10.9607 22.7764C10.9049 22.7764 10.9049 22.7764 10.8492 22.7764H10.6818C10.6818 22.6651 10.5703 22.6651 10.5145 22.6651C10.4587 22.6651 10.403 22.6651 10.2914 22.6094C10.1799 22.5537 10.1799 22.6094 10.0683 22.5537C10.0683 22.5537 10.0125 22.5537 9.95677 22.5537C9.90099 22.5537 9.95677 22.5537 9.90099 22.5537C9.90099 22.5537 10.0125 22.5537 10.0683 22.5537C10.1799 22.5537 10.2356 22.5537 10.3472 22.6094C10.2356 22.6094 10.1799 22.5537 10.0683 22.498C9.95677 22.4424 9.90099 22.3867 9.78944 22.3867C9.67789 22.3867 9.39902 22.2196 9.34324 22.2196H9.23169C9.23169 22.2196 9.12014 22.2196 9.06437 22.164C9.00859 22.164 8.95282 22.1083 8.89704 22.0526H8.84127C8.84127 22.0526 8.84127 21.9969 8.78549 21.9969C8.78549 21.9969 8.67394 21.9969 8.67394 21.9413H8.56239C8.56239 21.8856 8.50662 21.8299 8.50662 21.8299C8.50662 21.8299 8.50662 21.8299 8.45084 21.8299C8.33929 21.8299 8.28352 21.7186 8.17197 21.6629H8.11619C8.11619 21.6629 8.11619 21.6072 8.06042 21.6072C8.06042 21.6072 7.94887 21.6072 7.94887 21.4959C7.94887 21.3845 7.83732 21.4402 7.83732 21.4402C7.83732 21.4402 7.83732 21.4402 7.78155 21.4402C7.72577 21.4402 7.66999 21.3288 7.55844 21.2732C7.44689 21.2175 7.39112 21.1618 7.33535 21.1061L7.05647 20.9391C7.05647 20.9391 7.05647 20.9391 7.0007 20.9391C6.94492 20.9391 7.0007 20.9391 6.94492 20.9391C6.94492 20.9391 6.83337 20.8834 6.83337 20.8278L6.72182 20.7164H6.66605V20.6607C6.61027 20.5494 6.49872 20.4937 6.44295 20.4937C6.38717 20.4937 6.44295 20.4937 6.44295 20.438C5.99675 20.0483 5.55055 19.6586 5.16012 19.2132C5.16012 19.2132 5.16012 19.2132 5.16012 19.1575C5.16012 19.1018 5.16012 19.1575 5.04857 19.0461C5.04857 19.0461 5.04857 18.9905 4.9928 18.9348C4.49083 18.4337 4.04463 17.877 3.6542 17.2645C3.6542 17.2088 3.54265 17.1532 3.48688 17.0418C3.4311 16.9305 3.37533 16.9305 3.37533 16.8191C3.37533 16.8191 3.37533 16.8191 3.37533 16.7634C3.37533 16.7078 3.37533 16.6521 3.37533 16.6521C3.37533 16.5407 3.48688 16.4851 3.48688 16.3737C3.48688 16.2624 3.59843 16.2624 3.59843 16.151C3.6542 16.0397 3.76575 15.9283 3.82153 15.817C3.8773 15.7056 3.98885 15.5943 4.04463 15.5386C4.1004 15.4829 4.21195 15.3716 4.26773 15.2602C4.3235 15.1489 4.43505 15.0932 4.49082 14.9818C4.49082 14.9262 4.60238 14.8705 4.65815 14.8148C4.65815 14.8148 4.65815 14.7591 4.71393 14.7034C4.7697 14.6478 4.71392 14.6478 4.7697 14.6478C4.7697 14.5921 4.88125 14.5364 4.93703 14.4807C4.93703 14.4807 4.93702 14.4807 4.9928 14.4251C5.04857 14.3694 4.9928 14.4251 5.04857 14.3694C5.16012 14.258 5.2159 14.1467 5.32745 14.091C5.439 13.9797 5.55055 13.8683 5.60632 13.8126C5.60632 13.8126 5.60632 13.8126 5.6621 13.757C5.71787 13.7013 5.6621 13.757 5.71787 13.757C5.71787 13.757 5.77365 13.7013 5.82942 13.6456C5.8852 13.5899 5.99675 13.4786 6.05252 13.4229C6.1083 13.3672 6.21985 13.3116 6.27562 13.2002C6.27562 13.2002 6.27562 13.2002 6.3314 13.2002H6.38717C6.38717 13.1445 6.44295 13.0889 6.49872 13.0889C6.49872 13.0889 6.61027 12.9775 6.66605 12.9775C6.66605 12.9775 6.72182 12.9218 6.7776 12.8662C6.83337 12.8105 6.88915 12.8105 6.88915 12.7548C6.94492 12.7548 7.0007 12.6435 7.05647 12.6435L7.2238 12.5321C7.27957 12.5321 7.33535 12.4208 7.39112 12.4208C7.39112 12.4208 7.4469 12.4208 7.50267 12.3651C7.55845 12.3094 7.55845 12.3651 7.61422 12.3094C7.67 12.3094 7.72577 12.198 7.83732 12.198V12.1424C7.83732 12.1424 7.89309 12.1424 7.94887 12.0867L8.17197 11.9753V11.9197H8.28352C8.33929 11.8083 8.45084 11.7526 8.50662 11.7526C8.56239 11.7526 8.56239 11.7526 8.61817 11.697H8.72972C8.72972 11.5856 8.84127 11.5856 8.89704 11.5299C8.89704 11.5299 8.89704 11.5299 8.95282 11.5299C9.00859 11.5299 8.95282 11.5299 9.00859 11.5299C9.06437 11.5299 9.17592 11.4743 9.23169 11.4186C9.23169 11.4186 9.28747 11.4186 9.34324 11.3629C9.39902 11.3072 9.39902 11.3629 9.45479 11.3072C9.62212 11.2516 9.73367 11.1402 9.90099 11.0845C10.0125 11.0845 10.1241 10.9732 10.1799 10.9732C10.2356 10.9732 10.403 10.9175 10.4587 10.8618H10.5145C10.5145 10.8618 10.5145 10.8618 10.5703 10.8062H10.7376C10.7376 10.7505 10.8492 10.6948 10.9049 10.6948C10.9607 10.6948 11.0165 10.6948 11.0723 10.6391C11.1838 10.6391 11.2954 10.5835 11.4069 10.5278H11.5185C11.5742 10.5278 11.63 10.4721 11.6858 10.4721C11.7973 10.4721 11.9647 10.4164 12.0762 10.3608C12.132 10.3608 12.1878 10.3608 12.2435 10.3608C12.2993 10.3608 12.3551 10.3608 12.4109 10.3608C12.5224 10.3608 12.5782 10.3608 12.6897 10.3051C12.6897 10.3051 12.8013 10.3051 12.8571 10.3051H13.0244L13.1917 10.2494H13.2475C13.2475 10.2494 13.2475 10.2494 13.3033 10.2494H13.5821C13.5821 10.2494 13.5821 10.1937 13.6379 10.1937C13.6937 10.1937 13.6379 10.1937 13.6937 10.1937C13.7495 10.1937 13.861 10.1937 13.9168 10.1937H14.0283C14.0283 10.1937 14.0841 10.1937 14.1399 10.1937H14.363H14.4188C14.4188 10.1937 14.4188 10.1937 14.4745 10.1937C14.4745 10.1937 14.4745 10.2494 14.4745 10.3051C14.4745 10.3051 14.4745 10.4164 14.4188 10.4164C14.4188 10.4721 14.363 10.5835 14.3072 10.6391C14.2514 10.6948 14.2514 10.8062 14.1957 10.9175C14.1399 11.0289 14.1399 11.0845 14.0841 11.1959C14.0841 11.2516 14.0841 11.3072 14.0283 11.3629V11.4743C14.0283 11.4743 14.0283 11.4743 14.0283 11.5299C14.0283 11.5856 14.0283 11.5299 14.0283 11.5856C14.0283 11.697 13.9726 11.7526 13.9168 11.864C13.8052 12.1424 13.6937 12.4764 13.6379 12.8662C13.6379 12.8662 13.6379 12.9218 13.6379 12.9775C13.6379 13.0332 13.6379 13.0332 13.6379 13.0889C13.6379 13.1445 13.6379 13.2559 13.5821 13.3672C13.5264 13.4786 13.5821 13.5343 13.5264 13.6456C13.4706 13.757 13.5264 13.8126 13.4706 13.924C13.359 14.4807 13.2475 15.0375 13.1917 15.5943C13.1917 15.7056 13.1917 15.7613 13.1917 15.8726V15.984C13.1917 15.984 13.1917 16.0953 13.1917 16.151C13.1917 16.2624 13.1917 16.3737 13.1917 16.4851C13.1917 16.4851 13.1917 16.5407 13.1917 16.5964C13.1917 16.6521 13.1917 16.6521 13.1917 16.7078C13.1917 16.7634 13.1917 16.8191 13.1917 16.8748C13.1917 16.9305 13.1917 16.9861 13.1917 17.0418C13.1917 17.0975 13.1917 17.1532 13.1917 17.2088C13.1917 17.2645 13.1917 17.3202 13.1917 17.3759V17.5429C13.1917 17.6543 13.1917 17.7099 13.1917 17.8213V17.9883C13.1917 17.9883 13.1917 17.9883 13.1917 18.044C13.1917 18.0997 13.1917 18.044 13.1917 18.0997C13.1917 18.211 13.1917 18.2667 13.1917 18.378C13.1917 18.378 13.1917 18.4337 13.1917 18.4894V18.6007C13.1917 18.7121 13.1917 18.7678 13.1917 18.8791C13.1917 18.8791 13.1917 18.8791 13.1917 18.9905C13.1917 19.1018 13.1917 19.1575 13.1917 19.2132C13.1917 19.2688 13.1917 19.3245 13.1917 19.4359C13.1917 19.4915 13.1917 19.5472 13.1917 19.6586C13.1917 19.7699 13.1917 19.7699 13.1917 19.8256C13.1917 19.8256 13.1917 19.8813 13.1917 19.937C13.1917 19.9926 13.1917 19.9926 13.1917 20.0483C13.1917 20.104 13.1917 20.2153 13.1917 20.271C13.1917 20.271 13.1917 20.3824 13.1917 20.438C13.1917 20.438 13.1917 20.438 13.1917 20.4937C13.1917 20.5494 13.1917 20.4937 13.1917 20.5494C13.1917 20.6607 13.1917 20.7721 13.2475 20.8834C13.2475 20.8834 13.2475 20.8834 13.2475 20.9391C13.2475 21.0505 13.2475 21.1061 13.2475 21.1618C13.2475 21.2175 13.2475 21.2732 13.2475 21.3288C13.2475 21.3288 13.2475 21.3288 13.2475 21.3845V21.4402C13.2475 21.5515 13.2475 21.6072 13.3033 21.7186C13.3033 21.7742 13.3033 21.8299 13.3033 21.8856C13.3033 21.9413 13.3033 21.9413 13.3033 21.9969C13.3033 22.0526 13.3033 22.164 13.359 22.2196C13.4148 22.2753 13.359 22.331 13.4148 22.3867C13.4148 22.498 13.4706 22.6094 13.5264 22.6651C13.5264 22.6651 13.5264 22.7764 13.5264 22.8321C13.5264 22.8878 13.5264 22.9434 13.5821 22.9991C13.5821 23.1105 13.6379 23.2218 13.6937 23.2775V23.3888C13.6937 23.5002 13.7495 23.6115 13.8052 23.7229C13.8052 23.7229 13.8052 23.7229 13.8052 23.7786C13.8052 23.8342 13.8052 23.7786 13.8052 23.8342C13.8052 23.8342 13.8052 23.9456 13.861 23.9456C13.9168 23.9456 13.861 24.0569 13.9168 24.1126C13.9726 24.1683 13.9168 24.224 13.9726 24.2796C13.9726 24.391 14.0841 24.5023 14.1399 24.6137C14.1399 24.6137 14.1399 24.6137 14.1399 24.6694C14.1399 24.725 14.1399 24.6694 14.1399 24.7807C14.1399 24.8921 14.1957 24.8921 14.1957 24.9478C14.1957 25.0034 14.2514 25.1148 14.3072 25.1705C14.1957 25.1705 14.0841 25.1705 13.9726 25.1705M32.3783 8.46779V8.35644C32.3783 8.35644 32.3783 8.35644 32.3783 8.30076C32.3783 8.18941 32.3783 8.13373 32.3783 8.02238V7.91103C32.3783 7.91103 32.3783 7.91103 32.3783 7.85535C32.3783 7.79968 32.3783 7.85536 32.3783 7.79968C32.3783 7.68833 32.3783 7.5213 32.3783 7.40995C32.3783 7.40995 32.3783 7.35428 32.3783 7.2986C32.3783 7.24292 32.3783 7.24293 32.3783 7.18725C32.3783 7.13157 32.3783 7.13157 32.3783 7.0759C32.3783 7.02022 32.3783 6.96455 32.3783 6.8532C32.3783 6.8532 32.3783 6.79752 32.3783 6.74184C32.3783 6.74184 32.3783 6.63049 32.3783 6.57482V6.46347C32.3783 6.40779 32.3783 6.29644 32.3783 6.24077C32.0436 4.45915 31.4859 2.73321 30.5935 1.11861C30.5935 1.00726 30.5935 0.951587 30.4819 0.895911L30.3146 0.617534H29.8126C28.2509 0.617534 26.745 0.840237 25.2949 1.22997C25.2949 1.22997 25.2949 1.22997 25.3506 1.22997C25.4064 1.22997 25.4622 1.22997 25.518 1.22997C25.518 1.22997 25.518 1.22997 25.5737 1.22997C25.6853 1.22997 25.7411 1.22996 25.7968 1.17429C25.7968 1.17429 25.8526 1.17429 25.9084 1.17429C25.9642 1.17429 25.9642 1.17429 26.0199 1.17429C26.1315 1.17429 26.1873 1.17429 26.3546 1.11861H26.243C26.2988 1.11861 26.3546 1.11861 26.4104 1.11861C26.4104 1.11861 26.4104 1.11861 26.4661 1.11861H26.5219C26.5219 1.11861 26.5219 1.11861 26.4661 1.11861H26.3546C26.3546 1.11861 26.2988 1.11861 26.243 1.11861C26.243 1.11861 26.243 1.11861 26.2988 1.11861C27.247 0.895912 28.2509 0.784562 29.1991 0.784562C29.3107 0.784562 29.3664 0.784562 29.478 0.784562C29.478 0.784562 29.5895 0.784562 29.6453 0.784562C29.7011 0.784562 29.7569 0.784562 29.8126 0.784562H29.98C29.98 0.784562 29.6453 0.784562 29.5895 0.784562C29.5338 0.784562 29.5338 0.784562 29.478 0.784562C29.4222 0.784562 29.3107 0.784562 29.2549 0.784562H29.1433C29.1433 0.784562 29.0876 0.784562 29.0318 0.784562H28.8087H28.6971H28.5856C28.5856 0.784562 28.5298 0.784562 28.474 0.784562H28.2509H28.0278C28.0278 0.784562 27.9721 0.784562 27.9163 0.784562H27.8047C27.749 0.784562 27.6932 0.784562 27.5816 0.784562H27.4701H27.3585C27.247 0.784562 27.1354 0.784561 27.0239 0.840237H26.9123H26.8008H26.5219C26.3546 0.840237 26.1873 0.951588 26.0199 0.951588C25.9642 0.951588 25.8526 0.951588 25.7968 0.951588C25.7411 0.951588 25.6295 0.951588 25.5737 0.951588C25.4064 0.951588 25.2949 1.00726 25.1275 1.06294H24.9044C24.9044 1.11862 24.7929 1.11861 24.7929 1.11861C24.7929 1.11861 24.7371 1.11861 24.6813 1.11861C24.5698 1.11861 24.4025 1.17429 24.2909 1.22997C24.2351 1.22997 24.1794 1.22997 24.0678 1.28564H23.8447C23.8447 1.34132 23.7889 1.39699 23.7332 1.39699C23.6774 1.39699 23.6774 1.39699 23.6216 1.39699C23.5658 1.39699 23.4543 1.39699 23.3985 1.45267H23.1754C23.1754 1.56402 23.1196 1.56402 23.0639 1.56402C23.0081 1.56402 23.0081 1.56402 22.9523 1.56402H22.8408C22.9523 1.56402 23.0081 1.45267 23.1196 1.39699C23.1196 1.39699 23.1196 1.39699 23.1754 1.39699H23.3427C23.3427 1.34132 23.4543 1.28564 23.5101 1.28564H23.5658C24.1236 1.06294 24.7371 0.840236 25.3506 0.728885C25.4622 0.728885 25.518 0.728886 25.6295 0.673211C25.7411 0.617535 25.7968 0.673209 25.9084 0.617534C26.0199 0.561858 26.0757 0.617535 26.1873 0.561859H26.4661L26.745 0.450508H26.8008H26.9123C27.0239 0.450508 27.0797 0.450508 27.1912 0.450508C27.1912 0.450508 27.1912 0.450508 27.247 0.450508H27.3028C27.3028 0.450508 27.3585 0.450508 27.4143 0.450508C27.5816 0.450508 27.4143 0.450508 27.3028 0.450508H27.1912C27.1912 0.450508 27.1354 0.450508 27.0797 0.450508C27.0239 0.450508 26.9123 0.450508 26.8566 0.450508H26.745L26.5219 0.506184C26.4661 0.506184 26.3546 0.506184 26.2988 0.506184C26.243 0.506184 26.1315 0.506184 26.0757 0.506184C25.9084 0.506184 25.7411 0.561858 25.5737 0.617534C25.4622 0.617534 25.4622 0.617535 25.5737 0.561859C25.6295 0.561859 25.6853 0.56186 25.7968 0.506184C25.9084 0.506184 26.0199 0.506183 26.1315 0.450508H26.2988C26.3546 0.450508 26.4104 0.394833 26.4661 0.394833C26.5219 0.394833 26.5777 0.394833 26.6335 0.394833H26.745C26.745 0.394833 26.8008 0.394833 26.8566 0.394833H27.3028C27.3028 0.339157 27.4143 0.339156 27.4143 0.339156C27.4143 0.339156 27.4701 0.339156 27.5259 0.339156H27.749H27.9721H28.1952C28.3067 0.339156 28.474 0.339156 28.5856 0.339156H28.9202H29.0318H29.6453H29.98C29.98 0.339156 29.9242 0.339156 29.8684 0.339156H29.5338C29.5338 0.339156 29.478 0.339156 29.4222 0.339156C29.3664 0.339156 29.2549 0.339156 29.1991 0.339156H29.0876H28.976C28.9202 0.339156 28.8087 0.339156 28.7529 0.339156H28.5298C28.5298 0.339156 28.474 0.339156 28.4183 0.339156C28.3625 0.339156 28.3625 0.339156 28.3067 0.339156C28.2509 0.339156 28.1394 0.339156 28.0278 0.339156H27.9163H27.8047C27.6932 0.339156 27.6374 0.339156 27.5259 0.339156H27.4143H27.3028C27.1354 0.339156 26.9681 0.339156 26.8566 0.339156C27.1912 0.227805 27.5259 0.172131 27.8605 0.116455C27.749 0.116455 27.5816 0.116455 27.4701 0.116455H27.3585C27.3585 0.116455 27.3028 0.116455 27.247 0.116455C27.1912 0.116455 27.1354 0.116455 27.0797 0.116455H26.9123H26.8008C26.8008 0.116455 26.8008 0.116455 26.6892 0.116455C26.5777 0.116455 26.4661 0.116455 26.3546 0.116455C26.3546 0.116455 26.243 0.116455 26.1873 0.116455C26.1315 0.116455 26.0757 0.116455 26.0199 0.116455C25.9084 0.116455 25.7968 0.116454 25.6853 0.17213C25.6853 0.17213 25.5737 0.17213 25.518 0.17213C25.4622 0.17213 25.4064 0.17213 25.3506 0.17213C25.2391 0.17213 25.1833 0.17213 25.1275 0.17213H25.016L24.7929 0.283481C24.6813 0.283481 24.6813 0.28348 24.6256 0.339156C24.6256 0.339156 24.6256 0.339156 24.5698 0.339156C24.514 0.339156 24.514 0.339156 24.4582 0.339156C24.1794 0.450507 24.1794 0.450508 24.012 0.450508C23.9005 0.450508 23.7889 0.561859 23.6774 0.561859H23.5101C23.5101 0.617535 23.3427 0.673211 23.3427 0.673211L23.0081 0.840237C22.8965 0.840237 22.785 0.951587 22.6734 1.00726H22.5619C22.5619 1.00726 22.5619 1.06294 22.4503 1.06294H22.283C22.283 1.11862 22.1157 1.22997 22.1157 1.22997H22.0041V1.28564C21.781 1.39699 21.5579 1.50834 21.3348 1.6197C21.3348 1.6197 21.2233 1.67537 21.1675 1.73104C21.1675 1.73104 21.1675 1.73104 21.1117 1.73104C21.0002 1.73104 21.1117 1.73105 21.0002 1.78672C20.9444 1.78672 21.0002 1.78672 20.8886 1.8424C20.8886 1.8424 20.7771 1.8424 20.7771 1.89807H20.7213C20.7213 1.89807 20.7213 1.95375 20.6655 1.95375C20.554 1.95375 20.4982 2.0651 20.3867 2.12077L20.2751 2.23213L20.1636 2.34348C20.052 2.39915 19.9962 2.45483 19.8847 2.5105C19.0481 3.06726 18.323 3.73537 17.5979 4.40347C17.4864 4.51482 17.5979 4.40347 17.4306 4.51482C16.9286 5.0159 16.4267 5.57266 15.9805 6.12941C15.9247 6.18509 15.8689 6.29644 15.8131 6.35212C15.8131 6.40779 15.8131 6.46347 15.8131 6.46347C15.8131 6.46347 15.7574 6.51914 15.7574 6.57482C15.7016 6.63049 15.6458 6.74185 15.59 6.79752C15.59 6.8532 15.59 6.90887 15.59 6.90887V7.02022C15.4785 7.0759 15.4227 7.18725 15.3669 7.24292C15.3669 7.2986 15.3669 7.35428 15.3669 7.35428C15.3669 7.40995 15.3669 7.46563 15.3669 7.46563C15.3669 7.46563 15.3669 7.46563 15.3112 7.46563C15.3112 7.46563 15.1996 7.46563 15.1438 7.46563H14.865C14.865 7.46563 14.7534 7.46563 14.6976 7.46563C14.6419 7.46563 14.5861 7.46563 14.5303 7.46563H14.1957C14.1957 7.46563 14.0841 7.46563 14.0283 7.46563H13.861H13.6937H13.6379H13.5821C13.4706 7.46563 13.359 7.46563 13.2475 7.46563H13.0802H13.0244C12.8013 7.46563 12.5782 7.5213 12.4109 7.57698C12.2993 7.57698 12.1878 7.57698 12.0762 7.63265C11.9647 7.68833 11.8531 7.68833 11.7416 7.68833H11.5742L11.5185 7.74401H11.4627C11.3511 7.74401 11.2396 7.85535 11.128 7.85535C11.128 7.85535 11.0165 7.85535 10.9607 7.85535H10.7934C10.6818 7.96671 10.5703 7.96671 10.4587 8.02238C10.4587 8.02238 10.3472 8.02238 10.2914 8.07806H10.1241C10.1241 8.13373 9.95677 8.18941 9.95677 8.18941C9.95677 8.18941 9.84522 8.18941 9.78944 8.24508C9.00859 8.52346 8.28352 8.91319 7.55844 9.30292C6.88915 9.69265 6.21985 10.1381 5.55055 10.5835C5.04857 10.9732 4.60238 11.3629 4.15618 11.7526C3.70998 12.1424 3.31955 12.5878 2.9849 12.9775C2.92913 13.0332 2.87335 13.0889 2.81758 13.2002C2.81758 13.2002 2.7618 13.2559 2.70603 13.3116C2.59448 13.4786 2.48293 13.5899 2.37138 13.7013C2.25983 13.8126 2.14828 13.9797 2.03673 14.091C2.03673 14.091 2.03673 14.1467 1.98095 14.2024C1.92518 14.258 1.98095 14.258 1.92518 14.3137C1.92518 14.3694 1.81363 14.4251 1.75786 14.5364C1.75786 14.5364 1.75785 14.5921 1.70208 14.6478C1.6463 14.7034 1.70208 14.7034 1.64631 14.7591L1.47898 14.9818C1.36743 15.0932 1.31166 15.2602 1.20011 15.4272L1.08856 15.6499C1.03278 15.7613 0.977007 15.817 0.921232 15.9283C0.921232 15.984 0.865456 16.0397 0.809681 16.0953C0.809681 16.0953 0.809681 16.151 0.753906 16.2067C0.753906 16.318 0.809682 16.3737 0.865456 16.4294V16.5407V16.6521C0.977006 16.7078 0.977006 16.8191 1.03278 16.8748L1.14433 17.0418C1.20011 17.1532 1.25588 17.2645 1.31166 17.3759C1.36743 17.4872 1.4232 17.5986 1.53475 17.7099C1.53475 17.7099 1.59053 17.8213 1.64631 17.877C1.70208 17.9326 1.70208 17.9883 1.75786 18.044C1.81363 18.1553 1.92518 18.2667 1.98095 18.378C2.03673 18.4894 2.14828 18.5451 2.20405 18.6564C2.3156 18.8234 2.48293 19.0461 2.59448 19.1575V19.2688C2.70603 19.2688 2.70603 19.3245 2.7618 19.3802C2.7618 19.4359 2.87335 19.4915 2.92913 19.5472C2.92913 19.5472 2.9849 19.6586 3.04068 19.7142C3.09645 19.7699 3.09645 19.8256 3.15223 19.8813C3.208 19.9926 3.31955 20.0483 3.37533 20.1597C3.82153 20.6607 4.3235 21.1061 4.88125 21.5515C5.439 22.0526 6.05252 22.498 6.66605 22.8878C6.66605 22.8878 6.7776 22.9434 6.7776 22.9991H6.88915C6.88915 23.0548 7.16802 23.2218 7.16802 23.2218C7.16802 23.2218 7.16802 23.2218 7.2238 23.2218H7.27957C7.27957 23.2775 7.39112 23.3332 7.39112 23.3332C7.50267 23.3332 7.55844 23.4445 7.66999 23.5002C7.78154 23.5559 7.8931 23.6115 8.06042 23.7229C8.06042 23.7229 8.11619 23.7229 8.17197 23.7229C8.22774 23.7229 8.22775 23.7229 8.28352 23.7229L8.45084 23.8342C9.17592 24.1683 9.90099 24.5023 10.6261 24.725C10.6818 24.725 10.7376 24.725 10.7934 24.725H10.9607C11.0165 24.7807 11.0723 24.8364 11.128 24.8364H11.2396L11.63 24.9478C11.63 24.9478 11.6858 24.9478 11.7416 24.9478H11.8531L12.0204 25.0034H12.1878L12.3551 25.1148C12.4666 25.1148 12.634 25.1148 12.7455 25.1705H13.1359C13.1359 25.2261 13.2475 25.2261 13.2475 25.2261C13.3033 25.2261 13.359 25.2261 13.4148 25.2261H13.6379H13.7495H13.861C14.0283 25.2261 14.1399 25.2261 14.3072 25.2818C14.4745 25.3375 14.5861 25.2818 14.7534 25.2818C14.8092 25.2818 14.9207 25.2818 14.9765 25.2818H15.0881H15.1438C15.1438 25.3375 15.1996 25.3932 15.2554 25.5045C15.2554 25.5045 15.2554 25.5602 15.3112 25.6159C15.3669 25.6715 15.3112 25.6715 15.3669 25.7272C15.3669 25.7829 15.4227 25.8386 15.4785 25.8942C15.5343 25.9499 15.5343 26.0056 15.59 26.0613L15.8131 26.3953C15.8131 26.3953 15.8689 26.5067 15.9247 26.5067C15.9805 26.5067 15.9805 26.618 16.0362 26.618C16.092 26.618 16.092 26.7294 16.1478 26.7294C16.2036 26.7294 16.2036 26.8407 16.2593 26.8407C16.3151 26.9521 16.4267 27.0077 16.4824 27.1191C16.4824 27.1191 16.5382 27.2304 16.594 27.2304C16.6498 27.2304 16.6498 27.3418 16.7055 27.3418C16.7613 27.4531 16.8729 27.5088 16.9286 27.6202L17.1517 27.8986C17.1517 27.8986 17.2075 28.0099 17.2633 28.0099C17.3191 28.0099 17.3748 28.1213 17.3748 28.1213C17.4864 28.2326 17.5422 28.2883 17.6537 28.3996L17.8768 28.6223C17.9326 28.678 17.9884 28.7337 18.0999 28.845C18.2115 28.9564 18.2672 28.9564 18.323 29.0121C18.323 29.0121 18.3788 29.0677 18.4346 29.1234C18.4903 29.1791 18.4903 29.1791 18.5461 29.2348C18.6019 29.2904 18.7134 29.3461 18.7692 29.4018L18.8808 29.5131V29.6245C18.9365 29.6802 19.0481 29.7358 19.1039 29.7915C19.1039 29.7915 19.1596 29.8472 19.2154 29.9029C19.2712 30.0142 19.3827 30.0699 19.4385 30.1256C19.7174 30.3483 20.052 30.571 20.3309 30.738C20.3309 30.738 20.3867 30.738 20.4424 30.7937H20.554C20.6098 30.905 20.7213 30.9607 20.7771 31.0164C20.9444 31.1277 21.056 31.1834 21.1675 31.2391C21.3906 31.3504 21.5579 31.4618 21.7253 31.5731H21.781C21.781 31.5731 21.781 31.6288 21.8368 31.6288H21.9484C22.0599 31.7402 22.1157 31.7958 22.2272 31.8515C22.2272 31.8515 22.2272 31.8515 22.283 31.8515H22.4503C22.4503 31.9629 22.5619 31.9629 22.6177 31.9629C22.6177 31.9629 22.6177 31.9629 22.6734 31.9629H22.7292C22.8408 32.0185 22.9523 32.0742 23.0081 32.1299H23.0639L23.2312 32.1856H23.3985C23.4543 32.2969 23.5101 32.2969 23.6216 32.3526L23.9563 32.464C23.9563 32.464 23.9563 32.464 24.012 32.464H24.1794C24.2909 32.5196 24.4025 32.5753 24.514 32.631L24.8487 32.7423C25.6295 32.965 26.3546 33.0764 27.1354 33.1877C27.247 33.1877 27.3585 33.1877 27.5259 33.1877C27.5816 33.1877 27.6374 33.1877 27.749 33.1877H27.9721C28.0278 33.1877 28.1394 33.1877 28.1952 33.1877H28.3067C28.3067 33.1877 28.3625 33.1877 28.4183 33.1877C28.5298 33.1877 28.6414 33.1877 28.6971 33.1877V33.0764L28.8645 33.2434C28.8645 33.2434 28.7529 33.2434 28.6971 33.2434H28.8645H29.0318H29.2549C29.2549 33.2434 29.3107 33.2434 29.3664 33.2434C29.3664 33.2434 29.3664 33.2434 29.4222 33.2434C29.4222 33.2434 29.4222 33.1877 29.478 33.1321C29.478 33.0764 29.5338 33.0207 29.5895 32.9094C29.6453 32.798 29.6453 32.798 29.7011 32.6866C29.7569 32.5753 29.7569 32.5753 29.8126 32.464V32.3526H29.8684C29.9242 32.1299 30.0357 32.0185 30.0915 31.8515C30.1473 31.6845 30.2031 31.5731 30.3146 31.4061C30.5935 30.8494 30.8166 30.2369 31.0397 29.6245C31.0397 29.5131 31.0955 29.4018 31.1512 29.3461C31.1512 29.3461 31.1512 29.3461 31.1512 29.2904C31.1512 29.2348 31.1512 29.2904 31.1512 29.2348C31.1512 29.2348 31.1512 29.1234 31.1512 29.0677C31.1512 28.9564 31.1512 28.845 31.2628 28.7894C31.3743 28.7337 31.2628 28.5667 31.3186 28.4553C31.3743 28.2326 31.4301 28.0099 31.4859 27.7315C31.4859 27.7315 31.4859 27.6758 31.4859 27.6202C31.4859 27.5645 31.4859 27.5645 31.4859 27.5088C31.4859 27.4531 31.4859 27.3975 31.4859 27.2861C31.4859 27.1748 31.4859 27.1748 31.4859 27.0634C31.4859 26.9521 31.4859 26.9521 31.4859 26.8407C31.4859 26.7294 31.4859 26.7294 31.4859 26.618C31.4859 26.618 31.4859 26.5623 31.4859 26.5067C31.4859 26.451 31.4859 26.451 31.4859 26.3953C31.4859 26.2283 31.4859 26.1169 31.4859 25.9499V25.8386V25.7272V25.5045C31.4859 25.5045 31.4859 25.4488 31.4859 25.3932C31.4859 25.3375 31.4859 25.3375 31.4859 25.2818C31.4859 25.2261 31.4859 25.1148 31.4859 25.0591C31.4859 24.9478 31.4859 24.8364 31.4859 24.725C31.4859 24.6137 31.4859 24.5023 31.4859 24.391C31.4859 24.1683 31.4859 23.9456 31.4859 23.7229V23.6115C31.4859 23.5002 31.4859 23.4445 31.4859 23.3888C31.4859 23.2775 31.4859 23.1661 31.4859 23.1105C31.4859 23.1105 31.4859 22.9991 31.4859 22.9434C31.4859 22.8878 31.4859 22.8321 31.4859 22.8321C31.4859 22.7207 31.4859 22.6651 31.4859 22.6094V22.498V22.3867C31.4859 22.2753 31.4859 22.164 31.4859 22.0526C31.4859 21.8299 31.4301 21.4959 31.3743 21.1618C31.3743 21.0505 31.3743 20.9948 31.3743 20.9948V20.9391C31.3743 20.9391 31.3743 20.8834 31.3743 20.7721C31.3743 20.6607 31.3743 20.6051 31.3743 20.5494C31.3743 20.5494 31.3743 20.4937 31.3743 20.438C31.3743 20.3824 31.3743 20.3824 31.3743 20.3267C31.3743 20.271 31.3743 20.1597 31.3743 20.104C31.3743 20.104 31.3743 20.0483 31.3743 19.9926C31.3743 19.937 31.3743 19.9369 31.3743 19.8813C31.3743 19.7142 31.3186 19.5472 31.2628 19.3802C31.2628 19.3245 31.2628 19.2132 31.207 19.1018C31.1512 18.9905 31.207 18.9348 31.0955 18.8234C31.0955 18.7121 31.0397 18.6007 30.9839 18.4894V18.3224C30.9281 18.3224 30.9281 18.3224 30.8724 18.2667C30.8166 18.211 30.8724 18.2667 30.8724 18.211C30.8724 18.0997 30.7608 17.9883 30.7608 17.877C30.7608 17.877 30.7608 17.877 30.7608 17.7656V17.6543C30.705 17.6543 30.705 17.5429 30.6493 17.4872C30.5935 17.4316 30.6493 17.3759 30.5935 17.3202C30.5377 17.2645 30.5935 17.2088 30.5377 17.1532C30.5377 17.0418 30.4262 16.9305 30.3704 16.8191C30.3704 16.7078 30.2588 16.5964 30.2031 16.4851C30.2031 16.4851 30.2031 16.3737 30.1473 16.318C30.0915 16.2624 30.1473 16.2067 30.0915 16.151C30.0915 16.0397 29.98 15.9283 29.9242 15.8726C29.9242 15.8726 29.9242 15.8726 29.9242 15.817C29.9242 15.817 29.9242 15.7056 30.0357 15.6499C30.0357 15.5943 30.0915 15.4829 30.1473 15.4272C30.2031 15.3716 30.1473 15.3159 30.2031 15.2602C30.2031 15.1489 30.3146 15.0932 30.3146 14.9818C30.4819 14.6478 30.5935 14.3694 30.705 14.1467C30.705 14.091 30.705 14.0353 30.7608 13.9797C30.7608 13.9797 30.7608 13.9797 30.7608 13.924C30.7608 13.8126 30.8166 13.757 30.8724 13.6456C30.8724 13.6456 30.8724 13.5899 30.8724 13.5343C30.8724 13.4786 30.8724 13.4229 30.9281 13.3672C30.9839 13.3116 30.9281 13.2559 30.9839 13.2002V13.0889C30.9839 13.0889 30.9839 13.0332 31.0397 12.9775C31.0397 12.8662 31.0955 12.6991 31.1512 12.5878C31.1512 12.5878 31.1512 12.5321 31.1512 12.4764C31.1512 12.4208 31.1512 12.3651 31.1512 12.3094C31.1512 12.2537 31.1512 12.0867 31.207 12.0867L31.3186 11.697C31.3186 11.697 31.3186 11.6413 31.3186 11.5856C31.3186 11.5299 31.3186 11.5299 31.3186 11.4743V11.3072C31.3743 11.1959 31.4301 11.0845 31.4301 10.9732C31.4301 10.8618 31.4301 10.7505 31.4859 10.6391C31.4859 10.5835 31.4859 10.5278 31.4859 10.4721C31.4859 10.4164 31.4859 10.3608 31.4859 10.3051C31.4859 10.1937 31.4859 10.0824 31.4859 9.91535C31.4859 9.63697 31.5417 9.35859 31.5974 9.08022C31.5974 8.96887 31.5974 8.91319 31.5974 8.69049C31.5974 8.57914 31.5974 8.35644 31.5974 8.30076V8.18941C31.5974 8.07806 31.5974 7.91103 31.5974 7.74401C31.5974 7.40995 31.5974 7.13157 31.5974 6.79752" fill="#944361"/>
</svg>
