<svg width="236" height="57" viewBox="0 0 236 57" fill="none" xmlns="http://www.w3.org/2000/svg">
<path d="M72.4238 14.0688C75.9831 14.0688 76.5224 17.1665 76.5224 20.41C76.5224 23.6535 75.9831 26.7512 72.4238 26.7512C68.8644 26.7512 68.2892 23.6535 68.2892 20.41C68.2892 17.1665 68.8285 14.0688 72.4238 14.0688ZM68.2892 26.7512C69.6554 28.464 71.1295 28.9013 72.9271 28.9013C74.7247 28.9013 76.055 28.3182 76.9178 27.4436C78.5357 25.7672 78.9312 23.0704 78.9312 20.3735C78.9312 17.6767 78.5717 14.9799 76.9178 13.3034C76.055 12.4288 74.6169 11.8457 72.9271 11.8457C71.2373 11.8457 69.6554 12.283 68.2892 13.9959V12.0279H65.8804V36.1536H68.2892V26.7512Z" fill="white"/>
<path d="M91.9463 25.7295C90.8677 26.7134 89.6813 26.8592 88.3151 26.8592C85.6905 26.8592 84.5041 25.9481 84.5041 24.0166C84.5041 22.0851 85.7265 21.0647 88.2072 21.0647H92.7732V22.8504C92.7732 24.2353 92.5215 25.1828 91.9463 25.7295ZM95.182 28.7178V17.4203C95.182 13.8488 93.0608 11.8809 88.6027 11.8809C84.1446 11.8809 84.2524 12.464 82.8143 14.3955L84.4322 15.9261C85.4389 14.5412 86.5174 13.9946 88.5667 13.9946C91.5868 13.9946 92.7732 15.2337 92.7732 17.639V19.2425H87.8836C84.2165 19.2425 82.2031 21.1011 82.2031 24.053C82.2031 27.005 82.5986 26.6041 83.4255 27.4423C84.576 28.5721 85.7984 28.9729 88.0634 28.9729C90.3284 28.9729 91.4789 28.4992 92.8092 27.1872V28.7907H95.218L95.182 28.7178Z" fill="white"/>
<path d="M99.9995 24.2732C99.9995 26.7514 101.402 28.7194 104.206 28.7194H105.896V26.6421H104.637C103.091 26.6421 102.408 25.731 102.408 24.2003V13.9597H105.896V12.101H102.408V7.58203H99.9995V24.2368V24.2732Z" fill="white"/>
<path d="M112.152 18.4429C112.152 15.491 113.733 14.0332 116.25 14.0332C118.767 14.0332 120.241 15.491 120.241 18.4429V28.72H122.65V18.042C122.65 14.2883 120.493 11.883 116.753 11.883C113.014 11.883 113.338 12.5755 112.152 13.9239V7.61914H109.743V28.72H112.152V18.4429Z" fill="white"/>
<path d="M140.518 13.5586C139.404 12.4288 138.181 11.9551 136.456 11.9551C134.73 11.9551 133.687 12.3924 132.717 13.1942V12.1373H129.373V28.7556H132.717V18.6972C132.717 16.547 133.975 15.0892 135.845 15.0892C137.714 15.0892 137.355 15.3079 138.11 16.0732L138.505 16.4741L140.914 13.9959L140.518 13.595V13.5586Z" fill="white"/>
<path d="M148.032 14.9428C149.399 14.9428 150.513 15.6717 151.124 16.9472C151.412 17.5303 151.448 17.9312 151.52 18.7329H144.581C144.617 17.8947 144.689 17.5303 144.976 16.9472C145.552 15.6717 146.702 14.9428 148.068 14.9428M148.068 11.918C143.79 11.918 141.237 15.0886 141.237 20.4093C141.237 25.7301 143.79 28.9007 148.464 28.9007C153.138 28.9007 152.922 27.8803 154.432 26.3497L154.827 25.9488L152.49 23.8715L152.131 24.2359C150.945 25.4386 150.046 25.8395 148.5 25.8395C145.48 25.8395 144.653 23.6528 144.545 21.5755H154.863V20.0085C154.863 15.0157 152.239 11.918 148.032 11.918" fill="white"/>
<path d="M158.423 24.0181C158.423 26.8972 160.184 28.7194 162.881 28.7194H165.002V25.6581H163.276C162.557 25.6581 161.73 25.4759 161.73 23.9452V14.9437H165.002V12.101H161.73V7.58203H158.387V24.0181H158.423Z" fill="white"/>
<path d="M179.491 13.5586C178.376 12.4288 177.154 11.9551 175.428 11.9551C173.703 11.9551 172.66 12.3924 171.689 13.1942V12.1373H168.346V28.7556H171.689V18.6972C171.689 16.547 172.948 15.0892 174.817 15.0892C176.687 15.0892 176.327 15.3079 177.082 16.0732L177.478 16.4741L179.887 13.9959L179.491 13.595V13.5586Z" fill="white"/>
<path d="M186.502 14.9428C187.868 14.9428 188.982 15.6717 189.594 16.9472C189.881 17.5303 189.917 17.9312 189.989 18.7329H183.05C183.086 17.8947 183.158 17.5303 183.446 16.9472C184.021 15.6717 185.171 14.9428 186.538 14.9428M186.538 11.918C182.259 11.918 179.707 15.0886 179.707 20.4093C179.707 25.7301 182.259 28.9007 186.933 28.9007C191.607 28.9007 191.391 27.8803 192.901 26.3497L193.297 25.9488L190.96 23.8715L190.6 24.2359C189.414 25.4386 188.515 25.8395 186.969 25.8395C183.949 25.8395 183.122 23.6528 183.014 21.5755H193.333V20.0085C193.333 15.0157 190.708 11.918 186.502 11.918" fill="white"/>
<path d="M202.069 25.8766C199.445 25.8766 199.049 24.8561 199.049 23.7628C199.049 22.6695 199.373 21.5762 201.961 21.5762H205.664V22.706C205.664 23.8357 205.449 24.601 205.053 24.9655C204.226 25.7308 203.327 25.8766 202.033 25.8766M202.321 11.9551C199.948 11.9551 198.042 12.3924 196.46 14.5061L196.173 14.907L198.51 17.0936L198.869 16.5834C199.732 15.4172 200.595 15.0163 202.285 15.0163C205.269 15.0163 205.664 16.4012 205.664 17.859V18.8065H201.638C198.006 18.8065 195.777 20.738 195.777 23.8357C195.777 26.9334 196.245 26.569 197.108 27.3707C198.258 28.5005 199.552 28.9378 201.817 28.9378C204.082 28.9378 204.658 28.6463 205.7 27.9174V28.7556H209.044V17.6767C209.044 15.0528 207.893 11.9551 202.357 11.9551" fill="white"/>
<path d="M213.754 24.0181C213.754 26.8972 215.515 28.7194 218.212 28.7194H220.333V25.6581H218.607C217.888 25.6581 217.061 25.4759 217.061 23.9452V14.9437H220.333V12.101H217.061V7.58203H213.718V24.0181H213.754Z" fill="white"/>
<path d="M230.687 18.9158L228.278 18.6972C226.193 18.4785 226.049 17.7132 226.049 16.9843C226.049 15.3443 227.631 14.9799 228.926 14.9799C230.22 14.9799 231.73 15.3443 232.665 16.1097L233.06 16.4012L235.289 14.1417L234.822 13.7408C233.348 12.5382 231.37 11.9551 228.962 11.9551C225.258 11.9551 222.778 13.9959 222.778 17.0572C222.778 20.1185 225.546 21.5762 227.847 21.7584L230.364 21.9771C232.053 22.1229 232.413 22.7788 232.413 23.6899C232.413 25.5121 230.508 25.8766 228.89 25.8766C227.272 25.8766 225.546 25.3299 224.539 24.2366L224.144 23.8357L221.879 26.1317L222.274 26.5325C223.928 28.1725 226.013 28.9378 228.926 28.9378C233.096 28.9378 235.685 26.897 235.685 23.6535C235.685 20.41 234.031 19.2438 230.687 18.9158Z" fill="white"/>
<path d="M50.1692 16.2188C50.1692 16.2188 50.1692 16.2553 50.1692 16.2917C50.1692 16.3281 50.1692 16.401 50.1692 16.4375C50.1692 16.5468 50.1692 16.6197 50.1692 16.729C50.1692 16.8019 50.1692 16.8748 50.1692 16.9477C50.1692 17.0206 50.1692 17.0935 50.1692 17.1663C50.1692 17.3121 50.1692 17.4214 50.1692 17.5672C50.1692 17.713 50.1692 17.8223 50.1692 17.9681C50.1692 18.1139 50.1692 18.2232 50.1332 18.369C50.1332 18.4419 50.1332 18.5512 50.1332 18.6241C50.1332 18.697 50.1332 18.8063 50.0973 18.8792C50.0973 18.9521 50.0973 19.0614 50.0973 19.1343C50.0973 19.2072 50.0973 19.3165 50.0613 19.3894C50.0613 19.5716 49.9894 19.7174 49.9894 19.8996C49.9894 20.0818 49.9175 20.2276 49.9175 20.4098C49.9175 20.592 49.8456 20.8107 49.7737 20.9929C49.7737 21.1023 49.7377 21.2116 49.7018 21.2845C49.7018 21.3938 49.6658 21.5031 49.6299 21.576C49.522 21.9769 49.4142 22.3778 49.3063 22.7422C49.2703 22.888 49.1984 23.0338 49.1625 23.1795C49.1625 23.2524 49.1265 23.3253 49.0906 23.3982C49.0906 23.4711 49.0546 23.544 49.0187 23.6169C48.9827 23.7626 48.9108 23.9084 48.8749 24.0542C48.803 24.2 48.767 24.3457 48.6951 24.528C48.6951 24.6009 48.6591 24.6373 48.6232 24.7102C48.6232 24.7831 48.5872 24.8195 48.5513 24.8924C48.5513 24.9653 48.5153 25.0017 48.4794 25.0746C48.4434 25.184 48.3715 25.3297 48.3356 25.4391C48.2996 25.5484 48.2277 25.6942 48.1918 25.8035C48.1918 25.8035 48.1918 25.8764 48.1558 25.8764C48.1558 25.9128 48.1558 25.9128 48.1558 25.9128C48.1558 25.9128 48.1558 25.9128 48.1558 25.9493C48.1558 25.9493 48.1558 26.0222 48.1199 26.0222C48.1199 26.0222 48.1199 26.0222 48.1199 26.0586C48.1199 25.9857 48.048 25.9493 48.012 25.9128C47.976 25.8399 47.9401 25.767 47.8682 25.7306C47.7963 25.6213 47.6884 25.4755 47.6165 25.3662C47.5087 25.2204 47.4368 25.1111 47.3289 25.0017C47.2929 24.9288 47.221 24.8924 47.1851 24.8195C47.1851 24.8195 47.1491 24.7466 47.1132 24.7466C47.1132 24.7466 47.0772 24.6737 47.0413 24.6737C46.9694 24.6009 46.9334 24.528 46.8615 24.4551C46.8256 24.3822 46.7537 24.3457 46.7177 24.2729C46.6818 24.2 46.6098 24.1635 46.5739 24.0906C46.466 23.9813 46.3582 23.8355 46.2503 23.7262C46.2144 23.6898 46.1784 23.6169 46.1065 23.5804C46.0706 23.544 46.0346 23.4711 45.9627 23.4347C45.8908 23.3253 45.7829 23.2524 45.6751 23.1431C45.6391 23.1067 45.5672 23.0338 45.5313 22.9973C45.4953 22.9609 45.4234 22.888 45.3875 22.8516C45.2796 22.7422 45.1717 22.6329 45.0998 22.56C45.0639 22.5236 45.0279 22.4871 44.992 22.4142C44.956 22.3778 44.9201 22.3413 44.8482 22.2685C44.7403 22.1591 44.6684 22.0862 44.5605 21.9769C44.5246 21.9405 44.4527 21.8676 44.4167 21.8311C44.3808 21.7947 44.3089 21.7218 44.2729 21.6854C44.1651 21.576 44.0572 21.5031 43.9494 21.3938C43.3022 20.8107 42.6191 20.2641 41.9 19.7174C41.7922 19.6445 41.6484 19.5352 41.5405 19.4623C41.4686 19.4259 41.4327 19.3894 41.3608 19.3165C41.2889 19.2801 41.2529 19.2436 41.181 19.2072C41.0372 19.0979 40.8934 19.025 40.7496 18.9156C40.6777 18.8792 40.6058 18.8063 40.4979 18.7699C40.426 18.7334 40.3541 18.6605 40.2462 18.6241C40.1743 18.5876 40.0665 18.5148 39.9946 18.4783C39.9227 18.4419 39.8148 18.369 39.7429 18.3325C39.671 18.2961 39.5631 18.2232 39.4912 18.1868C39.4553 18.1868 39.4193 18.1503 39.3474 18.1139C39.3115 18.1139 39.2755 18.0774 39.2036 18.041C39.0957 17.9681 38.9519 17.8952 38.8081 17.8223C38.7362 17.8223 38.6643 17.7494 38.5924 17.713H38.5565L38.5205 17.6401C38.5205 17.6401 38.4486 17.6401 38.4126 17.6037C38.2688 17.5308 38.161 17.4579 38.0172 17.385C37.8734 17.3121 37.9093 17.3121 37.8374 17.2757C37.7655 17.2757 37.7295 17.2392 37.6936 17.2028C37.6217 17.1663 37.4779 17.0935 37.3341 17.0206C37.2981 17.0206 37.2622 16.9841 37.2262 16.9477C37.2262 16.9477 37.1903 16.9477 37.1543 16.9477C37.1543 16.9477 37.1183 16.9477 37.0824 16.9477C36.9745 16.9112 36.9026 16.8748 36.7948 16.8019C36.5791 16.6926 36.615 16.6926 36.5072 16.6561C36.3993 16.6197 36.3274 16.5832 36.2195 16.5468C36.1117 16.5104 36.0398 16.4739 35.9319 16.4375C35.86 16.4375 35.8241 16.401 35.7881 16.3646C35.7521 16.3646 35.6802 16.3281 35.6443 16.2917C35.5364 16.2553 35.4286 16.2188 35.2848 16.1459C35.2129 16.1459 35.141 16.1095 35.069 16.073C35.0331 16.073 34.9971 16.073 34.9612 16.0366C34.9252 16.0366 34.8893 16.0366 34.8533 16.0001C34.6736 15.9273 34.5298 15.8908 34.35 15.8179C34.314 15.8179 34.2781 15.8179 34.2421 15.7815C34.2062 15.7815 34.1702 15.7815 34.1343 15.745C34.0624 15.745 33.9545 15.7086 33.8826 15.6722C33.8107 15.6722 33.7388 15.6357 33.6669 15.5993C33.595 15.5993 33.5231 15.5628 33.4512 15.5264C33.3074 15.4899 33.1636 15.4535 32.9838 15.3806C32.8759 15.3806 32.804 15.3077 32.7321 15.3077C32.6602 15.3077 32.5883 15.3077 32.5164 15.2713C32.4086 15.2713 32.3007 15.1984 32.1928 15.1984C32.085 15.1984 31.9771 15.1619 31.9052 15.1255C31.7255 15.0891 31.5816 15.0526 31.4738 15.0162C31.4019 15.0162 31.294 14.9797 31.2221 14.9433C31.1143 14.9433 31.0424 14.9433 30.9345 14.9068C30.7547 14.9068 30.575 14.8339 30.4312 14.7975C30.3952 14.7975 30.2873 14.7975 30.2514 14.7975C30.0716 14.7975 29.8919 14.7246 29.7481 14.7246C29.7121 14.7246 29.6761 14.7246 29.6402 14.7246C29.6042 14.7246 29.5683 14.7246 29.5323 14.7246C29.4604 14.7246 29.3885 14.7246 29.3166 14.7246C29.2447 14.7246 29.1728 14.7246 29.065 14.7246C28.993 14.7246 28.8852 14.7246 28.8133 14.7246C28.6335 14.7246 28.4538 14.6882 28.238 14.6517C28.2021 14.6517 28.1661 14.6517 28.1302 14.6517C28.0942 14.6517 28.0223 14.6517 27.9504 14.6517C27.8785 14.6517 27.7347 14.6517 27.6988 14.6517C27.5909 14.6517 27.483 14.6517 27.3392 14.6517C27.4471 14.506 27.5549 14.3237 27.6628 14.178C27.6988 14.1415 27.7347 14.0686 27.8066 13.9957C27.8785 13.8864 27.9504 13.7771 28.0223 13.7042C28.0942 13.5584 28.2021 13.3762 28.3459 13.2304C28.4538 13.0847 28.5616 12.9389 28.6695 12.8295C30.3233 10.7887 32.2647 9.0394 34.4219 7.6181C34.4219 7.6181 34.4219 7.6181 34.3859 7.65455C34.2421 7.76388 34.1702 7.80032 34.0624 7.87321C34.0264 7.87321 33.9905 7.94609 33.9186 7.98254C33.9186 7.98254 33.8826 7.98254 33.8467 8.05543C33.8467 8.05543 33.7748 8.09187 33.7388 8.12831H33.8107C33.7028 8.2012 33.6669 8.2012 33.6309 8.27409C33.8467 8.12831 33.8467 8.16476 33.8107 8.27409C33.5231 8.45631 33.2355 8.67497 32.9478 8.93007C32.8759 8.96652 32.804 9.0394 32.7321 9.07585C32.7321 9.07585 32.6602 9.11229 32.6243 9.14874C32.6243 9.14874 32.5524 9.18518 32.5164 9.22162C32.3726 9.33095 32.2647 9.44029 32.1569 9.51317C32.1569 9.54962 32.1209 9.58606 32.049 9.65895C31.9412 9.76828 31.8333 9.87761 31.6895 9.98694C31.6176 10.0234 31.5816 10.0963 31.5097 10.1327C31.4378 10.1692 31.4019 10.242 31.33 10.3149C31.2221 10.4243 31.0783 10.5336 30.9704 10.6429C30.9704 10.6429 30.8985 10.7158 30.8626 10.7158L30.7907 10.7887C30.7188 10.8616 30.6828 10.898 30.6109 10.9709C30.6828 10.898 30.7547 10.8616 30.8266 10.7887C30.8266 10.7887 30.8985 10.7158 30.9345 10.6794C30.9704 10.6794 31.0064 10.6065 31.0424 10.57C31.1862 10.4243 31.33 10.3149 31.4738 10.1692C31.7614 9.91405 32.085 9.6225 32.4086 9.33095C32.4086 9.33095 32.4086 9.33095 32.4805 9.29451C32.4805 9.29451 32.5524 9.22162 32.5883 9.18518C32.5883 9.18518 32.6602 9.11229 32.6962 9.07585C32.7681 9.00296 32.84 8.96652 32.9119 8.89363C32.9838 8.82074 33.0557 8.7843 33.1276 8.71141C33.1276 8.71141 33.1995 8.67497 33.2355 8.63853C33.2355 8.63853 33.3074 8.60208 33.3433 8.56564C33.4512 8.52919 33.595 8.45631 33.7028 8.41986C33.7388 8.41986 33.8107 8.34698 33.8467 8.31053C33.8826 8.31053 33.9186 8.23764 33.9905 8.2012C34.0624 8.12831 34.1702 8.09187 34.2421 8.01898C34.314 7.98254 34.4219 7.90965 34.4938 7.87321C34.4938 7.87321 34.5298 7.87321 34.5657 7.83676C34.5657 7.83676 34.6017 7.83676 34.6376 7.83676C34.6736 7.83676 34.7095 7.80032 34.7814 7.76388C34.9612 7.65455 35.105 7.58166 35.2848 7.47233C35.4645 7.363 35.6443 7.29011 35.8241 7.18078C35.8241 7.18078 35.896 7.18078 35.9319 7.18078C35.896 7.21722 35.86 7.29011 35.7881 7.32655C35.6802 7.39944 35.5364 7.47233 35.4286 7.54522C35.3926 7.54522 35.3567 7.58166 35.3207 7.6181C35.2848 7.6181 35.2488 7.69099 35.2129 7.69099C35.141 7.76388 35.0331 7.80032 34.9612 7.87321C34.8893 7.9461 34.7814 7.98254 34.6736 8.05543C34.5657 8.12831 34.4938 8.2012 34.3859 8.23764C34.2781 8.31053 34.2062 8.38342 34.0983 8.45631C33.9905 8.52919 33.9186 8.60208 33.8107 8.67497C33.7028 8.74786 33.6309 8.82074 33.5231 8.89363C33.4871 8.89363 33.4152 8.96652 33.3793 9.00296C33.3433 9.00296 33.3074 9.07585 33.2355 9.11229C33.1636 9.22162 33.2355 9.18518 33.3433 9.14874C33.5231 9.00296 33.6669 8.89363 33.8467 8.74786C33.9186 8.67497 34.0264 8.60208 34.0983 8.56564C34.2062 8.49275 34.2781 8.45631 34.3859 8.38342C34.5657 8.38342 34.4579 8.49275 34.1702 8.71141C33.9545 8.89363 33.595 9.11229 33.3074 9.3674C33.0197 9.58606 32.7321 9.80472 32.5883 9.9505C31.9412 10.5336 31.33 11.1167 30.7547 11.7727C30.6828 11.8456 30.6109 11.9185 30.539 12.0278L30.4312 12.1371C30.4312 12.1736 30.3593 12.21 30.3233 12.2464C30.1795 12.4287 30.0357 12.5744 29.8919 12.7567C29.7481 12.9389 29.6042 13.0847 29.4964 13.2669C29.4964 13.3033 29.4245 13.3398 29.3885 13.4126C29.3885 13.4491 29.3166 13.4855 29.2807 13.5584C29.2088 13.6313 29.1369 13.7406 29.1009 13.8135C29.3885 13.4126 29.7121 13.0482 29.9997 12.7202C30.0716 12.6473 30.1435 12.538 30.2154 12.4651C30.2514 12.4287 30.2873 12.3922 30.3233 12.3193L30.3952 12.2464L30.4671 12.1736C30.6109 12.0278 30.7547 11.8456 30.9345 11.6998C30.9345 11.6998 30.9345 11.6633 30.9704 11.6269C31.1143 11.4811 31.294 11.2989 31.4378 11.1531C31.5816 11.0074 31.7614 10.8616 31.9052 10.6794C31.9412 10.6429 31.9771 10.6065 32.0131 10.57C32.049 10.5336 32.085 10.4972 32.1209 10.4607C32.1928 10.3878 32.2647 10.3149 32.3726 10.242C32.4086 10.242 32.4445 10.1692 32.4805 10.1327C32.5164 10.1327 32.5524 10.0598 32.5883 10.0234C32.6602 9.9505 32.7321 9.87761 32.804 9.84117C32.8759 9.80472 32.9478 9.73184 33.0197 9.65895C33.0917 9.58606 33.1995 9.51317 33.2714 9.44029C33.3793 9.3674 33.4512 9.29451 33.5231 9.22162C33.5231 9.22162 33.559 9.22162 33.595 9.18518C33.595 9.18518 33.6309 9.18518 33.6669 9.14874C33.7028 9.14874 33.7388 9.11229 33.7748 9.07585C33.7748 9.14874 33.7028 9.22162 33.6309 9.29451C33.559 9.40384 33.4512 9.47673 33.3074 9.58606C33.4512 9.47673 33.559 9.3674 33.7028 9.29451C33.8467 9.22162 33.9545 9.11229 34.0624 9.0394C34.2421 8.89363 34.5657 8.63853 34.6736 8.60208C34.6736 8.60208 34.8174 8.49275 34.8533 8.49275C34.9612 8.41986 34.9252 8.41986 35.069 8.34698C35.2129 8.23764 35.2129 8.23764 35.3207 8.2012C35.3207 8.2012 35.3926 8.16476 35.4286 8.12831C35.4286 8.12831 35.5005 8.09187 35.5364 8.05543C35.6083 8.01898 35.6802 7.98254 35.7521 7.90965C35.8241 7.87321 35.896 7.83676 35.9679 7.76388L36.0757 7.69099C36.0757 7.69099 36.1476 7.65455 36.1836 7.6181C36.3274 7.54521 36.4712 7.43588 36.615 7.363L36.7229 7.29011C36.7229 7.29011 36.7948 7.25366 36.8307 7.21722C36.9026 7.18078 36.9745 7.14433 37.0464 7.10789C37.1183 7.10789 37.2262 6.99856 37.2262 6.99856C37.2981 6.99856 37.2262 6.99856 37.2981 6.99856C37.3341 6.99856 37.2981 6.99856 37.37 6.92567C37.4779 6.85279 37.6217 6.81634 37.7295 6.74345C37.8374 6.67057 37.9812 6.63412 38.0891 6.56124C38.2329 6.48835 38.3767 6.41546 38.5565 6.34257C38.5924 6.34257 38.6284 6.34257 38.6643 6.30613H38.7362L38.8081 6.26969C38.88 6.26969 38.9519 6.1968 39.0598 6.16036C39.1317 6.16036 39.2036 6.08747 39.2755 6.05102C39.3474 6.01458 39.4193 5.97814 39.4912 5.94169C39.635 5.86881 39.7788 5.83236 39.8867 5.79592C39.9946 5.75947 39.8867 5.83236 39.9946 5.79592C40.8574 5.46793 41.7562 5.17638 42.691 4.95771C42.7629 4.95771 42.691 4.95771 42.7989 4.95771C42.9427 4.95771 42.9067 4.92127 43.0146 4.88483C43.0865 4.88483 43.1584 4.88483 43.1943 4.88483C44.2729 4.66616 45.3875 4.4475 46.5379 4.30173H46.9334L47.1491 4.26528H47.257C47.2929 4.26528 47.3289 4.26528 47.4008 4.26528H47.4727C47.4727 4.26528 47.5087 4.33817 47.5446 4.37462C47.5446 4.37462 47.5446 4.37462 47.5446 4.41106V4.4475V4.52039C47.6525 4.62972 47.6884 4.73905 47.7603 4.88483C47.8322 4.99416 47.8682 5.10349 47.9401 5.24926C48.012 5.43148 48.1199 5.6137 48.1918 5.79592C48.1918 5.83236 48.2277 5.86881 48.2637 5.94169C48.2637 5.97814 48.2996 6.05102 48.3356 6.08747C48.3715 6.16036 48.4075 6.26969 48.4434 6.34257C48.4434 6.37902 48.4434 6.41546 48.5153 6.48835C48.5153 6.52479 48.5513 6.56124 48.5872 6.63412C48.5872 6.70701 48.6591 6.81634 48.6951 6.88923C48.6951 6.96212 48.767 7.07145 48.803 7.14433C48.803 7.21722 48.8749 7.32655 48.8749 7.39944C48.9468 7.6181 49.0546 7.83676 49.1265 8.05543C49.1984 8.27409 49.2703 8.49275 49.3422 8.71141C49.4501 9.14874 49.5939 9.54962 49.7018 10.0234C49.7018 10.0963 49.7377 10.1692 49.7737 10.2785C49.7737 10.3149 49.7737 10.3514 49.7737 10.3878C49.7737 10.4243 49.7737 10.4607 49.7737 10.4972C49.7737 10.6794 49.8456 10.8251 49.8815 11.0074C49.8815 11.0803 49.8815 11.1531 49.9175 11.2625C49.9175 11.3354 49.9175 11.4082 49.9534 11.4811C49.9534 11.554 49.9534 11.6269 49.9894 11.6998C49.9894 11.7727 49.9894 11.8456 50.0253 11.9185C50.0253 12.0278 50.0613 12.1371 50.0973 12.2464C50.0973 12.3193 50.0973 12.4287 50.0973 12.5016C50.0973 12.5744 50.0973 12.6838 50.0973 12.7567C50.0973 12.9753 50.1692 13.194 50.1692 13.4491C50.1692 13.6678 50.2051 13.9229 50.2411 14.1415C50.2411 14.1415 50.2411 14.2144 50.2411 14.2508C50.2411 14.2508 50.2411 14.3237 50.2411 14.3602C50.2411 14.4331 50.2411 14.4695 50.2411 14.5424C50.2411 14.6517 50.2411 14.7975 50.2411 14.9068C50.2411 15.0162 50.2411 15.1619 50.2411 15.2713C50.2411 15.3806 50.2411 15.5264 50.2411 15.6357C50.2411 15.7086 50.2411 15.7815 50.2411 15.8544V16.073C50.2411 16.2188 50.2411 16.3646 50.2411 16.4739V16.5468M50.4208 40.6361C50.4208 40.6361 50.4208 40.6361 50.4208 40.5632C50.4208 40.381 50.4208 40.2716 50.4208 40.1623C50.4208 40.053 50.4208 39.9436 50.3849 39.7614C50.3849 39.7979 50.3849 39.8343 50.3849 39.8343C50.3849 39.725 50.3849 39.6885 50.3849 39.6156C50.3849 39.8707 50.3849 39.8707 50.313 39.7614C50.313 39.6885 50.313 39.5792 50.313 39.5063C50.313 39.4334 50.313 39.3241 50.313 39.2512C50.313 39.069 50.277 38.8868 50.2411 38.7046C50.2411 38.5223 50.1692 38.3401 50.1692 38.1943C50.1692 38.1579 50.1692 38.1215 50.1692 38.085C50.1692 38.0486 50.1692 38.0121 50.1692 37.9757C50.1692 37.9028 50.1692 37.8299 50.1692 37.757C50.1692 37.6841 50.1332 37.6477 50.0973 37.5748C50.0973 37.5019 50.0973 37.429 50.0613 37.3561C50.0613 37.2832 50.0613 37.2104 50.0253 37.101C50.0253 36.9553 49.9534 36.773 49.9175 36.6273C49.8815 36.4815 49.8456 36.2993 49.8096 36.1171C49.8096 36.0442 49.7737 35.9713 49.7377 35.8619C49.7377 35.7891 49.7018 35.7162 49.6658 35.6068C49.8096 36.3722 50.0253 37.1375 50.1692 37.9757C50.1692 37.9757 50.1692 37.9757 50.1692 38.085C50.2051 38.2672 50.2411 38.4859 50.277 38.6681C50.277 38.6681 50.277 38.7046 50.277 38.741C50.277 38.741 50.277 38.7774 50.277 38.8139C50.277 38.8503 50.277 38.9232 50.277 38.9597C50.277 39.0325 50.277 39.1419 50.277 39.2148C50.277 39.2877 50.277 39.3605 50.277 39.397C50.277 39.397 50.277 39.4699 50.277 39.5063C50.277 39.5063 50.277 39.5792 50.277 39.6156C50.277 39.8343 50.313 40.053 50.3489 40.2716C50.3489 40.4903 50.3489 40.6725 50.3489 40.8912V41.0369C50.3489 41.0734 50.3489 41.1463 50.3489 41.1827C50.3489 41.2921 50.3489 41.3649 50.3489 41.4743C50.3489 41.5836 50.3489 41.6929 50.3489 41.7658C50.3489 41.8751 50.3489 41.9845 50.3489 42.0938C50.3489 42.0938 50.3489 42.1667 50.313 42.2031C50.313 42.1303 50.277 42.0938 50.2411 42.0209C50.2411 41.948 50.2411 41.8751 50.2411 41.8023C50.2411 41.7294 50.2411 41.6565 50.2411 41.5836C50.2411 41.4743 50.2411 41.4014 50.2411 41.2921C50.2411 41.2556 50.2411 41.1827 50.2411 41.1463C50.2411 41.1098 50.2411 41.0369 50.2411 41.0005C50.2411 40.7818 50.2411 40.5632 50.2051 40.3081C50.2051 40.0894 50.1692 39.8343 50.1332 39.5792C50.1332 39.3605 50.0613 39.1054 50.0253 38.8868C49.9894 38.7774 49.9534 38.8868 49.9534 38.9597C49.9534 39.1783 49.9894 39.397 50.0253 39.6156C50.0253 39.8343 50.0613 40.053 50.0613 40.2716C49.9894 40.4538 49.9175 40.2716 49.8815 39.9072C49.8815 39.8343 49.8815 39.7614 49.8815 39.6521C49.8815 39.6521 49.8815 39.6156 49.8815 39.5792C49.8815 39.5792 49.8815 39.5428 49.8815 39.5063C49.8815 39.4699 49.8815 39.4334 49.8815 39.3605C49.8815 39.2512 49.8815 39.1783 49.8456 39.069C49.8456 39.0325 49.8456 38.9597 49.8456 38.9232C49.8456 38.8868 49.8456 38.8139 49.8456 38.7774C49.8456 38.5952 49.7737 38.413 49.7737 38.2672C49.7737 38.1215 49.7377 37.9757 49.7018 37.8663C49.6299 37.429 49.522 37.0281 49.4142 36.5908L49.2344 35.9713C49.1625 35.7526 49.1265 35.5704 49.0546 35.3517C48.803 34.5135 48.5153 33.7118 48.1558 32.8736C48.1918 32.9829 48.2277 33.0922 48.2996 33.2016C48.2996 33.2744 48.3356 33.3109 48.3715 33.3838C48.3715 33.4567 48.4075 33.4931 48.4434 33.566C48.4794 33.6753 48.5153 33.7847 48.5872 33.894C48.5872 33.9304 48.6232 34.0033 48.6591 34.0398C48.6591 34.1126 48.6951 34.1491 48.7311 34.222C48.767 34.3313 48.803 34.4406 48.8389 34.55C48.8389 34.55 48.8389 34.5864 48.8389 34.6229C48.8389 34.6229 48.8389 34.6593 48.8389 34.6957C48.8389 34.7322 48.8749 34.8051 48.8749 34.8415C48.8749 34.9509 48.9468 35.0602 48.9827 35.1695C48.9827 35.206 48.9827 35.2788 49.0187 35.3153C49.0187 35.3882 49.0187 35.4246 49.0546 35.4611C49.0546 35.4611 49.0546 35.4611 49.0906 35.534C49.1625 35.7526 49.1984 35.9713 49.2703 36.1899C49.2703 36.2993 49.3063 36.4086 49.3422 36.5179C49.3422 36.5544 49.3422 36.6273 49.3782 36.6637C49.3782 36.7366 49.3782 36.773 49.4142 36.8459C49.4142 36.9553 49.4501 37.0646 49.4861 37.1739C49.4861 37.2832 49.522 37.3926 49.558 37.5019C49.5939 37.7206 49.6299 37.9028 49.7018 38.085C49.7018 38.2308 49.7377 38.4859 49.7737 38.7046V38.7774V38.8503C49.7737 38.9232 49.7737 38.9597 49.7737 39.0325C49.7737 39.1419 49.7737 39.2512 49.7737 39.3241C49.7377 39.3241 49.7018 39.2148 49.6658 39.1054C49.6658 39.0325 49.6658 38.9961 49.6299 38.9232C49.6299 38.8503 49.6299 38.7774 49.5939 38.7046C49.5939 38.741 49.5939 38.7774 49.5939 38.8139C49.5939 38.8503 49.5939 38.8868 49.5939 38.9232C49.5939 38.9961 49.5939 39.069 49.5939 39.1783C49.5939 39.2512 49.5939 39.3241 49.5939 39.397C49.5939 39.4699 49.5939 39.5428 49.5939 39.6156C49.5939 39.725 49.5939 39.9072 49.6299 40.053C49.6299 40.1259 49.6299 40.1987 49.6299 40.2352C49.6299 40.2716 49.6299 40.3445 49.6299 40.381C49.6299 40.381 49.6299 40.5632 49.6299 40.5996C49.6299 40.709 49.6299 40.709 49.6299 40.8547C49.6299 40.9641 49.6299 41.0005 49.6299 41.0369C49.6299 41.0734 49.6299 41.1098 49.6299 41.1827C49.6299 41.3649 49.6299 41.5107 49.6299 41.6929C49.6299 41.8752 49.6299 42.0209 49.6299 42.2031V42.4582C49.6299 42.5311 49.6299 42.6405 49.6299 42.7134C49.6299 42.8956 49.6299 43.0413 49.6299 43.2236C49.6299 43.2236 49.6299 43.26 49.6299 43.2965C49.6299 43.3329 49.6299 43.3329 49.6299 43.3693C49.6299 43.4058 49.6299 43.4422 49.6299 43.4422C49.6299 43.5151 49.6299 43.4422 49.6299 43.5151C49.6299 43.5516 49.6299 43.5151 49.6299 43.6244C49.6299 43.7702 49.6299 43.8796 49.6299 44.0253C49.6299 44.1711 49.6299 44.3169 49.6299 44.4262C49.6299 44.4991 49.6299 44.572 49.6299 44.6813C49.6299 44.7178 49.6299 44.7542 49.6299 44.7906C49.6299 44.8271 49.6299 44.8635 49.6299 44.9364C49.6299 45.1186 49.5939 45.2644 49.558 45.4466C49.558 45.4831 49.558 45.5195 49.558 45.556C49.558 45.5924 49.558 45.6288 49.558 45.6653C49.558 45.7382 49.558 45.8111 49.558 45.9204C49.558 46.0662 49.522 46.2119 49.4861 46.3577C49.4861 46.4671 49.4861 46.3213 49.4501 46.4671C49.4501 46.5764 49.4142 46.6857 49.3782 46.795C49.3782 46.8679 49.3782 46.9044 49.3782 46.9773V47.0502V47.123C49.3422 47.3417 49.2703 47.5968 49.2344 47.8155C49.1625 48.0341 49.1265 48.2892 49.0546 48.5079V48.5808V48.6537C49.0187 48.7266 48.9827 48.763 48.9827 48.8359C48.9827 48.9452 48.9108 49.0546 48.8749 49.2003C48.8749 49.2732 48.8749 49.2003 48.803 49.3097C48.767 49.419 48.803 49.419 48.767 49.5283C48.767 49.6012 48.6951 49.6741 48.6951 49.7105C48.3356 50.7674 47.976 51.8607 47.5087 52.9176C47.5087 52.9176 47.5087 52.9905 47.4727 53.0269V53.0998C47.4368 53.0998 47.3289 53.282 47.3289 53.282C47.257 53.3913 47.221 53.5371 47.1491 53.6465V53.6829V53.7558L47.0772 53.8287V53.8651C47.0413 53.8651 47.0053 53.8651 46.9694 53.8651C46.9694 53.8651 46.9694 53.8651 46.9334 53.8651H46.8975C46.7537 53.8651 46.6458 53.8651 46.502 53.8651C46.4301 53.8651 46.3582 53.8651 46.3222 53.8651C46.3222 53.8651 46.2503 53.8651 46.2144 53.8651C46.2144 53.8651 46.1425 53.8651 46.1065 53.8651C45.8908 53.8651 45.711 53.8651 45.5313 53.8287C45.5313 53.8287 45.4953 53.8287 45.4594 53.8287C45.4594 53.8287 45.4234 53.8287 45.3875 53.8287C45.3515 53.8287 45.2796 53.8287 45.2436 53.8287C45.1358 53.8287 45.0639 53.8287 44.956 53.8287C44.9201 53.8287 44.8482 53.8287 44.8122 53.8287C44.7763 53.8287 44.7044 53.8287 44.6684 53.8287C44.5605 53.8287 44.4886 53.8287 44.3808 53.7922C44.2729 53.7922 44.201 53.7922 44.0932 53.7558C44.0572 53.7558 44.0213 53.7558 43.9494 53.7558C43.9134 53.7558 43.8774 53.7558 43.8055 53.7558C42.8708 53.61 42.0439 53.3913 41.181 53.1362C41.145 53.1362 41.1091 53.1362 41.0731 53.1362C41.0372 53.1362 41.0012 53.1362 40.9653 53.0998C40.8934 53.0998 40.8215 53.0634 40.7136 53.0269C40.6417 53.0269 40.5698 52.9905 40.4619 52.954C40.426 52.954 40.39 52.954 40.3541 52.9176C40.3181 52.9176 40.2822 52.9176 40.2462 52.8811C40.1024 52.8083 39.9227 52.7718 39.7788 52.6989C39.7429 52.6989 39.7069 52.6989 39.671 52.6625C39.671 52.6625 39.5991 52.6625 39.5631 52.626C39.4912 52.626 39.4193 52.5896 39.3474 52.5531C39.2755 52.5531 39.1676 52.4803 39.0598 52.4438C39.0238 52.4438 38.9879 52.4438 38.9519 52.4074L38.8441 52.3345C38.7722 52.3345 38.7003 52.2616 38.6284 52.2252C38.5205 52.1887 38.4126 52.1523 38.3048 52.0794L37.9812 51.9336C37.8734 51.8972 37.7655 51.8243 37.6576 51.7878C37.6217 51.7878 37.5498 51.7514 37.5138 51.7149C37.4779 51.7149 37.406 51.6785 37.37 51.6421C37.2622 51.5692 37.1543 51.5327 37.0464 51.4598C37.0464 51.4598 36.9745 51.4598 36.9745 51.4234H36.9026C36.8307 51.3505 36.7948 51.3141 36.7229 51.2776C36.615 51.2047 36.5072 51.1683 36.3993 51.0954H36.3274C36.3274 51.0225 36.2555 51.0225 36.2555 50.9861C36.1836 50.9861 36.1476 50.9132 36.1117 50.8767C36.0038 50.8039 35.86 50.731 35.7521 50.6581C35.6802 50.6581 35.6443 50.5852 35.5724 50.5487C35.5005 50.5487 35.4645 50.4759 35.3926 50.4394C35.3207 50.403 35.2488 50.3301 35.141 50.2936C35.105 50.2936 35.069 50.2572 35.0331 50.2208C34.9971 50.2208 34.9612 50.1843 34.9252 50.1479C34.8174 50.075 34.7095 50.0021 34.6017 49.9292C34.5298 49.9292 34.4938 49.8563 34.4219 49.8199C34.35 49.7834 34.314 49.747 34.2421 49.7105C34.0264 49.5648 33.8107 49.419 33.595 49.2732C33.4512 49.1639 33.3074 49.0546 33.1995 48.9452C33.0557 48.8359 32.9478 48.7266 32.804 48.6172L32.6962 48.5443C32.6962 48.5443 32.6243 48.5079 32.5883 48.4715L32.4086 48.2892C32.3366 48.2164 32.2647 48.1799 32.1928 48.107C32.1209 48.0341 32.049 47.9977 31.9771 47.9248C31.8333 47.779 31.6895 47.6697 31.5457 47.5239C31.5457 47.5239 31.5097 47.5239 31.4738 47.4875C31.4738 47.4875 31.4738 47.4875 31.4019 47.451C31.3659 47.451 31.33 47.3781 31.294 47.3417C31.2221 47.2688 31.1502 47.1959 31.0783 47.123C30.9345 46.9773 30.7907 46.8315 30.6469 46.6857C30.575 46.6128 30.5031 46.5399 30.4312 46.4671C30.3592 46.3942 30.2873 46.3213 30.2514 46.2484C30.1435 46.1391 30.0716 46.0297 29.9638 45.9204C29.9278 45.8475 29.8559 45.8111 29.82 45.7382C29.784 45.6653 29.7121 45.6288 29.6761 45.556C29.6402 45.4831 29.5683 45.4466 29.5323 45.3737L29.4604 45.3009C29.4604 45.3009 29.4245 45.228 29.3885 45.1915C29.2807 45.0822 29.1728 44.9364 29.065 44.8271C29.029 44.7542 28.993 44.7178 28.9571 44.6813C28.8852 44.572 28.8133 44.4627 28.7414 44.3898C28.7054 44.3533 28.6695 44.2804 28.6335 44.244C28.5976 44.2075 28.5616 44.1347 28.5257 44.0982C28.4538 43.9889 28.3819 43.8796 28.3099 43.7702C28.3099 43.7702 28.274 43.7338 28.238 43.6973C28.238 43.6973 28.238 43.6609 28.1661 43.6244C28.1661 43.6244 28.1661 43.6244 28.1661 43.588C28.238 43.588 28.274 43.588 28.3459 43.588C28.4178 43.588 28.4897 43.588 28.5616 43.588C28.7054 43.588 28.8492 43.588 28.993 43.5516C29.1369 43.5516 29.3166 43.5151 29.4604 43.4787C29.6042 43.4787 29.7481 43.4422 29.9278 43.4058C30.0357 43.4058 30.1076 43.4058 30.2154 43.3693C30.2873 43.3693 30.3592 43.3693 30.4312 43.3329C30.4671 43.3329 30.5031 43.3329 30.539 43.3329C30.575 43.3329 30.6109 43.3329 30.6469 43.3329C30.7907 43.3329 30.9704 43.26 31.1143 43.2236C31.6176 43.1142 32.1569 43.0049 32.6962 42.8591C32.7681 42.8591 32.804 42.8591 32.8759 42.8227C32.9478 42.8227 32.9838 42.8227 33.0557 42.7862C33.1995 42.7498 33.3074 42.7134 33.4512 42.6769C33.4512 42.6769 33.5231 42.6769 33.559 42.6769C33.559 42.6769 33.6309 42.6769 33.6669 42.6769C33.7388 42.6769 33.8107 42.6405 33.8826 42.604C34.0264 42.5676 34.1343 42.5311 34.2781 42.4582C35.105 42.2031 35.9319 41.8387 36.7229 41.4743C36.8667 41.4014 36.9745 41.3649 37.1183 41.2921C37.1903 41.2921 37.2622 41.2192 37.2981 41.2192C37.37 41.2192 37.4419 41.1463 37.5138 41.1098C37.6576 41.0369 37.8014 40.9641 37.9812 40.8912C38.0172 40.8912 38.0531 40.8547 38.0891 40.8183C38.125 40.8183 38.161 40.7818 38.1969 40.7454C38.2688 40.709 38.3767 40.6725 38.4486 40.5996C38.5205 40.5632 38.6284 40.5267 38.7003 40.4538C38.7722 40.4174 38.88 40.3445 38.9519 40.3081C39.0238 40.2716 39.1317 40.1987 39.2036 40.1623C39.2755 40.1259 39.3834 40.053 39.4553 40.0165C39.5631 39.9436 39.7069 39.8707 39.8507 39.7979C39.9227 39.7614 39.9946 39.725 40.0305 39.6885C40.1024 39.6521 40.1743 39.6156 40.2103 39.5792C40.3181 39.5063 40.4619 39.4334 40.5698 39.3605C40.6417 39.3605 40.6777 39.2876 40.7496 39.2512C40.7855 39.2512 40.8574 39.1783 40.8934 39.1419C40.9653 39.1054 41.1091 38.9961 41.2529 38.9232C41.3967 38.8503 41.5405 38.7046 41.7562 38.5588C41.936 38.413 41.936 38.4494 42.0079 38.3766C42.0079 38.3766 42.0439 38.3766 42.0798 38.3401C42.0798 38.3401 42.1158 38.3401 42.1517 38.3037C42.1877 38.3037 42.2236 38.2308 42.2596 38.1943C42.3315 38.1215 42.4034 38.0486 42.5112 38.0121C42.691 37.8663 42.8348 37.757 43.0865 37.5384C43.1943 37.429 43.3382 37.3561 43.446 37.2468C43.5898 37.1375 43.6977 37.0281 43.8415 36.9188L43.9494 36.8459C43.9494 36.8459 44.0213 36.773 44.0572 36.773C44.1291 36.7001 44.201 36.6637 44.237 36.5908C44.3089 36.5179 44.3448 36.4815 44.4167 36.4086C44.4886 36.3722 44.5246 36.2993 44.5965 36.2628C44.7044 36.1535 44.8122 36.0442 44.956 35.9348C44.992 35.8984 45.0279 35.8619 45.0639 35.8255L45.1358 35.7526C45.1717 35.7162 45.2436 35.6433 45.2796 35.6068C45.3515 35.534 45.4594 35.4246 45.5313 35.3517C45.5672 35.3153 45.6032 35.2788 45.6391 35.2424C45.6391 35.2424 45.711 35.1695 45.747 35.1331C45.8548 34.9873 45.9627 34.878 46.0346 34.8051C46.1065 34.7322 46.1425 34.6593 46.2144 34.6229C46.2863 34.55 46.3222 34.4771 46.3941 34.4042C46.502 34.2584 46.6458 34.1127 46.7177 34.0033C46.7177 34.0033 46.8256 33.894 46.8256 33.8575C46.9334 33.7118 47.0413 33.566 47.1491 33.4567C47.1851 33.3838 47.257 33.3473 47.2929 33.2744C47.3289 33.2016 47.4008 33.1651 47.4368 33.0922C47.4727 33.0193 47.5446 32.9465 47.5806 32.91C47.6165 32.8371 47.6884 32.7642 47.7244 32.6913C47.8322 32.5456 47.9401 32.3998 48.0839 32.2176C48.0839 32.2176 48.1199 32.1447 48.1558 32.1082C48.1558 32.1082 48.1918 32.0354 48.2637 31.9625C48.2996 31.8896 48.3715 31.7803 48.4075 31.7438C48.4794 31.6345 48.5513 31.5616 48.5872 31.4523C48.6591 31.6345 48.767 31.8167 48.8389 31.9989C48.8389 32.0354 48.8749 32.1082 48.9108 32.1811C48.9468 32.2905 49.0187 32.4362 49.0546 32.5091C49.0906 32.582 49.1265 32.6549 49.1984 32.7642C49.2344 32.8371 49.2703 32.9465 49.3063 33.0193C49.3782 33.2016 49.4501 33.3473 49.4861 33.4567C50.3849 35.8984 50.9242 38.4859 51.068 41.1098M27.9145 41.5836C27.9145 41.5836 27.8785 41.5836 27.8426 41.5836C27.6628 41.5836 27.4471 41.5836 27.2314 41.62C27.1954 41.62 27.1595 41.62 27.1235 41.62C27.0876 41.62 27.0157 41.62 26.9437 41.62C26.8718 41.62 26.728 41.62 26.6561 41.62C26.4764 41.62 26.6561 41.62 26.2966 41.62C26.1887 41.4378 26.1168 41.2556 26.009 41.0734C26.009 41.0005 25.9371 40.9276 25.9011 40.8547C25.8652 40.7454 25.7933 40.5996 25.7573 40.5267C25.7214 40.4538 25.6495 40.381 25.6135 40.2716C25.6135 40.2352 25.5775 40.1987 25.5416 40.1259C25.5416 40.0894 25.5056 40.0165 25.4697 39.9801C25.3978 39.7979 25.3259 39.6156 25.254 39.5063C24.2113 37.0281 23.6002 34.3678 23.3485 31.7074C23.3485 31.7074 23.3485 31.7074 23.3485 31.7803C23.3485 31.9625 23.3485 32.0718 23.3844 32.1811C23.3844 32.2905 23.3844 32.3998 23.4204 32.582C23.4204 32.5456 23.4204 32.5091 23.4204 32.5091C23.4204 32.6185 23.4204 32.6549 23.4204 32.7278C23.3844 32.4362 23.4204 32.4727 23.4923 32.5456C23.4923 32.7278 23.5282 32.91 23.5642 33.0922C23.5642 33.0922 23.5642 33.1287 23.5642 33.1651V33.238C23.5642 33.2744 23.5642 33.3473 23.5642 33.3838C23.5642 33.4931 23.5642 33.566 23.6002 33.6753C23.6002 33.7847 23.6002 33.8575 23.6361 33.9304C23.6361 33.9669 23.6361 34.0033 23.6361 34.0762C23.6361 34.1126 23.6361 34.1491 23.6361 34.222C23.6361 34.4042 23.708 34.55 23.708 34.6957C23.708 34.7686 23.744 34.8051 23.7799 34.878C23.8159 35.0237 23.8518 35.206 23.8878 35.3517C23.8878 35.4246 23.8878 35.534 23.9597 35.6068C23.9597 35.6797 23.9956 35.7891 24.0316 35.8619C24.0675 36.0442 24.1035 36.1899 24.1754 36.3722C24.2113 36.5544 24.2833 36.7001 24.3192 36.8824C24.3192 36.773 24.2833 36.7001 24.2473 36.5908C24.2473 36.5544 24.2473 36.4815 24.2113 36.445C24.2113 36.4086 24.2113 36.3357 24.1754 36.2993C24.1394 36.1171 24.0675 35.8984 24.0316 35.7162C24.0316 35.6797 24.0316 35.6068 23.9956 35.5704C23.9956 35.534 23.9956 35.4611 23.9597 35.4246C23.9597 35.3153 23.9237 35.206 23.8878 35.0966C23.8878 34.9873 23.8518 34.878 23.8159 34.7686C23.8159 34.6593 23.7799 34.55 23.744 34.4406C23.744 34.4406 23.744 34.4406 23.744 34.3313C23.744 34.222 23.708 34.1491 23.6721 34.0398C23.6721 33.9304 23.6361 33.8575 23.6002 33.7482C23.6002 33.566 23.5282 33.3473 23.4923 33.2016C23.4923 33.0558 23.4923 32.9465 23.5282 32.8007C23.5282 32.6913 23.5282 32.582 23.4923 32.4727C23.4923 32.3998 23.4923 32.3634 23.4923 32.2905C23.4923 32.2176 23.4923 32.1811 23.4923 32.1447C23.4923 32.0354 23.4923 31.926 23.4923 31.8167C23.4923 31.7074 23.4923 31.598 23.4923 31.5251C23.4923 31.3065 23.4923 31.1243 23.4923 30.9056C23.4923 30.7963 23.4923 30.6869 23.4923 30.5776C23.4923 30.4683 23.4923 30.359 23.4923 30.2496C23.4923 30.2496 23.4923 30.1767 23.4923 30.1403C23.4923 30.2132 23.5282 30.2496 23.5642 30.359C23.5642 30.5047 23.5642 30.6505 23.5642 30.7963C23.5642 30.9785 23.6002 31.1972 23.6361 31.4158C23.6361 31.4887 23.6361 31.5251 23.6361 31.598C23.6361 31.6709 23.6361 31.7074 23.6361 31.7803C23.6361 31.8896 23.6361 31.9989 23.6721 32.1447V32.3269C23.6721 32.3269 23.6721 32.3998 23.6721 32.4362V32.5091C23.6721 32.6185 23.6721 32.7642 23.708 32.8736C23.708 32.9464 23.708 32.9829 23.708 33.0558C23.708 33.0558 23.708 33.1287 23.708 33.1651V33.238C23.708 33.3473 23.744 33.4931 23.7799 33.6024C23.8159 33.7118 23.8518 33.6024 23.8518 33.5295C23.8518 33.4202 23.8518 33.3109 23.8159 33.2016C23.8159 33.0922 23.8159 32.9829 23.7799 32.8736C23.7799 32.7642 23.7799 32.6549 23.744 32.5456C23.744 32.4727 23.744 32.4362 23.744 32.3634C23.744 32.2905 23.744 32.254 23.744 32.1811C23.744 32.1082 23.8159 32.1082 23.8518 32.1811C23.8518 32.254 23.9237 32.3998 23.9237 32.582C23.9237 32.7278 23.9597 32.91 23.9956 33.0922C23.9956 33.2016 23.9956 33.2744 24.0316 33.3838C24.0316 33.4931 24.0316 33.566 24.0675 33.6753C24.0675 33.7847 24.0675 33.8575 24.1035 33.9669C24.1035 34.0398 24.1035 34.1491 24.1394 34.222C24.1394 34.3678 24.2113 34.5135 24.2113 34.6229C24.4271 35.4975 24.6787 36.3357 24.9664 37.2104C25.0023 37.3197 25.0383 37.429 25.0742 37.5384L25.1461 37.6841C25.1461 37.7206 25.1461 37.7935 25.218 37.8299C25.2899 38.0486 25.3618 38.2672 25.4697 38.4494C25.5416 38.6681 25.6495 38.8503 25.7214 39.069C25.7573 39.1783 25.8292 39.2877 25.8652 39.397C25.9011 39.5063 25.973 39.6156 26.009 39.725C25.973 39.6156 25.9011 39.5063 25.8652 39.3605C25.8652 39.2877 25.8292 39.2512 25.7933 39.1783C25.7933 39.1054 25.7573 39.069 25.7214 38.9961C25.6854 38.8868 25.6135 38.7774 25.5775 38.6681C25.5416 38.5588 25.4697 38.4494 25.4337 38.3401C25.3978 38.2308 25.3618 38.1215 25.2899 38.0121C25.2899 37.9757 25.254 37.9028 25.218 37.8663V37.7935V37.7206C25.1461 37.5019 25.0742 37.2832 25.0023 37.0646C25.0023 37.0646 25.0023 37.0646 24.9664 36.9917C24.8944 36.773 24.8225 36.5544 24.7866 36.3357C24.7147 36.1171 24.6787 35.8984 24.6068 35.6797C24.6068 35.6433 24.6068 35.5704 24.5709 35.4975C24.5709 35.4246 24.5709 35.3882 24.5349 35.3153C24.5349 35.206 24.463 35.0966 24.463 34.9873C24.463 34.9509 24.463 34.878 24.4271 34.8415C24.4271 34.8415 24.4271 34.8051 24.4271 34.7686C24.4271 34.7322 24.4271 34.7322 24.4271 34.6957C24.4271 34.5864 24.3911 34.5135 24.3552 34.4042C24.3552 34.222 24.2833 34.0033 24.2473 33.7482C24.2473 33.6389 24.2113 33.4931 24.1754 33.3838C24.1754 33.3109 24.1754 33.2744 24.1754 33.238C24.1754 33.2016 24.1754 33.1287 24.1754 33.0922C24.2473 33.1651 24.3552 33.4202 24.4271 33.7482C24.4271 33.566 24.3552 33.4202 24.3552 33.238C24.3552 33.1651 24.3552 33.0922 24.3552 33.0193C24.3552 32.9465 24.3552 32.8736 24.3552 32.8007C24.3552 32.7278 24.3552 32.6549 24.3552 32.582C24.3552 32.582 24.3552 32.5091 24.3552 32.4727C24.3552 32.4727 24.3552 32.3998 24.3552 32.3634C24.3552 32.2176 24.3192 32.0718 24.3192 32.0354C24.3192 32.0354 24.3192 31.8531 24.3192 31.8167C24.3192 31.7438 24.3192 31.7074 24.3192 31.7074C24.3192 31.7074 24.3192 31.6345 24.3192 31.5616C24.3192 31.3794 24.3192 31.3794 24.3192 31.2336C24.3192 30.9056 24.2833 30.5412 24.2473 30.2132C24.2473 30.1767 24.2473 30.1403 24.2473 30.1038V29.9945C24.2473 29.9216 24.2473 29.8123 24.2473 29.7394C24.2473 29.6665 24.2473 29.5572 24.2473 29.4843V29.3385C24.2473 29.3021 24.2473 29.2656 24.2473 29.1928C24.2473 29.1199 24.2473 28.9741 24.2473 28.9741C24.2473 28.9012 24.2473 28.9741 24.2473 28.8648C24.2473 28.8283 24.2473 28.8648 24.2473 28.7554C24.2473 28.6825 24.2473 28.6097 24.2473 28.5368C24.2473 28.4639 24.2473 28.391 24.2473 28.3181C24.2473 28.1723 24.2473 28.0266 24.2473 27.8808C24.2473 27.6986 24.2473 27.5528 24.2473 27.3706C24.2473 27.2977 24.2473 27.1884 24.2473 27.1155C24.2473 27.079 24.2473 27.0426 24.2473 26.9697C24.2473 26.9332 24.2473 26.8968 24.2473 26.8239C24.2833 26.4595 24.3192 26.1315 24.3552 25.8764C24.3552 25.767 24.3552 25.9128 24.3911 25.767C24.5349 24.8195 24.7506 23.872 25.0023 22.888C25.0023 22.8151 25.0023 22.888 25.0742 22.7787C25.1102 22.6329 25.0742 22.6693 25.1102 22.56C25.1102 22.4871 25.1821 22.4142 25.1821 22.3778C25.5056 21.2845 25.9011 20.1547 26.3685 19.0614L26.4404 18.8792C26.4404 18.8063 26.5123 18.7699 26.5123 18.697C26.5842 18.5876 26.6202 18.4419 26.6921 18.3325C26.6921 18.2597 26.764 18.2232 26.7999 18.1503C26.7999 18.1139 26.7999 18.0774 26.7999 18.0774V18.041C26.7999 18.0045 26.8359 17.9681 26.8718 17.8952C26.8718 17.8952 26.8718 17.8588 26.8718 17.8223C26.9078 17.8223 26.9437 17.8223 26.9797 17.8223C26.9797 17.8223 27.0157 17.8223 27.0516 17.8223C27.1235 17.8223 27.1954 17.8223 27.2673 17.8223C27.4111 17.8223 27.519 17.8223 27.6628 17.8223C27.6988 17.8223 27.7707 17.8223 27.8066 17.8223C27.8426 17.8223 27.9145 17.8223 27.9504 17.8223C28.0583 17.8223 28.1661 17.8223 28.238 17.8223C28.3459 17.8223 28.4538 17.8223 28.5257 17.8223C28.6335 17.8223 28.7054 17.8223 28.8133 17.8223C28.9211 17.8223 28.993 17.8223 29.1009 17.8223C29.1369 17.8223 29.2088 17.8223 29.2447 17.8223C29.2447 17.8223 29.2807 17.8223 29.3166 17.8223C29.3166 17.8223 29.3526 17.8223 29.3885 17.8223C29.5683 17.8223 29.7481 17.8952 29.9278 17.9317C30.4312 18.0045 30.8626 18.1139 31.33 18.2232C31.4019 18.2232 31.4378 18.2232 31.5097 18.2597C31.5816 18.2961 31.6176 18.2597 31.6895 18.2961C31.7974 18.2961 31.9052 18.369 32.0131 18.369C32.1209 18.369 32.2288 18.4419 32.3366 18.4419C32.4445 18.4419 32.5524 18.5148 32.6602 18.5512C33.3074 18.7334 33.9905 18.9885 34.5298 19.2072C34.6376 19.2072 34.7455 19.2801 34.8533 19.3165C34.9252 19.3165 34.9971 19.3894 35.105 19.4258C35.141 19.4258 35.1769 19.4259 35.2129 19.4623H35.2848L35.3567 19.4987C35.5724 19.6081 35.7881 19.681 36.0038 19.7903C36.2195 19.8996 36.4352 19.9725 36.651 20.0818C36.7229 20.0818 36.7588 20.1547 36.8307 20.1547C36.9026 20.1547 36.9386 20.2276 37.0105 20.2276C37.1183 20.3005 37.2262 20.3369 37.3341 20.4098C37.3341 20.4098 37.406 20.4098 37.406 20.4463H37.4779C37.4779 20.4827 37.6576 20.592 37.6576 20.592C37.7655 20.6649 37.8734 20.7014 37.9812 20.7743C37.9812 20.7743 38.0531 20.7743 38.0891 20.8107C38.0891 20.8107 38.161 20.8107 38.1969 20.8472C38.2688 20.8472 38.3048 20.92 38.3767 20.9565C38.4846 21.0294 38.6284 21.1023 38.7362 21.1751C38.88 21.2845 39.0598 21.3938 39.2396 21.5031C39.3115 21.5031 39.3474 21.576 39.4193 21.6125L39.5991 21.7218C39.7069 21.7947 39.8148 21.8676 39.9586 21.9405C39.9586 21.9405 40.0305 21.9769 40.0305 22.0134H40.0665L40.1024 22.0862C40.1743 22.1227 40.2103 22.1591 40.2822 22.1956C40.39 22.2685 40.4979 22.3413 40.6058 22.4507C41.145 22.888 41.7203 23.3253 42.2596 23.7991C42.8348 24.3457 43.5179 25.0017 44.0213 25.5484C44.0572 25.6213 44.1291 25.6577 44.1651 25.7306C44.201 25.8035 44.2729 25.8399 44.3089 25.9128C44.4167 26.0222 44.5246 26.1679 44.6325 26.2773C44.6325 26.2773 44.6684 26.3501 44.7044 26.3866C44.7044 26.3866 44.7403 26.4595 44.7763 26.4959C44.8122 26.5688 44.8841 26.6053 44.9201 26.6781C45.0279 26.8239 45.1358 26.9332 45.2436 27.079C45.2796 27.1519 45.3156 27.1884 45.3515 27.2248C45.4234 27.3341 45.4953 27.4435 45.6032 27.5528C45.6751 27.6621 45.747 27.7715 45.8548 27.8808C45.9267 27.9901 45.9987 28.0994 46.1065 28.2088C46.1784 28.3181 46.2503 28.4274 46.3222 28.5368C46.3941 28.6461 46.466 28.7554 46.5379 28.8648C46.6098 28.9741 46.6818 29.0834 46.7537 29.1928C46.7537 29.1928 46.7537 29.2292 46.7896 29.2656C46.7896 29.2656 46.7896 29.2656 46.7896 29.3021C46.7896 29.3021 46.7537 29.375 46.7177 29.4114C46.6818 29.4843 46.6458 29.5207 46.6098 29.5936C46.6098 29.5936 46.5739 29.6665 46.5379 29.6665L46.466 29.7394C46.4301 29.8123 46.3941 29.8487 46.3582 29.9216C46.2863 30.0674 46.1784 30.1767 46.1065 30.3225C46.0346 30.4318 45.9267 30.5776 45.8548 30.6869C45.7829 30.7598 45.747 30.8327 45.6751 30.9421C45.5672 31.0514 45.4953 31.1972 45.3875 31.3065C45.3515 31.3794 45.2796 31.4523 45.2436 31.4887C45.2436 31.4887 45.2077 31.5616 45.1717 31.598C45.1717 31.598 45.1358 31.6709 45.0998 31.7074C45.0279 31.8167 44.9201 31.926 44.8482 31.9989C44.7763 32.1082 44.6684 32.2176 44.5965 32.3269C44.4886 32.4362 44.4167 32.5456 44.3089 32.6549C44.2729 32.7278 44.201 32.7642 44.1651 32.8371C44.1291 32.8736 44.0572 32.9465 44.0213 32.9829C43.6977 33.3109 43.2303 33.7847 42.8708 34.1491C42.7989 34.222 42.727 34.2949 42.6191 34.3678L42.5112 34.4771C42.4753 34.5135 42.4393 34.55 42.4034 34.5864C42.2236 34.7322 42.0798 34.878 41.9 35.0237C41.7203 35.1695 41.5765 35.3153 41.3967 35.4611C41.3248 35.534 41.2169 35.6068 41.145 35.6797L40.8934 35.8984C40.8215 35.9348 40.7855 36.0077 40.7136 36.0442C40.6417 36.0806 40.6058 36.1171 40.5339 36.1899C40.426 36.2628 40.2822 36.3722 40.1743 36.445C40.1743 36.445 40.1024 36.4815 40.0665 36.5179C40.0665 36.5179 39.9946 36.5544 39.9586 36.5908C39.8867 36.6273 39.8148 36.7001 39.7429 36.7366C39.5991 36.8459 39.4193 36.9553 39.2755 37.0646C39.0957 37.1739 38.9519 37.2832 38.7722 37.3926C38.5924 37.5019 38.4126 37.6112 38.2688 37.7206C38.1969 37.7206 38.161 37.7935 38.0891 37.8299C38.0172 37.8299 37.9453 37.9028 37.8734 37.9392C37.7295 38.0121 37.5857 38.085 37.4779 38.1579C37.406 38.1943 37.3341 38.2308 37.2981 38.2672C37.2262 38.2672 37.1543 38.3401 37.1183 38.3766C37.0105 38.4494 36.9026 38.4859 36.7948 38.5588C36.7588 38.5588 36.6869 38.5952 36.615 38.6317C36.5431 38.6317 36.4712 38.7046 36.3993 38.741C36.3274 38.7774 36.2195 38.8139 36.1476 38.8868C36.1117 38.8868 36.0398 38.9232 36.0038 38.9597C35.9679 38.9597 35.896 38.9961 35.86 39.0325C35.6443 39.1419 35.6802 39.1054 35.5724 39.1419C35.4645 39.1783 35.3926 39.2148 35.2848 39.2877C35.1769 39.3241 35.105 39.3605 34.9971 39.397C34.8893 39.4334 34.7814 39.4699 34.6736 39.5428C34.6736 39.5428 34.6376 39.5428 34.6017 39.5428C34.6017 39.5428 34.5298 39.5428 34.4938 39.5428C34.4219 39.5428 34.35 39.5792 34.2781 39.6156C34.1343 39.6885 33.9905 39.725 33.8467 39.7979C33.6669 39.8707 33.5231 39.9072 33.3433 39.9801C33.2714 39.9801 33.1636 40.053 33.0917 40.053C33.0197 40.053 32.9119 40.0894 32.84 40.1259C32.6962 40.1623 32.5524 40.2352 32.3726 40.2716C32.2288 40.3081 32.049 40.3445 31.9052 40.4174C31.6535 40.4903 31.5816 40.5267 31.4378 40.5632C31.1862 40.6361 30.9704 40.6725 30.7907 40.709C30.6109 40.7454 30.4671 40.7818 30.3593 40.8183C30.2873 40.8183 30.1795 40.8183 30.1076 40.8912C30.0716 40.8912 29.9997 40.8912 29.9638 40.8912C29.9278 40.8912 29.8559 40.8912 29.82 40.8912C29.6402 40.8912 29.4604 40.9641 29.3166 41.0005C29.2807 41.0005 29.1728 41.0005 29.1369 41.0005C28.9571 41.0005 28.7773 41.0734 28.5976 41.0734C28.5616 41.0734 28.5257 41.0734 28.4897 41.0734C28.4538 41.0734 28.4178 41.0734 28.3819 41.0734C28.3099 41.0734 28.238 41.0734 28.1302 41.0734C28.0583 41.0734 27.9504 41.0734 27.8785 41.0734C27.8426 41.0734 27.8066 41.0734 27.7347 41.0734C27.7347 41.0734 27.6988 41.0734 27.6628 41.0734M23.4563 41.0734C23.3844 41.0734 23.3125 41.0734 23.2406 41.0734C23.0968 41.0734 22.989 41.0734 22.8811 41.0369C22.7013 41.0369 22.5216 41.0369 22.3059 41.0005C22.1261 41.0005 21.9463 40.9276 21.8025 40.9276H21.7666C19.2139 40.4903 16.6972 39.6521 14.3963 38.4859C14.3963 38.4859 14.4322 38.4859 14.4682 38.4859C14.612 38.5588 14.7198 38.5952 14.8277 38.6681C14.8637 38.6681 14.9356 38.7046 14.9715 38.741C14.9715 38.741 15.0434 38.741 15.0794 38.7774C15.0794 38.7774 15.1513 38.7774 15.1872 38.8139C15.1872 38.8139 15.1153 38.8139 15.1513 38.7774C15.2591 38.8139 15.2951 38.8503 15.367 38.8503C15.1153 38.741 15.1513 38.7046 15.2591 38.7046C15.5468 38.8503 15.9063 38.9961 16.2299 39.1419C16.3018 39.1419 16.4096 39.2148 16.4815 39.2512C16.5175 39.2512 16.5534 39.2512 16.5894 39.2877C16.6253 39.2877 16.6613 39.2877 16.6972 39.3241C16.8411 39.397 16.9849 39.4334 17.1287 39.5063C17.2006 39.5063 17.2365 39.5063 17.3444 39.5063C17.4882 39.5428 17.632 39.6156 17.8118 39.6521C17.8837 39.6521 17.9556 39.6885 18.0275 39.725C18.0994 39.725 18.1713 39.7614 18.2792 39.7979C18.423 39.8343 18.6027 39.9072 18.7465 39.9436C18.7825 39.9436 18.8185 39.9436 18.8544 39.9436C18.8904 39.9436 18.9263 39.9436 18.9623 39.9436C19.0342 39.9436 19.142 39.9801 19.2139 40.0165C19.1061 40.0165 19.0342 39.9436 18.9263 39.9436C18.8904 39.9436 18.8185 39.9436 18.7825 39.9072C18.7465 39.9072 18.6746 39.9072 18.6387 39.8708C18.4589 39.7979 18.2792 39.7614 18.0634 39.6885C17.668 39.5792 17.2725 39.4334 16.877 39.2877C16.877 39.2877 16.877 39.2877 16.8051 39.2148C16.7691 39.2148 16.7332 39.2148 16.6613 39.1783C16.6253 39.1783 16.5534 39.1783 16.5175 39.1419C16.4096 39.1419 16.3377 39.069 16.2299 39.0325C16.158 39.0325 16.0501 38.9597 15.9782 38.9232C15.9422 38.9232 15.9063 38.9232 15.8703 38.8868C15.8344 38.8868 15.7984 38.8868 15.7625 38.8503C15.6546 38.7774 15.5468 38.7046 15.4389 38.5952C15.403 38.5952 15.331 38.5588 15.2951 38.5223C15.2591 38.5223 15.1872 38.4859 15.1513 38.4494C15.0434 38.413 14.9715 38.3401 14.8637 38.3037C14.7558 38.2672 14.6839 38.1943 14.612 38.1579C14.612 38.1579 14.576 38.1579 14.5401 38.1215C14.5041 38.085 14.5041 38.1215 14.4682 38.085C14.4322 38.085 14.3963 38.0486 14.3244 38.0121C14.1446 37.9028 14.0008 37.7935 13.821 37.7206C13.6413 37.6112 13.4615 37.5019 13.2817 37.3926C13.2817 37.3926 13.2458 37.3197 13.2098 37.3197C13.2817 37.3197 13.3177 37.3197 13.4256 37.3561C13.5334 37.429 13.6772 37.5019 13.7851 37.5748C13.821 37.5748 13.857 37.6112 13.9289 37.6477C13.9648 37.6477 14.0008 37.6841 14.0727 37.7206C14.1806 37.757 14.2525 37.7935 14.3603 37.8663C14.4682 37.9028 14.5401 37.9757 14.6479 38.0121C14.7558 38.0486 14.8637 38.1215 14.9715 38.1579C15.0794 38.1943 15.1872 38.2672 15.2951 38.3037C15.4029 38.3401 15.5108 38.413 15.6187 38.4494C15.7265 38.4859 15.8344 38.5588 15.9422 38.5952C15.9782 38.5952 16.0501 38.6317 16.0861 38.6681C16.158 38.6681 16.1939 38.7046 16.2658 38.741C16.3737 38.741 16.3018 38.7046 16.2658 38.6317C16.0501 38.5588 15.8703 38.4494 15.6906 38.3766C15.5827 38.3401 15.4749 38.3037 15.403 38.2308C15.2951 38.1943 15.1872 38.1215 15.1153 38.085C15.0075 37.9392 15.1872 37.9757 15.5108 38.085C15.7984 38.1943 16.158 38.3766 16.4815 38.5223C16.8411 38.6681 17.1646 38.7774 17.3444 38.8503C18.1713 39.1054 18.9982 39.3605 19.8251 39.5792C19.933 39.5792 20.0408 39.6156 20.1487 39.6521H20.2925C20.3285 39.6885 20.4004 39.725 20.4363 39.725C20.652 39.7614 20.8678 39.7979 21.0835 39.8343C21.1194 39.8343 21.1913 39.8343 21.2632 39.8343C21.2992 39.8343 21.3711 39.8343 21.407 39.8343C21.5149 39.8343 21.6228 39.8343 21.7306 39.8708C21.8025 39.8708 21.8385 39.8708 21.9104 39.8708C21.9463 39.8708 22.0182 39.8708 22.0901 39.8708C22.198 39.8708 22.3059 39.8708 22.4137 39.9072C21.9463 39.8343 21.4789 39.7614 21.0116 39.6885C20.9037 39.6885 20.7958 39.6521 20.688 39.6156C20.6161 39.6156 20.5801 39.6156 20.5082 39.6156H20.4363H20.3644C20.1487 39.5792 19.933 39.5063 19.7173 39.4334C19.7173 39.4334 19.7173 39.4334 19.6094 39.4334C19.3937 39.3605 19.178 39.3241 18.9623 39.2512C18.7465 39.1783 18.5308 39.1054 18.3151 39.069C18.2792 39.069 18.2073 39.069 18.1713 39.0325C18.1354 39.0325 18.0634 39.0325 18.0275 38.9961C17.9196 38.9961 17.8118 38.9232 17.7039 38.8868C17.668 38.8868 17.5961 38.8868 17.5601 38.8503C17.5242 38.8503 17.4523 38.8503 17.4163 38.8139C17.3084 38.8139 17.2365 38.741 17.1287 38.7046C17.0568 38.6681 16.9849 38.6317 16.877 38.5952C16.7691 38.5588 16.6613 38.5223 16.5534 38.4494C16.4456 38.413 16.3377 38.3766 16.2299 38.3037C16.1939 38.3037 16.122 38.2672 16.0861 38.2308C16.0501 38.2308 16.0141 38.1943 15.9782 38.1579C16.0501 38.1579 16.122 38.1579 16.2299 38.1579C16.3377 38.1579 16.4815 38.2308 16.6613 38.2672C16.5175 38.1943 16.3377 38.1579 16.2299 38.085C16.0861 38.0121 15.9422 37.9392 15.8344 37.9028C15.6187 37.7935 15.2591 37.6477 15.1513 37.5748L14.9715 37.5019C14.8637 37.4655 14.8637 37.5019 14.7558 37.3926C14.576 37.2832 14.576 37.3197 14.5041 37.2468C14.4682 37.2468 14.4322 37.2104 14.3963 37.1739C14.3603 37.1739 14.3244 37.1739 14.2884 37.101C14.2165 37.0646 14.1446 37.0281 14.0727 36.9917C14.0008 36.9553 13.9289 36.9188 13.857 36.8824L13.7491 36.8095C13.7132 36.8095 13.6772 36.773 13.6413 36.7366C13.4975 36.6637 13.3536 36.5544 13.2098 36.4815L13.102 36.4086C13.066 36.4086 13.0301 36.3722 12.9941 36.3357C12.9222 36.2993 12.8503 36.2628 12.7784 36.1899C12.7065 36.1535 12.5986 36.0806 12.5986 36.0806C12.5627 36.0442 12.5986 36.0806 12.5267 36.0077C12.4908 36.0077 12.5267 36.0077 12.4548 35.9713C12.347 35.8984 12.2391 35.8255 12.1313 35.7526C12.0234 35.6797 11.9155 35.6068 11.8077 35.534C11.6639 35.4246 11.5201 35.3517 11.4122 35.2424C11.4122 35.2424 11.3403 35.206 11.3043 35.1695C11.3043 35.1695 11.2324 35.1331 11.1965 35.0966C11.1246 35.0602 11.0527 34.9873 10.9808 34.9509C10.9089 34.9144 10.837 34.8415 10.7651 34.8051C10.7651 34.8051 10.6932 34.7686 10.6572 34.7322C10.6572 34.7322 10.6572 34.7322 10.6212 34.6957C10.6212 34.6957 10.6212 34.6957 10.5853 34.6957C10.4774 34.5864 10.3336 34.5135 10.2617 34.4042C10.1539 34.3313 10.2977 34.4042 10.1898 34.2949C9.50672 33.7118 8.78766 33.0558 8.10456 32.3269C8.06861 32.254 8.10456 32.3269 8.03266 32.2176C7.9248 32.1082 7.96075 32.1447 7.85289 32.0718C7.81694 31.9989 7.78099 31.9625 7.74504 31.926C6.99003 31.0878 6.23503 30.2132 5.58788 29.2656C5.51597 29.1563 5.44407 29.047 5.37216 28.9376C5.30026 28.8283 5.22835 28.719 5.15645 28.6097C5.15645 28.6097 5.12049 28.5368 5.08454 28.5003V28.4274H5.04859C5.04859 28.391 5.08454 28.3545 5.12049 28.3181C5.12049 28.2817 5.12049 28.2452 5.12049 28.2452L5.1924 28.1723C5.2643 28.063 5.33621 27.9537 5.40811 27.8443C5.48002 27.735 5.55193 27.6257 5.62383 27.5163C5.73169 27.3341 5.83955 27.1884 5.98336 27.0061C6.09121 26.8604 6.19907 26.6781 6.34288 26.5324C6.45074 26.3866 6.59455 26.2408 6.70241 26.095C6.81027 25.9493 6.91813 25.8035 7.06194 25.6577C7.13384 25.5484 7.20575 25.4755 7.27765 25.3662C7.3136 25.3297 7.34956 25.2568 7.38551 25.2204C7.42146 25.1839 7.45742 25.1475 7.49337 25.0746C7.56527 25.0017 7.63718 24.8924 7.70908 24.8195C7.74504 24.7831 7.78099 24.7466 7.81694 24.7102C7.81694 24.6737 7.88885 24.6373 7.9248 24.6009C8.06861 24.4551 8.24837 24.2729 8.39218 24.1271C8.53599 23.9813 8.71576 23.7991 8.85957 23.6533C8.85957 23.6533 8.93147 23.5804 8.96743 23.5804C8.96743 23.5804 9.03933 23.5075 9.07528 23.5075C9.14719 23.4347 9.18314 23.3982 9.25505 23.3253C9.36291 23.216 9.50672 23.1067 9.65053 22.9973C9.75838 22.888 9.90219 22.7787 10.0101 22.6693C10.0101 22.6693 10.082 22.6329 10.082 22.5965C10.082 22.5965 10.1539 22.56 10.1539 22.5236C10.2258 22.4871 10.2617 22.4142 10.3336 22.3778C10.4055 22.3049 10.4774 22.232 10.5853 22.1591C10.6572 22.1227 10.7291 22.0498 10.801 22.0134C10.8729 21.9769 10.9448 21.904 11.0167 21.8676C11.1246 21.7947 11.1965 21.7218 11.3043 21.6489C11.4122 21.576 11.4841 21.5031 11.592 21.4303C11.6998 21.3574 11.7717 21.2845 11.8796 21.2116C11.9155 21.2116 11.9874 21.1387 12.0234 21.1023C12.0594 21.1023 12.1313 21.0294 12.1672 20.9929C12.2751 20.92 12.3829 20.8472 12.4908 20.7743C12.4908 20.7743 12.5267 20.7743 12.5627 20.7378H12.6346C12.6705 20.6649 12.7425 20.6285 12.7784 20.592C12.8863 20.5192 12.9941 20.4463 13.102 20.4098H13.1739C13.1739 20.3734 13.2458 20.3005 13.2458 20.3005C13.2817 20.3005 13.3536 20.2276 13.3896 20.1912C13.4975 20.1183 13.6413 20.0454 13.7491 19.9725C13.821 19.9361 13.857 19.8996 13.9289 19.8632C14.0008 19.8632 14.0367 19.7903 14.1087 19.7538C14.1806 19.7174 14.2884 19.681 14.3603 19.6081C14.3963 19.6081 14.4322 19.5716 14.5041 19.5352C14.5401 19.5352 14.576 19.4987 14.6479 19.4623C14.7558 19.3894 14.8996 19.353 15.0075 19.2801C15.0794 19.2801 15.1153 19.2072 15.1872 19.1707C15.2591 19.1707 15.2951 19.0979 15.367 19.0979C15.6187 18.9885 15.8344 18.8428 16.0861 18.7699C16.2299 18.697 16.4096 18.6241 16.5534 18.5512C16.6972 18.4783 16.877 18.4419 17.0208 18.369H17.1287C17.1646 18.2961 17.2006 18.2961 17.2365 18.2597L17.4882 18.1868C17.5601 18.1868 17.632 18.1139 17.7399 18.0774C17.8118 18.0774 17.9196 18.0045 17.9915 17.9681C18.1713 17.8952 18.3511 17.8588 18.5668 17.7859C18.5668 17.7859 18.6027 17.7859 18.6387 17.7859C18.6387 17.7859 18.6746 17.7859 18.7106 17.7859C18.7465 17.7859 18.8185 17.7859 18.8544 17.7494C18.9623 17.7494 19.0701 17.6766 19.142 17.6401C19.3577 17.5672 19.5375 17.5308 19.7532 17.4579C19.8611 17.4579 19.933 17.4214 20.0408 17.385C20.1487 17.385 20.2206 17.3486 20.3285 17.3121C20.4723 17.3121 20.6161 17.2392 20.7599 17.2028C20.8318 17.2028 20.9037 17.2028 20.9756 17.1663C21.0475 17.1663 21.1194 17.1663 21.1913 17.1299C21.2632 17.1299 21.3351 17.1299 21.407 17.0935C21.443 17.0935 21.4789 17.0935 21.5149 17.0935C21.5509 17.0935 21.5868 17.0935 21.6228 17.0935C21.7666 17.0935 21.9463 17.0206 22.1261 17.0206C22.1261 17.0206 22.198 17.0206 22.234 17.0206C22.234 17.0206 22.3059 17.0206 22.3418 17.0206C22.4497 17.0206 22.5935 17.0206 22.7373 16.9841C22.8092 16.9841 22.8811 16.9841 22.9171 16.9841C22.989 16.9841 23.0609 16.9841 23.0968 16.9841C23.2406 16.9841 23.3485 16.9841 23.4923 16.9477C23.4923 16.9477 23.5642 16.9477 23.6002 16.9477C23.6002 16.9477 23.6721 16.9477 23.708 16.9477C23.708 16.9477 23.708 16.9477 23.744 16.9477C23.744 16.9841 23.708 17.057 23.6721 17.0935C23.6721 17.1663 23.6002 17.2392 23.5642 17.3121C23.4923 17.4579 23.4563 17.5672 23.3844 17.713C23.3125 17.8588 23.2766 18.0045 23.2047 18.1503C23.1328 18.2961 23.0968 18.4419 23.0249 18.5876C23.0249 18.697 22.953 18.7699 22.9171 18.8792C22.9171 18.9521 22.8451 19.025 22.8451 19.0979C22.8451 19.0979 22.8451 19.1707 22.8092 19.2072C22.8092 19.2436 22.8092 19.2801 22.7732 19.3165C22.7373 19.4623 22.6654 19.6081 22.6294 19.7903C22.4497 20.2641 22.3059 20.8107 22.162 21.3938C22.162 21.4303 22.162 21.5031 22.1261 21.576C22.0901 21.6489 22.1261 21.6854 22.0901 21.7582C22.0901 21.904 22.0182 22.0134 21.9823 22.1591C21.9463 22.3049 21.9104 22.4507 21.8744 22.5965C21.8744 22.7422 21.8025 22.888 21.8025 22.9973C21.6228 23.872 21.4789 24.7466 21.3711 25.6577C21.3711 25.8035 21.3711 25.9493 21.3351 26.095C21.3351 26.1679 21.3351 26.2408 21.3351 26.3137C21.3351 26.3866 21.3351 26.4595 21.3351 26.5324C21.3351 26.6781 21.3351 26.8604 21.2992 27.0426C21.2992 27.079 21.2992 27.1519 21.2992 27.1884C21.2992 27.2248 21.2992 27.2977 21.2992 27.3341C21.2992 27.4435 21.2992 27.5163 21.2992 27.6257C21.2992 27.735 21.2992 27.8079 21.2992 27.9172C21.2992 28.0266 21.2992 28.0994 21.2992 28.2088C21.2992 28.3181 21.2992 28.391 21.2992 28.5003C21.2992 28.5368 21.2992 28.6097 21.2992 28.6461V28.719V28.7919C21.2992 28.9376 21.2992 29.0834 21.2992 29.2292C21.2992 29.3021 21.2992 29.375 21.2992 29.4479C21.2992 29.4843 21.2992 29.5207 21.2992 29.5572C21.2992 29.5936 21.2992 29.6301 21.2992 29.6665C21.2992 29.8123 21.2992 29.9581 21.2992 30.1038C21.2992 30.1767 21.2992 30.2496 21.2992 30.2861C21.2992 30.359 21.2992 30.3954 21.2992 30.4683C21.2992 30.5776 21.2992 30.7234 21.2992 30.8692C21.2992 30.9056 21.2992 30.942 21.2992 31.0149C21.2992 31.0149 21.2992 31.0514 21.2992 31.0878C21.2992 31.0878 21.2992 31.1243 21.2992 31.1607C21.2992 31.27 21.2992 31.3794 21.3351 31.4887C21.3351 31.7438 21.3351 31.7074 21.3351 31.8167C21.3351 31.926 21.3351 32.0354 21.3711 32.1447C21.3711 32.254 21.3711 32.3634 21.407 32.4727C21.407 32.5456 21.407 32.582 21.407 32.6549C21.407 32.7278 21.407 32.7642 21.407 32.8371C21.407 32.9465 21.407 33.0922 21.4789 33.238C21.4789 33.3109 21.4789 33.3838 21.5149 33.4567C21.5149 33.4931 21.5149 33.5295 21.5149 33.566C21.5149 33.6024 21.5149 33.6389 21.5149 33.6753C21.5149 33.8575 21.5868 34.0398 21.6228 34.1855C21.6228 34.222 21.6228 34.2584 21.6228 34.3313C21.6228 34.4042 21.6228 34.4042 21.6228 34.4771C21.6228 34.55 21.6587 34.6593 21.6947 34.7322C21.6947 34.8051 21.7306 34.878 21.7666 34.9509C21.7666 34.9873 21.7666 35.0237 21.7666 35.0602V35.1331V35.206C21.8025 35.3517 21.8385 35.4975 21.8744 35.6797C21.8744 35.7891 21.9104 35.8984 21.9463 35.9348C21.9463 36.0077 21.9823 36.0806 22.0182 36.1535C22.0182 36.2628 22.0901 36.3722 22.1261 36.4815C22.1261 36.5908 22.198 36.7001 22.198 36.773C22.2699 36.9553 22.3059 37.101 22.3418 37.2104C22.3418 37.2832 22.4137 37.3926 22.4137 37.4655C22.4137 37.5384 22.4856 37.6477 22.5216 37.7206C22.5935 37.9028 22.6294 38.085 22.7013 38.1943C22.7013 38.2308 22.7373 38.3401 22.7732 38.3401C22.8451 38.5223 22.9171 38.6681 22.953 38.8139C22.953 38.8503 22.953 38.8868 22.989 38.9232C22.989 38.9597 22.989 38.9961 23.0249 39.0325C23.0249 39.1054 23.0968 39.1783 23.1328 39.2512C23.1328 39.3241 23.2047 39.397 23.2406 39.4699C23.2406 39.5428 23.3125 39.6156 23.3485 39.725C23.4204 39.9072 23.4923 40.053 23.6002 40.2716C23.6002 40.2716 23.6002 40.3445 23.6361 40.381C23.6361 40.4174 23.6721 40.4538 23.708 40.5267C23.708 40.5996 23.8159 40.709 23.8159 40.7818C23.8518 40.8912 23.9237 41.0005 23.9597 41.1098C23.7799 41.1098 23.5642 41.1098 23.3844 41.0734M52.5061 13.9593C52.5061 13.9593 52.5061 13.8864 52.5061 13.85C52.5061 13.85 52.5061 13.7771 52.5061 13.7406C52.5061 13.7406 52.5061 13.6678 52.5061 13.6313C52.5061 13.4855 52.5061 13.3398 52.5061 13.194C52.5061 13.1211 52.5061 13.0482 52.5061 12.9753C52.5061 12.9753 52.5061 12.9024 52.5061 12.866C52.5061 12.866 52.5061 12.7931 52.5061 12.7567C52.5061 12.5744 52.4342 12.3558 52.4342 12.1371C52.4342 12.0642 52.4342 12.0278 52.4342 11.9549C52.4342 11.882 52.4342 11.8456 52.4342 11.7727C52.4342 11.6998 52.4342 11.6269 52.4342 11.5905C52.4342 11.4811 52.4342 11.3718 52.3982 11.2625C52.3982 11.226 52.3982 11.1531 52.3982 11.1167C52.3982 11.0438 52.3982 10.9709 52.3982 10.898C52.3982 10.898 52.3982 10.898 52.3982 10.8616C52.3982 10.8251 52.3982 10.7523 52.3982 10.7158C52.3982 10.6065 52.3623 10.4607 52.3263 10.3878C52.3263 10.3878 52.3263 10.3878 52.3263 10.3514C51.823 7.47233 50.8523 4.70261 49.4861 2.07866L49.4142 1.96933C49.3782 1.89645 49.3423 1.82356 49.2703 1.71423L49.0187 1.2769H48.5872H48.2637H48.2277C45.747 1.2769 43.3022 1.64134 40.9293 2.29733C40.9293 2.29733 41.0012 2.29733 41.0731 2.22444C41.181 2.22444 41.2529 2.188 41.3248 2.15155C41.3248 2.15155 41.3608 2.15155 41.3967 2.15155C41.3967 2.15155 41.4327 2.15155 41.4686 2.15155C41.5046 2.15155 41.5405 2.15155 41.5765 2.15155C41.7203 2.15155 41.8281 2.07866 41.936 2.04222C42.0079 2.04222 42.0439 2.04222 42.1158 2.00578C42.1877 2.00578 42.2236 2.00578 42.2955 1.96933C42.4393 1.96933 42.5831 1.89645 42.7989 1.86C42.691 1.86 42.6551 1.86 42.6551 1.86C42.7989 1.86 42.8708 1.82356 42.9427 1.78712C42.9786 1.78712 43.0146 1.78712 43.0505 1.78712C43.0505 1.78712 43.1224 1.78712 43.1584 1.78712C43.1224 1.78712 43.0865 1.78712 43.0505 1.78712C43.0505 1.78712 42.9786 1.78712 42.9427 1.78712C42.8708 1.78712 42.8348 1.78712 42.7989 1.78712C42.727 1.78712 42.691 1.78712 42.6551 1.78712C42.6191 1.78712 42.6551 1.75067 42.7629 1.71423C44.2729 1.38623 46.1425 1.16757 47.4368 1.16757C47.5806 1.16757 47.6525 1.13113 47.9041 1.13113C48.012 1.13113 48.0839 1.13113 48.1918 1.13113C48.2996 1.13113 48.4075 1.13113 48.5153 1.13113C48.5513 1.13113 48.6232 1.13113 48.6591 1.13113C48.6951 1.13113 48.767 1.13113 48.803 1.13113C48.7311 1.13113 48.2637 1.13113 48.1918 1.13113C48.1199 1.13113 48.048 1.13113 48.012 1.13113C47.9041 1.13113 47.7603 1.13113 47.6525 1.13113C47.5806 1.13113 47.5446 1.13113 47.4727 1.13113C47.4008 1.13113 47.3649 1.13113 47.2929 1.13113C47.1491 1.13113 47.0413 1.13113 46.8975 1.13113C46.8256 1.13113 46.8975 1.13113 46.6818 1.13113C46.6098 1.13113 46.5739 1.13113 46.502 1.13113C46.4301 1.13113 46.3941 1.13113 46.3222 1.13113C46.2144 1.13113 46.1065 1.13113 45.9986 1.13113C45.8908 1.13113 45.7829 1.13113 45.6751 1.13113C45.6032 1.13113 45.5672 1.13113 45.4953 1.13113C45.4234 1.13113 45.3875 1.13113 45.3156 1.13113C45.2077 1.13113 45.0998 1.13113 44.992 1.16757C44.9201 1.16757 44.8841 1.16757 44.8482 1.16757C44.8122 1.16757 44.7403 1.16757 44.7044 1.16757C44.4886 1.16757 44.3089 1.24046 44.1651 1.24046C44.0932 1.24046 44.0213 1.24046 43.9494 1.24046C43.8774 1.24046 43.8055 1.24046 43.7336 1.24046C43.5898 1.24046 43.446 1.24046 43.3022 1.24046C43.0505 1.2769 42.7989 1.34979 42.5472 1.38623C42.4393 1.38623 42.2955 1.42268 42.1877 1.45912C42.0798 1.45912 41.936 1.53201 41.8281 1.53201C41.5765 1.6049 41.3608 1.64134 41.145 1.71423C41.0372 1.71423 40.9293 1.78712 40.8215 1.78712C40.7496 1.78712 40.7136 1.78712 40.6417 1.82356C40.5698 1.82356 40.5338 1.82356 40.4619 1.86C40.2462 1.93289 40.0305 1.96933 39.8148 2.04222C39.7069 2.04222 39.5991 2.11511 39.4912 2.15155C39.3834 2.15155 39.2755 2.22444 39.1676 2.26088C39.0957 2.26088 39.0598 2.29733 38.9879 2.33377C38.916 2.33377 38.88 2.37021 38.8081 2.40666C38.7003 2.4431 38.5924 2.47954 38.4845 2.51599C38.3767 2.55243 38.2688 2.58888 38.125 2.66176C38.0531 2.66176 38.0172 2.69821 37.9453 2.73465C37.8734 2.73465 37.8374 2.77109 37.7655 2.80754C37.7655 2.80754 37.6217 2.80754 37.5498 2.84398C37.6936 2.77109 37.8014 2.69821 37.9453 2.62532H38.0172L38.0891 2.58888C38.125 2.58888 38.161 2.58888 38.1969 2.55243C38.2688 2.55243 38.3407 2.47954 38.4126 2.4431C38.4846 2.4431 38.5565 2.37021 38.6284 2.37021C38.6643 2.37021 38.7003 2.37021 38.7362 2.33377C38.7362 2.33377 38.7362 2.33377 38.7722 2.33377C38.7722 2.33377 38.8081 2.33377 38.8441 2.33377C39.635 2.00578 40.6417 1.67778 41.7203 1.38623C41.8641 1.38623 42.0079 1.31335 42.1158 1.2769C42.2596 1.2769 42.4034 1.20402 42.5112 1.20402C42.6191 1.20402 42.7989 1.13113 42.9427 1.09469C43.0865 1.09469 43.2303 1.05824 43.3741 1.0218C43.5179 1.0218 43.6617 0.985354 43.8055 0.948911H43.8415H43.8774H43.9853C44.0572 0.948911 44.1291 0.912467 44.201 0.912467C44.3448 0.912467 44.4886 0.876023 44.5965 0.83958C44.5965 0.83958 44.6684 0.83958 44.7044 0.83958C44.7044 0.83958 44.7763 0.83958 44.8122 0.83958C44.8841 0.83958 44.956 0.83958 45.0279 0.83958C45.2796 0.766692 45.0639 0.766692 44.8841 0.766692C44.8122 0.766692 44.7403 0.766692 44.7044 0.766692C44.6325 0.766692 44.5605 0.766692 44.5246 0.766692C44.3808 0.766692 44.2729 0.803136 44.1291 0.83958C44.0572 0.83958 44.0213 0.83958 43.9494 0.83958H43.8415C43.8415 0.83958 43.7696 0.83958 43.7336 0.83958C43.6258 0.83958 43.482 0.876023 43.3741 0.912467C43.2663 0.912467 43.1224 0.948911 43.0146 0.985354C42.9067 1.0218 42.7629 1.05824 42.6191 1.05824C42.3674 1.13113 42.1158 1.16757 41.8281 1.24046C41.6124 1.24046 41.6124 1.24046 41.7562 1.16757C41.8281 1.16757 41.936 1.09469 42.0798 1.05824C42.2236 1.0218 42.4034 0.985354 42.6191 0.912467C42.691 0.912467 42.7989 0.876023 42.9067 0.83958C43.0146 0.83958 43.0865 0.83958 43.1943 0.766692C43.3022 0.766692 43.4101 0.730249 43.5179 0.693805C43.5539 0.693805 43.6258 0.693805 43.6617 0.693805C43.7336 0.693805 43.7696 0.693805 43.8415 0.693805C44.0572 0.693805 44.2729 0.620918 44.5246 0.584474C44.5965 0.584474 44.6325 0.584474 44.7044 0.584474C44.7763 0.584474 44.8122 0.584474 44.8841 0.584474C44.992 0.584474 45.0998 0.584474 45.2436 0.54803C45.3515 0.54803 45.4594 0.54803 45.5672 0.511587C45.6751 0.511587 45.7829 0.511587 45.8908 0.511587C46.1065 0.511587 46.3222 0.511587 46.502 0.475143C46.6818 0.475143 46.8615 0.475143 47.0413 0.475143C47.1132 0.475143 47.1851 0.475143 47.257 0.475143C47.257 0.475143 47.3289 0.475143 47.3649 0.475143H47.4727C47.7603 0.475143 48.012 0.475143 48.2637 0.475143H48.767V0.438699C48.7311 0.438699 48.6591 0.438699 48.6232 0.438699C48.5153 0.438699 48.4434 0.438699 48.3356 0.438699H48.2637H48.2277C48.1918 0.438699 48.1558 0.438699 48.1199 0.438699C48.048 0.438699 47.976 0.438699 47.9401 0.438699C47.7963 0.438699 47.6884 0.438699 47.5806 0.438699H47.4008C47.3289 0.438699 47.2929 0.438699 47.221 0.438699C47.1132 0.438699 46.9694 0.438699 46.8615 0.438699C46.7537 0.438699 46.6458 0.438699 46.5379 0.438699C46.466 0.438699 46.4301 0.438699 46.3582 0.438699C46.2863 0.438699 46.2503 0.438699 46.1784 0.438699C46.0346 0.438699 45.9267 0.438699 45.7829 0.438699C45.711 0.438699 45.6391 0.438699 45.5672 0.438699C45.4953 0.438699 45.4234 0.438699 45.3515 0.438699C45.2077 0.438699 45.0639 0.438699 44.9201 0.475143C44.8482 0.475143 44.7763 0.475143 44.7044 0.475143C44.6325 0.475143 44.5605 0.475143 44.4886 0.475143C44.237 0.511587 43.9853 0.54803 43.8055 0.54803C43.9853 0.438699 44.6325 0.292925 45.4234 0.183594C45.2077 0.183594 45.0279 0.220037 44.8122 0.256481C44.7763 0.256481 44.7044 0.256481 44.6684 0.256481C44.6325 0.256481 44.5605 0.256481 44.5246 0.256481C44.4167 0.256481 44.3448 0.256481 44.237 0.292925C44.1291 0.292925 44.0572 0.292925 43.9494 0.329368C43.9134 0.329368 43.8415 0.329368 43.8055 0.329368C43.7696 0.329368 43.6977 0.329368 43.6617 0.329368C43.482 0.329368 43.3022 0.402256 43.1224 0.438699C43.0505 0.438699 42.9786 0.438699 42.9067 0.475143C42.8348 0.475143 42.727 0.475143 42.6551 0.54803C42.4753 0.584474 42.2955 0.620918 42.1158 0.657361C42.0439 0.657361 41.936 0.693805 41.8641 0.730249C41.7922 0.730249 41.7203 0.766692 41.6484 0.803136C41.5046 0.803136 41.3967 0.876023 41.3248 0.876023C41.3248 0.876023 41.2529 0.876023 41.145 0.912467C41.0012 0.948911 40.8574 1.0218 40.8215 1.0218C40.6777 1.05824 40.6058 1.09469 40.5339 1.13113C40.5339 1.13113 40.4619 1.13113 40.426 1.13113C40.39 1.13113 40.3181 1.13113 40.2103 1.20402C39.7429 1.34979 39.7788 1.34979 39.4912 1.42268C39.3115 1.49557 39.0957 1.56845 38.916 1.64134C38.8081 1.64134 38.7362 1.71423 38.6284 1.75067C38.5205 1.78712 38.4486 1.82356 38.3407 1.86C38.161 1.93289 37.9812 2.00578 37.7655 2.07866C37.5857 2.15155 37.406 2.22444 37.2262 2.33377L37.0824 2.40666C37.0464 2.40666 36.9745 2.4431 36.9386 2.47954L36.651 2.62532C36.5431 2.66176 36.4712 2.69821 36.3633 2.77109L36.2195 2.84398H36.1476C36.1476 2.88043 36.1117 2.88043 36.0757 2.91687C35.7162 3.09909 35.3567 3.28131 34.9971 3.46352C34.9252 3.49997 34.8174 3.57285 34.7095 3.6093C34.6736 3.6093 34.6017 3.64574 34.6017 3.68219H34.5298C34.3859 3.75507 34.5298 3.68219 34.314 3.79152C34.2062 3.8644 34.2781 3.82796 34.1343 3.93729C34.0624 3.97374 33.9905 4.01018 33.9186 4.04662C33.8826 4.04662 33.8467 4.08307 33.8107 4.11951C33.8107 4.11951 33.7388 4.15595 33.7028 4.1924C33.559 4.26528 33.4152 4.37462 33.2714 4.4475C33.1995 4.48395 33.1276 4.52039 33.0557 4.59328C32.9838 4.62972 32.9119 4.70261 32.84 4.73905C32.6962 4.84838 32.5524 4.92127 32.4445 5.0306C31.1502 5.94169 29.6761 7.14433 28.7414 8.09187C28.5257 8.31053 28.7773 8.01898 28.5257 8.27409C27.7347 9.07585 26.9437 9.91405 26.2247 10.8616C26.1168 10.9709 26.0449 11.0803 25.9371 11.226L25.8652 11.2989L25.7933 11.3718L25.6495 11.554C25.5775 11.6634 25.4697 11.8091 25.3978 11.9185L25.3259 12.0278C25.3259 12.0278 25.2899 12.1007 25.254 12.1371C25.218 12.21 25.1821 12.2464 25.1461 12.3193C25.0742 12.4287 24.9664 12.5744 24.8944 12.6838L24.8225 12.7931C24.8225 12.7931 24.7866 12.866 24.7506 12.9024L24.6787 13.0118C24.6787 13.0482 24.6787 13.0847 24.6787 13.0847C24.6787 13.1575 24.6787 13.1575 24.6787 13.1575H24.6428C24.6068 13.1575 24.6428 13.1575 24.5709 13.1575H24.5349H24.463C24.4271 13.1575 24.3911 13.1575 24.3552 13.1575C24.2833 13.1575 24.2473 13.1575 24.1035 13.1575C23.9237 13.1575 23.744 13.1575 23.6361 13.1575C23.5642 13.1575 23.4563 13.1575 23.3844 13.1575C23.3125 13.1575 23.2047 13.1575 23.1328 13.1575C22.953 13.1575 22.7732 13.1575 22.6294 13.194C22.5575 13.194 22.4497 13.194 22.3778 13.194C22.3059 13.194 22.198 13.194 22.1261 13.194C22.0542 13.194 21.9463 13.194 21.8744 13.194H21.7306C21.6947 13.194 21.6587 13.194 21.5868 13.194C21.407 13.194 21.2273 13.2669 21.0835 13.2669C21.0116 13.2669 20.9037 13.2669 20.8318 13.3033H20.7599H20.688H20.5442C20.1847 13.4126 19.8611 13.4491 19.5016 13.5584C19.3218 13.5949 19.142 13.6313 18.9982 13.6678C18.8185 13.7042 18.6746 13.7406 18.4949 13.8135L18.2432 13.8864H18.0994L17.9556 13.9593C17.7758 13.9957 17.632 14.0686 17.4522 14.1051C17.3803 14.1051 17.2725 14.1415 17.2006 14.178L16.9489 14.2508C16.7692 14.3237 16.6253 14.3602 16.4456 14.4331C16.3737 14.4331 16.2658 14.506 16.1939 14.506L15.9422 14.6153L15.6906 14.7246C15.6187 14.7246 15.5108 14.7975 15.4389 14.8339C14.2165 15.3077 13.0301 15.8908 11.8796 16.5104C10.7291 17.1299 9.65053 17.8588 8.67981 18.6241C7.88885 19.2072 7.16979 19.8632 6.48669 20.4827C5.80359 21.1387 5.15645 21.7947 4.5812 22.4507C4.47335 22.56 4.40144 22.6693 4.29358 22.7787C4.25763 22.8516 4.18572 22.888 4.14977 22.9609C4.14977 22.9609 4.11382 23.0338 4.07787 23.0338H4.04191C4.04191 23.0702 4.04191 23.1067 4.04191 23.1067C3.86215 23.3253 3.68239 23.544 3.50262 23.7626C3.32286 23.9813 3.17905 24.2 2.99929 24.4186C2.96333 24.4551 2.92738 24.528 2.89143 24.6009C2.85548 24.6737 2.81952 24.7102 2.78357 24.7831C2.71167 24.8924 2.63976 25.0017 2.5319 25.1111C2.49595 25.184 2.46 25.2204 2.42404 25.2933C2.42404 25.3662 2.35214 25.4026 2.31619 25.4755C2.24428 25.5848 2.17238 25.6942 2.10047 25.8035C1.95666 26.0222 1.81285 26.2408 1.66904 26.4959C1.59713 26.6053 1.52523 26.7146 1.45332 26.8239C1.34547 26.9697 1.27356 27.1519 1.1657 27.2977C1.0938 27.407 1.05784 27.4799 0.985939 27.5892C0.985939 27.6257 0.914034 27.6986 0.878081 27.735V27.8079C0.842128 27.8079 0.842128 27.8079 0.842128 27.8079H0.518555V27.8808C0.59046 27.9901 0.626413 28.0994 0.698318 28.1723V28.2452C0.734271 28.2452 0.770223 28.3181 0.770223 28.3181C0.770223 28.3545 0.842128 28.4274 0.842128 28.4639C0.914034 28.5732 0.985939 28.6825 1.02189 28.7919C1.05784 28.8648 1.12975 28.9741 1.1657 29.047C1.27356 29.2292 1.38142 29.4114 1.48928 29.5572C1.59713 29.7394 1.70499 29.9216 1.81285 30.0674C1.88476 30.1403 1.92071 30.2496 1.99261 30.3225C2.06452 30.3954 2.10047 30.5047 2.17238 30.5776C2.28023 30.7598 2.38809 30.9056 2.49595 31.0878C2.60381 31.2336 2.71167 31.4158 2.85548 31.5616C3.07119 31.8531 3.32286 32.1447 3.50262 32.3998C3.50262 32.4362 3.57453 32.4727 3.61048 32.5456C3.64644 32.582 3.68239 32.6549 3.75429 32.6913C3.8262 32.8007 3.93406 32.91 4.00596 32.9829C4.07787 33.0558 4.14977 33.1287 4.18572 33.2016C4.25763 33.2744 4.32954 33.3473 4.40144 33.4202C4.54525 33.566 4.65311 33.7118 4.79692 33.894C5.55192 34.6957 6.37884 35.4611 7.20575 36.1535C8.14052 36.9553 9.07528 37.6477 10.082 38.3037C10.1539 38.3401 10.2258 38.413 10.2977 38.4494C10.3696 38.4859 10.4415 38.5223 10.5134 38.5952C10.6572 38.6681 10.801 38.7774 10.9448 38.8503C10.9808 38.8503 11.0167 38.8868 11.0527 38.9232L11.1605 38.9961L11.3763 39.1054C11.5201 39.1783 11.6639 39.2512 11.8077 39.3605C11.9874 39.4699 12.2032 39.5792 12.4189 39.6885C12.4548 39.6885 12.5267 39.725 12.5627 39.7614C12.5986 39.7614 12.6705 39.7979 12.7065 39.8343C12.8144 39.8708 12.9222 39.9436 13.0301 39.9801C14.1806 40.5632 15.4029 41.0369 16.5534 41.4378C16.6613 41.4378 16.7332 41.5107 16.8411 41.5472C16.9489 41.5472 17.0208 41.62 17.1287 41.6565C17.2365 41.6565 17.3084 41.7294 17.4163 41.7658H17.4882L17.5601 41.8023H17.7039C17.9196 41.9116 18.0994 41.948 18.3151 42.0209C18.3511 42.0209 18.423 42.0209 18.4589 42.0574H18.6027C18.7106 42.1303 18.8185 42.1303 18.8904 42.1667C18.9982 42.1667 19.1061 42.2031 19.178 42.2396L19.4656 42.3125C19.6813 42.3489 19.8611 42.3854 20.0768 42.4218C20.2925 42.4218 20.4723 42.4947 20.688 42.5311H20.8318L20.9037 42.5676H20.9756C21.0835 42.5676 21.1913 42.5676 21.2632 42.604C21.3711 42.604 21.4789 42.604 21.6228 42.6405C21.6947 42.6405 21.7306 42.6405 21.8025 42.6405C21.8744 42.6405 21.9104 42.6405 21.9823 42.6405C22.234 42.6405 22.4497 42.6769 22.7013 42.7134C22.953 42.7134 23.2047 42.7134 23.4563 42.7862C23.5642 42.7862 23.708 42.7862 23.8159 42.7862H23.9956H24.1035H24.1754V42.8227V42.8956C24.2833 43.0049 24.3552 43.1142 24.4271 43.2236C24.4271 43.26 24.499 43.3329 24.5349 43.3693C24.5349 43.4058 24.6068 43.4787 24.6428 43.5151C24.7147 43.6244 24.7866 43.7338 24.8225 43.8067C24.8944 43.916 24.9664 43.9889 25.0023 44.0982C25.1461 44.2804 25.254 44.4627 25.3978 44.6449C25.4337 44.7178 25.5056 44.7906 25.5416 44.8635C25.5775 44.9364 25.6495 45.0093 25.6854 45.0822C25.7214 45.1551 25.7933 45.228 25.8292 45.3009C25.8652 45.3737 25.9371 45.4466 26.009 45.5195C26.1168 45.6653 26.2247 45.8111 26.3685 45.9568C26.4404 46.0297 26.4764 46.1026 26.5483 46.1755C26.6202 46.2484 26.6561 46.3213 26.728 46.3942C26.8359 46.5399 26.9797 46.6857 27.0876 46.8315C27.2314 46.9773 27.3392 47.123 27.483 47.2688C27.5549 47.3417 27.6269 47.4146 27.6628 47.4875C27.6988 47.5604 27.8066 47.6332 27.8785 47.7061C28.0223 47.8519 28.1661 47.9977 28.3099 48.1435C28.4178 48.2528 28.5257 48.3257 28.6335 48.4715C28.7414 48.5808 28.8492 48.6901 28.9571 48.7994C29.065 48.9088 29.1728 49.0181 29.2807 49.1274C29.3526 49.1639 29.3885 49.2368 29.4604 49.2732C29.5323 49.3097 29.5683 49.3825 29.6402 49.419C29.7481 49.5283 29.8919 49.6376 29.9997 49.7105L30.1795 49.8563L30.2514 49.9292L30.3593 50.0021C30.4671 50.1114 30.6109 50.1843 30.7188 50.2936C30.7907 50.3301 30.8266 50.403 30.8985 50.4394H30.9345L30.9704 50.5123L31.0783 50.5852C31.1862 50.6945 31.33 50.7674 31.4378 50.8767C31.9412 51.2412 32.4086 51.5692 32.8759 51.8972C32.9478 51.9336 32.9838 51.97 33.0557 52.0065C33.1276 52.0429 33.1636 52.0794 33.2355 52.1158C33.3433 52.1887 33.4512 52.2616 33.595 52.3345C33.8107 52.4803 34.0264 52.5896 34.2421 52.7354C34.5657 52.9176 34.8533 53.0634 35.141 53.2456C35.141 53.2456 35.2129 53.282 35.2488 53.3185C35.2488 53.3185 35.3207 53.3549 35.3567 53.3913C35.4286 53.4278 35.5005 53.4642 35.5724 53.5007C35.7162 53.5736 35.86 53.6465 36.0398 53.7193H36.1117L36.1836 53.7922C36.2195 53.7922 36.2555 53.7922 36.2914 53.8651C36.3633 53.8651 36.4712 53.938 36.5431 53.9744C36.615 53.9744 36.6869 54.0473 36.7948 54.0838C36.8307 54.0838 36.8667 54.0838 36.9026 54.1202C36.9386 54.1202 36.9745 54.1202 37.0105 54.1567C37.1903 54.2296 37.3341 54.3024 37.4779 54.3389C37.5138 54.3389 37.5498 54.3389 37.5857 54.3753H37.6576L37.7295 54.4118C37.8014 54.4118 37.9093 54.4847 37.9812 54.5211C38.0891 54.5575 38.1969 54.594 38.3048 54.6304C38.4126 54.6669 38.5205 54.7033 38.6284 54.7398C38.8081 54.8127 38.9519 54.8491 39.1317 54.922C39.1676 54.922 39.2036 54.922 39.2755 54.9584H39.3474L39.4193 54.9949C39.4912 54.9949 39.5991 55.0313 39.671 55.0678C39.8507 55.1042 40.0305 55.1771 40.2103 55.2135C40.39 55.25 40.5698 55.3229 40.7496 55.3593C41.9001 55.6509 43.0865 55.9424 44.4527 56.0882C44.6325 56.0882 44.8482 56.1246 45.0279 56.1611C45.1358 56.1611 45.2436 56.1611 45.3515 56.1611C45.4594 56.1611 45.5672 56.1611 45.6751 56.1611C45.7829 56.1611 45.8908 56.1611 46.0346 56.1611C46.1065 56.1611 46.1425 56.1611 46.2144 56.1611C46.2863 56.1611 46.3222 56.1611 46.3941 56.1611C46.5379 56.1611 46.7177 56.1611 46.8615 56.1611L46.7896 55.9789C46.7896 55.9789 46.7896 55.9789 46.7896 55.9424L47.0772 56.1611C47.0053 56.1611 46.9334 56.1611 46.8615 56.1611V56.234H47.1491C47.257 56.234 47.3289 56.234 47.4368 56.234C47.4368 56.234 47.4727 56.234 47.5087 56.234C47.5446 56.234 47.5806 56.234 47.6525 56.234H47.6884H47.7603H47.7963C47.8682 56.234 47.9401 56.1975 47.976 56.1611C48.012 56.1611 48.048 56.1611 48.0839 56.1611C48.0839 56.1611 48.0839 56.1611 48.0839 56.1246C48.1199 56.0517 48.1558 55.9789 48.1918 55.9424C48.2637 55.8331 48.2996 55.7237 48.3715 55.6144C48.4434 55.5051 48.4794 55.3958 48.5513 55.2864C48.6232 55.1771 48.6591 55.0678 48.7311 54.9584L48.8389 54.7762V54.7033C48.8749 54.7033 48.9108 54.6304 48.9108 54.6304C49.0187 54.4118 49.1265 54.1931 49.2703 53.938C49.3782 53.7193 49.4861 53.4642 49.5939 53.2456C50.0253 52.298 50.3849 51.3505 50.7085 50.3665C50.7804 50.1843 50.8163 50.0385 50.8523 49.8563C50.8523 49.8199 50.8523 49.7834 50.8882 49.747C50.8882 49.7105 50.8882 49.6741 50.8882 49.6376C50.8882 49.5648 50.9242 49.4919 50.9601 49.3825C50.9961 49.2368 51.068 49.0546 51.1039 48.9088C51.1399 48.7266 51.1758 48.5808 51.2118 48.3986C51.3196 48.0341 51.3915 47.6333 51.4635 47.2324C51.4635 47.1959 51.4635 47.123 51.4635 47.0866C51.4635 47.0502 51.4635 46.9773 51.4635 46.9408C51.4635 46.8315 51.4994 46.7222 51.5354 46.6128C51.5354 46.5035 51.5713 46.3942 51.6073 46.2848C51.6073 46.1755 51.6073 46.0662 51.6432 45.9568C51.6432 45.8475 51.6432 45.7382 51.6792 45.6288C51.6792 45.5924 51.6792 45.5195 51.6792 45.4466C51.6792 45.3737 51.6792 45.3373 51.6792 45.2644C51.6792 45.0457 51.7511 44.8271 51.7511 44.572V44.4991V44.4262C51.7511 44.3533 51.7511 44.3169 51.7511 44.244C51.7511 44.1347 51.7511 44.0253 51.7511 43.916C51.7511 43.8431 51.7511 43.8067 51.7511 43.7338C51.7511 43.6609 51.7511 43.6244 51.7511 43.5516C51.7511 43.4422 51.7511 43.3329 51.7511 43.2236C51.7511 43.0413 51.7511 42.8956 51.7511 42.7134C51.7511 42.5311 51.7511 42.3489 51.7511 42.2031C51.7511 41.8387 51.7511 41.4743 51.7511 41.1463C51.7511 41.1098 51.7511 41.0734 51.7511 41.0005V40.9276C51.7511 40.9276 51.7511 40.8912 51.7511 40.8547C51.7511 40.7818 51.7511 40.6725 51.7511 40.5996C51.7511 40.4174 51.7511 40.2716 51.7511 40.1259C51.7511 40.053 51.7511 39.9801 51.7511 39.9072C51.7511 39.8343 51.7511 39.7614 51.7511 39.6885C51.7511 39.5428 51.7511 39.397 51.7511 39.2877V39.2148C51.7511 39.2148 51.7511 39.1419 51.7511 39.1054C51.7511 39.0325 51.7511 38.9597 51.7511 38.8868C51.7511 38.741 51.7151 38.5588 51.6792 38.3401C51.6073 37.9392 51.5713 37.4655 51.4635 36.9553C51.4635 36.8095 51.4635 36.7366 51.4275 36.6273C51.4275 36.6273 51.4275 36.6273 51.4275 36.5908C51.4275 36.5908 51.4275 36.5908 51.4275 36.5544C51.4275 36.5544 51.4275 36.5179 51.4275 36.4815C51.4275 36.4086 51.4275 36.3722 51.3915 36.2264C51.3915 36.1171 51.3556 35.9713 51.3196 35.8619C51.3196 35.7891 51.3196 35.7526 51.2837 35.6797C51.2837 35.6068 51.2837 35.5704 51.2477 35.4975L51.1758 35.1331C51.1758 35.0602 51.1758 35.0237 51.1399 34.9509C51.1399 34.878 51.1399 34.8415 51.1039 34.7686C51.032 34.5135 50.9601 34.2584 50.9242 34.0033C50.9242 33.8575 50.8523 33.7482 50.8163 33.6024C50.7803 33.4567 50.7084 33.3109 50.6725 33.1287C50.6365 32.9829 50.5646 32.8007 50.4927 32.6185C50.4927 32.5456 50.4208 32.4362 50.4208 32.3634C50.4208 32.3269 50.4208 32.2905 50.3849 32.254C50.3849 32.2176 50.3849 32.1811 50.3489 32.1447C50.277 31.9625 50.2051 31.7438 50.1332 31.5616C50.1332 31.5251 50.0973 31.4523 50.0613 31.4158C50.0613 31.3794 50.0253 31.3065 49.9894 31.27C49.9534 31.1972 49.9175 31.0878 49.8815 30.9785C49.8456 30.8692 49.8096 30.7963 49.7737 30.6869C49.7377 30.5776 49.7018 30.5047 49.6658 30.3954C49.5939 30.2132 49.4861 30.031 49.4142 29.8487C49.3422 29.6665 49.2703 29.5207 49.1625 29.3385C49.1265 29.2656 49.0906 29.1928 49.0546 29.0834C49.0187 29.0105 48.9827 28.9376 48.9108 28.8283C48.8389 28.6825 48.731 28.5003 48.6591 28.3546C48.6591 28.3546 48.6951 28.2817 48.7311 28.2452C48.767 28.1723 48.803 28.063 48.8749 27.9901C48.9468 27.8808 48.9827 27.7715 49.0546 27.6621C49.0906 27.5528 49.1265 27.4799 49.1625 27.407C49.2344 27.2612 49.3063 27.1155 49.3782 26.9697C49.6299 26.4595 49.8096 25.9857 49.9894 25.5848C50.0253 25.4755 50.0613 25.4026 50.0973 25.2933C50.0973 25.2933 50.0973 25.2568 50.0973 25.2204C50.0973 25.2204 50.0973 25.184 50.0973 25.1475C50.0973 25.1111 50.0973 25.0746 50.1332 25.0382C50.2051 24.8924 50.2411 24.7466 50.277 24.6373C50.277 24.6009 50.313 24.528 50.313 24.4915C50.313 24.4915 50.313 24.4551 50.313 24.4186C50.313 24.4186 50.313 24.3822 50.313 24.3457C50.313 24.2364 50.3849 24.1635 50.4208 24.0542C50.4208 23.9449 50.4927 23.8355 50.5287 23.7626V23.6169C50.6006 23.5804 50.6006 23.5075 50.6365 23.4711C50.7084 23.2524 50.7803 23.0702 50.8163 22.888C50.8163 22.888 50.8163 22.8516 50.8163 22.8151C50.8163 22.8151 50.8163 22.7787 50.8163 22.7422C50.8163 22.7058 50.8163 22.6329 50.8523 22.5965C50.8523 22.5236 50.8882 22.4142 50.9242 22.3413C50.9242 22.232 51.032 22.0134 51.032 21.9769C51.068 21.7582 51.1399 21.576 51.1758 21.3574C51.1758 21.3209 51.1758 21.248 51.1758 21.2116C51.1758 21.1751 51.1758 21.1023 51.1758 21.0658C51.1758 20.9565 51.2118 20.8836 51.2477 20.7743C51.2837 20.592 51.3196 20.4098 51.3556 20.2276C51.3556 20.0454 51.4275 19.8632 51.4635 19.681C51.4635 19.5716 51.4635 19.4987 51.4994 19.3894C51.4994 19.2801 51.4994 19.2072 51.5354 19.0979C51.5354 18.9156 51.6073 18.697 51.6073 18.5148C51.6432 18.1139 51.7151 17.6401 51.7511 17.1299C51.7511 16.9477 51.7511 16.8384 51.787 16.4739C51.787 16.3281 51.787 15.9637 51.787 15.8544C51.787 15.7815 51.787 15.7086 51.787 15.6722C51.787 15.4535 51.787 15.2348 51.787 15.0162C51.787 14.506 51.787 13.9957 51.787 13.4855" fill="white"/>
<path d="M72.4956 49.6H67.0308V40.8535H68.3251V48.3974H72.4956V49.6Z" fill="white"/>
<path d="M83.0659 44.2805C83.0659 44.4627 83.0659 44.7542 83.0659 45.228C83.0659 45.7018 83.0659 46.0298 83.0659 46.1755C83.0659 46.3578 83.0659 46.5764 83.0299 46.9044C83.0299 47.2324 82.958 47.4875 82.9221 47.6333C82.8502 47.7791 82.7782 47.9613 82.6704 48.1799C82.5625 48.3986 82.4187 48.5808 82.2749 48.7266C81.6637 49.3461 80.9087 49.6741 80.0099 49.6741C79.1111 49.6741 78.3561 49.3461 77.7449 48.7266C77.5651 48.5444 77.4213 48.3622 77.3494 48.1799C77.2415 47.9613 77.1696 47.7791 77.0977 47.6333C77.0258 47.4875 76.9899 47.2324 76.9539 46.9044C76.9539 46.5764 76.918 46.3578 76.918 46.1391C76.918 45.9569 76.918 45.6289 76.918 45.1916C76.918 44.7542 76.918 44.4262 76.918 44.244C76.918 44.0618 76.918 43.8067 76.9539 43.4787C76.9539 43.1507 77.0258 42.9321 77.0977 42.7498C77.1696 42.6041 77.2415 42.4218 77.3494 42.2032C77.4573 41.9845 77.6011 41.8023 77.7449 41.6565C78.3561 41.037 79.1111 40.709 80.0099 40.709C80.9087 40.709 81.6637 41.037 82.2749 41.6565C82.4547 41.8387 82.5985 42.021 82.6704 42.2032C82.7782 42.4218 82.8502 42.5676 82.9221 42.7498C82.994 42.8956 83.0299 43.1507 83.0299 43.4787C83.0299 43.8067 83.0659 44.0618 83.0659 44.2076V44.2805ZM81.6637 47.0866C81.7356 46.7222 81.7716 46.1391 81.7716 45.228C81.7716 44.3169 81.7716 43.7338 81.6637 43.3694C81.5918 43.0049 81.448 42.7498 81.2682 42.4947C80.9447 42.1303 80.5132 41.9481 79.9739 41.9481C79.4347 41.9481 79.0032 42.1303 78.6796 42.4947C78.4639 42.7134 78.3201 43.0049 78.2842 43.3694C78.2123 43.7338 78.1763 44.3169 78.1763 45.228C78.1763 46.1391 78.1763 46.7222 78.2842 47.0866C78.3561 47.4511 78.4999 47.7062 78.6796 47.9613C79.0032 48.3257 79.4347 48.5079 79.9739 48.5079C80.5132 48.5079 80.9447 48.3257 81.2682 47.9613C81.484 47.7426 81.6278 47.4511 81.6637 47.0866Z" fill="white"/>
<path d="M94.0313 40.8535L91.155 49.6H90.1484L87.3081 40.8535H88.6743L90.6517 47.2312L92.6291 40.8535H93.9953H94.0313Z" fill="white"/>
<path d="M104.242 49.6H98.7412V40.8535H104.242V42.0562H100.035V44.6072H103.631V45.7734H100.035V48.3974H104.242V49.6Z" fill="white"/>
<path d="M121.283 42.0562H118.91V49.6H117.616V42.0562H115.243V40.8535H121.319V42.0562H121.283Z" fill="white"/>
<path d="M132.393 49.6H131.099V45.7734H127.611V49.6H126.317V40.8535H127.611V44.6072H131.099V40.8535H132.393V49.6Z" fill="white"/>
<path d="M139.475 49.6H138.181V40.8535H139.475V49.6Z" fill="white"/>
<path d="M150.621 47.1218C150.621 47.9236 150.333 48.5431 149.758 49.0169C149.182 49.4907 148.427 49.7093 147.529 49.7093C146.63 49.7093 146.306 49.6364 145.803 49.4542C145.336 49.272 144.868 48.9805 144.473 48.5796L145.336 47.7049C145.875 48.2516 146.63 48.5431 147.529 48.5431C148.427 48.5431 148.535 48.4338 148.859 48.1787C149.182 47.96 149.326 47.632 149.326 47.1947C149.326 46.7574 149.218 46.5023 149.003 46.2836C148.823 46.1014 148.499 45.9921 148.068 45.9192L147.061 45.7734C146.342 45.6641 145.803 45.4454 145.407 45.081C144.976 44.6801 144.76 44.1334 144.76 43.4046C144.76 42.6757 145.012 42.0197 145.551 41.5459C146.055 41.0722 146.774 40.8535 147.672 40.8535C148.571 40.8535 149.65 41.1815 150.369 41.8375L149.542 42.6757C149.075 42.2384 148.463 41.9833 147.672 41.9833C146.881 41.9833 146.81 42.0926 146.522 42.3477C146.234 42.6028 146.091 42.9308 146.091 43.3317C146.091 43.7326 146.198 43.9512 146.414 44.1334C146.63 44.3521 146.953 44.4614 147.385 44.5343L148.356 44.6801C149.075 44.7894 149.614 45.0081 149.973 45.3361C150.441 45.737 150.692 46.3565 150.692 47.1218H150.621Z" fill="white"/>
<path d="M167.77 49.6H162.305V40.8535H163.599V48.3974H167.77V49.6Z" fill="white"/>
<path d="M174.062 49.6H172.768V40.8535H174.062V49.6Z" fill="white"/>
<path d="M185.351 42.0568H181.144V44.7172H184.74V45.9199H181.144V49.6371H179.85V40.8906H185.351V42.0933V42.0568Z" fill="white"/>
<path d="M195.957 49.6H190.456V40.8535H195.957V42.0562H191.75V44.6072H195.346V45.7734H191.75V48.3974H195.957V49.6Z" fill="white"/>
</svg>
