<svg width="35" height="30" viewBox="0 0 35 30" fill="none" xmlns="http://www.w3.org/2000/svg">
<path d="M17.5094 29.8247C17.179 29.8247 16.8995 29.7104 16.6708 29.4817L4.77877 18.0089C4.65171 17.9073 4.47702 17.7421 4.25468 17.5134C4.03234 17.2847 3.67977 16.8686 3.19697 16.2651C2.71417 15.6616 2.2822 15.0423 1.90104 14.407C1.51989 13.7717 1.18002 13.0031 0.881452 12.101C0.58288 11.1989 0.433594 10.3223 0.433594 9.47104C0.433594 6.6759 1.24037 4.49061 2.85393 2.91517C4.46749 1.33972 6.69725 0.552002 9.54321 0.552002C10.3309 0.552002 11.1345 0.688583 11.954 0.961744C12.7735 1.23491 13.5358 1.60336 14.241 2.0671C14.9461 2.53083 15.5528 2.96599 16.061 3.37255C16.5692 3.77912 17.052 4.21109 17.5094 4.66848C17.9667 4.21109 18.4495 3.77912 18.9578 3.37255C19.466 2.96599 20.0726 2.53083 20.7778 2.0671C21.4829 1.60336 22.2452 1.23491 23.0647 0.961744C23.8842 0.688583 24.6878 0.552002 25.4755 0.552002C28.3215 0.552002 30.5512 1.33972 32.1648 2.91517C33.7784 4.49061 34.5851 6.6759 34.5851 9.47104C34.5851 12.2789 33.1304 15.1376 30.2209 18.047L18.3479 29.4817C18.1192 29.7104 17.8397 29.8247 17.5094 29.8247Z" fill="#944361"/>
</svg>
