<svg width="40" height="41" viewBox="0 0 40 41" fill="none" xmlns="http://www.w3.org/2000/svg">
<path d="M37.1603 10.3888C37.1603 10.4567 37.1603 10.5246 37.1603 10.5246C37.1603 10.5925 37.1603 10.6604 37.1603 10.7283V10.8641V11C37.1603 11.1358 37.1603 11.2037 37.1603 11.3395C37.1603 11.4754 37.1603 11.5433 37.1603 11.6112C37.1603 11.6791 37.1603 11.8149 37.1603 11.8828C37.1603 11.9507 37.1603 12.0187 37.1603 12.0866C37.1603 12.1545 37.1603 12.2224 37.1603 12.2903C37.1603 12.3582 37.1603 12.4261 37.1603 12.494C37.1603 12.5619 37.1603 12.6299 37.1603 12.6978C37.1603 12.8336 37.1603 12.9694 37.1603 13.1052C37.1603 13.2411 37.1603 13.3769 37.1603 13.5127C37.1603 13.6485 37.1603 13.7844 37.0923 13.9881C37.0923 14.056 37.0923 14.1239 37.0923 14.1918C37.0923 14.2598 37.0923 14.3277 37.0923 14.3956C37.0243 14.7351 36.9562 15.0068 36.8882 15.2784C36.8882 15.4143 36.8201 15.4822 36.7521 15.618V15.7538V15.8897C36.7521 16.0255 36.6841 16.0934 36.616 16.2292C36.548 16.365 36.548 16.433 36.48 16.5688C36.48 16.5688 36.48 16.6367 36.48 16.7046C36.48 16.7725 36.48 16.7725 36.48 16.8404C36.48 16.9083 36.48 16.9083 36.48 16.9763C36.48 17.0442 36.4119 17.18 36.3439 17.2479C36.2759 17.3158 36.2759 17.4516 36.2078 17.5196C36.2078 17.5196 36.2078 17.5196 36.2078 17.5875C36.2078 17.5875 36.2078 17.5875 36.2078 17.6554C36.2078 17.6554 36.2078 17.5875 36.2078 17.5196C36.2078 17.5196 36.2078 17.4516 36.1398 17.3837C36.1398 17.3158 36.0037 17.18 35.9357 17.1121C35.8677 17.0442 35.7996 16.9083 35.7316 16.8404C35.7316 16.8404 35.6636 16.7725 35.5955 16.7046C35.5955 16.7046 35.5955 16.7046 35.5955 16.6367C35.5955 16.5688 35.5955 16.6367 35.5955 16.5688C35.5955 16.5688 35.5275 16.433 35.4595 16.365L35.3234 16.2292C35.3234 16.2292 35.2554 16.1613 35.1873 16.0934L34.9152 15.8217C34.9152 15.8217 34.9152 15.7538 34.8472 15.6859C34.7791 15.618 34.8472 15.618 34.7791 15.5501C34.7791 15.4822 34.6431 15.4143 34.575 15.3464C34.575 15.3464 34.575 15.2784 34.439 15.2105C34.3029 15.1426 34.3709 15.1426 34.3029 15.0747C34.2349 15.0068 34.1668 14.9389 34.0988 14.871C34.0988 14.871 34.0988 14.8031 34.0308 14.8031C33.9627 14.8031 34.0308 14.7351 33.8947 14.6672C33.8947 14.5993 33.7586 14.5314 33.6906 14.4635C33.6906 14.4635 33.6226 14.3956 33.5545 14.3277C33.4865 14.2598 33.4865 14.2598 33.4185 14.1918C33.3504 14.1239 33.2824 14.056 33.2144 13.9881C32.7381 13.5127 32.1939 13.1052 31.6496 12.6978C31.5816 12.6299 31.4455 12.5619 31.3775 12.494H31.2414C31.2414 12.3582 31.1734 12.3582 31.1053 12.2903C31.0373 12.2224 30.9012 12.1545 30.7652 12.0866C30.7652 12.0866 30.6291 12.0187 30.5611 11.9507C30.493 11.8828 30.425 11.8828 30.357 11.8149L30.1529 11.6791L29.9488 11.5433C29.9488 11.5433 29.8127 11.4754 29.7447 11.4074C29.7447 11.4074 29.7447 11.4074 29.6766 11.4074H29.6086L29.3365 11.2037H29.2004C29.2004 11.1358 29.2004 11.0679 29.2004 11.0679H29.1324C29.0643 11.0679 28.9283 10.9321 28.8602 10.9321H28.7242C28.7242 10.8641 28.6561 10.7962 28.5881 10.7962C28.5201 10.7962 28.384 10.7283 28.316 10.6604H28.2479C28.2479 10.6604 28.1119 10.6604 28.0438 10.5925C27.9758 10.5925 27.9078 10.5246 27.8397 10.4567C27.7717 10.4567 27.7037 10.4567 27.6356 10.3888C27.5676 10.3208 27.4996 10.3888 27.4315 10.3208H27.2955C27.2955 10.2529 27.2274 10.2529 27.1594 10.185C27.0914 10.185 27.0233 10.1171 26.8872 10.0492H26.7512C26.7512 10.0492 26.7512 10.0492 26.6832 10.0492C26.6151 10.0492 26.6831 10.0492 26.6151 10.0492L26.2749 9.91337C26.2749 9.91337 26.2749 9.91337 26.2069 9.91337C26.1389 9.91337 26.2069 9.91337 26.1389 9.91337H25.9348L25.7307 9.77754H25.5946H25.2544C25.1864 9.64172 25.1184 9.64172 25.0503 9.64172H24.9143C24.8462 9.64172 24.7102 9.57381 24.6421 9.5059C24.5741 9.43798 24.5061 9.5059 24.438 9.5059H24.0979C24.0979 9.43798 23.8938 9.37007 23.8938 9.37007C23.8938 9.37007 23.7577 9.37007 23.6897 9.37007C23.5536 9.37007 23.4175 9.37007 23.2815 9.30216H23.1454C23.0093 9.30216 22.8733 9.30216 22.7372 9.30216C22.7372 9.30216 22.7372 9.30216 22.6692 9.30216H22.6011C22.6011 9.30216 22.4651 9.30216 22.397 9.30216C22.329 9.30216 22.261 9.30216 22.1929 9.30216C22.1249 9.30216 22.0569 9.30216 21.9888 9.30216H21.5126C21.5126 9.30216 21.5126 9.30216 21.4446 9.30216H21.3085C21.3085 9.30216 21.1724 9.30216 21.1044 9.30216H20.8323C20.9003 9.16633 20.9683 9.03051 21.1044 8.89468C21.1044 8.89468 21.1724 8.82677 21.2405 8.75886C21.2405 8.69095 21.3765 8.62303 21.3765 8.55512C21.4446 8.4193 21.5126 8.35139 21.6487 8.21556C21.7167 8.07974 21.8528 8.01182 21.8528 7.94391C23.0774 6.44984 24.5741 5.09159 26.2069 4.00499L25.9348 4.14082C25.9348 4.14082 25.9348 4.14082 25.7987 4.20873C25.7987 4.20873 25.7987 4.27665 25.7307 4.27665C25.7307 4.27665 25.6626 4.27665 25.5946 4.41247C25.7307 4.27665 25.7987 4.34456 25.7307 4.41247C25.5266 4.5483 25.3225 4.75203 25.1184 4.88785C25.1184 4.88785 24.9823 4.95577 24.9823 5.02368C24.9823 5.02368 24.9823 5.02368 24.9143 5.02368H24.8462C24.7782 5.1595 24.6421 5.22742 24.5741 5.29533C24.5741 5.29533 24.5741 5.36324 24.5061 5.43116C24.438 5.49907 24.302 5.56698 24.2339 5.7028C24.2339 5.7028 24.1659 5.77072 24.0979 5.83863C24.0298 5.90654 24.0298 5.90654 23.9618 5.97445C23.8938 6.04237 23.7577 6.17819 23.6897 6.2461C23.6897 6.2461 23.6897 6.2461 23.6897 6.31402C23.6897 6.38193 23.6897 6.31401 23.6897 6.38193L23.5536 6.51775C23.5536 6.51775 23.6897 6.44984 23.6897 6.38193C23.6897 6.38193 23.6897 6.38193 23.7577 6.31402C23.8257 6.2461 23.7577 6.31401 23.8257 6.2461C23.9618 6.17819 24.0298 6.04236 24.1659 5.90654C24.37 5.7028 24.6421 5.49907 24.8462 5.29533C24.8462 5.29533 24.8462 5.29533 24.9143 5.22742C24.9823 5.1595 24.9143 5.22742 24.9823 5.1595C24.9823 5.1595 25.1184 5.09159 25.1864 5.02368C25.2544 4.95577 25.3225 4.95577 25.3225 4.88785H25.3905C25.3905 4.81994 25.3905 4.81994 25.3905 4.75203L25.6626 4.61621H25.7987C25.7987 4.48038 25.7987 4.48038 25.8667 4.48038C25.8667 4.48038 26.0028 4.41247 26.0709 4.34456C26.1389 4.27664 26.2069 4.27664 26.2749 4.20873C26.2749 4.20873 26.275 4.20873 26.343 4.20873C26.4791 4.20873 26.6151 4.07291 26.7512 4.00499C26.8873 3.93708 27.0233 3.86917 27.1594 3.80126C27.1594 3.80126 27.1594 3.80126 27.2274 3.80126C27.2274 3.80126 27.1594 3.86917 27.0914 3.93708C27.0233 3.93708 26.8873 4.07291 26.8192 4.07291C26.8192 4.07291 26.8192 4.07291 26.7512 4.07291H26.6832C26.6832 4.20873 26.5471 4.20873 26.479 4.27665C26.411 4.34456 26.343 4.34456 26.2749 4.41247C26.2069 4.48038 26.1389 4.48038 26.0709 4.54829C26.0028 4.61621 25.9348 4.61621 25.8667 4.68412L25.6626 4.81994L25.4585 4.95577C25.4585 4.95577 25.4585 4.95577 25.3225 5.02368C25.1864 5.09159 25.3225 5.02368 25.2544 5.09159C25.2544 5.15951 25.2544 5.09159 25.3225 5.09159C25.4585 5.02368 25.5946 4.88786 25.7307 4.81994C25.7307 4.81994 25.8667 4.75203 25.9348 4.68412C26.0028 4.61621 26.0708 4.61621 26.1389 4.54829C26.275 4.54829 26.1389 4.61621 26.0028 4.81994C25.7987 4.95577 25.5946 5.15951 25.3905 5.29533C25.1864 5.43115 24.9823 5.63489 24.8462 5.7028C24.37 6.11028 23.8938 6.58566 23.4175 7.06105C23.4175 7.06105 23.2815 7.19687 23.2815 7.26479H23.1454C23.1454 7.40061 23.1454 7.40061 23.0774 7.46853L22.7372 7.876C22.6011 8.01182 22.5331 8.14765 22.397 8.28347C22.397 8.28347 22.397 8.35139 22.329 8.35139C22.261 8.35139 22.329 8.4193 22.261 8.4193C22.261 8.48721 22.1929 8.55512 22.1249 8.62303C22.329 8.35138 22.6011 8.07974 22.8052 7.80809C22.8052 7.74018 22.9413 7.67226 22.9413 7.60435C22.9413 7.60435 22.9413 7.60435 23.0093 7.53644V7.46853C23.1454 7.3327 23.2134 7.19688 23.3495 7.12896C23.4856 6.99314 23.5536 6.92523 23.6897 6.7894C23.8257 6.65358 23.9618 6.58567 24.0298 6.44984C24.0298 6.44984 24.0298 6.44984 24.0979 6.38193C24.1659 6.31401 24.0979 6.38193 24.1659 6.31402C24.1659 6.31402 24.302 6.17819 24.37 6.17819C24.37 6.17819 24.37 6.17819 24.438 6.11028C24.5061 6.04237 24.438 6.11028 24.5061 6.04236C24.5061 6.04236 24.6421 5.97445 24.6421 5.90654C24.6421 5.90654 24.7782 5.83863 24.8462 5.77072C24.9143 5.7028 24.9823 5.63489 25.0503 5.63489C25.1184 5.63489 25.1864 5.49907 25.2544 5.49907C25.2544 5.49907 25.2544 5.49907 25.3225 5.49907C25.3225 5.49907 25.3225 5.63489 25.1864 5.63489C25.1184 5.7028 25.0503 5.77072 24.9823 5.83863C25.0503 5.77072 25.1864 5.7028 25.2544 5.63489C25.3225 5.56698 25.4585 5.49907 25.5266 5.43116C25.6626 5.29533 25.9348 5.15951 26.0028 5.09159L26.1389 5.02368C26.1389 5.02368 26.2069 4.95577 26.2749 4.88785C26.2749 4.88785 26.411 4.81994 26.479 4.75203C26.479 4.75203 26.479 4.75203 26.5471 4.75203H26.6151L26.7512 4.61621L26.8872 4.54829H26.9553C26.9553 4.54829 26.9553 4.48038 27.0233 4.48038C27.1594 4.48038 27.2274 4.34456 27.3635 4.27665H27.4315C27.4315 4.27665 27.4315 4.20873 27.4996 4.20873C27.4996 4.20873 27.6356 4.20873 27.6356 4.14082C27.6356 4.07291 27.7717 4.07291 27.7717 4.07291C27.8397 4.07291 27.9758 4.005 28.0438 3.93708C28.1119 3.86917 28.2479 3.86917 28.316 3.80126L28.6561 3.66543H28.7242L28.9283 3.59752H29.1324C29.1324 3.52961 29.2684 3.4617 29.2684 3.4617L29.6086 3.32587C29.6766 3.32587 29.6086 3.32587 29.6766 3.32587C30.357 3.05422 31.0373 2.85049 31.7176 2.71466C31.7176 2.71466 31.7176 2.71466 31.7857 2.71466C31.8537 2.71466 31.7857 2.71466 31.9217 2.71466C31.9217 2.71466 31.9898 2.71466 32.0578 2.71466C32.8742 2.51092 33.7586 2.3751 34.575 2.30719H34.8472H34.9832H35.0513C35.0513 2.30719 35.0513 2.30719 35.1193 2.30719C35.1193 2.30719 35.1193 2.30719 35.1193 2.3751V2.44301C35.1193 2.51092 35.1873 2.64675 35.2554 2.71466C35.3234 2.78257 35.3234 2.9184 35.3914 2.98631L35.5955 3.39378C35.5955 3.39378 35.5955 3.39378 35.5955 3.52961C35.5955 3.66543 35.5955 3.52961 35.5955 3.66543V3.86917C35.6636 3.86917 35.7316 3.86917 35.7316 3.93708C35.7316 4.005 35.7316 3.93708 35.7316 4.00499C35.7316 4.00499 35.7316 4.14082 35.7996 4.20873C35.8677 4.27664 35.7996 4.34456 35.8677 4.41247C35.9357 4.48038 35.8677 4.54829 35.8677 4.61621C35.8677 4.81994 36.0037 4.95577 36.0718 5.09159C36.0718 5.22742 36.2078 5.43115 36.2078 5.56698C36.2759 5.90654 36.4119 6.2461 36.48 6.58566C36.48 6.58566 36.48 6.72149 36.48 6.7894C36.48 6.7894 36.48 6.7894 36.48 6.85731C36.48 6.92523 36.48 6.85731 36.48 6.92522C36.48 7.06105 36.48 7.19688 36.548 7.3327C36.548 7.3327 36.548 7.46852 36.548 7.53644C36.548 7.60435 36.548 7.67226 36.548 7.74017C36.548 7.80809 36.548 7.876 36.548 7.94391C36.548 8.01182 36.548 8.07974 36.548 8.07974C36.548 8.14765 36.548 8.21556 36.548 8.35139C36.548 8.35139 36.548 8.48721 36.548 8.55512C36.548 8.62303 36.548 8.69095 36.548 8.75886C36.548 8.9626 36.548 9.09842 36.548 9.30216C36.548 9.50589 36.548 9.64172 36.548 9.84546C36.548 9.84546 36.548 9.84546 36.548 9.91337C36.548 9.98128 36.548 9.91337 36.548 9.98128C36.548 9.98128 36.548 10.0492 36.548 10.1171C36.548 10.185 36.548 10.3208 36.548 10.3888C36.548 10.4567 36.548 10.5925 36.548 10.6604V11.6112L37.1603 10.3888ZM37.2964 28.7251C37.2964 28.5893 37.2964 28.5214 37.2964 28.4534V28.1818C37.2964 28.1818 37.2964 28.046 37.2964 27.9781C37.2964 28.1818 37.2964 28.1818 37.2964 28.1139C37.2964 28.1139 37.2964 27.9781 37.2964 27.9101C37.2964 27.8422 37.2964 27.7743 37.2964 27.7064C37.2964 27.5706 37.2964 27.4348 37.2964 27.2989C37.2964 27.1631 37.2964 27.0273 37.2964 26.8915C37.2964 26.8915 37.2964 26.8915 37.2964 26.8235C37.2964 26.7556 37.2964 26.8235 37.2964 26.7556V26.6198C37.2964 26.6198 37.2964 26.5519 37.2964 26.484C37.2964 26.484 37.2964 26.3482 37.2964 26.2802C37.2964 26.2802 37.2964 26.1444 37.2964 26.0765C37.2964 25.9407 37.2964 25.8049 37.2284 25.7369C37.1603 25.669 37.2283 25.4653 37.1603 25.3974V25.1936C37.1603 25.1936 37.0923 25.0578 37.0923 24.9899C37.2283 25.5332 37.3644 26.1444 37.5005 26.8235C37.5005 26.8235 37.5005 26.8235 37.5005 26.8915C37.5005 27.0273 37.5005 27.1631 37.5685 27.2989C37.5685 27.3668 37.5685 27.3668 37.5685 27.4348C37.5685 27.4348 37.5685 27.4348 37.5685 27.5706C37.5685 27.5706 37.5685 27.7064 37.5685 27.7743C37.5685 27.7743 37.5685 27.8422 37.5685 27.9101C37.5685 28.1139 37.5685 28.2497 37.5685 28.3855C37.5685 28.5213 37.5685 28.7251 37.5685 28.8609V29.0646C37.5685 29.1326 37.5685 29.2005 37.5685 29.2684C37.5685 29.3363 37.5685 29.4042 37.5685 29.4721V29.7438C37.5685 29.7438 37.5685 29.6759 37.5685 29.608V29.4721V29.3363C37.5685 29.3363 37.5685 29.2005 37.5685 29.1326C37.5685 29.1326 37.5685 29.0646 37.5685 28.9967C37.5685 28.9288 37.5685 28.9288 37.5685 28.8609C37.5685 28.7251 37.5685 28.5214 37.5685 28.3176C37.5685 28.1139 37.5685 27.9781 37.5685 27.7743C37.5685 27.5706 37.5685 27.4348 37.5005 27.231C37.5005 27.3668 37.5005 27.5706 37.5005 27.7064C37.5005 27.8422 37.5005 28.046 37.5005 28.1818C37.5005 28.3176 37.3644 28.1818 37.3644 27.9101C37.3644 27.9101 37.3644 27.7743 37.3644 27.7064V27.5706C37.3644 27.5706 37.3644 27.4348 37.3644 27.3668V27.231C37.3644 27.231 37.3644 27.1631 37.3644 27.0952C37.3644 26.9594 37.3644 26.8235 37.3644 26.6877C37.3644 26.5519 37.3644 26.484 37.3644 26.4161C37.3644 26.0765 37.2283 25.8049 37.1603 25.4653C37.1603 25.3295 37.0923 25.1257 37.0243 24.9899C36.9562 24.8541 36.9562 24.6503 36.8882 24.5145C36.6841 23.9033 36.48 23.2242 36.2078 22.613C36.2078 22.6809 36.2078 22.8167 36.2759 22.8846C36.2759 22.8846 36.2759 22.9525 36.2759 23.0205C36.2759 23.0884 36.2759 23.0884 36.2759 23.1563C36.2759 23.2242 36.2759 23.2921 36.3439 23.4279C36.3439 23.4279 36.3439 23.4958 36.3439 23.5637C36.3439 23.5637 36.3439 23.6317 36.3439 23.6996C36.3439 23.7675 36.3439 23.8354 36.4119 23.9712C36.4119 24.0391 36.4119 24.107 36.4119 24.175C36.4119 24.2429 36.4119 24.3108 36.48 24.4466C36.48 24.4466 36.48 24.5145 36.48 24.5824V24.7183C36.48 24.8541 36.548 25.0578 36.616 25.1936C36.616 25.2616 36.616 25.3295 36.616 25.4653C36.616 25.4653 36.616 25.5332 36.616 25.6011C36.616 25.669 36.616 25.669 36.616 25.7369C36.616 25.8049 36.616 25.8728 36.616 26.0086C36.616 26.0765 36.616 26.1444 36.616 26.2802C36.616 26.4161 36.6161 26.6198 36.6841 26.7556C36.6841 26.8915 36.6841 27.0952 36.6841 27.231C36.6841 27.231 36.6841 27.2989 36.6841 27.3668C36.6841 27.4348 36.6841 27.5027 36.6841 27.5706C36.6841 27.5706 36.616 27.4348 36.616 27.3668C36.616 27.3668 36.616 27.2989 36.616 27.231C36.616 27.1631 36.616 27.0952 36.616 27.0273C36.616 27.0273 36.616 27.0273 36.616 27.0952C36.616 27.1631 36.616 27.0952 36.616 27.1631C36.616 27.1631 36.616 27.2989 36.616 27.3668C36.616 27.4348 36.616 27.5027 36.616 27.5706C36.616 27.6385 36.616 27.7064 36.616 27.7064C36.616 27.7743 36.616 27.9101 36.616 28.046V28.1818C36.616 28.1818 36.616 28.2497 36.616 28.3176V28.4534C36.616 28.4534 36.616 28.5893 36.616 28.6572C36.616 28.7251 36.616 28.793 36.616 28.793C36.616 28.793 36.616 28.793 36.616 28.8609C36.616 28.9967 36.616 29.1326 36.616 29.2684C36.616 29.4042 36.616 29.54 36.616 29.6759V29.8796C36.616 29.8796 36.616 30.0154 36.616 30.0833C36.616 30.2192 36.616 30.355 36.616 30.4908V30.6266C36.616 30.6266 36.616 30.6266 36.616 30.6945C36.616 30.7625 36.616 30.8983 36.616 31.0341C36.616 31.1699 36.616 31.2378 36.616 31.3737C36.616 31.3737 36.616 31.5095 36.616 31.5774C36.616 31.7132 36.616 31.7132 36.616 31.7811C36.616 31.917 36.616 32.0528 36.616 32.1886C36.616 32.3244 36.616 32.3244 36.616 32.3924C36.616 32.3924 36.616 32.5282 36.616 32.5961C36.616 32.7319 36.616 32.7998 36.616 32.9357C36.616 33.0036 36.616 32.9357 36.616 33.0036C36.616 33.0715 36.616 33.2073 36.616 33.2752C36.616 33.2752 36.616 33.3431 36.616 33.411C36.616 33.6148 36.548 33.7506 36.48 33.9543C36.4119 34.1581 36.4119 34.2939 36.3439 34.4976C36.3439 34.6335 36.3439 34.6335 36.3439 34.7014C36.3439 34.7693 36.3439 34.9051 36.2759 34.973C36.2759 34.973 36.2759 34.973 36.2759 35.0409C36.2759 35.1088 36.2759 35.1088 36.2759 35.1768C36.2759 35.1768 36.2759 35.2447 36.2759 35.3126C36.0037 36.1275 35.7316 36.9425 35.3914 37.7574V37.9612L35.2554 38.2328V38.3007C35.2554 38.3007 35.2554 38.3007 35.1873 38.3007H35.0513C34.9832 38.3007 34.8472 38.3007 34.7791 38.3007C34.7791 38.3007 34.7111 38.3007 34.6431 38.3007C34.6431 38.3007 34.6431 38.3007 34.575 38.3007C34.507 38.3007 34.575 38.3007 34.507 38.3007H34.0308C34.0308 38.3007 33.9627 38.3007 33.8947 38.3007H33.6906H33.5545C33.5545 38.3007 33.4865 38.3007 33.4185 38.3007C33.4185 38.3007 33.2824 38.3007 33.2144 38.3007H33.0103C33.0103 38.3007 33.0103 38.3007 32.9422 38.3007C32.8742 38.3007 32.9422 38.3007 32.8742 38.3007C32.1939 38.1649 31.5135 38.0291 30.9012 37.8253H30.8332C30.8332 37.8253 30.8332 37.8253 30.7652 37.8253H30.5611C30.5611 37.7574 30.425 37.7574 30.357 37.6895C30.357 37.6895 30.357 37.6895 30.2889 37.6895H30.2209L29.8807 37.5537C29.8807 37.5537 29.8807 37.5537 29.8127 37.5537C29.7447 37.5537 29.8127 37.5537 29.7447 37.5537H29.6086C29.6086 37.5537 29.4725 37.5537 29.4045 37.4858C29.4045 37.4858 29.4045 37.4858 29.3365 37.4858H29.2684C29.2684 37.4179 29.1324 37.4179 29.0643 37.35H28.8602C28.8602 37.282 28.6561 37.1462 28.6561 37.1462C28.5881 37.1462 28.5201 37.1462 28.452 37.0104C28.452 37.0104 28.384 37.0104 28.316 37.0104C28.316 37.0104 28.2479 37.0104 28.1799 37.0104C28.1119 37.0104 28.0438 36.9425 27.9078 36.8746H27.8397C27.8397 36.8746 27.7717 36.8067 27.7037 36.7387L27.4315 36.6029C27.4315 36.6029 27.4315 36.6029 27.4315 36.535C27.4315 36.535 27.3635 36.535 27.2955 36.535C27.2274 36.535 27.0914 36.3992 27.0233 36.3992C27.0233 36.3992 26.9553 36.3992 26.8872 36.3313C26.8192 36.2634 26.8192 36.3313 26.7512 36.2634C26.7512 36.2634 26.6151 36.1954 26.5471 36.1275C26.5471 36.1275 26.5471 36.1275 26.479 36.1275C26.411 36.1275 26.4791 36.1275 26.411 36.1275C26.343 36.1275 26.2069 35.9917 26.1389 35.9917C26.1389 35.9917 26.0709 35.9917 26.0028 35.9238C25.9348 35.8559 25.9348 35.9238 25.8667 35.8559C25.7307 35.7201 25.5266 35.6521 25.3905 35.5163C25.3225 35.4484 25.1864 35.3805 25.0503 35.3126L24.7782 35.0409H24.7102L24.6421 34.9051L24.5061 34.7693L24.37 34.6335L24.2339 34.4976L23.8938 34.1581C23.8938 34.1581 23.8938 34.1581 23.8257 34.0902C23.8257 34.0902 23.6897 33.9543 23.6216 33.9543C23.4856 33.8185 23.4175 33.7506 23.2815 33.6148L23.1454 33.479C23.1454 33.479 23.0774 33.3431 23.0093 33.3431C22.9413 33.2752 22.8733 33.2073 22.8052 33.0715C22.8052 33.0715 22.7372 33.0036 22.6692 32.9357L22.5331 32.7998C22.5331 32.7998 22.4651 32.7319 22.397 32.664C22.397 32.5961 22.397 32.5282 22.397 32.5282C22.329 32.4603 22.261 32.3244 22.1249 32.2565C22.1249 32.2565 22.1249 32.1886 22.0569 32.1207C22.0569 32.0528 21.9208 31.9849 21.8528 31.917V31.7811C21.7167 31.7811 21.7167 31.7132 21.6487 31.6453C21.6487 31.5774 21.5126 31.5095 21.4446 31.3737C21.4446 31.3737 21.4446 31.3737 21.4446 31.3058C21.4446 31.3058 21.5126 31.3058 21.5806 31.3058H21.7847C21.9208 31.3058 21.9888 31.3058 22.1249 31.3058C22.261 31.3058 22.329 31.3058 22.4651 31.3058C22.6011 31.3058 22.6692 31.3058 22.8052 31.3058C22.8733 31.3058 22.9413 31.3058 23.0093 31.3058C23.0093 31.3058 23.1454 31.3058 23.2134 31.3058C23.2134 31.3058 23.2134 31.3058 23.2815 31.3058C23.3495 31.3058 23.2815 31.3058 23.3495 31.3058C23.4856 31.3058 23.5536 31.3058 23.6897 31.2378C24.0979 31.1699 24.5061 31.102 24.9143 30.9662H25.0503C25.0503 30.9662 25.1184 30.9662 25.1864 30.8983C25.2544 30.8983 25.3905 30.8983 25.5266 30.8304C25.5266 30.8304 25.5266 30.8304 25.5946 30.8304C25.5946 30.8304 25.5946 30.8304 25.6626 30.8304H25.7987C25.9348 30.7625 26.0028 30.6945 26.0709 30.6945C26.6832 30.4908 27.3635 30.2192 27.9758 29.9475C28.1119 29.9475 28.1799 29.8796 28.2479 29.8117H28.384C28.384 29.7438 28.452 29.6759 28.5201 29.6759C28.6561 29.6759 28.7242 29.54 28.8602 29.54C28.8602 29.54 28.8602 29.54 28.9283 29.54C28.9963 29.54 28.9283 29.54 28.9963 29.54L29.2004 29.4042C29.2004 29.4042 29.3365 29.4042 29.4045 29.2684C29.4725 29.1326 29.5406 29.2005 29.6086 29.1326C29.6766 29.0647 29.7447 29.0646 29.8127 28.9967C29.8807 28.9288 29.9488 28.9288 30.0168 28.8609L30.2889 28.6572H30.425C30.425 28.5213 30.493 28.5214 30.5611 28.4534L30.8332 28.2497C30.8332 28.2497 30.9012 28.2497 30.9693 28.1818C31.0373 28.1139 31.0373 28.1818 31.1053 28.1139C31.1734 28.1139 31.3094 27.9781 31.3775 27.9101C31.5135 27.8422 31.5816 27.7064 31.7176 27.6385C31.7176 27.6385 31.8537 27.5706 31.9217 27.5027V27.4348H31.9898C31.9898 27.2989 32.1258 27.2989 32.1939 27.231C32.3299 27.0952 32.466 27.0273 32.6021 26.8915C32.6701 26.8915 32.8062 26.7556 32.8742 26.6877C33.0103 26.6198 33.0783 26.484 33.1463 26.4161C33.1463 26.4161 33.1463 26.4161 33.2144 26.4161C33.2824 26.4161 33.2144 26.4161 33.2824 26.4161C33.2824 26.4161 33.3504 26.3482 33.4185 26.2802C33.4865 26.2123 33.4865 26.2123 33.5545 26.1444C33.6226 26.0765 33.6226 26.0765 33.6906 26.0086C33.7586 25.9407 33.8267 25.8728 33.9627 25.7369C33.9627 25.7369 33.9627 25.7369 34.0308 25.669C34.0308 25.669 34.0308 25.6011 34.1668 25.5332C34.1668 25.5332 34.3029 25.3974 34.3709 25.3295C34.3709 25.3295 34.3709 25.3295 34.439 25.2616C34.507 25.1936 34.439 25.2616 34.507 25.1936C34.575 25.0578 34.7111 24.9899 34.7111 24.922L34.8472 24.7862L34.9832 24.6503C35.0513 24.5145 35.1873 24.4466 35.2554 24.3787C35.2554 24.3787 35.2554 24.3108 35.3234 24.3108L35.5955 23.9712C35.5955 23.9712 35.6636 23.9033 35.7316 23.8354C35.7996 23.7675 35.7996 23.7675 35.8677 23.6996L36.0037 23.5637C36.0037 23.5637 36.0718 23.4279 36.1398 23.4279L36.4119 23.0884C36.4119 23.0884 36.4119 23.0884 36.4119 22.9525C36.4119 22.8167 36.48 22.8167 36.548 22.8167C36.548 22.7488 36.6161 22.6809 36.6841 22.613C36.6841 22.7488 36.8201 22.8846 36.8882 23.0205C36.8882 23.0205 36.8882 23.0884 36.8882 23.1563C36.8882 23.2242 36.9562 23.36 37.0243 23.4279C37.0243 23.4958 37.0923 23.5637 37.0923 23.6317C37.0923 23.6317 37.0923 23.7675 37.1603 23.8354C37.1603 23.9712 37.2284 24.107 37.2964 24.175C37.9767 26.0086 38.3849 27.9781 38.521 29.9475M20.9003 30.2871C20.7642 30.2871 20.6282 30.2871 20.4241 30.2871C20.4241 30.2871 20.4241 30.2871 20.356 30.2871C20.288 30.2871 20.288 30.2871 20.22 30.2871C20.1519 30.2871 20.0159 30.2871 20.0159 30.2871H19.7437C19.6757 30.1512 19.6077 30.0154 19.5396 29.8796C19.5396 29.8796 19.5396 29.7438 19.4716 29.7438C19.4716 29.6759 19.4036 29.54 19.3355 29.4721C19.3355 29.4721 19.2675 29.3363 19.1995 29.2684C19.1995 29.2684 19.1995 29.2684 19.1995 29.2005C19.1995 29.1326 19.1995 29.2005 19.1995 29.0646C19.1995 28.9288 19.0634 28.793 19.0634 28.7251C18.315 26.8235 17.7708 24.8541 17.6347 22.8167C17.6347 22.9525 17.6347 23.0205 17.6347 23.0884C17.6347 23.1563 17.6347 23.2242 17.6347 23.4279C17.6347 23.4279 17.6347 23.5637 17.6347 23.6317C17.6347 23.4279 17.6347 23.4279 17.6347 23.4958C17.6347 23.6317 17.6347 23.7675 17.6347 23.9033C17.6347 23.9712 17.6347 24.0391 17.6347 24.0391C17.6347 24.0391 17.6347 24.175 17.6347 24.2429C17.6347 24.3108 17.6347 24.3787 17.6347 24.4466C17.6347 24.4466 17.6347 24.4466 17.6347 24.5145C17.6347 24.5824 17.6347 24.5145 17.6347 24.5824C17.6347 24.7183 17.6347 24.8541 17.6347 24.922C17.6347 24.922 17.6347 24.9899 17.6347 25.0578C17.6347 25.1936 17.6347 25.3295 17.7027 25.3974C17.7027 25.3974 17.7027 25.5332 17.7027 25.6011C17.7027 25.669 17.7027 25.7369 17.7027 25.8049C17.7027 25.9407 17.7708 26.0765 17.7708 26.2123C17.7708 26.3482 17.8388 26.484 17.9068 26.6198C17.9068 26.5519 17.9068 26.484 17.9068 26.4161C17.9068 26.4161 17.9068 26.3482 17.9068 26.2802C17.9068 26.2123 17.9068 26.2123 17.9068 26.1444C17.9068 26.0086 17.8388 25.8728 17.7708 25.669C17.7708 25.669 17.7708 25.6011 17.7708 25.5332C17.7708 25.4653 17.7708 25.4653 17.7708 25.3974C17.7708 25.3295 17.7708 25.2616 17.7708 25.1936C17.7708 25.1257 17.7708 25.0578 17.7708 24.922C17.7708 24.7862 17.7708 24.7862 17.7708 24.6503C17.7708 24.6503 17.7708 24.6503 17.7708 24.5824C17.7708 24.5145 17.7708 24.4466 17.7708 24.3787C17.7708 24.3108 17.7708 24.2429 17.7708 24.175C17.7708 24.0391 17.7708 23.9033 17.7027 23.7675C17.7027 23.6317 17.7027 23.5637 17.7027 23.4958C17.7027 23.4279 17.7027 23.2921 17.7027 23.2242C17.7027 23.2242 17.7027 23.1563 17.7027 23.0884C17.7027 23.0884 17.7027 23.0204 17.7027 22.9525C17.7027 22.8846 17.7027 22.8167 17.7027 22.6809C17.7027 22.5451 17.7027 22.5451 17.7027 22.4772V21.798C17.7027 21.7301 17.7027 21.6622 17.7027 21.5264C17.7027 21.5264 17.7027 21.5264 17.7027 21.4585C17.7027 21.4585 17.7027 21.5264 17.7027 21.5943C17.7027 21.7301 17.7027 21.798 17.7027 21.9339C17.7027 22.0697 17.7027 22.2055 17.7027 22.4092C17.7027 22.4092 17.7027 22.4771 17.7027 22.5451C17.7027 22.613 17.7027 22.613 17.7027 22.6809C17.7027 22.7488 17.7027 22.8846 17.7027 22.9525C17.7027 22.9525 17.7027 23.0205 17.7027 23.0884C17.7027 23.2242 17.7027 23.36 17.7027 23.4279C17.7027 23.4279 17.7027 23.4958 17.7027 23.5637C17.7027 23.6317 17.7027 23.7675 17.7027 23.8354C17.7027 23.7675 17.7027 23.6996 17.7027 23.5637C17.7027 23.4279 17.7027 23.4279 17.7027 23.2921C17.7027 23.1563 17.7027 23.1563 17.7027 23.0205C17.7027 23.0205 17.7027 22.9525 17.7027 22.8846V22.7488C17.7027 22.7488 17.7027 22.7488 17.7708 22.7488C17.7708 22.8167 17.7708 22.9525 17.8388 23.0205C17.8388 23.1563 17.8388 23.2921 17.8388 23.4279C17.8388 23.4958 17.8388 23.5637 17.8388 23.6317C17.8388 23.6996 17.8388 23.7675 17.8388 23.8354C17.8388 23.9033 17.8388 23.9712 17.8388 24.0391C17.8388 24.1071 17.8388 24.175 17.8388 24.2429C17.8388 24.3787 17.8388 24.4466 17.8388 24.5145C17.9749 25.1936 18.179 25.8049 18.3831 26.484C18.3831 26.5519 18.3831 26.6198 18.4511 26.7556V26.8915C18.4511 26.8915 18.5191 26.9594 18.5191 27.0273C18.5191 27.1631 18.6552 27.3668 18.7232 27.5027C18.7913 27.6385 18.8593 27.8422 18.9273 27.9781C18.9273 28.046 18.9954 28.1139 19.0634 28.1818C19.1314 28.2497 19.1314 28.3176 19.1995 28.3855C19.1995 28.3176 19.1314 28.1818 19.0634 28.1139C19.0634 28.1139 19.0634 28.046 19.0634 27.9781C19.0634 27.9101 19.0634 27.9101 19.0634 27.8422C19.0634 27.7743 18.9954 27.7064 18.9273 27.5706C18.8593 27.4348 18.8593 27.4348 18.7913 27.2989C18.7232 27.1631 18.7232 27.1631 18.7232 27.0273C18.7232 27.0273 18.7232 26.9594 18.7232 26.8915C18.7232 26.7556 18.5872 26.5519 18.5872 26.4161C18.5872 26.2802 18.5191 26.0765 18.4511 25.9407C18.3831 25.8049 18.3831 25.6011 18.315 25.3974C18.315 25.3974 18.315 25.3295 18.315 25.2616C18.315 25.1936 18.315 25.1936 18.315 25.1257C18.315 25.0578 18.315 24.9899 18.315 24.8541C18.315 24.8541 18.315 24.7862 18.315 24.7183C18.315 24.5824 18.315 24.5145 18.315 24.4466C18.315 24.3108 18.315 24.175 18.247 23.9712C18.247 23.9033 18.247 23.7675 18.247 23.6996C18.247 23.6996 18.247 23.6317 18.247 23.5637C18.247 23.4958 18.247 23.4958 18.247 23.4279C18.315 23.5638 18.3831 23.7675 18.4511 23.9033C18.4511 23.7675 18.4511 23.6317 18.4511 23.4958C18.4511 23.4958 18.4511 23.36 18.4511 23.2921C18.4511 23.2242 18.4511 23.1563 18.4511 23.1563C18.4511 23.1563 18.4511 23.0884 18.4511 23.0205C18.4511 23.0205 18.4511 23.0204 18.4511 22.9525C18.4511 22.8846 18.4511 22.9525 18.4511 22.8846C18.4511 22.8167 18.4511 22.6809 18.4511 22.613V22.4772C18.4511 22.4772 18.4511 22.4772 18.4511 22.4092C18.4511 22.3413 18.4511 22.4092 18.4511 22.2734C18.4511 22.2055 18.4511 22.1376 18.4511 22.0018C18.4511 21.7301 18.4511 21.4585 18.4511 21.2547C18.4511 21.2547 18.4511 21.2547 18.4511 21.1868V20.7114V20.3719C18.4511 20.3719 18.4511 20.3719 18.4511 20.304C18.4511 20.304 18.4511 20.304 18.4511 20.236C18.4511 20.1681 18.4511 20.1002 18.4511 20.1002V19.9644C18.4511 19.8286 18.4511 19.7607 18.4511 19.6248C18.4511 19.489 18.4511 19.3532 18.4511 19.2174V19.0136V18.9457V18.8778C18.4511 18.6061 18.4511 18.3345 18.5191 18.1308C18.5191 18.0628 18.5191 18.1308 18.5191 18.0628C18.6552 17.3158 18.7913 16.5688 18.9954 15.8897C18.9954 15.8897 18.9954 15.8897 18.9954 15.8217C18.9954 15.7538 18.9954 15.7538 18.9954 15.618C18.9954 15.618 18.9954 15.5501 18.9954 15.4822C19.2675 14.5993 19.5396 13.7844 19.8798 12.9694V12.8336C19.9478 12.8336 20.0159 12.7657 20.0159 12.6978C20.0159 12.6299 20.0839 12.494 20.1519 12.4261C20.1519 12.4261 20.1519 12.3582 20.22 12.2903V12.2224H20.5601H20.8323C20.8323 12.2224 20.9003 12.2224 20.9683 12.2224H21.1044H21.3085H21.5126C21.5806 12.2224 21.6487 12.2224 21.7167 12.2224H21.9208C21.9208 12.2224 21.9888 12.2224 22.0569 12.2224C22.1929 12.2224 22.329 12.2224 22.4651 12.2903C22.8052 12.2903 23.2134 12.4261 23.5536 12.494H23.6897C23.6897 12.494 23.7577 12.494 23.8257 12.494H24.0979C24.0979 12.5619 24.37 12.6299 24.37 12.6299C24.438 12.6299 24.5061 12.6299 24.6421 12.6978C25.1184 12.8336 25.6626 13.0373 26.0709 13.1732C26.0709 13.1732 26.2069 13.1732 26.2749 13.2411C26.2749 13.2411 26.411 13.2411 26.479 13.309C26.479 13.309 26.479 13.309 26.5471 13.309C26.6831 13.3769 26.8873 13.4448 27.0233 13.5127C27.1594 13.5806 27.3635 13.6485 27.4996 13.7165C27.4996 13.7165 27.5676 13.7165 27.6356 13.7844C27.7037 13.8523 27.7037 13.7844 27.7717 13.8523C27.8397 13.8523 27.9758 13.9202 28.0438 13.9881L28.1799 14.1239L28.452 14.2598V14.3277H28.5881C28.6561 14.4635 28.7922 14.5314 28.8602 14.5993C28.9963 14.6672 29.1324 14.7351 29.2004 14.871H29.3365C29.3365 14.9389 29.4725 15.0747 29.4725 15.0747C29.5406 15.0747 29.6766 15.2105 29.7447 15.2784C29.7447 15.2784 29.8127 15.2784 29.8807 15.3464C29.9488 15.3464 30.0168 15.4822 30.1529 15.5501C30.5611 15.8897 30.9693 16.2292 31.3775 16.5688C31.7857 16.9763 32.3299 17.4516 32.7381 17.927C32.7381 17.927 32.8062 17.9949 32.8742 18.0628C32.9422 18.1308 32.9422 18.1308 33.0103 18.1987C33.0783 18.2666 33.1463 18.4024 33.2144 18.4703C33.2144 18.4703 33.2144 18.4703 33.2144 18.5382C33.2144 18.6741 33.2824 18.6741 33.3504 18.742C33.4185 18.8099 33.4865 18.9457 33.6226 19.0136C33.6226 19.0136 33.6226 19.0815 33.6906 19.1494C33.6906 19.2174 33.8267 19.2853 33.8947 19.4211C33.9627 19.5569 34.0308 19.5569 34.0988 19.6927L34.3029 19.9644C34.3029 20.0323 34.439 20.1002 34.439 20.236C34.439 20.3719 34.575 20.3719 34.575 20.5077C34.575 20.6435 34.7111 20.6435 34.7111 20.7793C34.7111 20.7793 34.7111 20.7793 34.7111 20.8473C34.7111 20.8473 34.7111 20.9152 34.6431 20.9831C34.6431 20.9831 34.6431 21.051 34.575 21.1189C34.575 21.2547 34.439 21.3226 34.3709 21.3906C34.3029 21.4585 34.2349 21.5943 34.1668 21.6622C34.1668 21.6622 34.0988 21.798 34.0308 21.8659C33.9627 21.9339 33.8947 22.0697 33.8267 22.1376C33.8267 22.1376 33.7586 22.2055 33.6906 22.2734C33.6906 22.2734 33.6906 22.2734 33.6906 22.3413C33.6906 22.4092 33.6906 22.3413 33.6906 22.4092C33.6906 22.4772 33.5545 22.5451 33.4865 22.613C33.4185 22.6809 33.3504 22.7488 33.2824 22.8167C33.2144 22.8846 33.1463 22.9525 33.0783 23.0884L32.9422 23.2242C32.9422 23.2242 32.8742 23.2921 32.8062 23.36C32.6021 23.6317 32.1939 23.9712 31.9217 24.2429C31.9217 24.2429 31.7857 24.3787 31.7176 24.4466H31.6496C31.6496 24.5824 31.6496 24.5824 31.5816 24.5824C31.4455 24.7183 31.3094 24.7862 31.1734 24.922C31.0373 25.0578 30.9012 25.1257 30.7652 25.2616C30.7652 25.2616 30.6291 25.3974 30.5611 25.3974C30.493 25.3974 30.425 25.5332 30.357 25.5332L30.2209 25.669C30.2209 25.669 30.1529 25.669 30.0848 25.7369C30.0168 25.7369 29.8807 25.8728 29.8127 25.9407H29.7447C29.7447 26.0086 29.7447 26.0086 29.6766 26.0765L29.5406 26.2123C29.4045 26.2802 29.3365 26.3482 29.2004 26.484C29.0643 26.6198 28.9283 26.6198 28.7922 26.7556C28.6561 26.8915 28.5201 26.8915 28.384 26.9594C28.384 26.9594 28.316 26.9594 28.2479 27.0273C28.1799 27.0952 28.1799 27.0273 28.1119 27.0952C28.0438 27.0952 27.9078 27.231 27.8397 27.2989C27.8397 27.2989 27.7717 27.2989 27.7037 27.3668H27.5676C27.4996 27.5027 27.3635 27.5027 27.2955 27.5706C27.2955 27.5706 27.2274 27.5706 27.1594 27.5706C27.0914 27.5706 27.0233 27.5706 27.0233 27.6385C27.0233 27.7064 26.8873 27.6385 26.8192 27.7743C26.8192 27.7743 26.8192 27.7743 26.6832 27.7743H26.5471C26.479 27.8422 26.411 27.9101 26.343 27.9101C26.275 27.9101 26.2069 27.9101 26.1389 27.9781C26.0708 28.046 26.0028 27.9781 25.9348 28.046C25.8667 28.046 25.7987 28.046 25.6626 28.1139C25.6626 28.1139 25.5946 28.1139 25.5266 28.1139C25.3905 28.1139 25.3225 28.1818 25.1864 28.2497C25.0503 28.2497 24.9143 28.3176 24.7782 28.3855H24.5741L24.37 28.5214C24.2339 28.5214 24.1659 28.5893 24.0298 28.6572C23.8938 28.7251 23.8257 28.6572 23.6897 28.7251C23.4856 28.7251 23.4175 28.7251 23.3495 28.793C23.1454 28.793 23.0093 28.8609 22.8733 28.9288C22.7372 28.9967 22.6011 28.9288 22.5331 28.9967H22.329C22.329 28.9967 22.329 28.9967 22.1929 28.9967C22.0569 28.9967 22.1929 28.9967 22.0569 28.9967H21.6487C21.6487 29.0646 21.5126 29.0646 21.5126 29.0646C21.3765 29.0646 21.2405 29.0646 21.1044 29.0646H21.0364C21.0364 29.0646 21.0364 29.0646 20.9683 29.0646H20.7642C20.7642 29.0646 20.6282 29.0646 20.5601 29.0646H20.4921M17.2945 29.0646H17.1585C17.0904 29.0646 16.9544 29.0646 16.8863 29.0646C16.7503 29.0646 16.6142 29.0646 16.4781 29.0646C16.3421 29.0646 16.206 29.0646 16.138 29.0646C14.165 28.7251 12.3281 28.1139 10.5592 27.231C10.6953 27.231 10.7633 27.2989 10.8313 27.3668C10.8313 27.3668 10.8994 27.3668 10.9674 27.3668C10.9674 27.3668 10.9674 27.3668 11.0354 27.3668C11.1035 27.3668 11.0354 27.3668 11.1035 27.3668H11.2395C11.0354 27.2989 11.1035 27.231 11.1715 27.2989C11.3756 27.4348 11.6477 27.5027 11.9199 27.6385C11.9199 27.6385 12.0559 27.6385 12.124 27.7064H12.192L12.26 27.7743C12.3961 27.7743 12.4641 27.8422 12.6002 27.9101H12.7363C12.8723 27.9101 12.9404 27.9781 13.0764 28.046H13.2805C13.2805 28.1139 13.4166 28.1139 13.4846 28.1818C13.6207 28.1818 13.7568 28.2497 13.8248 28.3176H13.8928H13.9609C13.9609 28.3176 14.0969 28.3176 14.165 28.3176C14.0969 28.3176 14.0289 28.3176 13.9609 28.3176H13.8248C13.8248 28.3176 13.7568 28.3176 13.6887 28.3176C13.5527 28.3176 13.4166 28.2497 13.2805 28.1818C13.0084 28.1139 12.6682 27.9781 12.3961 27.9101H12.26C12.26 27.9101 12.192 27.9101 12.124 27.8422C12.0559 27.8422 11.9879 27.8422 11.9199 27.7743H11.7158C11.7158 27.7064 11.7158 27.6385 11.6477 27.6385C11.5797 27.6385 11.6477 27.6385 11.5797 27.6385C11.5117 27.6385 11.4436 27.5027 11.3756 27.4348C11.3756 27.4348 11.3076 27.4348 11.2395 27.4348C11.1715 27.4348 11.1715 27.4348 11.1035 27.4348C11.0354 27.4348 10.9674 27.3668 10.8994 27.2989C10.8313 27.231 10.7633 27.231 10.6953 27.1631C10.6953 27.1631 10.6953 27.1631 10.6272 27.1631L10.219 26.9594C10.083 26.8915 9.9469 26.8235 9.81083 26.6877C9.81083 26.6877 9.87887 26.6877 9.9469 26.6877C10.0149 26.6877 10.151 26.7556 10.219 26.8235H10.2871C10.2871 26.8235 10.3551 26.8915 10.4231 26.8915C10.4912 26.8915 10.5592 26.8915 10.6272 27.0273C10.6953 27.1631 10.7633 27.0952 10.8313 27.1631C10.8994 27.231 10.9674 27.231 11.0354 27.2989C11.1035 27.3668 11.1715 27.3668 11.3076 27.4348C11.4436 27.5027 11.4436 27.5027 11.5797 27.5706L11.8518 27.7064C11.8518 27.7064 11.9199 27.7064 11.9879 27.7064C12.0559 27.7064 12.0559 27.7064 12.124 27.7064C12.192 27.7064 12.124 27.7064 12.124 27.6385C11.9879 27.6385 11.8518 27.5027 11.6477 27.4348C11.5797 27.4348 11.5117 27.4348 11.4436 27.3668C11.3756 27.2989 11.3076 27.2989 11.2395 27.231C11.1715 27.0952 11.2395 27.1631 11.5117 27.231C11.7158 27.2989 11.9879 27.4348 12.26 27.5706C12.5322 27.7064 12.8043 27.7743 12.9404 27.8422C13.5527 28.046 14.165 28.2497 14.8453 28.3855H15.1174L15.2535 28.4534C15.2535 28.4534 15.3216 28.4534 15.3896 28.4534C15.5257 28.4534 15.7298 28.4534 15.8658 28.5214C15.8658 28.5214 15.9339 28.5214 16.0019 28.5214C16.0699 28.5214 16.0699 28.5214 16.138 28.5214H16.4101C16.4101 28.5214 16.4781 28.5214 16.5462 28.5214H16.6822C16.7503 28.5214 16.8183 28.5214 16.9544 28.5214C16.6142 28.5214 16.206 28.3855 15.8658 28.3855C15.7978 28.3855 15.6617 28.3855 15.5937 28.3855H15.4576C15.3215 28.3855 15.1174 28.3176 14.9814 28.2497C14.9814 28.2497 14.9814 28.2497 14.9133 28.2497L14.4371 28.1139C14.301 28.1139 14.0969 28.046 13.9609 27.9781C13.9609 27.9781 13.8928 27.9781 13.8248 27.9781H13.6887L13.4846 27.8422C13.4846 27.8422 13.4166 27.8422 13.3486 27.8422C13.2805 27.8422 13.2805 27.8422 13.2125 27.8422H13.0084C13.0084 27.7064 12.8723 27.7064 12.8043 27.7064C12.7363 27.7064 12.6682 27.7064 12.5322 27.6385C12.3961 27.5706 12.3961 27.6385 12.26 27.5706C12.26 27.5706 12.192 27.5706 12.124 27.5706C12.0559 27.5706 12.124 27.5706 12.0559 27.5706C12.0559 27.5706 12.192 27.5706 12.26 27.5706C12.3961 27.5706 12.4641 27.5706 12.6002 27.6385C12.4641 27.6385 12.3961 27.5706 12.26 27.5027C12.124 27.4348 12.0559 27.3668 11.9199 27.3668C11.7838 27.3668 11.4436 27.1631 11.3756 27.1631H11.2395C11.2395 27.1631 11.1035 27.1631 11.0354 27.0952C10.9674 27.0952 10.8994 27.0273 10.8313 26.9594H10.7633C10.7633 26.9594 10.7633 26.8915 10.6953 26.8915C10.6953 26.8915 10.5592 26.8915 10.5592 26.8235H10.4231C10.4231 26.7556 10.3551 26.6877 10.3551 26.6877C10.3551 26.6877 10.3551 26.6877 10.2871 26.6877C10.151 26.6877 10.083 26.5519 9.9469 26.484H9.87887C9.87887 26.484 9.87887 26.4161 9.81083 26.4161C9.81083 26.4161 9.67476 26.4161 9.67476 26.2802C9.67476 26.1444 9.5387 26.2123 9.5387 26.2123C9.5387 26.2123 9.5387 26.2123 9.47066 26.2123C9.40263 26.2123 9.3346 26.0765 9.19853 26.0086C9.06246 25.9407 8.99443 25.8728 8.9264 25.8049L8.58623 25.6011C8.58623 25.6011 8.58623 25.6011 8.51819 25.6011C8.45016 25.6011 8.5182 25.6011 8.45016 25.6011C8.45016 25.6011 8.31409 25.5332 8.31409 25.4653L8.17803 25.3295H8.10999V25.2616C8.04196 25.1257 7.90589 25.0578 7.83786 25.0578C7.76982 25.0578 7.83786 25.0578 7.83786 24.9899C7.29359 24.5145 6.74932 24.0391 6.27309 23.4958C6.27309 23.4958 6.27309 23.4958 6.27309 23.4279C6.27309 23.36 6.27309 23.4279 6.13702 23.2921C6.13702 23.2921 6.13702 23.2242 6.06899 23.1563C5.45669 22.5451 4.91242 21.8659 4.43618 21.1189C4.43618 21.051 4.30011 20.9831 4.23208 20.8473C4.16405 20.7114 4.09601 20.7114 4.09601 20.5756C4.09601 20.5756 4.09601 20.5756 4.09601 20.5077C4.09601 20.4398 4.09601 20.3719 4.09601 20.3719C4.09601 20.236 4.23208 20.1681 4.23208 20.0323C4.23208 19.8965 4.36815 19.8965 4.36815 19.7607C4.43618 19.6248 4.57225 19.489 4.64028 19.3532C4.70832 19.2174 4.84438 19.0815 4.91242 19.0136C4.98045 18.9457 5.11652 18.8099 5.18455 18.6741C5.25259 18.5382 5.38865 18.4703 5.45668 18.3345C5.45668 18.2666 5.59275 18.1987 5.66079 18.1308C5.66079 18.1308 5.66079 18.0629 5.72882 17.9949C5.79685 17.927 5.72882 17.927 5.79685 17.927C5.79685 17.8591 5.93292 17.7912 6.00096 17.7233C6.00096 17.7233 6.00095 17.7233 6.06899 17.6554C6.13702 17.5875 6.06899 17.6554 6.13702 17.5875C6.27309 17.4516 6.34112 17.3158 6.47719 17.2479C6.61325 17.1121 6.74932 16.9763 6.81736 16.9083C6.81736 16.9083 6.81736 16.9083 6.88539 16.8404C6.95342 16.7725 6.88539 16.8404 6.95342 16.8404C6.95342 16.8404 7.02146 16.7725 7.08949 16.7046C7.15752 16.6367 7.29359 16.5009 7.36163 16.433C7.42966 16.365 7.56572 16.2971 7.63376 16.1613C7.63376 16.1613 7.63376 16.1613 7.70179 16.1613H7.76983C7.76983 16.0934 7.83786 16.0255 7.90589 16.0255C7.90589 16.0255 8.04196 15.8897 8.10999 15.8897C8.10999 15.8897 8.17803 15.8217 8.24606 15.7538C8.3141 15.6859 8.38213 15.6859 8.38213 15.618C8.45016 15.618 8.5182 15.4822 8.58623 15.4822L8.79033 15.3464C8.85836 15.3464 8.9264 15.2105 8.99443 15.2105C8.99443 15.2105 9.06246 15.2105 9.1305 15.1426C9.19853 15.0747 9.19853 15.1426 9.26656 15.0747C9.3346 15.0747 9.40263 14.9389 9.5387 14.9389V14.871C9.5387 14.871 9.60673 14.871 9.67476 14.8031L9.9469 14.6672V14.5993H10.083C10.151 14.4635 10.2871 14.3956 10.3551 14.3956C10.4231 14.3956 10.4231 14.3956 10.4912 14.3277H10.6272C10.6272 14.1918 10.7633 14.1918 10.8313 14.1239C10.8313 14.1239 10.8313 14.1239 10.8994 14.1239C10.9674 14.1239 10.8994 14.1239 10.9674 14.1239C11.0354 14.1239 11.1715 14.056 11.2395 13.9881C11.2395 13.9881 11.3076 13.9881 11.3756 13.9202C11.4436 13.8523 11.4436 13.9202 11.5117 13.8523C11.7158 13.7844 11.8518 13.6485 12.0559 13.5806C12.192 13.5806 12.3281 13.4448 12.3961 13.4448C12.4641 13.4448 12.6682 13.3769 12.7363 13.309H12.8043C12.8043 13.309 12.8043 13.309 12.8723 13.2411H13.0764C13.0764 13.1732 13.2125 13.1052 13.2805 13.1052C13.3486 13.1052 13.4166 13.1052 13.4846 13.0373C13.6207 13.0373 13.7568 12.9694 13.8928 12.9015H14.0289C14.0969 12.9015 14.165 12.8336 14.233 12.8336C14.3691 12.8336 14.5732 12.7657 14.7092 12.6978C14.7773 12.6978 14.8453 12.6978 14.9133 12.6978C14.9814 12.6978 15.0494 12.6978 15.1174 12.6978C15.2535 12.6978 15.3215 12.6978 15.4576 12.6299C15.4576 12.6299 15.5937 12.6299 15.6617 12.6299H15.8658L16.0699 12.562H16.138C16.138 12.562 16.138 12.562 16.206 12.562H16.5462C16.5462 12.562 16.5462 12.494 16.6142 12.494C16.6822 12.494 16.6142 12.494 16.6822 12.494C16.7503 12.494 16.8863 12.494 16.9544 12.494H17.0904C17.0904 12.494 17.1585 12.494 17.2265 12.494H17.4986H17.5667C17.5667 12.494 17.5667 12.494 17.6347 12.494C17.6347 12.494 17.6347 12.562 17.6347 12.6299C17.6347 12.6299 17.6347 12.7657 17.5667 12.7657C17.5667 12.8336 17.4986 12.9694 17.4306 13.0373C17.3626 13.1052 17.3626 13.2411 17.2945 13.3769C17.2265 13.5127 17.2265 13.5806 17.1585 13.7165C17.1585 13.7844 17.1585 13.8523 17.0904 13.9202V14.056C17.0904 14.056 17.0904 14.056 17.0904 14.1239C17.0904 14.1918 17.0904 14.1239 17.0904 14.1918C17.0904 14.3277 17.0224 14.3956 16.9544 14.5314C16.8183 14.871 16.6822 15.2784 16.6142 15.7538C16.6142 15.7538 16.6142 15.8217 16.6142 15.8897C16.6142 15.9576 16.6142 15.9576 16.6142 16.0255C16.6142 16.0934 16.6142 16.2292 16.5462 16.365C16.4781 16.5009 16.5462 16.5688 16.4781 16.7046C16.4101 16.8404 16.4781 16.9083 16.4101 17.0442C16.274 17.7233 16.138 18.4024 16.0699 19.0815C16.0699 19.2174 16.0699 19.2853 16.0699 19.4211V19.5569C16.0699 19.5569 16.0699 19.6927 16.0699 19.7607C16.0699 19.8965 16.0699 20.0323 16.0699 20.1681C16.0699 20.1681 16.0699 20.236 16.0699 20.304C16.0699 20.3719 16.0699 20.3719 16.0699 20.4398C16.0699 20.5077 16.0699 20.5756 16.0699 20.6435C16.0699 20.7114 16.0699 20.7793 16.0699 20.8473C16.0699 20.9152 16.0699 20.9831 16.0699 21.051C16.0699 21.1189 16.0699 21.1868 16.0699 21.2547V21.4585C16.0699 21.5943 16.0699 21.6622 16.0699 21.798V22.0018C16.0699 22.0018 16.0699 22.0018 16.0699 22.0697C16.0699 22.1376 16.0699 22.0697 16.0699 22.1376C16.0699 22.2734 16.0699 22.3413 16.0699 22.4772C16.0699 22.4772 16.0699 22.5451 16.0699 22.613V22.7488C16.0699 22.8846 16.0699 22.9525 16.0699 23.0884C16.0699 23.0884 16.0699 23.0884 16.0699 23.2242C16.0699 23.36 16.0699 23.4279 16.0699 23.4958C16.0699 23.5637 16.0699 23.6317 16.0699 23.7675C16.0699 23.8354 16.0699 23.9033 16.0699 24.0391C16.0699 24.175 16.0699 24.175 16.0699 24.2429C16.0699 24.2429 16.0699 24.3108 16.0699 24.3787C16.0699 24.4466 16.0699 24.4466 16.0699 24.5145C16.0699 24.5824 16.0699 24.7183 16.0699 24.7862C16.0699 24.7862 16.0699 24.922 16.0699 24.9899C16.0699 24.9899 16.0699 24.9899 16.0699 25.0578C16.0699 25.1257 16.0699 25.0578 16.0699 25.1257C16.0699 25.2616 16.0699 25.3974 16.138 25.5332C16.138 25.5332 16.138 25.5332 16.138 25.6011C16.138 25.7369 16.138 25.8049 16.138 25.8728C16.138 25.9407 16.138 26.0086 16.138 26.0765C16.138 26.0765 16.138 26.0765 16.138 26.1444V26.2123C16.138 26.3482 16.138 26.4161 16.206 26.5519C16.206 26.6198 16.206 26.6877 16.206 26.7556C16.206 26.8235 16.206 26.8235 16.206 26.8915C16.206 26.9594 16.206 27.0952 16.274 27.1631C16.3421 27.231 16.274 27.2989 16.3421 27.3668C16.3421 27.5027 16.4101 27.6385 16.4781 27.7064C16.4781 27.7064 16.4781 27.8422 16.4781 27.9101C16.4781 27.9781 16.4781 28.046 16.5462 28.1139C16.5462 28.2497 16.6142 28.3855 16.6822 28.4534V28.5893C16.6822 28.7251 16.7503 28.8609 16.8183 28.9967C16.8183 28.9967 16.8183 28.9967 16.8183 29.0646C16.8183 29.1326 16.8183 29.0647 16.8183 29.1326C16.8183 29.1326 16.8183 29.2684 16.8863 29.2684C16.9544 29.2684 16.8863 29.4042 16.9544 29.4721C17.0224 29.54 16.9544 29.6079 17.0224 29.6759C17.0224 29.8117 17.1585 29.9475 17.2265 30.0833C17.2265 30.0833 17.2265 30.0833 17.2265 30.1512C17.2265 30.2192 17.2265 30.1512 17.2265 30.2871C17.2265 30.4229 17.2945 30.4229 17.2945 30.4908C17.2945 30.5587 17.3626 30.6945 17.4306 30.7625C17.2945 30.7625 17.1585 30.7625 17.0224 30.7625M39.4735 10.3888V10.2529C39.4735 10.2529 39.4735 10.2529 39.4735 10.185C39.4735 10.0492 39.4735 9.98128 39.4735 9.84546V9.70963C39.4735 9.70963 39.4735 9.70963 39.4735 9.64172C39.4735 9.57381 39.4735 9.64172 39.4735 9.57381C39.4735 9.43798 39.4735 9.23425 39.4735 9.09842C39.4735 9.09842 39.4735 9.03051 39.4735 8.96259C39.4735 8.89468 39.4735 8.89468 39.4735 8.82677C39.4735 8.75886 39.4735 8.75886 39.4735 8.69095C39.4735 8.62303 39.4735 8.55512 39.4735 8.4193C39.4735 8.4193 39.4735 8.35138 39.4735 8.28347C39.4735 8.28347 39.4735 8.14765 39.4735 8.07974V7.94391C39.4735 7.876 39.4735 7.74017 39.4735 7.67226C39.0653 5.49907 38.3849 3.39378 37.2964 1.42433C37.2964 1.2885 37.2964 1.22059 37.1603 1.15268L36.9562 0.813114H36.3439C34.439 0.813114 32.6021 1.08476 30.8332 1.56015C30.8332 1.56015 30.8332 1.56015 30.9012 1.56015C30.9693 1.56015 31.0373 1.56015 31.1053 1.56015C31.1053 1.56015 31.1053 1.56015 31.1734 1.56015C31.3094 1.56015 31.3775 1.56015 31.4455 1.49224C31.4455 1.49224 31.5135 1.49224 31.5816 1.49224C31.6496 1.49224 31.6496 1.49224 31.7176 1.49224C31.8537 1.49224 31.9217 1.49224 32.1258 1.42433H31.9898C32.0578 1.42433 32.1258 1.42433 32.1939 1.42433C32.1939 1.42433 32.1939 1.42433 32.2619 1.42433H32.3299C32.3299 1.42433 32.3299 1.42433 32.2619 1.42433H32.1258C32.1258 1.42433 32.0578 1.42433 31.9898 1.42433C31.9898 1.42433 31.9898 1.42433 32.0578 1.42433C33.2144 1.15268 34.439 1.01685 35.5955 1.01685C35.7316 1.01685 35.7996 1.01685 35.9357 1.01685C35.9357 1.01685 36.0718 1.01685 36.1398 1.01685C36.2078 1.01685 36.2759 1.01685 36.3439 1.01685H36.548C36.548 1.01685 36.1398 1.01685 36.0718 1.01685C36.0037 1.01685 36.0037 1.01685 35.9357 1.01685C35.8677 1.01685 35.7316 1.01685 35.6636 1.01685H35.5275C35.5275 1.01685 35.4595 1.01685 35.3914 1.01685H35.1193H34.9832H34.8472C34.8472 1.01685 34.7791 1.01685 34.7111 1.01685H34.439H34.1668C34.1668 1.01685 34.0988 1.01685 34.0308 1.01685H33.8947C33.8267 1.01685 33.7586 1.01685 33.6226 1.01685H33.4865H33.3504C33.2144 1.01685 33.0783 1.01685 32.9422 1.08476H32.8062H32.6701H32.3299C32.1258 1.08476 31.9217 1.22059 31.7176 1.22059C31.6496 1.22059 31.5135 1.22059 31.4455 1.22059C31.3775 1.22059 31.2414 1.22059 31.1734 1.22059C30.9693 1.22059 30.8332 1.2885 30.6291 1.35641H30.357C30.357 1.42433 30.2209 1.42433 30.2209 1.42433C30.2209 1.42433 30.1529 1.42433 30.0848 1.42433C29.9488 1.42433 29.7447 1.49224 29.6086 1.56015C29.5406 1.56015 29.4725 1.56015 29.3365 1.62806H29.0643C29.0643 1.69597 28.9963 1.76389 28.9283 1.76389C28.8602 1.76389 28.8602 1.76389 28.7922 1.76389C28.7242 1.76389 28.5881 1.76389 28.5201 1.8318H28.2479C28.2479 1.96762 28.1799 1.96762 28.1119 1.96762C28.0438 1.96762 28.0438 1.96762 27.9758 1.96762H27.8397C27.9758 1.96762 28.0438 1.8318 28.1799 1.76389C28.1799 1.76389 28.1799 1.76389 28.2479 1.76389H28.452C28.452 1.69598 28.5881 1.62806 28.6561 1.62806H28.7242C29.4045 1.35641 30.1529 1.08476 30.9012 0.948939C31.0373 0.948939 31.1053 0.94894 31.2414 0.881028C31.3775 0.813115 31.4455 0.881026 31.5816 0.813114C31.7176 0.745201 31.7857 0.813115 31.9217 0.745203H32.2619L32.6021 0.609377H32.6701H32.8062C32.9422 0.609377 33.0103 0.609377 33.1463 0.609377C33.1463 0.609377 33.1463 0.609377 33.2144 0.609377H33.2824C33.2824 0.609377 33.3504 0.609377 33.4185 0.609377C33.6226 0.609377 33.4185 0.609377 33.2824 0.609377H33.1463C33.1463 0.609377 33.0783 0.609377 33.0103 0.609377C32.9422 0.609377 32.8062 0.609377 32.7381 0.609377H32.6021L32.3299 0.677291C32.2619 0.677291 32.1258 0.677291 32.0578 0.677291C31.9898 0.677291 31.8537 0.677291 31.7857 0.677291C31.5816 0.677291 31.3775 0.745201 31.1734 0.813114C31.0373 0.813114 31.0373 0.813115 31.1734 0.745203C31.2414 0.745203 31.3094 0.745204 31.4455 0.677291C31.5816 0.677291 31.7176 0.67729 31.8537 0.609377H32.0578C32.1258 0.609377 32.1939 0.541466 32.2619 0.541466C32.3299 0.541466 32.398 0.541466 32.466 0.541466H32.6021C32.6021 0.541466 32.6701 0.541466 32.7381 0.541466H33.2824C33.2824 0.473554 33.4185 0.473552 33.4185 0.473552C33.4185 0.473552 33.4865 0.473552 33.5545 0.473552H33.8267H34.0988H34.3709C34.507 0.473552 34.7111 0.473552 34.8472 0.473552H35.2554H35.3914H36.1398H36.548C36.548 0.473552 36.48 0.473552 36.4119 0.473552H36.0037C36.0037 0.473552 35.9357 0.473552 35.8677 0.473552C35.7996 0.473552 35.6636 0.473552 35.5955 0.473552H35.4595H35.3234C35.2554 0.473552 35.1193 0.473552 35.0513 0.473552H34.7791C34.7791 0.473552 34.7111 0.473552 34.6431 0.473552C34.575 0.473552 34.575 0.473552 34.507 0.473552C34.439 0.473552 34.3029 0.473552 34.1668 0.473552H34.0308H33.8947C33.7586 0.473552 33.6906 0.473552 33.5545 0.473552H33.4185H33.2824C33.0783 0.473552 32.8742 0.473552 32.7381 0.473552C33.1463 0.337727 33.5545 0.269817 33.9627 0.201904C33.8267 0.201904 33.6226 0.201904 33.4865 0.201904H33.3504C33.3504 0.201904 33.2824 0.201904 33.2144 0.201904C33.1463 0.201904 33.0783 0.201904 33.0103 0.201904H32.8062H32.6701C32.6701 0.201904 32.6701 0.201904 32.534 0.201904C32.398 0.201904 32.2619 0.201904 32.1258 0.201904C32.1258 0.201904 31.9898 0.201904 31.9217 0.201904C31.8537 0.201904 31.7857 0.201904 31.7176 0.201904C31.5816 0.201904 31.4455 0.201903 31.3094 0.269816C31.3094 0.269816 31.1734 0.269816 31.1053 0.269816C31.0373 0.269816 30.9693 0.269816 30.9012 0.269816C30.7652 0.269816 30.6971 0.269816 30.6291 0.269816H30.493L30.2209 0.405641C30.0848 0.405641 30.0848 0.40564 30.0168 0.473552C30.0168 0.473552 30.0168 0.473552 29.9488 0.473552C29.8807 0.473552 29.8807 0.473552 29.8127 0.473552C29.4725 0.609377 29.4725 0.609377 29.2684 0.609377C29.1324 0.609377 28.9963 0.745203 28.8602 0.745203H28.6561C28.6561 0.813115 28.452 0.881028 28.452 0.881028L28.0438 1.08476C27.9078 1.08476 27.7717 1.22059 27.6356 1.2885H27.4996C27.4996 1.2885 27.4996 1.35641 27.3635 1.35641H27.1594C27.1594 1.42433 26.9553 1.56015 26.9553 1.56015H26.8192V1.62806C26.5471 1.76389 26.275 1.89971 26.0028 2.03554C26.0028 2.03554 25.8667 2.10345 25.7987 2.17136C25.7987 2.17136 25.7987 2.17136 25.7307 2.17136C25.5946 2.17136 25.7307 2.17136 25.5946 2.23927C25.5266 2.23927 25.5946 2.23927 25.4585 2.30719C25.4585 2.30719 25.3225 2.30719 25.3225 2.3751H25.2544C25.2544 2.3751 25.2544 2.44301 25.1864 2.44301C25.0503 2.44301 24.9823 2.57884 24.8462 2.64675L24.7102 2.78257L24.5741 2.9184C24.438 2.98631 24.37 3.05422 24.2339 3.12213C23.2134 3.80126 22.329 4.61621 21.4446 5.43116C21.3085 5.56698 21.4446 5.43115 21.2405 5.56698C20.6282 6.17819 20.0159 6.85731 19.4716 7.53644C19.4036 7.60435 19.3355 7.74018 19.2675 7.80809C19.2675 7.876 19.2675 7.94391 19.2675 7.94391C19.2675 7.94391 19.1995 8.01182 19.1995 8.07974C19.1314 8.14765 19.0634 8.28347 18.9954 8.35139C18.9954 8.4193 18.9954 8.48721 18.9954 8.48721V8.62303C18.8593 8.69095 18.7913 8.82677 18.7232 8.89468C18.7232 8.9626 18.7232 9.03051 18.7232 9.03051C18.7232 9.09842 18.7232 9.16633 18.7232 9.16633C18.7232 9.16633 18.7232 9.16633 18.6552 9.16633C18.6552 9.16633 18.5191 9.16633 18.4511 9.16633H18.1109C18.1109 9.16633 17.9749 9.16633 17.9068 9.16633C17.8388 9.16633 17.7708 9.16633 17.7027 9.16633H17.2945C17.2945 9.16633 17.1585 9.16633 17.0904 9.16633H16.8863H16.6822H16.6142H16.5462C16.4101 9.16633 16.274 9.16633 16.138 9.16633H15.9339H15.8658C15.5937 9.16633 15.3215 9.23424 15.1174 9.30216C14.9814 9.30216 14.8453 9.30216 14.7092 9.37007C14.5732 9.43798 14.4371 9.43798 14.301 9.43798H14.0969L14.0289 9.5059H13.9609C13.8248 9.5059 13.6887 9.64172 13.5527 9.64172C13.5527 9.64172 13.4166 9.64172 13.3486 9.64172H13.1445C13.0084 9.77754 12.8723 9.77754 12.7363 9.84546C12.7363 9.84546 12.6002 9.84546 12.5322 9.91337H12.3281C12.3281 9.98128 12.124 10.0492 12.124 10.0492C12.124 10.0492 11.9879 10.0492 11.9199 10.1171C10.9674 10.4567 10.083 10.9321 9.19853 11.4074C8.38213 11.8828 7.56573 12.4261 6.74932 12.9694C6.13702 13.4448 5.59275 13.9202 5.04848 14.3956C4.50422 14.871 4.02798 15.4143 3.61978 15.8897C3.55175 15.9576 3.48371 16.0255 3.41568 16.1613C3.41568 16.1613 3.34765 16.2292 3.27961 16.2971C3.14355 16.5009 3.00748 16.6367 2.87141 16.7725C2.73534 16.9083 2.59928 17.1121 2.46321 17.2479C2.46321 17.2479 2.46321 17.3158 2.39517 17.3837C2.32714 17.4516 2.39518 17.4516 2.32714 17.5196C2.32714 17.5875 2.19108 17.6554 2.12304 17.7912C2.12304 17.7912 2.12304 17.8591 2.05501 17.927C1.98697 17.9949 2.05501 17.9949 1.98697 18.0628L1.78287 18.3345C1.64681 18.4703 1.57877 18.6741 1.44271 18.8778L1.30664 19.1494C1.23861 19.2853 1.17057 19.3532 1.10254 19.489C1.10254 19.5569 1.0345 19.6248 0.966471 19.6927C0.966471 19.6927 0.966471 19.7607 0.898438 19.8286C0.898438 19.9644 0.966472 20.0323 1.03451 20.1002V20.236V20.3719C1.17057 20.4398 1.17057 20.5756 1.23861 20.6435L1.37467 20.8473C1.44271 20.9831 1.51074 21.1189 1.57877 21.2547C1.64681 21.3906 1.71484 21.5264 1.85091 21.6622C1.85091 21.6622 1.91894 21.798 1.98697 21.8659C2.05501 21.9339 2.05501 22.0018 2.12304 22.0697C2.19108 22.2055 2.32714 22.3413 2.39517 22.4772C2.46321 22.613 2.59928 22.6809 2.66731 22.8167C2.80338 23.0205 3.00748 23.2921 3.14355 23.4279V23.5637C3.27961 23.5637 3.27961 23.6317 3.34765 23.6996C3.34765 23.7675 3.48371 23.8354 3.55175 23.9033C3.55175 23.9033 3.61978 24.0391 3.68781 24.107C3.75585 24.175 3.75585 24.2429 3.82388 24.3108C3.89191 24.4466 4.02798 24.5145 4.09601 24.6503C4.64028 25.2616 5.25258 25.8049 5.93292 26.3482C6.61326 26.9594 7.36162 27.5027 8.10999 27.9781C8.10999 27.9781 8.24606 28.046 8.24606 28.1139H8.38213C8.38213 28.1818 8.7223 28.3855 8.7223 28.3855C8.7223 28.3855 8.7223 28.3855 8.79033 28.3855H8.85836C8.85836 28.4534 8.99443 28.5214 8.99443 28.5214C9.1305 28.5214 9.19853 28.6572 9.3346 28.7251C9.47066 28.793 9.60673 28.8609 9.81083 28.9967C9.81083 28.9967 9.87887 28.9967 9.9469 28.9967C10.0149 28.9967 10.0149 28.9967 10.083 28.9967L10.2871 29.1326C11.1715 29.54 12.0559 29.9475 12.9404 30.2192C13.0084 30.2192 13.0764 30.2192 13.1445 30.2192H13.3486C13.4166 30.2871 13.4846 30.355 13.5527 30.355H13.6887L14.165 30.4908C14.165 30.4908 14.233 30.4908 14.301 30.4908H14.4371L14.6412 30.5587H14.8453L15.0494 30.6945C15.1855 30.6945 15.3896 30.6945 15.5257 30.7625H16.0019C16.0019 30.8304 16.138 30.8304 16.138 30.8304C16.206 30.8304 16.274 30.8304 16.3421 30.8304H16.6142H16.7503H16.8863C17.0904 30.8304 17.2265 30.8304 17.4306 30.8983C17.6347 30.9662 17.7708 30.8983 17.9749 30.8983C18.0429 30.8983 18.179 30.8983 18.247 30.8983H18.3831H18.4511C18.4511 30.9662 18.5191 31.0341 18.5872 31.1699C18.5872 31.1699 18.5872 31.2378 18.6552 31.3058C18.7232 31.3737 18.6552 31.3737 18.7232 31.4416C18.7232 31.5095 18.7913 31.5774 18.8593 31.6453C18.9273 31.7132 18.9273 31.7811 18.9954 31.8491L19.2675 32.2565C19.2675 32.2565 19.3355 32.3924 19.4036 32.3924C19.4716 32.3924 19.4716 32.5282 19.5396 32.5282C19.6077 32.5282 19.6077 32.664 19.6757 32.664C19.7437 32.664 19.7437 32.7998 19.8118 32.7998C19.8798 32.9356 20.0159 33.0036 20.0839 33.1394C20.0839 33.1394 20.1519 33.2752 20.22 33.2752C20.288 33.2752 20.288 33.411 20.356 33.411C20.4241 33.5469 20.5601 33.6148 20.6282 33.7506L20.9003 34.0902C20.9003 34.0902 20.9683 34.226 21.0364 34.226C21.1044 34.226 21.1724 34.3618 21.1724 34.3618C21.3085 34.4976 21.3765 34.5656 21.5126 34.7014L21.7847 34.973C21.8528 35.0409 21.9208 35.1089 22.0569 35.2447C22.1929 35.3805 22.261 35.3805 22.329 35.4484C22.329 35.4484 22.397 35.5163 22.4651 35.5842C22.5331 35.6521 22.5331 35.6521 22.6011 35.7201C22.6692 35.788 22.8052 35.8559 22.8733 35.9238L23.0093 36.0596V36.1954C23.0774 36.2634 23.2134 36.3313 23.2815 36.3992C23.2815 36.3992 23.3495 36.4671 23.4175 36.535C23.4856 36.6708 23.6216 36.7387 23.6897 36.8067C24.0298 37.0783 24.438 37.35 24.7782 37.5537C24.7782 37.5537 24.8462 37.5537 24.9143 37.6216H25.0503C25.1184 37.7574 25.2544 37.8253 25.3225 37.8932C25.5266 38.0291 25.6626 38.097 25.7987 38.1649C26.0709 38.3007 26.275 38.4366 26.479 38.5724H26.5471C26.5471 38.5724 26.5471 38.6403 26.6151 38.6403H26.7512C26.8873 38.7761 26.9553 38.844 27.0914 38.9119C27.0914 38.9119 27.0914 38.9119 27.1594 38.9119H27.3635C27.3635 39.0478 27.4996 39.0478 27.5676 39.0478C27.5676 39.0478 27.5676 39.0478 27.6356 39.0478H27.7037C27.8397 39.1157 27.9758 39.1836 28.0438 39.2515H28.1119L28.316 39.3194H28.5201C28.5881 39.4552 28.6561 39.4552 28.7922 39.5232L29.2004 39.659C29.2004 39.659 29.2004 39.659 29.2684 39.659H29.4725C29.6086 39.7269 29.7447 39.7948 29.8807 39.8627L30.2889 39.9985C31.2414 40.2702 32.1258 40.406 33.0783 40.5418C33.2144 40.5418 33.3504 40.5418 33.5545 40.5418C33.6226 40.5418 33.6906 40.5418 33.8267 40.5418H34.0988C34.1668 40.5418 34.3029 40.5418 34.3709 40.5418H34.507C34.507 40.5418 34.575 40.5418 34.6431 40.5418C34.7791 40.5418 34.9152 40.5418 34.9832 40.5418V40.406L35.1873 40.6097C35.1873 40.6097 35.0513 40.6097 34.9832 40.6097H35.1873H35.3914H35.6636C35.6636 40.6097 35.7316 40.6097 35.7996 40.6097C35.7996 40.6097 35.7996 40.6097 35.8677 40.6097C35.8677 40.6097 35.8677 40.5418 35.9357 40.4739C35.9357 40.406 36.0037 40.3381 36.0718 40.2023C36.1398 40.0664 36.1398 40.0664 36.2078 39.9306C36.2759 39.7948 36.2759 39.7948 36.3439 39.659V39.5232H36.4119C36.48 39.2515 36.6161 39.1157 36.6841 38.9119C36.7521 38.7082 36.8202 38.5724 36.9562 38.3686C37.2964 37.6895 37.5685 36.9425 37.8406 36.1954C37.8406 36.0596 37.9087 35.9238 37.9767 35.8559C37.9767 35.8559 37.9767 35.8559 37.9767 35.788C37.9767 35.7201 37.9767 35.788 37.9767 35.7201C37.9767 35.7201 37.9767 35.5842 37.9767 35.5163C37.9767 35.3805 37.9767 35.2447 38.1128 35.1768C38.2489 35.1088 38.1128 34.9051 38.1808 34.7693C38.2489 34.4976 38.3169 34.226 38.3849 33.8864C38.3849 33.8864 38.3849 33.8185 38.3849 33.7506C38.3849 33.6827 38.3849 33.6827 38.3849 33.6148C38.3849 33.5469 38.3849 33.479 38.3849 33.3431C38.3849 33.2073 38.3849 33.2073 38.3849 33.0715C38.3849 32.9357 38.3849 32.9356 38.3849 32.7998C38.3849 32.664 38.3849 32.664 38.3849 32.5282C38.3849 32.5282 38.3849 32.4603 38.3849 32.3924C38.3849 32.3244 38.3849 32.3244 38.3849 32.2565C38.3849 32.0528 38.3849 31.917 38.3849 31.7132V31.5774V31.4416V31.1699C38.3849 31.1699 38.3849 31.102 38.3849 31.0341C38.3849 30.9662 38.3849 30.9662 38.3849 30.8983C38.3849 30.8304 38.3849 30.6945 38.3849 30.6266C38.3849 30.4908 38.3849 30.355 38.3849 30.2192C38.3849 30.0833 38.3849 29.9475 38.3849 29.8117C38.3849 29.54 38.3849 29.2684 38.3849 28.9967V28.8609C38.3849 28.7251 38.3849 28.6572 38.3849 28.5893C38.3849 28.4534 38.3849 28.3176 38.3849 28.2497C38.3849 28.2497 38.3849 28.1139 38.3849 28.046C38.3849 27.9781 38.3849 27.9101 38.3849 27.9101C38.3849 27.7743 38.3849 27.7064 38.3849 27.6385V27.5027V27.3668C38.3849 27.231 38.3849 27.0952 38.3849 26.9594C38.3849 26.6877 38.3169 26.2802 38.2489 25.8728C38.2489 25.7369 38.2489 25.669 38.2489 25.669V25.6011C38.2489 25.6011 38.2489 25.5332 38.2489 25.3974C38.2489 25.2616 38.2489 25.1936 38.2489 25.1257C38.2489 25.1257 38.2489 25.0578 38.2489 24.9899C38.2489 24.922 38.2489 24.922 38.2489 24.8541C38.2489 24.7862 38.2489 24.6503 38.2489 24.5824C38.2489 24.5824 38.2489 24.5145 38.2489 24.4466C38.2489 24.3787 38.2489 24.3787 38.2489 24.3108C38.2489 24.107 38.1808 23.9033 38.1128 23.6996C38.1128 23.6317 38.1128 23.4958 38.0448 23.36C37.9767 23.2242 38.0448 23.1563 37.9087 23.0205C37.9087 22.8846 37.8406 22.7488 37.7726 22.613V22.4092C37.7046 22.4092 37.7046 22.4092 37.6366 22.3413C37.5685 22.2734 37.6366 22.3413 37.6366 22.2734C37.6366 22.1376 37.5005 22.0018 37.5005 21.8659C37.5005 21.8659 37.5005 21.8659 37.5005 21.7301V21.5943C37.4324 21.5943 37.4324 21.4585 37.3644 21.3906C37.2964 21.3226 37.3644 21.2547 37.2964 21.1868C37.2284 21.1189 37.2964 21.051 37.2284 20.9831C37.2284 20.8473 37.0923 20.7114 37.0243 20.5756C37.0243 20.4398 36.8882 20.304 36.8201 20.1681C36.8201 20.1681 36.8201 20.0323 36.7521 19.9644C36.6841 19.8965 36.7521 19.8286 36.6841 19.7607C36.6841 19.6248 36.548 19.489 36.48 19.4211C36.48 19.4211 36.48 19.4211 36.48 19.3532C36.48 19.3532 36.48 19.2174 36.616 19.1494C36.616 19.0815 36.6841 18.9457 36.7521 18.8778C36.8201 18.8099 36.7521 18.742 36.8201 18.6741C36.8201 18.5382 36.9562 18.4703 36.9562 18.3345C37.1603 17.927 37.2964 17.5875 37.4324 17.3158C37.4324 17.2479 37.4324 17.18 37.5005 17.1121C37.5005 17.1121 37.5005 17.1121 37.5005 17.0442C37.5005 16.9083 37.5685 16.8404 37.6366 16.7046C37.6366 16.7046 37.6366 16.6367 37.6366 16.5688C37.6366 16.5009 37.6366 16.433 37.7046 16.365C37.7726 16.2971 37.7046 16.2292 37.7726 16.1613V16.0255C37.7726 16.0255 37.7726 15.9576 37.8406 15.8897C37.8406 15.7538 37.9087 15.5501 37.9767 15.4143C37.9767 15.4143 37.9767 15.3464 37.9767 15.2784C37.9767 15.2105 37.9767 15.1426 37.9767 15.0747C37.9767 15.0068 37.9767 14.8031 38.0448 14.8031L38.1808 14.3277C38.1808 14.3277 38.1808 14.2598 38.1808 14.1918C38.1808 14.1239 38.1808 14.1239 38.1808 14.056V13.8523C38.2489 13.7165 38.3169 13.5806 38.3169 13.4448C38.3169 13.309 38.3169 13.1732 38.3849 13.0373C38.3849 12.9694 38.3849 12.9015 38.3849 12.8336C38.3849 12.7657 38.3849 12.6978 38.3849 12.6299C38.3849 12.494 38.3849 12.3582 38.3849 12.1545C38.3849 11.8149 38.453 11.4754 38.521 11.1358C38.521 11 38.521 10.9321 38.521 10.6604C38.521 10.5246 38.521 10.2529 38.521 10.185V10.0492C38.521 9.91337 38.521 9.70963 38.521 9.5059C38.521 9.09842 38.521 8.75886 38.521 8.35139" fill="#F9F8F5"/>
</svg>
