<svg width="289" height="69" viewBox="0 0 289 69" fill="none" xmlns="http://www.w3.org/2000/svg">
<path d="M88.5784 17.0906C92.9374 17.0906 93.5978 20.8842 93.5978 24.8564C93.5978 28.8286 92.9374 32.6222 88.5784 32.6222C84.2194 32.6222 83.5149 28.8286 83.5149 24.8564C83.5149 20.8842 84.1754 17.0906 88.5784 17.0906ZM83.5149 32.6222C85.1881 34.7199 86.9933 35.2555 89.1948 35.2555C91.3963 35.2555 93.0254 34.5414 94.0821 33.4702C96.0635 31.4172 96.5478 28.1145 96.5478 24.8118C96.5478 21.5091 96.1075 18.2063 94.0821 16.1533C93.0254 15.0821 91.2642 14.368 89.1948 14.368C87.1254 14.368 85.1881 14.9036 83.5149 17.0013V14.5912H80.5649V44.1371H83.5149V32.6222Z" fill="#1D325C"/>
<path d="M112.487 31.3726C111.166 32.5777 109.713 32.7562 108.04 32.7562C104.826 32.7562 103.373 31.6404 103.373 29.2749C103.373 26.9095 104.87 25.6598 107.908 25.6598H113.5V27.8467C113.5 29.5427 113.191 30.7031 112.487 31.3726ZM116.45 35.0324V21.1967C116.45 16.8228 113.852 14.4127 108.392 14.4127C102.932 14.4127 103.064 15.1268 101.303 17.4923L103.285 19.3668C104.517 17.6708 105.838 17.0013 108.348 17.0013C112.047 17.0013 113.5 18.5188 113.5 21.4645V23.4282H107.511C103.02 23.4282 100.555 25.7044 100.555 29.3196C100.555 32.9347 101.039 32.4438 102.052 33.4703C103.461 34.8539 104.958 35.3448 107.732 35.3448C110.505 35.3448 111.914 34.7646 113.544 33.1579V35.1216H116.494L116.45 35.0324Z" fill="#1D325C"/>
<path d="M122.35 29.5873C122.35 32.6222 124.067 35.0323 127.501 35.0323H129.571V32.4884H128.029C126.136 32.4884 125.3 31.3726 125.3 29.4981V16.9567H129.571V14.6805H125.3V9.14618H122.35V29.5427V29.5873Z" fill="#1D325C"/>
<path d="M137.232 22.4464C137.232 18.8312 139.169 17.046 142.251 17.046C145.333 17.046 147.138 18.8312 147.138 22.4464V35.0324H150.089V21.9554C150.089 17.3584 147.447 14.4127 142.868 14.4127C138.288 14.4127 138.685 15.2607 137.232 16.9121V9.19086H134.282V35.0324H137.232V22.4464Z" fill="#1D325C"/>
<path d="M171.971 16.4657C170.606 15.0822 169.109 14.502 166.996 14.502C164.882 14.502 163.605 15.0375 162.417 16.0194V14.7251H158.322V35.077H162.417V22.7587C162.417 20.1255 163.958 18.3402 166.247 18.3402C168.537 18.3402 168.096 18.608 169.021 19.5453L169.505 20.0362L172.455 17.0013L171.971 16.5104V16.4657Z" fill="#EA715B"/>
<path d="M181.173 18.1617C182.846 18.1617 184.211 19.0543 184.96 20.6164C185.312 21.3305 185.356 21.8214 185.444 22.8033H176.946C176.99 21.7768 177.078 21.3305 177.431 20.6164C178.135 19.0543 179.544 18.1617 181.217 18.1617M181.217 14.4573C175.978 14.4573 172.852 18.3402 172.852 24.8564C172.852 31.3725 175.978 35.2555 181.702 35.2555C187.425 35.2555 187.161 34.0058 189.011 32.1313L189.495 31.6403L186.633 29.0963L186.193 29.5427C184.74 31.0155 183.639 31.5064 181.746 31.5064C178.047 31.5064 177.034 28.8286 176.902 26.2846H189.539V24.3654C189.539 18.2509 186.325 14.4573 181.173 14.4573" fill="#EA715B"/>
<path d="M193.898 29.2749C193.898 32.8008 196.056 35.0323 199.358 35.0323H201.956V31.2833H199.842C198.961 31.2833 197.949 31.0601 197.949 29.1856V18.1617H201.956V14.6805H197.949V9.14618H193.854V29.2749H193.898Z" fill="#EA715B"/>
<path d="M219.7 16.4657C218.335 15.0822 216.838 14.502 214.724 14.502C212.611 14.502 211.334 15.0375 210.145 16.0194V14.7251H206.05V35.077H210.145V22.7587C210.145 20.1255 211.686 18.3402 213.976 18.3402C216.265 18.3402 215.825 18.608 216.75 19.5453L217.234 20.0362L220.184 17.0013L219.7 16.5104V16.4657Z" fill="#EA715B"/>
<path d="M228.286 18.1617C229.959 18.1617 231.324 19.0544 232.072 20.6165C232.424 21.3306 232.468 21.8215 232.556 22.8034H224.059C224.103 21.7769 224.191 21.3306 224.543 20.6165C225.247 19.0544 226.656 18.1617 228.33 18.1617M228.33 14.4573C223.09 14.4573 219.964 18.3403 219.964 24.8564C219.964 31.3726 223.09 35.2555 228.814 35.2555C234.538 35.2555 234.274 34.0058 236.123 32.1313L236.607 31.6404L233.745 29.0964L233.305 29.5427C231.852 31.0156 230.751 31.5065 228.858 31.5065C225.159 31.5065 224.147 28.8286 224.015 26.2846H236.651V24.3655C236.651 18.251 233.437 14.4573 228.286 14.4573" fill="#EA715B"/>
<path d="M247.351 31.5511C244.137 31.5511 243.652 30.3014 243.652 28.9625C243.652 27.6236 244.049 26.2846 247.219 26.2846H251.754V27.6682C251.754 29.0518 251.49 29.989 251.005 30.4353C249.993 31.3726 248.892 31.5511 247.307 31.5511M247.659 14.502C244.753 14.502 242.419 15.0375 240.482 17.6261L240.13 18.1171L242.992 20.795L243.432 20.1701C244.489 18.7419 245.546 18.251 247.615 18.251C251.269 18.251 251.754 19.947 251.754 21.7322V22.8926H246.822C242.375 22.8926 239.646 25.2581 239.646 29.0518C239.646 32.8454 240.218 32.3991 241.275 33.381C242.684 34.7646 244.269 35.3001 247.043 35.3001C249.816 35.3001 250.521 34.9431 251.798 34.0505V35.077H255.893V21.5091C255.893 18.2956 254.484 14.502 247.703 14.502" fill="#EA715B"/>
<path d="M261.66 29.2749C261.66 32.8008 263.818 35.0323 267.12 35.0323H269.718V31.2833H267.604C266.724 31.2833 265.711 31.0601 265.711 29.1856V18.1617H269.718V14.6805H265.711V9.14618H261.616V29.2749H261.66Z" fill="#EA715B"/>
<path d="M282.399 23.0265L279.449 22.7587C276.895 22.491 276.719 21.5537 276.719 20.6611C276.719 18.6527 278.656 18.2064 280.241 18.2064C281.826 18.2064 283.676 18.6527 284.82 19.5899L285.305 19.947L288.035 17.1798L287.462 16.6889C285.657 15.2161 283.235 14.502 280.285 14.502C275.75 14.502 272.712 17.0013 272.712 20.7503C272.712 24.4994 276.102 26.2846 278.92 26.5078L282.002 26.7756C284.072 26.9541 284.512 27.7575 284.512 28.8732C284.512 31.1048 282.179 31.5511 280.197 31.5511C278.216 31.5511 276.102 30.8816 274.87 29.5427L274.385 29.0518L271.611 31.8635L272.096 32.3545C274.121 34.3629 276.675 35.3001 280.241 35.3001C285.349 35.3001 288.519 32.8008 288.519 28.8286C288.519 24.8564 286.493 23.4282 282.399 23.0265Z" fill="#EA715B"/>
<path d="M61.3239 19.7238C61.3239 19.7238 61.3239 19.7685 61.3239 19.8131C61.3239 19.8577 61.3239 19.947 61.3239 19.9916C61.3239 20.1255 61.3239 20.2148 61.3239 20.3487C61.3239 20.4379 61.3239 20.5272 61.3239 20.6165C61.3239 20.7057 61.3239 20.795 61.3239 20.8842C61.3239 21.0628 61.3239 21.1967 61.3239 21.3752C61.3239 21.5537 61.3239 21.6876 61.3239 21.8661C61.3239 22.0447 61.3239 22.1786 61.2799 22.3571C61.2799 22.4463 61.2799 22.5802 61.2799 22.6695C61.2799 22.7588 61.2799 22.8927 61.2359 22.9819C61.2359 23.0712 61.2359 23.2051 61.2359 23.2943C61.2359 23.3836 61.2359 23.5175 61.1918 23.6068C61.1918 23.8299 61.1038 24.0084 61.1038 24.2316C61.1038 24.4548 61.0157 24.6333 61.0157 24.8564C61.0157 25.0796 60.9277 25.3474 60.8396 25.5705C60.8396 25.7044 60.7956 25.8383 60.7515 25.9276C60.7515 26.0615 60.7075 26.1954 60.6635 26.2846C60.5314 26.7756 60.3993 27.2665 60.2672 27.7128C60.2232 27.8914 60.1351 28.0699 60.0911 28.2484C60.0911 28.3377 60.0471 28.4269 60.003 28.5162C60.003 28.6055 59.959 28.6947 59.915 28.784C59.8709 28.9625 59.7829 29.141 59.7389 29.3196C59.6508 29.4981 59.6068 29.6766 59.5187 29.8998C59.5187 29.989 59.4747 30.0337 59.4306 30.1229C59.4306 30.2122 59.3866 30.2568 59.3426 30.3461C59.3426 30.4354 59.2986 30.48 59.2545 30.5692C59.2105 30.7031 59.1224 30.8817 59.0784 31.0156C59.0344 31.1495 58.9463 31.328 58.9023 31.4619C58.9023 31.4619 58.9023 31.5511 58.8583 31.5511C58.8583 31.5958 58.8583 31.5958 58.8583 31.5958C58.8583 31.5958 58.8583 31.5958 58.8583 31.6404C58.8583 31.6404 58.8583 31.7297 58.8142 31.7297C58.8142 31.7297 58.8142 31.7297 58.8142 31.7743C58.8142 31.685 58.7262 31.6404 58.6821 31.5958C58.6381 31.5065 58.5941 31.4172 58.506 31.3726C58.418 31.2387 58.2859 31.0602 58.1978 30.9263C58.0657 30.7478 57.9777 30.6139 57.8456 30.48C57.8015 30.3907 57.7135 30.3461 57.6695 30.2568C57.6695 30.2568 57.6254 30.1676 57.5814 30.1676C57.5814 30.1676 57.5374 30.0783 57.4933 30.0783C57.4053 29.989 57.3612 29.8998 57.2732 29.8105C57.2291 29.7212 57.1411 29.6766 57.0971 29.5874C57.053 29.4981 56.965 29.4535 56.9209 29.3642C56.7889 29.2303 56.6568 29.0518 56.5247 28.9179C56.4806 28.8733 56.4366 28.784 56.3486 28.7394C56.3045 28.6947 56.2605 28.6055 56.1724 28.5608C56.0844 28.4269 55.9523 28.3377 55.8202 28.2038C55.7762 28.1592 55.6881 28.0699 55.6441 28.0253C55.6 27.9806 55.512 27.8914 55.468 27.8467C55.3359 27.7128 55.2038 27.5789 55.1157 27.4897C55.0717 27.4451 55.0277 27.4004 54.9836 27.3112C54.9396 27.2665 54.8956 27.2219 54.8075 27.1326C54.6754 26.9987 54.5874 26.9095 54.4553 26.7756C54.4112 26.7309 54.3232 26.6417 54.2791 26.5971C54.2351 26.5524 54.1471 26.4632 54.103 26.4185C53.9709 26.2846 53.8388 26.1954 53.7068 26.0615C52.9142 25.3474 52.0776 24.6779 51.197 24.0084C51.065 23.9192 50.8888 23.7853 50.7567 23.696C50.6687 23.6514 50.6247 23.6068 50.5366 23.5175C50.4485 23.4729 50.4045 23.4282 50.3164 23.3836C50.1403 23.2497 49.9642 23.1604 49.7881 23.0266C49.7 22.9819 49.612 22.8927 49.4799 22.848C49.3918 22.8034 49.3038 22.7141 49.1717 22.6695C49.0836 22.6249 48.9515 22.5356 48.8635 22.491C48.7754 22.4463 48.6433 22.3571 48.5552 22.3125C48.4672 22.2678 48.3351 22.1786 48.247 22.1339C48.203 22.1339 48.159 22.0893 48.0709 22.0447C48.0269 22.0447 47.9829 22 47.8948 21.9554C47.7627 21.8661 47.5866 21.7769 47.4105 21.6876C47.3224 21.6876 47.2343 21.5983 47.1463 21.5537H47.1023L47.0582 21.4645C47.0582 21.4645 46.9702 21.4645 46.9261 21.4198C46.75 21.3306 46.6179 21.2413 46.4418 21.152C46.2657 21.0628 46.3097 21.0628 46.2217 21.0181C46.1336 21.0181 46.0896 20.9735 46.0455 20.9289C45.9575 20.8842 45.7814 20.795 45.6052 20.7057C45.5612 20.7057 45.5172 20.6611 45.4731 20.6165C45.4731 20.6165 45.4291 20.6165 45.3851 20.6165C45.3851 20.6165 45.3411 20.6165 45.297 20.6165C45.1649 20.5718 45.0769 20.5272 44.9448 20.4379C44.6806 20.304 44.7246 20.304 44.5925 20.2594C44.4605 20.2148 44.3724 20.1701 44.2403 20.1255C44.1082 20.0809 44.0202 20.0363 43.8881 19.9916C43.8 19.9916 43.756 19.947 43.712 19.9024C43.6679 19.9024 43.5799 19.8577 43.5358 19.8131C43.4037 19.7685 43.2717 19.7238 43.0955 19.6346C43.0075 19.6346 42.9194 19.5899 42.8314 19.5453C42.7873 19.5453 42.7433 19.5453 42.6993 19.5007C42.6552 19.5007 42.6112 19.5007 42.5672 19.456C42.347 19.3668 42.1709 19.3222 41.9508 19.2329C41.9067 19.2329 41.8627 19.2329 41.8187 19.1883C41.7746 19.1883 41.7306 19.1883 41.6866 19.1436C41.5985 19.1436 41.4664 19.099 41.3784 19.0544C41.2903 19.0544 41.2022 19.0097 41.1142 18.9651C41.0261 18.9651 40.9381 18.9205 40.85 18.8758C40.6739 18.8312 40.4978 18.7866 40.2776 18.6973C40.1455 18.6973 40.0575 18.6081 39.9694 18.6081C39.8813 18.6081 39.7933 18.6081 39.7052 18.5634C39.5731 18.5634 39.441 18.4742 39.309 18.4742C39.1769 18.4742 39.0448 18.4295 38.9567 18.3849C38.7366 18.3403 38.5604 18.2956 38.4284 18.251C38.3403 18.251 38.2082 18.2064 38.1201 18.1617C37.9881 18.1617 37.9 18.1617 37.7679 18.1171C37.5478 18.1171 37.3276 18.0278 37.1515 17.9832C37.1075 17.9832 36.9754 17.9832 36.9313 17.9832C36.7112 17.9832 36.491 17.894 36.3149 17.894C36.2709 17.894 36.2269 17.894 36.1828 17.894C36.1388 17.894 36.0948 17.894 36.0507 17.894C35.9627 17.894 35.8746 17.894 35.7866 17.894C35.6985 17.894 35.6104 17.894 35.4783 17.894C35.3903 17.894 35.2582 17.894 35.1701 17.894C34.95 17.894 34.7298 17.8493 34.4657 17.8047C34.4216 17.8047 34.3776 17.8047 34.3336 17.8047C34.2895 17.8047 34.2015 17.8047 34.1134 17.8047C34.0254 17.8047 33.8492 17.8047 33.8052 17.8047C33.6731 17.8047 33.541 17.8047 33.3649 17.8047C33.497 17.6262 33.6291 17.403 33.7612 17.2245C33.8052 17.1799 33.8492 17.0906 33.9373 17.0013C34.0254 16.8674 34.1134 16.7335 34.2015 16.6443C34.2895 16.4657 34.4216 16.2426 34.5977 16.0641C34.7298 15.8855 34.8619 15.707 34.994 15.5731C37.0194 13.0738 39.397 10.9315 42.0388 9.19085C42.0388 9.19085 42.0388 9.19085 41.9948 9.23548C41.8187 9.36937 41.7306 9.414 41.5985 9.50327C41.5545 9.50327 41.5105 9.59253 41.4224 9.63716C41.4224 9.63716 41.3784 9.63716 41.3343 9.72642C41.3343 9.72642 41.2463 9.77105 41.2022 9.81568H41.2903C41.1582 9.90495 41.1142 9.90495 41.0702 9.99421C41.3343 9.81569 41.3343 9.86032 41.2903 9.99421C40.9381 10.2174 40.5858 10.4852 40.2336 10.7976C40.1455 10.8422 40.0575 10.9315 39.9694 10.9761C39.9694 10.9761 39.8813 11.0207 39.8373 11.0654C39.8373 11.0654 39.7493 11.11 39.7052 11.1546C39.5291 11.2885 39.397 11.4224 39.2649 11.5117C39.2649 11.5563 39.2209 11.6009 39.1328 11.6902C39.0007 11.8241 38.8687 11.958 38.6925 12.0919C38.6045 12.1365 38.5604 12.2258 38.4724 12.2704C38.3843 12.315 38.3403 12.4043 38.2522 12.4936C38.1201 12.6275 37.944 12.7614 37.8119 12.8952C37.8119 12.8952 37.7239 12.9845 37.6798 12.9845L37.5918 13.0738C37.5037 13.163 37.4597 13.2077 37.3716 13.2969C37.4597 13.2077 37.5478 13.163 37.6358 13.0738C37.6358 13.0738 37.7239 12.9845 37.7679 12.9399C37.8119 12.9399 37.856 12.8506 37.9 12.806C38.0761 12.6275 38.2522 12.4936 38.4284 12.315C38.7806 12.0026 39.1769 11.6456 39.5731 11.2885C39.5731 11.2885 39.5731 11.2885 39.6612 11.2439C39.6612 11.2439 39.7493 11.1546 39.7933 11.11C39.7933 11.11 39.8813 11.0207 39.9254 10.9761C40.0134 10.8868 40.1015 10.8422 40.1896 10.7529C40.2776 10.6637 40.3657 10.619 40.4537 10.5298C40.4537 10.5298 40.5418 10.4852 40.5858 10.4405C40.5858 10.4405 40.6739 10.3959 40.7179 10.3513C40.85 10.3066 41.0261 10.2174 41.1582 10.1727C41.2022 10.1727 41.2903 10.0835 41.3343 10.0388C41.3784 10.0388 41.4224 9.94958 41.5105 9.90495C41.5985 9.81568 41.7306 9.77105 41.8187 9.68179C41.9067 9.63716 42.0388 9.5479 42.1269 9.50327C42.1269 9.50327 42.1709 9.50327 42.2149 9.45863C42.2149 9.45863 42.259 9.45863 42.303 9.45863C42.347 9.45863 42.3911 9.414 42.4791 9.36937C42.6993 9.23548 42.8754 9.14622 43.0955 9.01232C43.3157 8.87843 43.5358 8.78917 43.756 8.65527C43.756 8.65527 43.844 8.65527 43.8881 8.65527C43.844 8.6999 43.8 8.78916 43.712 8.8338C43.5799 8.92306 43.4037 9.01232 43.2717 9.10158C43.2276 9.10158 43.1836 9.14622 43.1396 9.19085C43.0955 9.19085 43.0515 9.28011 43.0075 9.28011C42.9194 9.36937 42.7873 9.414 42.6993 9.50327C42.6112 9.59253 42.4791 9.63716 42.347 9.72642C42.2149 9.81569 42.1269 9.90495 41.9948 9.94958C41.8627 10.0388 41.7746 10.1281 41.6425 10.2174C41.5105 10.3066 41.4224 10.3959 41.2903 10.4852C41.1582 10.5744 41.0702 10.6637 40.9381 10.7529C40.894 10.7529 40.806 10.8422 40.7619 10.8868C40.7179 10.8868 40.6739 10.9761 40.5858 11.0207C40.4978 11.1546 40.5858 11.11 40.7179 11.0654C40.9381 10.8868 41.1142 10.7529 41.3343 10.5744C41.4224 10.4852 41.5545 10.3959 41.6425 10.3513C41.7746 10.262 41.8627 10.2174 41.9948 10.1281C42.2149 10.1281 42.0828 10.262 41.7306 10.5298C41.4664 10.7529 41.0261 11.0207 40.6739 11.3331C40.3216 11.6009 39.9694 11.8687 39.7933 12.0472C39.0007 12.7614 38.2522 13.4755 37.5478 14.2788C37.4597 14.3681 37.3716 14.4573 37.2836 14.5912L37.1515 14.7251C37.1515 14.7698 37.0634 14.8144 37.0194 14.859C36.8433 15.0822 36.6672 15.2607 36.491 15.4839C36.3149 15.707 36.1388 15.8855 36.0067 16.1087C36.0067 16.1533 35.9186 16.198 35.8746 16.2872C35.8746 16.3319 35.7866 16.3765 35.7425 16.4657C35.6545 16.555 35.5664 16.6889 35.5224 16.7782C35.8746 16.2872 36.2709 15.8409 36.6231 15.4392C36.7112 15.35 36.7992 15.2161 36.8873 15.1268C36.9313 15.0822 36.9754 15.0375 37.0194 14.9483L37.1075 14.859L37.1955 14.7698C37.3716 14.5912 37.5478 14.3681 37.7679 14.1896C37.7679 14.1896 37.7679 14.1449 37.8119 14.1003C37.9881 13.9218 38.2082 13.6986 38.3843 13.5201C38.5604 13.3416 38.7806 13.163 38.9567 12.9399C39.0007 12.8952 39.0448 12.8506 39.0888 12.806C39.1328 12.7614 39.1769 12.7167 39.2209 12.6721C39.309 12.5828 39.397 12.4936 39.5291 12.4043C39.5731 12.4043 39.6172 12.315 39.6612 12.2704C39.7052 12.2704 39.7493 12.1811 39.7933 12.1365C39.8813 12.0472 39.9694 11.958 40.0575 11.9134C40.1455 11.8687 40.2336 11.7795 40.3216 11.6902C40.4097 11.6009 40.5418 11.5117 40.6299 11.4224C40.7619 11.3331 40.85 11.2439 40.9381 11.1546C40.9381 11.1546 40.9821 11.1546 41.0261 11.11C41.0261 11.11 41.0702 11.11 41.1142 11.0654C41.1582 11.0654 41.2022 11.0207 41.2463 10.9761C41.2463 11.0654 41.1582 11.1546 41.0702 11.2439C40.9821 11.3778 40.85 11.467 40.6739 11.6009C40.85 11.467 40.9821 11.3331 41.1582 11.2439C41.3343 11.1546 41.4664 11.0207 41.5985 10.9315C41.8187 10.7529 42.2149 10.4405 42.347 10.3959C42.347 10.3959 42.5231 10.262 42.5672 10.262C42.6993 10.1727 42.6552 10.1727 42.8314 10.0835C43.0075 9.94958 43.0075 9.94958 43.1396 9.90495C43.1396 9.90495 43.2276 9.86032 43.2717 9.81568C43.2717 9.81568 43.3597 9.77105 43.4037 9.72642C43.4918 9.68179 43.5799 9.63716 43.6679 9.5479C43.756 9.50327 43.844 9.45863 43.9321 9.36937L44.0642 9.28011C44.0642 9.28011 44.1522 9.23548 44.1963 9.19085C44.3724 9.10158 44.5485 8.96769 44.7246 8.87843L44.8567 8.78916C44.8567 8.78916 44.9448 8.74453 44.9888 8.6999C45.0769 8.65527 45.1649 8.61064 45.253 8.56601C45.3411 8.56601 45.4731 8.43211 45.4731 8.43211C45.5612 8.43211 45.4732 8.43211 45.5612 8.43211C45.6052 8.43211 45.5612 8.43211 45.6493 8.34285C45.7814 8.25359 45.9575 8.20896 46.0896 8.11969C46.2217 8.03043 46.3978 7.9858 46.5299 7.89654C46.706 7.80728 46.8821 7.71801 47.1023 7.62875C47.1463 7.62875 47.1903 7.62875 47.2343 7.58412H47.3224L47.4105 7.53949C47.4985 7.53949 47.5866 7.45023 47.7187 7.40559C47.8067 7.40559 47.8948 7.31633 47.9829 7.2717C48.0709 7.22707 48.159 7.18244 48.247 7.13781C48.4232 7.04854 48.5993 7.00391 48.7314 6.95928C48.8635 6.91465 48.7314 7.00391 48.8635 6.95928C49.9202 6.5576 51.0209 6.20055 52.1657 5.93276C52.2538 5.93276 52.1657 5.93276 52.2978 5.93276C52.4739 5.93276 52.4299 5.88813 52.562 5.8435C52.65 5.8435 52.7381 5.8435 52.7821 5.8435C54.103 5.57571 55.468 5.30792 56.8769 5.1294H57.3612L57.6254 5.08477H57.7575C57.8015 5.08477 57.8456 5.08477 57.9336 5.08477H58.0217C58.0217 5.08477 58.0657 5.17403 58.1098 5.21866C58.1098 5.21866 58.1098 5.21866 58.1098 5.26329V5.30792V5.39719C58.2418 5.53108 58.2859 5.66497 58.3739 5.8435C58.462 5.97739 58.506 6.11129 58.5941 6.28981C58.6821 6.51297 58.8142 6.73612 58.9023 6.95928C58.9023 7.00391 58.9463 7.04854 58.9904 7.13781C58.9904 7.18244 59.0344 7.2717 59.0784 7.31633C59.1224 7.40559 59.1665 7.53949 59.2105 7.62875C59.2105 7.67338 59.2105 7.71801 59.2986 7.80728C59.2986 7.85191 59.3426 7.89654 59.3866 7.9858C59.3866 8.07506 59.4747 8.20896 59.5187 8.29822C59.5187 8.38748 59.6068 8.52138 59.6508 8.61064C59.6508 8.6999 59.7389 8.8338 59.7389 8.92306C59.8269 9.19085 59.959 9.45863 60.0471 9.72642C60.1351 9.99421 60.2232 10.262 60.3112 10.5298C60.4433 11.0654 60.6195 11.5563 60.7515 12.1365C60.7515 12.2258 60.7956 12.315 60.8396 12.4489C60.8396 12.4936 60.8396 12.5382 60.8396 12.5828C60.8396 12.6275 60.8396 12.6721 60.8396 12.7167C60.8396 12.9399 60.9277 13.1184 60.9717 13.3416C60.9717 13.4308 60.9717 13.5201 61.0157 13.654C61.0157 13.7432 61.0157 13.8325 61.0598 13.9218C61.0598 14.011 61.0598 14.1003 61.1038 14.1896C61.1038 14.2788 61.1038 14.3681 61.1478 14.4573C61.1478 14.5912 61.1918 14.7251 61.2359 14.859C61.2359 14.9483 61.2359 15.0822 61.2359 15.1714C61.2359 15.2607 61.2359 15.3946 61.2359 15.4839C61.2359 15.7516 61.3239 16.0194 61.3239 16.3319C61.3239 16.5996 61.368 16.9121 61.412 17.1798C61.412 17.1798 61.412 17.2691 61.412 17.3137C61.412 17.3137 61.412 17.403 61.412 17.4476C61.412 17.5369 61.412 17.5815 61.412 17.6708C61.412 17.8047 61.412 17.9832 61.412 18.1171C61.412 18.251 61.412 18.4295 61.412 18.5634C61.412 18.6973 61.412 18.8758 61.412 19.0097C61.412 19.099 61.412 19.1883 61.412 19.2775V19.5453C61.412 19.7238 61.412 19.9024 61.412 20.0363V20.1255M61.6321 49.6268C61.6321 49.6268 61.6321 49.6268 61.6321 49.5376C61.6321 49.3144 61.6321 49.1805 61.6321 49.0466C61.6321 48.9127 61.6321 48.7788 61.5881 48.5557C61.5881 48.6003 61.5881 48.6449 61.5881 48.6449C61.5881 48.511 61.5881 48.4664 61.5881 48.3771C61.5881 48.6896 61.5881 48.6896 61.5001 48.5557C61.5001 48.4664 61.5001 48.3325 61.5001 48.2432C61.5001 48.154 61.5001 48.0201 61.5001 47.9308C61.5001 47.7077 61.456 47.4845 61.412 47.2614C61.412 47.0382 61.3239 46.815 61.3239 46.6365C61.3239 46.5919 61.3239 46.5473 61.3239 46.5026C61.3239 46.458 61.3239 46.4134 61.3239 46.3687C61.3239 46.2795 61.3239 46.1902 61.3239 46.1009C61.3239 46.0117 61.2799 45.967 61.2359 45.8778C61.2359 45.7885 61.2359 45.6993 61.1918 45.61C61.1918 45.5207 61.1918 45.4315 61.1478 45.2976C61.1478 45.1191 61.0598 44.8959 61.0157 44.7174C60.9717 44.5388 60.9277 44.3157 60.8836 44.0925C60.8836 44.0033 60.8396 43.914 60.7956 43.7801C60.7956 43.6908 60.7515 43.6016 60.7075 43.4677C60.8836 44.4049 61.1478 45.3422 61.3239 46.3687C61.3239 46.3687 61.3239 46.3687 61.3239 46.5026C61.368 46.7258 61.412 46.9936 61.456 47.2167C61.456 47.2167 61.456 47.2614 61.456 47.306C61.456 47.306 61.456 47.3506 61.456 47.3952C61.456 47.4399 61.456 47.5291 61.456 47.5738C61.456 47.663 61.456 47.7969 61.456 47.8862C61.456 47.9755 61.456 48.0647 61.456 48.1093C61.456 48.1093 61.456 48.1986 61.456 48.2432C61.456 48.2432 61.456 48.3325 61.456 48.3771C61.456 48.6449 61.5001 48.9127 61.5441 49.1805C61.5441 49.4483 61.5441 49.6714 61.5441 49.9392V50.1178C61.5441 50.1624 61.5441 50.2517 61.5441 50.2963C61.5441 50.4302 61.5441 50.5194 61.5441 50.6533C61.5441 50.7872 61.5441 50.9211 61.5441 51.0104C61.5441 51.1443 61.5441 51.2782 61.5441 51.4121C61.5441 51.4121 61.5441 51.5013 61.5001 51.546C61.5001 51.4567 61.456 51.4121 61.412 51.3228C61.412 51.2335 61.412 51.1443 61.412 51.055C61.412 50.9657 61.412 50.8765 61.412 50.7872C61.412 50.6533 61.412 50.5641 61.412 50.4302C61.412 50.3855 61.412 50.2963 61.412 50.2517C61.412 50.207 61.412 50.1178 61.412 50.0731C61.412 49.8053 61.412 49.5375 61.368 49.2251C61.368 48.9573 61.3239 48.6449 61.2799 48.3325C61.2799 48.0647 61.1918 47.7523 61.1478 47.4845C61.1038 47.3506 61.0598 47.4845 61.0598 47.5738C61.0598 47.8416 61.1038 48.1093 61.1478 48.3771C61.1478 48.6449 61.1918 48.9127 61.1918 49.1805C61.1038 49.4037 61.0157 49.1805 60.9717 48.7342C60.9717 48.6449 60.9717 48.5557 60.9717 48.4218C60.9717 48.4218 60.9717 48.3771 60.9717 48.3325C60.9717 48.3325 60.9717 48.2879 60.9717 48.2432C60.9717 48.1986 60.9717 48.154 60.9717 48.0647C60.9717 47.9308 60.9717 47.8416 60.9277 47.7077C60.9277 47.663 60.9277 47.5738 60.9277 47.5291C60.9277 47.4845 60.9277 47.3952 60.9277 47.3506C60.9277 47.1275 60.8396 46.9043 60.8396 46.7258C60.8396 46.5473 60.7956 46.3687 60.7515 46.2348C60.6635 45.6993 60.5314 45.2083 60.3993 44.6727L60.1792 43.914C60.0911 43.6462 60.0471 43.4231 59.959 43.1553C59.6508 42.1288 59.2986 41.1469 58.8583 40.1203C58.9023 40.2542 58.9463 40.3881 59.0344 40.522C59.0344 40.6113 59.0784 40.6559 59.1224 40.7452C59.1224 40.8344 59.1665 40.8791 59.2105 40.9683C59.2545 41.1022 59.2986 41.2361 59.3866 41.37C59.3866 41.4146 59.4306 41.5039 59.4747 41.5485C59.4747 41.6378 59.5187 41.6824 59.5627 41.7717C59.6068 41.9056 59.6508 42.0395 59.6948 42.1734C59.6948 42.1734 59.6948 42.218 59.6948 42.2626C59.6948 42.2626 59.6948 42.3073 59.6948 42.3519C59.6948 42.3965 59.7389 42.4858 59.7389 42.5304C59.7389 42.6643 59.8269 42.7982 59.8709 42.9321C59.8709 42.9767 59.8709 43.066 59.915 43.1106C59.915 43.1999 59.915 43.2445 59.959 43.2892C59.959 43.2892 59.959 43.2892 60.003 43.3784C60.0911 43.6462 60.1351 43.914 60.2232 44.1818C60.2232 44.3157 60.2672 44.4496 60.3112 44.5835C60.3112 44.6281 60.3112 44.7174 60.3553 44.762C60.3553 44.8513 60.3553 44.8959 60.3993 44.9852C60.3993 45.119 60.4433 45.2529 60.4874 45.3868C60.4874 45.5207 60.5314 45.6546 60.5754 45.7885C60.6195 46.0563 60.6635 46.2795 60.7515 46.5026C60.7515 46.6811 60.7956 46.9936 60.8396 47.2614V47.3506V47.4399C60.8396 47.5291 60.8396 47.5738 60.8396 47.663C60.8396 47.7969 60.8396 47.9308 60.8396 48.0201C60.7956 48.0201 60.7515 47.8862 60.7075 47.7523C60.7075 47.663 60.7075 47.6184 60.6635 47.5291C60.6635 47.4399 60.6635 47.3506 60.6195 47.2614C60.6195 47.306 60.6195 47.3506 60.6195 47.3952C60.6195 47.4399 60.6195 47.4845 60.6195 47.5291C60.6195 47.6184 60.6195 47.7077 60.6195 47.8416C60.6195 47.9308 60.6195 48.0201 60.6195 48.1093C60.6195 48.1986 60.6195 48.2879 60.6195 48.3771C60.6195 48.511 60.6195 48.7342 60.6635 48.9127C60.6635 49.002 60.6635 49.0912 60.6635 49.1359C60.6635 49.1805 60.6635 49.2698 60.6635 49.3144C60.6635 49.3144 60.6635 49.5375 60.6635 49.5822C60.6635 49.7161 60.6635 49.7161 60.6635 49.8946C60.6635 50.0285 60.6635 50.0731 60.6635 50.1178C60.6635 50.1624 60.6635 50.207 60.6635 50.2963C60.6635 50.5194 60.6635 50.698 60.6635 50.9211C60.6635 51.1443 60.6635 51.3228 60.6635 51.546V51.8584C60.6635 51.9476 60.6635 52.0815 60.6635 52.1708C60.6635 52.394 60.6635 52.5725 60.6635 52.7956C60.6635 52.7956 60.6635 52.8403 60.6635 52.8849C60.6635 52.9295 60.6635 52.9295 60.6635 52.9742C60.6635 53.0188 60.6635 53.0634 60.6635 53.0634C60.6635 53.1527 60.6635 53.0634 60.6635 53.1527C60.6635 53.1973 60.6635 53.1527 60.6635 53.2866C60.6635 53.4651 60.6635 53.599 60.6635 53.7775C60.6635 53.9561 60.6635 54.1346 60.6635 54.2685C60.6635 54.3577 60.6635 54.447 60.6635 54.5809C60.6635 54.6255 60.6635 54.6702 60.6635 54.7148C60.6635 54.7594 60.6635 54.804 60.6635 54.8933C60.6635 55.1165 60.6195 55.295 60.5754 55.5181C60.5754 55.5628 60.5754 55.6074 60.5754 55.652C60.5754 55.6967 60.5754 55.7413 60.5754 55.7859C60.5754 55.8752 60.5754 55.9645 60.5754 56.0984C60.5754 56.2769 60.5314 56.4554 60.4874 56.6339C60.4874 56.7678 60.4874 56.5893 60.4433 56.7678C60.4433 56.9017 60.3993 57.0356 60.3553 57.1695C60.3553 57.2588 60.3553 57.3034 60.3553 57.3927V57.4819V57.5712C60.3112 57.839 60.2232 58.1514 60.1792 58.4192C60.0911 58.687 60.0471 58.9994 59.959 59.2672V59.3564V59.4457C59.915 59.535 59.8709 59.5796 59.8709 59.6689C59.8709 59.8027 59.7829 59.9366 59.7389 60.1152C59.7389 60.2044 59.7389 60.1152 59.6508 60.2491C59.6068 60.383 59.6508 60.383 59.6068 60.5168C59.6068 60.6061 59.5187 60.6954 59.5187 60.74C59.0784 62.0343 58.6381 63.3733 58.0657 64.6676C58.0657 64.6676 58.0657 64.7568 58.0217 64.8015V64.8907C57.9777 64.8907 57.8456 65.1139 57.8456 65.1139C57.7575 65.2478 57.7135 65.4263 57.6254 65.5602V65.6048V65.6941L57.5374 65.7833V65.828C57.4933 65.828 57.4493 65.828 57.4053 65.828C57.4053 65.828 57.4053 65.828 57.3612 65.828H57.3172C57.1411 65.828 57.009 65.828 56.8329 65.828C56.7448 65.828 56.6568 65.828 56.6127 65.828C56.6127 65.828 56.5247 65.828 56.4806 65.828C56.4806 65.828 56.3926 65.828 56.3486 65.828C56.0844 65.828 55.8642 65.828 55.6441 65.7833C55.6441 65.7833 55.6 65.7833 55.556 65.7833C55.556 65.7833 55.512 65.7833 55.468 65.7833C55.4239 65.7833 55.3359 65.7833 55.2918 65.7833C55.1597 65.7833 55.0717 65.7833 54.9396 65.7833C54.8956 65.7833 54.8075 65.7833 54.7635 65.7833C54.7194 65.7833 54.6314 65.7833 54.5874 65.7833C54.4553 65.7833 54.3672 65.7833 54.2351 65.7387C54.103 65.7387 54.015 65.7387 53.8829 65.6941C53.8388 65.6941 53.7948 65.6941 53.7068 65.6941C53.6627 65.6941 53.6187 65.6941 53.5306 65.6941C52.3859 65.5156 51.3732 65.2478 50.3164 64.9353C50.2724 64.9353 50.2284 64.9353 50.1844 64.9353C50.1403 64.9353 50.0963 64.9353 50.0523 64.8907C49.9642 64.8907 49.8761 64.8461 49.7441 64.8015C49.656 64.8015 49.5679 64.7568 49.4358 64.7122C49.3918 64.7122 49.3478 64.7122 49.3038 64.6676C49.2597 64.6676 49.2157 64.6676 49.1717 64.6229C48.9955 64.5337 48.7754 64.489 48.5993 64.3998C48.5552 64.3998 48.5112 64.3998 48.4672 64.3551C48.4672 64.3551 48.3791 64.3551 48.3351 64.3105C48.247 64.3105 48.159 64.2659 48.0709 64.2212C47.9829 64.2212 47.8508 64.132 47.7187 64.0874C47.6746 64.0874 47.6306 64.0874 47.5866 64.0427L47.4545 63.9535C47.3664 63.9535 47.2784 63.8642 47.1903 63.8196C47.0582 63.7749 46.9261 63.7303 46.794 63.641L46.3978 63.4625C46.2657 63.4179 46.1336 63.3286 46.0015 63.284C45.9575 63.284 45.8694 63.2394 45.8254 63.1947C45.7814 63.1947 45.6933 63.1501 45.6493 63.1055C45.5172 63.0162 45.3851 62.9716 45.253 62.8823C45.253 62.8823 45.1649 62.8823 45.1649 62.8377H45.0769C44.9888 62.7484 44.9448 62.7038 44.8567 62.6592C44.7246 62.5699 44.5926 62.5253 44.4605 62.436H44.3724C44.3724 62.3467 44.2843 62.3467 44.2843 62.3021C44.1963 62.3021 44.1523 62.2128 44.1082 62.1682C43.9761 62.0789 43.8 61.9897 43.6679 61.9004C43.5799 61.9004 43.5358 61.8112 43.4478 61.7665C43.3597 61.7665 43.3157 61.6773 43.2276 61.6326C43.1396 61.588 43.0515 61.4987 42.9194 61.4541C42.8754 61.4541 42.8314 61.4095 42.7873 61.3648C42.7433 61.3648 42.6993 61.3202 42.6552 61.2756C42.5231 61.1863 42.3911 61.0971 42.259 61.0078C42.1709 61.0078 42.1269 60.9185 42.0388 60.8739C41.9508 60.8293 41.9067 60.7846 41.8187 60.74C41.5545 60.5615 41.2903 60.383 41.0261 60.2044C40.85 60.0705 40.6739 59.9366 40.5418 59.8027C40.3657 59.6689 40.2336 59.535 40.0575 59.4011L39.9254 59.3118C39.9254 59.3118 39.8373 59.2672 39.7933 59.2225L39.5731 58.9994C39.4851 58.9101 39.397 58.8655 39.309 58.7762C39.2209 58.687 39.1328 58.6423 39.0448 58.5531C38.8687 58.3745 38.6925 58.2407 38.5164 58.0621C38.5164 58.0621 38.4724 58.0621 38.4284 58.0175C38.4284 58.0175 38.4284 58.0175 38.3403 57.9729C38.2963 57.9729 38.2522 57.8836 38.2082 57.839C38.1201 57.7497 38.0321 57.6604 37.944 57.5712C37.7679 57.3927 37.5918 57.2141 37.4157 57.0356C37.3276 56.9463 37.2395 56.8571 37.1515 56.7678C37.0634 56.6786 36.9754 56.5893 36.9313 56.5C36.7992 56.3661 36.7112 56.2322 36.5791 56.0984C36.5351 56.0091 36.447 55.9645 36.403 55.8752C36.3589 55.7859 36.2709 55.7413 36.2269 55.652C36.1828 55.5628 36.0948 55.5181 36.0507 55.4289L35.9627 55.3396C35.9627 55.3396 35.9186 55.2504 35.8746 55.2057C35.7425 55.0718 35.6104 54.8933 35.4783 54.7594C35.4343 54.6702 35.3903 54.6255 35.3463 54.5809C35.2582 54.447 35.1701 54.3131 35.0821 54.2238C35.038 54.1792 34.994 54.0899 34.95 54.0453C34.906 54.0007 34.8619 53.9114 34.8179 53.8668C34.7298 53.7329 34.6418 53.599 34.5537 53.4651C34.5537 53.4651 34.5097 53.4205 34.4657 53.3758C34.4657 53.3758 34.4657 53.3312 34.3776 53.2866C34.3776 53.2866 34.3776 53.2866 34.3776 53.2419C34.4657 53.2419 34.5097 53.2419 34.5977 53.2419C34.6858 53.2419 34.7739 53.2419 34.8619 53.2419C35.038 53.2419 35.2142 53.2419 35.3903 53.1973C35.5664 53.1973 35.7866 53.1527 35.9627 53.1081C36.1388 53.1081 36.3149 53.0634 36.5351 53.0188C36.6672 53.0188 36.7552 53.0188 36.8873 52.9742C36.9754 52.9742 37.0634 52.9742 37.1515 52.9295C37.1955 52.9295 37.2395 52.9295 37.2836 52.9295C37.3276 52.9295 37.3716 52.9295 37.4157 52.9295C37.5918 52.9295 37.8119 52.8403 37.9881 52.7956C38.6045 52.6617 39.2649 52.5278 39.9254 52.3493C40.0134 52.3493 40.0575 52.3493 40.1455 52.3047C40.2336 52.3047 40.2776 52.3047 40.3657 52.2601C40.5418 52.2154 40.6739 52.1708 40.85 52.1262C40.85 52.1262 40.9381 52.1262 40.9821 52.1262C40.9821 52.1262 41.0702 52.1262 41.1142 52.1262C41.2022 52.1262 41.2903 52.0815 41.3784 52.0369C41.5545 51.9923 41.6866 51.9476 41.8627 51.8584C42.8754 51.546 43.8881 51.0996 44.8567 50.6533C45.0328 50.5641 45.1649 50.5194 45.3411 50.4302C45.4291 50.4302 45.5172 50.3409 45.5612 50.3409C45.6493 50.3409 45.7373 50.2517 45.8254 50.207C46.0015 50.1178 46.1776 50.0285 46.3978 49.9392C46.4418 49.9392 46.4858 49.8946 46.5299 49.85C46.5739 49.85 46.6179 49.8053 46.662 49.7607C46.75 49.7161 46.8821 49.6714 46.9702 49.5822C47.0582 49.5375 47.1903 49.4929 47.2784 49.4037C47.3664 49.359 47.4985 49.2698 47.5866 49.2251C47.6746 49.1805 47.8067 49.0912 47.8948 49.0466C47.9829 49.002 48.1149 48.9127 48.203 48.8681C48.3351 48.7788 48.5112 48.6896 48.6873 48.6003C48.7754 48.5557 48.8635 48.511 48.9075 48.4664C48.9955 48.4218 49.0836 48.3771 49.1276 48.3325C49.2597 48.2432 49.4358 48.154 49.5679 48.0647C49.656 48.0647 49.7 47.9755 49.7881 47.9308C49.8321 47.9308 49.9202 47.8416 49.9642 47.7969C50.0523 47.7523 50.2284 47.6184 50.4045 47.5291C50.5806 47.4399 50.7567 47.2614 51.0209 47.0828C51.2411 46.9043 51.2411 46.9489 51.3291 46.8597C51.3291 46.8597 51.3732 46.8597 51.4172 46.815C51.4172 46.815 51.4612 46.815 51.5053 46.7704C51.5493 46.7704 51.5933 46.6811 51.6373 46.6365C51.7254 46.5473 51.8135 46.458 51.9456 46.4134C52.1657 46.2348 52.3418 46.1009 52.65 45.8331C52.7821 45.6993 52.9582 45.61 53.0903 45.4761C53.2665 45.3422 53.3985 45.2083 53.5747 45.0744L53.7068 44.9852C53.7068 44.9852 53.7948 44.8959 53.8388 44.8959C53.9269 44.8066 54.015 44.762 54.059 44.6727C54.1471 44.5835 54.1911 44.5388 54.2791 44.4496C54.3672 44.4049 54.4112 44.3157 54.4993 44.2711C54.6314 44.1372 54.7635 44.0033 54.9396 43.8694C54.9836 43.8247 55.0277 43.7801 55.0717 43.7355L55.1597 43.6462C55.2038 43.6016 55.2918 43.5123 55.3359 43.4677C55.4239 43.3784 55.556 43.2445 55.6441 43.1553C55.6881 43.1106 55.7321 43.066 55.7762 43.0214C55.7762 43.0214 55.8642 42.9321 55.9083 42.8875C56.0403 42.709 56.1724 42.5751 56.2605 42.4858C56.3486 42.3965 56.3926 42.3073 56.4806 42.2626C56.5687 42.1734 56.6127 42.0841 56.7008 41.9949C56.8329 41.8163 57.009 41.6378 57.0971 41.5039C57.0971 41.5039 57.2292 41.37 57.2292 41.3254C57.3612 41.1469 57.4933 40.9683 57.6254 40.8344C57.6694 40.7452 57.7575 40.7006 57.8015 40.6113C57.8456 40.522 57.9336 40.4774 57.9777 40.3881C58.0217 40.2989 58.1097 40.2096 58.1538 40.165C58.1978 40.0757 58.2859 39.9864 58.3299 39.8972C58.462 39.7187 58.5941 39.5401 58.7702 39.317C58.7702 39.317 58.8142 39.2277 58.8583 39.1831C58.8583 39.1831 58.9023 39.0938 58.9904 39.0046C59.0344 38.9153 59.1224 38.7814 59.1665 38.7368C59.2545 38.6029 59.3426 38.5136 59.3866 38.3797C59.4747 38.6029 59.6068 38.826 59.6948 39.0492C59.6948 39.0938 59.7389 39.1831 59.7829 39.2724C59.8269 39.4062 59.915 39.5848 59.959 39.674C60.003 39.7633 60.0471 39.8526 60.1351 39.9865C60.1792 40.0757 60.2232 40.2096 60.2672 40.2989C60.3553 40.522 60.4433 40.7006 60.4874 40.8344C61.5881 43.8247 62.2486 46.9936 62.4247 50.207M34.0694 50.7872C34.0694 50.7872 34.0254 50.7872 33.9813 50.7872C33.7612 50.7872 33.497 50.7872 33.2328 50.8319C33.1888 50.8319 33.1448 50.8319 33.1007 50.8319C33.0567 50.8319 32.9686 50.8319 32.8806 50.8319C32.7925 50.8319 32.6164 50.8319 32.5283 50.8319C32.3082 50.8319 32.5283 50.8319 32.088 50.8319C31.9559 50.6087 31.8679 50.3855 31.7358 50.1624C31.7358 50.0731 31.6477 49.9839 31.6037 49.8946C31.5597 49.7607 31.4716 49.5822 31.4276 49.4929C31.3836 49.4037 31.2955 49.3144 31.2515 49.1805C31.2515 49.1359 31.2074 49.0912 31.1634 49.002C31.1634 48.9573 31.1194 48.8681 31.0754 48.8234C30.9873 48.6003 30.8992 48.3771 30.8112 48.2432C29.5343 45.2083 28.7858 41.9502 28.4776 38.6921C28.4776 38.6921 28.4776 38.6921 28.4776 38.7814C28.4776 39.0046 28.4776 39.1385 28.5216 39.2724C28.5216 39.4062 28.5216 39.5401 28.5656 39.7633C28.5656 39.7187 28.5656 39.674 28.5656 39.674C28.5656 39.8079 28.5656 39.8526 28.5656 39.9418C28.5216 39.5848 28.5656 39.6294 28.6537 39.7187C28.6537 39.9418 28.6977 40.165 28.7418 40.3881C28.7418 40.3881 28.7418 40.4328 28.7418 40.4774V40.5667C28.7418 40.6113 28.7418 40.7006 28.7418 40.7452C28.7418 40.8791 28.7418 40.9683 28.7858 41.1022C28.7858 41.2361 28.7858 41.3254 28.8298 41.4146C28.8298 41.4593 28.8298 41.5039 28.8298 41.5932C28.8298 41.6378 28.8298 41.6824 28.8298 41.7717C28.8298 41.9949 28.9179 42.1734 28.9179 42.3519C28.9179 42.4412 28.9619 42.4858 29.0059 42.5751C29.05 42.7536 29.094 42.9767 29.138 43.1553C29.138 43.2445 29.138 43.3784 29.2261 43.4677C29.2261 43.557 29.2701 43.6908 29.3142 43.7801C29.3582 44.0033 29.4022 44.1818 29.4903 44.4049C29.5343 44.6281 29.6224 44.8066 29.6664 45.0298C29.6664 44.8959 29.6224 44.8066 29.5783 44.6727C29.5783 44.6281 29.5783 44.5388 29.5343 44.4942C29.5343 44.4496 29.5343 44.3603 29.4903 44.3157C29.4462 44.0925 29.3582 43.8247 29.3142 43.6016C29.3142 43.557 29.3142 43.4677 29.2701 43.4231C29.2701 43.3784 29.2701 43.2892 29.2261 43.2445C29.2261 43.1106 29.1821 42.9767 29.138 42.8429C29.138 42.709 29.094 42.5751 29.05 42.4412C29.05 42.3073 29.0059 42.1734 28.9619 42.0395C28.9619 42.0395 28.9619 42.0395 28.9619 41.9056C28.9619 41.7717 28.9179 41.6824 28.8739 41.5485C28.8739 41.4146 28.8298 41.3254 28.7858 41.1915C28.7858 40.9683 28.6977 40.7006 28.6537 40.522C28.6537 40.3435 28.6537 40.2096 28.6977 40.0311C28.6977 39.8972 28.6977 39.7633 28.6537 39.6294C28.6537 39.5401 28.6537 39.4955 28.6537 39.4062C28.6537 39.317 28.6537 39.2723 28.6537 39.2277C28.6537 39.0938 28.6537 38.9599 28.6537 38.826C28.6537 38.6921 28.6537 38.5582 28.6537 38.469C28.6537 38.2012 28.6537 37.978 28.6537 37.7103C28.6537 37.5764 28.6537 37.4425 28.6537 37.3086C28.6537 37.1747 28.6537 37.0408 28.6537 36.9069C28.6537 36.9069 28.6537 36.8176 28.6537 36.773C28.6537 36.8623 28.6977 36.9069 28.7418 37.0408C28.7418 37.2193 28.7418 37.3978 28.7418 37.5764C28.7418 37.7995 28.7858 38.0673 28.8298 38.3351C28.8298 38.4244 28.8298 38.469 28.8298 38.5582C28.8298 38.6475 28.8298 38.6921 28.8298 38.7814C28.8298 38.9153 28.8298 39.0492 28.8739 39.2277V39.4509C28.8739 39.4509 28.8739 39.5401 28.8739 39.5848V39.674C28.8739 39.8079 28.8739 39.9864 28.9179 40.1203C28.9179 40.2096 28.9179 40.2542 28.9179 40.3435C28.9179 40.3435 28.9179 40.4328 28.9179 40.4774V40.5667C28.9179 40.7006 28.9619 40.8791 29.0059 41.013C29.05 41.1469 29.094 41.013 29.094 40.9237C29.094 40.7898 29.094 40.6559 29.05 40.522C29.05 40.3881 29.05 40.2542 29.0059 40.1203C29.0059 39.9864 29.0059 39.8526 28.9619 39.7187C28.9619 39.6294 28.9619 39.5848 28.9619 39.4955C28.9619 39.4062 28.9619 39.3616 28.9619 39.2724C28.9619 39.1831 29.05 39.1831 29.094 39.2724C29.094 39.3616 29.1821 39.5401 29.1821 39.7633C29.1821 39.9418 29.2261 40.165 29.2701 40.3881C29.2701 40.522 29.2701 40.6113 29.3142 40.7452C29.3142 40.8791 29.3142 40.9683 29.3582 41.1022C29.3582 41.2361 29.3582 41.3254 29.4022 41.4593C29.4022 41.5485 29.4022 41.6824 29.4462 41.7717C29.4462 41.9502 29.5343 42.1288 29.5343 42.2626C29.7985 43.3338 30.1067 44.3603 30.4589 45.4315C30.503 45.5654 30.547 45.6993 30.591 45.8331L30.6791 46.0117C30.6791 46.0563 30.6791 46.1456 30.7671 46.1902C30.8552 46.458 30.9433 46.7258 31.0754 46.9489C31.1634 47.2167 31.2955 47.4399 31.3836 47.7077C31.4276 47.8416 31.5156 47.9755 31.5597 48.1093C31.6037 48.2432 31.6918 48.3771 31.7358 48.511C31.6918 48.3771 31.6037 48.2432 31.5597 48.0647C31.5597 47.9755 31.5157 47.9308 31.4716 47.8416C31.4716 47.7523 31.4276 47.7077 31.3836 47.6184C31.3395 47.4845 31.2515 47.3506 31.2074 47.2167C31.1634 47.0828 31.0754 46.9489 31.0313 46.815C30.9873 46.6811 30.9433 46.5473 30.8552 46.4134C30.8552 46.3687 30.8112 46.2795 30.7671 46.2348V46.1456V46.0563C30.6791 45.7885 30.591 45.5207 30.503 45.2529C30.503 45.2529 30.503 45.2529 30.4589 45.1637C30.3709 44.8959 30.2828 44.6281 30.2388 44.3603C30.1507 44.0925 30.1067 43.8247 30.0186 43.557C30.0186 43.5123 30.0186 43.4231 29.9746 43.3338C29.9746 43.2445 29.9746 43.1999 29.9306 43.1106C29.9306 42.9767 29.8425 42.8429 29.8425 42.709C29.8425 42.6643 29.8425 42.5751 29.7985 42.5304C29.7985 42.5304 29.7985 42.4858 29.7985 42.4412C29.7985 42.3965 29.7985 42.3965 29.7985 42.3519C29.7985 42.218 29.7545 42.1288 29.7104 41.9949C29.7104 41.7717 29.6224 41.5039 29.5783 41.1915C29.5783 41.0576 29.5343 40.8791 29.4903 40.7452C29.4903 40.6559 29.4903 40.6113 29.4903 40.5667C29.4903 40.522 29.4903 40.4328 29.4903 40.3881C29.5783 40.4774 29.7104 40.7898 29.7985 41.1915C29.7985 40.9683 29.7104 40.7898 29.7104 40.5667C29.7104 40.4774 29.7104 40.3881 29.7104 40.2989C29.7104 40.2096 29.7104 40.1203 29.7104 40.0311C29.7104 39.9418 29.7104 39.8526 29.7104 39.7633C29.7104 39.7633 29.7104 39.674 29.7104 39.6294C29.7104 39.6294 29.7104 39.5401 29.7104 39.4955C29.7104 39.317 29.6664 39.1385 29.6664 39.0938C29.6664 39.0938 29.6664 38.8707 29.6664 38.826C29.6664 38.7368 29.6664 38.6921 29.6664 38.6921C29.6664 38.6921 29.6664 38.6029 29.6664 38.5136C29.6664 38.2905 29.6664 38.2905 29.6664 38.1119C29.6664 37.7103 29.6224 37.2639 29.5783 36.8623C29.5783 36.8176 29.5783 36.773 29.5783 36.7284V36.5945C29.5783 36.5052 29.5783 36.3713 29.5783 36.2821C29.5783 36.1928 29.5783 36.0589 29.5783 35.9696V35.7911C29.5783 35.7465 29.5783 35.7018 29.5783 35.6126C29.5783 35.5233 29.5783 35.3448 29.5783 35.3448C29.5783 35.2555 29.5783 35.3448 29.5783 35.2109C29.5783 35.1663 29.5783 35.2109 29.5783 35.077C29.5783 34.9877 29.5783 34.8985 29.5783 34.8092C29.5783 34.72 29.5783 34.6307 29.5783 34.5414C29.5783 34.3629 29.5783 34.1844 29.5783 34.0059C29.5783 33.7827 29.5783 33.6042 29.5783 33.381C29.5783 33.2918 29.5783 33.1579 29.5783 33.0686C29.5783 33.024 29.5783 32.9793 29.5783 32.8901C29.5783 32.8454 29.5783 32.8008 29.5783 32.7115C29.6224 32.2652 29.6664 31.8636 29.7104 31.5511C29.7104 31.4172 29.7104 31.5958 29.7545 31.4172C29.9306 30.2568 30.1948 29.0964 30.503 27.8914C30.503 27.8021 30.503 27.8914 30.591 27.7575C30.6351 27.5789 30.591 27.6236 30.6351 27.4897C30.6351 27.4004 30.7231 27.3112 30.7231 27.2665C31.1194 25.9276 31.6037 24.544 32.1761 23.2051L32.2642 22.9819C32.2642 22.8927 32.3522 22.848 32.3522 22.7588C32.4403 22.6249 32.4843 22.4463 32.5724 22.3125C32.5724 22.2232 32.6604 22.1786 32.7045 22.0893C32.7045 22.0447 32.7045 22 32.7045 22V21.9554C32.7045 21.9108 32.7485 21.8661 32.7925 21.7769C32.7925 21.7769 32.7925 21.7322 32.7925 21.6876C32.8366 21.6876 32.8806 21.6876 32.9246 21.6876C32.9246 21.6876 32.9686 21.6876 33.0127 21.6876C33.1007 21.6876 33.1888 21.6876 33.2769 21.6876C33.453 21.6876 33.5851 21.6876 33.7612 21.6876C33.8052 21.6876 33.8933 21.6876 33.9373 21.6876C33.9813 21.6876 34.0694 21.6876 34.1134 21.6876C34.2455 21.6876 34.3776 21.6876 34.4657 21.6876C34.5977 21.6876 34.7298 21.6876 34.8179 21.6876C34.95 21.6876 35.038 21.6876 35.1701 21.6876C35.3022 21.6876 35.3903 21.6876 35.5224 21.6876C35.5664 21.6876 35.6545 21.6876 35.6985 21.6876C35.6985 21.6876 35.7425 21.6876 35.7866 21.6876C35.7866 21.6876 35.8306 21.6876 35.8746 21.6876C36.0948 21.6876 36.3149 21.7769 36.5351 21.8215C37.1515 21.9108 37.6798 22.0447 38.2522 22.1786C38.3403 22.1786 38.3843 22.1786 38.4724 22.2232C38.5604 22.2678 38.6045 22.2232 38.6925 22.2678C38.8246 22.2678 38.9567 22.3571 39.0888 22.3571C39.2209 22.3571 39.353 22.4463 39.4851 22.4463C39.6172 22.4463 39.7493 22.5356 39.8813 22.5802C40.6739 22.8034 41.5105 23.1158 42.1709 23.3836C42.303 23.3836 42.4351 23.4729 42.5672 23.5175C42.6552 23.5175 42.7433 23.6068 42.8754 23.6514C42.9194 23.6514 42.9634 23.6514 43.0075 23.696H43.0955L43.1836 23.7407C43.4478 23.8745 43.7119 23.9638 43.9761 24.0977C44.2403 24.2316 44.5045 24.3209 44.7687 24.4548C44.8567 24.4548 44.9008 24.544 44.9888 24.544C45.0769 24.544 45.1209 24.6333 45.209 24.6333C45.3411 24.7225 45.4732 24.7672 45.6052 24.8564C45.6052 24.8564 45.6933 24.8564 45.6933 24.9011H45.7814C45.7814 24.9457 46.0015 25.0796 46.0015 25.0796C46.1336 25.1689 46.2657 25.2135 46.3978 25.3027C46.3978 25.3027 46.4858 25.3027 46.5299 25.3474C46.5299 25.3474 46.6179 25.3474 46.662 25.392C46.75 25.392 46.7941 25.4813 46.8821 25.5259C47.0142 25.6152 47.1903 25.7044 47.3224 25.7937C47.4985 25.9276 47.7187 26.0615 47.9388 26.1954C48.0269 26.1954 48.0709 26.2846 48.159 26.3293L48.3791 26.4632C48.5112 26.5524 48.6433 26.6417 48.8194 26.731C48.8194 26.731 48.9075 26.7756 48.9075 26.8202H48.9515L48.9955 26.9095C49.0836 26.9541 49.1276 26.9987 49.2157 27.0434C49.3478 27.1326 49.4799 27.2219 49.612 27.3558C50.2724 27.8914 50.9769 28.4269 51.6373 29.0071C52.3418 29.6766 53.1784 30.48 53.7948 31.1495C53.8388 31.2387 53.9269 31.2833 53.9709 31.3726C54.015 31.4619 54.103 31.5065 54.1471 31.5958C54.2791 31.7297 54.4112 31.9082 54.5433 32.0421C54.5433 32.0421 54.5874 32.1313 54.6314 32.176C54.6314 32.176 54.6754 32.2652 54.7194 32.3099C54.7635 32.3991 54.8515 32.4438 54.8956 32.533C55.0277 32.7115 55.1597 32.8454 55.2918 33.024C55.3359 33.1132 55.3799 33.1579 55.4239 33.2025C55.512 33.3364 55.6 33.4703 55.7321 33.6042C55.8202 33.7381 55.9083 33.872 56.0403 34.0059C56.1284 34.1397 56.2165 34.2736 56.3486 34.4075C56.4366 34.5414 56.5247 34.6753 56.6127 34.8092C56.7008 34.9431 56.7889 35.077 56.8769 35.2109C56.965 35.3448 57.053 35.4787 57.1411 35.6126C57.1411 35.6126 57.1411 35.6572 57.1851 35.7018C57.1851 35.7018 57.1851 35.7018 57.1851 35.7465C57.1851 35.7465 57.1411 35.8357 57.0971 35.8804C57.053 35.9696 57.009 36.0143 56.965 36.1035C56.965 36.1035 56.9209 36.1928 56.8769 36.1928L56.7889 36.2821C56.7448 36.3713 56.7008 36.4159 56.6568 36.5052C56.5687 36.6837 56.4366 36.8176 56.3486 36.9962C56.2605 37.13 56.1284 37.3086 56.0403 37.4425C55.9523 37.5317 55.9083 37.621 55.8202 37.7549C55.6881 37.8888 55.6 38.0673 55.468 38.2012C55.4239 38.2905 55.3359 38.3797 55.2918 38.4244C55.2918 38.4244 55.2478 38.5136 55.2038 38.5582C55.2038 38.5582 55.1597 38.6475 55.1157 38.6921C55.0277 38.826 54.8956 38.9599 54.8075 39.0492C54.7194 39.1831 54.5874 39.317 54.4993 39.4509C54.3672 39.5848 54.2791 39.7187 54.1471 39.8526C54.103 39.9418 54.015 39.9865 53.9709 40.0757C53.9269 40.1203 53.8388 40.2096 53.7948 40.2542C53.3985 40.6559 52.8262 41.2361 52.3859 41.6824C52.2978 41.7717 52.2097 41.861 52.0776 41.9502L51.9456 42.0841C51.9015 42.1287 51.8575 42.1734 51.8135 42.218C51.5933 42.3965 51.4172 42.5751 51.197 42.7536C50.9769 42.9321 50.8008 43.1106 50.5806 43.2892C50.4926 43.3784 50.3605 43.4677 50.2724 43.557L49.9642 43.8247C49.8761 43.8694 49.8321 43.9586 49.7441 44.0033C49.656 44.0479 49.612 44.0925 49.5239 44.1818C49.3918 44.2711 49.2157 44.4049 49.0836 44.4942C49.0836 44.4942 48.9955 44.5388 48.9515 44.5835C48.9515 44.5835 48.8635 44.6281 48.8194 44.6727C48.7314 44.7174 48.6433 44.8066 48.5552 44.8513C48.3791 44.9852 48.159 45.119 47.9829 45.2529C47.7627 45.3868 47.5866 45.5207 47.3664 45.6546C47.1463 45.7885 46.9261 45.9224 46.75 46.0563C46.662 46.0563 46.6179 46.1456 46.5299 46.1902C46.4418 46.1902 46.3537 46.2795 46.2657 46.3241C46.0896 46.4134 45.9135 46.5026 45.7814 46.5919C45.6933 46.6365 45.6052 46.6811 45.5612 46.7258C45.4732 46.7258 45.3851 46.815 45.3411 46.8597C45.209 46.9489 45.0769 46.9936 44.9448 47.0828C44.9008 47.0828 44.8127 47.1275 44.7246 47.1721C44.6366 47.1721 44.5485 47.2614 44.4605 47.306C44.3724 47.3506 44.2403 47.3952 44.1523 47.4845C44.1082 47.4845 44.0202 47.5291 43.9761 47.5738C43.9321 47.5738 43.844 47.6184 43.8 47.663C43.5358 47.7969 43.5799 47.7523 43.4478 47.7969C43.3157 47.8416 43.2276 47.8862 43.0955 47.9755C42.9634 48.0201 42.8754 48.0647 42.7433 48.1093C42.6112 48.154 42.4791 48.1986 42.347 48.2879C42.347 48.2879 42.303 48.2879 42.259 48.2879C42.259 48.2879 42.1709 48.2879 42.1269 48.2879C42.0388 48.2879 41.9508 48.3325 41.8627 48.3771C41.6866 48.4664 41.5105 48.511 41.3343 48.6003C41.1142 48.6896 40.9381 48.7342 40.7179 48.8234C40.6299 48.8234 40.4978 48.9127 40.4097 48.9127C40.3216 48.9127 40.1896 48.9573 40.1015 49.002C39.9254 49.0466 39.7493 49.1359 39.5291 49.1805C39.353 49.2251 39.1328 49.2698 38.9567 49.359C38.6485 49.4483 38.5604 49.4929 38.3843 49.5376C38.0761 49.6268 37.8119 49.6714 37.5918 49.7161C37.3716 49.7607 37.1955 49.8053 37.0634 49.85C36.9754 49.85 36.8433 49.85 36.7552 49.9392C36.7112 49.9392 36.6231 49.9392 36.5791 49.9392C36.5351 49.9392 36.447 49.9392 36.403 49.9392C36.1828 49.9392 35.9627 50.0285 35.7866 50.0731C35.7425 50.0731 35.6104 50.0731 35.5664 50.0731C35.3463 50.0731 35.1261 50.1624 34.906 50.1624C34.8619 50.1624 34.8179 50.1624 34.7739 50.1624C34.7298 50.1624 34.6858 50.1624 34.6418 50.1624C34.5537 50.1624 34.4657 50.1624 34.3336 50.1624C34.2455 50.1624 34.1134 50.1624 34.0254 50.1624C33.9813 50.1624 33.9373 50.1624 33.8492 50.1624C33.8492 50.1624 33.8052 50.1624 33.7612 50.1624M28.6097 50.1624C28.5216 50.1624 28.4336 50.1624 28.3455 50.1624C28.1694 50.1624 28.0373 50.1624 27.9052 50.1178C27.685 50.1178 27.4649 50.1178 27.2007 50.0731C26.9806 50.0731 26.7604 49.9839 26.5843 49.9839H26.5403C23.4141 49.4483 20.332 48.4218 17.5141 46.9936C17.5141 46.9936 17.5582 46.9936 17.6022 46.9936C17.7783 47.0828 17.9104 47.1275 18.0425 47.2167C18.0865 47.2167 18.1746 47.2614 18.2186 47.306C18.2186 47.306 18.3067 47.306 18.3507 47.3506C18.3507 47.3506 18.4388 47.3506 18.4828 47.3952C18.4828 47.3952 18.3947 47.3952 18.4388 47.3506C18.5708 47.3952 18.6149 47.4399 18.7029 47.4399C18.3947 47.306 18.4388 47.2614 18.5708 47.2614C18.9231 47.4399 19.3634 47.6184 19.7596 47.7969C19.8477 47.7969 19.9798 47.8862 20.0679 47.9308C20.1119 47.9308 20.1559 47.9308 20.1999 47.9755C20.244 47.9755 20.288 47.9755 20.332 48.0201C20.5082 48.1093 20.6843 48.154 20.8604 48.2432C20.9485 48.2432 20.9925 48.2432 21.1246 48.2432C21.3007 48.2879 21.4768 48.3771 21.697 48.4218C21.785 48.4218 21.8731 48.4664 21.9611 48.511C22.0492 48.511 22.1373 48.5557 22.2694 48.6003C22.4455 48.6449 22.6656 48.7342 22.8417 48.7788C22.8858 48.7788 22.9298 48.7788 22.9738 48.7788C23.0179 48.7788 23.0619 48.7788 23.1059 48.7788C23.194 48.7788 23.3261 48.8234 23.4141 48.8681C23.282 48.8681 23.194 48.7788 23.0619 48.7788C23.0179 48.7788 22.9298 48.7788 22.8858 48.7342C22.8417 48.7342 22.7537 48.7342 22.7097 48.6896C22.4895 48.6003 22.2694 48.5557 22.0052 48.4664C21.5208 48.3325 21.0365 48.154 20.5522 47.9755C20.5522 47.9755 20.5522 47.9755 20.4641 47.8862C20.4201 47.8862 20.3761 47.8862 20.288 47.8416C20.244 47.8416 20.1559 47.8416 20.1119 47.7969C19.9798 47.7969 19.8917 47.7077 19.7596 47.663C19.6716 47.663 19.5395 47.5738 19.4514 47.5291C19.4074 47.5291 19.3634 47.5291 19.3194 47.4845C19.2753 47.4845 19.2313 47.4845 19.1873 47.4399C19.0552 47.3506 18.9231 47.2614 18.791 47.1275C18.747 47.1275 18.6589 47.0828 18.6149 47.0382C18.5708 47.0382 18.4828 46.9936 18.4388 46.9489C18.3067 46.9043 18.2186 46.815 18.0865 46.7704C17.9544 46.7258 17.8664 46.6365 17.7783 46.5919C17.7783 46.5919 17.7343 46.5919 17.6902 46.5473C17.6462 46.5026 17.6462 46.5473 17.6022 46.5026C17.5582 46.5026 17.5141 46.458 17.4261 46.4134C17.2059 46.2795 17.0298 46.1456 16.8096 46.0563C16.5895 45.9224 16.3693 45.7885 16.1492 45.6546C16.1492 45.6546 16.1052 45.5654 16.0611 45.5654C16.1492 45.5654 16.1932 45.5654 16.3253 45.61C16.4574 45.6993 16.6335 45.7885 16.7656 45.8778C16.8096 45.8778 16.8537 45.9224 16.9417 45.967C16.9858 45.967 17.0298 46.0117 17.1179 46.0563C17.2499 46.1009 17.338 46.1456 17.4701 46.2348C17.6022 46.2795 17.6902 46.3687 17.8223 46.4134C17.9544 46.458 18.0865 46.5472 18.2186 46.5919C18.3507 46.6365 18.4828 46.7258 18.6149 46.7704C18.747 46.815 18.8791 46.9043 19.0111 46.9489C19.1432 46.9936 19.2753 47.0828 19.4074 47.1275C19.4514 47.1275 19.5395 47.1721 19.5835 47.2167C19.6716 47.2167 19.7156 47.2614 19.8037 47.306C19.9358 47.306 19.8477 47.2614 19.8037 47.1721C19.5395 47.0828 19.3194 46.9489 19.0992 46.8597C18.9671 46.815 18.835 46.7704 18.747 46.6811C18.6149 46.6365 18.4828 46.5473 18.3947 46.5026C18.2626 46.3241 18.4828 46.3687 18.8791 46.5026C19.2313 46.6365 19.6716 46.8597 20.0679 47.0382C20.5082 47.2167 20.9044 47.3506 21.1246 47.4399C22.1373 47.7523 23.15 48.0647 24.1626 48.3325C24.2947 48.3325 24.4268 48.3771 24.5589 48.4218H24.735C24.7791 48.4664 24.8671 48.511 24.9112 48.511C25.1753 48.5557 25.4395 48.6003 25.7037 48.6449C25.7477 48.6449 25.8358 48.6449 25.9238 48.6449C25.9679 48.6449 26.0559 48.6449 26.1 48.6449C26.2321 48.6449 26.3641 48.6449 26.4962 48.6896C26.5843 48.6896 26.6283 48.6896 26.7164 48.6896C26.7604 48.6896 26.8485 48.6896 26.9365 48.6896C27.0686 48.6896 27.2007 48.6896 27.3328 48.7342C26.7604 48.6449 26.188 48.5557 25.6156 48.4664C25.4835 48.4664 25.3515 48.4218 25.2194 48.3771C25.1313 48.3771 25.0873 48.3771 24.9992 48.3771H24.9112H24.8231C24.5589 48.3325 24.2947 48.2432 24.0306 48.154C24.0306 48.154 24.0306 48.154 23.8985 48.154C23.6343 48.0647 23.3701 48.0201 23.1059 47.9308C22.8417 47.8416 22.5776 47.7523 22.3134 47.7077C22.2694 47.7077 22.1813 47.7077 22.1373 47.663C22.0932 47.663 22.0052 47.663 21.9611 47.6184C21.8291 47.6184 21.697 47.5291 21.5649 47.4845C21.5208 47.4845 21.4328 47.4845 21.3888 47.4399C21.3447 47.4399 21.2567 47.4399 21.2126 47.3952C21.0805 47.3952 20.9925 47.306 20.8604 47.2614C20.7723 47.2167 20.6843 47.1721 20.5522 47.1275C20.4201 47.0828 20.288 47.0382 20.1559 46.9489C20.0238 46.9043 19.8917 46.8597 19.7596 46.7704C19.7156 46.7704 19.6276 46.7258 19.5835 46.6811C19.5395 46.6811 19.4955 46.6365 19.4514 46.5919C19.5395 46.5919 19.6276 46.5919 19.7596 46.5919C19.8917 46.5919 20.0679 46.6811 20.288 46.7258C20.1119 46.6365 19.8917 46.5919 19.7596 46.5026C19.5835 46.4134 19.4074 46.3241 19.2753 46.2795C19.0111 46.1456 18.5708 45.967 18.4388 45.8778L18.2186 45.7885C18.0865 45.7439 18.0865 45.7885 17.9544 45.6546C17.7343 45.5207 17.7343 45.5654 17.6462 45.4761C17.6022 45.4761 17.5582 45.4315 17.5141 45.3868C17.4701 45.3868 17.4261 45.3868 17.382 45.2976C17.294 45.2529 17.2059 45.2083 17.1179 45.1637C17.0298 45.119 16.9417 45.0744 16.8537 45.0298L16.7216 44.9405C16.6776 44.9405 16.6335 44.8959 16.5895 44.8513C16.4134 44.762 16.2373 44.6281 16.0611 44.5388L15.929 44.4496C15.885 44.4496 15.841 44.4049 15.797 44.3603C15.7089 44.3157 15.6208 44.2711 15.5328 44.1818C15.4447 44.1372 15.3126 44.0479 15.3126 44.0479C15.2686 44.0033 15.3126 44.0479 15.2246 43.9586C15.1805 43.9586 15.2246 43.9586 15.1365 43.914C15.0044 43.8247 14.8723 43.7355 14.7402 43.6462C14.6081 43.557 14.4761 43.4677 14.344 43.3784C14.1678 43.2445 13.9917 43.1553 13.8596 43.0214C13.8596 43.0214 13.7716 42.9767 13.7275 42.9321C13.7275 42.9321 13.6395 42.8875 13.5955 42.8429C13.5074 42.7982 13.4193 42.709 13.3313 42.6643C13.2432 42.6197 13.1552 42.5304 13.0671 42.4858C13.0671 42.4858 12.979 42.4412 12.935 42.3965C12.935 42.3965 12.935 42.3965 12.891 42.3519C12.891 42.3519 12.891 42.3519 12.8469 42.3519C12.7149 42.218 12.5387 42.1288 12.4507 41.9949C12.3186 41.9056 12.4947 41.9949 12.3626 41.861C11.526 41.1469 10.6454 40.3435 9.80888 39.4509C9.76485 39.3616 9.80888 39.4509 9.72082 39.317C9.58873 39.1831 9.63276 39.2277 9.50067 39.1385C9.45664 39.0492 9.41261 39.0046 9.36858 38.9599C8.44395 37.9334 7.51932 36.8623 6.72678 35.7018C6.63872 35.568 6.55066 35.4341 6.4626 35.3002C6.37454 35.1663 6.28648 35.0324 6.19842 34.8985C6.19842 34.8985 6.15439 34.8092 6.11036 34.7646V34.6753H6.06633C6.06633 34.6307 6.11036 34.5861 6.15439 34.5414C6.15439 34.4968 6.15439 34.4522 6.15439 34.4522L6.24245 34.3629C6.33051 34.229 6.41857 34.0951 6.50663 33.9612C6.59469 33.8273 6.68275 33.6934 6.77081 33.5595C6.9029 33.3364 7.03499 33.1579 7.21111 32.9347C7.3432 32.7562 7.47529 32.533 7.65141 32.3545C7.7835 32.176 7.95962 31.9974 8.09171 31.8189C8.2238 31.6404 8.35589 31.4619 8.53201 31.2833C8.62007 31.1495 8.70813 31.0602 8.79619 30.9263C8.84022 30.8817 8.88425 30.7924 8.92828 30.7478C8.97231 30.7031 9.01634 30.6585 9.06037 30.5692C9.14843 30.48 9.23649 30.3461 9.32455 30.2568C9.36858 30.2122 9.41261 30.1676 9.45664 30.1229C9.45664 30.0783 9.5447 30.0337 9.58873 29.989C9.76485 29.8105 9.985 29.5874 10.1611 29.4088C10.3372 29.2303 10.5574 29.0071 10.7335 28.8286C10.7335 28.8286 10.8216 28.7394 10.8656 28.7394C10.8656 28.7394 10.9537 28.6501 10.9977 28.6501C11.0857 28.5608 11.1298 28.5162 11.2178 28.4269C11.3499 28.293 11.526 28.1592 11.7022 28.0253C11.8343 27.8914 12.0104 27.7575 12.1425 27.6236C12.1425 27.6236 12.2305 27.5789 12.2305 27.5343C12.2305 27.5343 12.3186 27.4897 12.3186 27.4451C12.4066 27.4004 12.4507 27.3112 12.5387 27.2665C12.6268 27.1773 12.7149 27.088 12.8469 26.9987C12.935 26.9541 13.0231 26.8648 13.1111 26.8202C13.1992 26.7756 13.2872 26.6863 13.3753 26.6417C13.5074 26.5524 13.5955 26.4632 13.7275 26.3739C13.8596 26.2846 13.9477 26.1954 14.0798 26.1061C14.2119 26.0168 14.2999 25.9276 14.432 25.8383C14.4761 25.8383 14.5641 25.7491 14.6081 25.7044C14.6522 25.7044 14.7402 25.6152 14.7843 25.5705C14.9164 25.4813 15.0484 25.392 15.1805 25.3027C15.1805 25.3027 15.2246 25.3027 15.2686 25.2581H15.3567C15.4007 25.1689 15.4887 25.1242 15.5328 25.0796C15.6649 24.9903 15.797 24.9011 15.929 24.8564H16.0171C16.0171 24.8118 16.1052 24.7225 16.1052 24.7225C16.1492 24.7225 16.2373 24.6333 16.2813 24.5886C16.4134 24.4994 16.5895 24.4101 16.7216 24.3209C16.8096 24.2762 16.8537 24.2316 16.9417 24.187C17.0298 24.187 17.0738 24.0977 17.1619 24.0531C17.2499 24.0084 17.382 23.9638 17.4701 23.8745C17.5141 23.8745 17.5582 23.8299 17.6462 23.7853C17.6902 23.7853 17.7343 23.7407 17.8223 23.696C17.9544 23.6068 18.1305 23.5621 18.2626 23.4729C18.3507 23.4729 18.3947 23.3836 18.4828 23.339C18.5708 23.339 18.6149 23.2497 18.7029 23.2497C19.0111 23.1158 19.2753 22.9373 19.5835 22.848C19.7596 22.7588 19.9798 22.6695 20.1559 22.5802C20.332 22.491 20.5522 22.4463 20.7283 22.3571H20.8604C20.9044 22.2678 20.9485 22.2678 20.9925 22.2232L21.3007 22.1339C21.3888 22.1339 21.4768 22.0447 21.6089 22C21.697 22 21.8291 21.9108 21.9171 21.8661C22.1373 21.7769 22.3574 21.7322 22.6216 21.643C22.6216 21.643 22.6656 21.643 22.7097 21.643C22.7097 21.643 22.7537 21.643 22.7977 21.643C22.8417 21.643 22.9298 21.643 22.9738 21.5984C23.1059 21.5984 23.238 21.5091 23.3261 21.4645C23.5903 21.3752 23.8104 21.3306 24.0746 21.2413C24.2067 21.2413 24.2947 21.1967 24.4268 21.152C24.5589 21.152 24.647 21.1074 24.7791 21.0628C24.9552 21.0628 25.1313 20.9735 25.3074 20.9289C25.3955 20.9289 25.4835 20.9289 25.5716 20.8842C25.6597 20.8842 25.7477 20.8842 25.8358 20.8396C25.9238 20.8396 26.0119 20.8396 26.1 20.795C26.144 20.795 26.188 20.795 26.2321 20.795C26.2761 20.795 26.3201 20.795 26.3641 20.795C26.5403 20.795 26.7604 20.7057 26.9806 20.7057C26.9806 20.7057 27.0686 20.7057 27.1127 20.7057C27.1127 20.7057 27.2007 20.7057 27.2447 20.7057C27.3768 20.7057 27.553 20.7057 27.7291 20.6611C27.8171 20.6611 27.9052 20.6611 27.9492 20.6611C28.0373 20.6611 28.1253 20.6611 28.1694 20.6611C28.3455 20.6611 28.4776 20.6611 28.6537 20.6165C28.6537 20.6165 28.7418 20.6165 28.7858 20.6165C28.7858 20.6165 28.8739 20.6165 28.9179 20.6165C28.9179 20.6165 28.9179 20.6165 28.9619 20.6165C28.9619 20.6611 28.9179 20.7504 28.8739 20.795C28.8739 20.8843 28.7858 20.9735 28.7418 21.0628C28.6537 21.2413 28.6097 21.3752 28.5216 21.5537C28.4336 21.7322 28.3895 21.9108 28.3015 22.0893C28.2134 22.2678 28.1694 22.4463 28.0813 22.6249C28.0813 22.7588 27.9933 22.848 27.9492 22.9819C27.9492 23.0712 27.8612 23.1604 27.8612 23.2497C27.8612 23.2497 27.8612 23.339 27.8171 23.3836C27.8171 23.4282 27.8171 23.4729 27.7731 23.5175C27.7291 23.696 27.641 23.8745 27.597 24.0977C27.3768 24.6779 27.2007 25.3474 27.0246 26.0615C27.0246 26.1061 27.0246 26.1954 26.9806 26.2846C26.9365 26.3739 26.9806 26.4185 26.9365 26.5078C26.9365 26.6863 26.8485 26.8202 26.8044 26.9987C26.7604 27.1773 26.7164 27.3558 26.6724 27.5343C26.6724 27.7128 26.5843 27.8914 26.5843 28.0253C26.3641 29.0964 26.188 30.1676 26.0559 31.2833C26.0559 31.4619 26.0559 31.6404 26.0119 31.8189C26.0119 31.9082 26.0119 31.9974 26.0119 32.0867C26.0119 32.176 26.0119 32.2652 26.0119 32.3545C26.0119 32.533 26.0119 32.7562 25.9679 32.9793C25.9679 33.024 25.9679 33.1132 25.9679 33.1579C25.9679 33.2025 25.9679 33.2918 25.9679 33.3364C25.9679 33.4703 25.9679 33.5595 25.9679 33.6934C25.9679 33.8273 25.9679 33.9166 25.9679 34.0505C25.9679 34.1844 25.9679 34.2736 25.9679 34.4075C25.9679 34.5414 25.9679 34.6307 25.9679 34.7646C25.9679 34.8092 25.9679 34.8985 25.9679 34.9431V35.0324V35.1216C25.9679 35.3002 25.9679 35.4787 25.9679 35.6572C25.9679 35.7465 25.9679 35.8357 25.9679 35.925C25.9679 35.9696 25.9679 36.0143 25.9679 36.0589C25.9679 36.1035 25.9679 36.1482 25.9679 36.1928C25.9679 36.3713 25.9679 36.5498 25.9679 36.7284C25.9679 36.8176 25.9679 36.9069 25.9679 36.9515C25.9679 37.0408 25.9679 37.0854 25.9679 37.1747C25.9679 37.3086 25.9679 37.4871 25.9679 37.6656C25.9679 37.7103 25.9679 37.7549 25.9679 37.8441C25.9679 37.8441 25.9679 37.8888 25.9679 37.9334C25.9679 37.9334 25.9679 37.978 25.9679 38.0227C25.9679 38.1566 25.9679 38.2905 26.0119 38.4244C26.0119 38.7368 26.0119 38.6921 26.0119 38.826C26.0119 38.9599 26.0119 39.0938 26.0559 39.2277C26.0559 39.3616 26.0559 39.4955 26.1 39.6294C26.1 39.7187 26.1 39.7633 26.1 39.8526C26.1 39.9418 26.1 39.9865 26.1 40.0757C26.1 40.2096 26.1 40.3881 26.188 40.5667C26.188 40.6559 26.188 40.7452 26.2321 40.8344C26.2321 40.8791 26.2321 40.9237 26.2321 40.9683C26.2321 41.013 26.2321 41.0576 26.2321 41.1022C26.2321 41.3254 26.3201 41.5485 26.3641 41.7271C26.3641 41.7717 26.3641 41.8163 26.3641 41.9056C26.3641 41.9949 26.3641 41.9949 26.3641 42.0841C26.3641 42.1734 26.4082 42.3073 26.4522 42.3965C26.4522 42.4858 26.4962 42.5751 26.5403 42.6643C26.5403 42.709 26.5403 42.7536 26.5403 42.7982V42.8875V42.9767C26.5843 43.1553 26.6283 43.3338 26.6724 43.557C26.6724 43.6908 26.7164 43.8247 26.7604 43.8694C26.7604 43.9586 26.8044 44.0479 26.8485 44.1372C26.8485 44.2711 26.9365 44.4049 26.9806 44.5388C26.9806 44.6727 27.0686 44.8066 27.0686 44.8959C27.1567 45.119 27.2007 45.2976 27.2447 45.4315C27.2447 45.5207 27.3328 45.6546 27.3328 45.7439C27.3328 45.8332 27.4209 45.967 27.4649 46.0563C27.553 46.2795 27.597 46.5026 27.685 46.6365C27.685 46.6811 27.7291 46.815 27.7731 46.815C27.8612 47.0382 27.9492 47.2167 27.9933 47.3952C27.9933 47.4399 27.9933 47.4845 28.0373 47.5291C28.0373 47.5738 28.0373 47.6184 28.0813 47.663C28.0813 47.7523 28.1694 47.8416 28.2134 47.9308C28.2134 48.0201 28.3015 48.1093 28.3455 48.1986C28.3455 48.2879 28.4336 48.3771 28.4776 48.511C28.5656 48.7342 28.6537 48.9127 28.7858 49.1805C28.7858 49.1805 28.7858 49.2698 28.8298 49.3144C28.8298 49.359 28.8739 49.4037 28.9179 49.4929C28.9179 49.5822 29.05 49.7161 29.05 49.8053C29.094 49.9392 29.1821 50.0731 29.2261 50.207C29.0059 50.207 28.7418 50.207 28.5216 50.1624M64.1859 16.9567C64.1859 16.9567 64.1859 16.8674 64.1859 16.8228C64.1859 16.8228 64.1859 16.7335 64.1859 16.6889C64.1859 16.6889 64.1859 16.5996 64.1859 16.555C64.1859 16.3765 64.1859 16.198 64.1859 16.0194C64.1859 15.9302 64.1859 15.8409 64.1859 15.7516C64.1859 15.7516 64.1859 15.6624 64.1859 15.6178C64.1859 15.6178 64.1859 15.5285 64.1859 15.4839C64.1859 15.2607 64.0978 14.9929 64.0978 14.7251C64.0978 14.6359 64.0978 14.5912 64.0978 14.502C64.0978 14.4127 64.0978 14.3681 64.0978 14.2788C64.0978 14.1896 64.0978 14.1003 64.0978 14.0557C64.0978 13.9218 64.0978 13.7879 64.0538 13.654C64.0538 13.6093 64.0538 13.5201 64.0538 13.4755C64.0538 13.3862 64.0538 13.2969 64.0538 13.2077C64.0538 13.2077 64.0538 13.2077 64.0538 13.163C64.0538 13.1184 64.0538 13.0291 64.0538 12.9845C64.0538 12.8506 64.0098 12.6721 63.9657 12.5828C63.9657 12.5828 63.9657 12.5828 63.9657 12.5382C63.3493 9.01232 62.1605 5.62034 60.4874 2.40689L60.3993 2.27299C60.3553 2.18373 60.3113 2.09447 60.2232 1.96057L59.915 1.425H59.3866H58.9904H58.9463C55.9082 1.425 52.9142 1.87131 50.0082 2.67468C50.0082 2.67468 50.0963 2.67468 50.1844 2.58541C50.3164 2.58541 50.4045 2.54078 50.4926 2.49615C50.4926 2.49615 50.5366 2.49615 50.5806 2.49615C50.5806 2.49615 50.6247 2.49615 50.6687 2.49615C50.7127 2.49615 50.7567 2.49615 50.8008 2.49615C50.9769 2.49615 51.109 2.40689 51.2411 2.36226C51.3291 2.36226 51.3732 2.36226 51.4612 2.31763C51.5493 2.31763 51.5933 2.31763 51.6814 2.27299C51.8575 2.27299 52.0336 2.18373 52.2978 2.1391C52.1657 2.1391 52.1217 2.1391 52.1217 2.1391C52.2978 2.1391 52.3859 2.09447 52.4739 2.04984C52.5179 2.04984 52.562 2.04984 52.606 2.04984C52.606 2.04984 52.6941 2.04984 52.7381 2.04984C52.6941 2.04984 52.65 2.04984 52.606 2.04984C52.606 2.04984 52.5179 2.04984 52.4739 2.04984C52.3859 2.04984 52.3418 2.04984 52.2978 2.04984C52.2097 2.04984 52.1657 2.04984 52.1217 2.04984C52.0776 2.04984 52.1217 2.00521 52.2538 1.96057C54.103 1.55889 56.3926 1.2911 57.9777 1.2911C58.1538 1.2911 58.2418 1.24647 58.5501 1.24647C58.6821 1.24647 58.7702 1.24647 58.9023 1.24647C59.0344 1.24647 59.1665 1.24647 59.2986 1.24647C59.3426 1.24647 59.4306 1.24647 59.4747 1.24647C59.5187 1.24647 59.6068 1.24647 59.6508 1.24647C59.5627 1.24647 58.9904 1.24647 58.9023 1.24647C58.8142 1.24647 58.7262 1.24647 58.6821 1.24647C58.5501 1.24647 58.3739 1.24647 58.2418 1.24647C58.1538 1.24647 58.1098 1.24647 58.0217 1.24647C57.9336 1.24647 57.8896 1.24647 57.8015 1.24647C57.6254 1.24647 57.4933 1.24647 57.3172 1.24647C57.2292 1.24647 57.3172 1.24647 57.053 1.24647C56.965 1.24647 56.9209 1.24647 56.8329 1.24647C56.7448 1.24647 56.7008 1.24647 56.6127 1.24647C56.4806 1.24647 56.3486 1.24647 56.2165 1.24647C56.0844 1.24647 55.9523 1.24647 55.8202 1.24647C55.7321 1.24647 55.6881 1.24647 55.6 1.24647C55.512 1.24647 55.468 1.24647 55.3799 1.24647C55.2478 1.24647 55.1157 1.24647 54.9836 1.2911C54.8956 1.2911 54.8515 1.2911 54.8075 1.2911C54.7635 1.2911 54.6754 1.2911 54.6314 1.2911C54.3672 1.2911 54.1471 1.38037 53.9709 1.38037C53.8829 1.38037 53.7948 1.38037 53.7068 1.38037C53.6187 1.38037 53.5306 1.38037 53.4426 1.38037C53.2665 1.38037 53.0903 1.38037 52.9142 1.38037C52.606 1.425 52.2978 1.51426 51.9896 1.55889C51.8575 1.55889 51.6814 1.60352 51.5493 1.64816C51.4172 1.64816 51.2411 1.73742 51.109 1.73742C50.8008 1.82668 50.5366 1.87131 50.2724 1.96057C50.1403 1.96057 50.0082 2.04984 49.8761 2.04984C49.7881 2.04984 49.7441 2.04984 49.656 2.09447C49.5679 2.09447 49.5239 2.09447 49.4358 2.1391C49.1717 2.22836 48.9075 2.27299 48.6433 2.36226C48.5112 2.36226 48.3791 2.45152 48.247 2.49615C48.1149 2.49615 47.9829 2.58541 47.8508 2.63004C47.7627 2.63004 47.7187 2.67468 47.6306 2.71931C47.5426 2.71931 47.4985 2.76394 47.4105 2.80857C47.2784 2.8532 47.1463 2.89783 47.0142 2.94246C46.8821 2.98709 46.75 3.03173 46.5739 3.12099C46.4858 3.12099 46.4418 3.16562 46.3537 3.21025C46.2657 3.21025 46.2217 3.25488 46.1336 3.29951C46.1336 3.29951 45.9575 3.29951 45.8694 3.34415C46.0455 3.25488 46.1776 3.16562 46.3537 3.07636H46.4418L46.5299 3.03173C46.5739 3.03173 46.6179 3.03173 46.662 2.98709C46.75 2.98709 46.8381 2.89783 46.9261 2.8532C47.0142 2.8532 47.1023 2.76394 47.1903 2.76394C47.2343 2.76394 47.2784 2.76394 47.3224 2.71931C47.3224 2.71931 47.3224 2.71931 47.3664 2.71931C47.3664 2.71931 47.4105 2.71931 47.4545 2.71931C48.4232 2.31763 49.656 1.91594 50.9769 1.55889C51.153 1.55889 51.3291 1.46963 51.4612 1.425C51.6373 1.425 51.8135 1.33574 51.9456 1.33574C52.0776 1.33574 52.2978 1.24647 52.4739 1.20184C52.65 1.20184 52.8262 1.15721 53.0023 1.11258C53.1784 1.11258 53.3545 1.06795 53.5306 1.02332H53.5747H53.6187H53.7508C53.8388 1.02332 53.9269 0.978686 54.015 0.978686C54.1911 0.978686 54.3672 0.934054 54.4993 0.889423C54.4993 0.889423 54.5874 0.889423 54.6314 0.889423C54.6314 0.889423 54.7194 0.889423 54.7635 0.889423C54.8515 0.889423 54.9396 0.889423 55.0277 0.889423C55.3359 0.80016 55.0717 0.800161 54.8515 0.800161C54.7635 0.800161 54.6754 0.800161 54.6314 0.800161C54.5433 0.800161 54.4553 0.800161 54.4112 0.800161C54.2351 0.800161 54.103 0.844792 53.9269 0.889423C53.8388 0.889423 53.7948 0.889423 53.7068 0.889423H53.5747C53.5747 0.889423 53.4866 0.889423 53.4426 0.889423C53.3105 0.889423 53.1344 0.934054 53.0023 0.978686C52.8702 0.978686 52.6941 1.02332 52.562 1.06795C52.4299 1.11258 52.2538 1.15721 52.0776 1.15721C51.7694 1.24647 51.4612 1.2911 51.109 1.38037C50.8448 1.38037 50.8448 1.38037 51.0209 1.2911C51.109 1.2911 51.2411 1.20184 51.4172 1.15721C51.5933 1.11258 51.8135 1.06795 52.0776 0.978686C52.1657 0.978686 52.2978 0.934054 52.4299 0.889423C52.562 0.889423 52.65 0.889423 52.7821 0.800161C52.9142 0.800161 53.0463 0.755529 53.1784 0.710898C53.2224 0.710898 53.3105 0.710898 53.3545 0.710898C53.4426 0.710898 53.4866 0.710898 53.5747 0.710898C53.8388 0.710898 54.103 0.621635 54.4112 0.577004C54.4993 0.577004 54.5433 0.577004 54.6314 0.577004C54.7194 0.577004 54.7635 0.577004 54.8515 0.577004C54.9836 0.577004 55.1157 0.577004 55.2918 0.532373C55.4239 0.532373 55.556 0.532373 55.6881 0.487741C55.8202 0.487741 55.9523 0.487741 56.0844 0.487741C56.3485 0.487741 56.6127 0.487741 56.8329 0.44311C57.053 0.44311 57.2732 0.44311 57.4933 0.44311C57.5814 0.44311 57.6694 0.44311 57.7575 0.44311C57.7575 0.44311 57.8456 0.44311 57.8896 0.44311H58.0217C58.3739 0.44311 58.6821 0.44311 58.9904 0.44311H59.6068V0.398479C59.5627 0.398479 59.4747 0.398479 59.4306 0.398479C59.2986 0.398479 59.2105 0.398479 59.0784 0.398479H58.9904H58.9463C58.9023 0.398479 58.8583 0.398479 58.8142 0.398479C58.7262 0.398479 58.6381 0.398479 58.5941 0.398479C58.418 0.398479 58.2859 0.398479 58.1538 0.398479H57.9336C57.8456 0.398479 57.8015 0.398479 57.7135 0.398479C57.5814 0.398479 57.4053 0.398479 57.2732 0.398479C57.1411 0.398479 57.009 0.398479 56.8769 0.398479C56.7889 0.398479 56.7448 0.398479 56.6568 0.398479C56.5687 0.398479 56.5247 0.398479 56.4366 0.398479C56.2605 0.398479 56.1284 0.398479 55.9523 0.398479C55.8642 0.398479 55.7762 0.398479 55.6881 0.398479C55.6 0.398479 55.512 0.398479 55.4239 0.398479C55.2478 0.398479 55.0717 0.398479 54.8956 0.44311C54.8075 0.44311 54.7194 0.44311 54.6314 0.44311C54.5433 0.44311 54.4553 0.44311 54.3672 0.44311C54.059 0.487741 53.7508 0.532373 53.5306 0.532373C53.7508 0.398479 54.5433 0.219954 55.512 0.0860596C55.2478 0.0860596 55.0277 0.130691 54.7635 0.175322C54.7194 0.175322 54.6314 0.175322 54.5874 0.175322C54.5433 0.175322 54.4553 0.175322 54.4112 0.175322C54.2791 0.175322 54.1911 0.175322 54.059 0.219954C53.9269 0.219954 53.8388 0.219953 53.7068 0.264585C53.6627 0.264585 53.5747 0.264585 53.5306 0.264585C53.4866 0.264585 53.3985 0.264585 53.3545 0.264585C53.1344 0.264585 52.9142 0.353847 52.6941 0.398479C52.606 0.398479 52.5179 0.398479 52.4299 0.44311C52.3418 0.44311 52.2097 0.44311 52.1217 0.532373C51.9015 0.577004 51.6814 0.621635 51.4612 0.666267C51.3732 0.666267 51.2411 0.710898 51.153 0.755529C51.065 0.755529 50.9769 0.800161 50.8888 0.844792C50.7127 0.844792 50.5806 0.934054 50.4926 0.934054C50.4926 0.934054 50.4045 0.934054 50.2724 0.978686C50.0963 1.02332 49.9202 1.11258 49.8761 1.11258C49.7 1.15721 49.612 1.20184 49.5239 1.24647C49.5239 1.24647 49.4358 1.24647 49.3918 1.24647C49.3478 1.24647 49.2597 1.24647 49.1276 1.33574C48.5552 1.51426 48.5993 1.51426 48.247 1.60352C48.0269 1.69279 47.7627 1.78205 47.5426 1.87131C47.4105 1.87131 47.3224 1.96057 47.1903 2.00521C47.0582 2.04984 46.9702 2.09447 46.8381 2.1391C46.6179 2.22836 46.3978 2.31762 46.1336 2.40689C45.9134 2.49615 45.6933 2.58541 45.4731 2.71931L45.297 2.80857C45.253 2.80857 45.1649 2.8532 45.1209 2.89783L44.7687 3.07636C44.6366 3.12099 44.5485 3.16562 44.4164 3.25488L44.2403 3.34415H44.1523C44.1523 3.38878 44.1082 3.38878 44.0642 3.43341C43.6239 3.65656 43.1836 3.87972 42.7433 4.10288C42.6552 4.14751 42.5231 4.23677 42.3911 4.2814C42.347 4.2814 42.259 4.32603 42.259 4.37067H42.1709C41.9948 4.45993 42.1709 4.37067 41.9067 4.50456C41.7746 4.59382 41.8627 4.54919 41.6866 4.68308C41.5985 4.72772 41.5105 4.77235 41.4224 4.81698C41.3784 4.81698 41.3343 4.86161 41.2903 4.90624C41.2903 4.90624 41.2022 4.95087 41.1582 4.9955C40.9821 5.08477 40.806 5.21866 40.6299 5.30792C40.5418 5.35255 40.4537 5.39719 40.3657 5.48645C40.2776 5.53108 40.1896 5.62034 40.1015 5.66497C39.9254 5.79887 39.7493 5.88813 39.6172 6.02202C38.0321 7.13781 36.2269 8.61064 35.0821 9.77105C34.8179 10.0388 35.1261 9.68179 34.8179 9.99421C33.8492 10.9761 32.8806 12.0026 32 13.163C31.8679 13.2969 31.7798 13.4308 31.6477 13.6093L31.5597 13.6986L31.4716 13.7879L31.2955 14.011C31.2074 14.1449 31.0753 14.3234 30.9873 14.4573L30.8992 14.5912C30.8992 14.5912 30.8552 14.6805 30.8112 14.7251C30.7671 14.8144 30.7231 14.859 30.6791 14.9483C30.591 15.0822 30.4589 15.2607 30.3709 15.3946L30.2828 15.5285C30.2828 15.5285 30.2388 15.6178 30.1948 15.6624L30.1067 15.7963C30.1067 15.8409 30.1067 15.8855 30.1067 15.8855C30.1067 15.9748 30.1067 15.9748 30.1067 15.9748H30.0627C30.0186 15.9748 30.0627 15.9748 29.9746 15.9748H29.9306H29.8425C29.7985 15.9748 29.7545 15.9748 29.7104 15.9748C29.6224 15.9748 29.5783 15.9748 29.4022 15.9748C29.1821 15.9748 28.9619 15.9748 28.8298 15.9748C28.7418 15.9748 28.6097 15.9748 28.5216 15.9748C28.4336 15.9748 28.3015 15.9748 28.2134 15.9748C27.9933 15.9748 27.7731 15.9748 27.597 16.0194C27.5089 16.0194 27.3768 16.0194 27.2888 16.0194C27.2007 16.0194 27.0686 16.0194 26.9806 16.0194C26.8925 16.0194 26.7604 16.0194 26.6724 16.0194H26.4962C26.4522 16.0194 26.4082 16.0194 26.3201 16.0194C26.1 16.0194 25.8798 16.1087 25.7037 16.1087C25.6156 16.1087 25.4835 16.1087 25.3955 16.1533H25.3074H25.2194H25.0432C24.6029 16.2872 24.2067 16.3319 23.7664 16.4657C23.5462 16.5104 23.3261 16.555 23.15 16.5996C22.9298 16.6443 22.7537 16.6889 22.5335 16.7782L22.2253 16.8674H22.0492L21.8731 16.9567C21.6529 17.0013 21.4768 17.0906 21.2567 17.1352C21.1686 17.1352 21.0365 17.1799 20.9485 17.2245L20.6402 17.3137C20.4201 17.403 20.244 17.4476 20.0238 17.5369C19.9358 17.5369 19.8037 17.6262 19.7156 17.6262L19.4074 17.7601L19.0992 17.894C19.0111 17.894 18.8791 17.9832 18.791 18.0278C17.294 18.6081 15.841 19.3222 14.432 20.0809C13.0231 20.8396 11.7022 21.7322 10.5134 22.6695C9.5447 23.3836 8.6641 24.187 7.82753 24.9457C6.99096 25.7491 6.19842 26.5524 5.49394 27.3558C5.36185 27.4897 5.27379 27.6236 5.1417 27.7575C5.09767 27.8467 5.00961 27.8914 4.96558 27.9806C4.96558 27.9806 4.92155 28.0699 4.87752 28.0699H4.83349C4.83349 28.1145 4.83349 28.1592 4.83349 28.1592C4.61334 28.4269 4.39319 28.6947 4.17304 28.9625C3.95289 29.2303 3.77677 29.4981 3.55662 29.7659C3.51259 29.8105 3.46856 29.8998 3.42453 29.989C3.3805 30.0783 3.33647 30.1229 3.29244 30.2122C3.20438 30.3461 3.11632 30.48 2.98423 30.6139C2.9402 30.7031 2.89617 30.7478 2.85214 30.837C2.85214 30.9263 2.76408 30.9709 2.72005 31.0602C2.63199 31.1941 2.54393 31.328 2.45587 31.4619C2.27975 31.7297 2.10363 31.9974 1.92751 32.3099C1.83945 32.4438 1.75139 32.5777 1.66333 32.7115C1.53124 32.8901 1.44318 33.1132 1.31109 33.2918C1.22303 33.4256 1.179 33.5149 1.09094 33.6488C1.09094 33.6934 1.00288 33.7827 0.958854 33.8273V33.9166C0.914824 33.9166 0.914824 33.9166 0.914824 33.9166H0.518555V34.0059C0.606615 34.1397 0.650645 34.2736 0.738705 34.3629V34.4522C0.782734 34.4522 0.826764 34.5414 0.826764 34.5414C0.826764 34.5861 0.914824 34.6753 0.914824 34.72C1.00288 34.8538 1.09094 34.9877 1.13497 35.1216C1.179 35.2109 1.26706 35.3448 1.31109 35.4341C1.44318 35.6572 1.57527 35.8804 1.70736 36.0589C1.83945 36.2821 1.97154 36.5052 2.10363 36.6837C2.19169 36.773 2.23572 36.9069 2.32378 36.9962C2.41184 37.0854 2.45587 37.2193 2.54393 37.3086C2.67602 37.5317 2.80811 37.7103 2.9402 37.9334C3.07229 38.1119 3.20438 38.3351 3.3805 38.5136C3.64468 38.8707 3.95289 39.2277 4.17304 39.5401C4.17304 39.5848 4.2611 39.6294 4.30513 39.7187C4.34916 39.7633 4.39319 39.8526 4.48125 39.8972C4.56931 40.0311 4.7014 40.165 4.78946 40.2542C4.87752 40.3435 4.96558 40.4328 5.00961 40.522C5.09767 40.6113 5.18573 40.7006 5.27379 40.7898C5.44991 40.9683 5.582 41.1469 5.75812 41.37C6.68275 42.3519 7.69544 43.2892 8.70813 44.1372C9.85291 45.119 10.9977 45.967 12.2305 46.7704C12.3186 46.815 12.4066 46.9043 12.4947 46.9489C12.5828 46.9936 12.6708 47.0382 12.7589 47.1275C12.935 47.2167 13.1111 47.3506 13.2872 47.4399C13.3313 47.4399 13.3753 47.4845 13.4193 47.5291L13.5514 47.6184L13.8156 47.7523C13.9917 47.8416 14.1678 47.9308 14.344 48.0647C14.5641 48.1986 14.8283 48.3325 15.0925 48.4664C15.1365 48.4664 15.2246 48.511 15.2686 48.5557C15.3126 48.5557 15.4007 48.6003 15.4447 48.6449C15.5768 48.6896 15.7089 48.7788 15.841 48.8234C17.2499 49.5375 18.747 50.1178 20.1559 50.6087C20.288 50.6087 20.3761 50.698 20.5082 50.7426C20.6402 50.7426 20.7283 50.8319 20.8604 50.8765C20.9925 50.8765 21.0805 50.9658 21.2126 51.0104H21.3007L21.3888 51.055H21.5649C21.8291 51.1889 22.0492 51.2335 22.3134 51.3228C22.3574 51.3228 22.4455 51.3228 22.4895 51.3674H22.6656C22.7977 51.4567 22.9298 51.4567 23.0179 51.5013C23.15 51.5013 23.282 51.546 23.3701 51.5906L23.7223 51.6799C23.9865 51.7245 24.2067 51.7691 24.4709 51.8137C24.735 51.8137 24.9552 51.903 25.2194 51.9476H25.3955L25.4835 51.9923H25.5716C25.7037 51.9923 25.8358 51.9923 25.9238 52.0369C26.0559 52.0369 26.188 52.0369 26.3641 52.0815C26.4522 52.0815 26.4962 52.0815 26.5843 52.0815C26.6724 52.0815 26.7164 52.0815 26.8044 52.0815C27.1127 52.0815 27.3768 52.1262 27.685 52.1708C27.9933 52.1708 28.3015 52.1708 28.6097 52.2601C28.7418 52.2601 28.9179 52.2601 29.05 52.2601H29.2701H29.4022H29.4903V52.3047V52.394C29.6224 52.5278 29.7104 52.6617 29.7985 52.7956C29.7985 52.8403 29.8865 52.9295 29.9306 52.9742C29.9306 53.0188 30.0186 53.1081 30.0627 53.1527C30.1507 53.2866 30.2388 53.4205 30.2828 53.5097C30.3709 53.6436 30.4589 53.7329 30.503 53.8668C30.6791 54.0899 30.8112 54.3131 30.9873 54.5363C31.0313 54.6255 31.1194 54.7148 31.1634 54.804C31.2074 54.8933 31.2955 54.9826 31.3395 55.0718C31.3836 55.1611 31.4716 55.2504 31.5157 55.3396C31.5597 55.4289 31.6477 55.5181 31.7358 55.6074C31.8679 55.7859 32 55.9645 32.1761 56.143C32.2642 56.2322 32.3082 56.3215 32.3963 56.4108C32.4843 56.5 32.5283 56.5893 32.6164 56.6786C32.7485 56.8571 32.9246 57.0356 33.0567 57.2141C33.2328 57.3927 33.3649 57.5712 33.541 57.7497C33.6291 57.839 33.7171 57.9282 33.7612 58.0175C33.8052 58.1068 33.9373 58.196 34.0254 58.2853C34.2015 58.4638 34.3776 58.6423 34.5537 58.8209C34.6858 58.9548 34.8179 59.044 34.95 59.2225C35.0821 59.3564 35.2142 59.4903 35.3463 59.6242C35.4783 59.7581 35.6104 59.892 35.7425 60.0259C35.8306 60.0705 35.8746 60.1598 35.9627 60.2044C36.0507 60.2491 36.0948 60.3383 36.1828 60.383C36.3149 60.5169 36.491 60.6507 36.6231 60.74L36.8433 60.9185L36.9313 61.0078L37.0634 61.0971C37.1955 61.2309 37.3716 61.3202 37.5037 61.4541C37.5918 61.4987 37.6358 61.588 37.7239 61.6326H37.7679L37.8119 61.7219L37.944 61.8112C38.0761 61.9451 38.2522 62.0343 38.3843 62.1682C39.0007 62.6145 39.5731 63.0162 40.1455 63.4179C40.2336 63.4625 40.2776 63.5071 40.3657 63.5518C40.4537 63.5964 40.4978 63.641 40.5858 63.6857C40.7179 63.7749 40.85 63.8642 41.0261 63.9535C41.2903 64.132 41.5545 64.2659 41.8187 64.4444C42.2149 64.6676 42.5672 64.8461 42.9194 65.0692C42.9194 65.0692 43.0075 65.1139 43.0515 65.1585C43.0515 65.1585 43.1396 65.2031 43.1836 65.2478C43.2717 65.2924 43.3597 65.337 43.4478 65.3817C43.6239 65.4709 43.8 65.5602 44.0202 65.6495H44.1082L44.1963 65.7387C44.2403 65.7387 44.2843 65.7387 44.3284 65.828C44.4164 65.828 44.5485 65.9172 44.6366 65.9619C44.7246 65.9619 44.8127 66.0511 44.9448 66.0958C44.9888 66.0958 45.0328 66.0958 45.0769 66.1404C45.1209 66.1404 45.1649 66.1404 45.209 66.185C45.4291 66.2743 45.6052 66.3636 45.7814 66.4082C45.8254 66.4082 45.8694 66.4082 45.9134 66.4528H46.0015L46.0896 66.4974C46.1776 66.4974 46.3097 66.5867 46.3978 66.6313C46.5299 66.676 46.662 66.7206 46.794 66.7652C46.9261 66.8099 47.0582 66.8545 47.1903 66.8991C47.4105 66.9884 47.5866 67.033 47.8067 67.1223C47.8508 67.1223 47.8948 67.1223 47.9829 67.1669H48.0709L48.159 67.2115C48.247 67.2115 48.3791 67.2562 48.4672 67.3008C48.6873 67.3454 48.9075 67.4347 49.1276 67.4793C49.3478 67.524 49.5679 67.6132 49.7881 67.6579C51.197 68.0149 52.65 68.372 54.3232 68.5505C54.5433 68.5505 54.8075 68.5951 55.0277 68.6398C55.1597 68.6398 55.2918 68.6398 55.4239 68.6398C55.556 68.6398 55.6881 68.6398 55.8202 68.6398C55.9523 68.6398 56.0844 68.6398 56.2605 68.6398C56.3486 68.6398 56.3926 68.6398 56.4806 68.6398C56.5687 68.6398 56.6127 68.6398 56.7008 68.6398C56.8769 68.6398 57.0971 68.6398 57.2732 68.6398L57.1851 68.4166C57.1851 68.4166 57.1851 68.4166 57.1851 68.372L57.5374 68.6398C57.4493 68.6398 57.3612 68.6398 57.2732 68.6398V68.729H57.6254C57.7575 68.729 57.8456 68.729 57.9777 68.729C57.9777 68.729 58.0217 68.729 58.0657 68.729C58.1097 68.729 58.1538 68.729 58.2418 68.729H58.2859H58.3739H58.418C58.506 68.729 58.5941 68.6844 58.6381 68.6398C58.6821 68.6398 58.7262 68.6398 58.7702 68.6398C58.7702 68.6398 58.7702 68.6397 58.7702 68.5951C58.8142 68.5059 58.8583 68.4166 58.9023 68.372C58.9904 68.2381 59.0344 68.1042 59.1224 67.9703C59.2105 67.8364 59.2545 67.7025 59.3426 67.5686C59.4307 67.4347 59.4747 67.3008 59.5627 67.1669L59.6948 66.9438V66.8545C59.7389 66.8545 59.7829 66.7652 59.7829 66.7652C59.915 66.4974 60.0471 66.2297 60.2232 65.9172C60.3553 65.6495 60.4874 65.337 60.6195 65.0692C61.1478 63.9088 61.5881 62.7484 61.9844 61.5434C62.0724 61.3202 62.1165 61.1417 62.1605 60.9185C62.1605 60.8739 62.1605 60.8293 62.2045 60.7846C62.2045 60.74 62.2045 60.6954 62.2045 60.6507C62.2045 60.5615 62.2486 60.4722 62.2926 60.3383C62.3366 60.1598 62.4247 59.9366 62.4687 59.7581C62.5127 59.535 62.5568 59.3564 62.6008 59.1333C62.7329 58.687 62.821 58.196 62.909 57.7051C62.909 57.6604 62.909 57.5712 62.909 57.5266C62.909 57.4819 62.909 57.3927 62.909 57.348C62.909 57.2141 62.953 57.0802 62.9971 56.9463C62.9971 56.8125 63.0411 56.6786 63.0851 56.5447C63.0851 56.4108 63.0851 56.2769 63.1292 56.143C63.1292 56.0091 63.1292 55.8752 63.1732 55.7413C63.1732 55.6967 63.1732 55.6074 63.1732 55.5181C63.1732 55.4289 63.1732 55.3843 63.1732 55.295C63.1732 55.0272 63.2613 54.7594 63.2613 54.447V54.3577V54.2685C63.2613 54.1792 63.2613 54.1346 63.2613 54.0453C63.2613 53.9114 63.2613 53.7775 63.2613 53.6436C63.2613 53.5544 63.2613 53.5097 63.2613 53.4205C63.2613 53.3312 63.2613 53.2866 63.2613 53.1973C63.2613 53.0634 63.2613 52.9295 63.2613 52.7956C63.2613 52.5725 63.2613 52.394 63.2613 52.1708C63.2613 51.9476 63.2613 51.7245 63.2613 51.546C63.2613 51.0996 63.2613 50.6533 63.2613 50.2517C63.2613 50.207 63.2613 50.1624 63.2613 50.0731V49.9839C63.2613 49.9839 63.2613 49.9392 63.2613 49.8946C63.2613 49.8053 63.2613 49.6714 63.2613 49.5822C63.2613 49.359 63.2613 49.1805 63.2613 49.002C63.2613 48.9127 63.2613 48.8234 63.2613 48.7342C63.2613 48.6449 63.2613 48.5557 63.2613 48.4664C63.2613 48.2879 63.2613 48.1093 63.2613 47.9755V47.8862C63.2613 47.8862 63.2613 47.7969 63.2613 47.7523C63.2613 47.663 63.2613 47.5738 63.2613 47.4845C63.2613 47.306 63.2172 47.0828 63.1732 46.815C63.0851 46.3241 63.0411 45.7439 62.909 45.119C62.909 44.9405 62.909 44.8513 62.865 44.7174C62.865 44.7174 62.865 44.7174 62.865 44.6727C62.865 44.6727 62.865 44.6727 62.865 44.6281C62.865 44.6281 62.865 44.5835 62.865 44.5388C62.865 44.4496 62.865 44.4049 62.821 44.2264C62.821 44.0925 62.7769 43.914 62.7329 43.7801C62.7329 43.6908 62.7329 43.6462 62.6889 43.557C62.6889 43.4677 62.6889 43.4231 62.6448 43.3338L62.5568 42.8875C62.5568 42.7982 62.5568 42.7536 62.5127 42.6643C62.5127 42.5751 62.5127 42.5304 62.4687 42.4412C62.3807 42.1288 62.2926 41.8163 62.2486 41.5039C62.2486 41.3254 62.1605 41.1915 62.1165 41.013C62.0724 40.8344 61.9844 40.6559 61.9404 40.4328C61.8963 40.2542 61.8083 40.0311 61.7202 39.8079C61.7202 39.7187 61.6321 39.5848 61.6321 39.4955C61.6321 39.4509 61.6321 39.4062 61.5881 39.3616C61.5881 39.317 61.5881 39.2723 61.5441 39.2277C61.456 39.0046 61.368 38.7368 61.2799 38.5136C61.2799 38.469 61.2359 38.3797 61.1918 38.3351C61.1918 38.2905 61.1478 38.2012 61.1038 38.1566C61.0598 38.0673 61.0157 37.9334 60.9717 37.7995C60.9277 37.6656 60.8836 37.5764 60.8396 37.4425C60.7956 37.3086 60.7515 37.2193 60.7075 37.0854C60.6195 36.8623 60.4874 36.6391 60.3993 36.4159C60.3112 36.1928 60.2232 36.0143 60.0911 35.7911C60.0471 35.7018 60.003 35.6126 59.959 35.4787C59.915 35.3894 59.871 35.3002 59.7829 35.1663C59.6948 34.9877 59.5627 34.7646 59.4747 34.5861C59.4747 34.5861 59.5187 34.4968 59.5627 34.4522C59.6068 34.3629 59.6508 34.229 59.7389 34.1397C59.8269 34.0059 59.8709 33.872 59.959 33.7381C60.003 33.6042 60.0471 33.5149 60.0911 33.4256C60.1792 33.2471 60.2672 33.0686 60.3553 32.8901C60.6635 32.2652 60.8836 31.685 61.1038 31.1941C61.1478 31.0602 61.1918 30.9709 61.2359 30.837C61.2359 30.837 61.2359 30.7924 61.2359 30.7478C61.2359 30.7478 61.2359 30.7031 61.2359 30.6585C61.2359 30.6139 61.2359 30.5692 61.2799 30.5246C61.368 30.3461 61.412 30.1676 61.456 30.0337C61.456 29.989 61.5001 29.8998 61.5001 29.8551C61.5001 29.8551 61.5001 29.8105 61.5001 29.7659C61.5001 29.7659 61.5001 29.7213 61.5001 29.6766C61.5001 29.5427 61.5881 29.4535 61.6321 29.3196C61.6321 29.1857 61.7202 29.0518 61.7642 28.9625V28.784C61.8523 28.7394 61.8523 28.6501 61.8963 28.6055C61.9844 28.3377 62.0724 28.1145 62.1165 27.8914C62.1165 27.8914 62.1165 27.8467 62.1165 27.8021C62.1165 27.8021 62.1165 27.7575 62.1165 27.7128C62.1165 27.6682 62.1165 27.5789 62.1605 27.5343C62.1605 27.4451 62.2045 27.3112 62.2486 27.2219C62.2486 27.088 62.3807 26.8202 62.3807 26.7756C62.4247 26.5078 62.5127 26.2846 62.5568 26.0168C62.5568 25.9722 62.5568 25.883 62.5568 25.8383C62.5568 25.7937 62.5568 25.7044 62.5568 25.6598C62.5568 25.5259 62.6008 25.4366 62.6448 25.3027C62.6889 25.0796 62.7329 24.8564 62.7769 24.6333C62.7769 24.4101 62.865 24.187 62.909 23.9638C62.909 23.8299 62.909 23.7407 62.953 23.6068C62.953 23.4729 62.953 23.3836 62.9971 23.2497C62.9971 23.0266 63.0851 22.7588 63.0851 22.5356C63.1292 22.0447 63.2172 21.4645 63.2613 20.8396C63.2613 20.6165 63.2613 20.4826 63.3053 20.0363C63.3053 19.8577 63.3053 19.4114 63.3053 19.2775C63.3053 19.1883 63.3053 19.099 63.3053 19.0544C63.3053 18.7866 63.3053 18.5188 63.3053 18.251C63.3053 17.6262 63.3053 17.0013 63.3053 16.3765" fill="#1D325C"/>
<path d="M88.6667 60.6061H81.9741V49.8946H83.5592V59.1333H88.6667V60.6061Z" fill="#1D325C"/>
<path d="M101.612 54.0899C101.612 54.3131 101.612 54.6701 101.612 55.2503C101.612 55.8306 101.612 56.2322 101.612 56.4108C101.612 56.6339 101.612 56.9017 101.568 57.3034C101.568 57.7051 101.48 58.0175 101.436 58.196C101.347 58.3745 101.259 58.5977 101.127 58.8655C100.995 59.1333 100.819 59.3564 100.643 59.535C99.8945 60.2937 98.9698 60.6954 97.8691 60.6954C96.7684 60.6954 95.8437 60.2937 95.0952 59.535C94.8751 59.3118 94.6989 59.0886 94.6109 58.8655C94.4788 58.5977 94.3907 58.3745 94.3027 58.196C94.2146 58.0175 94.1706 57.7051 94.1266 57.3034C94.1266 56.9017 94.0825 56.6339 94.0825 56.3661C94.0825 56.143 94.0825 55.7413 94.0825 55.2057C94.0825 54.6701 94.0825 54.2685 94.0825 54.0453C94.0825 53.8221 94.0825 53.5097 94.1266 53.108C94.1266 52.7064 94.2146 52.4386 94.3027 52.2154C94.3907 52.0369 94.4788 51.8137 94.6109 51.546C94.743 51.2782 94.9191 51.055 95.0952 50.8765C95.8437 50.1177 96.7684 49.7161 97.8691 49.7161C98.9698 49.7161 99.8945 50.1177 100.643 50.8765C100.863 51.0996 101.039 51.3228 101.127 51.546C101.259 51.8137 101.347 51.9923 101.436 52.2154C101.524 52.3939 101.568 52.7064 101.568 53.108C101.568 53.5097 101.612 53.8221 101.612 54.0007V54.0899ZM99.8945 57.5265C99.9825 57.0802 100.027 56.3661 100.027 55.2503C100.027 54.1346 100.027 53.4205 99.8945 52.9742C99.8064 52.5278 99.6303 52.2154 99.4101 51.903C99.0139 51.4567 98.4855 51.2335 97.8251 51.2335C97.1646 51.2335 96.6363 51.4567 96.24 51.903C95.9758 52.1708 95.7997 52.5278 95.7557 52.9742C95.6676 53.4205 95.6236 54.1346 95.6236 55.2503C95.6236 56.3661 95.6236 57.0802 95.7557 57.5265C95.8437 57.9729 96.0198 58.2853 96.24 58.5977C96.6363 59.044 97.1646 59.2672 97.8251 59.2672C98.4855 59.2672 99.0139 59.044 99.4101 58.5977C99.6743 58.3299 99.8504 57.9729 99.8945 57.5265Z" fill="#1D325C"/>
<path d="M115.041 49.8946L111.518 60.6061H110.286L106.807 49.8946H108.48L110.902 57.7051L113.324 49.8946H114.997H115.041Z" fill="#1D325C"/>
<path d="M127.545 60.6061H120.809V49.8946H127.545V51.3674H122.394V54.4916H126.797V55.9198H122.394V59.1333H127.545V60.6061Z" fill="#1D325C"/>
<path d="M148.416 51.3674H145.51V60.606H143.925V51.3674H141.019V49.8945H148.46V51.3674H148.416Z" fill="#1D325C"/>
<path d="M162.021 60.6061H160.436V55.9198H156.165V60.6061H154.58V49.8946H156.165V54.4916H160.436V49.8946H162.021V60.6061Z" fill="#1D325C"/>
<path d="M170.694 60.6061H169.109V49.8946H170.694V60.6061Z" fill="#1D325C"/>
<path d="M184.344 57.5712C184.344 58.5531 183.991 59.3118 183.287 59.892C182.582 60.4722 181.658 60.74 180.557 60.74C179.456 60.74 179.06 60.6507 178.444 60.4276C177.871 60.2044 177.299 59.8474 176.814 59.3564L177.871 58.2853C178.532 58.9547 179.456 59.3118 180.557 59.3118C181.658 59.3118 181.79 59.1779 182.186 58.8655C182.582 58.5977 182.758 58.196 182.758 57.6604C182.758 57.1249 182.626 56.8124 182.362 56.5447C182.142 56.3215 181.746 56.1876 181.217 56.0983L179.985 55.9198C179.104 55.7859 178.444 55.5181 177.959 55.0718C177.431 54.5809 177.167 53.9114 177.167 53.0188C177.167 52.1262 177.475 51.3228 178.135 50.7426C178.752 50.1624 179.632 49.8946 180.733 49.8946C181.834 49.8946 183.155 50.2963 184.035 51.0996L183.023 52.1262C182.45 51.5906 181.702 51.2782 180.733 51.2782C179.764 51.2782 179.676 51.4121 179.324 51.7245C178.972 52.0369 178.796 52.4386 178.796 52.9295C178.796 53.4205 178.928 53.6883 179.192 53.9114C179.456 54.1792 179.853 54.3131 180.381 54.4024L181.57 54.5809C182.45 54.7148 183.111 54.9826 183.551 55.3842C184.123 55.8752 184.432 56.6339 184.432 57.5712H184.344Z" fill="#1D325C"/>
<path d="M205.346 60.6061H198.653V49.8946H200.238V59.1333H205.346V60.6061Z" fill="#1D325C"/>
<path d="M213.051 60.6061H211.466V49.8946H213.051V60.6061Z" fill="#1D325C"/>
<path d="M226.877 51.3674H221.725V54.6255H226.128V56.0983H221.725V60.6507H220.14V49.9392H226.877V51.412V51.3674Z" fill="#1D325C"/>
<path d="M239.865 60.6061H233.129V49.8946H239.865V51.3674H234.714V54.4916H239.117V55.9198H234.714V59.1333H239.865V60.6061Z" fill="#1D325C"/>
</svg>
