<svg width="47" height="50" viewBox="0 0 47 50" fill="none" xmlns="http://www.w3.org/2000/svg">
<path d="M44.002 12.7542C44.002 12.8365 44.002 12.9188 44.002 12.9188C44.002 13.0011 44.002 13.0834 44.002 13.1658V13.3304V13.495C44.002 13.6596 44.002 13.7419 44.002 13.9065C44.002 14.0711 44.002 14.1534 44.002 14.2357C44.002 14.3181 44.002 14.4827 44.002 14.565C44.002 14.6473 44.002 14.7296 44.002 14.8119C44.002 14.8942 44.002 14.9765 44.002 15.0588C44.002 15.1411 44.002 15.2234 44.002 15.3057C44.002 15.388 44.002 15.4703 44.002 15.5527C44.002 15.7173 44.002 15.8819 44.002 16.0465C44.002 16.2111 44.002 16.3757 44.002 16.5403C44.002 16.7049 44.002 16.8696 43.9196 17.1165C43.9196 17.1988 43.9196 17.2811 43.9196 17.3634C43.9196 17.4457 43.9196 17.528 43.9196 17.6103C43.8371 18.0219 43.7546 18.3511 43.6722 18.6803C43.6722 18.8449 43.5897 18.9272 43.5073 19.0918V19.2565V19.4211C43.5073 19.5857 43.4248 19.668 43.3424 19.8326C43.2599 19.9972 43.2599 20.0795 43.1775 20.2441C43.1775 20.2441 43.1775 20.3264 43.1775 20.4088C43.1775 20.4911 43.1775 20.4911 43.1775 20.5734C43.1775 20.6557 43.1775 20.6557 43.1775 20.738C43.1775 20.8203 43.095 20.9849 43.0126 21.0672C42.9301 21.1495 42.9301 21.3141 42.8477 21.3964C42.8477 21.3964 42.8477 21.3964 42.8477 21.4787C42.8477 21.4787 42.8477 21.4787 42.8477 21.561C42.8477 21.561 42.8477 21.4787 42.8477 21.3964C42.8477 21.3964 42.8477 21.3141 42.7652 21.2318C42.7652 21.1495 42.6003 20.9849 42.5178 20.9026C42.4354 20.8203 42.3529 20.6557 42.2705 20.5734C42.2705 20.5734 42.188 20.4911 42.1056 20.4088C42.1056 20.4088 42.1056 20.4088 42.1056 20.3264C42.1056 20.2441 42.1056 20.3264 42.1056 20.2441C42.1056 20.2441 42.0231 20.0795 41.9407 19.9972L41.7758 19.8326C41.7758 19.8326 41.6933 19.7503 41.6109 19.668L41.281 19.3388C41.281 19.3388 41.281 19.2565 41.1986 19.1742C41.1161 19.0918 41.1986 19.0918 41.1161 19.0095C41.1161 18.9272 40.9512 18.8449 40.8688 18.7626C40.8688 18.7626 40.8688 18.6803 40.7039 18.598C40.5389 18.5157 40.6214 18.5157 40.539 18.4334C40.4565 18.3511 40.374 18.2688 40.2916 18.1865C40.2916 18.1865 40.2916 18.1042 40.2091 18.1042C40.1267 18.1042 40.2091 18.0219 40.0442 17.9395C40.0442 17.8572 39.8793 17.7749 39.7969 17.6926C39.7969 17.6926 39.7144 17.6103 39.632 17.528C39.5495 17.4457 39.5495 17.4457 39.4671 17.3634C39.3846 17.2811 39.3021 17.1988 39.2197 17.1165C38.6425 16.5403 37.9829 16.0465 37.3233 15.5527C37.2408 15.4703 37.0759 15.388 36.9934 15.3057H36.8285C36.8285 15.1411 36.7461 15.1411 36.6636 15.0588C36.5812 14.9765 36.4163 14.8942 36.2514 14.8119C36.2514 14.8119 36.0865 14.7296 36.004 14.6473C35.9215 14.565 35.8391 14.565 35.7566 14.4827L35.5093 14.318L35.2619 14.1534C35.2619 14.1534 35.097 14.0711 35.0146 13.9888C35.0146 13.9888 35.0146 13.9888 34.9321 13.9888H34.8496L34.5198 13.7419H34.3549C34.3549 13.6596 34.3549 13.5773 34.3549 13.5773H34.2725C34.19 13.5773 34.0251 13.4127 33.9427 13.4127H33.7778C33.7778 13.3304 33.6953 13.2481 33.6128 13.2481C33.5304 13.2481 33.3655 13.1658 33.283 13.0834H33.2006C33.2006 13.0834 33.0357 13.0834 32.9532 13.0011C32.8708 13.0011 32.7883 12.9188 32.7059 12.8365C32.6234 12.8365 32.5409 12.8365 32.4585 12.7542C32.376 12.6719 32.2936 12.7542 32.2111 12.6719H32.0462C32.0462 12.5896 31.9638 12.5896 31.8813 12.5073C31.7989 12.5073 31.7164 12.425 31.5515 12.3427H31.3866C31.3866 12.3427 31.3866 12.3427 31.3041 12.3427C31.2217 12.3427 31.3041 12.3427 31.2217 12.3427L30.8094 12.1781C30.8094 12.1781 30.8094 12.1781 30.727 12.1781C30.6445 12.1781 30.727 12.1781 30.6445 12.1781H30.3971L30.1498 12.0135H29.9849H29.5726C29.4902 11.8488 29.4077 11.8488 29.3253 11.8488H29.1603C29.0779 11.8488 28.913 11.7665 28.8305 11.6842C28.7481 11.6019 28.6656 11.6842 28.5832 11.6842H28.1709C28.1709 11.6019 27.9235 11.5196 27.9235 11.5196C27.9235 11.5196 27.7586 11.5196 27.6762 11.5196C27.5113 11.5196 27.3464 11.5196 27.1815 11.4373H27.0165C26.8516 11.4373 26.6867 11.4373 26.5218 11.4373C26.5218 11.4373 26.5218 11.4373 26.4394 11.4373H26.3569C26.3569 11.4373 26.192 11.4373 26.1096 11.4373C26.0271 11.4373 25.9447 11.4373 25.8622 11.4373C25.7797 11.4373 25.6973 11.4373 25.6148 11.4373H25.0377C25.0377 11.4373 25.0377 11.4373 24.9552 11.4373H24.7903C24.7903 11.4373 24.6254 11.4373 24.5429 11.4373H24.2131C24.2956 11.2727 24.378 11.1081 24.5429 10.9435C24.5429 10.9435 24.6254 10.8612 24.7078 10.7789C24.7078 10.6966 24.8728 10.6142 24.8728 10.5319C24.9552 10.3673 25.0377 10.285 25.2026 10.1204C25.285 9.95579 25.4499 9.87348 25.4499 9.79117C26.9341 7.98043 28.7481 6.33429 30.727 5.01738L30.3971 5.182C30.3971 5.182 30.3972 5.18199 30.2322 5.2643C30.2322 5.2643 30.2322 5.34661 30.1498 5.34661C30.1498 5.34661 30.0673 5.34661 29.9849 5.51122C30.1498 5.34661 30.2322 5.42892 30.1498 5.51122C29.9024 5.67584 29.6551 5.92276 29.4077 6.08737C29.4077 6.08737 29.2428 6.16968 29.2428 6.25198C29.2428 6.25198 29.2428 6.25198 29.1603 6.25198H29.0779C28.9954 6.4166 28.8305 6.49891 28.7481 6.58121C28.7481 6.58121 28.7481 6.66352 28.6656 6.74583C28.5832 6.82813 28.4183 6.91044 28.3358 7.07505C28.3358 7.07505 28.2534 7.15736 28.1709 7.23967C28.0884 7.32197 28.0884 7.32197 28.006 7.40428C27.9235 7.48659 27.7586 7.6512 27.6762 7.73351C27.6762 7.73351 27.6762 7.73351 27.6762 7.81581C27.6762 7.89812 27.6762 7.81581 27.6762 7.89812L27.5113 8.06273C27.5113 8.06273 27.6762 7.98043 27.6762 7.89812C27.6762 7.89812 27.6762 7.89812 27.7586 7.81581C27.8411 7.73351 27.7586 7.81581 27.8411 7.73351C28.006 7.6512 28.0884 7.48659 28.2534 7.32197C28.5007 7.07505 28.8305 6.82813 29.0779 6.58121C29.0779 6.58121 29.0779 6.58121 29.1603 6.4989C29.2428 6.4166 29.1603 6.49891 29.2428 6.4166C29.2428 6.4166 29.4077 6.33429 29.4902 6.25198C29.5726 6.16968 29.6551 6.16968 29.6551 6.08737H29.7375C29.7375 6.00506 29.7375 6.00507 29.7375 5.92276L30.0673 5.75814H30.2322C30.2322 5.59353 30.2322 5.59353 30.3147 5.59353C30.3147 5.59353 30.4796 5.51122 30.5621 5.42892C30.6445 5.34661 30.727 5.34661 30.8094 5.2643C30.8094 5.2643 30.8094 5.2643 30.8919 5.2643C31.0568 5.2643 31.2217 5.09969 31.3866 5.01738C31.5515 4.93508 31.7164 4.85277 31.8813 4.77046C31.8813 4.77046 31.8813 4.77046 31.9638 4.77046C31.9638 4.77046 31.8813 4.85277 31.7989 4.93508C31.7164 4.93508 31.5515 5.09969 31.469 5.09969C31.469 5.09969 31.469 5.09969 31.3866 5.09969H31.3041C31.3041 5.2643 31.1392 5.2643 31.0568 5.34661C30.9743 5.42892 30.8919 5.42892 30.8094 5.51122C30.727 5.59353 30.6445 5.59353 30.5621 5.67584C30.4796 5.75814 30.3971 5.75814 30.3147 5.84045L30.0673 6.00506L29.82 6.16968C29.82 6.16968 29.82 6.16968 29.6551 6.25198C29.4902 6.33429 29.6551 6.25199 29.5726 6.33429C29.5726 6.4166 29.5726 6.33429 29.6551 6.33429C29.82 6.25199 29.9849 6.08737 30.1498 6.00506C30.1498 6.00506 30.3147 5.92276 30.3971 5.84045C30.4796 5.75814 30.5621 5.75814 30.6445 5.67584C30.8094 5.67584 30.6445 5.75814 30.4796 6.00506C30.2322 6.16968 29.9849 6.4166 29.7375 6.58121C29.4902 6.74583 29.2428 6.99274 29.0779 7.07505C28.5007 7.56889 27.9235 8.14504 27.3464 8.72119C27.3464 8.72119 27.1815 8.8858 27.1815 8.96811H27.0165C27.0165 9.13272 27.0166 9.13272 26.9341 9.21503L26.5218 9.70887C26.3569 9.87348 26.2745 10.0381 26.1096 10.2027C26.1096 10.2027 26.1096 10.285 26.0271 10.285C25.9447 10.285 26.0271 10.3673 25.9447 10.3673C25.9447 10.4496 25.8622 10.5319 25.7797 10.6142C26.0271 10.285 26.3569 9.95579 26.6043 9.62656C26.6043 9.54426 26.7692 9.46195 26.7692 9.37964C26.7692 9.37964 26.7692 9.37964 26.8516 9.29734V9.21503C27.0166 9.05042 27.099 8.8858 27.2639 8.8035C27.4288 8.63888 27.5113 8.55658 27.6762 8.39196C27.8411 8.22735 28.006 8.14504 28.0884 7.98043C28.0884 7.98043 28.0884 7.98043 28.1709 7.89812C28.2534 7.81581 28.1709 7.89812 28.2534 7.81581C28.2534 7.81581 28.4183 7.6512 28.5007 7.6512C28.5007 7.6512 28.5007 7.6512 28.5832 7.56889C28.6656 7.48659 28.5832 7.56889 28.6656 7.48659C28.6656 7.48659 28.8305 7.40428 28.8305 7.32197C28.8305 7.32197 28.9954 7.23967 29.0779 7.15736C29.1603 7.07505 29.2428 6.99275 29.3253 6.99275C29.4077 6.99275 29.4902 6.82813 29.5726 6.82813C29.5726 6.82813 29.5726 6.82813 29.6551 6.82813C29.6551 6.82813 29.6551 6.99275 29.4902 6.99275C29.4077 7.07505 29.3253 7.15736 29.2428 7.23967C29.3253 7.15736 29.4902 7.07505 29.5726 6.99275C29.6551 6.91044 29.82 6.82813 29.9024 6.74583C30.0673 6.58121 30.3972 6.4166 30.4796 6.33429L30.6445 6.25198C30.6445 6.25198 30.727 6.16968 30.8094 6.08737C30.8094 6.08737 30.9743 6.00507 31.0568 5.92276C31.0568 5.92276 31.0568 5.92276 31.1392 5.92276H31.2217L31.3866 5.75814L31.5515 5.67584H31.634C31.634 5.67584 31.634 5.59353 31.7164 5.59353C31.8813 5.59353 31.9638 5.42892 32.1287 5.34661H32.2111C32.2111 5.34661 32.2111 5.2643 32.2936 5.2643C32.2936 5.2643 32.4585 5.2643 32.4585 5.182C32.4585 5.09969 32.6234 5.09969 32.6234 5.09969C32.7059 5.09969 32.8708 5.01738 32.9532 4.93508C33.0357 4.85277 33.2006 4.85277 33.283 4.77046L33.6953 4.60585H33.7778L34.0251 4.52354H34.2725C34.2725 4.44124 34.4374 4.35893 34.4374 4.35893L34.8496 4.19431C34.9321 4.19431 34.8496 4.19431 34.9321 4.19431C35.7566 3.86509 36.5812 3.61817 37.4057 3.45356C37.4057 3.45356 37.4057 3.45356 37.4882 3.45356C37.5706 3.45356 37.4882 3.45356 37.6531 3.45356C37.6531 3.45356 37.7355 3.45356 37.818 3.45356C38.8074 3.20663 39.8793 3.04202 40.8688 2.95971H41.1986H41.3635H41.4459C41.4459 2.95971 41.4459 2.95971 41.5284 2.95971C41.5284 2.95971 41.5284 2.95971 41.5284 3.04202V3.12433C41.5284 3.20663 41.6109 3.37125 41.6933 3.45356C41.7758 3.53586 41.7758 3.70047 41.8582 3.78278L42.1056 4.27662C42.1056 4.27662 42.1056 4.27662 42.1056 4.44123C42.1056 4.60585 42.1056 4.44123 42.1056 4.60585V4.85277C42.188 4.85277 42.2705 4.85277 42.2705 4.93508C42.2705 5.01738 42.2705 4.93508 42.2705 5.01738C42.2705 5.01738 42.2705 5.18199 42.3529 5.2643C42.4354 5.34661 42.3529 5.42892 42.4354 5.51122C42.5178 5.59353 42.4354 5.67584 42.4354 5.75814C42.4354 6.00506 42.6003 6.16968 42.6827 6.33429C42.6827 6.49891 42.8477 6.74582 42.8477 6.91044C42.9301 7.32197 43.095 7.73351 43.1775 8.14504C43.1775 8.14504 43.1775 8.30966 43.1775 8.39196C43.1775 8.39196 43.1775 8.39196 43.1775 8.47427C43.1775 8.55657 43.1775 8.47427 43.1775 8.55657C43.1775 8.72119 43.1775 8.8858 43.2599 9.05042C43.2599 9.05042 43.2599 9.21503 43.2599 9.29734C43.2599 9.37964 43.2599 9.46195 43.2599 9.54426C43.2599 9.62656 43.2599 9.70887 43.2599 9.79117C43.2599 9.87348 43.2599 9.95579 43.2599 9.95579C43.2599 10.0381 43.2599 10.1204 43.2599 10.285C43.2599 10.285 43.2599 10.4496 43.2599 10.5319C43.2599 10.6142 43.2599 10.6966 43.2599 10.7789C43.2599 11.0258 43.2599 11.1904 43.2599 11.4373C43.2599 11.6842 43.2599 11.8488 43.2599 12.0958C43.2599 12.0958 43.2599 12.0958 43.2599 12.1781C43.2599 12.2604 43.2599 12.1781 43.2599 12.2604C43.2599 12.2604 43.2599 12.3427 43.2599 12.425C43.2599 12.5073 43.2599 12.6719 43.2599 12.7542C43.2599 12.8365 43.2599 13.0011 43.2599 13.0834V14.2357L44.002 12.7542ZM44.1669 34.9771C44.1669 34.8124 44.1669 34.7301 44.1669 34.6478V34.3186C44.1669 34.3186 44.1669 34.154 44.1669 34.0717C44.1669 34.3186 44.1669 34.3186 44.1669 34.2363C44.1669 34.2363 44.1669 34.0717 44.1669 33.9894C44.1669 33.9071 44.1669 33.8248 44.1669 33.7425C44.1669 33.5778 44.1669 33.4132 44.1669 33.2486C44.1669 33.084 44.1669 32.9194 44.1669 32.7548C44.1669 32.7548 44.1669 32.7548 44.1669 32.6725C44.1669 32.5902 44.1669 32.6725 44.1669 32.5902V32.4255C44.1669 32.4255 44.1669 32.3432 44.1669 32.2609C44.1669 32.2609 44.1669 32.0963 44.1669 32.014C44.1669 32.014 44.1669 31.8494 44.1669 31.7671C44.1669 31.6025 44.1669 31.4379 44.0845 31.3556C44.002 31.2733 44.0845 31.0263 44.002 30.944V30.6971C44.002 30.6971 43.9196 30.5325 43.9196 30.4502C44.0845 31.1086 44.2494 31.8494 44.4143 32.6725C44.4143 32.6725 44.4143 32.6725 44.4143 32.7548C44.4143 32.9194 44.4143 33.084 44.4967 33.2486C44.4967 33.3309 44.4967 33.3309 44.4967 33.4132C44.4967 33.4132 44.4967 33.4132 44.4967 33.5778C44.4967 33.5778 44.4967 33.7425 44.4967 33.8248C44.4967 33.8248 44.4967 33.9071 44.4967 33.9894C44.4967 34.2363 44.4967 34.4009 44.4967 34.5655C44.4967 34.7301 44.4967 34.9771 44.4967 35.1417V35.3886C44.4967 35.4709 44.4967 35.5532 44.4967 35.6355C44.4967 35.7178 44.4967 35.8001 44.4967 35.8824V36.2117C44.4967 36.2117 44.4967 36.1293 44.4967 36.047V35.8824V35.7178C44.4967 35.7178 44.4967 35.5532 44.4967 35.4709C44.4967 35.4709 44.4967 35.3886 44.4967 35.3063C44.4967 35.224 44.4967 35.224 44.4967 35.1417C44.4967 34.9771 44.4967 34.7301 44.4967 34.4832C44.4967 34.2363 44.4967 34.0717 44.4967 33.8248C44.4967 33.5778 44.4967 33.4132 44.4143 33.1663C44.4143 33.3309 44.4143 33.5778 44.4143 33.7425C44.4143 33.9071 44.4143 34.154 44.4143 34.3186C44.4143 34.4832 44.2494 34.3186 44.2494 33.9894C44.2494 33.9894 44.2494 33.8248 44.2494 33.7425V33.5778C44.2494 33.5778 44.2494 33.4132 44.2494 33.3309V33.1663C44.2494 33.1663 44.2494 33.084 44.2494 33.0017C44.2494 32.8371 44.2494 32.6725 44.2494 32.5078C44.2494 32.3432 44.2494 32.2609 44.2494 32.1786C44.2494 31.7671 44.0845 31.4379 44.002 31.0263C44.002 30.8617 43.9196 30.6148 43.8371 30.4502C43.7546 30.2856 43.7546 30.0386 43.6722 29.874C43.4248 29.1333 43.1775 28.3102 42.8477 27.5694C42.8477 27.6517 42.8477 27.8164 42.9301 27.8987C42.9301 27.8987 42.9301 27.981 42.9301 28.0633C42.9301 28.1456 42.9301 28.1456 42.9301 28.2279C42.9301 28.3102 42.9301 28.3925 43.0126 28.5571C43.0126 28.5571 43.0126 28.6394 43.0126 28.7217C43.0126 28.7217 43.0126 28.804 43.0126 28.8864C43.0126 28.9687 43.0126 29.051 43.095 29.2156C43.095 29.2979 43.095 29.3802 43.095 29.4625C43.095 29.5448 43.095 29.6271 43.1775 29.7917C43.1775 29.7917 43.1775 29.874 43.1775 29.9563V30.121C43.1775 30.2856 43.2599 30.5325 43.3424 30.6971C43.3424 30.7794 43.3424 30.8617 43.3424 31.0263C43.3424 31.0263 43.3424 31.1086 43.3424 31.1909C43.3424 31.2732 43.3424 31.2733 43.3424 31.3556C43.3424 31.4379 43.3424 31.5202 43.3424 31.6848C43.3424 31.7671 43.3424 31.8494 43.3424 32.014C43.3424 32.1786 43.3424 32.4255 43.4248 32.5902C43.4248 32.7548 43.4248 33.0017 43.4248 33.1663C43.4248 33.1663 43.4248 33.2486 43.4248 33.3309C43.4248 33.4132 43.4248 33.4955 43.4248 33.5778C43.4248 33.5778 43.3424 33.4132 43.3424 33.3309C43.3424 33.3309 43.3424 33.2486 43.3424 33.1663C43.3424 33.084 43.3424 33.0017 43.3424 32.9194C43.3424 32.9194 43.3424 32.9194 43.3424 33.0017C43.3424 33.084 43.3424 33.0017 43.3424 33.084C43.3424 33.084 43.3424 33.2486 43.3424 33.3309C43.3424 33.4132 43.3424 33.4955 43.3424 33.5778C43.3424 33.6601 43.3424 33.7425 43.3424 33.7425C43.3424 33.8248 43.3424 33.9894 43.3424 34.154V34.3186C43.3424 34.3186 43.3424 34.4009 43.3424 34.4832V34.6478C43.3424 34.6478 43.3424 34.8124 43.3424 34.8947C43.3424 34.9771 43.3424 35.0594 43.3424 35.0594C43.3424 35.0594 43.3424 35.0594 43.3424 35.1417C43.3424 35.3063 43.3424 35.4709 43.3424 35.6355C43.3424 35.8001 43.3424 35.9647 43.3424 36.1293V36.3763C43.3424 36.3763 43.3424 36.5409 43.3424 36.6232C43.3424 36.7878 43.3424 36.9524 43.3424 37.117V37.2816C43.3424 37.2816 43.3424 37.2816 43.3424 37.3639C43.3424 37.4463 43.3424 37.6109 43.3424 37.7755C43.3424 37.9401 43.3424 38.0224 43.3424 38.187C43.3424 38.187 43.3424 38.3516 43.3424 38.4339C43.3424 38.5986 43.3424 38.5985 43.3424 38.6809C43.3424 38.8455 43.3424 39.0101 43.3424 39.1747C43.3424 39.3393 43.3424 39.3393 43.3424 39.4216C43.3424 39.4216 43.3424 39.5862 43.3424 39.6685C43.3424 39.8332 43.3424 39.9155 43.3424 40.0801C43.3424 40.1624 43.3424 40.0801 43.3424 40.1624C43.3424 40.2447 43.3424 40.4093 43.3424 40.4916C43.3424 40.4916 43.3424 40.5739 43.3424 40.6562C43.3424 40.9031 43.2599 41.0678 43.1775 41.3147C43.095 41.5616 43.095 41.7262 43.0126 41.9731C43.0126 42.1377 43.0126 42.1377 43.0126 42.2201C43.0126 42.3024 43.0126 42.467 42.9301 42.5493C42.9301 42.5493 42.9301 42.5493 42.9301 42.6316C42.9301 42.7139 42.9301 42.7139 42.9301 42.7962C42.9301 42.7962 42.9301 42.8785 42.9301 42.9608C42.6003 43.9485 42.2705 44.9362 41.8582 45.9239V46.1708L41.6933 46.5V46.5823C41.6933 46.5823 41.6933 46.5823 41.6109 46.5823H41.4459C41.3635 46.5823 41.1986 46.5823 41.1161 46.5823C41.1161 46.5823 41.0337 46.5823 40.9512 46.5823C40.9512 46.5823 40.9512 46.5823 40.8688 46.5823C40.7863 46.5823 40.8688 46.5823 40.7863 46.5823H40.2091C40.2091 46.5823 40.1267 46.5823 40.0442 46.5823H39.7969H39.632C39.632 46.5823 39.5495 46.5823 39.4671 46.5823C39.4671 46.5823 39.3021 46.5823 39.2197 46.5823H38.9723C38.9723 46.5823 38.9723 46.5823 38.8899 46.5823C38.8074 46.5823 38.8899 46.5823 38.8074 46.5823C37.9829 46.4177 37.1584 46.2531 36.4163 46.0062H36.3338C36.3338 46.0062 36.3338 46.0062 36.2514 46.0062H36.004C36.004 45.9239 35.8391 45.9239 35.7566 45.8416C35.7566 45.8416 35.7566 45.8416 35.6742 45.8416H35.5917L35.1795 45.6769C35.1795 45.6769 35.1795 45.6769 35.097 45.6769C35.0146 45.6769 35.097 45.6769 35.0146 45.6769H34.8496C34.8496 45.6769 34.6847 45.6769 34.6023 45.5946C34.6023 45.5946 34.6023 45.5946 34.5198 45.5946H34.4374C34.4374 45.5123 34.2725 45.5123 34.19 45.43H33.9427C33.9427 45.3477 33.6953 45.1831 33.6953 45.1831C33.6128 45.1831 33.5304 45.1831 33.4479 45.0185C33.4479 45.0185 33.3655 45.0185 33.283 45.0185C33.283 45.0185 33.2006 45.0185 33.1181 45.0185C33.0357 45.0185 32.9532 44.9362 32.7883 44.8539H32.7059C32.7059 44.8539 32.6234 44.7716 32.5409 44.6893L32.2111 44.5246C32.2111 44.5246 32.2111 44.5246 32.2111 44.4423C32.2111 44.4423 32.1287 44.4423 32.0462 44.4423C31.9638 44.4423 31.7989 44.2777 31.7164 44.2777C31.7164 44.2777 31.634 44.2777 31.5515 44.1954C31.469 44.1131 31.469 44.1954 31.3866 44.1131C31.3866 44.1131 31.2217 44.0308 31.1392 43.9485C31.1392 43.9485 31.1392 43.9485 31.0568 43.9485C30.9743 43.9485 31.0568 43.9485 30.9743 43.9485C30.8919 43.9485 30.727 43.7839 30.6445 43.7839C30.6445 43.7839 30.5621 43.7839 30.4796 43.7016C30.3972 43.6193 30.3971 43.7016 30.3147 43.6193C30.1498 43.4547 29.9024 43.3723 29.7375 43.2077C29.6551 43.1254 29.4902 43.0431 29.3253 42.9608L28.9954 42.6316H28.913L28.8305 42.467L28.6656 42.3024L28.5007 42.1377L28.3358 41.9731L27.9235 41.5616C27.9235 41.5616 27.9235 41.5616 27.8411 41.4793C27.8411 41.4793 27.6762 41.3147 27.5937 41.3147C27.4288 41.1501 27.3464 41.0678 27.1815 40.9031L27.0165 40.7385C27.0165 40.7385 26.9341 40.5739 26.8516 40.5739C26.7692 40.4916 26.6867 40.4093 26.6043 40.2447C26.6043 40.2447 26.5218 40.1624 26.4394 40.0801L26.2745 39.9155C26.2745 39.9155 26.192 39.8332 26.1096 39.7508C26.1096 39.6685 26.1096 39.5862 26.1096 39.5862C26.0271 39.5039 25.9447 39.3393 25.7797 39.257C25.7797 39.257 25.7797 39.1747 25.6973 39.0924C25.6973 39.0101 25.5324 38.9278 25.4499 38.8455V38.6809C25.285 38.6809 25.285 38.5986 25.2026 38.5162C25.2026 38.4339 25.0377 38.3516 24.9552 38.187C24.9552 38.187 24.9552 38.187 24.9552 38.1047C24.9552 38.1047 25.0377 38.1047 25.1201 38.1047H25.3675C25.5324 38.1047 25.6148 38.1047 25.7797 38.1047C25.9447 38.1047 26.0271 38.1047 26.192 38.1047C26.3569 38.1047 26.4394 38.1047 26.6043 38.1047C26.6867 38.1047 26.7692 38.1047 26.8516 38.1047C26.8516 38.1047 27.0166 38.1047 27.099 38.1047C27.099 38.1047 27.099 38.1047 27.1815 38.1047C27.2639 38.1047 27.1815 38.1047 27.2639 38.1047C27.4288 38.1047 27.5113 38.1047 27.6762 38.0224C28.1709 37.9401 28.6656 37.8578 29.1603 37.6932H29.3253C29.3253 37.6932 29.4077 37.6932 29.4902 37.6109C29.5726 37.6109 29.7375 37.6109 29.9024 37.5286C29.9024 37.5286 29.9024 37.5286 29.9849 37.5286C29.9849 37.5286 29.9849 37.5286 30.0673 37.5286H30.2322C30.3972 37.4463 30.4796 37.3639 30.5621 37.3639C31.3041 37.117 32.1287 36.7878 32.8708 36.4586C33.0357 36.4586 33.1181 36.3763 33.2006 36.294H33.3655C33.3655 36.2117 33.4479 36.1293 33.5304 36.1293C33.6953 36.1293 33.7778 35.9647 33.9427 35.9647C33.9427 35.9647 33.9427 35.9647 34.0251 35.9647C34.1076 35.9647 34.0251 35.9647 34.1076 35.9647L34.3549 35.8001C34.3549 35.8001 34.5198 35.8001 34.6023 35.6355C34.6847 35.4709 34.7672 35.5532 34.8496 35.4709C34.9321 35.3886 35.0146 35.3886 35.097 35.3063C35.1795 35.224 35.2619 35.224 35.3444 35.1417L35.6742 34.8947H35.8391C35.8391 34.7301 35.9215 34.7301 36.004 34.6478L36.3338 34.4009C36.3338 34.4009 36.4163 34.4009 36.4987 34.3186C36.5812 34.2363 36.5812 34.3186 36.6636 34.2363C36.7461 34.2363 36.911 34.0717 36.9934 33.9894C37.1583 33.9071 37.2408 33.7425 37.4057 33.6601C37.4057 33.6601 37.5706 33.5778 37.6531 33.4955V33.4132H37.7355C37.7355 33.2486 37.9004 33.2486 37.9829 33.1663C38.1478 33.0017 38.3127 32.9194 38.4776 32.7548C38.5601 32.7548 38.725 32.5902 38.8074 32.5078C38.9723 32.4255 39.0548 32.2609 39.1372 32.1786C39.1372 32.1786 39.1372 32.1786 39.2197 32.1786C39.3021 32.1786 39.2197 32.1786 39.3021 32.1786C39.3021 32.1786 39.3846 32.0963 39.4671 32.014C39.5495 31.9317 39.5495 31.9317 39.632 31.8494C39.7144 31.7671 39.7144 31.7671 39.7969 31.6848C39.8793 31.6025 39.9618 31.5202 40.1267 31.3556C40.1267 31.3556 40.1267 31.3556 40.2091 31.2732C40.2091 31.2732 40.2091 31.1909 40.374 31.1086C40.374 31.1086 40.539 30.944 40.6214 30.8617C40.6214 30.8617 40.6214 30.8617 40.7039 30.7794C40.7863 30.6971 40.7039 30.7794 40.7863 30.6971C40.8688 30.5325 41.0337 30.4502 41.0337 30.3679L41.1986 30.2033L41.3635 30.0386C41.4459 29.874 41.6109 29.7917 41.6933 29.7094C41.6933 29.7094 41.6933 29.6271 41.7758 29.6271L42.1056 29.2156C42.1056 29.2156 42.188 29.1333 42.2705 29.051C42.3529 28.9687 42.3529 28.9687 42.4354 28.8864L42.6003 28.7217C42.6003 28.7217 42.6827 28.5571 42.7652 28.5571L43.095 28.1456C43.095 28.1456 43.095 28.1456 43.095 27.981C43.095 27.8164 43.1775 27.8164 43.2599 27.8164C43.2599 27.7341 43.3424 27.6517 43.4248 27.5694C43.4248 27.7341 43.5897 27.8987 43.6722 28.0633C43.6722 28.0633 43.6722 28.1456 43.6722 28.2279C43.6722 28.3102 43.7546 28.4748 43.8371 28.5571C43.8371 28.6394 43.9196 28.7217 43.9196 28.804C43.9196 28.804 43.9196 28.9687 44.002 29.051C44.002 29.2156 44.0845 29.3802 44.1669 29.4625C44.9915 31.6848 45.4862 34.0717 45.6511 36.4586M24.2956 36.8701C24.1307 36.8701 23.9658 36.8701 23.7184 36.8701C23.7184 36.8701 23.7184 36.8701 23.636 36.8701C23.5535 36.8701 23.5535 36.8701 23.471 36.8701C23.3886 36.8701 23.2237 36.8701 23.2237 36.8701H22.8939C22.8114 36.7055 22.729 36.5409 22.6465 36.3763C22.6465 36.3763 22.6465 36.2117 22.5641 36.2117C22.5641 36.1293 22.4816 35.9647 22.3991 35.8824C22.3991 35.8824 22.3167 35.7178 22.2342 35.6355C22.2342 35.6355 22.2342 35.6355 22.2342 35.5532C22.2342 35.4709 22.2342 35.5532 22.2342 35.3886C22.2342 35.224 22.0693 35.0594 22.0693 34.9771C21.1623 32.6725 20.5027 30.2856 20.3378 27.8164C20.3378 27.981 20.3378 28.0633 20.3378 28.1456C20.3378 28.2279 20.3378 28.3102 20.3378 28.5571C20.3378 28.5571 20.3378 28.7217 20.3378 28.804C20.3378 28.5571 20.3378 28.5571 20.3378 28.6394C20.3378 28.804 20.3378 28.9687 20.3378 29.1333C20.3378 29.2156 20.3378 29.2979 20.3378 29.2979C20.3378 29.2979 20.3378 29.4625 20.3378 29.5448C20.3378 29.6271 20.3378 29.7094 20.3378 29.7917C20.3378 29.7917 20.3378 29.7917 20.3378 29.874C20.3378 29.9563 20.3378 29.874 20.3378 29.9563C20.3378 30.121 20.3378 30.2856 20.3378 30.3679C20.3378 30.3679 20.3378 30.4502 20.3378 30.5325C20.3378 30.6971 20.3378 30.8617 20.4203 30.944C20.4203 30.944 20.4203 31.1086 20.4203 31.1909C20.4203 31.2732 20.4203 31.3556 20.4203 31.4379C20.4203 31.6025 20.5027 31.7671 20.5027 31.9317C20.5027 32.0963 20.5852 32.2609 20.6676 32.4255C20.6676 32.3432 20.6676 32.2609 20.6676 32.1786C20.6676 32.1786 20.6676 32.0963 20.6676 32.014C20.6676 31.9317 20.6676 31.9317 20.6676 31.8494C20.6676 31.6848 20.5852 31.5202 20.5027 31.2732C20.5027 31.2732 20.5027 31.1909 20.5027 31.1086C20.5027 31.0263 20.5027 31.0263 20.5027 30.944C20.5027 30.8617 20.5027 30.7794 20.5027 30.6971C20.5027 30.6148 20.5027 30.5325 20.5027 30.3679C20.5027 30.2033 20.5027 30.2033 20.5027 30.0386C20.5027 30.0386 20.5027 30.0386 20.5027 29.9563C20.5027 29.874 20.5027 29.7917 20.5027 29.7094C20.5027 29.6271 20.5027 29.5448 20.5027 29.4625C20.5027 29.2979 20.5027 29.1333 20.4203 28.9687C20.4203 28.804 20.4203 28.7217 20.4203 28.6394C20.4203 28.5571 20.4203 28.3925 20.4203 28.3102C20.4203 28.3102 20.4203 28.2279 20.4203 28.1456C20.4203 28.1456 20.4203 28.0633 20.4203 27.981C20.4203 27.8987 20.4203 27.8164 20.4203 27.6518C20.4203 27.4871 20.4203 27.4871 20.4203 27.4048V26.5818C20.4203 26.4995 20.4203 26.4171 20.4203 26.2525C20.4203 26.2525 20.4203 26.2525 20.4203 26.1702C20.4203 26.1702 20.4203 26.2525 20.4203 26.3348C20.4203 26.4995 20.4203 26.5818 20.4203 26.7464C20.4203 26.911 20.4203 27.0756 20.4203 27.3225C20.4203 27.3225 20.4203 27.4048 20.4203 27.4871C20.4203 27.5694 20.4203 27.5694 20.4203 27.6518C20.4203 27.7341 20.4203 27.8987 20.4203 27.981C20.4203 27.981 20.4203 28.0633 20.4203 28.1456C20.4203 28.3102 20.4203 28.4748 20.4203 28.5571C20.4203 28.5571 20.4203 28.6394 20.4203 28.7217C20.4203 28.804 20.4203 28.9687 20.4203 29.051C20.4203 28.9687 20.4203 28.8864 20.4203 28.7217C20.4203 28.5571 20.4203 28.5571 20.4203 28.3925C20.4203 28.2279 20.4203 28.2279 20.4203 28.0633C20.4203 28.0633 20.4203 27.981 20.4203 27.8987V27.7341C20.4203 27.7341 20.4203 27.7341 20.5027 27.7341C20.5027 27.8164 20.5027 27.981 20.5852 28.0633C20.5852 28.2279 20.5852 28.3925 20.5852 28.5571C20.5852 28.6394 20.5852 28.7217 20.5852 28.804C20.5852 28.8863 20.5852 28.9687 20.5852 29.051C20.5852 29.1333 20.5852 29.2156 20.5852 29.2979C20.5852 29.3802 20.5852 29.4625 20.5852 29.5448C20.5852 29.7094 20.5852 29.7917 20.5852 29.874C20.7501 30.6971 20.9974 31.4379 21.2448 32.2609C21.2448 32.3432 21.2448 32.4255 21.3272 32.5902V32.7548C21.3272 32.7548 21.4097 32.8371 21.4097 32.9194C21.4097 33.084 21.5746 33.3309 21.6571 33.4955C21.7395 33.6601 21.822 33.9071 21.9044 34.0717C21.9044 34.154 21.9869 34.2363 22.0693 34.3186C22.1518 34.4009 22.1518 34.4832 22.2342 34.5655C22.2342 34.4832 22.1518 34.3186 22.0693 34.2363C22.0693 34.2363 22.0693 34.154 22.0693 34.0717C22.0693 33.9894 22.0693 33.9894 22.0693 33.9071C22.0693 33.8248 21.9869 33.7425 21.9044 33.5778C21.822 33.4132 21.822 33.4132 21.7395 33.2486C21.6571 33.084 21.6571 33.084 21.6571 32.9194C21.6571 32.9194 21.6571 32.8371 21.6571 32.7548C21.6571 32.5902 21.4922 32.3432 21.4922 32.1786C21.4922 32.014 21.4097 31.7671 21.3272 31.6025C21.2448 31.4379 21.2448 31.1909 21.1623 30.944C21.1623 30.944 21.1623 30.8617 21.1623 30.7794C21.1623 30.6971 21.1623 30.6971 21.1623 30.6148C21.1623 30.5325 21.1623 30.4502 21.1623 30.2856C21.1623 30.2856 21.1623 30.2033 21.1623 30.121C21.1623 29.9563 21.1623 29.874 21.1623 29.7917C21.1623 29.6271 21.1623 29.4625 21.0799 29.2156C21.0799 29.1333 21.0799 28.9687 21.0799 28.8864C21.0799 28.8864 21.0799 28.804 21.0799 28.7217C21.0799 28.6394 21.0799 28.6394 21.0799 28.5571C21.1623 28.7217 21.2448 28.9687 21.3272 29.1333C21.3272 28.9687 21.3272 28.804 21.3272 28.6394C21.3272 28.6394 21.3272 28.4748 21.3272 28.3925C21.3272 28.3102 21.3272 28.2279 21.3272 28.2279C21.3272 28.2279 21.3272 28.1456 21.3272 28.0633C21.3272 28.0633 21.3272 28.0633 21.3272 27.981C21.3272 27.8987 21.3272 27.981 21.3272 27.8987C21.3272 27.8164 21.3272 27.6517 21.3272 27.5694V27.4048C21.3272 27.4048 21.3272 27.4048 21.3272 27.3225C21.3272 27.2402 21.3272 27.3225 21.3272 27.1579C21.3272 27.0756 21.3272 26.9933 21.3272 26.8287C21.3272 26.4995 21.3272 26.1702 21.3272 25.9233C21.3272 25.9233 21.3272 25.9233 21.3272 25.841V25.2649V24.8533C21.3272 24.8533 21.3272 24.8533 21.3272 24.771C21.3272 24.771 21.3272 24.771 21.3272 24.6887C21.3272 24.6064 21.3272 24.5241 21.3272 24.5241V24.3595C21.3272 24.1949 21.3272 24.1126 21.3272 23.9479C21.3272 23.7833 21.3272 23.6187 21.3272 23.4541V23.2072V23.1249V23.0426C21.3272 22.7133 21.3272 22.3841 21.4097 22.1372C21.4097 22.0549 21.4097 22.1372 21.4097 22.0549C21.5746 21.1495 21.7395 20.2441 21.9869 19.4211C21.9869 19.4211 21.9869 19.4211 21.9869 19.3388C21.9869 19.2565 21.9869 19.2565 21.9869 19.0918C21.9869 19.0918 21.9869 19.0095 21.9869 18.9272C22.3167 17.8572 22.6465 16.8696 23.0588 15.8819V15.7173C23.1412 15.7173 23.2237 15.635 23.2237 15.5527C23.2237 15.4703 23.3061 15.3057 23.3886 15.2234C23.3886 15.2234 23.3886 15.1411 23.471 15.0588V14.9765H23.8833H24.2131C24.2131 14.9765 24.2956 14.9765 24.378 14.9765H24.5429H24.7903H25.0377C25.1201 14.9765 25.2026 14.9765 25.285 14.9765H25.5324C25.5324 14.9765 25.6148 14.9765 25.6973 14.9765C25.8622 14.9765 26.0271 14.9765 26.192 15.0588C26.6043 15.0588 27.099 15.2234 27.5113 15.3057H27.6762C27.6762 15.3057 27.7586 15.3057 27.8411 15.3057H28.1709C28.1709 15.388 28.5007 15.4703 28.5007 15.4703C28.5832 15.4703 28.6656 15.4703 28.8305 15.5527C29.4077 15.7173 30.0673 15.9642 30.5621 16.1288C30.5621 16.1288 30.727 16.1288 30.8094 16.2111C30.8094 16.2111 30.9743 16.2111 31.0568 16.2934C31.0568 16.2934 31.0568 16.2934 31.1392 16.2934C31.3041 16.3757 31.5515 16.458 31.7164 16.5403C31.8813 16.6226 32.1287 16.7049 32.2936 16.7873C32.2936 16.7873 32.376 16.7873 32.4585 16.8696C32.5409 16.9519 32.5409 16.8696 32.6234 16.9519C32.7059 16.9519 32.8708 17.0342 32.9532 17.1165L33.1181 17.2811L33.4479 17.4457V17.528H33.6128C33.6953 17.6926 33.8602 17.7749 33.9427 17.8572C34.1076 17.9396 34.2725 18.0219 34.3549 18.1865H34.5198C34.5198 18.2688 34.6847 18.4334 34.6847 18.4334C34.7672 18.4334 34.9321 18.598 35.0146 18.6803C35.0146 18.6803 35.097 18.6803 35.1795 18.7626C35.2619 18.7626 35.3444 18.9272 35.5093 19.0095C36.004 19.4211 36.4987 19.8326 36.9934 20.2441C37.4882 20.738 38.1478 21.3141 38.6425 21.8903C38.6425 21.8903 38.725 21.9726 38.8074 22.0549C38.8899 22.1372 38.8899 22.1372 38.9723 22.2195C39.0548 22.3018 39.1372 22.4664 39.2197 22.5487C39.2197 22.5487 39.2197 22.5487 39.2197 22.631C39.2197 22.7956 39.3021 22.7956 39.3846 22.878C39.4671 22.9603 39.5495 23.1249 39.7144 23.2072C39.7144 23.2072 39.7144 23.2895 39.7969 23.3718C39.7969 23.4541 39.9618 23.5364 40.0442 23.701C40.1267 23.8656 40.2091 23.8656 40.2916 24.0303L40.539 24.3595C40.539 24.4418 40.7039 24.5241 40.7039 24.6887C40.7039 24.8533 40.8688 24.8533 40.8688 25.0179C40.8688 25.1825 41.0337 25.1825 41.0337 25.3472C41.0337 25.3472 41.0337 25.3472 41.0337 25.4295C41.0337 25.4295 41.0337 25.5118 40.9512 25.5941C40.9512 25.5941 40.9512 25.6764 40.8688 25.7587C40.8688 25.9233 40.7039 26.0056 40.6214 26.0879C40.539 26.1702 40.4565 26.3348 40.374 26.4172C40.374 26.4172 40.2916 26.5818 40.2091 26.6641C40.1267 26.7464 40.0442 26.911 39.9618 26.9933C39.9618 26.9933 39.8793 27.0756 39.7969 27.1579C39.7969 27.1579 39.7969 27.1579 39.7969 27.2402C39.7969 27.3225 39.7969 27.2402 39.7969 27.3225C39.7969 27.4048 39.632 27.4871 39.5495 27.5694C39.4671 27.6517 39.3846 27.7341 39.3021 27.8164C39.2197 27.8987 39.1372 27.981 39.0548 28.1456L38.8899 28.3102C38.8899 28.3102 38.8074 28.3925 38.725 28.4748C38.4776 28.804 37.9829 29.2156 37.6531 29.5448C37.6531 29.5448 37.4882 29.7094 37.4057 29.7917H37.3233C37.3233 29.9563 37.3233 29.9563 37.2408 29.9563C37.0759 30.121 36.911 30.2033 36.7461 30.3679C36.5812 30.5325 36.4163 30.6148 36.2514 30.7794C36.2514 30.7794 36.0865 30.944 36.004 30.944C35.9215 30.944 35.8391 31.1086 35.7566 31.1086L35.5917 31.2732C35.5917 31.2732 35.5093 31.2733 35.4268 31.3556C35.3444 31.3556 35.1795 31.5202 35.097 31.6025H35.0146C35.0146 31.6848 35.0146 31.6848 34.9321 31.7671L34.7672 31.9317C34.6023 32.014 34.5198 32.0963 34.3549 32.2609C34.19 32.4255 34.0251 32.4255 33.8602 32.5902C33.6953 32.7548 33.5304 32.7548 33.3655 32.8371C33.3655 32.8371 33.283 32.8371 33.2006 32.9194C33.1181 33.0017 33.1181 32.9194 33.0357 33.0017C32.9532 33.0017 32.7883 33.1663 32.7059 33.2486C32.7059 33.2486 32.6234 33.2486 32.5409 33.3309H32.376C32.2936 33.4955 32.1287 33.4955 32.0462 33.5778C32.0462 33.5778 31.9638 33.5778 31.8813 33.5778C31.7989 33.5778 31.7164 33.5778 31.7164 33.6601C31.7164 33.7425 31.5515 33.6601 31.469 33.8248C31.469 33.8248 31.469 33.8248 31.3041 33.8248H31.1392C31.0568 33.9071 30.9743 33.9894 30.8919 33.9894C30.8094 33.9894 30.727 33.9894 30.6445 34.0717C30.5621 34.154 30.4796 34.0717 30.3971 34.154C30.3147 34.154 30.2322 34.154 30.0673 34.2363C30.0673 34.2363 29.9849 34.2363 29.9024 34.2363C29.7375 34.2363 29.6551 34.3186 29.4902 34.4009C29.3253 34.4009 29.1603 34.4832 28.9954 34.5655H28.7481L28.5007 34.7301C28.3358 34.7301 28.2534 34.8124 28.0884 34.8947C27.9235 34.9771 27.8411 34.8947 27.6762 34.9771C27.4288 34.9771 27.3464 34.9771 27.2639 35.0594C27.0166 35.0594 26.8516 35.1417 26.6867 35.224C26.5218 35.3063 26.3569 35.224 26.2745 35.3063H26.0271C26.0271 35.3063 26.0271 35.3063 25.8622 35.3063C25.6973 35.3063 25.8622 35.3063 25.6973 35.3063H25.2026C25.2026 35.3886 25.0377 35.3886 25.0377 35.3886C24.8728 35.3886 24.7078 35.3886 24.5429 35.3886H24.4605C24.4605 35.3886 24.4605 35.3886 24.378 35.3886H24.1307C24.1307 35.3886 23.9658 35.3886 23.8833 35.3886H23.8009M19.9255 35.3886H19.7606C19.6782 35.3886 19.5133 35.3886 19.4308 35.3886C19.2659 35.3886 19.101 35.3886 18.9361 35.3886C18.7712 35.3886 18.6063 35.3886 18.5238 35.3886C16.1327 34.9771 13.9064 34.2363 11.7626 33.1663C11.9275 33.1663 12.01 33.2486 12.0924 33.3309C12.0924 33.3309 12.1749 33.3309 12.2573 33.3309C12.2573 33.3309 12.2573 33.3309 12.3398 33.3309C12.4222 33.3309 12.3398 33.3309 12.4223 33.3309H12.5872C12.3398 33.2486 12.4223 33.1663 12.5047 33.2486C12.7521 33.4132 13.0819 33.4955 13.4117 33.6601C13.4117 33.6601 13.5766 33.6601 13.6591 33.7425H13.7415L13.824 33.8248C13.9889 33.8248 14.0713 33.9071 14.2362 33.9894H14.4011C14.566 33.9894 14.6485 34.0717 14.8134 34.154H15.0608C15.0608 34.2363 15.2257 34.2363 15.3081 34.3186C15.473 34.3186 15.6379 34.4009 15.7204 34.4832H15.8029H15.8853C15.8853 34.4832 16.0502 34.4832 16.1327 34.4832C16.0502 34.4832 15.9678 34.4832 15.8853 34.4832H15.7204C15.7204 34.4832 15.6379 34.4832 15.5555 34.4832C15.3906 34.4832 15.2257 34.4009 15.0608 34.3186C14.731 34.2363 14.3187 34.0717 13.9889 33.9894H13.824C13.824 33.9894 13.7415 33.9894 13.6591 33.9071C13.5766 33.9071 13.4941 33.9071 13.4117 33.8248H13.1643C13.1643 33.7425 13.1643 33.6601 13.0819 33.6601C12.9994 33.6601 13.0819 33.6601 12.9994 33.6601C12.917 33.6601 12.8345 33.4955 12.7521 33.4132C12.7521 33.4132 12.6696 33.4132 12.5872 33.4132C12.5047 33.4132 12.5047 33.4132 12.4223 33.4132C12.3398 33.4132 12.2573 33.3309 12.1749 33.2486C12.0924 33.1663 12.01 33.1663 11.9275 33.084C11.9275 33.084 11.9275 33.084 11.8451 33.084L11.3504 32.8371C11.1854 32.7548 11.0205 32.6725 10.8556 32.5078C10.8556 32.5078 10.9381 32.5078 11.0205 32.5078C11.103 32.5078 11.2679 32.5902 11.3504 32.6725H11.4328C11.4328 32.6725 11.5153 32.7548 11.5977 32.7548C11.6802 32.7548 11.7626 32.7548 11.8451 32.9194C11.9275 33.084 12.01 33.0017 12.0924 33.084C12.1749 33.1663 12.2573 33.1663 12.3398 33.2486C12.4222 33.3309 12.5047 33.3309 12.6696 33.4132C12.8345 33.4955 12.8345 33.4955 12.9994 33.5778L13.3292 33.7425C13.3292 33.7425 13.4117 33.7425 13.4941 33.7425C13.5766 33.7425 13.5766 33.7425 13.6591 33.7425C13.7415 33.7425 13.6591 33.7425 13.6591 33.6601C13.4941 33.6601 13.3292 33.4955 13.0819 33.4132C12.9994 33.4132 12.917 33.4132 12.8345 33.3309C12.7521 33.2486 12.6696 33.2486 12.5872 33.1663C12.5047 33.0017 12.5872 33.084 12.917 33.1663C13.1643 33.2486 13.4941 33.4132 13.824 33.5778C14.1538 33.7425 14.4836 33.8248 14.6485 33.9071C15.3906 34.154 16.1327 34.4009 16.9572 34.5655H17.287L17.4519 34.6478C17.4519 34.6478 17.5344 34.6478 17.6168 34.6478C17.7817 34.6478 18.0291 34.6478 18.194 34.7301C18.194 34.7301 18.2765 34.7301 18.3589 34.7301C18.4414 34.7301 18.4414 34.7301 18.5238 34.7301H18.8536C18.8536 34.7301 18.9361 34.7301 19.0185 34.7301H19.1835C19.2659 34.7301 19.3484 34.7301 19.5133 34.7301C19.101 34.7301 18.6063 34.5655 18.194 34.5655C18.1116 34.5655 17.9466 34.5655 17.8642 34.5655H17.6993C17.5344 34.5655 17.287 34.4832 17.1221 34.4009C17.1221 34.4009 17.1221 34.4009 17.0397 34.4009L16.4625 34.2363C16.2976 34.2363 16.0502 34.154 15.8853 34.0717C15.8853 34.0717 15.8029 34.0717 15.7204 34.0717H15.5555L15.3081 33.9071C15.3081 33.9071 15.2257 33.9071 15.1432 33.9071C15.0608 33.9071 15.0608 33.9071 14.9783 33.9071H14.731C14.731 33.7425 14.566 33.7425 14.4836 33.7425C14.4011 33.7425 14.3187 33.7425 14.1538 33.6601C13.9889 33.5778 13.9889 33.6601 13.824 33.5778C13.824 33.5778 13.7415 33.5778 13.6591 33.5778C13.5766 33.5778 13.6591 33.5778 13.5766 33.5778C13.5766 33.5778 13.7415 33.5778 13.824 33.5778C13.9889 33.5778 14.0713 33.5778 14.2362 33.6601C14.0713 33.6601 13.9889 33.5778 13.824 33.4955C13.6591 33.4132 13.5766 33.3309 13.4117 33.3309C13.2468 33.3309 12.8345 33.084 12.7521 33.084H12.5872C12.5872 33.084 12.4222 33.084 12.3398 33.0017C12.2573 33.0017 12.1749 32.9194 12.0924 32.8371H12.01C12.01 32.8371 12.01 32.7548 11.9275 32.7548C11.9275 32.7548 11.7626 32.7548 11.7626 32.6725H11.5977C11.5977 32.5902 11.5153 32.5078 11.5153 32.5078C11.5153 32.5078 11.5153 32.5078 11.4328 32.5078C11.2679 32.5078 11.1854 32.3432 11.0205 32.2609H10.9381C10.9381 32.2609 10.9381 32.1786 10.8556 32.1786C10.8556 32.1786 10.6907 32.1786 10.6907 32.014C10.6907 31.8494 10.5258 31.9317 10.5258 31.9317C10.5258 31.9317 10.5258 31.9317 10.4434 31.9317C10.3609 31.9317 10.2785 31.7671 10.1135 31.6848C9.94864 31.6025 9.86619 31.5202 9.78373 31.4379L9.37147 31.1909C9.37147 31.1909 9.37146 31.1909 9.28901 31.1909C9.20656 31.1909 9.28901 31.1909 9.20656 31.1909C9.20656 31.1909 9.04165 31.1086 9.04165 31.0263L8.87674 30.8617H8.79429V30.7794C8.71183 30.6148 8.54693 30.5325 8.46447 30.5325C8.38202 30.5325 8.46447 30.5325 8.46447 30.4502C7.80484 29.874 7.14522 29.2979 6.56804 28.6394C6.56804 28.6394 6.56804 28.6394 6.56804 28.5571C6.56804 28.4748 6.56804 28.5571 6.40313 28.3925C6.40313 28.3925 6.40313 28.3102 6.32068 28.2279C5.5786 27.4871 4.91896 26.6641 4.34179 25.7587C4.34179 25.6764 4.17688 25.5941 4.09443 25.4295C4.01198 25.2649 3.92952 25.2649 3.92952 25.1002C3.92952 25.1002 3.92952 25.1002 3.92952 25.0179C3.92952 24.9356 3.92952 24.8533 3.92952 24.8533C3.92952 24.6887 4.09443 24.6064 4.09443 24.4418C4.09443 24.2772 4.25934 24.2772 4.25934 24.1126C4.34179 23.9479 4.5067 23.7833 4.58915 23.6187C4.67161 23.4541 4.83651 23.2895 4.91897 23.2072C5.00142 23.1249 5.16633 22.9603 5.24878 22.7957C5.33124 22.631 5.49614 22.5487 5.57859 22.3841C5.57859 22.3018 5.7435 22.2195 5.82596 22.1372C5.82596 22.1372 5.82596 22.0549 5.90841 21.9726C5.99086 21.8903 5.90841 21.8903 5.99086 21.8903C5.99086 21.808 6.15577 21.7257 6.23823 21.6434C6.23823 21.6434 6.23822 21.6434 6.32068 21.561C6.40313 21.4787 6.32068 21.561 6.40313 21.4787C6.56804 21.3141 6.65049 21.1495 6.8154 21.0672C6.98031 20.9026 7.14521 20.738 7.22767 20.6557C7.22767 20.6557 7.22767 20.6557 7.31012 20.5734C7.39258 20.4911 7.31012 20.5734 7.39258 20.5734C7.39258 20.5734 7.47503 20.4911 7.55748 20.4088C7.63994 20.3264 7.80485 20.1618 7.8873 20.0795C7.96975 19.9972 8.13466 19.9149 8.21711 19.7503C8.21711 19.7503 8.21711 19.7503 8.29957 19.7503H8.38202C8.38202 19.668 8.46447 19.5857 8.54693 19.5857C8.54693 19.5857 8.71183 19.4211 8.79429 19.4211C8.79429 19.4211 8.87674 19.3388 8.9592 19.2565C9.04165 19.1741 9.1241 19.1742 9.1241 19.0918C9.20656 19.0918 9.28901 18.9272 9.37147 18.9272L9.61883 18.7626C9.70128 18.7626 9.78373 18.598 9.86619 18.598C9.86619 18.598 9.94864 18.598 10.0311 18.5157C10.1135 18.4334 10.1135 18.5157 10.196 18.4334C10.2785 18.4334 10.3609 18.2688 10.5258 18.2688V18.1865C10.5258 18.1865 10.6083 18.1865 10.6907 18.1042L11.0205 17.9395V17.8572H11.1854C11.2679 17.6926 11.4328 17.6103 11.5153 17.6103C11.5977 17.6103 11.5977 17.6103 11.6802 17.528H11.8451C11.8451 17.3634 12.01 17.3634 12.0924 17.2811C12.0924 17.2811 12.0924 17.2811 12.1749 17.2811C12.2573 17.2811 12.1749 17.2811 12.2573 17.2811C12.3398 17.2811 12.5047 17.1988 12.5872 17.1165C12.5872 17.1165 12.6696 17.1165 12.7521 17.0342C12.8345 16.9519 12.8345 17.0342 12.917 16.9519C13.1643 16.8696 13.3292 16.7049 13.5766 16.6226C13.7415 16.6226 13.9064 16.458 13.9889 16.458C14.0713 16.458 14.3187 16.3757 14.4011 16.2934H14.4836C14.4836 16.2934 14.4836 16.2934 14.566 16.2111H14.8134C14.8134 16.1288 14.9783 16.0465 15.0608 16.0465C15.1432 16.0465 15.2257 16.0465 15.3081 15.9642C15.473 15.9642 15.6379 15.8819 15.8029 15.7996H15.9678C16.0502 15.7996 16.1327 15.7173 16.2151 15.7173C16.38 15.7173 16.6274 15.635 16.7923 15.5527C16.8748 15.5527 16.9572 15.5527 17.0397 15.5527C17.1221 15.5527 17.2046 15.5527 17.287 15.5527C17.4519 15.5527 17.5344 15.5527 17.6993 15.4703C17.6993 15.4703 17.8642 15.4703 17.9466 15.4703H18.194L18.4414 15.388H18.5238C18.5238 15.388 18.5238 15.388 18.6063 15.388H19.0185C19.0185 15.388 19.0185 15.3057 19.101 15.3057C19.1835 15.3057 19.101 15.3057 19.1835 15.3057C19.2659 15.3057 19.4308 15.3057 19.5133 15.3057H19.6782C19.6782 15.3057 19.7606 15.3057 19.8431 15.3057H20.1729H20.2554C20.2554 15.3057 20.2554 15.3057 20.3378 15.3057C20.3378 15.3057 20.3378 15.388 20.3378 15.4703C20.3378 15.4703 20.3378 15.635 20.2554 15.635C20.2554 15.7173 20.1729 15.8819 20.0904 15.9642C20.008 16.0465 20.008 16.2111 19.9255 16.3757C19.8431 16.5403 19.8431 16.6226 19.7606 16.7873C19.7606 16.8696 19.7606 16.9519 19.6782 17.0342V17.1988C19.6782 17.1988 19.6782 17.1988 19.6782 17.2811C19.6782 17.3634 19.6782 17.2811 19.6782 17.3634C19.6782 17.528 19.5957 17.6103 19.5133 17.7749C19.3484 18.1865 19.1835 18.6803 19.101 19.2565C19.101 19.2565 19.101 19.3388 19.101 19.4211C19.101 19.5034 19.101 19.5034 19.101 19.5857C19.101 19.668 19.101 19.8326 19.0185 19.9972C18.9361 20.1618 19.0185 20.2441 18.9361 20.4088C18.8536 20.5734 18.9361 20.6557 18.8536 20.8203C18.6887 21.6434 18.5238 22.4664 18.4414 23.2895C18.4414 23.4541 18.4414 23.5364 18.4414 23.701V23.8656C18.4414 23.8656 18.4414 24.0303 18.4414 24.1126C18.4414 24.2772 18.4414 24.4418 18.4414 24.6064C18.4414 24.6064 18.4414 24.6887 18.4414 24.771C18.4414 24.8533 18.4414 24.8533 18.4414 24.9356C18.4414 25.0179 18.4414 25.1002 18.4414 25.1825C18.4414 25.2649 18.4414 25.3472 18.4414 25.4295C18.4414 25.5118 18.4414 25.5941 18.4414 25.6764C18.4414 25.7587 18.4414 25.841 18.4414 25.9233V26.1702C18.4414 26.3348 18.4414 26.4171 18.4414 26.5818V26.8287C18.4414 26.8287 18.4414 26.8287 18.4414 26.911C18.4414 26.9933 18.4414 26.911 18.4414 26.9933C18.4414 27.1579 18.4414 27.2402 18.4414 27.4048C18.4414 27.4048 18.4414 27.4871 18.4414 27.5694V27.7341C18.4414 27.8987 18.4414 27.981 18.4414 28.1456C18.4414 28.1456 18.4414 28.1456 18.4414 28.3102C18.4414 28.4748 18.4414 28.5571 18.4414 28.6394C18.4414 28.7217 18.4414 28.804 18.4414 28.9687C18.4414 29.051 18.4414 29.1333 18.4414 29.2979C18.4414 29.4625 18.4414 29.4625 18.4414 29.5448C18.4414 29.5448 18.4414 29.6271 18.4414 29.7094C18.4414 29.7917 18.4414 29.7917 18.4414 29.874C18.4414 29.9563 18.4414 30.121 18.4414 30.2033C18.4414 30.2033 18.4414 30.3679 18.4414 30.4502C18.4414 30.4502 18.4414 30.4502 18.4414 30.5325C18.4414 30.6148 18.4414 30.5325 18.4414 30.6148C18.4414 30.7794 18.4414 30.944 18.5238 31.1086C18.5238 31.1086 18.5238 31.1086 18.5238 31.1909C18.5238 31.3556 18.5238 31.4379 18.5238 31.5202C18.5238 31.6025 18.5238 31.6848 18.5238 31.7671C18.5238 31.7671 18.5238 31.7671 18.5238 31.8494V31.9317C18.5238 32.0963 18.5238 32.1786 18.6063 32.3432C18.6063 32.4255 18.6063 32.5079 18.6063 32.5902C18.6063 32.6725 18.6063 32.6725 18.6063 32.7548C18.6063 32.8371 18.6063 33.0017 18.6887 33.084C18.7712 33.1663 18.6887 33.2486 18.7712 33.3309C18.7712 33.4955 18.8536 33.6601 18.9361 33.7425C18.9361 33.7425 18.9361 33.9071 18.9361 33.9894C18.9361 34.0717 18.9361 34.154 19.0185 34.2363C19.0185 34.4009 19.101 34.5655 19.1835 34.6478V34.8124C19.1835 34.9771 19.2659 35.1417 19.3484 35.3063C19.3484 35.3063 19.3484 35.3063 19.3484 35.3886C19.3484 35.4709 19.3484 35.3886 19.3484 35.4709C19.3484 35.4709 19.3484 35.6355 19.4308 35.6355C19.5133 35.6355 19.4308 35.8001 19.5133 35.8824C19.5957 35.9647 19.5133 36.047 19.5957 36.1293C19.5957 36.294 19.7606 36.4586 19.8431 36.6232C19.8431 36.6232 19.8431 36.6232 19.8431 36.7055C19.8431 36.7878 19.8431 36.7055 19.8431 36.8701C19.8431 37.0347 19.9255 37.0347 19.9255 37.117C19.9255 37.1993 20.008 37.3639 20.0904 37.4463C19.9255 37.4463 19.7606 37.4463 19.5957 37.4463M46.8054 12.7542V12.5896C46.8054 12.5896 46.8054 12.5896 46.8054 12.5073C46.8054 12.3427 46.8054 12.2604 46.8054 12.0958V11.9312C46.8054 11.9312 46.8054 11.9312 46.8054 11.8488C46.8054 11.7665 46.8054 11.8488 46.8054 11.7665C46.8054 11.6019 46.8054 11.355 46.8054 11.1904C46.8054 11.1904 46.8054 11.1081 46.8054 11.0258C46.8054 10.9435 46.8054 10.9435 46.8054 10.8612C46.8054 10.7789 46.8054 10.7789 46.8054 10.6966C46.8054 10.6142 46.8054 10.5319 46.8054 10.3673C46.8054 10.3673 46.8054 10.285 46.8054 10.2027C46.8054 10.2027 46.8054 10.0381 46.8054 9.95579V9.79117C46.8054 9.70887 46.8054 9.54426 46.8054 9.46195C46.3107 6.82813 45.4862 4.27662 44.1669 1.88972C44.1669 1.72511 44.1669 1.6428 44.002 1.5605L43.7546 1.14896H43.0126C40.7039 1.14896 38.4776 1.47819 36.3338 2.05434C36.3338 2.05434 36.3338 2.05434 36.4163 2.05434C36.4987 2.05434 36.5812 2.05434 36.6636 2.05434C36.6636 2.05434 36.6636 2.05434 36.7461 2.05434C36.911 2.05434 36.9934 2.05434 37.0759 1.97203C37.0759 1.97203 37.1584 1.97203 37.2408 1.97203C37.3233 1.97203 37.3233 1.97203 37.4057 1.97203C37.5706 1.97203 37.6531 1.97203 37.9004 1.88972H37.7355C37.818 1.88972 37.9004 1.88972 37.9829 1.88972C37.9829 1.88972 37.9829 1.88972 38.0653 1.88972H38.1478C38.1478 1.88972 38.1478 1.88972 38.0653 1.88972H37.9004C37.9004 1.88972 37.818 1.88972 37.7355 1.88972C37.7355 1.88972 37.7355 1.88972 37.818 1.88972C39.2197 1.5605 40.7039 1.39589 42.1056 1.39589C42.2705 1.39589 42.3529 1.39589 42.5178 1.39589C42.5178 1.39589 42.6827 1.39589 42.7652 1.39589C42.8477 1.39589 42.9301 1.39589 43.0126 1.39589H43.2599C43.2599 1.39589 42.7652 1.39589 42.6827 1.39589C42.6003 1.39589 42.6003 1.39589 42.5178 1.39589C42.4354 1.39589 42.2705 1.39589 42.188 1.39589H42.0231C42.0231 1.39589 41.9407 1.39589 41.8582 1.39589H41.5284H41.3635H41.1986C41.1986 1.39589 41.1161 1.39589 41.0337 1.39589H40.7039H40.374C40.374 1.39589 40.2916 1.39589 40.2091 1.39589H40.0442C39.9618 1.39589 39.8793 1.39589 39.7144 1.39589H39.5495H39.3846C39.2197 1.39589 39.0548 1.39588 38.8899 1.47819H38.725H38.5601H38.1478C37.9004 1.47819 37.6531 1.6428 37.4057 1.6428C37.3233 1.6428 37.1584 1.6428 37.0759 1.6428C36.9934 1.6428 36.8285 1.6428 36.7461 1.6428C36.4987 1.6428 36.3338 1.72511 36.0865 1.80742H35.7566C35.7566 1.88973 35.5917 1.88972 35.5917 1.88972C35.5917 1.88972 35.5093 1.88972 35.4268 1.88972C35.2619 1.88972 35.0146 1.97203 34.8496 2.05434C34.7672 2.05434 34.6847 2.05434 34.5198 2.13664H34.19C34.19 2.21895 34.1076 2.30126 34.0251 2.30126C33.9427 2.30126 33.9427 2.30126 33.8602 2.30126C33.7778 2.30126 33.6128 2.30126 33.5304 2.38356H33.2006C33.2006 2.54818 33.1181 2.54818 33.0357 2.54818C32.9532 2.54818 32.9532 2.54818 32.8708 2.54818H32.7059C32.8708 2.54818 32.9532 2.38357 33.1181 2.30126C33.1181 2.30126 33.1181 2.30126 33.2006 2.30126H33.4479C33.4479 2.21895 33.6128 2.13664 33.6953 2.13664H33.7778C34.6023 1.80742 35.5093 1.47819 36.4163 1.31358C36.5812 1.31358 36.6636 1.31358 36.8285 1.23127C36.9934 1.14896 37.0759 1.23127 37.2408 1.14896C37.4057 1.06666 37.4882 1.14896 37.6531 1.06666H38.0653L38.4776 0.902043H38.5601H38.725C38.8899 0.902043 38.9723 0.902043 39.1372 0.902043C39.1372 0.902043 39.1372 0.902043 39.2197 0.902043H39.3021C39.3021 0.902043 39.3846 0.902043 39.4671 0.902043C39.7144 0.902043 39.4671 0.902043 39.3021 0.902043H39.1372C39.1372 0.902043 39.0548 0.902043 38.9723 0.902043C38.8899 0.902043 38.725 0.902043 38.6425 0.902043H38.4776L38.1478 0.984351C38.0653 0.984351 37.9004 0.984351 37.818 0.984351C37.7355 0.984351 37.5706 0.984351 37.4882 0.984351C37.2408 0.984351 36.9934 1.06666 36.7461 1.14896C36.5812 1.14896 36.5812 1.14896 36.7461 1.06666C36.8285 1.06666 36.911 1.06666 37.0759 0.984351C37.2408 0.984351 37.4057 0.984349 37.5706 0.902043H37.818C37.9004 0.902043 37.9829 0.819737 38.0653 0.819737C38.1478 0.819737 38.2303 0.819737 38.3127 0.819737H38.4776C38.4776 0.819737 38.5601 0.819737 38.6425 0.819737H39.3021C39.3021 0.73743 39.4671 0.737428 39.4671 0.737428C39.4671 0.737428 39.5495 0.737428 39.632 0.737428H39.9618H40.2916H40.6214C40.7863 0.737428 41.0337 0.737428 41.1986 0.737428H41.6933H41.8582H42.7652H43.2599C43.2599 0.737428 43.1775 0.737428 43.095 0.737428H42.6003C42.6003 0.737428 42.5178 0.737428 42.4354 0.737428C42.3529 0.737428 42.188 0.737428 42.1056 0.737428H41.9407H41.7758C41.6933 0.737428 41.5284 0.737428 41.4459 0.737428H41.1161C41.1161 0.737428 41.0337 0.737428 40.9512 0.737428C40.8688 0.737428 40.8688 0.737428 40.7863 0.737428C40.7039 0.737428 40.539 0.737428 40.374 0.737428H40.2091H40.0442C39.8793 0.737428 39.7969 0.737428 39.632 0.737428H39.4671H39.3021C39.0548 0.737428 38.8074 0.737428 38.6425 0.737428C39.1372 0.572815 39.632 0.49051 40.1267 0.408203C39.9618 0.408203 39.7144 0.408203 39.5495 0.408203H39.3846C39.3846 0.408203 39.3021 0.408203 39.2197 0.408203C39.1372 0.408203 39.0548 0.408203 38.9723 0.408203H38.725H38.5601C38.5601 0.408203 38.5601 0.408203 38.3952 0.408203C38.2303 0.408203 38.0653 0.408203 37.9004 0.408203C37.9004 0.408203 37.7355 0.408203 37.6531 0.408203C37.5706 0.408203 37.4882 0.408203 37.4057 0.408203C37.2408 0.408203 37.0759 0.408202 36.911 0.490509C36.911 0.490509 36.7461 0.490509 36.6636 0.490509C36.5812 0.490509 36.4987 0.490509 36.4163 0.490509C36.2514 0.490509 36.1689 0.490509 36.0865 0.490509H35.9215L35.5917 0.655123C35.4268 0.655123 35.4268 0.655122 35.3444 0.737428C35.3444 0.737428 35.3444 0.737428 35.2619 0.737428C35.1795 0.737428 35.1795 0.737428 35.097 0.737428C34.6847 0.902042 34.6847 0.902043 34.4374 0.902043C34.2725 0.902043 34.1076 1.06666 33.9427 1.06666H33.6953C33.6953 1.14896 33.4479 1.23127 33.4479 1.23127L32.9532 1.47819C32.7883 1.47819 32.6234 1.6428 32.4585 1.72511H32.2936C32.2936 1.72511 32.2936 1.80742 32.1287 1.80742H31.8813C31.8813 1.88973 31.634 2.05434 31.634 2.05434H31.469V2.13664C31.1392 2.30126 30.8094 2.46587 30.4796 2.63049C30.4796 2.63049 30.3147 2.71279 30.2322 2.7951C30.2322 2.7951 30.2322 2.7951 30.1498 2.7951C29.9849 2.7951 30.1498 2.7951 29.9849 2.87741C29.9024 2.87741 29.9849 2.87741 29.82 2.95971C29.82 2.95971 29.6551 2.95971 29.6551 3.04202H29.5726C29.5726 3.04202 29.5726 3.12433 29.4902 3.12433C29.3253 3.12433 29.2428 3.28894 29.0779 3.37125L28.913 3.53586L28.7481 3.70047C28.5832 3.78278 28.5007 3.86509 28.3358 3.94739C27.099 4.77046 26.0271 5.75814 24.9552 6.74583C24.7903 6.91044 24.9552 6.74582 24.7078 6.91044C23.9658 7.6512 23.2237 8.47427 22.5641 9.29734C22.4816 9.37964 22.3991 9.54426 22.3167 9.62656C22.3167 9.70887 22.3167 9.79117 22.3167 9.79117C22.3167 9.79117 22.2342 9.87348 22.2342 9.95579C22.1518 10.0381 22.0693 10.2027 21.9869 10.285C21.9869 10.3673 21.9869 10.4496 21.9869 10.4496V10.6142C21.822 10.6966 21.7395 10.8612 21.6571 10.9435C21.6571 11.0258 21.6571 11.1081 21.6571 11.1081C21.6571 11.1904 21.6571 11.2727 21.6571 11.2727C21.6571 11.2727 21.6571 11.2727 21.5746 11.2727C21.5746 11.2727 21.4097 11.2727 21.3272 11.2727H20.915C20.915 11.2727 20.7501 11.2727 20.6676 11.2727C20.5852 11.2727 20.5027 11.2727 20.4203 11.2727H19.9255C19.9255 11.2727 19.7606 11.2727 19.6782 11.2727H19.4308H19.1835H19.101H19.0185C18.8536 11.2727 18.6887 11.2727 18.5238 11.2727H18.2765H18.194C17.8642 11.2727 17.5344 11.355 17.287 11.4373C17.1221 11.4373 16.9572 11.4373 16.7923 11.5196C16.6274 11.6019 16.4625 11.6019 16.2976 11.6019H16.0502L15.9678 11.6842H15.8853C15.7204 11.6842 15.5555 11.8488 15.3906 11.8488C15.3906 11.8488 15.2257 11.8488 15.1432 11.8488H14.8959C14.731 12.0135 14.566 12.0135 14.4011 12.0958C14.4011 12.0958 14.2362 12.0958 14.1538 12.1781H13.9064C13.9064 12.2604 13.6591 12.3427 13.6591 12.3427C13.6591 12.3427 13.4941 12.3427 13.4117 12.425C12.2573 12.8365 11.1854 13.4127 10.1135 13.9888C9.1241 14.565 8.13466 15.2234 7.14522 15.8819C6.40313 16.458 5.7435 17.0342 5.08387 17.6103C4.42424 18.1865 3.84707 18.8449 3.35235 19.4211C3.26989 19.5034 3.18744 19.5857 3.10498 19.7503C3.10498 19.7503 3.02253 19.8326 2.94008 19.9149C2.77517 20.1618 2.61026 20.3264 2.44536 20.4911C2.28045 20.6557 2.11554 20.9026 1.95063 21.0672C1.95063 21.0672 1.95063 21.1495 1.86818 21.2318C1.78573 21.3141 1.86818 21.3141 1.78573 21.3964C1.78573 21.4787 1.62082 21.561 1.53837 21.7257C1.53837 21.7257 1.53836 21.808 1.45591 21.8903C1.37346 21.9726 1.45591 21.9726 1.37346 22.0549L1.1261 22.3841C0.961191 22.5487 0.878737 22.7956 0.71383 23.0426L0.548922 23.3718C0.466468 23.5364 0.384015 23.6187 0.301561 23.7833C0.301561 23.8656 0.219107 23.9479 0.136653 24.0303C0.136653 24.0303 0.136653 24.1126 0.0541992 24.1949C0.0541992 24.3595 0.136654 24.4418 0.219107 24.5241V24.6887V24.8533C0.384015 24.9356 0.384014 25.1002 0.466468 25.1825L0.631376 25.4295C0.713829 25.5941 0.796282 25.7587 0.878736 25.9233C0.96119 26.0879 1.04364 26.2525 1.20855 26.4172C1.20855 26.4172 1.291 26.5818 1.37346 26.6641C1.45591 26.7464 1.45591 26.8287 1.53837 26.911C1.62082 27.0756 1.78573 27.2402 1.86818 27.4048C1.95063 27.5694 2.11554 27.6518 2.19799 27.8164C2.3629 28.0633 2.61026 28.3925 2.77517 28.5571V28.7217C2.94008 28.7217 2.94008 28.804 3.02253 28.8864C3.02253 28.9687 3.18744 29.051 3.26989 29.1333C3.26989 29.1333 3.35235 29.2979 3.4348 29.3802C3.51725 29.4625 3.51725 29.5448 3.59971 29.6271C3.68216 29.7917 3.84707 29.874 3.92952 30.0386C4.58915 30.7794 5.33123 31.4379 6.15577 32.0963C6.98031 32.8371 7.8873 33.4955 8.79429 34.0717C8.79429 34.0717 8.9592 34.154 8.9592 34.2363H9.1241C9.1241 34.3186 9.53637 34.5655 9.53637 34.5655C9.53637 34.5655 9.53637 34.5655 9.61883 34.5655H9.70128C9.70128 34.6478 9.86619 34.7301 9.86619 34.7301C10.0311 34.7301 10.1135 34.8947 10.2785 34.9771C10.4434 35.0594 10.6083 35.1417 10.8556 35.3063C10.8556 35.3063 10.9381 35.3063 11.0205 35.3063C11.103 35.3063 11.103 35.3063 11.1854 35.3063L11.4328 35.4709C12.5047 35.9647 13.5766 36.4586 14.6485 36.7878C14.731 36.7878 14.8134 36.7878 14.8959 36.7878H15.1432C15.2257 36.8701 15.3081 36.9524 15.3906 36.9524H15.5555L16.1327 37.117C16.1327 37.117 16.2151 37.117 16.2976 37.117H16.4625L16.7098 37.1993H16.9572L17.2046 37.3639C17.3695 37.3639 17.6168 37.3639 17.7817 37.4463H18.3589C18.3589 37.5286 18.5238 37.5286 18.5238 37.5286C18.6063 37.5286 18.6887 37.5286 18.7712 37.5286H19.101H19.2659H19.4308C19.6782 37.5286 19.8431 37.5286 20.0904 37.6109C20.3378 37.6932 20.5027 37.6109 20.7501 37.6109C20.8325 37.6109 20.9974 37.6109 21.0799 37.6109H21.2448H21.3272C21.3272 37.6932 21.4097 37.7755 21.4922 37.9401C21.4922 37.9401 21.4922 38.0224 21.5746 38.1047C21.6571 38.187 21.5746 38.187 21.6571 38.2693C21.6571 38.3516 21.7395 38.4339 21.822 38.5162C21.9044 38.5986 21.9044 38.6809 21.9869 38.7632L22.3167 39.257C22.3167 39.257 22.3991 39.4216 22.4816 39.4216C22.5641 39.4216 22.5641 39.5862 22.6465 39.5862C22.729 39.5862 22.729 39.7508 22.8114 39.7508C22.8939 39.7508 22.8939 39.9155 22.9763 39.9155C23.0588 40.0801 23.2237 40.1624 23.3061 40.327C23.3061 40.327 23.3886 40.4916 23.471 40.4916C23.5535 40.4916 23.5535 40.6562 23.636 40.6562C23.7184 40.8208 23.8833 40.9031 23.9658 41.0678L24.2956 41.4793C24.2956 41.4793 24.378 41.6439 24.4605 41.6439C24.5429 41.6439 24.6254 41.8085 24.6254 41.8085C24.7903 41.9731 24.8728 42.0554 25.0377 42.2201L25.3675 42.5493C25.4499 42.6316 25.5324 42.7139 25.6973 42.8785C25.8622 43.0431 25.9447 43.0431 26.0271 43.1254C26.0271 43.1254 26.1096 43.2077 26.192 43.29C26.2745 43.3723 26.2745 43.3723 26.3569 43.4547C26.4394 43.537 26.6043 43.6193 26.6867 43.7016L26.8516 43.8662V44.0308C26.9341 44.1131 27.099 44.1954 27.1815 44.2777C27.1815 44.2777 27.2639 44.36 27.3464 44.4423C27.4288 44.6069 27.5937 44.6893 27.6762 44.7716C28.0884 45.1008 28.5832 45.43 28.9954 45.6769C28.9954 45.6769 29.0779 45.6769 29.1603 45.7592H29.3253C29.4077 45.9239 29.5726 46.0062 29.6551 46.0885C29.9024 46.2531 30.0673 46.3354 30.2322 46.4177C30.5621 46.5823 30.8094 46.7469 31.0568 46.9115H31.1392C31.1392 46.9115 31.1392 46.9938 31.2217 46.9938H31.3866C31.5515 47.1585 31.634 47.2408 31.7989 47.3231C31.7989 47.3231 31.7989 47.3231 31.8813 47.3231H32.1287C32.1287 47.4877 32.2936 47.4877 32.376 47.4877C32.376 47.4877 32.376 47.4877 32.4585 47.4877H32.5409C32.7059 47.57 32.8708 47.6523 32.9532 47.7346H33.0357L33.283 47.8169H33.5304C33.6128 47.9815 33.6953 47.9815 33.8602 48.0638L34.3549 48.2285C34.3549 48.2285 34.3549 48.2285 34.4374 48.2285H34.6847C34.8497 48.3108 35.0146 48.3931 35.1795 48.4754L35.6742 48.64C36.8285 48.9692 37.9004 49.1338 39.0548 49.2984C39.2197 49.2984 39.3846 49.2984 39.632 49.2984C39.7144 49.2984 39.7969 49.2984 39.9618 49.2984H40.2916C40.374 49.2984 40.539 49.2984 40.6214 49.2984H40.7863C40.7863 49.2984 40.8688 49.2984 40.9512 49.2984C41.1161 49.2984 41.281 49.2984 41.3635 49.2984V49.1338L41.6109 49.3807C41.6109 49.3807 41.4459 49.3807 41.3635 49.3807H41.6109H41.8582H42.188C42.188 49.3807 42.2705 49.3807 42.3529 49.3807C42.3529 49.3807 42.3529 49.3807 42.4354 49.3807C42.4354 49.3807 42.4354 49.2984 42.5178 49.2161C42.5178 49.1338 42.6003 49.0515 42.6827 48.8869C42.7652 48.7223 42.7652 48.7223 42.8477 48.5577C42.9301 48.3931 42.9301 48.3931 43.0126 48.2285V48.0638H43.095C43.1775 47.7346 43.3424 47.57 43.4248 47.3231C43.5073 47.0761 43.5897 46.9115 43.7546 46.6646C44.1669 45.8416 44.4967 44.9362 44.8265 44.0308C44.8265 43.8662 44.909 43.7016 44.9915 43.6193C44.9915 43.6193 44.9915 43.6193 44.9915 43.537C44.9915 43.4547 44.9915 43.537 44.9915 43.4547C44.9915 43.4547 44.9915 43.29 44.9915 43.2077C44.9915 43.0431 44.9914 42.8785 45.1564 42.7962C45.3213 42.7139 45.1564 42.467 45.2388 42.3024C45.3213 41.9731 45.4037 41.6439 45.4862 41.2324C45.4862 41.2324 45.4862 41.1501 45.4862 41.0678C45.4862 40.9855 45.4862 40.9855 45.4862 40.9031C45.4862 40.8208 45.4862 40.7385 45.4862 40.5739C45.4862 40.4093 45.4862 40.4093 45.4862 40.2447C45.4862 40.0801 45.4862 40.0801 45.4862 39.9155C45.4862 39.7508 45.4862 39.7509 45.4862 39.5862C45.4862 39.5862 45.4862 39.5039 45.4862 39.4216C45.4862 39.3393 45.4862 39.3393 45.4862 39.257C45.4862 39.0101 45.4862 38.8455 45.4862 38.5986V38.4339V38.2693V37.9401C45.4862 37.9401 45.4862 37.8578 45.4862 37.7755C45.4862 37.6932 45.4862 37.6932 45.4862 37.6109C45.4862 37.5286 45.4862 37.364 45.4862 37.2816C45.4862 37.117 45.4862 36.9524 45.4862 36.7878C45.4862 36.6232 45.4862 36.4586 45.4862 36.294C45.4862 35.9647 45.4862 35.6355 45.4862 35.3063V35.1417C45.4862 34.9771 45.4862 34.8947 45.4862 34.8124C45.4862 34.6478 45.4862 34.4832 45.4862 34.4009C45.4862 34.4009 45.4862 34.2363 45.4862 34.154C45.4862 34.0717 45.4862 33.9894 45.4862 33.9894C45.4862 33.8248 45.4862 33.7425 45.4862 33.6601V33.4955V33.3309C45.4862 33.1663 45.4862 33.0017 45.4862 32.8371C45.4862 32.5079 45.4037 32.014 45.3213 31.5202C45.3213 31.3556 45.3213 31.2732 45.3213 31.2732V31.1909C45.3213 31.1909 45.3213 31.1086 45.3213 30.944C45.3213 30.7794 45.3213 30.6971 45.3213 30.6148C45.3213 30.6148 45.3213 30.5325 45.3213 30.4502C45.3213 30.3679 45.3213 30.3679 45.3213 30.2856C45.3213 30.2033 45.3213 30.0386 45.3213 29.9563C45.3213 29.9563 45.3213 29.874 45.3213 29.7917C45.3213 29.7094 45.3213 29.7094 45.3213 29.6271C45.3213 29.3802 45.2388 29.1333 45.1564 28.8864C45.1564 28.804 45.1564 28.6394 45.0739 28.4748C44.9915 28.3102 45.0739 28.2279 44.909 28.0633C44.909 27.8987 44.8265 27.7341 44.7441 27.5694V27.3225C44.6616 27.3225 44.6616 27.3225 44.5792 27.2402C44.4967 27.1579 44.5792 27.2402 44.5792 27.1579C44.5792 26.9933 44.4143 26.8287 44.4143 26.6641C44.4143 26.6641 44.4143 26.6641 44.4143 26.4995V26.3348C44.3318 26.3348 44.3318 26.1702 44.2494 26.0879C44.1669 26.0056 44.2494 25.9233 44.1669 25.841C44.0845 25.7587 44.1669 25.6764 44.0845 25.5941C44.0845 25.4295 43.9196 25.2649 43.8371 25.1002C43.8371 24.9356 43.6722 24.771 43.5897 24.6064C43.5897 24.6064 43.5897 24.4418 43.5073 24.3595C43.4248 24.2772 43.5073 24.1949 43.4248 24.1126C43.4248 23.9479 43.2599 23.7833 43.1775 23.701C43.1775 23.701 43.1775 23.701 43.1775 23.6187C43.1775 23.6187 43.1775 23.4541 43.3424 23.3718C43.3424 23.2895 43.4248 23.1249 43.5073 23.0426C43.5897 22.9603 43.5073 22.878 43.5897 22.7957C43.5897 22.631 43.7546 22.5487 43.7546 22.3841C44.002 21.8903 44.1669 21.4787 44.3318 21.1495C44.3318 21.0672 44.3318 20.9849 44.4143 20.9026C44.4143 20.9026 44.4143 20.9026 44.4143 20.8203C44.4143 20.6557 44.4967 20.5734 44.5792 20.4088C44.5792 20.4088 44.5792 20.3264 44.5792 20.2441C44.5792 20.1618 44.5792 20.0795 44.6616 19.9972C44.7441 19.9149 44.6616 19.8326 44.7441 19.7503V19.5857C44.7441 19.5857 44.7441 19.5034 44.8265 19.4211C44.8265 19.2565 44.909 19.0095 44.9915 18.8449C44.9915 18.8449 44.9915 18.7626 44.9915 18.6803C44.9915 18.598 44.9915 18.5157 44.9915 18.4334C44.9915 18.3511 44.9915 18.1042 45.0739 18.1042L45.2388 17.528C45.2388 17.528 45.2388 17.4457 45.2388 17.3634C45.2388 17.2811 45.2388 17.2811 45.2388 17.1988V16.9519C45.3213 16.7873 45.4037 16.6226 45.4037 16.458C45.4037 16.2934 45.4037 16.1288 45.4862 15.9642C45.4862 15.8819 45.4862 15.7996 45.4862 15.7173C45.4862 15.635 45.4862 15.5527 45.4862 15.4703C45.4862 15.3057 45.4862 15.1411 45.4862 14.8942C45.4862 14.4827 45.5686 14.0711 45.6511 13.6596C45.6511 13.495 45.6511 13.4127 45.6511 13.0834C45.6511 12.9188 45.6511 12.5896 45.6511 12.5073V12.3427C45.6511 12.1781 45.6511 11.9312 45.6511 11.6842C45.6511 11.1904 45.6511 10.7789 45.6511 10.285" fill="#944361"/>
</svg>
