<svg width="52" height="44" viewBox="0 0 52 44" fill="none" xmlns="http://www.w3.org/2000/svg">
<path d="M37.9512 1.75684C41.8742 1.75689 44.7555 2.83492 46.792 4.82324C48.8221 6.80543 49.918 9.61142 49.918 13.4424C49.9179 17.0425 48.0556 20.9092 43.9053 25.0596L26.373 41.9443L26.3535 41.9639C26.3152 42.0022 26.2917 42.0127 26.2822 42.0166C26.2719 42.0208 26.241 42.0312 26.1738 42.0312C26.1071 42.0312 26.0768 42.0208 26.0664 42.0166C26.0569 42.0127 26.0334 42.0022 25.9951 41.9639L25.9766 41.9453L8.39551 24.9844L8.3457 24.9365L8.29102 24.8926C8.17845 24.8025 7.97299 24.6129 7.65527 24.2861C7.38246 24.0055 6.90137 23.4412 6.1875 22.5488C5.51407 21.707 4.9141 20.8467 4.38672 19.9678C3.89343 19.1456 3.43248 18.1149 3.0166 16.8584C2.61986 15.6596 2.4307 14.523 2.43066 13.4424C2.43066 9.61142 3.5265 6.80543 5.55664 4.82324C7.59317 2.83493 10.4744 1.75688 14.3975 1.75684C15.3859 1.75684 16.4141 1.92745 17.4873 2.28516C18.5782 2.64879 19.5874 3.13765 20.5186 3.75C21.5326 4.41689 22.3896 5.03281 23.0957 5.59766C23.804 6.16433 24.4765 6.76653 25.1133 7.40332L26.1738 8.46387L27.2354 7.40332C27.8721 6.76655 28.5446 6.16432 29.2529 5.59766C29.959 5.03282 30.816 4.41689 31.8301 3.75C32.7612 3.13765 33.7704 2.64879 34.8613 2.28516C35.9345 1.92746 36.9627 1.75684 37.9512 1.75684Z" stroke="#944361" stroke-width="3"/>
</svg>
